<svg width="514" height="47" viewBox="0 0 514 47" fill="none" xmlns="http://www.w3.org/2000/svg">
<path d="M6.41734 9.9C6.41734 7.69 6.11401 6.065 5.50734 5.025C4.90068 3.94166 3.68734 3.4 1.86734 3.4H0.567344V2.1H6.41734C8.02068 2.1 9.21234 2.31666 9.99234 2.75C10.8157 3.14 11.4007 3.87666 11.7473 4.96C12.094 6.04333 12.2673 7.69 12.2673 9.9V42.4H35.3423V45H6.41734V9.9ZM44.4564 9.9C44.4564 7.69 44.1531 6.065 43.5464 5.025C42.9397 3.94166 41.7264 3.4 39.9064 3.4H38.6064V2.1H66.2964C69.9797 2.1 71.8214 3.83333 71.8214 7.3V12.175H70.5214C70.5214 7.19167 67.8131 4.7 62.3964 4.7H50.3064V21.6H67.8564V24.2H50.3064V42.4H61.6814C64.6714 42.4 67.0114 41.8583 68.7014 40.775C70.3914 39.6917 71.7347 37.85 72.7314 35.25L74.0314 35.575L71.7564 41.75C70.9764 43.9167 69.3514 45 66.8814 45H44.4564V9.9ZM119.336 45.325C117.256 45.325 115.198 44.7617 113.161 43.635C111.125 42.465 109.5 40.2117 108.286 36.875L106.661 32.65H88.4612L83.2613 45H80.3363L98.5363 2.1H100.486L114.786 36.875C115.87 39.3883 116.888 41.1217 117.841 42.075C118.795 42.985 120.16 43.5267 121.936 43.7V45C121.156 45.2167 120.29 45.325 119.336 45.325ZM89.4363 30.05H105.361L97.5613 11.2L89.4363 30.05ZM130.056 9.9C130.056 7.69 129.753 6.065 129.146 5.025C128.539 3.94166 127.326 3.4 125.506 3.4H124.206V2.1H141.236C149.643 2.1 155.991 3.96333 160.281 7.69C164.614 11.4167 166.781 16.6167 166.781 23.29C166.781 27.58 165.871 31.3717 164.051 34.665C162.231 37.915 159.523 40.45 155.926 42.27C152.373 44.09 148.039 45 142.926 45H130.056V9.9ZM142.731 42.725C145.938 42.725 148.819 41.945 151.376 40.385C153.976 38.7817 156.013 36.55 157.486 33.69C158.959 30.7867 159.696 27.4067 159.696 23.55C159.696 19.78 158.959 16.4433 157.486 13.54C156.056 10.6367 154.041 8.38333 151.441 6.78C148.841 5.17667 145.894 4.375 142.601 4.375C140.521 4.375 138.354 4.72167 136.101 5.415V41.88C138.528 42.4433 140.738 42.725 142.731 42.725ZM179.077 9.9C179.077 7.69 178.773 6.065 178.167 5.025C177.56 3.94166 176.347 3.4 174.527 3.4H173.227V2.1H200.917C204.6 2.1 206.442 3.83333 206.442 7.3V12.175H205.142C205.142 7.19167 202.433 4.7 197.017 4.7H184.927V21.6H202.477V24.2H184.927V42.4H196.302C199.292 42.4 201.632 41.8583 203.322 40.775C205.012 39.6917 206.355 37.85 207.352 35.25L208.652 35.575L206.377 41.75C205.597 43.9167 203.972 45 201.502 45H179.077V9.9ZM249.016 45.65C246.72 45.65 244.705 44.9783 242.971 43.635C241.281 42.2483 239.396 39.7783 237.316 36.225L230.816 25.175H226.266V45H220.416V9.9C220.416 7.69 220.113 6.065 219.506 5.025C218.9 3.94166 217.686 3.4 215.866 3.4H214.566V2.1H231.466C235.583 2.1 239.31 2.92333 242.646 4.57C246.026 6.17333 247.716 9.25 247.716 13.8C247.716 19.5633 244.25 23.2467 237.316 24.85L244.141 36.225C245.745 38.9117 247.175 40.7967 248.431 41.88C249.731 42.92 251.226 43.5267 252.916 43.7V45C252.526 45.1733 251.963 45.325 251.226 45.455C250.533 45.585 249.796 45.65 249.016 45.65ZM231.141 22.9C232.485 22.9 233.936 22.575 235.496 21.925C237.1 21.275 238.443 20.2567 239.526 18.87C240.653 17.4833 241.216 15.7933 241.216 13.8C241.216 11.6767 240.653 9.92166 239.526 8.535C238.443 7.105 237.1 6.065 235.496 5.415C233.936 4.72167 232.485 4.375 231.141 4.375C229.625 4.375 228 4.59167 226.266 5.025V22.25C228 22.6833 229.625 22.9 231.141 22.9ZM262.074 9.9C262.074 7.69 261.77 6.065 261.164 5.025C260.557 3.94166 259.344 3.4 257.524 3.4H256.224V2.1H273.124C277.847 2.1 281.942 2.88 285.409 4.44C288.919 6 290.674 9.01167 290.674 13.475C290.674 15.5117 289.98 17.3533 288.594 19C287.207 20.6467 285.084 21.9467 282.224 22.9C286.21 23.55 288.984 24.7417 290.544 26.475C292.147 28.165 292.949 30.44 292.949 33.3C292.949 37.6767 291.215 40.7317 287.749 42.465C284.325 44.155 280.1 45 275.074 45H262.074V9.9ZM274.099 21.925C275.875 21.925 277.544 21.6 279.104 20.95C280.707 20.2567 282.007 19.26 283.004 17.96C284 16.6167 284.499 15.0133 284.499 13.15C284.499 11.2 283.914 9.575 282.744 8.275C281.574 6.93167 280.079 5.95667 278.259 5.35C276.482 4.7 274.662 4.375 272.799 4.375C271.282 4.375 269.657 4.59167 267.924 5.025V21.925H274.099ZM274.099 42.725C278.042 42.725 281.075 41.945 283.199 40.385C285.365 38.825 286.449 36.5717 286.449 33.625C286.449 30.6783 285.387 28.425 283.264 26.865C281.184 25.305 278.129 24.525 274.099 24.525H267.924V41.815C270.004 42.4217 272.062 42.725 274.099 42.725ZM321.758 46.3C317.728 46.3 314.175 45.3033 311.098 43.31C308.065 41.3167 305.725 38.5867 304.078 35.12C302.431 31.6533 301.608 27.7967 301.608 23.55C301.608 19.3033 302.431 15.4467 304.078 11.98C305.725 8.51333 308.065 5.78333 311.098 3.79C314.175 1.79667 317.728 0.8 321.758 0.8C325.788 0.8 329.32 1.79667 332.353 3.79C335.43 5.78333 337.791 8.51333 339.438 11.98C341.085 15.4467 341.908 19.3033 341.908 23.55C341.908 27.7967 341.085 31.6533 339.438 35.12C337.791 38.5867 335.43 41.3167 332.353 43.31C329.32 45.3033 325.788 46.3 321.758 46.3ZM321.758 43.7C324.575 43.7 327.001 42.8767 329.038 41.23C331.118 39.5833 332.7 37.265 333.783 34.275C334.866 31.2417 335.408 27.6667 335.408 23.55C335.408 19.4333 334.866 15.88 333.783 12.89C332.7 9.85667 331.118 7.51666 329.038 5.87C327.001 4.22333 324.575 3.4 321.758 3.4C318.941 3.4 316.493 4.22333 314.413 5.87C312.376 7.51666 310.816 9.85667 309.733 12.89C308.65 15.88 308.108 19.4333 308.108 23.55C308.108 27.6667 308.65 31.2417 309.733 34.275C310.816 37.265 312.376 39.5833 314.413 41.23C316.493 42.8767 318.941 43.7 321.758 43.7ZM386.863 45.325C384.783 45.325 382.724 44.7617 380.688 43.635C378.651 42.465 377.026 40.2117 375.813 36.875L374.188 32.65H355.988L350.788 45H347.863L366.063 2.1H368.013L382.313 36.875C383.396 39.3883 384.414 41.1217 385.368 42.075C386.321 42.985 387.686 43.5267 389.463 43.7V45C388.683 45.2167 387.816 45.325 386.863 45.325ZM356.963 30.05H372.888L365.088 11.2L356.963 30.05ZM426.182 45.65C423.886 45.65 421.871 44.9783 420.137 43.635C418.447 42.2483 416.562 39.7783 414.482 36.225L407.982 25.175H403.432V45H397.582V9.9C397.582 7.69 397.279 6.065 396.672 5.025C396.066 3.94166 394.852 3.4 393.032 3.4H391.732V2.1H408.632C412.749 2.1 416.476 2.92333 419.812 4.57C423.192 6.17333 424.882 9.25 424.882 13.8C424.882 19.5633 421.416 23.2467 414.482 24.85L421.307 36.225C422.911 38.9117 424.341 40.7967 425.597 41.88C426.897 42.92 428.392 43.5267 430.082 43.7V45C429.692 45.1733 429.129 45.325 428.392 45.455C427.699 45.585 426.962 45.65 426.182 45.65ZM408.307 22.9C409.651 22.9 411.102 22.575 412.662 21.925C414.266 21.275 415.609 20.2567 416.692 18.87C417.819 17.4833 418.382 15.7933 418.382 13.8C418.382 11.6767 417.819 9.92166 416.692 8.535C415.609 7.105 414.266 6.065 412.662 5.415C411.102 4.72167 409.651 4.375 408.307 4.375C406.791 4.375 405.166 4.59167 403.432 5.025V22.25C405.166 22.6833 406.791 22.9 408.307 22.9ZM439.24 9.9C439.24 7.69 438.936 6.065 438.33 5.025C437.723 3.94166 436.51 3.4 434.69 3.4H433.39V2.1H450.42C458.826 2.1 465.175 3.96333 469.465 7.69C473.798 11.4167 475.965 16.6167 475.965 23.29C475.965 27.58 475.055 31.3717 473.235 34.665C471.415 37.915 468.706 40.45 465.11 42.27C461.556 44.09 457.223 45 452.11 45H439.24V9.9ZM451.915 42.725C455.121 42.725 458.003 41.945 460.56 40.385C463.16 38.7817 465.196 36.55 466.67 33.69C468.143 30.7867 468.88 27.4067 468.88 23.55C468.88 19.78 468.143 16.4433 466.67 13.54C465.24 10.6367 463.225 8.38333 460.625 6.78C458.025 5.17667 455.078 4.375 451.785 4.375C449.705 4.375 447.538 4.72167 445.285 5.415V41.88C447.711 42.4433 449.921 42.725 451.915 42.725ZM500.144 46.105C497.761 46.105 495.421 45.78 493.124 45.13C490.828 44.48 488.943 43.5483 487.469 42.335C486.039 41.1217 485.324 39.735 485.324 38.175V31.22H486.494C487.231 35.5533 488.661 38.695 490.784 40.645C492.908 42.5517 495.833 43.505 499.559 43.505C501.899 43.505 503.893 42.92 505.539 41.75C507.229 40.58 508.074 38.955 508.074 36.875C508.074 35.055 507.511 33.4733 506.384 32.13C505.258 30.7867 503.438 29.3783 500.924 27.905L492.929 23.16C490.156 21.5133 488.184 19.845 487.014 18.155C485.888 16.465 485.324 14.4067 485.324 11.98C485.324 8.64333 486.473 5.97833 488.769 3.985C491.109 1.94833 494.164 0.929998 497.934 0.929998C500.144 0.929998 502.333 1.255 504.499 1.905C506.666 2.51166 508.443 3.42166 509.829 4.635C511.259 5.805 511.974 7.17 511.974 8.73V15.685H510.804C510.068 11.3517 508.659 8.25333 506.579 6.39C504.543 4.48333 501.661 3.53 497.934 3.53C495.941 3.53 494.186 4.13667 492.669 5.35C491.153 6.56333 490.394 8.145 490.394 10.095C490.394 11.8717 490.936 13.345 492.019 14.515C493.146 15.685 495.009 17.05 497.609 18.61L505.604 23.355C508.551 25.1317 510.631 26.7783 511.844 28.295C513.058 29.8117 513.664 31.74 513.664 34.08C513.664 37.72 512.451 40.645 510.024 42.855C507.598 45.0217 504.304 46.105 500.144 46.105Z" fill="url(#paint0_linear_1_38)"/>
<defs>
<linearGradient id="paint0_linear_1_38" x1="259.5" y1="-6" x2="259.5" y2="45" gradientUnits="userSpaceOnUse">
<stop offset="0.359375" stop-color="#998F70"/>
<stop offset="0.536458" stop-color="#E1D9BF"/>
<stop offset="0.65625" stop-color="#56503B"/>
<stop offset="0.755208" stop-color="#4B452F"/>
<stop offset="1" stop-color="#847C60"/>
</linearGradient>
</defs>
</svg>
