<svg xmlns="http://www.w3.org/2000/svg" width="112" height="88" viewBox="0 0 112 88" fill="none">
  <path d="M16.431 76.6692C18.322 77.9163 20.425 78.3864 21.8987 78.4224L86.7481 80.0066C94.5063 80.1962 97.6865 75.4368 98.7124 71.2129C101.152 73.4777 101.633 79.0153 99.6796 83.0443C97.6718 87.1859 77.5824 85.8347 61.223 84.7344C56.5656 84.4211 52.2105 84.1282 48.661 83.9882C13.0144 82.5817 14.0827 79.7264 14.7019 78.0714C14.744 77.9589 14.784 77.8519 14.8103 77.7513C14.3863 77.3497 14.993 76.9939 16.431 76.6692Z" fill="black"/>
  <path d="M81.5696 43.5928C81.4988 46.4915 79.0916 48.7839 76.193 48.7131C73.2943 48.6422 71.0019 46.235 71.0727 43.3364C71.1436 40.4378 73.5508 38.1454 76.4494 38.2162C79.348 38.287 81.6404 40.6942 81.5696 43.5928Z" fill="black"/>
  <path d="M41.0696 42.0928C40.9988 44.9915 38.5916 47.2839 35.693 47.2131C32.7943 47.1422 30.5019 44.735 30.5727 41.8364C30.6436 38.9378 33.0508 36.6454 35.9494 36.7162C38.848 36.787 41.1404 39.1942 41.0696 42.0928Z" fill="black"/>
  <path d="M107.09 8.19653C107.029 10.6811 105.973 12.6706 104.73 12.6402C103.488 12.6099 102.53 10.5712 102.591 8.08663C102.652 5.60209 103.708 3.61257 104.95 3.64292C106.193 3.67327 107.15 5.71199 107.09 8.19653Z" fill="black"/>
  <path d="M11.0897 6.69653C11.029 9.18107 9.97276 11.1706 8.73049 11.1402C7.48822 11.1099 6.53037 9.07117 6.59106 6.58663C6.65176 4.10209 7.70802 2.11257 8.95029 2.14292C10.1926 2.17327 11.1504 4.21199 11.0897 6.69653Z" fill="black"/>
  <path d="M16.431 76.6692L17.2569 75.417L16.7237 75.0653L16.1007 75.206L16.431 76.6692ZM21.8987 78.4224L21.9354 76.9229L21.8987 78.4224ZM86.7481 80.0066L86.7847 78.5071L86.7481 80.0066ZM98.7124 71.2129L99.7329 70.1135L97.8584 68.3736L97.2548 70.8589L98.7124 71.2129ZM99.6796 83.0443L101.029 83.6987L99.6796 83.0443ZM61.223 84.7344L61.1224 86.231L61.223 84.7344ZM48.661 83.9882L48.7202 82.4893L48.661 83.9882ZM14.7019 78.0714L16.1068 78.597L14.7019 78.0714ZM14.8103 77.7513L16.2616 78.1303L16.4857 77.2721L15.8418 76.6622L14.8103 77.7513ZM12.8867 29.9993L14.3862 30.036L14.3874 29.9891L14.3856 29.9423L12.8867 29.9993ZM23.4392 15.4258L23.3204 13.9305L23.4392 15.4258ZM88.2886 17.0101L88.0347 18.4884L88.2568 18.5266L88.4804 18.4977L88.2886 17.0101ZM99.9697 32.1267L101.469 32.1633L99.9697 32.1267ZM99.1097 67.3299L97.6101 67.2933L97.6088 67.3468L97.6113 67.4002L99.1097 67.3299ZM86.7496 80.0053L86.713 81.5049L86.7496 80.0053ZM21.9003 78.4211L21.9369 76.9216L21.9003 78.4211ZM11.9814 67.0553L10.4819 67.0187L11.9814 67.0553ZM109.073 34.4289L107.817 35.2484L109.073 34.4289ZM109.076 60.1803L110.483 60.7025V60.7025L109.076 60.1803ZM3.69829 31.8537L4.91313 32.7335L3.69829 31.8537ZM2.43752 57.5741L1.00754 58.0271H1.00754L2.43752 57.5741ZM43.8904 58.7074C43.0705 58.5888 42.3097 59.1572 42.191 59.9771C42.0724 60.797 42.6408 61.5578 43.4607 61.6765L43.8904 58.7074ZM67.9041 62.2736C68.7288 62.1952 69.3338 61.463 69.2553 60.6383C69.1768 59.8136 68.4446 59.2086 67.6199 59.2871L67.9041 62.2736ZM15.6052 77.9213C17.7613 79.3433 20.1461 79.8801 21.8621 79.922L21.9354 76.9229C20.7039 76.8928 18.8828 76.4893 17.2569 75.417L15.6052 77.9213ZM21.8621 79.922L86.7115 81.5062L86.7847 78.5071L21.9354 76.9229L21.8621 79.922ZM86.7115 81.5062C90.9279 81.6092 94.0463 80.3594 96.2552 78.3826C98.4352 76.4316 99.6075 73.8832 100.17 71.5669L97.2548 70.8589C96.7915 72.7665 95.8607 74.7097 94.2546 76.147C92.6774 77.5585 90.3265 78.5936 86.7847 78.5071L86.7115 81.5062ZM97.692 72.3123C98.5316 73.0917 99.1842 74.6179 99.3487 76.5916C99.5099 78.5265 99.1761 80.6445 98.3299 82.3899L101.029 83.6987C102.136 81.4151 102.539 78.7498 102.338 76.3424C102.141 73.9739 101.333 71.5989 99.7329 70.1135L97.692 72.3123ZM98.3299 82.3899C98.2977 82.4563 98.1286 82.6957 97.4927 82.9894C96.881 83.272 96.0058 83.5263 94.8569 83.7343C92.5649 84.1495 89.4574 84.334 85.8245 84.3551C78.5723 84.397 69.5199 83.789 61.3237 83.2378L61.1224 86.231C69.2854 86.78 78.4574 87.3978 85.8418 87.355C89.5272 87.3337 92.8409 87.1483 95.3916 86.6863C96.6641 86.4558 97.8156 86.1448 98.7507 85.7129C99.6618 85.2921 100.56 84.6676 101.029 83.6987L98.3299 82.3899ZM61.3237 83.2378C56.6732 82.925 52.2949 82.6304 48.7202 82.4893L48.6019 85.487C52.1261 85.6261 56.458 85.9173 61.1224 86.231L61.3237 83.2378ZM48.7202 82.4893C30.8839 81.7856 22.3972 80.7215 18.4683 79.6736C17.4986 79.415 16.8641 79.1717 16.4584 78.9643C16.0454 78.7532 15.9524 78.6213 15.9583 78.6297C16.0921 78.8187 15.9305 79.0683 16.1068 78.597L13.297 77.5458C13.1637 77.902 12.6364 79.1291 13.5096 80.3629C13.8853 80.8937 14.4384 81.301 15.0929 81.6356C15.7547 81.9738 16.6092 82.2827 17.6952 82.5723C21.989 83.7175 30.7915 84.7843 48.6019 85.487L48.7202 82.4893ZM16.1068 78.597C16.1422 78.5025 16.2122 78.3197 16.2616 78.1303L13.359 77.3723C13.3594 77.3705 13.3565 77.3819 13.3452 77.4145C13.3334 77.4482 13.3193 77.4862 13.297 77.5458L16.1068 78.597ZM15.8418 76.6622C15.9213 76.7376 16.2816 77.1354 16.1511 77.7636C16.0961 78.0281 15.9722 78.2072 15.8898 78.302C15.81 78.3938 15.7442 78.4363 15.736 78.4416C15.7255 78.4483 15.7906 78.4077 15.9916 78.3398C16.1791 78.2765 16.433 78.2065 16.7614 78.1323L16.1007 75.206C15.381 75.3685 14.6329 75.5829 14.1088 75.9212C13.8683 76.0765 13.3586 76.4563 13.2138 77.1533C13.0438 77.9714 13.4873 78.5642 13.7788 78.8403L15.8418 76.6622ZM14.3856 29.9423C14.2982 27.6429 14.6988 24.4583 16.0928 21.8223C17.4476 19.2604 19.7187 17.226 23.5579 16.9211L23.3204 13.9305C18.2915 14.3299 15.1922 17.108 13.4408 20.4198C11.7286 23.6574 11.2871 27.4074 11.3877 30.0563L14.3856 29.9423ZM23.5579 16.9211C30.6813 16.3555 43.9269 16.2511 56.8785 16.5406C69.8543 16.8308 82.3553 17.513 88.0347 18.4884L88.5425 15.5317C82.6097 14.5127 69.8896 13.8308 56.9456 13.5414C43.9773 13.2515 30.6043 13.3521 23.3204 13.9305L23.5579 16.9211ZM88.4804 18.4977C90.1487 18.2826 92.6926 18.6557 94.7678 20.4938C96.8033 22.2968 98.6256 25.7243 98.4701 32.0901L101.469 32.1633C101.64 25.1889 99.6361 20.7983 96.757 18.2481C93.9175 15.7331 90.4579 15.2179 88.0967 15.5224L88.4804 18.4977ZM98.4701 32.0901L97.6101 67.2933L100.609 67.3665L101.469 32.1633L98.4701 32.0901ZM97.6113 67.4002C97.702 69.3313 97.2472 72.2169 95.6586 74.54C94.1347 76.7685 91.4797 78.6204 86.7863 78.5058L86.713 81.5049C92.3953 81.6437 96.0219 79.3233 98.1349 76.2334C100.183 73.2381 100.721 69.6593 100.608 67.2596L97.6113 67.4002ZM86.7863 78.5058L21.9369 76.9216L21.8636 79.9207L86.713 81.5049L86.7863 78.5058ZM21.9369 76.9216C20.5064 76.8866 18.3159 76.3513 16.5406 74.8855C14.8316 73.4743 13.383 71.1027 13.481 67.092L10.4819 67.0187C10.3626 71.9015 12.175 75.1712 14.6305 77.1988C17.0198 79.1717 19.8973 79.8726 21.8636 79.9207L21.9369 76.9216ZM13.481 67.092L14.3862 30.036L11.3871 29.9627L10.4819 67.0187L13.481 67.092ZM101.064 34.5658C102.002 34.4527 103.69 34.4164 105.242 34.5874C106.017 34.6728 106.696 34.8036 107.204 34.9735C107.777 35.1653 107.862 35.3175 107.817 35.2484L110.329 33.6094C109.797 32.7927 108.878 32.3701 108.155 32.1284C107.367 31.8647 106.456 31.703 105.57 31.6054C103.8 31.4104 101.881 31.4455 100.705 31.5874L101.064 34.5658ZM107.817 35.2484C107.743 35.1354 107.766 35.1157 107.822 35.3527C107.868 35.5462 107.916 35.8225 107.963 36.1879C108.056 36.9157 108.13 37.8923 108.185 39.0549C108.293 41.3739 108.319 44.3317 108.286 47.3052C108.253 50.2761 108.16 53.2412 108.035 55.5698C107.972 56.7357 107.902 57.7296 107.828 58.4797C107.791 58.8557 107.754 59.1565 107.719 59.3803C107.679 59.6374 107.655 59.6985 107.67 59.658L110.483 60.7025C110.582 60.4341 110.642 60.1093 110.683 59.8421C110.73 59.5416 110.773 59.1797 110.813 58.7745C110.894 57.962 110.967 56.9188 111.031 55.7311C111.159 53.3525 111.252 50.3441 111.286 47.3388C111.319 44.3359 111.294 41.3145 111.182 38.9147C111.126 37.7179 111.047 36.6502 110.939 35.8067C110.885 35.3864 110.821 34.9954 110.741 34.6595C110.671 34.3671 110.556 33.9561 110.329 33.6094L107.817 35.2484ZM107.67 59.658C107.652 59.7079 107.566 59.8726 107.215 60.096C106.866 60.318 106.345 60.5383 105.64 60.7248C104.231 61.0975 102.324 61.2739 100.197 61.2219L100.124 64.221C102.421 64.2772 104.633 64.0944 106.407 63.6251C107.294 63.3906 108.13 63.0693 108.825 62.6271C109.518 62.1862 110.163 61.564 110.483 60.7025L107.67 59.658ZM12.1953 29.4241C11.0271 29.225 9.11229 29.0962 7.33489 29.2046C6.44548 29.2588 5.52768 29.3758 4.72741 29.6007C3.99361 29.8068 3.05545 30.184 2.48345 30.9738L4.91313 32.7335C4.86474 32.8003 4.95658 32.6525 5.53885 32.4889C6.05465 32.3439 6.73899 32.2465 7.51749 32.199C9.07589 32.104 10.7599 32.2227 11.6912 32.3815L12.1953 29.4241ZM2.48345 30.9738C2.24069 31.309 2.10485 31.7139 2.02122 32.0026C1.92513 32.3342 1.84173 32.7216 1.76743 33.1387C1.61835 33.9759 1.48768 35.0385 1.37333 36.2311C1.14404 38.6226 0.970933 41.6391 0.857902 44.6401C0.744776 47.6435 0.691033 50.6528 0.702749 53.0348C0.7086 54.2243 0.730818 55.2697 0.771272 56.0852C0.79145 56.4919 0.816828 56.8554 0.84891 57.1579C0.877435 57.4268 0.921109 57.7542 1.00754 58.0271L3.86751 57.1212C3.88054 57.1623 3.85962 57.1002 3.83217 56.8414C3.80828 56.6162 3.78631 56.3139 3.76759 55.9365C3.73024 55.1837 3.70846 54.1876 3.70271 53.02C3.69124 50.6881 3.74395 47.722 3.85578 44.753C3.9677 41.7814 4.13806 38.8284 4.35963 36.5175C4.47072 35.3589 4.59232 34.3871 4.72097 33.6647C4.78554 33.3021 4.84737 33.0284 4.9027 32.8374C4.97049 32.6035 4.99227 32.6243 4.91313 32.7335L2.48345 30.9738ZM1.00754 58.0271C1.28506 58.9032 1.8985 59.5561 2.56906 60.0303C3.24166 60.5059 4.06157 60.8677 4.93534 61.1452C6.68438 61.7005 8.88503 61.9911 11.1824 62.0473L11.2556 59.0481C9.12856 58.9962 7.23204 58.7268 5.84324 58.2859C5.14808 58.0651 4.6389 57.8197 4.30124 57.5809C3.96155 57.3406 3.88357 57.1719 3.8675 57.1212L1.00754 58.0271ZM80.0701 43.5562C80.0195 45.6266 78.3 47.2641 76.2296 47.2135L76.1563 50.2126C79.8831 50.3036 82.9781 47.3563 83.0692 43.6295L80.0701 43.5562ZM76.2296 47.2135C74.1591 47.1629 72.5217 45.4435 72.5723 43.373L69.5732 43.2998C69.4821 47.0266 72.4295 50.1216 76.1563 50.2126L76.2296 47.2135ZM72.5723 43.373C72.6229 41.3026 74.3423 39.6652 76.4128 39.7157L76.486 36.7166C72.7592 36.6256 69.6642 39.573 69.5732 43.2998L72.5723 43.373ZM76.4128 39.7157C78.4832 39.7663 80.1206 41.4858 80.0701 43.5562L83.0692 43.6295C83.1602 39.9027 80.2128 36.8077 76.486 36.7166L76.4128 39.7157ZM39.5701 42.0562C39.5195 44.1267 37.8 45.7641 35.7296 45.7135L35.6563 48.7126C39.3831 48.8036 42.4781 45.8563 42.5692 42.1295L39.5701 42.0562ZM35.7296 45.7135C33.6591 45.6629 32.0217 43.9435 32.0723 41.873L29.0732 41.7998C28.9821 45.5266 31.9295 48.6216 35.6563 48.7126L35.7296 45.7135ZM32.0723 41.873C32.1229 39.8026 33.8423 38.1652 35.9128 38.2157L35.986 35.2166C32.2592 35.1256 29.1642 38.073 29.0732 41.7998L32.0723 41.873ZM35.9128 38.2157C37.9832 38.2663 39.6206 39.9858 39.5701 42.0562L42.5692 42.1295C42.6602 38.4027 39.7128 35.3077 35.986 35.2166L35.9128 38.2157ZM43.6756 60.192C43.4607 61.6765 43.4609 61.6765 43.4611 61.6766C43.4612 61.6766 43.4615 61.6766 43.4616 61.6766C43.462 61.6767 43.4624 61.6768 43.4629 61.6768C43.4639 61.677 43.4651 61.6771 43.4665 61.6773C43.4693 61.6777 43.4731 61.6783 43.4777 61.6789C43.487 61.6802 43.4999 61.682 43.5165 61.6843C43.5497 61.6888 43.5975 61.6952 43.6601 61.7032C43.7854 61.7193 43.9703 61.7419 44.2164 61.7694C44.7087 61.8245 45.4463 61.8991 46.4441 61.9799C48.4396 62.1415 51.4759 62.3275 55.6713 62.43L55.7446 59.4309C51.6023 59.3297 48.6224 59.1465 46.6862 58.9897C45.7181 58.9113 45.0109 58.8396 44.5499 58.788C44.3194 58.7622 44.1504 58.7415 44.0411 58.7275C43.9865 58.7205 43.9467 58.7152 43.9217 58.7118C43.9092 58.7101 43.9003 58.7088 43.8951 58.7081C43.8925 58.7077 43.8908 58.7075 43.8901 58.7074C43.8897 58.7073 43.8895 58.7073 43.8896 58.7073C43.8896 58.7073 43.8897 58.7073 43.8898 58.7074C43.8899 58.7074 43.89 58.7074 43.8901 58.7074C43.8902 58.7074 43.8904 58.7074 43.6756 60.192ZM55.6713 62.43C59.8667 62.5325 62.9084 62.4949 64.9095 62.431C65.91 62.3991 66.6504 62.3605 67.1448 62.3295C67.392 62.3141 67.5777 62.3005 67.7037 62.2906C67.7666 62.2856 67.8147 62.2816 67.848 62.2787C67.8647 62.2772 67.8777 62.2761 67.887 62.2752C67.8917 62.2748 67.8955 62.2745 67.8983 62.2742C67.8997 62.2741 67.9009 62.2739 67.9019 62.2739C67.9024 62.2738 67.9028 62.2738 67.9032 62.2737C67.9034 62.2737 67.9036 62.2737 67.9037 62.2737C67.9039 62.2737 67.9041 62.2736 67.762 60.7804C67.6199 59.2871 67.6201 59.2871 67.6202 59.2871C67.6203 59.2871 67.6204 59.2871 67.6205 59.2871C67.6207 59.2871 67.6207 59.2871 67.6208 59.2871C67.6208 59.287 67.6207 59.2871 67.6203 59.2871C67.6195 59.2872 67.6178 59.2873 67.6152 59.2876C67.6099 59.288 67.601 59.2888 67.5885 59.2899C67.5633 59.2921 67.5233 59.2955 67.4684 59.2998C67.3586 59.3084 67.1888 59.3209 66.9573 59.3354C66.4943 59.3644 65.7845 59.4015 64.8137 59.4325C62.8721 59.4946 59.8868 59.532 55.7446 59.4309L55.6713 62.43ZM106.086 33.2028L106.607 11.8956L103.608 11.8223L103.087 33.1296L106.086 33.2028ZM9.74445 30.8503L10.265 9.54306L7.26586 9.4698L6.74534 30.777L9.74445 30.8503ZM105.59 8.15989C105.564 9.21984 105.325 10.1 105.028 10.6581C104.685 11.3048 104.514 11.1345 104.767 11.1407L104.694 14.1398C106.189 14.1763 107.168 13.0265 107.678 12.0649C108.236 11.0146 108.554 9.65775 108.589 8.23316L105.59 8.15989ZM104.767 11.1407C105.02 11.1469 104.841 11.3086 104.53 10.6459C104.261 10.074 104.065 9.18321 104.091 8.12326L101.092 8.05C101.057 9.47459 101.309 10.8454 101.815 11.9216C102.278 12.907 103.199 14.1033 104.694 14.1398L104.767 11.1407ZM104.091 8.12326C104.117 7.06331 104.356 6.18317 104.652 5.62508C104.996 4.97839 105.167 5.14865 104.914 5.14247L104.987 2.14337C103.492 2.10684 102.513 3.25669 102.003 4.21831C101.445 5.26852 101.126 6.62541 101.092 8.05L104.091 8.12326ZM104.914 5.14247C104.661 5.1363 104.84 4.97457 105.151 5.63726C105.42 6.20915 105.616 7.09995 105.59 8.15989L108.589 8.23316C108.624 6.80857 108.372 5.43773 107.866 4.36155C107.403 3.37615 106.482 2.17989 104.987 2.14337L104.914 5.14247ZM9.59017 6.65989C9.56427 7.71985 9.32464 8.59999 9.02834 9.15808C8.685 9.80477 8.51428 9.63451 8.76712 9.64068L8.69386 12.6398C10.189 12.6763 11.1675 11.5265 11.6781 10.5649C12.2356 9.51464 12.5545 8.15775 12.5893 6.73316L9.59017 6.65989ZM8.76712 9.64068C9.01997 9.64686 8.84114 9.80858 8.52979 9.1459C8.26109 8.57401 8.06472 7.68321 8.09061 6.62326L5.09151 6.55C5.05671 7.97459 5.30891 9.34542 5.81454 10.4216C6.27751 11.407 7.19874 12.6033 8.69386 12.6398L8.76712 9.64068ZM8.09061 6.62326C8.11651 5.56331 8.35614 4.68317 8.65244 4.12508C8.99578 3.47839 9.1665 3.64865 8.91366 3.64247L8.98692 0.643368C7.4918 0.606844 6.51326 1.75669 6.00273 2.71831C5.44515 3.76852 5.12631 5.12541 5.09151 6.55L8.09061 6.62326ZM8.91366 3.64247C8.66081 3.6363 8.83964 3.47457 9.15099 4.13726C9.41969 4.70915 9.61606 5.59995 9.59017 6.65989L12.5893 6.73316C12.6241 5.30857 12.3719 3.93773 11.8662 2.86155C11.4033 1.87615 10.482 0.679893 8.98692 0.643368L8.91366 3.64247Z" fill="black"/>
</svg>