<svg width="17" height="17" viewBox="0 0 17 17" fill="none" xmlns="http://www.w3.org/2000/svg">
<path opacity="0.2" d="M8.37891 16.1445C12.7972 16.1445 16.3789 12.5628 16.3789 8.14453C16.3789 3.72625 12.7972 0.144531 8.37891 0.144531C3.96063 0.144531 0.378906 3.72625 0.378906 8.14453C0.378906 12.5628 3.96063 16.1445 8.37891 16.1445Z" fill="#F3BA2F"/>
<path fill-rule="evenodd" clip-rule="evenodd" d="M6.70643 7.457L8.37975 5.78441L10.0537 7.45836L11.0268 6.48461L8.37975 3.83691L5.73265 6.48393L6.70643 7.457ZM4.07123 8.14475L5.04465 7.17136L6.01807 8.14475L5.04465 9.11814L4.07123 8.14475ZM8.37975 10.5055L6.70643 8.83222L5.73129 9.8046L5.73265 9.80596L8.37975 12.4523L11.0268 9.8046L11.0275 9.80392L10.0537 8.83154L8.37975 10.5055ZM10.7398 8.14499L11.7132 7.1716L12.6866 8.14499L11.7132 9.11838L10.7398 8.14499ZM8.37975 7.15623L9.36713 8.14427H9.36781L9.36713 8.14495L8.37975 9.13298L7.39236 8.14631L7.391 8.14427L7.39236 8.14291L7.5652 7.97007L7.64958 7.88637L8.37975 7.15623Z" fill="#F3BA2F"/>
</svg>
