<svg width="17" height="17" viewBox="0 0 17 17" fill="none" xmlns="http://www.w3.org/2000/svg">
<path d="M6.74588 15.9794C3.11285 15.2271 0.378906 12.0069 0.378906 8.14453C0.378906 3.72251 3.95689 0.144531 8.37891 0.144531C12.8009 0.144531 16.3789 3.72251 16.3789 8.14453C16.3789 10.3464 15.489 12.3464 14.0486 13.7867L14.0395 13.7959C12.9393 14.897 11.5435 15.6555 10.0211 15.9794C9.489 16.0895 8.93854 16.1445 8.37891 16.1445C7.81927 16.1445 7.27799 16.0895 6.74588 15.9794ZM13.9294 13.1812C15.1404 11.851 15.8743 10.0803 15.8743 8.14453C15.8743 4.00692 12.5165 0.649118 8.37891 0.649118C4.24129 0.649118 0.883493 4.00692 0.883493 8.14453C0.883493 10.0895 1.61744 11.8601 2.83762 13.1904C3.69083 10.8234 6.65414 10.1904 8.38808 10.1904C10.1129 10.1904 13.0853 10.8051 13.9294 13.1812ZM8.37891 2.11701C10.4431 2.11701 12.1312 3.78673 12.1312 5.8693C12.1312 7.93352 10.4615 9.6216 8.37891 9.6216C6.29634 9.6216 4.62661 7.95187 4.62661 5.8693C4.62661 3.80508 6.31469 2.11701 8.37891 2.11701Z" fill="#F9DEE0"/>
</svg>
