<svg width="13" height="14" viewBox="0 0 13 14" fill="none" xmlns="http://www.w3.org/2000/svg">
<path d="M12.8526 9.49653C12.7348 9.63334 12.5624 9.71246 12.3808 9.71246H8.96958L9.63224 12.7563C9.67197 12.9376 9.62649 13.1267 9.50875 13.2712C9.39159 13.416 9.21397 13.5 9.02714 13.5H6.96373C6.73631 13.5 6.52703 13.376 6.41937 13.1778L4.53127 9.71243H4.08882C4.00332 9.95035 3.77677 10.122 3.50762 10.122H0.618909C0.277214 10.122 0 9.84696 0 9.50794V1.11407C0 0.775046 0.277214 0.5 0.618909 0.5H3.50762C3.77677 0.5 4.00333 0.671658 4.08882 0.909574H11.143C11.4464 0.909574 11.7055 1.12778 11.7538 1.42539L12.992 9.00035C13.021 9.17715 12.9704 9.35879 12.8526 9.49647L12.8526 9.49653ZM1.23848 8.89331H2.88907V1.72781H1.23848V8.89331ZM10.616 2.13742H4.1269V8.48408H4.90068C5.12809 8.48408 5.33738 8.60803 5.44503 8.80625L7.33314 12.2716H8.26006L7.59739 9.22784C7.55766 9.04647 7.60314 8.8574 7.72088 8.71287C7.83804 8.56807 8.01566 8.4841 8.20248 8.4841H11.6534L10.616 2.13742Z" fill="white"/>
</svg>
