<svg width="18" height="16" viewBox="0 0 18 16" fill="none" xmlns="http://www.w3.org/2000/svg">
<path d="M16.9086 1.20058L17.4753 1.16318C17.4679 1.05194 17.4279 0.945334 17.3603 0.856718C17.2926 0.768103 17.2003 0.701413 17.0949 0.664998C16.9896 0.628583 16.8758 0.624061 16.7679 0.651999C16.6599 0.679936 16.5626 0.739092 16.4882 0.822059L16.9086 1.20058ZM16.3442 4.55402C16.3442 4.40374 16.2845 4.25961 16.1783 4.15334C16.072 4.04707 15.9279 3.98737 15.7776 3.98737C15.6273 3.98737 15.4832 4.04707 15.3769 4.15334C15.2706 4.25961 15.2109 4.40374 15.2109 4.55402H16.3442ZM1.06735 13.6669V13.1002C0.945673 13.1001 0.827184 13.1391 0.729407 13.2115C0.63163 13.2839 0.559757 13.3859 0.524422 13.5023C0.489087 13.6188 0.492165 13.7435 0.533203 13.858C0.57424 13.9726 0.651056 14.0708 0.752287 14.1384L1.06735 13.6669ZM2.19838 1.20058L2.7299 1.00225C2.69127 0.898792 2.62326 0.808872 2.53421 0.743548C2.44517 0.678225 2.33897 0.640345 2.22869 0.634566C2.1184 0.628787 2.00883 0.65536 1.91345 0.711019C1.81806 0.766678 1.74102 0.848997 1.69179 0.947855L2.19838 1.20058ZM6.72479 11.4003L7.12597 11.8003C7.19404 11.7321 7.24356 11.6475 7.26984 11.5548C7.29613 11.462 7.29831 11.3641 7.27618 11.2703C7.25406 11.1764 7.20835 11.0898 7.1434 11.0185C7.07844 10.9473 6.99638 10.8938 6.90498 10.8631L6.72479 11.4003ZM14.9118 2.30328L14.4924 2.68407L14.6964 2.9096L14.9968 2.86427L14.9118 2.30328ZM16.3442 1.23798C16.402 2.11969 16.3476 2.65461 16.2049 3.05806C16.0666 3.44905 15.8241 3.77091 15.3855 4.19136L16.1697 5.00961C16.6661 4.53362 17.0492 4.0667 17.2736 3.43659C17.4923 2.8178 17.5376 2.10156 17.4753 1.16318L16.3442 1.23798ZM16.3442 5.37906V4.55402H15.2109V5.3802H16.3442V5.37906ZM8.42247 4.64695V5.73379H9.55577V4.64695H8.42247ZM8.42247 5.73379V6.30044H9.55577V5.73379H8.42247ZM12.4287 0.633931C11.902 0.634228 11.3805 0.738264 10.894 0.940098C10.4075 1.14193 9.96555 1.43761 9.59332 1.81026C9.2211 2.1829 8.92592 2.62521 8.72464 3.11193C8.52335 3.59865 8.41991 4.12025 8.4202 4.64695H9.5535C9.55321 4.26898 9.62738 3.89466 9.77178 3.54536C9.91618 3.19607 10.128 2.87864 10.3951 2.61122C10.6622 2.3438 10.9794 2.13162 11.3285 1.98681C11.6776 1.84199 12.0519 1.76738 12.4298 1.76723V0.633931H12.4287ZM15.2098 5.37906C15.2109 10.2704 11.2523 14.2335 6.37119 14.2335V15.3668C11.879 15.3668 16.3442 10.8948 16.3442 5.37906H15.2098ZM1.66799 1.39891C2.28451 3.04446 4.59644 6.30044 8.98912 6.30044V5.16714C5.23109 5.16714 3.24442 2.37921 2.72876 1.00225L1.66799 1.39891ZM1.69179 0.947855C0.505228 3.32325 0.322766 5.62839 1.18521 7.59127C2.04538 9.54848 3.89607 11.0535 6.54572 11.9375L6.90498 10.8631C4.46272 10.0471 2.91803 8.7189 2.22218 7.13455C1.5286 5.55586 1.62946 3.60998 2.7061 1.45331L1.69179 0.947855ZM6.3236 11.0002C5.64135 11.6836 3.59007 13.1002 1.06735 13.1002V14.2335C3.9754 14.2335 6.2998 12.6288 7.12597 11.8003L6.3236 11.0002ZM15.3322 1.92363C14.9658 1.51729 14.5181 1.19249 14.0181 0.970314C13.5181 0.748134 12.977 0.633529 12.4298 0.633931V1.76723C13.2469 1.76723 13.9824 2.11969 14.4924 2.68407L15.3322 1.92363ZM14.9968 2.86427C15.8995 2.71678 16.7239 2.26296 17.3314 1.5791L16.4882 0.822059C16.0561 1.31022 15.4697 1.63543 14.8268 1.74343L14.9968 2.86427ZM0.752287 14.1384C2.61203 15.3782 4.56131 15.3668 6.37119 15.3668V14.2335C4.52391 14.2335 2.91689 14.2211 1.3824 13.1954L0.752287 14.1384Z" fill="#E1F25C"/>
</svg>
