<svg width="18" height="18" viewBox="0 0 18 18" fill="none" xmlns="http://www.w3.org/2000/svg">
<path d="M13 4.42857H14.1429M5.57143 1H12.4286C13.641 1 14.8038 1.48163 15.6611 2.33894C16.5184 3.19625 17 4.35901 17 5.57143V12.4286C17 13.641 16.5184 14.8038 15.6611 15.6611C14.8038 16.5184 13.641 17 12.4286 17H5.57143C4.35901 17 3.19625 16.5184 2.33894 15.6611C1.48163 14.8038 1 13.641 1 12.4286V5.57143C1 4.35901 1.48163 3.19625 2.33894 2.33894C3.19625 1.48163 4.35901 1 5.57143 1ZM9 12.4286C8.09069 12.4286 7.21862 12.0673 6.57563 11.4244C5.93265 10.7814 5.57143 9.90931 5.57143 9C5.57143 8.09069 5.93265 7.21862 6.57563 6.57563C7.21862 5.93265 8.09069 5.57143 9 5.57143C9.90931 5.57143 10.7814 5.93265 11.4244 6.57563C12.0673 7.21862 12.4286 8.09069 12.4286 9C12.4286 9.90931 12.0673 10.7814 11.4244 11.4244C10.7814 12.0673 9.90931 12.4286 9 12.4286Z" stroke="#E1F25C"/>
</svg>
