<svg width="16" height="16" viewBox="0 0 16 16" fill="none" xmlns="http://www.w3.org/2000/svg">
<path d="M4.06963 14.4406V5.23598H0.982733V14.4406H4.06963ZM2.52683 3.97946C3.60307 3.97946 4.2731 3.27265 4.2731 2.38934C4.25295 1.48591 3.60307 0.798828 2.5473 0.798828C1.4908 0.798828 0.800781 1.48591 0.800781 2.38926C0.800781 3.27257 1.47057 3.97938 2.5066 3.97938L2.52683 3.97946ZM5.77827 14.4406H8.86493V9.30088C8.86493 9.02614 8.88508 8.75069 8.96663 8.55446C9.18967 8.00459 9.69758 7.43539 10.5505 7.43539C11.6672 7.43539 12.1142 8.27941 12.1142 9.51692V14.4406H15.2008V9.16295C15.2008 6.3358 13.6781 5.02018 11.6472 5.02018C9.98219 5.02018 9.25092 5.94255 8.84463 6.57077H8.86517V5.2363H5.77844C5.81873 6.0998 5.77827 14.4406 5.77827 14.4406Z" fill="#E1F25C"/>
</svg>
