<svg width="16" height="16" viewBox="0 0 16 16" fill="none" xmlns="http://www.w3.org/2000/svg">
<circle cx="8" cy="8" r="7.5" stroke="#E1F25C"/>
<circle cx="8" cy="8" r="7.5" stroke="#E1F25C"/>
<path d="M0.800781 7.99961H8.00078H15.2008M1.60078 3.59961C1.60078 3.59961 4.80078 4.79961 8.00078 4.79961C11.2008 4.79961 14.4008 3.59961 14.4008 3.59961M14.0008 12.7996C14.0008 12.7996 11.2008 11.1996 8.00078 11.1996C4.80078 11.1996 2.00078 12.7996 2.00078 12.7996" stroke="#E1F25C"/>
<path d="M8.00156 15.1905C8.53628 15.1905 8.97883 14.887 9.31708 14.4882C9.65714 14.0872 9.94083 13.5365 10.1693 12.8998C10.6276 11.6219 10.9016 9.88957 10.9016 8.00005C10.9016 6.11053 10.6276 4.37817 10.1693 3.10034C9.94083 2.46357 9.65714 1.91291 9.31708 1.51194C8.97883 1.11311 8.53628 0.80957 8.00156 0.80957C7.46685 0.80957 7.0243 1.11311 6.68605 1.51194C6.34598 1.91291 6.06229 2.46357 5.83387 3.10034C5.37549 4.37817 5.10156 6.11053 5.10156 8.00005C5.10156 9.88957 5.37549 11.6219 5.83387 12.8998C6.06229 13.5365 6.34598 14.0872 6.68605 14.4882C7.0243 14.887 7.46685 15.1905 8.00156 15.1905Z" stroke="#E1F25C"/>
</svg>
