<svg width="16" height="16" viewBox="0 0 16 16" fill="none" xmlns="http://www.w3.org/2000/svg">
<path d="M11.5438 4H8.8625C8.6175 4 8.4175 4.19625 8.4125 4.44125C8.4075 4.695 8.6175 4.9 8.87125 4.9H10.4762L8.8625 6.51375C8.6875 6.68875 8.6875 6.975 8.8625 7.15C9.0375 7.325 9.32375 7.325 9.49875 7.15L11.1 5.54875V7.16125C11.1 7.40625 11.2975 7.60625 11.5412 7.61125C11.7937 7.61625 12 7.40625 12 7.1525V4.45625C12 4.205 11.7963 4 11.5438 4ZM7.1275 11.1H5.5225L7.1375 9.48625C7.3125 9.31125 7.3125 9.025 7.1375 8.85C6.9625 8.675 6.67625 8.675 6.50125 8.85L4.9 10.4512V8.8375C4.9 8.5925 4.7025 8.3925 4.45875 8.3875C4.20625 8.3825 4 8.5925 4 8.84625V11.5412C4 11.795 4.205 12 4.45875 12H7.1375C7.3825 12 7.5825 11.8038 7.5875 11.5588C7.59125 11.305 7.38125 11.1 7.1275 11.1Z" fill="white"/>
<path d="M13.0938 2.125C13.525 2.125 13.875 2.475 13.875 2.90625V13.0938C13.875 13.525 13.525 13.875 13.0938 13.875H2.90625C2.475 13.875 2.125 13.525 2.125 13.0938V2.90625C2.125 2.475 2.475 2.125 2.90625 2.125H13.0938ZM13.0938 1H2.90625C2.65 1 2.4 1.05 2.16406 1.15C1.9375 1.24531 1.73281 1.38281 1.55781 1.55781C1.38281 1.73281 1.24531 1.93594 1.15 2.16406C1.05 2.4 1 2.65 1 2.90625V13.0938C1 13.35 1.05 13.6 1.15 13.8359C1.24531 14.0625 1.38281 14.2672 1.55781 14.4422C1.73281 14.6172 1.93594 14.7547 2.16406 14.85C2.4 14.95 2.65 15 2.90625 15H13.0938C13.35 15 13.6 14.95 13.8359 14.85C14.0625 14.7547 14.2672 14.6172 14.4422 14.4422C14.6172 14.2672 14.7547 14.0641 14.85 13.8359C14.95 13.6 15 13.35 15 13.0938V2.90625C15 2.65 14.95 2.4 14.85 2.16406C14.7547 1.9375 14.6172 1.73281 14.4422 1.55781C14.2672 1.38281 14.0641 1.24531 13.8359 1.15C13.6 1.05 13.35 1 13.0938 1Z" fill="white"/>
</svg>
