<svg width="13" height="14" viewBox="0 0 13 14" fill="none" xmlns="http://www.w3.org/2000/svg">
<path d="M12.8526 4.50347C12.7348 4.36666 12.5624 4.28754 12.3808 4.28754H8.96958L9.63224 1.24374C9.67197 1.06238 9.62649 0.873301 9.50875 0.728777C9.39159 0.583968 9.21397 0.5 9.02714 0.5H6.96373C6.73631 0.5 6.52703 0.623956 6.41937 0.82217L4.53127 4.28757H4.08882C4.00332 4.04965 3.77677 3.87799 3.50762 3.87799H0.618909C0.277214 3.87799 0 4.15304 0 4.49206V12.8859C0 13.225 0.277214 13.5 0.618909 13.5H3.50762C3.77677 13.5 4.00333 13.3283 4.08882 13.0904H11.143C11.4464 13.0904 11.7055 12.8722 11.7538 12.5746L12.992 4.99965C13.021 4.82285 12.9704 4.64121 12.8526 4.50353L12.8526 4.50347ZM1.23848 5.10669H2.88907V12.2722H1.23848V5.10669ZM10.616 11.8626H4.1269V5.51592H4.90068C5.12809 5.51592 5.33738 5.39197 5.44503 5.19375L7.33314 1.72836H8.26006L7.59739 4.77216C7.55766 4.95353 7.60314 5.1426 7.72088 5.28713C7.83804 5.43193 8.01566 5.5159 8.20248 5.5159H11.6534L10.616 11.8626Z" fill="white"/>
</svg>
