<svg xmlns="http://www.w3.org/2000/svg" width="102" height="171" viewBox="0 0 102 171" fill="none">
  <path d="M3.11077 15.7468C3.09672 15.6991 3.25483 15.6266 3.58509 15.5293C3.91535 15.4319 4.08751 15.407 4.10156 15.4547C4.34042 16.2648 5.45354 16.8948 7.44091 17.3448C9.36621 17.7871 11.8138 17.9719 14.7838 17.8991L32.1909 17.5837L50.8507 12.0819C52.5571 11.5788 53.778 11.1541 54.5135 10.8077C55.2419 10.4375 55.6876 10.0213 55.8504 9.55889C56.0062 9.07269 55.9576 8.40069 55.7047 7.54292C55.6836 7.47144 55.8382 7.38701 56.1685 7.28964C56.4987 7.19226 56.6744 7.17931 56.6955 7.25079C56.9133 7.98942 57.0579 8.58131 57.1293 9.02642L57.8055 11.6241L58.6257 14.1016C58.8072 14.5142 59.0139 15.1137 59.2457 15.9C59.2668 15.9715 59.1122 16.0559 58.7819 16.1533C58.4516 16.2506 58.276 16.2636 58.2549 16.1921C58.002 15.3343 57.6782 14.7435 57.2836 14.4196C56.8889 14.0957 56.2852 13.9758 55.4724 14.0601C54.6046 14.1606 53.3451 14.4543 51.6938 14.9412L34.4375 20.0291L16.545 31.4815C14.1277 33.0229 12.4839 34.2457 11.6137 35.1497C10.7365 36.0299 10.3963 36.8036 10.593 37.4708C10.614 37.5423 10.4594 37.6267 10.1292 37.7241C9.79892 37.8214 9.62325 37.8344 9.60218 37.7629C9.5249 37.5008 9.457 37.0676 9.39847 36.4633L9.13329 35.2595C8.90145 34.4732 8.52676 33.4053 8.0092 32.0558L7.31543 30.0072C7.30138 29.9596 7.45949 29.8871 7.78975 29.7897C8.12001 29.6923 8.29217 29.6674 8.30622 29.7151C8.63641 30.835 9.46203 31.2001 10.7831 30.8106C11.3886 30.6321 12.1205 30.2738 12.979 29.7358L30.3463 18.6326L14.5519 18.9386C12.2366 18.9998 10.3909 19.2332 9.01476 19.6389C7.91389 19.9635 7.13741 20.3737 6.68532 20.8696C6.17819 21.3817 6.01947 21.9594 6.20916 22.6027C6.23023 22.6742 6.07564 22.7587 5.74538 22.856C5.41512 22.9534 5.23945 22.9664 5.21837 22.8949L4.78458 21.1193C4.61365 20.1337 4.41227 19.2478 4.18043 18.4615C4.061 18.0565 3.86194 17.5842 3.58324 17.0449L3.11077 15.7468Z" fill="white"/>
  <path d="M59.5081 20.4473C59.494 20.3997 59.6521 20.3272 59.9824 20.2298C60.3127 20.1324 60.4848 20.1075 60.4989 20.1552L62.0269 25.3376C62.1955 25.9094 60.1758 27.6833 55.9677 30.6592C51.6976 33.6275 45.785 37.4168 38.2298 42.0271C38.6666 42.494 38.9588 42.9776 39.1063 43.478C39.2398 43.9307 39.3569 44.5307 39.4575 45.2779L58.943 39.5327C60.5944 39.0458 61.8118 38.6091 62.5953 38.2227C63.3237 37.8526 63.7694 37.4363 63.9322 36.9739C64.088 36.4877 64.0394 35.8157 63.7865 34.9579C63.7654 34.8865 63.92 34.802 64.2503 34.7046C64.5805 34.6073 64.7562 34.5943 64.7773 34.6658C64.9951 35.4044 65.1397 35.9963 65.2111 36.4414L65.8873 39.0391L66.7075 41.5166C66.896 41.9531 67.1027 42.5525 67.3275 43.315C67.3486 43.3865 67.194 43.4709 66.8637 43.5683C66.5334 43.6657 66.3578 43.6786 66.3367 43.6071C66.0838 42.7493 65.76 42.1585 65.3654 41.8346C64.9707 41.5107 64.367 41.3909 63.5542 41.4751C62.6864 41.5756 61.4269 41.8693 59.7755 42.3562L21.5476 53.6276C19.8963 54.1145 18.7064 54.543 17.9779 54.9132C17.2495 55.2834 16.8074 55.7116 16.6516 56.1978C16.4337 56.6764 16.4512 57.3445 16.7041 58.2023C16.7182 58.25 16.5601 58.3225 16.2298 58.4199C15.8996 58.5172 15.7274 58.5421 15.7134 58.4945L15.269 56.6831C15.07 55.6022 14.8792 54.7521 14.6965 54.1326C14.57 53.7037 14.4231 53.3067 14.2556 52.9417C14.0882 52.5767 13.9348 52.2594 13.7954 51.9897C13.3985 51.2521 13.0981 50.5378 12.8944 49.8468C12.2972 47.8215 12.7728 45.985 14.3211 44.3371C15.8144 42.7055 18.1849 41.4109 21.4324 40.4534C24.0195 39.6906 26.5673 39.302 29.0759 39.2875C31.5844 39.273 33.7123 39.5909 35.4596 40.2411C41.86 36.1785 46.8451 32.8958 50.4149 30.3929C53.9225 27.8825 56.4025 25.8434 57.8548 24.2757C59.2521 22.7242 59.8031 21.4481 59.5081 20.4473ZM37.3108 45.9109C37.264 44.9405 37.1669 44.2052 37.0193 43.7048C36.5697 42.1799 35.4795 41.323 33.7485 41.1341C31.9556 40.9376 29.1325 41.4074 25.2795 42.5434C20.931 43.8256 17.9539 45.0918 16.3482 46.3422C14.7426 47.5926 14.1259 48.8492 14.4982 50.112C14.6809 50.7315 14.959 51.1675 15.3326 51.4199C15.6991 51.6485 16.3163 51.7126 17.1841 51.6121C17.9969 51.5279 19.2289 51.2423 20.8802 50.7554L37.3108 45.9109Z" fill="white"/>
  <path d="M55.8636 50.6962C55.7535 50.7286 55.6844 50.6972 55.6563 50.6019C55.6352 50.5304 55.6727 50.4546 55.7687 50.3745C55.8027 50.2868 55.8472 50.2348 55.9022 50.2186C59.9357 49.2883 63.6862 48.312 67.154 47.2895C67.5943 47.1597 67.9351 47.098 68.1764 47.1046C68.3626 47.1274 68.4873 47.246 68.5506 47.4605L73.0397 62.6859C73.0608 62.7574 72.9062 62.8418 72.576 62.9392C72.2457 63.0365 72.07 63.0495 72.0489 62.978C71.796 62.1202 71.4758 61.5413 71.0881 61.2412C70.7005 60.9411 70.1003 60.8332 69.2876 60.9175C68.4197 61.018 67.1602 61.3116 65.5089 61.7985L27.2809 73.07C25.6296 73.5568 24.4397 73.9854 23.7113 74.3555C22.9828 74.7257 22.5407 75.1539 22.3849 75.6401C22.167 76.1187 22.1811 76.775 22.4269 77.6089C22.448 77.6804 22.2934 77.7649 21.9632 77.8622C21.6329 77.9596 21.4572 77.9726 21.4362 77.9011L17.1367 63.319C17.0664 63.0807 17.279 62.8886 17.7744 62.7425L28.1566 59.6036C28.3217 59.5549 28.4529 59.594 28.5501 59.7207C28.5852 59.8398 28.5237 59.9356 28.3656 60.0082C25.3874 61.0676 23.24 62.2057 21.9236 63.4226C20.5522 64.6557 20.0491 65.8918 20.4144 67.1308L20.9518 68.9536C21.261 70.0019 21.826 70.5993 22.6469 70.7458C23.4128 70.9084 24.7866 70.6976 26.7682 70.1133L43.529 65.1714L42.3698 61.24C42.0115 60.0248 41.2802 59.2693 40.1759 58.9733C39.0165 58.6936 37.4185 58.854 35.3818 59.4545C35.2717 59.4869 35.1991 59.4436 35.164 59.3245C35.1219 59.1815 35.1558 59.0938 35.2659 59.0613L42.212 57.0522L45.9169 55.9209C47.6642 55.3539 49.0333 54.9244 50.0241 54.6322C50.1342 54.5998 50.2103 54.655 50.2525 54.798C50.2946 54.9409 50.2606 55.0287 50.1506 55.0611C47.7837 55.759 46.1376 56.5681 45.2124 57.4883C44.2251 58.401 43.9211 59.5006 44.3005 60.7873L45.428 64.6115L64.3356 59.0367C66.3171 58.4524 67.6201 57.8999 68.2443 57.3792C68.8615 56.8346 69.0261 56.0739 68.7381 55.097L68.0531 52.7738C67.6526 51.4157 66.4142 50.5636 64.3379 50.2176C62.1994 49.864 59.3746 50.0235 55.8636 50.6962Z" fill="white"/>
  <path d="M28.1528 94.5954C28.5884 96.0727 29.8924 96.9443 32.0648 97.2102C34.1822 97.4923 37.3922 97.2192 41.695 96.3908C41.8121 96.3822 41.8917 96.4493 41.9339 96.5923C41.969 96.7114 41.9315 96.7872 41.8215 96.8197C40.1971 97.195 37.6335 97.8344 34.1306 98.7377C30.6277 99.641 27.9955 100.352 26.2341 100.872C25.9589 100.953 25.8002 100.922 25.7581 100.779C25.7159 100.636 25.8325 100.524 26.1077 100.443C27.3186 100.086 27.7309 99.252 27.3445 97.9415C26.9125 95.8675 26.289 93.4486 25.4741 90.6847C25.0596 89.2789 24.5655 87.8059 23.9917 86.2658L23.1926 83.8598C22.9326 82.9782 22.6053 82.3754 22.2107 82.0515C21.816 81.7276 21.1883 81.6278 20.3275 81.7521C20.1003 81.7932 19.9692 81.7542 19.9341 81.6351C19.8919 81.4921 19.9809 81.3882 20.2011 81.3232C21.7634 80.9403 24.265 80.2934 27.7058 79.3824C31.1396 78.4477 33.9023 77.672 35.994 77.0552C36.104 77.0228 36.1802 77.078 36.2223 77.221C36.2574 77.3401 36.22 77.4159 36.1099 77.4484C31.9207 78.8648 29.0063 80.2421 27.3666 81.5802C25.7269 82.9183 25.1354 84.3617 25.5921 85.9105C25.852 86.7921 26.1758 87.3829 26.5634 87.683C26.896 87.9993 27.4412 88.1235 28.1989 88.0554C28.9016 88.0036 30.051 87.7424 31.6473 87.2718L69.7101 76.049C71.4165 75.5459 72.6339 75.1093 73.3623 74.7391C74.0838 74.3451 74.5153 73.8812 74.6571 73.3473C74.7988 72.8134 74.7222 72.0461 74.4271 71.0454C74.413 70.9978 74.5712 70.9252 74.9014 70.8279C75.2317 70.7305 75.4038 70.7056 75.4179 70.7533C75.6638 71.5872 75.8294 72.2506 75.9149 72.7433L76.6648 75.5912L77.5588 78.3188C77.7544 78.7792 77.9786 79.4382 78.2315 80.296C78.2526 80.3674 78.098 80.4519 77.7677 80.5493C77.4375 80.6466 77.2618 80.6596 77.2407 80.5881C76.9527 79.6112 76.6043 78.937 76.1956 78.5654C75.7869 78.1938 75.1727 78.0383 74.3529 78.0987C73.4781 78.1753 72.215 78.4571 70.5637 78.944L32.3357 90.2154C30.7945 90.6699 29.7147 91.0659 29.0963 91.4036C28.4229 91.7576 28.0323 92.1576 27.9246 92.6038C27.8168 93.0499 27.8929 93.7138 28.1528 94.5954Z" fill="white"/>
  <path d="M34.8628 117.352C35.2983 118.83 36.6023 119.701 38.7748 119.967C40.8921 120.249 44.1022 119.976 48.405 119.148C48.5221 119.139 48.6017 119.206 48.6439 119.349C48.679 119.468 48.6415 119.544 48.5314 119.577C46.907 119.952 44.3434 120.591 40.8405 121.495C37.3376 122.398 34.7055 123.109 32.9441 123.629C32.6689 123.71 32.5102 123.679 32.468 123.536C32.4259 123.393 32.5424 123.281 32.8176 123.2C34.0286 122.843 34.4409 122.009 34.0545 120.698C33.6225 118.624 32.999 116.205 32.1841 113.441C31.7696 112.036 31.2754 110.563 30.7017 109.023L29.9025 106.617C29.6426 105.735 29.3153 105.132 28.9207 104.808C28.526 104.484 27.8983 104.385 27.0375 104.509C26.8103 104.55 26.6791 104.511 26.644 104.392C26.6019 104.249 26.6909 104.145 26.911 104.08C28.4734 103.697 30.9749 103.05 34.4157 102.139C37.8495 101.205 40.6122 100.429 42.7039 99.8121C42.814 99.7796 42.8901 99.8349 42.9323 99.9778C42.9674 100.097 42.9299 100.173 42.8198 100.205C38.6306 101.622 35.7162 102.999 34.0766 104.337C32.4369 105.675 31.8454 107.119 32.302 108.667C32.562 109.549 32.8858 110.14 33.2734 110.44C33.606 110.756 34.1511 110.88 34.9088 110.812C35.6115 110.76 36.761 110.499 38.3573 110.029L76.4201 98.8059C78.1264 98.3027 79.3438 97.8661 80.0723 97.4959C80.7937 97.1019 81.2253 96.638 81.367 96.1041C81.5088 95.5703 81.4321 94.803 81.1371 93.8022C81.123 93.7546 81.2811 93.6821 81.6114 93.5847C81.9416 93.4873 82.1138 93.4625 82.1278 93.5101C82.3737 94.3441 82.5394 95.0074 82.6249 95.5002L83.3748 98.348L84.2688 101.076C84.4643 101.536 84.6886 102.195 84.9415 103.053C84.9626 103.124 84.808 103.209 84.4777 103.306C84.1474 103.403 83.9718 103.416 83.9507 103.345C83.6627 102.368 83.3143 101.694 82.9056 101.322C82.4969 100.951 81.8826 100.795 81.0629 100.856C80.188 100.932 78.9249 101.214 77.2736 101.701L39.0457 112.972C37.5045 113.427 36.4247 113.823 35.8063 114.16C35.1329 114.514 34.7423 114.914 34.6345 115.361C34.5268 115.807 34.6028 116.471 34.8628 117.352Z" fill="white"/>
  <path d="M91.8681 122.889C92.5215 125.105 91.9211 127.431 90.0671 129.869C88.151 132.298 85.2968 134.59 81.5046 136.744C77.6503 138.891 73.3012 140.678 68.4574 142.106C62.7878 143.778 57.7613 144.586 53.3778 144.532C48.9392 144.494 45.4171 143.81 42.8115 142.481C40.1988 141.128 38.5938 139.438 37.9967 137.413C37.3293 135.149 37.9811 132.795 39.9523 130.349C41.8684 127.919 44.7021 125.659 48.4533 123.569C52.1975 121.455 56.3264 119.733 60.84 118.402C65.849 116.925 70.6138 116.142 75.1343 116.052C79.6549 115.962 83.4106 116.525 86.4016 117.741C89.3856 118.933 91.2077 120.649 91.8681 122.889ZM89.6828 122.173C89.2332 120.649 87.921 119.546 85.7463 118.867C83.5716 118.187 80.6484 118.013 76.9769 118.345C73.2434 118.668 68.9547 119.544 64.1108 120.973C58.9917 122.482 54.539 124.222 50.7527 126.193C46.9593 128.14 44.1484 130.173 42.3202 132.292C40.4849 134.387 39.8483 136.388 40.4103 138.294C41.141 140.772 43.6641 142.126 47.9796 142.356C52.2402 142.602 57.7832 141.718 64.6086 139.706C69.8378 138.164 74.4556 136.375 78.4622 134.339C82.4687 132.303 85.4757 130.225 87.4831 128.105C89.4835 125.962 90.2168 123.984 89.6828 122.173Z" fill="white"/>
  <path d="M91.3307 150.594C92.8719 150.14 93.9828 149.748 94.6632 149.417C95.2816 149.08 95.6757 148.692 95.8455 148.253C95.9603 147.831 95.9053 147.238 95.6805 146.476L94.7848 143.438C94.3422 141.937 92.9585 140.998 90.6339 140.622C88.2472 140.238 85.2432 140.398 81.6221 141.103C81.4569 141.152 81.3843 141.109 81.4042 140.973C81.3621 140.83 81.4236 140.735 81.5887 140.686C86.4958 139.472 90.5456 138.395 93.7381 137.453C94.1785 137.323 94.5228 137.274 94.7711 137.304C94.9573 137.327 95.0785 137.434 95.1347 137.624L100.045 154.279C100.059 154.327 99.9013 154.399 99.5711 154.497C99.2408 154.594 99.0687 154.619 99.0546 154.571C98.8017 153.714 98.4814 153.135 98.0938 152.835C97.6991 152.511 97.0954 152.391 96.2827 152.475C95.4149 152.576 94.1553 152.869 92.504 153.356L54.2761 164.628C52.6247 165.114 51.4349 165.543 50.7064 165.913C49.9779 166.283 49.5358 166.712 49.38 167.198C49.1622 167.676 49.1797 168.345 49.4326 169.202C49.4467 169.25 49.2885 169.322 48.9583 169.42C48.628 169.517 48.4559 169.542 48.4418 169.494L47.9975 167.683C47.7985 166.602 47.6041 165.74 47.4144 165.097C47.2247 164.453 46.9203 163.624 46.5011 162.608L45.8916 160.845C45.8776 160.798 46.0357 160.725 46.3659 160.628C46.6962 160.53 46.8684 160.505 46.8824 160.553C47.1283 161.387 47.4761 161.958 47.9258 162.266C48.3204 162.589 48.9517 162.701 49.8195 162.601C50.6322 162.516 51.8643 162.231 53.5156 161.744L91.3307 150.594Z" fill="white"/>
</svg>