<svg width="226" height="41" viewBox="0 0 226 41" fill="none" xmlns="http://www.w3.org/2000/svg">
<path d="M131.104 0.646438C130.908 0.451175 130.592 0.451175 130.396 0.646438L127.214 3.82842C127.019 4.02368 127.019 4.34026 127.214 4.53553C127.41 4.73079 127.726 4.73079 127.922 4.53553L130.75 1.7071L133.578 4.53553C133.774 4.73079 134.09 4.73079 134.286 4.53553C134.481 4.34026 134.481 4.02368 134.286 3.82842L131.104 0.646438ZM225.75 41L225.75 28.759L224.75 28.759L224.75 41L225.75 41ZM217.25 20.259L138.75 20.259L138.75 21.259L217.25 21.259L217.25 20.259ZM131.25 12.759L131.25 0.999992L130.25 0.999992L130.25 12.759L131.25 12.759ZM138.75 20.259C134.608 20.259 131.25 16.9012 131.25 12.759L130.25 12.759C130.25 17.4534 134.056 21.259 138.75 21.259L138.75 20.259ZM225.75 28.759C225.75 24.0646 221.944 20.259 217.25 20.259L217.25 21.259C221.392 21.259 224.75 24.6169 224.75 28.759L225.75 28.759Z" fill="#E1F25C" fill-opacity="0.6"/>
<path d="M94.8964 0.646454C95.0917 0.451192 95.4083 0.451192 95.6036 0.646455L98.7855 3.82843C98.9808 4.0237 98.9808 4.34028 98.7855 4.53554C98.5903 4.73081 98.2737 4.73081 98.0784 4.53554L95.25 1.70712L92.4216 4.53554C92.2263 4.7308 91.9097 4.7308 91.7145 4.53554C91.5192 4.34028 91.5192 4.0237 91.7145 3.82843L94.8964 0.646454ZM0.25 41L0.250001 28.759L1.25 28.759L1.25 41L0.25 41ZM8.75 20.259L87.25 20.259L87.25 21.259L8.75 21.259L8.75 20.259ZM94.75 12.759L94.75 1.00001L95.75 1.00001L95.75 12.759L94.75 12.759ZM87.25 20.259C91.3921 20.259 94.75 16.9012 94.75 12.759L95.75 12.759C95.75 17.4535 91.9444 21.259 87.25 21.259L87.25 20.259ZM0.250001 28.759C0.250001 24.0646 4.05558 20.259 8.75 20.259L8.75 21.259C4.60787 21.259 1.25 24.6169 1.25 28.759L0.250001 28.759Z" fill="#E1F25C" fill-opacity="0.6"/>
</svg>
