<svg width="226" height="41" viewBox="0 0 226 41" fill="none" xmlns="http://www.w3.org/2000/svg">
<path d="M94.8964 40.3536C95.0917 40.5488 95.4083 40.5488 95.6036 40.3536L98.7855 37.1716C98.9808 36.9763 98.9808 36.6597 98.7855 36.4645C98.5903 36.2692 98.2737 36.2692 98.0784 36.4645L95.25 39.2929L92.4216 36.4645C92.2263 36.2692 91.9097 36.2692 91.7145 36.4645C91.5192 36.6597 91.5192 36.9763 91.7145 37.1716L94.8964 40.3536ZM0.25 0V12.241H1.25V0H0.25ZM8.75 20.741H87.25V19.741H8.75V20.741ZM94.75 28.241V40H95.75V28.241H94.75ZM87.25 20.741C91.3921 20.741 94.75 24.0988 94.75 28.241H95.75C95.75 23.5465 91.9444 19.741 87.25 19.741V20.741ZM0.25 12.241C0.25 16.9354 4.05558 20.741 8.75 20.741V19.741C4.60786 19.741 1.25 16.3831 1.25 12.241H0.25Z" fill="#E1F25C" fill-opacity="0.6"/>
<path d="M131.104 40.3536C130.908 40.5488 130.592 40.5488 130.396 40.3536L127.214 37.1716C127.019 36.9763 127.019 36.6597 127.214 36.4645C127.41 36.2692 127.726 36.2692 127.922 36.4645L130.75 39.2929L133.578 36.4645C133.774 36.2692 134.09 36.2692 134.286 36.4645C134.481 36.6597 134.481 36.9763 134.286 37.1716L131.104 40.3536ZM225.75 0V12.241H224.75V0H225.75ZM217.25 20.741H138.75V19.741H217.25V20.741ZM131.25 28.241V40H130.25V28.241H131.25ZM138.75 20.741C134.608 20.741 131.25 24.0988 131.25 28.241H130.25C130.25 23.5465 134.056 19.741 138.75 19.741V20.741ZM225.75 12.241C225.75 16.9354 221.944 20.741 217.25 20.741V19.741C221.392 19.741 224.75 16.3831 224.75 12.241H225.75Z" fill="#E1F25C" fill-opacity="0.6"/>
</svg>
