<svg width="17" height="17" viewBox="0 0 17 17" fill="none" xmlns="http://www.w3.org/2000/svg">
<g clip-path="url(#clip0_9313_270358)">
<path d="M14.1025 4.17938C14.0556 4.12321 13.9969 4.07804 13.9306 4.04704C13.8643 4.01605 13.7919 3.99999 13.7188 4H3.63625L3.33063 2.32125C3.28876 2.09083 3.16736 1.88242 2.98759 1.73234C2.80781 1.58226 2.58106 1.50003 2.34687 1.5H1.21875C1.08614 1.5 0.958965 1.55268 0.865197 1.64645C0.771428 1.74021 0.71875 1.86739 0.71875 2C0.71875 2.13261 0.771428 2.25979 0.865197 2.35355C0.958965 2.44732 1.08614 2.5 1.21875 2.5H2.34375L3.94125 11.2681C3.98831 11.5282 4.10323 11.7712 4.27437 11.9725C4.03815 12.1931 3.86766 12.4749 3.78179 12.7865C3.69592 13.0981 3.69803 13.4274 3.78789 13.7379C3.87776 14.0484 4.05186 14.328 4.29089 14.5455C4.52992 14.7631 4.82455 14.9103 5.1421 14.9706C5.45965 15.031 5.78771 15.0022 6.08991 14.8875C6.3921 14.7728 6.65663 14.5767 6.85415 14.3208C7.05167 14.0649 7.17447 13.7594 7.20893 13.438C7.24339 13.1166 7.18816 12.7919 7.04938 12.5H9.88813C9.77627 12.7342 9.71838 12.9905 9.71875 13.25C9.71875 13.5961 9.82139 13.9345 10.0137 14.2222C10.206 14.51 10.4793 14.7343 10.7991 14.8668C11.1188 14.9992 11.4707 15.0339 11.8102 14.9664C12.1496 14.8989 12.4614 14.7322 12.7062 14.4874C12.9509 14.2427 13.1176 13.9309 13.1851 13.5914C13.2526 13.2519 13.218 12.9001 13.0855 12.5803C12.9531 12.2605 12.7288 11.9872 12.441 11.7949C12.1532 11.6026 11.8149 11.5 11.4688 11.5H5.41687C5.29978 11.5 5.18641 11.4589 5.09652 11.3838C5.00663 11.3088 4.94593 11.2046 4.925 11.0894L4.72687 10H11.9769C12.3282 9.99995 12.6683 9.87661 12.9379 9.65149C13.2076 9.42637 13.3897 9.11375 13.4525 8.76813L14.2125 4.58938C14.2254 4.51715 14.2222 4.44298 14.2032 4.37212C14.1842 4.30127 14.1498 4.23546 14.1025 4.17938ZM6.21875 13.25C6.21875 13.3983 6.17476 13.5433 6.09235 13.6667C6.00994 13.79 5.89281 13.8861 5.75576 13.9429C5.61872 13.9997 5.46792 14.0145 5.32243 13.9856C5.17695 13.9567 5.04331 13.8852 4.93842 13.7803C4.83353 13.6754 4.7621 13.5418 4.73316 13.3963C4.70422 13.2508 4.71907 13.1 4.77584 12.963C4.83261 12.8259 4.92874 12.7088 5.05207 12.6264C5.17541 12.544 5.32041 12.5 5.46875 12.5C5.66766 12.5 5.85843 12.579 5.99908 12.7197C6.13973 12.8603 6.21875 13.0511 6.21875 13.25ZM12.2188 13.25C12.2188 13.3983 12.1748 13.5433 12.0924 13.6667C12.0099 13.79 11.8928 13.8861 11.7558 13.9429C11.6187 13.9997 11.4679 14.0145 11.3224 13.9856C11.1769 13.9567 11.0433 13.8852 10.9384 13.7803C10.8335 13.6754 10.7621 13.5418 10.7332 13.3963C10.7042 13.2508 10.7191 13.1 10.7758 12.963C10.8326 12.8259 10.9287 12.7088 11.0521 12.6264C11.1754 12.544 11.3204 12.5 11.4688 12.5C11.6677 12.5 11.8584 12.579 11.9991 12.7197C12.1397 12.8603 12.2188 13.0511 12.2188 13.25ZM12.4688 8.58938C12.4478 8.7049 12.3868 8.80936 12.2965 8.88443C12.2062 8.95951 12.0924 9.00042 11.975 9H4.545L3.81813 5H13.1194L12.4688 8.58938Z" fill="#121212"/>
</g>
<defs>
<clipPath id="clip0_9313_270358">
<rect width="16" height="16" fill="white" transform="translate(0.21875 0.5)"/>
</clipPath>
</defs>
</svg>
