<svg width="10" height="14" viewBox="0 0 10 14" fill="none" xmlns="http://www.w3.org/2000/svg">
<path fill-rule="evenodd" clip-rule="evenodd" d="M0.000237831 0.875002C0.000237831 0.391752 0.391987 0 0.875235 0H3.79189C4.27514 0 4.66689 0.391752 4.66689 0.875002C4.66689 1.35825 4.27514 1.75 3.79189 1.75H0.875235C0.391987 1.75 0.000237831 1.35825 0.000237831 0.875002ZM9.27959 1.73918C9.44665 2.19263 9.21448 2.69566 8.76103 2.86272L1.17773 5.65659C0.724274 5.82365 0.221249 5.59149 0.0541874 5.13803C-0.112874 4.68458 0.119292 4.18155 0.572744 4.01449L8.15605 1.22062C8.6095 1.05356 9.11253 1.28572 9.27959 1.73918ZM9.27959 8.862C9.44665 9.31546 9.21448 9.81849 8.76103 9.98555L1.17773 12.7794C0.724274 12.9465 0.221249 12.7143 0.0541874 12.2609C-0.112874 11.8074 0.119292 11.3044 0.572744 11.1373L8.15605 8.34344C8.6095 8.17638 9.11253 8.40855 9.27959 8.862ZM4.66689 13.125C4.66689 12.6418 5.05864 12.25 5.54188 12.25H8.45854C8.94179 12.25 9.33354 12.6418 9.33354 13.125C9.33354 13.6083 8.94179 14 8.45854 14H5.54188C5.05864 14 4.66689 13.6083 4.66689 13.125Z" fill="white"/>
<path fill-rule="evenodd" clip-rule="evenodd" d="M9.27522 5.22911C9.44869 5.68015 9.22368 6.18643 8.77265 6.3599L1.18934 9.27661C0.738302 9.45009 0.232034 9.22508 0.0585582 8.77403C-0.114918 8.32299 0.11009 7.81671 0.561127 7.64323L8.14444 4.72653C8.59547 4.55305 9.10174 4.77806 9.27522 5.22911Z" fill="white"/>
</svg>
