<svg width="19" height="20" viewBox="0 0 19 20" fill="none" xmlns="http://www.w3.org/2000/svg">
<g clip-path="url(#clip0_3555_174143)">
<path d="M15.041 6.83329L11.8743 9.99996H14.2494C14.2494 12.6204 12.1198 14.75 9.49935 14.75C8.69977 14.75 7.93977 14.552 7.28268 14.1958L6.12685 15.3516C7.1006 15.9691 8.25643 16.3333 9.49935 16.3333C12.9985 16.3333 15.8327 13.4991 15.8327 9.99996H18.2077L15.041 6.83329ZM4.74935 9.99996C4.74935 7.37954 6.87893 5.24996 9.49935 5.24996C10.2989 5.24996 11.0589 5.44788 11.716 5.80413L12.8719 4.64829C11.8981 4.03079 10.7423 3.66663 9.49935 3.66663C6.00018 3.66663 3.16602 6.50079 3.16602 9.99996H0.791016L3.95768 13.1666L7.12435 9.99996H4.74935Z" fill="#E1F25C"/>
</g>
<defs>
<clipPath id="clip0_3555_174143">
<rect width="19" height="19" fill="white" transform="translate(0 0.5)"/>
</clipPath>
</defs>
</svg>
