<svg xmlns="http://www.w3.org/2000/svg" width="36" height="36" viewBox="0 0 36 36" fill="none">
  <path d="M3.825 17.7748C3.94319 17.8635 4.07768 17.928 4.2208 17.9646C4.36391 18.0013 4.51285 18.0094 4.6591 17.9885C4.80535 17.9676 4.94606 17.9181 5.07318 17.8429C5.2003 17.7676 5.31136 17.668 5.4 17.5498C6.08114 16.6417 6.96437 15.9045 7.97975 15.3968C8.99513 14.8892 10.1148 14.6248 11.25 14.6248C12.3852 14.6248 13.5049 14.8892 14.5202 15.3968C15.5356 15.9045 16.4189 16.6417 17.1 17.5498C17.2792 17.7883 17.5458 17.9458 17.8412 17.9878C18.1366 18.0297 18.4365 17.9526 18.675 17.7734C18.76 17.7102 18.8354 17.6349 18.8986 17.5498C19.5797 16.6417 20.463 15.9045 21.4783 15.3968C22.4937 14.8892 23.6134 14.6248 24.7486 14.6248C25.8838 14.6248 27.0035 14.8892 28.0188 15.3968C29.0342 15.9045 29.9175 16.6417 30.5986 17.5498C30.7778 17.7885 31.0445 17.9463 31.34 17.9883C31.6355 18.0304 31.9356 17.9533 32.1743 17.7741C32.413 17.5949 32.5707 17.3282 32.6128 17.0327C32.6548 16.7372 32.5778 16.4371 32.3986 16.1984C31.4028 14.8634 30.0749 13.8124 28.5469 13.1497C29.3846 12.3849 29.9715 11.3847 30.2305 10.2804C30.4896 9.17605 30.4088 8.01921 29.9986 6.96165C29.5885 5.9041 28.8682 4.99526 27.9322 4.3544C26.9963 3.71354 25.8885 3.37061 24.7542 3.37061C23.6199 3.37061 22.5121 3.71354 21.5762 4.3544C20.6403 4.99526 19.92 5.9041 19.5098 6.96165C19.0997 8.01921 19.0188 9.17605 19.2779 10.2804C19.537 11.3847 20.1239 12.3849 20.9616 13.1497C19.8583 13.6268 18.856 14.3097 18.0084 15.162C17.1609 14.3097 16.1586 13.6268 15.0553 13.1497C15.893 12.3849 16.4799 11.3847 16.739 10.2804C16.998 9.17605 16.9172 8.01921 16.5071 6.96165C16.0969 5.9041 15.3766 4.99526 14.4407 4.3544C13.5048 3.71354 12.397 3.37061 11.2627 3.37061C10.1284 3.37061 9.02055 3.71354 8.08463 4.3544C7.14872 4.99526 6.42842 5.9041 6.01826 6.96165C5.60811 8.01921 5.52727 9.17605 5.78634 10.2804C6.04542 11.3847 6.63231 12.3849 7.47 13.1497C5.93529 13.8102 4.60083 14.862 3.6 16.1998C3.51136 16.318 3.44686 16.4525 3.4102 16.5956C3.37353 16.7388 3.36541 16.8877 3.38631 17.0339C3.4072 17.1802 3.4567 17.3209 3.53197 17.448C3.60724 17.5751 3.70681 17.6862 3.825 17.7748ZM24.75 5.62484C25.4175 5.62484 26.07 5.82278 26.625 6.19363C27.1801 6.56448 27.6126 7.09158 27.8681 7.70829C28.1235 8.32499 28.1904 9.00359 28.0602 9.65827C27.9299 10.313 27.6085 10.9143 27.1365 11.3863C26.6645 11.8583 26.0631 12.1798 25.4084 12.31C24.7537 12.4402 24.0751 12.3734 23.4584 12.1179C22.8417 11.8625 22.3146 11.4299 21.9438 10.8749C21.5729 10.3199 21.375 9.66735 21.375 8.99984C21.375 8.10474 21.7306 7.24629 22.3635 6.61336C22.9964 5.98042 23.8549 5.62484 24.75 5.62484ZM11.25 5.62484C11.9175 5.62484 12.57 5.82278 13.125 6.19363C13.6801 6.56448 14.1126 7.09158 14.3681 7.70829C14.6235 8.32499 14.6904 9.00359 14.5602 9.65827C14.4299 10.313 14.1085 10.9143 13.6365 11.3863C13.1645 11.8583 12.5631 12.1798 11.9084 12.31C11.2537 12.4402 10.5751 12.3734 9.95844 12.1179C9.34174 11.8625 8.81464 11.4299 8.44379 10.8749C8.07294 10.3199 7.875 9.66735 7.875 8.99984C7.875 8.10474 8.23058 7.24629 8.86351 6.61336C9.49645 5.98042 10.3549 5.62484 11.25 5.62484ZM28.5469 27.7747C29.3846 27.0099 29.9715 26.0097 30.2305 24.9054C30.4896 23.8011 30.4088 22.6442 29.9986 21.5867C29.5885 20.5291 28.8682 19.6203 27.9322 18.9794C26.9963 18.3385 25.8885 17.9956 24.7542 17.9956C23.6199 17.9956 22.5121 18.3385 21.5762 18.9794C20.6403 19.6203 19.92 20.5291 19.5098 21.5867C19.0997 22.6442 19.0188 23.8011 19.2779 24.9054C19.537 26.0097 20.1239 27.0099 20.9616 27.7747C19.8583 28.2518 18.856 28.9347 18.0084 29.787C17.1609 28.9347 16.1586 28.2518 15.0553 27.7747C15.893 27.0099 16.4799 26.0097 16.739 24.9054C16.998 23.8011 16.9172 22.6442 16.5071 21.5867C16.0969 20.5291 15.3766 19.6203 14.4407 18.9794C13.5048 18.3385 12.397 17.9956 11.2627 17.9956C10.1284 17.9956 9.02055 18.3385 8.08463 18.9794C7.14872 19.6203 6.42842 20.5291 6.01826 21.5867C5.60811 22.6442 5.52727 23.8011 5.78634 24.9054C6.04542 26.0097 6.63231 27.0099 7.47 27.7747C5.93529 28.4352 4.60083 29.487 3.6 30.8248C3.51136 30.943 3.44686 31.0775 3.4102 31.2206C3.37353 31.3638 3.36541 31.5127 3.38631 31.6589C3.4072 31.8052 3.4567 31.9459 3.53197 32.073C3.60724 32.2001 3.70681 32.3112 3.825 32.3998C3.94319 32.4885 4.07768 32.553 4.2208 32.5896C4.36391 32.6263 4.51285 32.6344 4.6591 32.6135C4.80535 32.5926 4.94606 32.5431 5.07318 32.4679C5.2003 32.3926 5.31136 32.293 5.4 32.1748C6.08114 31.2667 6.96437 30.5295 7.97975 30.0218C8.99513 29.5142 10.1148 29.2498 11.25 29.2498C12.3852 29.2498 13.5049 29.5142 14.5202 30.0218C15.5356 30.5295 16.4189 31.2667 17.1 32.1748C17.2792 32.4133 17.5458 32.5708 17.8412 32.6128C18.1366 32.6547 18.4365 32.5776 18.675 32.3984C18.76 32.3352 18.8354 32.2599 18.8986 32.1748C19.5797 31.2667 20.463 30.5295 21.4783 30.0218C22.4937 29.5142 23.6134 29.2498 24.7486 29.2498C25.8838 29.2498 27.0035 29.5142 28.0188 30.0218C29.0342 30.5295 29.9175 31.2667 30.5986 32.1748C30.7778 32.4135 31.0445 32.5713 31.34 32.6133C31.6355 32.6554 31.9356 32.5783 32.1743 32.3991C32.413 32.2199 32.5707 31.9532 32.6128 31.6577C32.6548 31.3622 32.5778 31.0621 32.3986 30.8234C31.4028 29.4884 30.0749 28.4373 28.5469 27.7747ZM11.25 20.2498C11.9175 20.2498 12.57 20.4478 13.125 20.8186C13.6801 21.1895 14.1126 21.7166 14.3681 22.3333C14.6235 22.95 14.6904 23.6286 14.5602 24.2833C14.4299 24.938 14.1085 25.5393 13.6365 26.0113C13.1645 26.4833 12.5631 26.8048 11.9084 26.935C11.2537 27.0652 10.5751 26.9984 9.95844 26.7429C9.34174 26.4875 8.81464 26.0549 8.44379 25.4999C8.07294 24.9449 7.875 24.2924 7.875 23.6248C7.875 22.7297 8.23058 21.8713 8.86351 21.2384C9.49645 20.6054 10.3549 20.2498 11.25 20.2498ZM24.75 20.2498C25.4175 20.2498 26.07 20.4478 26.625 20.8186C27.1801 21.1895 27.6126 21.7166 27.8681 22.3333C28.1235 22.95 28.1904 23.6286 28.0602 24.2833C27.9299 24.938 27.6085 25.5393 27.1365 26.0113C26.6645 26.4833 26.0631 26.8048 25.4084 26.935C24.7537 27.0652 24.0751 26.9984 23.4584 26.7429C22.8417 26.4875 22.3146 26.0549 21.9438 25.4999C21.5729 24.9449 21.375 24.2924 21.375 23.6248C21.375 22.7297 21.7306 21.8713 22.3635 21.2384C22.9964 20.6054 23.8549 20.2498 24.75 20.2498Z" fill="#B5E629"/>
</svg>