<svg xmlns="http://www.w3.org/2000/svg" width="36" height="36" viewBox="0 0 36 36" fill="none">
  <path d="M13.5045 8.99989C13.5045 7.80761 13.9781 6.66417 14.8212 5.8211C15.6643 4.97803 16.8077 4.50439 18 4.50439C19.1923 4.50439 20.3357 4.97803 21.1788 5.8211C22.0219 6.66417 22.4955 7.80761 22.4955 8.99989C22.4955 10.1922 22.0219 11.3356 21.1788 12.1787C20.3357 13.0218 19.1923 13.4954 18 13.4954C16.8077 13.4954 15.6643 13.0218 14.8212 12.1787C13.9781 11.3356 13.5045 10.1922 13.5045 8.99989ZM18 6.75439C17.7051 6.75439 17.4131 6.81248 17.1407 6.92532C16.8682 7.03817 16.6207 7.20357 16.4122 7.41209C16.2037 7.6206 16.0383 7.86814 15.9254 8.14058C15.8126 8.41302 15.7545 8.70501 15.7545 8.99989C15.7545 9.29478 15.8126 9.58677 15.9254 9.85921C16.0383 10.1316 16.2037 10.3792 16.4122 10.5877C16.6207 10.7962 16.8682 10.9616 17.1407 11.0745C17.4131 11.1873 17.7051 11.2454 18 11.2454C18.5955 11.2454 19.1667 11.0088 19.5878 10.5877C20.0089 10.1666 20.2455 9.59544 20.2455 8.99989C20.2455 8.40435 20.0089 7.8332 19.5878 7.41209C19.1667 6.99097 18.5955 6.75439 18 6.75439ZM24.75 10.1249C24.75 9.68168 24.8373 9.24281 25.0069 8.83334C25.1765 8.42386 25.4251 8.05181 25.7385 7.73841C26.0519 7.42501 26.424 7.17641 26.8334 7.0068C27.2429 6.83719 27.6818 6.74989 28.125 6.74989C28.5682 6.74989 29.0071 6.83719 29.4166 7.0068C29.826 7.17641 30.1981 7.42501 30.5115 7.73841C30.8249 8.05181 31.0735 8.42386 31.2431 8.83334C31.4127 9.24281 31.5 9.68168 31.5 10.1249C31.5 11.02 31.1444 11.8784 30.5115 12.5114C29.8786 13.1443 29.0201 13.4999 28.125 13.4999C27.2299 13.4999 26.3714 13.1443 25.7385 12.5114C25.1056 11.8784 24.75 11.02 24.75 10.1249ZM28.125 8.99989C27.8266 8.99989 27.5405 9.11842 27.3295 9.3294C27.1185 9.54038 27 9.82653 27 10.1249C27 10.4233 27.1185 10.7094 27.3295 10.9204C27.5405 11.1314 27.8266 11.2499 28.125 11.2499C28.4234 11.2499 28.7095 11.1314 28.9205 10.9204C29.1315 10.7094 29.25 10.4233 29.25 10.1249C29.25 9.82653 29.1315 9.54038 28.9205 9.3294C28.7095 9.11842 28.4234 8.99989 28.125 8.99989ZM7.875 6.74989C6.9799 6.74989 6.12145 7.10547 5.48851 7.73841C4.85558 8.37134 4.5 9.22979 4.5 10.1249C4.5 11.02 4.85558 11.8784 5.48851 12.5114C6.12145 13.1443 6.9799 13.4999 7.875 13.4999C8.77011 13.4999 9.62855 13.1443 10.2615 12.5114C10.8944 11.8784 11.25 11.02 11.25 10.1249C11.25 9.22979 10.8944 8.37134 10.2615 7.73841C9.62855 7.10547 8.77011 6.74989 7.875 6.74989ZM6.75 10.1249C6.75 9.82653 6.86853 9.54038 7.07951 9.3294C7.29048 9.11842 7.57663 8.99989 7.875 8.99989C8.17337 8.99989 8.45952 9.11842 8.6705 9.3294C8.88147 9.54038 9 9.82653 9 10.1249C9 10.4233 8.88147 10.7094 8.6705 10.9204C8.45952 11.1314 8.17337 11.2499 7.875 11.2499C7.57663 11.2499 7.29048 11.1314 7.07951 10.9204C6.86853 10.7094 6.75 10.4233 6.75 10.1249ZM9.603 15.7499C9.20701 16.4336 8.99897 17.2098 9 17.9999H4.5V23.6249C4.49982 24.1846 4.63881 24.7355 4.90448 25.2281C5.17014 25.7206 5.55413 26.1394 6.02187 26.4467C6.48962 26.754 7.02645 26.9402 7.58402 26.9884C8.14159 27.0367 8.70242 26.9455 9.216 26.7231C9.3825 27.4679 9.6435 28.1789 9.981 28.8426C9.12705 29.1874 8.20149 29.3173 7.28563 29.2208C6.36976 29.1243 5.49159 28.8044 4.72825 28.2892C3.9649 27.774 3.33972 27.0793 2.90761 26.266C2.47551 25.4528 2.24969 24.5458 2.25 23.6249V17.9999C2.25 17.4032 2.48705 16.8309 2.90901 16.4089C3.33097 15.9869 3.90326 15.7499 4.5 15.7499H9.603ZM26.019 28.8426C26.873 29.1874 27.7985 29.3173 28.7144 29.2208C29.6302 29.1243 30.5084 28.8044 31.2718 28.2892C32.0351 27.774 32.6603 27.0793 33.0924 26.266C33.5245 25.4528 33.7503 24.5458 33.75 23.6249V17.9999C33.75 17.4032 33.5129 16.8309 33.091 16.4089C32.669 15.9869 32.0967 15.7499 31.5 15.7499H26.397C26.7795 16.4114 27 17.1786 27 17.9999H31.5V23.6249C31.5002 24.1846 31.3612 24.7355 31.0955 25.2281C30.8299 25.7206 30.4459 26.1394 29.9781 26.4467C29.5104 26.754 28.9736 26.9402 28.416 26.9884C27.8584 27.0367 27.2976 26.9455 26.784 26.7231C26.6153 27.4679 26.3565 28.1789 26.019 28.8426ZM13.5 15.7476C12.9033 15.7476 12.331 15.9847 11.909 16.4067C11.4871 16.8286 11.25 17.4009 11.25 17.9976V24.7499C11.25 26.5401 11.9612 28.257 13.227 29.5229C14.4929 30.7887 16.2098 31.4999 18 31.4999C19.7902 31.4999 21.5071 30.7887 22.773 29.5229C24.0388 28.257 24.75 26.5401 24.75 24.7499V17.9999C24.75 17.4032 24.5129 16.8309 24.091 16.4089C23.669 15.9869 23.0967 15.7499 22.5 15.7499H13.5V15.7476ZM13.5 17.9976H22.5V24.7499C22.5 25.9434 22.0259 27.088 21.182 27.9319C20.3381 28.7758 19.1935 29.2499 18 29.2499C16.8065 29.2499 15.6619 28.7758 14.818 27.9319C13.9741 27.088 13.5 25.9434 13.5 24.7499V17.9999V17.9976Z" fill="#B5E629"/>
</svg>
