<svg xmlns="http://www.w3.org/2000/svg" width="36" height="36" viewBox="0 0 36 36" fill="none">
  <path d="M29.25 4.5H6.75C6.15326 4.5 5.58097 4.73705 5.15901 5.15901C4.73705 5.58097 4.5 6.15326 4.5 6.75V29.25C4.5 29.8467 4.73705 30.419 5.15901 30.841C5.58097 31.2629 6.15326 31.5 6.75 31.5H29.25C29.8467 31.5 30.419 31.2629 30.841 30.841C31.2629 30.419 31.5 29.8467 31.5 29.25V6.75C31.5 6.15326 31.2629 5.58097 30.841 5.15901C30.419 4.73705 29.8467 4.5 29.25 4.5Z" stroke="#B5E629" stroke-width="3" stroke-linecap="round" stroke-linejoin="round"/>
  <path d="M15.75 23.25L19.5 26.25L25.5 18.75M10.5 11.25H25.5M10.5 17.25H16.5" stroke="#B5E629" stroke-width="3" stroke-linecap="round" stroke-linejoin="round"/>
</svg>