<svg width="17" height="17" viewBox="0 0 17 17" fill="none" xmlns="http://www.w3.org/2000/svg">
<g id="Group 1000004798">
<circle id="Ellipse 2576" cx="8.5" cy="8.5" r="8" fill="#E1F25C"/>
<path id="$" d="M8.16667 13.5V3.5H8.83333V13.5H8.16667ZM10.4106 6.5C10.3618 6.10417 10.164 5.79688 9.81707 5.57813C9.47019 5.35938 9.04472 5.25 8.54065 5.25C8.17209 5.25 7.84959 5.30729 7.57317 5.42188C7.29946 5.53646 7.08537 5.69401 6.93089 5.89453C6.77913 6.09505 6.70325 6.32292 6.70325 6.57812C6.70325 6.79167 6.7561 6.97526 6.86179 7.12891C6.97019 7.27995 7.1084 7.40625 7.27642 7.50781C7.44444 7.60677 7.6206 7.6888 7.80488 7.75391C7.98916 7.81641 8.15854 7.86719 8.31301 7.90625L9.15854 8.125C9.37534 8.17969 9.61653 8.25521 9.88211 8.35156C10.1504 8.44792 10.4065 8.57943 10.6504 8.74609C10.897 8.91016 11.1003 9.12109 11.2602 9.37891C11.4201 9.63672 11.5 9.95312 11.5 10.3281C11.5 10.7604 11.3821 11.151 11.1463 11.5C10.9133 11.849 10.5718 12.1263 10.122 12.332C9.6748 12.5378 9.13144 12.6406 8.49187 12.6406C7.89566 12.6406 7.3794 12.5482 6.94309 12.3633C6.50949 12.1784 6.16802 11.9206 5.9187 11.5898C5.67209 11.2591 5.53252 10.875 5.5 10.4375H6.54065C6.56775 10.7396 6.67344 10.9896 6.85772 11.1875C7.04472 11.3828 7.28049 11.5286 7.56504 11.625C7.8523 11.7188 8.16125 11.7656 8.49187 11.7656C8.87669 11.7656 9.22222 11.7057 9.52846 11.5859C9.83469 11.4635 10.0772 11.2943 10.2561 11.0781C10.435 10.8594 10.5244 10.6042 10.5244 10.3125C10.5244 10.0469 10.4472 9.83073 10.2927 9.66406C10.1382 9.4974 9.93496 9.36198 9.68293 9.25781C9.43089 9.15365 9.15854 9.0625 8.86585 8.98438L7.84146 8.70312C7.19106 8.52344 6.67615 8.26693 6.29675 7.93359C5.91734 7.60026 5.72764 7.16406 5.72764 6.625C5.72764 6.17708 5.85366 5.78646 6.10569 5.45313C6.36043 5.11719 6.7019 4.85677 7.13008 4.67188C7.56098 4.48438 8.04201 4.39063 8.57317 4.39063C9.10976 4.39063 9.58672 4.48307 10.0041 4.66797C10.4214 4.85026 10.752 5.10026 10.9959 5.41797C11.2425 5.73568 11.3726 6.09635 11.3862 6.5H10.4106Z" fill="black"/>
</g>
</svg>
