<svg width="16" height="17" viewBox="0 0 16 17" fill="none" xmlns="http://www.w3.org/2000/svg">
<path id="Vector" d="M6.36697 16.3349C2.73395 15.5826 0 12.3624 0 8.5C0 4.07798 3.57798 0.5 8 0.5C12.422 0.5 16 4.07798 16 8.5C16 10.7018 15.1101 12.7018 13.6697 14.1422L13.6606 14.1514C12.5604 15.2525 11.1646 16.0109 9.6422 16.3349C9.11009 16.445 8.55963 16.5 8 16.5C7.44037 16.5 6.89908 16.445 6.36697 16.3349ZM13.5505 13.5367C14.7615 12.2064 15.4954 10.4358 15.4954 8.5C15.4954 4.36239 12.1376 1.00459 8 1.00459C3.86239 1.00459 0.504587 4.36239 0.504587 8.5C0.504587 10.445 1.23853 12.2156 2.45872 13.5459C3.31193 11.1789 6.27523 10.5459 8.00918 10.5459C9.73395 10.5459 12.7064 11.1606 13.5505 13.5367ZM8 2.47248C10.0642 2.47248 11.7523 4.1422 11.7523 6.22477C11.7523 8.28899 10.0826 9.97707 8 9.97707C5.91743 9.97707 4.24771 8.30734 4.24771 6.22477C4.24771 4.16055 5.93578 2.47248 8 2.47248Z" fill="#F9DEE0"/>
</svg>
