<svg width="34" height="34" viewBox="0 0 34 34" fill="none" xmlns="http://www.w3.org/2000/svg">
<g opacity="0.4">
<rect x="1" y="1" width="32" height="32" rx="16" fill="white"/>
<path d="M22.6829 11.2284C21.5462 10.647 20.3436 10.2339 19.107 10C18.953 10.3044 18.773 10.7138 18.6489 11.0396C17.3156 10.8204 15.9945 10.8204 14.6857 11.0396C14.5617 10.7139 14.3776 10.3044 14.2222 10C12.9843 10.234 11.7807 10.6481 10.6435 11.2314C8.38038 14.9696 7.76688 18.6149 8.07359 22.2085C9.57462 23.4338 11.0293 24.1781 12.4594 24.6652C12.8148 24.1309 13.129 23.5653 13.3987 22.9741C12.8852 22.7604 12.3902 22.4971 11.9196 22.1872C12.0434 22.0869 12.1644 21.9823 12.2822 21.8736C15.1342 23.3318 18.2331 23.3318 21.0511 21.8736C21.1695 21.9816 21.2904 22.0861 21.4137 22.1872C20.9423 22.4979 20.4463 22.7618 19.9318 22.9757C20.2031 23.5692 20.5167 24.1354 20.8711 24.6667C22.3026 24.1797 23.7586 23.4353 25.2597 22.2085C25.6196 18.0426 24.6449 14.4308 22.6829 11.2284ZM13.7873 19.9985C12.9311 19.9985 12.229 19.1248 12.229 18.0609C12.229 16.997 12.9162 16.1218 13.7873 16.1218C14.6585 16.1218 15.3606 16.9954 15.3456 18.0609C15.347 19.1248 14.6585 19.9985 13.7873 19.9985ZM19.546 19.9985C18.6898 19.9985 17.9877 19.1248 17.9877 18.0609C17.9877 16.997 18.6748 16.1218 19.546 16.1218C20.4172 16.1218 21.1192 16.9954 21.1043 18.0609C21.1043 19.1248 20.4172 19.9985 19.546 19.9985Z" fill="black"/>
<rect x="1" y="1" width="32" height="32" rx="16" stroke="#121212" stroke-opacity="0.2"/>
</g>
</svg>
