<svg width="40" height="40" viewBox="0 0 40 40" fill="none" xmlns="http://www.w3.org/2000/svg">
<circle cx="20" cy="20.0001" r="20" fill="#595FE6"/>
<path d="M26.0568 14.4417C24.9485 13.925 23.7485 13.55 22.4985 13.3334C22.4875 13.333 22.4766 13.3351 22.4665 13.3394C22.4565 13.3437 22.4474 13.3502 22.4401 13.3584C22.2901 13.6334 22.1151 13.9917 21.9985 14.2667C20.6726 14.0667 19.3243 14.0667 17.9985 14.2667C17.8818 13.9834 17.7068 13.6334 17.5485 13.3584C17.5401 13.3417 17.5151 13.3334 17.4901 13.3334C16.2401 13.55 15.0485 13.925 13.9318 14.4417C13.9235 14.4417 13.9151 14.45 13.9068 14.4584C11.6401 17.85 11.0151 21.15 11.3235 24.4167C11.3235 24.4334 11.3318 24.45 11.3485 24.4584C12.8485 25.5584 14.2901 26.225 15.7151 26.6667C15.7401 26.675 15.7651 26.6667 15.7735 26.65C16.1068 26.1917 16.4068 25.7084 16.6651 25.2C16.6818 25.1667 16.6651 25.1334 16.6318 25.125C16.1568 24.9417 15.7068 24.725 15.2651 24.475C15.2318 24.4584 15.2318 24.4084 15.2568 24.3834C15.3485 24.3167 15.4401 24.2417 15.5318 24.175C15.5485 24.1584 15.5735 24.1584 15.5901 24.1667C18.4568 25.475 21.5485 25.475 24.3818 24.1667C24.3985 24.1584 24.4235 24.1584 24.4401 24.175C24.5318 24.25 24.6235 24.3167 24.7151 24.3917C24.7485 24.4167 24.7485 24.4667 24.7068 24.4834C24.2735 24.7417 23.8151 24.95 23.3401 25.1334C23.3068 25.1417 23.2985 25.1834 23.3068 25.2084C23.5735 25.7167 23.8735 26.2 24.1985 26.6584C24.2235 26.6667 24.2485 26.675 24.2735 26.6667C25.7068 26.225 27.1485 25.5584 28.6485 24.4584C28.6651 24.45 28.6735 24.4334 28.6735 24.4167C29.0401 20.6417 28.0651 17.3667 26.0901 14.4584C26.0818 14.45 26.0735 14.4417 26.0568 14.4417ZM17.0985 22.425C16.2401 22.425 15.5235 21.6334 15.5235 20.6584C15.5235 19.6834 16.2235 18.8917 17.0985 18.8917C17.9818 18.8917 18.6818 19.6917 18.6735 20.6584C18.6735 21.6334 17.9735 22.425 17.0985 22.425ZM22.9068 22.425C22.0485 22.425 21.3318 21.6334 21.3318 20.6584C21.3318 19.6834 22.0318 18.8917 22.9068 18.8917C23.7901 18.8917 24.4901 19.6917 24.4818 20.6584C24.4818 21.6334 23.7901 22.425 22.9068 22.425Z" fill="white"/>
</svg>
