<svg width="60" height="60" viewBox="0 0 60 60" fill="none" xmlns="http://www.w3.org/2000/svg">
<path d="M54.1328 19.6759C52.8086 16.5529 50.9219 13.7462 48.5078 11.338C46.0996 8.92981 43.293 7.03723 40.1699 5.71301C36.9355 4.34192 33.502 3.65051 29.957 3.65051C26.4121 3.65051 22.9785 4.34192 19.7441 5.71301C16.6211 7.03723 13.8145 8.92395 11.4062 11.338C8.99805 13.7462 7.10547 16.5529 5.78125 19.6759C4.41016 22.9103 3.71875 26.3497 3.71875 29.8888C3.71875 33.4279 4.41016 36.8673 5.78125 40.1017C7.10547 43.2247 8.99219 46.0314 11.4062 48.4396C13.8145 50.8478 16.6211 52.7404 19.7441 54.0646C22.9785 55.4357 26.418 56.1271 29.957 56.1271C33.4961 56.1271 36.9355 55.4357 40.1699 54.0646C42.2734 53.174 44.2305 52.0255 46.0176 50.6368L46.0117 50.631C46.5449 50.1974 46.8789 49.5411 46.8789 48.8029C46.8789 47.4962 45.8242 46.4415 44.5176 46.4415C43.9785 46.4415 43.4805 46.6232 43.082 46.9279L43.0703 46.9103C39.4375 49.7169 34.8848 51.3868 29.9512 51.3868C18.0977 51.3868 8.45312 41.7423 8.45312 29.8888C8.45312 18.0353 18.1035 8.39075 29.957 8.39075C41.8105 8.39075 51.4551 18.0353 51.4551 29.8888C51.4551 33.7677 50.4238 37.4064 48.6191 40.5529L48.6426 40.5646C48.3848 40.9454 48.2324 41.3966 48.2324 41.8888C48.2324 43.1954 49.2871 44.2501 50.5938 44.2501C51.5312 44.2501 52.3398 43.7052 52.7207 42.9142L52.7324 42.92C53.2539 42.0118 53.7168 41.0743 54.127 40.1017C55.498 36.8673 56.1895 33.4279 56.1895 29.8888C56.1953 26.3497 55.5039 22.9103 54.1328 19.6759Z" fill="white"/>
<path d="M40.6465 36.7091H29.7422L26.3965 40.5822H40.6465V36.7091ZM38.8594 24.1056C39.2988 23.6603 39.2988 22.7286 38.8594 22.2716L36.1992 19.5294C35.748 19.0841 34.8574 19.0841 34.418 19.5294L31.7402 22.2716L36.1992 26.8478L38.8594 24.1056ZM19.2656 36.006V40.5822H23.7246L35.2969 27.7677L30.8438 23.2032L19.2656 36.006Z" fill="white"/>
</svg>
