<svg width="24" height="24" viewBox="0 0 24 24" fill="none" xmlns="http://www.w3.org/2000/svg">
<path d="M7.54334 13.6696L6.98628 15.7497L4.94935 15.7929C4.32129 14.6272 3.99368 13.3233 3.99611 11.9992C3.9941 10.7184 4.30105 9.456 4.89092 8.31911L6.70455 8.65126L7.49852 10.4537C7.32797 10.9514 7.24115 11.4739 7.2416 12C7.2416 12.5875 7.34805 13.1501 7.54334 13.6696Z" fill="#FBBB00"/>
<path d="M19.8594 10.5044C20.0582 11.5517 20.0462 12.6281 19.8242 13.6707C19.4394 15.473 18.4443 17.0873 17.0069 18.2408L14.7226 18.1239L14.3993 16.1062C15.3422 15.5534 16.0666 14.6936 16.4514 13.6707H12.1719V10.5044H19.8594Z" fill="#518EF8"/>
<path d="M17.0092 18.2408C15.5897 19.3839 13.8214 20.0059 11.9989 20.0032C10.5531 20.0038 9.13418 19.6126 7.8929 18.8713C6.65162 18.1301 5.63436 17.0664 4.94922 15.7932L7.54241 13.6691C7.78581 14.3183 8.16814 14.9065 8.66264 15.3925C9.15714 15.8786 9.75186 16.2507 10.4052 16.4828C11.0586 16.7149 11.7547 16.8015 12.445 16.7365C13.1353 16.6714 13.8031 16.4563 14.4016 16.1062L17.0092 18.2408Z" fill="#28B446"/>
<path d="M17.1074 5.83835L14.5143 7.96093C13.9068 7.58286 13.2219 7.34659 12.5106 7.26968C11.7992 7.19277 11.0796 7.27719 10.4054 7.51668C9.73117 7.75616 9.11959 8.14455 8.61613 8.65296C8.11268 9.16137 7.7303 9.77672 7.49742 10.4533L4.89062 8.31869C5.5653 7.01601 6.58509 5.92387 7.83855 5.16164C9.092 4.3994 10.5309 3.99641 11.9979 3.9967C13.9404 3.9967 15.7212 4.68742 17.1074 5.83835Z" fill="#F14336"/>
</svg>
