<svg width="40" height="40" viewBox="0 0 40 40" fill="none" xmlns="http://www.w3.org/2000/svg">
<circle cx="20" cy="20.0001" r="20" fill="#121212"/>
<path fill-rule="evenodd" clip-rule="evenodd" d="M20 10.0001C14.475 10.0001 10 14.5883 10 20.253C10 24.7899 12.8625 28.622 16.8375 29.9805C17.3375 30.0702 17.525 29.7626 17.525 29.4935C17.525 29.25 17.5125 28.4425 17.5125 27.5839C15 28.0581 14.35 26.9559 14.15 26.3791C14.0375 26.0844 13.55 25.1744 13.125 24.9309C12.775 24.7387 12.275 24.2645 13.1125 24.2517C13.9 24.2388 14.4625 24.995 14.65 25.3026C15.55 26.8533 16.9875 26.4176 17.5625 26.1485C17.65 25.482 17.9125 25.0334 18.2 24.7771C15.975 24.5208 13.65 23.6365 13.65 19.7147C13.65 18.5997 14.0375 17.677 14.675 16.9593C14.575 16.7029 14.225 15.652 14.775 14.2422C14.775 14.2422 15.6125 13.9731 17.525 15.2932C18.325 15.0625 19.175 14.9471 20.025 14.9471C20.875 14.9471 21.725 15.0625 22.525 15.2932C24.4375 13.9603 25.275 14.2422 25.275 14.2422C25.825 15.652 25.475 16.7029 25.375 16.9593C26.0125 17.677 26.4 18.5869 26.4 19.7147C26.4 23.6493 24.0625 24.5208 21.8375 24.7771C22.2 25.0975 22.5125 25.7127 22.5125 26.6739C22.5125 28.0452 22.5 29.1474 22.5 29.4935C22.5 29.7626 22.6875 30.083 23.1875 29.9805C27.1375 28.622 30 24.7771 30 20.253C30 14.5883 25.525 10.0001 20 10.0001Z" fill="white"/>
</svg>
