<svg width="24" height="24" viewBox="0 0 24 24" fill="none" xmlns="http://www.w3.org/2000/svg">
<mask id="mask0_3452_159221" style="mask-type:alpha" maskUnits="userSpaceOnUse" x="4" y="4" width="16" height="16">
<path fill-rule="evenodd" clip-rule="evenodd" d="M12.0047 4C9.83154 4 9.55951 4.00938 8.70588 4.04688C7.85538 4.08439 7.27067 4.22192 6.76412 4.41883C6.23568 4.62512 5.78855 4.89705 5.34454 5.34401C4.8974 5.78785 4.62537 6.23481 4.419 6.75991C4.22201 7.26939 4.08442 7.85075 4.0469 8.70092C4.00938 9.55734 4 9.82926 4 12.0016C4 14.1739 4.00938 14.4458 4.0469 15.2991C4.08442 16.1492 4.22201 16.7337 4.419 17.2401C4.62537 17.7683 4.8974 18.2153 5.34454 18.6591C5.78855 19.103 6.23568 19.378 6.76099 19.5812C7.27067 19.7781 7.85226 19.9156 8.70275 19.9531C9.55638 19.9906 9.82841 20 12.0016 20C14.1747 20 14.4467 19.9906 15.3004 19.9531C16.1509 19.9156 16.7356 19.7781 17.2421 19.5812C17.7674 19.378 18.2146 19.103 18.6586 18.6591C19.1026 18.2153 19.3778 17.7683 19.581 17.2432C19.778 16.7337 19.9156 16.1524 19.9531 15.3022C19.9906 14.4489 20 14.177 20 12.0047C20 9.83239 19.9906 9.56046 19.9531 8.70717C19.9156 7.857 19.778 7.27251 19.581 6.76617C19.384 6.23481 19.112 5.78785 18.6648 5.34401C18.2208 4.90018 17.7737 4.62512 17.2484 4.42196C16.7387 4.22504 16.1571 4.08752 15.3066 4.05001C14.4499 4.00938 14.1778 4 12.0047 4ZM17.2441 7.72873C17.2441 8.26008 16.8126 8.68829 16.2842 8.68829C15.7526 8.68829 15.3242 8.25696 15.3242 7.72873C15.3242 7.19737 15.7557 6.76917 16.2842 6.76917C16.8126 6.76917 17.2441 7.2005 17.2441 7.72873ZM7.89453 12.0014C7.89453 9.73222 9.73624 7.89124 12.0063 7.89124C14.2764 7.89124 16.1181 9.73222 16.1181 12.0014C16.1181 14.2706 14.2764 16.1116 12.0063 16.1116C9.73624 16.1116 7.89453 14.2706 7.89453 12.0014ZM9.33913 12.0014C9.33913 13.4736 10.5336 14.6676 12.0063 14.6676C13.4791 14.6676 14.6735 13.4736 14.6735 12.0014C14.6735 10.5293 13.4791 9.33527 12.0063 9.33527C10.5336 9.33527 9.33913 10.5293 9.33913 12.0014Z" fill="black"/>
</mask>
<g mask="url(#mask0_3452_159221)">
<ellipse cx="12.3374" cy="11.6667" rx="10.3374" ry="10.3333" fill="url(#paint0_linear_3452_159221)"/>
</g>
<defs>
<linearGradient id="paint0_linear_3452_159221" x1="12.3374" y1="32.3334" x2="33.004" y2="11.6586" gradientUnits="userSpaceOnUse">
<stop stop-color="#FFD522"/>
<stop offset="0.497382" stop-color="#F1000B"/>
<stop offset="1" stop-color="#B900B3"/>
</linearGradient>
</defs>
</svg>
