<svg width="70" height="70" viewBox="0 0 70 70" fill="none" xmlns="http://www.w3.org/2000/svg">
<path d="M64.4826 34.6077C61.9921 21.8921 49.5548 12.6626 34.9112 12.6626C20.2667 12.6626 7.83029 21.8921 5.33962 34.6077C5.30346 34.7968 5.30346 34.9913 5.33962 35.1803C7.83029 47.8974 20.2667 57.127 34.9112 57.127C40.7049 57.127 46.3222 55.6713 51.159 52.9194C51.901 52.4958 52.1531 51.5639 51.7194 50.8359C51.2859 50.1113 50.3368 49.868 49.5884 50.2885C45.2302 52.7705 40.1541 54.0836 34.911 54.0836C21.87 54.0836 10.7994 46.0305 8.45797 34.8941C10.7993 23.7584 21.8715 15.7062 34.911 15.7062C47.9521 15.7062 59.0227 23.7584 61.364 34.8941C60.537 38.8169 58.5555 42.5116 55.62 45.5991C55.0339 46.2142 55.0709 47.1775 55.7003 47.75C56.3281 48.3213 57.3142 48.2882 57.902 47.6716C61.3094 44.0898 63.5835 39.7708 64.4826 35.1796C64.5196 34.9905 64.5196 34.7969 64.4826 34.6077Z" fill="white"/>
<path d="M22.4844 35.2382C22.4844 42.0952 28.0757 47.657 34.9729 47.657C41.8685 47.657 47.4598 42.0951 47.4598 35.2382C47.4599 28.3812 41.8686 22.8217 34.9729 22.8217C28.0757 22.8217 22.4844 28.3812 22.4844 35.2382ZM44.3394 35.2382C44.3394 40.3814 40.1463 44.5526 34.9729 44.5526C29.7996 44.5526 25.6048 40.3814 25.6048 35.2382C25.6048 30.0967 29.7995 25.9254 34.9729 25.9254C40.1463 25.9254 44.3394 30.0967 44.3394 35.2382Z" fill="white"/>
</svg>
