<svg width="24" height="24" viewBox="0 0 24 24" fill="none" xmlns="http://www.w3.org/2000/svg">
<rect width="24" height="24" fill="#E5E5E5"/>
<g id="Dashboard - Token-no information">
<rect width="1440" height="1886" transform="translate(-482 -286)" fill="white"/>
<g id="Frame 1000005321">
<g id="Frame 1000004988">
<g id="Frame 1000004975">
<g id="Frame 1000004972">
<g id="Frame 1000004968">
<g id="Frame 1000004967">
<g id="Frame 1000004965">
<g id="Frame 1513" opacity="0.4">
<rect x="-4" y="-4" width="32" height="32" rx="16" fill="white"/>
<g id="Group 1510">
<g id="Frame 713">
<g id="Livello x0020 1">
<path id="Vector" fill-rule="evenodd" clip-rule="evenodd" d="M20.954 6.72759C20.2924 7.01954 19.5826 7.21775 18.838 7.30614C19.5987 6.8508 20.1826 6.1276 20.4558 5.2678C19.7433 5.69101 18.9558 5.99636 18.1175 6.16242C17.4452 5.44726 16.4889 4.99995 15.4282 4.99995C13.3953 4.99995 11.7453 6.64991 11.7453 8.68289C11.7453 8.97217 11.7774 9.25341 11.8417 9.52126C8.78021 9.36859 6.06688 7.90077 4.25086 5.67226C3.9348 6.21599 3.75266 6.84812 3.75266 7.5231C3.75266 8.80075 4.40353 9.9284 5.3919 10.5873C4.78924 10.5686 4.2214 10.4025 3.7232 10.1266C3.7232 10.1427 3.7232 10.1561 3.7232 10.1721C3.7232 11.956 4.9928 13.4453 6.67758 13.7828C6.36955 13.8658 6.04278 13.9113 5.70796 13.9113C5.46958 13.9113 5.23923 13.8872 5.01423 13.8444C5.48297 15.3068 6.84365 16.3729 8.45343 16.4023C7.19185 17.3907 5.60618 17.98 3.87855 17.98C3.58123 17.98 3.28928 17.9612 3 17.9291C4.62853 18.9737 6.56509 19.5844 8.64628 19.5844C15.4202 19.5844 19.1246 13.9729 19.1246 9.1061C19.1246 8.94539 19.1219 8.78735 19.1139 8.62932C19.8344 8.10969 20.4585 7.4615 20.9513 6.72223L20.954 6.72759Z" fill="#0697F8"/>
</g>
</g>
</g>
<rect x="-4" y="-4" width="32" height="32" rx="16" stroke="#121212" stroke-opacity="0.2"/>
</g>
</g>
</g>
</g>
</g>
</g>
</g>
</g>
</g>
<rect id="Rectangle 22829" x="-10753" y="-3436" width="30909" height="16134" stroke="#696969" stroke-width="60"/>
</svg>
