<svg width="24" height="24" viewBox="0 0 24 24" fill="none" xmlns="http://www.w3.org/2000/svg">
<path fill-rule="evenodd" clip-rule="evenodd" d="M20.954 6.72763C20.2924 7.01959 19.5826 7.2178 18.838 7.30619C19.5987 6.85084 20.1826 6.12765 20.4558 5.26785C19.7433 5.69105 18.9558 5.9964 18.1175 6.16247C17.4452 5.44731 16.4889 5 15.4282 5C13.3953 5 11.7453 6.64996 11.7453 8.68294C11.7453 8.97222 11.7774 9.25346 11.8417 9.52131C8.78021 9.36864 6.06688 7.90082 4.25086 5.6723C3.9348 6.21604 3.75266 6.84817 3.75266 7.52315C3.75266 8.80079 4.40353 9.92844 5.3919 10.5874C4.78924 10.5686 4.2214 10.4025 3.7232 10.1267C3.7232 10.1427 3.7232 10.1561 3.7232 10.1722C3.7232 11.9561 4.9928 13.4453 6.67758 13.7828C6.36955 13.8658 6.04278 13.9114 5.70796 13.9114C5.46958 13.9114 5.23923 13.8873 5.01423 13.8444C5.48297 15.3069 6.84365 16.3729 8.45343 16.4024C7.19185 17.3907 5.60618 17.98 3.87855 17.98C3.58123 17.98 3.28928 17.9613 3 17.9291C4.62853 18.9737 6.56509 19.5844 8.64628 19.5844C15.4202 19.5844 19.1246 13.973 19.1246 9.10614C19.1246 8.94543 19.1219 8.7874 19.1139 8.62937C19.8344 8.10974 20.4585 7.46154 20.9513 6.72228L20.954 6.72763Z" fill="#0697F8"/>
</svg>
