<svg width="40" height="40" viewBox="0 0 40 40" fill="none" xmlns="http://www.w3.org/2000/svg">
<circle cx="20" cy="20.0001" r="20" fill="#4F75FB"/>
<g clip-path="url(#clip0_6830_203688)">
<circle cx="20" cy="20.0001" r="9.5" stroke="white"/>
<circle cx="20" cy="20.0001" r="9.5" stroke="white"/>
<path d="M11 20.0001H20H29M12 14.5001C12 14.5001 16 16.0001 20 16.0001C24 16.0001 28 14.5001 28 14.5001M27.5 26.0001C27.5 26.0001 24 24.0001 20 24.0001C16 24.0001 12.5 26.0001 12.5 26.0001" stroke="white"/>
<path d="M20 29.5001C20.6331 29.5001 21.1566 29.1147 21.5604 28.6023C21.9687 28.0842 22.3145 27.3656 22.5957 26.5222C23.1597 24.83 23.5 22.5241 23.5 20.0001C23.5 17.476 23.1597 15.1701 22.5957 13.478C22.3145 12.6345 21.9687 11.9159 21.5604 11.3979C21.1566 10.8854 20.6331 10.5001 20 10.5001C19.3669 10.5001 18.8434 10.8854 18.4396 11.3979C18.0313 11.9159 17.6855 12.6345 17.4043 13.478C16.8403 15.1701 16.5 17.476 16.5 20.0001C16.5 22.5241 16.8403 24.83 17.4043 26.5222C17.6855 27.3656 18.0313 28.0842 18.4396 28.6023C18.8434 29.1147 19.3669 29.5001 20 29.5001Z" stroke="white"/>
</g>
<defs>
<clipPath id="clip0_6830_203688">
<rect width="20" height="20" fill="white" transform="translate(10 10.0001)"/>
</clipPath>
</defs>
</svg>
