<svg width="22" height="10" viewBox="0 0 22 10" fill="none" xmlns="http://www.w3.org/2000/svg">
<g id="API">
<path id="Vector" d="M21.6299 0V10H19.8184V0H21.6299Z" fill="#121212"/>
<path id="Vector_2" d="M10.9695 10V0H14.7195C15.4877 0 16.1322 0.143229 16.6531 0.429688C17.1772 0.716146 17.5727 1.11003 17.8396 1.61133C18.1098 2.10937 18.2449 2.67578 18.2449 3.31055C18.2449 3.95182 18.1098 4.52148 17.8396 5.01953C17.5694 5.51758 17.1707 5.90983 16.6433 6.19629C16.116 6.47949 15.4666 6.62109 14.6951 6.62109H12.2097V5.13184H14.4509C14.9001 5.13184 15.268 5.05371 15.5544 4.89746C15.8409 4.74121 16.0525 4.52637 16.1892 4.25293C16.3292 3.97949 16.3992 3.66537 16.3992 3.31055C16.3992 2.95573 16.3292 2.64323 16.1892 2.37305C16.0525 2.10286 15.8393 1.8929 15.5496 1.74316C15.2631 1.59017 14.8936 1.51367 14.4412 1.51367H12.781V10H10.9695Z" fill="#121212"/>
<path id="Vector_3" d="M2.30371 10H0.370117L3.89063 0H6.12695L9.65234 10H7.71875L5.04785 2.05078H4.96973L2.30371 10ZM2.36719 6.0791H7.64062V7.53418H2.36719V6.0791Z" fill="#121212"/>
</g>
</svg>
