<svg width="34" height="34" viewBox="0 0 34 34" fill="none" xmlns="http://www.w3.org/2000/svg">
<rect x="1.09741" y="1.45898" width="32" height="32" rx="16" fill="white"/>
<path d="M23.1136 11.3543C21.9769 10.773 20.7743 10.3599 19.5377 10.126C19.3836 10.4304 19.2037 10.8398 19.0796 11.1655C17.7462 10.9464 16.4252 10.9464 15.1164 11.1655C14.9923 10.8399 14.8083 10.4304 14.6529 10.126C13.415 10.36 12.2114 10.7741 11.0741 11.3574C8.81104 15.0956 8.19754 18.7408 8.50426 22.3345C10.0053 23.5598 11.4599 24.3041 12.8901 24.7912C13.2455 24.2569 13.5597 23.6913 13.8294 23.1001C13.3159 22.8864 12.8209 22.6231 12.3502 22.3132C12.4741 22.2129 12.595 22.1083 12.7129 21.9996C15.5649 23.4578 18.6638 23.4578 21.4818 21.9996C21.6001 22.1076 21.721 22.2121 21.8444 22.3132C21.3729 22.6239 20.877 22.8877 20.3625 23.1016C20.6337 23.6952 20.9474 24.2614 21.3018 24.7926C22.7333 24.3057 24.1893 23.5613 25.6903 22.3345C26.0503 18.1686 25.0755 14.5568 23.1136 11.3543ZM14.218 20.1245C13.3618 20.1245 12.6597 19.2508 12.6597 18.1869C12.6597 17.123 13.3468 16.2478 14.218 16.2478C15.0892 16.2478 15.7912 17.1214 15.7763 18.1869C15.7776 19.2508 15.0892 20.1245 14.218 20.1245ZM19.9766 20.1245C19.1204 20.1245 18.4184 19.2508 18.4184 18.1869C18.4184 17.123 19.1055 16.2478 19.9766 16.2478C20.8478 16.2478 21.5499 17.1214 21.5349 18.1869C21.5349 19.2508 20.8478 20.1245 19.9766 20.1245Z" fill="black"/>
<rect x="1.09741" y="1.45898" width="32" height="32" rx="16" stroke="#121212" stroke-opacity="0.2"/>
</svg>
