<svg width="18" height="18" viewBox="0 0 18 18" fill="none" xmlns="http://www.w3.org/2000/svg">
<path id="Vector" d="M8.99954 2.45342e-07C4.58594 -0.000582622 0.823536 3.28255 0.11689 7.75112C-0.589765 12.2198 1.96799 16.5544 6.15551 17.9847C6.60651 18.068 6.76797 17.7839 6.76797 17.5397C6.76797 17.3204 6.76076 16.7394 6.75805 15.9669C4.25497 16.522 3.72639 14.729 3.72639 14.729C3.5616 14.1711 3.20734 13.6921 2.72786 13.3791C1.91605 12.8064 2.7901 12.8194 2.7901 12.8194C3.36799 12.9006 3.87662 13.2519 4.16747 13.7705C4.41366 14.2297 4.82842 14.5689 5.31961 14.7129C5.8108 14.8569 6.33772 14.7937 6.78331 14.5375C6.82518 14.0693 7.02823 13.6318 7.35607 13.3033C5.35903 13.071 3.25914 12.2791 3.25914 8.74209C3.24806 7.82727 3.57926 6.94288 4.18461 6.27092C3.91071 5.47462 3.94297 4.60119 4.27481 3.82842C4.27481 3.82842 5.02979 3.57955 6.74813 4.77304C8.22191 4.35857 9.77725 4.35857 11.251 4.77304C12.9702 3.57862 13.7243 3.82842 13.7243 3.82842C14.0577 4.60083 14.09 5.47486 13.8145 6.27092C14.4221 6.94282 14.753 7.82949 14.7381 8.74579C14.7381 12.292 12.6365 13.071 10.6322 13.2996C11.0645 13.753 11.2863 14.3749 11.241 15.0075C11.241 16.2417 11.2302 17.2372 11.2302 17.5397C11.2302 17.7867 11.3908 18.0735 11.8499 17.9829C16.0357 16.5501 18.5907 12.2152 17.8826 7.74779C17.1745 3.28039 13.4123 -0.00103596 8.99954 2.45342e-07Z" fill="#121212"/>
</svg>
