<svg width="34" height="34" viewBox="0 0 34 34" fill="none" xmlns="http://www.w3.org/2000/svg">
<rect x="1" y="1" width="32" height="32" rx="16" fill="white"/>
<rect x="1" y="1" width="32" height="32" rx="16" fill="white" stroke="#121212" stroke-opacity="0.2"/>
<mask id="mask0_9225_275912" style="mask-type:alpha" maskUnits="userSpaceOnUse" x="9" y="9" width="16" height="16">
<path fill-rule="evenodd" clip-rule="evenodd" d="M17.0047 9C14.8315 9 14.5595 9.00938 13.7059 9.04688C12.8554 9.08439 12.2707 9.22192 11.7641 9.41883C11.2357 9.62512 10.7885 9.89705 10.3445 10.344C9.8974 10.7878 9.62537 11.2348 9.419 11.7599C9.22201 12.2694 9.08442 12.8508 9.0469 13.7009C9.00938 14.5573 9 14.8293 9 17.0016C9 19.1739 9.00938 19.4458 9.0469 20.2991C9.08442 21.1492 9.22201 21.7337 9.419 22.2401C9.62537 22.7683 9.8974 23.2153 10.3445 23.6591C10.7885 24.103 11.2357 24.378 11.761 24.5812C12.2707 24.7781 12.8523 24.9156 13.7028 24.9531C14.5564 24.9906 14.8284 25 17.0016 25C19.1747 25 19.4467 24.9906 20.3004 24.9531C21.1509 24.9156 21.7356 24.7781 22.2421 24.5812C22.7674 24.378 23.2146 24.103 23.6586 23.6591C24.1026 23.2153 24.3778 22.7683 24.581 22.2432C24.778 21.7337 24.9156 21.1524 24.9531 20.3022C24.9906 19.4489 25 19.177 25 17.0047C25 14.8324 24.9906 14.5605 24.9531 13.7072C24.9156 12.857 24.778 12.2725 24.581 11.7662C24.384 11.2348 24.112 10.7878 23.6648 10.344C23.2208 9.90018 22.7737 9.62512 22.2484 9.42196C21.7387 9.22504 21.1571 9.08752 20.3066 9.05001C19.4499 9.00938 19.1778 9 17.0047 9ZM22.2441 12.7286C22.2441 13.26 21.8126 13.6882 21.2842 13.6882C20.7526 13.6882 20.3242 13.2568 20.3242 12.7286C20.3242 12.1973 20.7557 11.769 21.2842 11.769C21.8126 11.769 22.2441 12.2004 22.2441 12.7286ZM12.8945 17.0013C12.8945 14.7321 14.7362 12.8911 17.0063 12.8911C19.2764 12.8911 21.1181 14.7321 21.1181 17.0013C21.1181 19.2705 19.2764 21.1115 17.0063 21.1115C14.7362 21.1115 12.8945 19.2705 12.8945 17.0013ZM14.3391 17.0013C14.3391 18.4735 15.5336 19.6674 17.0063 19.6674C18.4791 19.6674 19.6735 18.4735 19.6735 17.0013C19.6735 15.5291 18.4791 14.3351 17.0063 14.3351C15.5336 14.3351 14.3391 15.5291 14.3391 17.0013Z" fill="black"/>
</mask>
<g mask="url(#mask0_9225_275912)">
<ellipse cx="17.3374" cy="16.6668" rx="10.3374" ry="10.3333" fill="url(#paint0_linear_9225_275912)"/>
</g>
<defs>
<linearGradient id="paint0_linear_9225_275912" x1="17.3374" y1="37.3335" x2="38.004" y2="16.6588" gradientUnits="userSpaceOnUse">
<stop stop-color="#FFD522"/>
<stop offset="0.497382" stop-color="#F1000B"/>
<stop offset="1" stop-color="#B900B3"/>
</linearGradient>
</defs>
</svg>
