<svg width="18" height="14" viewBox="0 0 18 14" fill="none" xmlns="http://www.w3.org/2000/svg">
<path id="telegram-1" fill-rule="evenodd" clip-rule="evenodd" d="M13.788 13.8454C14.0295 14.005 14.3407 14.0449 14.6182 13.9469C14.8957 13.8482 15.0997 13.627 15.1612 13.3589C15.8129 10.5001 17.3939 3.26421 17.9871 0.663705C18.0321 0.467704 17.9571 0.264004 17.7921 0.133104C17.6271 0.00220375 17.3984 -0.0355963 17.1944 0.0351038C14.0497 1.12151 4.3652 4.51301 0.406789 5.88011C0.155545 5.96691 -0.00795143 6.19231 0.000298383 6.43941C0.00929818 6.68721 0.187794 6.90211 0.445038 6.97421C2.22025 7.46981 4.55044 8.15931 4.55044 8.15931C4.55044 8.15931 5.63942 11.2288 6.20716 12.7898C6.27841 12.9858 6.44265 13.1398 6.6594 13.193C6.87539 13.2455 7.10639 13.1902 7.26763 13.0481C8.17961 12.2445 9.58958 11.002 9.58958 11.002C9.58958 11.002 12.2685 12.8353 13.788 13.8454ZM5.52832 7.77014L6.78754 11.6467L7.06729 9.19184C7.06729 9.19184 11.9324 5.09614 14.7059 2.76163C14.7869 2.69303 14.7981 2.57823 14.7306 2.49773C14.6639 2.41723 14.5409 2.39833 14.4486 2.45293C11.2342 4.36884 5.52832 7.77014 5.52832 7.77014Z" fill="#121212"/>
</svg>
