<svg width="34" height="34" viewBox="0 0 34 34" fill="none" xmlns="http://www.w3.org/2000/svg">
<rect x="1.09741" y="1.45898" width="32" height="32" rx="16" fill="white"/>
<path d="M9.39901 16.486C13.9344 14.5104 16.958 13.2079 18.4698 12.5786C22.7913 10.7817 23.6881 10.4696 24.2739 10.4591C24.4027 10.457 24.6895 10.4889 24.8767 10.6402C25.0322 10.7678 25.076 10.9403 25.0979 11.0615C25.1173 11.1825 25.144 11.4584 25.1222 11.6737C24.8888 14.1334 23.8753 20.1024 23.36 22.8574C23.1437 24.0231 22.7135 24.4139 22.2979 24.452C21.3937 24.5352 20.7083 23.8551 19.8333 23.2817C18.4649 22.3841 17.692 21.8256 16.3625 20.9499C14.8264 19.9378 15.8229 19.3815 16.6979 18.4724C16.9264 18.2345 20.9076 14.6142 20.983 14.2858C20.9927 14.2448 21.0024 14.0916 20.91 14.0109C20.8201 13.93 20.6864 13.9577 20.5892 13.9796C20.4507 14.0107 18.2656 15.4564 14.0268 18.3164C13.407 18.7427 12.8455 18.9505 12.34 18.9396C11.7858 18.9277 10.7164 18.6256 9.92158 18.3674C8.94936 18.0507 8.17402 17.8833 8.24208 17.3454C8.2761 17.0654 8.66256 16.7788 9.39901 16.486Z" fill="#2AABEE"/>
<rect x="1.09741" y="1.45898" width="32" height="32" rx="16" stroke="#121212" stroke-opacity="0.2"/>
</svg>
