<svg width="18" height="14" viewBox="0 0 18 14" fill="none" xmlns="http://www.w3.org/2000/svg">
<path id="Shape" fill-rule="evenodd" clip-rule="evenodd" d="M15.8796 2.21335C16.6424 1.77654 17.2277 1.08392 17.5024 0.258847C16.7882 0.664307 15.9989 0.957533 15.1569 1.11628C14.4849 0.428716 13.5246 0 12.4617 0C10.4226 0 8.77021 1.58241 8.77021 3.53387C8.77021 3.81092 8.80085 4.08089 8.86424 4.33873C5.79609 4.1911 3.07554 2.78564 1.25304 0.646107C0.935024 1.16987 0.753302 1.77654 0.753302 2.42366C0.753302 3.64914 1.40518 4.73104 2.3962 5.36603C1.79081 5.34783 1.22134 5.18706 0.722662 4.92417V4.96764C0.722662 6.68048 1.99472 8.1092 3.68621 8.43276C3.37559 8.51567 3.05018 8.55713 2.7121 8.55713C2.47438 8.55713 2.24194 8.53589 2.01796 8.49444C2.48706 9.89788 3.85103 10.9211 5.46751 10.9484C4.20285 11.8969 2.61067 12.4611 0.881141 12.4611C0.583201 12.4611 0.288431 12.4459 0 12.4125C1.63444 13.4146 3.57528 14 5.66086 14C12.4543 14 16.1669 8.61476 16.1669 3.94439C16.1669 3.7907 16.1648 3.63802 16.1574 3.48736C16.879 2.98888 17.5066 2.36603 18 1.65723C17.3376 1.93832 16.6255 2.12841 15.8796 2.21335Z" fill="#121212"/>
</svg>
