<svg width="25" height="20" viewBox="0 0 25 20" fill="none" xmlns="http://www.w3.org/2000/svg">
<path d="M21.0397 2.41048C21.033 2.39755 21.022 2.38742 21.0085 2.3819C19.4524 1.66797 17.8104 1.15888 16.1233 0.867368C16.108 0.864519 16.0922 0.866574 16.0781 0.873243C16.064 0.879911 16.0524 0.890852 16.0448 0.904511C15.8212 1.31034 15.6183 1.7272 15.4367 2.1535C13.6182 1.87745 11.7684 1.87745 9.94988 2.1535C9.7671 1.72612 9.56086 1.30916 9.33213 0.904511C9.32428 0.891149 9.31259 0.88046 9.29858 0.873835C9.28458 0.86721 9.2689 0.864956 9.25359 0.867368C7.5664 1.15826 5.9242 1.66739 4.36835 2.38195C4.35503 2.38759 4.3438 2.39723 4.33619 2.40954C1.22479 7.056 0.372461 11.5882 0.790585 16.0643C0.791761 16.0753 0.795131 16.0859 0.800495 16.0956C0.80586 16.1052 0.813108 16.1137 0.821809 16.1204C2.63355 17.4619 4.66 18.4858 6.81469 19.1486C6.82986 19.1531 6.84607 19.1529 6.86112 19.148C6.87617 19.1431 6.88935 19.1336 6.89889 19.121C7.36167 18.4913 7.77173 17.8245 8.1249 17.1274C8.12975 17.1179 8.13252 17.1074 8.13303 17.0967C8.13353 17.0859 8.13176 17.0752 8.12783 17.0653C8.1239 17.0553 8.1179 17.0462 8.11023 17.0388C8.10255 17.0313 8.09338 17.0255 8.0833 17.0218C7.43667 16.7744 6.81066 16.4761 6.21113 16.1298C6.20024 16.1234 6.1911 16.1144 6.1845 16.1037C6.17791 16.0929 6.17407 16.0807 6.17332 16.068C6.17257 16.0554 6.17495 16.0428 6.18022 16.0314C6.1855 16.0199 6.19352 16.0099 6.20358 16.0022C6.32974 15.908 6.4537 15.8109 6.57538 15.7109C6.58605 15.7021 6.59897 15.6965 6.61267 15.6947C6.62637 15.6928 6.64031 15.6948 6.65293 15.7005C10.5807 17.493 14.833 17.493 18.7142 15.7005C18.7268 15.6945 18.7409 15.6922 18.7548 15.6939C18.7687 15.6955 18.7819 15.7011 18.7927 15.71C18.9145 15.8105 19.0388 15.9079 19.1655 16.0022C19.1756 16.0098 19.1837 16.0197 19.189 16.0312C19.1944 16.0426 19.1969 16.0552 19.1962 16.0678C19.1956 16.0804 19.1918 16.0927 19.1853 16.1035C19.1788 16.1143 19.1697 16.1234 19.1589 16.1298C18.5607 16.479 17.9341 16.7771 17.2858 17.0209C17.2757 17.0247 17.2666 17.0306 17.2589 17.0382C17.2513 17.0458 17.2454 17.0549 17.2415 17.065C17.2377 17.0751 17.236 17.0858 17.2366 17.0966C17.2372 17.1073 17.24 17.1178 17.245 17.1274C17.604 17.8206 18.0135 18.4866 18.47 19.1199C18.4793 19.1329 18.4924 19.1426 18.5075 19.1477C18.5226 19.1529 18.539 19.1531 18.5542 19.1485C20.7128 18.488 22.7428 17.4639 24.5568 16.1204C24.5656 16.114 24.573 16.1057 24.5784 16.0962C24.5837 16.0867 24.587 16.0761 24.588 16.0653C25.0886 10.8904 23.75 6.39535 21.0397 2.41048ZM8.71147 13.3388C7.52893 13.3388 6.55456 12.2537 6.55456 10.9209C6.55456 9.58817 7.51004 8.50291 8.71147 8.50291C9.92229 8.50291 10.8872 9.5976 10.8683 10.9208C10.8683 12.2537 9.91282 13.3388 8.71147 13.3388ZM16.6862 13.3388C15.5037 13.3388 14.5293 12.2537 14.5293 10.9209C14.5293 9.58817 15.4848 8.50291 16.6862 8.50291C17.8971 8.50291 18.862 9.5976 18.8431 10.9208C18.8431 12.2537 17.8971 13.3388 16.6862 13.3388Z" fill="#2C4ACC"/>
</svg>
