<svg width="25" height="19" viewBox="0 0 25 19" fill="none" xmlns="http://www.w3.org/2000/svg">
<path opacity="0.5" d="M20.5615 1.64183C20.5549 1.6289 20.5438 1.61878 20.5303 1.61326C18.9743 0.899322 17.3322 0.39023 15.6452 0.0987219C15.6299 0.0958724 15.614 0.0979281 15.5999 0.104596C15.5858 0.111265 15.5742 0.122206 15.5667 0.135865C15.3431 0.541699 15.1401 0.958557 14.9585 1.38485C13.14 1.1088 11.2902 1.1088 9.47173 1.38485C9.28895 0.957474 9.08271 0.540512 8.85398 0.135865C8.84613 0.122503 8.83444 0.111814 8.82044 0.105189C8.80643 0.0985635 8.79075 0.0963101 8.77544 0.0987219C7.08825 0.389618 5.44606 0.898748 3.8902 1.6133C3.87688 1.61895 3.86565 1.62859 3.85804 1.64089C0.746641 6.28736 -0.105689 10.8196 0.312435 15.2957C0.313611 15.3066 0.316982 15.3173 0.322346 15.3269C0.32771 15.3365 0.334958 15.345 0.34366 15.3518C2.1554 16.6933 4.18185 17.7172 6.33654 18.3799C6.35171 18.3845 6.36792 18.3843 6.38297 18.3793C6.39802 18.3744 6.4112 18.365 6.42074 18.3523C6.88352 17.7227 7.29358 17.0559 7.64675 16.3588C7.6516 16.3492 7.65437 16.3387 7.65488 16.328C7.65538 16.3173 7.65361 16.3066 7.64968 16.2966C7.64575 16.2866 7.63975 16.2776 7.63208 16.2701C7.6244 16.2626 7.61523 16.2568 7.60515 16.2531C6.95852 16.0057 6.33251 15.7075 5.73299 15.3612C5.72209 15.3548 5.71295 15.3458 5.70635 15.335C5.69976 15.3242 5.69592 15.312 5.69517 15.2994C5.69443 15.2868 5.6968 15.2742 5.70207 15.2627C5.70735 15.2512 5.71537 15.2412 5.72543 15.2336C5.85159 15.1394 5.97555 15.0422 6.09723 14.9423C6.1079 14.9335 6.12082 14.9279 6.13452 14.926C6.14822 14.9242 6.16217 14.9262 6.17478 14.9318C10.1025 16.7244 14.3548 16.7244 18.236 14.9318C18.2487 14.9258 18.2628 14.9235 18.2767 14.9252C18.2906 14.9269 18.3037 14.9325 18.3146 14.9413C18.4364 15.0418 18.5607 15.1393 18.6873 15.2336C18.6974 15.2412 18.7055 15.2511 18.7109 15.2625C18.7162 15.274 18.7187 15.2865 18.7181 15.2992C18.7174 15.3118 18.7137 15.324 18.7071 15.3348C18.7006 15.3457 18.6915 15.3547 18.6807 15.3612C18.0825 15.7104 17.456 16.0085 16.8076 16.2522C16.7976 16.256 16.7884 16.262 16.7808 16.2696C16.7732 16.2772 16.7672 16.2863 16.7634 16.2964C16.7595 16.3064 16.7578 16.3172 16.7584 16.3279C16.759 16.3387 16.7619 16.3492 16.7668 16.3588C17.1259 17.052 17.5354 17.7179 17.9919 18.3512C18.0012 18.3642 18.0143 18.374 18.0294 18.3791C18.0445 18.3842 18.0608 18.3845 18.0761 18.3798C20.2346 17.7193 22.2646 16.6953 24.0786 15.3518C24.0875 15.3454 24.0948 15.3371 24.1002 15.3276C24.1056 15.3181 24.1089 15.3075 24.1099 15.2966C24.6104 10.1218 23.2718 5.6267 20.5615 1.64183ZM8.23332 12.5702C7.05079 12.5702 6.07642 11.485 6.07642 10.1523C6.07642 8.81953 7.03189 7.73426 8.23332 7.73426C9.44414 7.73426 10.4091 8.82896 10.3902 10.1522C10.3902 11.485 9.43467 12.5702 8.23332 12.5702ZM16.208 12.5702C15.0255 12.5702 14.0512 11.485 14.0512 10.1523C14.0512 8.81953 15.0066 7.73426 16.208 7.73426C17.4189 7.73426 18.3838 8.82896 18.3649 10.1522C18.3649 11.485 17.4189 12.5702 16.208 12.5702Z" fill="white"/>
</svg>
