<svg width="124" height="21" viewBox="0 0 124 21" fill="none" xmlns="http://www.w3.org/2000/svg">
<path d="M20.4246 7.2625C20.4246 9.01346 20.0798 10.7473 19.4097 12.3649C18.7396 13.9826 17.7575 15.4525 16.5194 16.6906C15.2813 17.9287 13.8114 18.9108 12.1938 19.5809C10.5761 20.251 8.84227 20.5958 7.09131 20.5958L7.09131 13.9292C7.96679 13.9292 8.83369 13.7567 9.64253 13.4217C10.4514 13.0867 11.1863 12.5956 11.8054 11.9765C12.4244 11.3575 12.9155 10.6226 13.2505 9.81372C13.5855 9.00488 13.758 8.13798 13.758 7.2625L20.4246 7.2625Z" fill="#01D5E2"/>
<rect width="6.66667" height="6.66667" transform="matrix(-1 0 0 1 7.09131 7.2625)" fill="white"/>
<rect width="6.66667" height="6.66667" transform="matrix(-1 0 0 1 13.7578 0.595825)" fill="white"/>
<path d="M31.6746 15.8436V5.59583H34.6025V7.05979H36.0665V8.52375H37.5304V9.98772H38.9944V5.59583H41.9223V15.8436H38.9944V12.9156H37.5304V11.4517H36.0665V9.98772H34.6025V15.8436H31.6746Z" fill="white"/>
<path d="M44.8502 15.8436V14.3796H43.3863V12.9156H44.8502V11.4517H50.7061V9.98772H44.8502V8.52375H52.1701V9.98772H53.634V15.8436H44.8502ZM46.3142 14.3796H50.7061V12.9156H46.3142V14.3796Z" fill="white"/>
<path d="M56.5619 15.8436V14.3796H55.098V8.52375H58.0259V14.3796H62.4178V8.52375H65.3457V15.8436H56.5619Z" fill="white"/>
<path d="M71.2016 15.8436V9.98772H68.2737V8.52375H71.2016V5.59583H74.1295V8.52375H77.0574V9.98772H74.1295V15.8436H71.2016Z" fill="white"/>
<path d="M82.9133 7.05979V5.59583H85.8412V7.05979H82.9133ZM79.9854 15.8436V14.3796H82.9133V9.98772H81.4493V8.52375H85.8412V14.3796H88.7692V15.8436H79.9854Z" fill="white"/>
<path d="M91.6971 15.8436V14.3796H94.625V7.05979H93.161V5.59583H97.5529V14.3796H100.481V15.8436H91.6971Z" fill="white"/>
<path d="M103.409 15.8436V14.3796H101.945V8.52375H104.873V14.3796H109.265V8.52375H112.193V15.8436H103.409Z" fill="white"/>
<path d="M113.657 15.8436V14.3796H120.976V12.9156H115.12V11.4517H113.657V9.98772H115.12V8.52375H122.44V9.98772H116.584V11.4517H122.44V12.9156H123.904V14.3796H122.44V15.8436H113.657Z" fill="white"/>
</svg>
