<svg width="108" height="21" viewBox="0 0 108 21" fill="none" xmlns="http://www.w3.org/2000/svg">
<path d="M7.76978 0.708642C6.48375 1.16114 5.7931 2.51861 5.76929 4.54292C5.76929 5.61462 6.53138 6.78157 7.36492 6.99591C8.43661 7.2817 19.2012 8.35339 20.8683 8.35339C23.1307 8.35339 24.1548 5.92422 22.5592 4.37622C22.0828 3.92372 20.9635 3.59031 14.4143 1.94704C8.7224 0.494304 8.48424 0.470488 7.76978 0.708642ZM11.747 2.92348C14.4381 3.56649 17.7723 4.42385 20.1776 5.06686C21.7494 5.49554 22.0829 5.85277 21.5113 6.54342L21.2731 6.82921L20.511 6.78157C14.8191 6.3529 7.98412 5.56699 7.72215 5.30502C7.10295 4.73345 7.41255 2.61388 8.15083 2.30428C8.48425 2.11375 8.34135 2.08994 11.747 2.92348Z" fill="#59D89D"/>
<path d="M7.76978 0.708642C6.48375 1.16114 5.7931 2.51861 5.76929 4.54292C5.76929 5.61462 6.53138 6.78157 7.36492 6.99591C8.43661 7.2817 19.2012 8.35339 20.8683 8.35339C23.1307 8.35339 24.1548 5.92422 22.5592 4.37622C22.0828 3.92372 20.9635 3.59031 14.4143 1.94704C8.7224 0.494304 8.48424 0.470488 7.76978 0.708642ZM11.747 2.92348C14.4381 3.56649 17.7723 4.42385 20.1776 5.06686C21.7494 5.49554 22.0829 5.85277 21.5113 6.54342L21.2731 6.82921L20.511 6.78157C14.8191 6.3529 7.98412 5.56699 7.72215 5.30502C7.10295 4.73345 7.41255 2.61388 8.15083 2.30428C8.48425 2.11375 8.34135 2.08994 11.747 2.92348Z" fill="#59D89D"/>
<path d="M7.76978 0.708642C6.48375 1.16114 5.7931 2.51861 5.76929 4.54292C5.76929 5.61462 6.53138 6.78157 7.36492 6.99591C8.43661 7.2817 19.2012 8.35339 20.8683 8.35339C23.1307 8.35339 24.1548 5.92422 22.5592 4.37622C22.0828 3.92372 20.9635 3.59031 14.4143 1.94704C8.7224 0.494304 8.48424 0.470488 7.76978 0.708642ZM11.747 2.92348C14.4381 3.56649 17.7723 4.42385 20.1776 5.06686C21.7494 5.49554 22.0829 5.85277 21.5113 6.54342L21.2731 6.82921L20.511 6.78157C14.8191 6.3529 7.98412 5.56699 7.72215 5.30502C7.10295 4.73345 7.41255 2.61388 8.15083 2.30428C8.48425 2.11375 8.34135 2.08994 11.747 2.92348Z" fill="#59D89D"/>
<path d="M3.12581 8.35342C1.22057 8.59157 -0.0892752 11.0684 0.76808 12.7593C1.14913 13.5214 7.50784 19.7848 8.31757 20.1897C9.05585 20.5707 9.38926 20.5945 15.6527 20.5945C23.1546 20.5945 22.6306 20.7136 24.2025 18.6655C27.3223 14.5931 27.7271 13.7119 27.1556 12.1877C26.4649 10.3539 26.0362 10.211 20.1062 9.68708C14.8192 9.23459 5.41209 8.42486 4.76907 8.37723C4.36421 8.35342 3.95935 8.30579 3.86408 8.30579C3.76882 8.30579 3.43541 8.30579 3.12581 8.35342ZM7.48403 10.2348C9.24637 10.3777 11.2231 10.5444 11.9137 10.5921C18.3439 11.0922 24.6311 11.7352 25.0836 11.9495C25.6314 12.2115 25.9172 13.307 25.6076 13.95C25.1551 14.855 22.2258 18.6893 21.8447 18.8798C21.5351 19.0227 12.1519 19.118 10.3181 18.9751L9.07966 18.8798L8.43665 18.2606C8.10323 17.9034 6.6743 16.5697 5.29301 15.2599C2.38753 12.4973 2.10174 12.1639 2.10174 11.6399C2.10174 10.4968 2.81621 9.82997 3.8879 9.92523C4.12605 9.94905 5.7455 10.0681 7.48403 10.2348Z" fill="#59D89D"/>
<path d="M3.12581 8.35342C1.22057 8.59157 -0.0892752 11.0684 0.76808 12.7593C1.14913 13.5214 7.50784 19.7848 8.31757 20.1897C9.05585 20.5707 9.38926 20.5945 15.6527 20.5945C23.1546 20.5945 22.6306 20.7136 24.2025 18.6655C27.3223 14.5931 27.7271 13.7119 27.1556 12.1877C26.4649 10.3539 26.0362 10.211 20.1062 9.68708C14.8192 9.23459 5.41209 8.42486 4.76907 8.37723C4.36421 8.35342 3.95935 8.30579 3.86408 8.30579C3.76882 8.30579 3.43541 8.30579 3.12581 8.35342ZM7.48403 10.2348C9.24637 10.3777 11.2231 10.5444 11.9137 10.5921C18.3439 11.0922 24.6311 11.7352 25.0836 11.9495C25.6314 12.2115 25.9172 13.307 25.6076 13.95C25.1551 14.855 22.2258 18.6893 21.8447 18.8798C21.5351 19.0227 12.1519 19.118 10.3181 18.9751L9.07966 18.8798L8.43665 18.2606C8.10323 17.9034 6.6743 16.5697 5.29301 15.2599C2.38753 12.4973 2.10174 12.1639 2.10174 11.6399C2.10174 10.4968 2.81621 9.82997 3.8879 9.92523C4.12605 9.94905 5.7455 10.0681 7.48403 10.2348Z" fill="#59D89D"/>
<path d="M3.12581 8.35342C1.22057 8.59157 -0.0892752 11.0684 0.76808 12.7593C1.14913 13.5214 7.50784 19.7848 8.31757 20.1897C9.05585 20.5707 9.38926 20.5945 15.6527 20.5945C23.1546 20.5945 22.6306 20.7136 24.2025 18.6655C27.3223 14.5931 27.7271 13.7119 27.1556 12.1877C26.4649 10.3539 26.0362 10.211 20.1062 9.68708C14.8192 9.23459 5.41209 8.42486 4.76907 8.37723C4.36421 8.35342 3.95935 8.30579 3.86408 8.30579C3.76882 8.30579 3.43541 8.30579 3.12581 8.35342ZM7.48403 10.2348C9.24637 10.3777 11.2231 10.5444 11.9137 10.5921C18.3439 11.0922 24.6311 11.7352 25.0836 11.9495C25.6314 12.2115 25.9172 13.307 25.6076 13.95C25.1551 14.855 22.2258 18.6893 21.8447 18.8798C21.5351 19.0227 12.1519 19.118 10.3181 18.9751L9.07966 18.8798L8.43665 18.2606C8.10323 17.9034 6.6743 16.5697 5.29301 15.2599C2.38753 12.4973 2.10174 12.1639 2.10174 11.6399C2.10174 10.4968 2.81621 9.82997 3.8879 9.92523C4.12605 9.94905 5.7455 10.0681 7.48403 10.2348Z" fill="#59D89D"/>
<path d="M34.6573 14.1644L39.1823 8.04381H34.8479V6.35292H41.6829V7.7104L37.2532 13.7833H41.8258V15.4742H34.6812V14.1644H34.6573Z" fill="white"/>
<path d="M49.3276 12.7116H44.2787C44.493 13.5213 45.0884 14.1405 46.2316 14.1405C46.9698 14.1405 47.8272 13.8547 48.3988 13.4737L49.0894 14.6883C48.4464 15.1646 47.3985 15.6171 46.1601 15.6171C43.6357 15.6171 42.5164 13.9024 42.5164 12.0924C42.5164 10.0919 43.9215 8.5677 46.0172 8.5677C47.9225 8.5677 49.3752 9.80611 49.3752 11.9495C49.399 12.2115 49.3752 12.4734 49.3276 12.7116ZM44.2787 11.4256H47.6843C47.5176 10.5682 46.8984 10.0204 46.0172 10.0204C45.1361 10.0204 44.493 10.5444 44.2787 11.4256Z" fill="white"/>
<path d="M57.7343 12.1162C57.7343 14.1167 56.2816 15.6409 54.3764 15.6409C53.4238 15.6409 52.7569 15.2122 52.2806 14.6407V15.4742H50.5897V6.09093H52.3282V9.52035C52.8046 8.97259 53.4476 8.56773 54.3764 8.56773C56.2816 8.56773 57.7343 10.0919 57.7343 12.1162ZM55.9482 12.0924C55.9482 11.0207 55.2099 10.1634 54.0906 10.1634C52.9713 10.1634 52.233 11.0445 52.233 12.0924C52.233 13.1641 52.9713 14.0215 54.0906 14.0215C55.2099 14.0453 55.9482 13.1641 55.9482 12.0924Z" fill="white"/>
<path d="M65.403 12.7116H60.3541C60.5685 13.5213 61.1639 14.1405 62.307 14.1405C63.0453 14.1405 63.9026 13.8547 64.4742 13.4737L65.1649 14.6883C64.5218 15.1646 63.474 15.6171 62.2356 15.6171C59.7111 15.6171 58.5918 13.9024 58.5918 12.0924C58.5918 10.0919 59.9969 8.5677 62.0927 8.5677C63.9979 8.5677 65.4506 9.80611 65.4506 11.9495C65.4745 12.2115 65.4506 12.4734 65.403 12.7116ZM60.378 11.4256H63.7836C63.6168 10.5682 62.9976 10.0204 62.1165 10.0204C61.2353 10.0204 60.5685 10.5444 60.378 11.4256Z" fill="white"/>
<path d="M66.308 12.0924C66.308 10.0443 67.7845 8.5677 69.9279 8.5677C71.2616 8.5677 72.5 9.21072 73.0716 10.4491L71.6665 11.2112C71.2854 10.592 70.6662 10.1872 69.9517 10.1872C68.8562 10.1872 68.0465 11.0207 68.0465 12.0924C68.0465 13.1879 68.8562 14.0214 69.9279 14.0214C70.6424 14.0214 71.3569 13.5928 71.6426 13.0212L73.0478 13.8547C72.4762 14.9264 71.2854 15.6409 69.8803 15.6409C67.7845 15.6171 66.308 14.1405 66.308 12.0924Z" fill="white"/>
<path fill-rule="evenodd" clip-rule="evenodd" d="M78.8992 15.7909H85.4002V14.0869H80.7592V6.39091H78.8992V15.7909ZM79.0492 15.6409H79.0492V6.54091H80.6092V6.54091H79.0492V15.6409ZM89.0999 8.56057C87.5866 8.69591 86.494 9.5971 86.2963 10.8629C86.2886 10.9124 86.2822 10.9624 86.2773 11.0129L86.2773 11.0129C86.4094 9.6687 87.5275 8.70122 89.0999 8.56057ZM89.4753 9.8039C89.4874 9.8039 89.4994 9.80399 89.5114 9.80415C90.3734 9.81602 90.8795 10.2551 90.8923 10.9219C90.8803 11.4266 90.2241 11.4981 89.3036 11.5984L89.3035 11.5984M88.4434 15.775C87.0224 15.686 86.1091 14.9364 86.1213 13.7299C86.1343 12.1179 87.7333 11.7799 89.0723 11.6239C89.1502 11.6151 89.2266 11.6068 89.3012 11.5987L89.3021 11.5986L89.3035 11.5984L89.3035 11.5984M88.7343 15.7839C88.7343 15.7839 88.7343 15.7839 88.7343 15.7839C89.9043 15.7839 90.6583 15.3419 91.0613 14.601C91.0613 14.601 91.0613 14.6009 91.0613 14.6009C91.0269 14.6641 90.9899 14.7252 90.9504 14.7839C90.5266 15.4141 89.8044 15.7839 88.7343 15.7839ZM93.1023 15.6409H93.1023V14.4449L93.1023 14.4449V15.6409ZM92.6501 14.4408C92.4689 14.4199 92.3873 14.3186 92.3873 14.1459V11.0259C92.3873 9.6487 91.4847 8.67141 89.84 8.55465C91.4846 8.67143 92.3873 9.64872 92.3873 11.0259V14.1459C92.3873 14.3186 92.4689 14.4199 92.6501 14.4408ZM90.4163 10.2262C90.6205 10.3907 90.7357 10.626 90.7422 10.9214C90.7393 11.0158 90.7063 11.0809 90.6474 11.1348C90.5823 11.1944 90.4783 11.246 90.3261 11.2896C90.0651 11.3643 89.7139 11.4027 89.29 11.449C89.2141 11.4573 89.1359 11.4658 89.0555 11.4748L89.0549 11.4749C88.3849 11.553 87.6248 11.6785 87.0285 11.9988C86.728 12.1602 86.464 12.3736 86.2745 12.6599C86.0843 12.9472 85.9748 13.2995 85.9713 13.7285C85.9644 14.4174 86.2414 14.976 86.7365 15.3582C87.227 15.737 87.9192 15.9339 88.7343 15.9339C89.7903 15.9339 90.5421 15.5834 91.0058 14.965C91.083 15.2153 91.2319 15.4172 91.449 15.5586C91.6903 15.7157 92.0044 15.7909 92.3743 15.7909H93.2523V14.2949H92.7253C92.6272 14.2949 92.5861 14.2727 92.5696 14.2577C92.5559 14.2452 92.5373 14.2176 92.5373 14.1459V11.0259C92.5373 10.2548 92.2666 9.59108 91.7413 9.12168C91.2178 8.65383 90.4572 8.3929 89.5013 8.3929C87.6657 8.3929 86.2805 9.44488 86.128 10.9982L86.1118 11.1629H87.9564L87.9731 11.0318C88.0518 10.4131 88.6171 9.9539 89.4753 9.9539C89.8938 9.9539 90.2081 10.0586 90.4163 10.2262ZM88.1964 13.0534C88.4567 12.9321 88.8247 12.8785 89.2593 12.8258L89.2599 12.8257C89.6213 12.7806 89.9814 12.7339 90.2843 12.6454C90.4503 12.5969 90.6077 12.5335 90.7423 12.4451V13.0539C90.7423 13.4683 90.5659 13.8061 90.2702 14.0436C89.9719 14.2831 89.5456 14.4249 89.0463 14.4249C88.6139 14.4249 88.3043 14.3398 88.1069 14.2017C87.9169 14.0689 87.8183 13.8788 87.8183 13.6259C87.8183 13.4698 87.8561 13.3571 87.9163 13.2711C87.9774 13.1837 88.0696 13.1124 88.1964 13.0534ZM90.8923 12.092V13.0539C90.8923 13.9769 90.0993 14.5749 89.0463 14.5749C89.0463 14.5749 89.0463 14.5749 89.0463 14.5749C90.0993 14.5749 90.8923 13.9769 90.8923 13.0539V12.0919C90.8923 12.0919 90.8923 12.092 90.8923 12.092ZM94.1405 15.6409H94.1406V5.89091L95.6745 5.89091H94.1405V15.6409ZM95.6746 9.6478V9.6479C96.0631 9.11621 96.6527 8.73731 97.3612 8.59977C96.7386 8.72063 96.2078 9.02789 95.8245 9.46146C95.7717 9.52123 95.7217 9.58339 95.6746 9.6478ZM95.5186 14.419C95.5565 14.496 95.5982 14.5704 95.6434 14.6422C96.0516 15.2897 96.749 15.718 97.5838 15.815C96.6564 15.7072 95.8987 15.1906 95.5186 14.4189L95.5186 14.419ZM95.509 15.7909L95.6168 14.8698C96.1279 15.5685 96.9741 15.9859 97.9495 15.9859C98.9102 15.9859 99.7319 15.5895 100.311 14.9076C100.889 14.2275 101.22 13.2714 101.22 12.1569C101.22 11.0612 100.889 10.1211 100.312 9.45245C99.7343 8.7823 98.916 8.3929 97.9625 8.3929C97.1024 8.3929 96.3525 8.71261 95.8245 9.24238V5.74091H93.9905V15.7909H95.509ZM105.523 11.5336L105.523 11.5334L104.692 11.261L104.692 11.2607C104.642 11.2437 104.593 11.2275 104.544 11.2114L104.544 11.2113C104.339 11.1433 104.145 11.0791 103.988 10.9874C103.804 10.8795 103.702 10.7519 103.702 10.5579C103.702 10.3713 103.777 10.2287 103.919 10.1275C104.066 10.0219 104.298 9.9539 104.618 9.9539C104.993 9.9539 105.296 10.0402 105.51 10.2029C105.721 10.3629 105.863 10.6085 105.899 10.9628L105.912 11.0979H107.672L107.653 10.9305C107.558 10.1178 107.224 9.47883 106.694 9.04439C106.165 8.61118 105.456 8.3929 104.631 8.3929C103.783 8.3929 103.099 8.5998 102.624 8.98178C102.146 9.36674 101.894 9.91818 101.894 10.5709C101.894 11.2559 102.164 11.7149 102.589 12.0461C103.002 12.3684 103.56 12.567 104.129 12.7544L105.039 13.0535L105.159 13.0921C105.411 13.1735 105.607 13.2366 105.75 13.327C105.828 13.3762 105.882 13.4291 105.918 13.4906C105.953 13.5516 105.976 13.6312 105.976 13.7429C105.976 13.9647 105.892 14.125 105.734 14.236C105.568 14.3525 105.304 14.4249 104.93 14.4249C104.529 14.4249 104.191 14.332 103.952 14.1644C103.717 13.9998 103.568 13.7581 103.546 13.4334L103.536 13.2939H101.755L101.764 13.4529C101.812 14.2449 102.132 14.8849 102.696 15.3238C103.257 15.7599 104.044 15.9859 105.008 15.9859C105.874 15.9859 106.573 15.7864 107.06 15.4047C107.552 15.0193 107.81 14.4604 107.81 13.7819C107.81 13.1237 107.588 12.6676 107.176 12.3215C106.776 11.9856 106.204 11.7606 105.523 11.5336ZM106.048 10.9479C105.98 10.2654 105.543 9.9014 104.904 9.82107C105.543 9.90139 105.98 10.2654 106.048 10.9479L106.048 10.9479ZM104.915 8.55214C104.822 8.54599 104.728 8.5429 104.631 8.5429L104.915 8.55214ZM104.046 8.57992C102.761 8.7509 102.044 9.50165 102.044 10.5709C102.044 11.8449 103.032 12.2349 104.176 12.6119L104.176 12.6119C103.032 12.2349 102.044 11.8449 102.044 10.5709C102.044 9.50167 102.761 8.75092 104.046 8.57992ZM105.358 14.5388C105.27 14.5553 105.174 14.5662 105.072 14.5714C105.026 14.5737 104.979 14.5749 104.93 14.5749C104.824 14.5749 104.722 14.5688 104.624 14.5567C103.935 14.4719 103.441 14.0923 103.396 13.4439L103.396 13.4439H101.914C101.917 13.4946 101.921 13.5446 101.927 13.5939C102.05 14.7289 102.785 15.4845 104.009 15.7399C104.312 15.8033 104.646 15.8359 105.008 15.8359M97.6115 14.3859C96.5925 14.3859 95.8245 13.4846 95.8245 12.1179C95.8245 10.8387 96.5847 9.9929 97.6115 9.9929C98.1244 9.9929 98.5532 10.209 98.8569 10.5826C99.1624 10.9586 99.3465 11.5015 99.3465 12.1569C99.3465 12.8328 99.1619 13.3925 98.8556 13.7799C98.5514 14.1646 98.1228 14.3859 97.6115 14.3859ZM97.5884 14.5358C97.5961 14.5359 97.6039 14.5359 97.6116 14.5359C98.7296 14.5359 99.4966 13.5609 99.4966 12.1569C99.4966 10.9412 98.8882 10.0554 97.9652 9.87626C98.8881 10.0555 99.4965 10.9412 99.4965 12.1569C99.4965 13.5609 98.7295 14.5359 97.6115 14.5359C97.6038 14.5359 97.5961 14.5359 97.5884 14.5358Z" fill="white"/>
</svg>
