<svg width="70" height="17" viewBox="0 0 70 17" fill="none" xmlns="http://www.w3.org/2000/svg">
<path fill-rule="evenodd" clip-rule="evenodd" d="M13.9009 9.87917C13.4547 10.0062 12.9836 10.0742 12.4966 10.0742C9.67046 10.0742 7.37924 7.78316 7.37924 4.95683C7.37924 4.45252 7.45217 3.96525 7.58809 3.50497H2.28562C1.47064 3.50497 0.809937 4.16568 0.809937 4.98066V15.1202C0.809937 15.9351 1.47064 16.5958 2.28562 16.5958H12.4251C13.2401 16.5958 13.9008 15.9351 13.9008 15.1202V9.87937L13.9009 9.87917Z" fill="white"/>
<path d="M16.8098 4.23212C16.8098 6.24041 15.1818 7.86842 13.1735 7.86842C11.1652 7.86842 9.53723 6.24041 9.53723 4.23212C9.53723 2.22383 11.1652 0.595825 13.1735 0.595825C15.1818 0.595825 16.8098 2.22383 16.8098 4.23212Z" fill="url(#paint0_linear_8_4058)"/>
<path d="M32.3297 10.965V16.4857H34.6223V10.965C34.6223 7.57204 32.8616 5.3526 30.0738 5.3526C28.7166 5.3526 27.5061 6.15961 27.1026 7.27838V5.481H24.8101V16.4852H27.1026V10.9831C27.1026 9.03895 28.1847 7.64507 29.6704 7.64507C31.2843 7.64507 32.3297 8.94727 32.3297 10.9647V10.965Z" fill="white"/>
<path d="M36.1544 10.965C36.1544 14.1563 38.5204 16.5955 41.5647 16.5955C44.6091 16.5955 46.957 14.1562 46.957 10.965C46.957 7.79213 44.6094 5.3526 41.5647 5.3526C38.5201 5.3526 36.1544 7.79193 36.1544 10.965ZM41.5647 7.64537C43.3254 7.64537 44.6643 9.07597 44.6643 10.965C44.6643 12.8725 43.3254 14.3031 41.5647 14.3031C39.804 14.3031 38.4468 12.8725 38.4468 10.965C38.4468 9.07597 39.804 7.64537 41.5647 7.64537Z" fill="white"/>
<path d="M50.2108 3.15166L49.6605 5.48094H48.0282V7.64511H49.6605V12.7073C49.6605 15.4034 50.761 16.4855 53.3839 16.4855H54.3374V14.2113H53.6036C52.4666 14.2113 51.953 13.7161 51.953 12.579V7.64532H54.3374V5.48114H51.953V3.15186H50.2108V3.15166Z" fill="white"/>
<path d="M58.2235 16.4852V5.48099H55.9309V16.4852H58.2235Z" fill="white"/>
<path d="M69.9701 16.4852V5.48102H63.661V4.67401C63.661 3.53688 64.1746 3.02333 65.3117 3.02333H66.0449V0.767426H65.0915C62.4688 0.767426 61.3684 1.83118 61.3684 4.54561V5.48097H59.7544V7.64514H61.3684V16.4856H63.661V7.64514H67.6775V16.4856H69.9701V16.4852Z" fill="white"/>
<path fill-rule="evenodd" clip-rule="evenodd" d="M56.8142 0.595825C56.1662 0.595825 55.9335 0.951385 55.9335 1.45705V3.29531H57.7306C58.355 3.29531 58.6329 3.07678 58.6329 2.46052V1.4571C58.6329 0.880309 58.2522 0.595875 57.6674 0.595875H56.8142V0.595825Z" fill="white"/>
<defs>
<linearGradient id="paint0_linear_8_4058" x1="15.3693" y1="1.16254" x2="11.875" y2="7.86842" gradientUnits="userSpaceOnUse">
<stop stop-color="#FE7970"/>
<stop offset="1" stop-color="#FEB776"/>
</linearGradient>
</defs>
</svg>
