<svg width="75" height="25" viewBox="0 0 75 25" fill="none" xmlns="http://www.w3.org/2000/svg">
<path d="M62.9457 8.19786C64.2562 8.21218 65.4556 8.49683 66.1073 9.85204C66.3651 10.3855 66.3078 10.6917 65.6096 10.6469C64.9651 10.6057 64.2616 10.8778 63.8409 10.0561C63.7191 9.81802 63.2984 9.74641 62.9493 9.77864C62.414 9.82876 61.8018 9.78759 61.7355 10.5162C61.6747 11.2019 62.2601 11.3021 62.7506 11.4078C63.5598 11.5796 64.3887 11.6799 65.1585 11.9932C66.6229 12.5929 66.9648 14.3903 65.8441 15.5128C64.5534 16.8071 61.4634 16.9092 60.1386 15.6972C59.7824 15.3713 59.4798 15.0043 59.3814 14.5156C59.3545 14.3831 59.2686 14.2363 59.419 14.111C59.7716 13.8138 61.3148 13.9803 61.6013 14.3545C62.1097 15.0205 62.79 15.0831 63.5186 14.8647C63.8856 14.7555 64.2526 14.5783 64.2311 14.0824C64.2114 13.633 63.857 13.4773 63.5258 13.3806C62.9583 13.2159 62.3693 13.121 61.7892 12.9957C60.0814 12.6287 59.3939 11.8678 59.4995 10.4607C59.5908 9.23441 60.6739 8.34108 62.1974 8.23545C62.4355 8.21934 62.6736 8.21039 62.9457 8.19786Z" fill="white"/>
<path d="M36.6597 12.285C36.6883 10.62 37.2451 9.20218 38.8688 8.54516C40.4066 7.92395 41.9498 7.96512 43.2782 9.16816C43.3874 9.26663 43.4894 9.37583 43.5789 9.4922C43.9513 9.97735 44.3953 10.6827 44.0909 11.0963C43.7633 11.542 42.9345 11.2251 42.324 11.252C42.0787 11.2627 42.0877 11.0443 42.0232 10.8868C41.7547 10.2405 41.2892 9.93797 40.566 9.94692C39.8194 9.95587 39.4059 10.3802 39.1445 10.9709C38.7399 11.884 38.7757 12.8346 39.1445 13.7458C39.3916 14.3545 39.8535 14.7627 40.5606 14.7895C41.2695 14.8164 41.7332 14.4798 42.0214 13.8407C42.1772 13.4934 43.8224 13.2499 44.0892 13.5149C44.2431 13.6688 44.1536 13.8514 44.1196 14.0179C43.9334 14.9077 43.4608 15.6094 42.6641 16.0534C39.8982 17.5966 36.8047 15.8816 36.6615 12.7325C36.6543 12.5839 36.6615 12.4353 36.6615 12.2868L36.6597 12.285Z" fill="white"/>
<path d="M47.0001 10.9978C47.0001 12.5463 46.9786 14.0949 47.0108 15.6417C47.0216 16.202 46.8981 16.4115 46.2786 16.3989C44.7533 16.3685 44.7533 16.4061 44.7533 14.8486C44.7533 12.0504 44.773 9.2523 44.739 6.45416C44.7319 5.78998 44.8536 5.42835 45.6019 5.55904C45.8042 5.59485 46.0208 5.5841 46.2267 5.55725C46.8515 5.47669 47.0395 5.72911 47.0216 6.3557C46.9768 7.90246 47.0073 9.45102 47.0073 10.9996H47.0019L47.0001 10.9978Z" fill="white"/>
<path d="M50.142 12.3763C50.142 13.4468 50.1079 14.5192 50.1545 15.5897C50.1796 16.1913 50.0363 16.4133 49.3847 16.3954C47.9471 16.3596 47.9471 16.3954 47.9471 14.9363C47.9471 12.9724 47.9686 11.0085 47.9364 9.04464C47.9274 8.45923 48.0313 8.21039 48.699 8.23008C50.1402 8.27304 50.142 8.23187 50.1438 9.69807C50.1438 10.5914 50.1438 11.4829 50.1438 12.3763H50.142Z" fill="white"/>
<path d="M47.8988 5.93678C47.9095 5.39971 48.3141 5.04345 48.9998 4.99154C49.6801 4.93962 50.2655 5.45521 50.2673 6.07642C50.2691 6.66183 49.6335 7.3278 49.0499 7.24366C48.4377 7.15593 47.9077 6.88024 47.897 5.93678H47.8988Z" fill="white"/>
<path d="M11.9848 24.0504C11.4119 23.9376 11.0861 23.6225 11.1201 23.0694C11.1541 22.5198 11.5283 22.1671 12.0493 22.2065C12.5469 22.2441 12.9301 22.5842 12.8871 23.1625C12.8441 23.721 12.4539 23.9591 11.9848 24.0504Z" fill="white"/>
<path d="M16.1793 2.6875C15.6136 2.61052 15.2824 2.29543 15.3039 1.7512C15.3254 1.21234 15.6763 0.847132 16.2169 0.884727C16.7289 0.918742 17.1067 1.26784 17.0834 1.82102C17.0601 2.36346 16.7021 2.65169 16.1793 2.6875Z" fill="white"/>
<path d="M12.8388 0.9635C12.7797 1.52384 12.4431 1.8801 11.9257 1.86041C11.4245 1.84072 11.0396 1.50773 11.0682 0.933065C11.0969 0.383462 11.4406 0.0451073 11.9759 0.050478C12.5255 0.057639 12.7922 0.44254 12.8388 0.9635Z" fill="white"/>
<path d="M17.13 22.1689C17.1264 22.8295 16.7469 23.1642 16.2474 23.166C15.7425 23.1696 15.3594 22.8277 15.3666 22.2441C15.372 21.707 15.7139 21.3865 16.199 21.3704C16.7272 21.3525 17.0834 21.6676 17.13 22.1671V22.1689Z" fill="white"/>
<path d="M6.83072 22.2351C6.94888 21.7106 7.25143 21.3561 7.80103 21.3955C8.3381 21.4331 8.66035 21.775 8.62991 22.3407C8.59948 22.9065 8.2289 23.2162 7.70257 23.1804C7.17982 23.1464 6.88443 22.7668 6.82893 22.2351H6.83072Z" fill="white"/>
<path d="M8.58515 1.88905C8.50817 2.44045 8.14654 2.74479 7.62738 2.69645C7.11 2.64811 6.77164 2.29007 6.82714 1.72256C6.88085 1.16759 7.27291 0.847135 7.78134 0.909793C8.25754 0.968871 8.65139 1.28037 8.58515 1.88905Z" fill="white"/>
<path d="M0.930091 11.1876C1.52087 11.2108 1.79478 11.6083 1.7715 12.1077C1.74823 12.6126 1.4045 13.0118 0.84595 12.9617C0.32141 12.9169 -0.0205257 12.5714 0.000957163 12.0146C0.0242303 11.4543 0.366166 11.1804 0.928301 11.1876H0.930091Z" fill="white"/>
<path d="M23.0109 12.8883C22.5114 12.8793 22.1838 12.5463 22.1659 12.02C22.1498 11.4812 22.5078 11.1124 23.0467 11.1052C23.5856 11.098 23.9418 11.4722 23.9579 11.995C23.9758 12.5249 23.6536 12.8614 23.0091 12.8883H23.0109Z" fill="white"/>
<path d="M19.7598 20.7206C19.28 20.708 18.9471 20.4198 18.9506 19.8505C18.9542 19.2866 19.3015 18.9823 19.8511 18.9626C20.4007 18.9429 20.6818 19.3188 20.6961 19.795C20.7122 20.3106 20.4616 20.7116 19.7598 20.7206Z" fill="white"/>
<path d="M5.04048 19.8255C5.00289 20.5093 4.65737 20.7671 4.10419 20.7528C3.56353 20.7385 3.27531 20.3965 3.28068 19.8899C3.28426 19.351 3.58681 18.9697 4.16147 18.9912C4.71466 19.0109 4.99214 19.3725 5.04048 19.8255Z" fill="white"/>
<path d="M4.18654 5.13118C3.51162 5.06673 3.2216 4.71405 3.24845 4.1734C3.27173 3.67571 3.57249 3.34094 4.11314 3.3481C4.68064 3.35347 5.01005 3.66855 5.00468 4.23069C4.99931 4.79461 4.61262 5.04167 4.18654 5.13118Z" fill="white"/>
<path d="M19.6094 3.31409C20.3434 3.30514 20.637 3.64707 20.6621 4.18773C20.6854 4.70152 20.3703 5.06673 19.8726 5.08643C19.3015 5.1097 18.9381 4.78925 18.9256 4.15729C18.9148 3.58084 19.2854 3.40539 19.6077 3.31409H19.6094Z" fill="white"/>
<path d="M2.62903 7.84518C2.53415 8.41269 2.20116 8.72598 1.65156 8.69554C1.14313 8.66869 0.813728 8.3357 0.83163 7.82191C0.849533 7.28125 1.18252 6.92679 1.74465 6.94111C2.305 6.95543 2.57174 7.32959 2.62903 7.84518Z" fill="white"/>
<path d="M22.2859 6.89993C22.7889 6.95364 23.1129 7.2902 23.0825 7.81832C23.0521 8.35181 22.6797 8.67227 22.1229 8.63288C21.6109 8.59528 21.2923 8.24798 21.3138 7.75924C21.3352 7.24366 21.6485 6.89635 22.2859 6.89993Z" fill="white"/>
<path d="M23.1201 16.2951C23.0234 16.8143 22.7227 17.149 22.1677 17.1294C21.6449 17.1115 21.346 16.748 21.337 16.2647C21.3281 15.7222 21.6825 15.366 22.2268 15.3713C22.7674 15.3767 23.0789 15.7222 23.1219 16.2969L23.1201 16.2951Z" fill="white"/>
<path d="M1.78225 17.1634C1.17536 17.1974 0.860274 16.8071 0.844162 16.3148C0.82805 15.8028 1.18073 15.4412 1.7536 15.4376C2.29425 15.4322 2.60934 15.7903 2.63798 16.2521C2.66841 16.7677 2.34617 17.124 1.78225 17.1652V17.1634Z" fill="white"/>
<path d="M19.9908 7.292C19.4734 7.27947 19.2281 6.98408 19.2228 6.50608C19.2174 6.06211 19.477 5.76313 19.9174 5.7327C20.4133 5.70048 20.723 6.04241 20.7445 6.4846C20.7659 6.92679 20.492 7.25619 19.989 7.292H19.9908Z" fill="white"/>
<path d="M22.2662 9.99168C22.1534 10.4303 21.9618 10.8009 21.4516 10.7651C20.9718 10.7328 20.7069 10.4374 20.7301 9.94155C20.7516 9.48683 21.004 9.24873 21.4641 9.24157C21.9779 9.23441 22.182 9.55128 22.2662 9.99168Z" fill="white"/>
<path d="M22.3252 13.8156C22.2304 14.2775 21.9743 14.5693 21.482 14.5317C21.0577 14.4977 20.7462 14.265 20.7552 13.8031C20.7641 13.3215 21.0506 13.0243 21.5357 13.0297C22.0173 13.0351 22.2715 13.3376 22.3252 13.8156Z" fill="white"/>
<path d="M9.90993 3.30155C9.457 3.21741 9.14729 2.99721 9.17414 2.4852C9.19742 2.01795 9.53577 1.76374 9.92246 1.76732C10.3467 1.7709 10.7406 2.04301 10.7227 2.53354C10.7048 2.99363 10.3933 3.26575 9.91172 3.30155H9.90993Z" fill="white"/>
<path d="M3.21086 10.2835C3.14641 10.7489 2.87967 11.0372 2.40167 11.0282C1.92905 11.0193 1.62471 10.7489 1.63187 10.2513C1.63903 9.78401 1.95948 9.56739 2.38019 9.54411C2.86534 9.51726 3.13567 9.79475 3.21086 10.2835Z" fill="white"/>
<path d="M18.2739 20.0027C18.231 20.5165 17.9123 20.8137 17.4791 20.8119C17.0333 20.8119 16.7325 20.4968 16.7522 19.9937C16.7701 19.5354 17.0279 19.2884 17.4719 19.2723C17.9749 19.2526 18.2023 19.5605 18.2721 20.0027H18.2739Z" fill="white"/>
<path d="M6.66959 20.9837C6.27574 20.9247 5.93918 20.708 5.94097 20.2104C5.94097 19.7879 6.1361 19.4782 6.61768 19.4388C7.12431 19.3976 7.41433 19.6357 7.44477 20.128C7.4752 20.6096 7.21025 20.8996 6.66959 20.9837Z" fill="white"/>
<path d="M2.45538 13.2875C2.94412 13.352 3.23414 13.6008 3.21982 14.0985C3.20549 14.5442 2.96023 14.8003 2.49835 14.8199C1.98634 14.8414 1.69095 14.521 1.68737 14.0859C1.68558 13.6617 1.97381 13.3287 2.45538 13.2857V13.2875Z" fill="white"/>
<path d="M4.70929 17.4838C4.70929 18.037 4.44076 18.3413 3.96634 18.3324C3.50088 18.3234 3.19475 17.9994 3.21086 17.525C3.22519 17.1114 3.45971 16.7964 3.92696 16.7838C4.43181 16.7695 4.6717 17.0542 4.7075 17.482L4.70929 17.4838Z" fill="white"/>
<path d="M20.9253 17.3245C20.8161 17.781 20.5959 18.0907 20.0856 18.0549C19.5754 18.0191 19.3588 17.7148 19.3839 17.2332C19.4089 16.7731 19.6936 16.5457 20.1376 16.5547C20.6317 16.5654 20.8554 16.8823 20.9235 17.3227L20.9253 17.3245Z" fill="white"/>
<path d="M18.0161 3.91381C17.9606 4.34168 17.7404 4.63349 17.2248 4.62991C16.7486 4.62633 16.5231 4.35421 16.498 3.92097C16.4694 3.42329 16.7862 3.11716 17.2356 3.09926C17.6957 3.07956 17.9857 3.3839 18.0161 3.91381Z" fill="white"/>
<path d="M7.19234 4.13938C7.16191 4.54755 6.90412 4.80356 6.40464 4.78924C5.94097 4.77491 5.71361 4.49564 5.69571 4.06061C5.67422 3.55576 6.01258 3.26574 6.44582 3.26037C6.88621 3.25321 7.2013 3.54681 7.19234 4.13938Z" fill="white"/>
<path d="M13.8467 3.23353C13.2774 3.23353 12.9784 2.97036 12.9802 2.48879C12.982 2.07703 13.1932 1.74226 13.673 1.72615C14.1761 1.71003 14.4589 1.99468 14.4697 2.47447C14.4786 2.90591 14.2298 3.1834 13.8467 3.23353Z" fill="white"/>
<path d="M4.55175 6.7764C4.52668 7.15414 4.40137 7.47638 3.89115 7.50145C3.37377 7.52651 3.06764 7.2544 3.04437 6.79251C3.02109 6.32705 3.29858 6.01197 3.81954 6.01376C4.29574 6.01376 4.52131 6.27334 4.55354 6.7764H4.55175Z" fill="white"/>
<path d="M14.0382 22.321C13.6354 22.2476 13.2827 22.0776 13.2451 21.6282C13.2076 21.1538 13.4546 20.8208 13.9559 20.794C14.3927 20.7707 14.6899 20.9766 14.7418 21.451C14.7991 21.9755 14.4858 22.1939 14.0382 22.3228V22.321Z" fill="white"/>
<path d="M10.9751 21.5477C10.9393 22.0203 10.7227 22.3354 10.2161 22.3407C9.75776 22.3461 9.50355 22.0758 9.47849 21.6318C9.45163 21.1323 9.71838 20.8584 10.2196 20.8405C10.6958 20.8226 10.8964 21.1216 10.9751 21.5477Z" fill="white"/>
<path d="M8.86622 19.6214C9.03808 19.6178 9.22069 19.8075 9.24933 20.1531C9.28156 20.5487 9.03271 20.8047 8.70152 20.8351C8.35242 20.8674 8.08389 20.5953 8.07673 20.2354C8.06778 19.8774 8.27544 19.6303 8.86622 19.6214Z" fill="white"/>
<path d="M15.2556 4.44014C14.9101 4.43298 14.7167 4.27007 14.6934 3.91023C14.6666 3.50743 14.9119 3.27291 15.2448 3.23889C15.6065 3.20309 15.875 3.49132 15.8732 3.83504C15.8732 4.16266 15.6763 4.45446 15.2556 4.44014Z" fill="white"/>
<path d="M6.38495 18.3431C6.35451 18.7513 6.10925 18.9106 5.72972 18.9035C5.35377 18.8963 5.19981 18.6332 5.19086 18.3199C5.18191 17.9779 5.39495 17.772 5.7512 17.7649C6.13969 17.7577 6.36526 17.9403 6.38495 18.3431Z" fill="white"/>
<path d="M18.7913 5.73269C18.6964 6.11581 18.4923 6.35033 18.1164 6.31452C17.7565 6.27872 17.5274 6.07284 17.5596 5.67183C17.5883 5.30304 17.8532 5.17414 18.1611 5.16519C18.546 5.15445 18.7054 5.43193 18.7931 5.73269H18.7913Z" fill="white"/>
<path d="M20.7767 15.3302C20.689 15.6238 20.5708 15.903 20.2181 15.9156C19.844 15.9281 19.6059 15.7401 19.5826 15.3427C19.5611 14.9811 19.7491 14.7949 20.0982 14.7716C20.492 14.7448 20.68 14.9793 20.7767 15.3302Z" fill="white"/>
<path d="M4.43359 15.4913C4.39421 15.7741 4.28679 16.0355 3.91621 16.0534C3.53668 16.0713 3.28068 15.8923 3.26457 15.5056C3.24846 15.1189 3.48656 14.9112 3.86609 14.9095C4.22055 14.9077 4.37989 15.1368 4.4318 15.4913H4.43359Z" fill="white"/>
<path d="M12.4628 3.2013C12.4449 3.51459 12.3053 3.75806 11.9383 3.77776C11.5444 3.79924 11.3099 3.59694 11.3117 3.19772C11.3135 2.84862 11.5283 2.63558 11.8756 2.63379C12.214 2.63379 12.4342 2.81461 12.4628 3.2013Z" fill="white"/>
<path d="M20.0892 8.00988C20.4312 8.02957 20.6567 8.18533 20.6567 8.55053C20.6567 8.94081 20.4526 9.16101 20.0516 9.15026C19.6793 9.14131 19.5307 8.89605 19.5271 8.56307C19.5217 8.20144 19.7455 8.03674 20.091 8.00809L20.0892 8.00988Z" fill="white"/>
<path d="M18.3581 17.6431C18.7125 17.67 18.8432 17.9242 18.8217 18.2984C18.7985 18.6689 18.546 18.8265 18.231 18.8068C17.8496 18.7853 17.6706 18.5311 17.7064 18.1408C17.7404 17.7792 17.9553 17.6342 18.3581 17.6414V17.6431Z" fill="white"/>
<path d="M11.8452 20.3052C12.3823 20.2694 12.5953 20.4646 12.6186 20.7993C12.6418 21.1252 12.4807 21.3883 12.1191 21.417C11.7342 21.4492 11.4889 21.2594 11.4746 20.8602C11.4621 20.5039 11.6823 20.3339 11.8434 20.3052H11.8452Z" fill="white"/>
<path d="M3.74256 12.1185C3.68706 12.4282 3.54921 12.6717 3.18221 12.6824C2.82954 12.6931 2.60039 12.5088 2.58427 12.165C2.56637 11.7873 2.76867 11.5384 3.17326 11.542C3.53131 11.5438 3.69064 11.7783 3.74256 12.1185Z" fill="white"/>
<path d="M3.76941 9.29527C3.39167 9.26126 3.15894 9.03211 3.19296 8.67227C3.2216 8.37509 3.44359 8.1352 3.7909 8.15131C4.18117 8.16742 4.35661 8.40732 4.34408 8.78685C4.33155 9.15205 4.11493 9.29527 3.76762 9.29527H3.76941Z" fill="white"/>
<path d="M5.66348 5.25291C5.95529 5.27977 6.21666 5.39434 6.24173 5.75597C6.265 6.11402 6.14147 6.39329 5.72793 6.42373C5.31975 6.45416 5.13715 6.22143 5.12462 5.84548C5.11388 5.50355 5.29827 5.30662 5.66348 5.25291Z" fill="white"/>
<path d="M15.9788 20.1334C15.9645 20.4753 15.8106 20.7152 15.4507 20.7259C15.0587 20.7367 14.8331 20.5129 14.8438 20.1208C14.8546 19.7717 15.064 19.582 15.4221 19.5874C15.7748 19.5927 15.977 19.761 15.977 20.1316L15.9788 20.1334Z" fill="white"/>
<path d="M9.10611 3.86727C9.08284 4.21995 8.94499 4.44731 8.57978 4.47416C8.22352 4.50102 8.00691 4.34168 7.97826 3.98543C7.94783 3.6059 8.09821 3.34631 8.51891 3.34273C8.87517 3.33915 9.04345 3.55935 9.10611 3.86727Z" fill="white"/>
<path d="M21.3621 11.9126C21.3209 12.3136 21.1437 12.5213 20.7892 12.5159C20.4509 12.5105 20.2217 12.3458 20.2217 11.9824C20.2217 11.5886 20.4347 11.3773 20.8268 11.3863C21.1956 11.3934 21.3155 11.653 21.3621 11.9126Z" fill="white"/>
<path d="M6.0627 7.82191C6.01795 8.16384 5.82997 8.36614 5.47551 8.33928C5.16937 8.31601 4.98677 8.1173 5.00467 7.80758C5.02257 7.45849 5.26426 7.25619 5.58829 7.28125C5.85862 7.30274 6.06986 7.49429 6.06449 7.82191H6.0627Z" fill="white"/>
<path d="M4.99036 13.6133C4.90085 13.8658 4.80059 14.1164 4.46761 14.1218C4.09166 14.1289 3.92338 13.9087 3.93233 13.5614C3.94128 13.232 4.16506 13.087 4.4694 13.0906C4.78985 13.0942 4.93665 13.309 4.99036 13.6115V13.6133Z" fill="white"/>
<path d="M19.5074 10.9906C19.2013 10.9602 18.9542 10.8098 18.9632 10.4589C18.9703 10.1707 19.1708 9.97198 19.4644 9.94871C19.8243 9.92007 20.0033 10.1403 20.0105 10.4768C20.0158 10.7812 19.844 10.9602 19.5074 10.9906Z" fill="white"/>
<path d="M16.3029 17.8437C16.5642 17.9099 16.8023 18.0066 16.8149 18.3324C16.8274 18.6851 16.643 18.8838 16.2939 18.8999C15.9788 18.9142 15.7873 18.7083 15.7604 18.4291C15.7282 18.0836 15.9788 17.9189 16.3029 17.8437Z" fill="white"/>
<path d="M8.26649 18.4864C8.21099 18.7728 8.09104 19.0055 7.7509 18.984C7.40359 18.9608 7.17981 18.7406 7.20846 18.413C7.23173 18.1337 7.45909 17.96 7.78133 17.9672C8.13043 17.9744 8.23247 18.1946 8.26828 18.4864H8.26649Z" fill="white"/>
<path d="M10.5276 19.0682C10.7961 19.1165 11.0539 19.2096 11.07 19.5354C11.0897 19.8971 10.8552 20.085 10.5204 20.0832C10.2232 20.0832 10.0299 19.9096 10.0191 19.5838C10.0084 19.2383 10.2483 19.1434 10.5276 19.0682Z" fill="white"/>
<path d="M8.21636 5.64319C8.16623 5.97259 7.9711 6.19279 7.64706 6.2089C7.35526 6.22322 7.15833 6.0442 7.13864 5.72554C7.11894 5.41404 7.25679 5.21353 7.5665 5.1634C7.93171 5.10612 8.08746 5.35496 8.21636 5.64319Z" fill="white"/>
<path d="M13.3705 4.97364C13.059 4.945 12.871 4.79283 12.8835 4.467C12.8943 4.14834 13.0948 3.96753 13.3919 3.97469C13.7214 3.98364 13.9666 4.16087 13.9272 4.53503C13.895 4.85011 13.6748 4.97722 13.3705 4.97364Z" fill="white"/>
<path d="M18.9667 16.2002C18.9148 16.5368 18.7304 16.7641 18.4064 16.7731C18.1307 16.782 17.8998 16.637 17.8854 16.3041C17.8729 15.9961 18.0108 15.7903 18.3187 15.7491C18.6606 15.7025 18.8611 15.8887 18.965 16.2002H18.9667Z" fill="white"/>
<path d="M18.376 7.1989C18.5818 7.20964 18.7985 7.3278 18.8253 7.6572C18.8486 7.96333 18.7286 8.19427 18.4028 8.23366C18.034 8.2802 17.8281 8.01883 17.7906 7.72165C17.7547 7.437 17.9535 7.22396 18.3778 7.19711L18.376 7.1989Z" fill="white"/>
<path d="M14.0973 19.5229C14.0651 19.8344 13.9147 20.0188 13.5996 20.0403C13.2989 20.06 13.0715 19.9597 13.0375 19.6303C13.007 19.326 13.1556 19.0986 13.4546 19.0539C13.7983 19.0019 13.9863 19.2293 14.0955 19.5229H14.0973Z" fill="white"/>
<path d="M20.0516 13.4826C19.9979 13.7852 19.8475 13.9857 19.5271 13.9767C19.1637 13.966 18.9936 13.7458 19.0276 13.3985C19.0581 13.0852 19.2782 12.9259 19.5772 12.9545C19.8762 12.9814 20.0319 13.189 20.0516 13.4826Z" fill="white"/>
<path d="M4.38883 10.0937C4.73972 10.1062 4.90621 10.2817 4.90442 10.6021C4.90263 10.9208 4.72898 11.1106 4.40853 11.1124C4.08091 11.1141 3.92516 10.8993 3.91442 10.5968C3.90368 10.2709 4.09702 10.1152 4.38704 10.0937H4.38883Z" fill="white"/>
<path d="M6.16117 16.3023C6.11284 16.7033 5.92307 16.8554 5.61694 16.8554C5.29828 16.8554 5.12821 16.6854 5.12821 16.3649C5.12821 16.0606 5.27322 15.844 5.5883 15.8314C5.94993 15.8171 6.05376 16.1107 6.16117 16.3023Z" fill="white"/>
<path d="M16.7451 5.6038C16.6681 5.91888 16.5034 6.09432 16.1919 6.0979C15.8643 6.10327 15.7067 5.92425 15.7049 5.61275C15.7049 5.31736 15.8285 5.09 16.1596 5.08463C16.5141 5.07926 16.6591 5.32631 16.7451 5.60201V5.6038Z" fill="white"/>
<path d="M10.3987 4.01407C10.7442 4.03555 10.9232 4.19668 10.9143 4.5225C10.9053 4.84116 10.7137 5.02914 10.4094 5.01839C10.0782 5.00586 9.83832 4.80894 9.86338 4.45268C9.88487 4.13402 10.1355 4.02839 10.3987 4.01586V4.01407Z" fill="white"/>
<path d="M58.6152 10.2638C58.2231 9.17175 57.4229 8.41627 56.2091 8.23903C55.0096 8.06359 54.0411 8.41806 53.3196 9.50831C53.3196 9.35972 53.2964 9.20755 53.3232 9.06433C53.4467 8.39478 53.1872 8.12983 52.514 8.24619C52.3404 8.27663 52.1524 8.27663 51.9788 8.24619C51.2358 8.11551 51.1051 8.46997 51.1123 9.13952C51.1463 12.088 51.1302 15.0384 51.132 17.9887C51.132 19.4477 51.1338 19.4101 52.5624 19.4549C53.2069 19.4746 53.3662 19.2759 53.3393 18.66C53.2892 17.5268 53.325 16.3882 53.325 15.2514C54.4081 17.115 57.5464 16.9342 58.5024 14.6928C59.1272 13.2302 59.1379 11.7282 58.6116 10.262L58.6152 10.2638ZM55.0186 14.7859C53.9999 14.7913 53.2999 13.8353 53.2749 12.3978C53.2731 12.251 53.3017 12.1024 53.3143 11.9556C53.4235 10.6451 54.0178 9.94513 55.0096 9.96124C56.0068 9.97556 56.6549 10.7919 56.6996 12.0863C56.7032 12.1758 56.6996 12.2653 56.6996 12.3548C56.7032 13.7977 56.0211 14.7824 55.0168 14.7877L55.0186 14.7859Z" fill="white"/>
<path d="M33.6198 8.39657C31.0437 7.53367 28.8059 8.98018 28.3351 11.832C28.0773 13.3931 28.9008 15.2997 30.1486 16.0212C31.5306 16.8214 33.8776 16.6728 35.0574 15.7007C35.4298 15.3946 35.7019 15.0061 35.863 14.5478C35.9203 14.3867 35.9991 14.0967 35.7753 14.1182C35.0681 14.1862 34.3377 13.5632 33.6342 14.3778C32.7641 15.3857 31.1171 14.9685 30.6588 13.7297C30.4672 13.2087 30.4708 12.874 31.1887 12.9187C31.8994 12.9635 32.6173 12.9277 33.3316 12.9277V12.9187C34.0764 12.9187 34.8193 12.9133 35.564 12.9223C35.8093 12.9259 36.0402 12.9814 36.0582 12.6108C36.1405 10.7937 35.4871 9.02136 33.6198 8.39657ZM33.4784 11.5653C33.0631 11.5438 32.6442 11.5599 32.227 11.5599C32.227 11.5599 32.227 11.5581 32.227 11.5563C31.9299 11.5563 31.6291 11.5778 31.3337 11.5492C31.0849 11.5259 30.7447 11.7103 30.6069 11.4203C30.4726 11.1392 30.6624 10.8349 30.836 10.6004C31.2532 10.0382 31.8117 9.72134 32.5296 9.85203C33.1777 9.97019 33.6646 10.296 33.883 10.9799C34.0226 11.4149 33.9582 11.5904 33.4784 11.5635V11.5653Z" fill="white"/>
<path d="M70.9248 8.19785C67.8993 8.03852 66.3168 10.5252 66.8162 13.3036C67.3408 16.2289 70.6312 17.5465 73.1411 15.9138C73.6299 15.5951 73.9736 15.1565 74.2278 14.6409C74.3084 14.4798 74.371 14.29 74.2457 14.1432C74.0273 13.8854 72.4089 14.034 72.1422 14.3187C71.1701 15.3516 69.5052 14.999 69.0326 13.676C68.8499 13.1658 68.8643 12.8847 69.5213 12.9169C70.2356 12.9509 70.9517 12.9241 71.666 12.9241C71.666 12.9259 71.666 12.9277 71.666 12.9295C72.4412 12.9295 73.2163 12.9241 73.9897 12.933C74.2511 12.9366 74.4426 12.9259 74.457 12.575C74.5483 10.4661 73.5135 8.33391 70.9248 8.19785ZM71.7054 11.5689C71.3545 11.5313 70.9964 11.5635 70.642 11.5635C70.2875 11.5635 69.9295 11.5331 69.5786 11.5707C68.8625 11.6494 68.8249 11.3218 69.0988 10.8098C69.4318 10.1868 69.9778 9.83771 70.6688 9.83055C71.3223 9.82339 71.8898 10.108 72.1923 10.7203C72.4233 11.1858 72.5396 11.6584 71.7054 11.5707V11.5689Z" fill="white"/>
</svg>
