<svg width="28" height="16" viewBox="0 0 28 16" fill="none" xmlns="http://www.w3.org/2000/svg">
<path opacity="0.5" d="M14.8269 8.24036C14.8269 12.3351 11.6916 15.6664 7.83765 15.6664C3.98373 15.6664 0.848389 12.3351 0.848389 8.24036C0.848389 4.14562 3.98373 0.81427 7.83765 0.81427C11.6916 0.81427 14.8269 4.14562 14.8269 8.24036ZM20.0688 1.2511C19.4483 1.2511 18.2779 1.55259 17.4125 3.57186C16.8719 4.83318 16.5742 6.49123 16.5742 8.24036C16.5742 9.98948 16.8719 11.6475 17.4125 12.9089C18.2779 14.9281 19.4483 15.2296 20.0688 15.2296C20.6894 15.2296 21.8598 14.9281 22.7252 12.9089C23.2658 11.6475 23.5635 9.98949 23.5635 8.24036C23.5635 6.49123 23.2658 4.83318 22.7252 3.57186C21.8598 1.55259 20.6894 1.2511 20.0688 1.2511ZM26.1844 1.2511C25.9527 1.25111 25.7305 1.34316 25.5667 1.507C25.4029 1.67084 25.3108 1.89305 25.3108 2.12476V14.356C25.3108 14.5877 25.4028 14.8099 25.5667 14.9737C25.7305 15.1376 25.9527 15.2296 26.1844 15.2296C26.4162 15.2296 26.6384 15.1376 26.8022 14.9737C26.9661 14.8099 27.0581 14.5877 27.0581 14.356V2.12476C27.0581 1.89305 26.966 1.67084 26.8022 1.507C26.6384 1.34316 26.4162 1.25111 26.1844 1.2511Z" fill="white"/>
</svg>
