<svg width="80" height="76" viewBox="0 0 80 76" fill="none" xmlns="http://www.w3.org/2000/svg">
<path d="M18.5103 12.8533C18.5211 12.8776 18.5319 12.8991 18.5427 12.918L18.5589 12.9557C18.5669 12.9746 18.5777 12.9935 18.5858 13.0096L18.5993 13.042L18.6074 13.0635C18.6154 13.0797 18.6208 13.0932 18.6262 13.1067L18.6397 13.1363C18.6397 13.1363 18.6505 13.1606 18.6559 13.1713L18.6667 13.1956C18.6667 13.1956 18.6774 13.2171 18.6828 13.2252C18.6855 13.2306 18.6882 13.236 18.6909 13.2414C18.699 13.2549 18.7071 13.2684 18.7152 13.2818C23.4367 20.8062 24.733 24.8136 23.8167 33.2838C23.5472 36.6525 29.4761 37.0001 29.4761 37.0001L33.2491 37.461C33.2491 37.461 35.1005 37.7332 36.0788 38.2695C37.2322 38.9001 37.8197 39.5226 38.1 40.5602C38.8222 43.2444 37.4828 55.113 37.4828 55.113L39.9595 57.5384H39.9892L42.4658 55.113C42.4658 55.113 41.1264 43.2444 41.8487 40.5602C42.1263 39.5226 42.7165 38.9001 43.8699 38.2695C44.8482 37.7332 46.6996 37.461 46.6996 37.461L50.4725 37.0001C50.4725 37.0001 56.4014 36.6525 56.132 33.2838C55.2157 24.8136 56.5092 20.8062 61.2335 13.2818C61.2416 13.2684 61.2497 13.2549 61.2578 13.2387L61.2632 13.2279C61.2632 13.2279 61.2766 13.2037 61.2847 13.1875L61.2901 13.1767C61.2982 13.1606 61.3063 13.1444 61.3171 13.1228C61.3278 13.0986 61.3413 13.0689 61.3575 13.0366L61.3979 12.9557L61.4168 12.9153C61.4275 12.8938 61.4383 12.8668 61.4518 12.8426L61.4653 12.8156C61.4841 12.7779 61.503 12.7348 61.5273 12.6889C61.4033 12.7321 61.282 12.7779 61.1634 12.8237L61.1527 12.8291C61.0206 12.8803 60.8886 12.9342 60.7619 12.9908C60.7242 13.0069 60.6864 13.0258 60.6487 13.042C60.5598 13.0824 60.4735 13.1228 60.3873 13.1632C60.3388 13.1875 60.2903 13.2118 60.2445 13.236C60.1717 13.2737 60.0989 13.3088 60.0262 13.3465C59.9777 13.3735 59.9291 13.4004 59.8779 13.4274C59.8106 13.4651 59.7432 13.5028 59.6785 13.5405C59.63 13.5675 59.5815 13.5971 59.5357 13.6241C59.471 13.6618 59.409 13.7022 59.3443 13.74C59.2985 13.7696 59.2527 13.7966 59.2069 13.8262C59.1449 13.8666 59.0829 13.9071 59.021 13.9502C58.9778 13.9798 58.9374 14.0068 58.897 14.0364C58.8323 14.0822 58.7703 14.1253 58.7056 14.1712C58.6706 14.1981 58.6329 14.2224 58.5978 14.2493C58.517 14.3086 58.4415 14.3679 58.3634 14.4272C58.3472 14.4407 58.3283 14.4514 58.3122 14.4649C58.2205 14.5377 58.1289 14.6104 58.04 14.6832C58.0076 14.7102 57.978 14.7344 57.9484 14.7614C57.8891 14.8099 57.8325 14.8584 57.7759 14.9069C57.7408 14.9365 57.7085 14.9662 57.6735 14.9958C57.6223 15.0416 57.5711 15.0848 57.5226 15.1306C57.4875 15.1629 57.4552 15.1926 57.4201 15.2249C57.3716 15.2707 57.3231 15.3138 57.2746 15.3569C57.2423 15.3866 57.2099 15.4189 57.1776 15.4486C57.1291 15.4944 57.0806 15.5402 57.0321 15.586C57.0024 15.613 56.9755 15.6426 56.9458 15.6696C56.8919 15.7208 56.8407 15.772 56.7895 15.8232C56.768 15.8447 56.7464 15.8663 56.7248 15.8879C56.5766 16.0334 56.4338 16.1789 56.2937 16.319C56.264 16.3487 56.2344 16.3783 56.202 16.4107C56.1589 16.4538 56.1185 16.4942 56.0781 16.5373C56.0484 16.567 56.0188 16.5966 55.9891 16.6263C55.9298 16.6856 55.8732 16.7422 55.8139 16.7987C55.7924 16.8203 55.7708 16.8419 55.7493 16.8607C55.6738 16.9335 55.5984 17.0063 55.5256 17.0763C55.5094 17.0925 55.4932 17.106 55.4771 17.1221C55.4178 17.1787 55.3558 17.2326 55.2965 17.2865C55.2776 17.3054 55.2561 17.3216 55.2372 17.3404C55.1618 17.4051 55.089 17.4698 55.0135 17.5291H55.0108C54.9381 17.5884 54.868 17.6423 54.798 17.6962C54.7791 17.7096 54.7575 17.7258 54.7387 17.7393C54.6794 17.7797 54.6201 17.8201 54.5608 17.8579C54.5446 17.8686 54.5285 17.8794 54.515 17.8875C54.4422 17.9306 54.3695 17.9711 54.2967 18.0088C54.259 18.0276 54.2185 18.0465 54.1808 18.0627C54.1592 18.0735 54.135 18.0842 54.1134 18.0923C54.0649 18.1139 54.0137 18.1328 53.9625 18.1489L54.1215 18.3187L54.1161 18.3241H54.1242C54.2104 18.3052 54.2913 18.2891 54.3695 18.2702C54.3856 18.2675 54.4045 18.2621 54.4207 18.2594H54.4314C54.5177 18.2379 54.5958 18.219 54.6713 18.1974C54.6928 18.192 54.7144 18.1866 54.736 18.1813C54.7899 18.1678 54.8411 18.1516 54.8896 18.1381C54.9138 18.1301 54.9354 18.1247 54.9596 18.1166C55.0028 18.1031 55.0459 18.0896 55.0863 18.0762C55.1079 18.0681 55.1267 18.0627 55.1483 18.0546C55.1914 18.0411 55.2318 18.025 55.2723 18.0115C55.2857 18.0061 55.3019 18.0007 55.3154 17.9953C55.3693 17.9764 55.4205 17.9549 55.469 17.936L55.4852 17.9279C55.5283 17.9091 55.5714 17.8929 55.6145 17.874C55.6496 17.8579 55.6873 17.8444 55.7223 17.8282C55.7493 17.8174 55.7735 17.8067 55.8005 17.7959C55.8328 17.7824 55.8625 17.7689 55.8948 17.7555C55.9191 17.7447 55.9406 17.7366 55.9649 17.7258C55.9945 17.7123 56.0269 17.7016 56.0565 17.6881C56.0808 17.6773 56.105 17.6692 56.132 17.6584C56.167 17.645 56.202 17.6315 56.2397 17.618C56.264 17.6099 56.2883 17.6018 56.3125 17.5911C56.3583 17.5749 56.4095 17.5587 56.458 17.5426C56.4769 17.5372 56.4958 17.5291 56.5146 17.5237C56.5874 17.5021 56.6656 17.4779 56.7464 17.4536C56.7572 17.4509 56.7707 17.4482 56.7814 17.4455C56.8542 17.4267 56.9297 17.4051 57.0132 17.3836C57.0455 17.3755 57.0779 17.3674 57.1102 17.3593C57.1803 17.3431 57.2504 17.3243 57.3285 17.3081C57.3501 17.3027 57.3716 17.3 57.3932 17.2946C57.4983 17.2704 57.6088 17.2488 57.7301 17.2246C57.6223 17.3404 57.5172 17.4536 57.4121 17.5668C57.3932 17.5884 57.377 17.6072 57.3582 17.6288C57.183 17.8228 57.0105 18.0142 56.8488 18.2028C56.8273 18.2298 56.8057 18.254 56.7841 18.2783C56.644 18.4427 56.5066 18.6071 56.3772 18.7688C56.3314 18.8254 56.2856 18.8819 56.2397 18.9412C56.1293 19.0814 56.0215 19.2188 55.9191 19.3536C55.884 19.4021 55.8463 19.4479 55.8113 19.4964C55.6792 19.6743 55.5525 19.8467 55.4313 20.0192C55.4043 20.057 55.3801 20.092 55.3558 20.1297C55.2615 20.2672 55.1672 20.4046 55.0782 20.542C55.0432 20.5959 55.0082 20.6498 54.9758 20.701C54.8923 20.8331 54.8087 20.9678 54.7306 21.0972C54.709 21.1349 54.6848 21.1727 54.6632 21.2077C54.5662 21.3721 54.4746 21.5338 54.3856 21.6928C54.3614 21.7359 54.3398 21.779 54.3156 21.8221C54.2509 21.9434 54.1862 22.0647 54.1242 22.186C54.1 22.2372 54.073 22.2857 54.0488 22.3369C53.9814 22.4689 53.9194 22.6037 53.8574 22.7357C53.8466 22.76 53.8332 22.7869 53.8224 22.8139C53.7523 22.9675 53.6849 23.1211 53.6203 23.2747C53.6014 23.3205 53.5798 23.3691 53.561 23.4149C53.5152 23.5281 53.4693 23.6385 53.4235 23.7517C53.4047 23.8002 53.3858 23.8488 53.3669 23.8973C53.3103 24.0428 53.2564 24.1883 53.2025 24.3312C53.1971 24.3473 53.1918 24.3608 53.1864 24.377C53.1352 24.5198 53.084 24.6626 53.0354 24.8028C53.0193 24.8513 53.0031 24.9025 52.9842 24.951C52.9465 25.0615 52.9088 25.172 52.8738 25.2825C52.8603 25.3256 52.8441 25.3714 52.8306 25.4145C52.7821 25.5628 52.7336 25.711 52.6878 25.8592C52.677 25.8915 52.6662 25.9239 52.6581 25.9562C52.6123 26.0964 52.5692 26.2365 52.5234 26.3793L52.5099 26.4197C52.4803 26.5168 52.4479 26.6111 52.4183 26.7081C52.4021 26.762 52.3833 26.8159 52.3671 26.8698C52.3321 26.983 52.2943 27.0989 52.2566 27.2121C52.2458 27.2417 52.2377 27.274 52.227 27.3037C52.1326 27.5947 52.0356 27.8885 51.9305 28.1849C51.917 28.2227 51.9036 28.2577 51.8928 28.2954C51.8551 28.4059 51.8146 28.5164 51.7715 28.6269C51.7553 28.6754 51.7365 28.7212 51.7176 28.7697C51.6799 28.8722 51.6395 28.9773 51.599 29.0824C51.5802 29.1336 51.5586 29.1821 51.5397 29.2333C51.4966 29.3411 51.4508 29.4516 51.405 29.5621C51.3861 29.6079 51.3673 29.6537 51.3484 29.6995C51.2837 29.8558 51.2164 30.0121 51.1436 30.1711C50.3486 31.9498 49.1224 32.8661 46.6969 32.8661C46.5568 32.8661 46.422 32.8661 46.29 32.8661C46.2468 32.8661 46.2064 32.8661 46.1633 32.8661C46.0771 32.8661 45.9908 32.8661 45.9073 32.8688C45.8615 32.8688 45.8157 32.8688 45.7698 32.8688C45.6944 32.8688 45.6189 32.8715 45.5462 32.8742C45.5003 32.8742 45.4572 32.8742 45.4141 32.8769C45.3413 32.8769 45.2713 32.8823 45.2039 32.8823C45.1662 32.8823 45.1257 32.8823 45.088 32.8849C45.0045 32.8876 44.9263 32.893 44.8482 32.8957C44.8293 32.8957 44.8077 32.8957 44.7889 32.8957C44.6946 32.9011 44.6056 32.9065 44.5194 32.9119C44.4897 32.9119 44.4601 32.9173 44.4331 32.9173C44.3765 32.92 44.32 32.9254 44.2687 32.9308C44.2364 32.9308 44.2041 32.9362 44.1744 32.9388C44.1259 32.9442 44.0801 32.9469 44.0343 32.9523C44.0046 32.955 43.975 32.9577 43.9454 32.9631C43.9022 32.9685 43.8591 32.9739 43.8187 32.9793C43.7917 32.982 43.7675 32.9847 43.7432 32.9901C43.6974 32.9954 43.6516 33.0035 43.6085 33.0116C43.5923 33.0116 43.5761 33.017 43.56 33.0197C43.5034 33.0305 43.4495 33.0386 43.3983 33.0493C43.3821 33.052 43.3686 33.0574 43.3525 33.0601C43.3174 33.0682 43.2824 33.0763 43.2501 33.0844C43.2339 33.0898 43.2177 33.0925 43.1989 33.0979C43.1719 33.1059 43.145 33.114 43.118 33.1221C43.1018 33.1275 43.0857 33.1329 43.0722 33.1356C43.0614 33.1383 43.0506 33.141 43.0425 33.1464C43.0345 33.1491 43.0264 33.1518 43.0183 33.1571C42.986 33.1679 42.9563 33.1814 42.9267 33.1949C42.9159 33.2003 42.9024 33.2057 42.8916 33.211C42.8539 33.2299 42.8216 33.2488 42.7919 33.2676C42.7757 33.1841 42.7596 33.0898 42.7434 32.9901C42.7272 32.8957 42.7138 32.7906 42.7003 32.6828C42.6949 32.6505 42.6922 32.6155 42.6868 32.5804C42.676 32.5023 42.6679 32.4241 42.6572 32.3406C42.6518 32.2948 42.6464 32.2435 42.641 32.195C42.6329 32.1196 42.6248 32.0414 42.6167 31.9633C42.6114 31.9094 42.606 31.8528 42.6006 31.7962C42.5925 31.7153 42.5871 31.6345 42.579 31.5509C42.5736 31.4917 42.5682 31.4324 42.5628 31.3731C42.5548 31.2841 42.5494 31.1952 42.5413 31.1036C42.5359 31.0443 42.5332 30.985 42.5278 30.9257C42.5197 30.8206 42.5116 30.7128 42.5062 30.6023C42.5036 30.5538 42.5009 30.5053 42.4955 30.4568C42.4847 30.2951 42.4739 30.1307 42.4658 29.9636C42.455 29.7938 42.4443 29.6321 42.4335 29.4731C42.4308 29.43 42.4281 29.3896 42.4254 29.3492C42.4146 29.2063 42.4065 29.0662 42.3958 28.9314V28.8937C42.3823 28.7482 42.3715 28.6107 42.3607 28.4733C42.358 28.4356 42.3553 28.3978 42.3526 28.3628C42.3419 28.2388 42.3311 28.1149 42.323 27.9963V27.964C42.3095 27.8346 42.2987 27.7079 42.2853 27.584C42.2826 27.5516 42.2799 27.522 42.2772 27.4923C42.2664 27.3792 42.2556 27.266 42.2448 27.1555V27.1366C42.2314 27.0153 42.2179 26.8941 42.2071 26.7755L42.199 26.7054C42.1882 26.5949 42.1775 26.4844 42.1667 26.3766C42.1613 26.3173 42.1559 26.258 42.1478 26.1988C42.1451 26.1637 42.1397 26.126 42.137 26.091L42.129 26.0074C42.1209 25.94 42.1155 25.8727 42.1074 25.8053C42.1047 25.773 42.102 25.7406 42.0966 25.7083C42.0912 25.6409 42.0831 25.5735 42.0778 25.5035L42.0697 25.4172C42.0616 25.331 42.0535 25.2421 42.0454 25.1531V25.1289C42.0346 25.0318 42.0266 24.9321 42.0185 24.8297C42.0185 24.8082 42.0158 24.7866 42.0131 24.765C42.0077 24.6896 41.9996 24.6114 41.9942 24.5333C41.9942 24.5009 41.9888 24.4686 41.9861 24.4336C41.9807 24.3608 41.9753 24.2907 41.97 24.2153C41.97 24.1829 41.9646 24.1479 41.9619 24.1156C41.9565 24.0239 41.9484 23.9323 41.943 23.8353C41.943 23.8218 41.943 23.8056 41.9403 23.7922C41.9349 23.6817 41.9268 23.5712 41.9214 23.4553C41.9214 23.4256 41.9187 23.396 41.9161 23.3664C41.9107 23.2801 41.908 23.1912 41.9026 23.0996C41.9026 23.0618 41.8999 23.0214 41.8972 22.9837C41.8945 22.8974 41.8891 22.8112 41.8864 22.7223C41.8864 22.6818 41.8837 22.6414 41.881 22.601C41.8756 22.4824 41.8729 22.3584 41.8702 22.2345V22.2102C41.8648 22.0755 41.8622 21.9353 41.8595 21.7925C41.8595 21.7521 41.8595 21.709 41.8595 21.6685C41.8595 21.5634 41.8568 21.4556 41.8541 21.3478C41.8541 21.2966 41.8541 21.2454 41.8541 21.1915C41.8541 21.0837 41.8541 20.9732 41.8514 20.8627C41.8514 20.8115 41.8514 20.7603 41.8514 20.7064C41.8514 20.5447 41.8514 20.3777 41.8514 20.2052C41.8514 20.0435 41.8514 19.8899 41.8514 19.7416C41.8514 19.6958 41.8514 19.6527 41.8514 19.6069C41.8514 19.4964 41.8514 19.3859 41.8487 19.2808C41.8487 19.2431 41.8487 19.2053 41.8487 19.1676C41.8487 19.0733 41.846 18.9817 41.8433 18.8927C41.8433 18.7229 41.8379 18.5613 41.8352 18.4049C41.8352 18.3753 41.8352 18.3457 41.8352 18.3187C41.8352 18.2244 41.8352 18.1301 41.8352 18.0384C41.8352 18.0034 41.8352 17.9684 41.8352 17.936C41.8352 17.8471 41.8352 17.7582 41.8352 17.6719C41.8352 17.645 41.8352 17.6153 41.8352 17.5884C41.8379 17.3674 41.846 17.1545 41.8568 16.9524C41.8568 16.9254 41.8622 16.8985 41.8622 16.8688C41.8675 16.7961 41.8729 16.7233 41.881 16.6532C41.8837 16.6209 41.8864 16.5885 41.8918 16.5562C41.8999 16.4888 41.908 16.4215 41.9161 16.3568C41.9214 16.3244 41.9241 16.2948 41.9295 16.2625C41.9403 16.187 41.9538 16.1115 41.97 16.0361C41.9726 16.0172 41.9753 15.9983 41.9807 15.9795C41.9996 15.8852 42.0212 15.7908 42.0454 15.6965C42.0508 15.675 42.0562 15.6561 42.0616 15.6345C42.0804 15.5618 42.102 15.489 42.1263 15.4135C42.137 15.3812 42.1478 15.3489 42.1586 15.3165C42.1802 15.2518 42.2017 15.1872 42.226 15.1225C42.2394 15.0874 42.2502 15.0551 42.2637 15.0201C42.2907 14.9527 42.3176 14.8826 42.3472 14.8153C42.3607 14.7829 42.3742 14.7533 42.3877 14.7209C42.4335 14.6212 42.4793 14.5188 42.5305 14.4164C43.118 13.2306 43.9076 12.2604 44.6487 11.77C44.5005 11.4924 44.3577 11.2256 44.2202 10.9615C44.1744 10.8752 44.1313 10.789 44.0882 10.7054C43.9993 10.533 43.9103 10.3605 43.8268 10.1907C43.7783 10.091 43.7298 9.99667 43.6839 9.89966C43.6112 9.74874 43.5357 9.60052 43.4657 9.45499C43.4171 9.35528 43.3713 9.25556 43.3228 9.15585C43.2581 9.0184 43.1935 8.87827 43.1315 8.74352C43.0857 8.6438 43.0425 8.54679 42.9967 8.44977C42.9374 8.31772 42.8782 8.18566 42.8216 8.0563C42.7784 7.95929 42.738 7.86496 42.6976 7.76794C42.641 7.63859 42.5871 7.50923 42.5332 7.37987C42.4955 7.28824 42.455 7.19661 42.42 7.10499C42.3661 6.97563 42.3149 6.84627 42.2637 6.71691C42.2287 6.62798 42.1936 6.54174 42.1586 6.4528C42.1047 6.31806 42.0535 6.18331 42.005 6.04856C41.9753 5.97041 41.943 5.88956 41.9161 5.8114C41.8595 5.66049 41.8056 5.50957 41.7517 5.35865C41.7301 5.29397 41.7058 5.23199 41.6816 5.16731C41.528 4.73612 41.3798 4.29953 41.2315 3.85217C41.2073 3.7821 41.1857 3.70934 41.1615 3.63657C41.1103 3.48296 41.0591 3.32665 41.0079 3.17035C40.9782 3.07872 40.9459 2.9817 40.9162 2.88738C40.8731 2.74993 40.8273 2.60979 40.7815 2.46966C40.7464 2.35647 40.7087 2.23789 40.671 2.12201C40.6306 1.99804 40.5928 1.87138 40.5524 1.74471C40.4958 1.56415 40.4392 1.38359 40.3799 1.19764L40.3233 1.01438L40.2371 0.739494C40.2021 0.626306 40.167 0.515813 40.1293 0.399929C40.0916 0.278656 40.0511 0.157383 40.0134 0.0334152L40.0026 0.00107574H39.973L39.9514 0.0657547C39.9164 0.178943 39.8814 0.289436 39.8463 0.399929C39.8355 0.434964 39.8248 0.472693 39.8113 0.507728L39.7709 0.637086C39.7412 0.734104 39.7089 0.831123 39.6792 0.925446C39.6199 1.1114 39.5607 1.29466 39.5041 1.47791C39.469 1.58841 39.434 1.70159 39.399 1.81209C39.3505 1.96031 39.3046 2.10853 39.2561 2.25406C39.2184 2.36994 39.1807 2.48583 39.1456 2.59902C39.1025 2.73646 39.0567 2.87121 39.0136 3.00595C38.9759 3.12184 38.9381 3.23503 38.9004 3.34821C38.8573 3.48027 38.8142 3.60962 38.771 3.73898C38.7333 3.85217 38.6956 3.96536 38.6578 4.07585C38.6147 4.20251 38.5716 4.32918 38.5285 4.45584C38.4908 4.56633 38.453 4.67683 38.4153 4.78463C38.3722 4.91129 38.3264 5.03526 38.2832 5.15922C38.2455 5.26702 38.2078 5.37482 38.1674 5.47993C38.1216 5.60389 38.0757 5.72786 38.0299 5.84913C37.9895 5.95424 37.9518 6.06204 37.9113 6.16714C37.8655 6.29111 37.817 6.41238 37.7712 6.53365C37.7308 6.63876 37.6904 6.74386 37.6499 6.84896C37.6014 6.97293 37.5502 7.0969 37.5017 7.21817C37.4586 7.32058 37.4182 7.42568 37.375 7.52809C37.3238 7.65206 37.2699 7.77872 37.216 7.90269C37.1729 8.0051 37.1298 8.10751 37.084 8.20992C37.0274 8.33927 36.9708 8.46863 36.9115 8.59799C36.8657 8.6977 36.8226 8.79742 36.7768 8.89713C36.7148 9.03188 36.6501 9.16663 36.5881 9.30138C36.5423 9.39839 36.4965 9.49541 36.4507 9.59243C36.3833 9.73526 36.3105 9.88079 36.2378 10.0236C36.192 10.1153 36.1488 10.2069 36.1003 10.2985C36.0195 10.4602 35.9333 10.6246 35.8497 10.7863C35.8093 10.8645 35.7689 10.9426 35.7284 11.0208C35.5991 11.266 35.467 11.5112 35.3296 11.7619C36.1003 12.2524 36.8603 13.2225 37.4478 14.4083C37.499 14.5134 37.5475 14.6131 37.5906 14.7155C37.6041 14.7479 37.6176 14.7802 37.6311 14.8153C37.6607 14.8826 37.6877 14.95 37.7119 15.0174C37.7254 15.0551 37.7389 15.0901 37.7523 15.1279C37.7766 15.1926 37.7982 15.2545 37.817 15.3192C37.8278 15.3542 37.8413 15.3893 37.8521 15.4243C37.8736 15.4944 37.8925 15.5645 37.9113 15.6345C37.9194 15.6615 37.9275 15.6884 37.9329 15.7154C37.9572 15.8097 37.9787 15.9067 37.9976 16.001C38.003 16.0253 38.0057 16.0495 38.0111 16.0738C38.0245 16.1466 38.038 16.2193 38.0488 16.2921C38.0542 16.3271 38.0596 16.3649 38.065 16.3999C38.073 16.4619 38.0811 16.5266 38.0892 16.5885C38.0946 16.6263 38.0973 16.664 38.1 16.7017C38.1054 16.7664 38.1108 16.8338 38.1162 16.8985C38.1162 16.9335 38.1216 16.9685 38.1242 17.0063C38.1296 17.0898 38.1323 17.176 38.1377 17.265C38.1377 17.2838 38.1377 17.3 38.1377 17.3189C38.1404 17.424 38.1431 17.5318 38.1458 17.6396C38.1458 17.6773 38.1458 17.7177 38.1458 17.7555C38.1458 17.8309 38.1458 17.9064 38.1458 17.9845C38.1458 18.0303 38.1458 18.0735 38.1458 18.1193C38.1458 18.1947 38.1458 18.2729 38.1458 18.351C38.1458 18.3969 38.1458 18.4454 38.1458 18.4912C38.1458 18.5828 38.1431 18.6771 38.1404 18.7742C38.1404 18.8092 38.1404 18.8442 38.1404 18.8819C38.1404 18.9844 38.1377 19.0868 38.135 19.1919C38.135 19.2404 38.135 19.2916 38.135 19.3401C38.135 19.4317 38.135 19.526 38.1323 19.6231C38.1323 19.6689 38.1323 19.7174 38.1323 19.7659C38.1323 19.9087 38.1323 20.0543 38.1323 20.2052C38.1323 20.3777 38.1323 20.5447 38.1323 20.7064C38.1323 20.7603 38.1323 20.8115 38.1323 20.8627C38.1323 20.9732 38.1323 21.0837 38.1296 21.1915C38.1296 21.2427 38.1296 21.2966 38.1296 21.3478C38.1296 21.4583 38.1269 21.5634 38.1242 21.6685C38.1242 21.709 38.1242 21.7521 38.1242 21.7925C38.1216 21.9353 38.1189 22.0755 38.1135 22.2102V22.2345C38.1081 22.3611 38.1054 22.4824 38.1 22.601C38.1 22.6414 38.0973 22.6818 38.0946 22.7223C38.0919 22.8112 38.0865 22.8974 38.0838 22.9837C38.0838 23.0241 38.0811 23.0618 38.0784 23.0996C38.073 23.1912 38.0704 23.2774 38.065 23.3664C38.065 23.396 38.0623 23.4256 38.0596 23.4553C38.0542 23.5685 38.0461 23.6817 38.0407 23.7922C38.0407 23.8056 38.0407 23.8218 38.038 23.8353C38.0326 23.9296 38.0272 24.0239 38.0191 24.1156C38.0191 24.1479 38.0138 24.1829 38.0111 24.2153C38.0057 24.288 38.0003 24.3608 37.9949 24.4336C37.9949 24.4659 37.9895 24.5009 37.9868 24.5333C37.9814 24.6114 37.9733 24.6896 37.9679 24.765C37.9679 24.7866 37.9652 24.8082 37.9626 24.8297C37.9545 24.9294 37.9464 25.0291 37.9356 25.1289V25.1531C37.9248 25.2421 37.9167 25.3283 37.9087 25.4172L37.9006 25.5035C37.8952 25.5708 37.8871 25.6382 37.8817 25.7083C37.879 25.7406 37.8763 25.773 37.8709 25.8053C37.8655 25.8727 37.8574 25.94 37.8494 26.0074L37.8413 26.091C37.8386 26.126 37.8332 26.1637 37.8305 26.1988C37.8251 26.258 37.8197 26.3173 37.8116 26.3766C37.8009 26.4844 37.7901 26.5949 37.7793 26.7054L37.7712 26.7755C37.7604 26.8941 37.747 27.0153 37.7362 27.1366V27.1555C37.7227 27.266 37.7119 27.3792 37.7011 27.4923C37.6984 27.5247 37.6958 27.5543 37.6931 27.5867C37.6823 27.7079 37.6715 27.8346 37.658 27.9613V28.0071C37.6445 28.123 37.6338 28.2388 37.623 28.3601C37.6203 28.3978 37.6176 28.4356 37.6149 28.4733C37.6041 28.6107 37.5933 28.7482 37.5826 28.8937V28.9314C37.5691 29.0662 37.561 29.2063 37.5502 29.3492C37.5475 29.3896 37.5448 29.4327 37.5421 29.4731C37.5314 29.6321 37.5206 29.7938 37.5098 29.9636C37.499 30.1361 37.4882 30.3032 37.4775 30.4703C37.4775 30.4999 37.4748 30.5269 37.4721 30.5538C37.464 30.6886 37.4532 30.8179 37.4451 30.9473C37.4424 30.9877 37.4397 31.0281 37.437 31.0686C37.429 31.1817 37.4209 31.2922 37.4101 31.4C37.4074 31.4458 37.402 31.4917 37.3993 31.5348C37.3912 31.6318 37.3831 31.7288 37.375 31.8204C37.3697 31.8663 37.367 31.9121 37.3616 31.9579C37.3535 32.0468 37.3427 32.1331 37.3346 32.2166C37.3292 32.2597 37.3265 32.3001 37.3211 32.3406C37.3104 32.4295 37.2996 32.5157 37.2915 32.5966C37.2888 32.6262 37.2834 32.6586 37.2807 32.6855C37.2673 32.796 37.2511 32.8984 37.2376 32.9954C37.2214 33.0952 37.2053 33.1895 37.1891 33.273C37.1595 33.2542 37.1244 33.2353 37.0894 33.2164C37.0786 33.211 37.0651 33.2057 37.0544 33.2003C37.0247 33.1868 36.9951 33.176 36.9627 33.1625C36.9546 33.1598 36.9492 33.1571 36.9385 33.1518C36.9277 33.1491 36.9169 33.1464 36.9088 33.141C36.8927 33.1356 36.8792 33.1302 36.863 33.1248C36.8388 33.1167 36.8118 33.1086 36.7849 33.1032C36.7687 33.0979 36.7498 33.0952 36.7337 33.0898C36.7013 33.0817 36.669 33.0736 36.6339 33.0655C36.6178 33.0628 36.6016 33.0574 36.5854 33.0547C36.5342 33.044 36.4803 33.0332 36.4237 33.0251C36.4076 33.0224 36.3887 33.0197 36.3698 33.017C36.3267 33.0116 36.2863 33.0035 36.2405 32.9981C36.2135 32.9954 36.1866 32.9901 36.1623 32.9874C36.1219 32.982 36.0815 32.9766 36.0384 32.9712C36.0087 32.9685 35.9791 32.9658 35.9467 32.9604C35.9036 32.955 35.8578 32.9523 35.8093 32.9469C35.7769 32.9442 35.7446 32.9415 35.7123 32.9388C35.6611 32.9335 35.6045 32.9308 35.5506 32.9254C35.5209 32.9254 35.4913 32.92 35.4616 32.92C35.3754 32.9146 35.2865 32.9092 35.1921 32.9038C35.1733 32.9038 35.1517 32.9038 35.1302 32.9011C35.052 32.8984 34.9738 32.893 34.893 32.8903C34.8553 32.8903 34.8148 32.8903 34.7771 32.8876C34.7097 32.8876 34.6397 32.8823 34.5669 32.8823C34.5238 32.8823 34.478 32.8823 34.4349 32.8796C34.3621 32.8796 34.2893 32.8769 34.2112 32.8742C34.1654 32.8742 34.1195 32.8742 34.0737 32.8742C33.9902 32.8742 33.9039 32.8742 33.8177 32.8715C33.7746 32.8715 33.7342 32.8715 33.691 32.8715C33.559 32.8715 33.4242 32.8715 33.2841 32.8715C30.8586 32.8715 29.6324 31.9552 28.8374 30.1765C28.7674 30.0175 28.7 29.8612 28.6326 29.7049C28.6137 29.6591 28.5949 29.6133 28.576 29.5675C28.5302 29.457 28.4871 29.3465 28.444 29.2387C28.4224 29.1875 28.4035 29.1363 28.3847 29.0851C28.3442 28.9827 28.3038 28.8775 28.2661 28.7751C28.2472 28.7266 28.2284 28.6781 28.2122 28.6296C28.1718 28.5191 28.1313 28.4113 28.0936 28.3008C28.0801 28.2631 28.0667 28.2254 28.0532 28.1876C27.9481 27.8912 27.8511 27.5974 27.7567 27.3091C27.746 27.274 27.7352 27.2417 27.7244 27.2067C27.6894 27.0962 27.6516 26.983 27.6166 26.8725C27.6004 26.8186 27.5816 26.7647 27.5654 26.7108C27.5358 26.6165 27.5061 26.5249 27.4765 26.4332L27.4603 26.3847C27.4145 26.2419 27.3687 26.0964 27.3229 25.9535C27.3148 25.9239 27.304 25.8942 27.2959 25.8646C27.2474 25.7164 27.2016 25.5681 27.1531 25.4172C27.1396 25.3741 27.1234 25.331 27.11 25.2852C27.0722 25.1747 27.0372 25.0615 26.9968 24.951C26.9806 24.9025 26.9644 24.854 26.9456 24.8055C26.8944 24.6599 26.8459 24.5144 26.792 24.3716L26.7812 24.3392C26.7273 24.191 26.6707 24.0455 26.6141 23.8973C26.5952 23.8514 26.5764 23.8029 26.5602 23.7571C26.5144 23.6439 26.4686 23.5308 26.42 23.4149C26.4012 23.3691 26.3823 23.3232 26.3635 23.2774C26.2988 23.1238 26.2314 22.9702 26.1586 22.8139C26.1479 22.7896 26.1371 22.7681 26.1263 22.7438C26.0643 22.6091 25.9996 22.4743 25.9323 22.3396C25.908 22.2911 25.8838 22.2399 25.8568 22.1914C25.7948 22.0701 25.7301 21.9461 25.6628 21.8221C25.6412 21.7817 25.6196 21.7386 25.5954 21.6982C25.5065 21.5365 25.4148 21.3748 25.3178 21.2104C25.2963 21.1754 25.2747 21.1403 25.2531 21.1026C25.1723 20.9705 25.0914 20.8358 25.0052 20.701C24.9729 20.6498 24.9378 20.5959 24.9055 20.5447C24.8165 20.4073 24.7222 20.2672 24.6252 20.1243C24.601 20.0893 24.5794 20.0543 24.5551 20.0192C24.4339 19.8467 24.3072 19.6689 24.1751 19.491C24.1401 19.4452 24.1051 19.3994 24.07 19.3536C23.9649 19.2161 23.8571 19.076 23.744 18.9332C23.7008 18.8793 23.655 18.8227 23.6119 18.7661C23.4772 18.6017 23.3397 18.4346 23.1942 18.2648C23.1753 18.2432 23.1565 18.2217 23.1376 18.1974C22.9732 18.0088 22.8034 17.8147 22.6255 17.618C22.6067 17.5991 22.5905 17.5776 22.5716 17.5587C22.4692 17.4455 22.3641 17.3323 22.2536 17.2165C22.3749 17.2407 22.4827 17.2623 22.5878 17.2865C22.6094 17.2919 22.6336 17.2973 22.6552 17.3C22.7306 17.3162 22.798 17.3323 22.8654 17.3485C22.9004 17.3566 22.9355 17.3647 22.9705 17.3728C23.0487 17.3916 23.1241 17.4132 23.1942 17.4321C23.2077 17.4348 23.2238 17.4401 23.2346 17.4428C23.3182 17.4671 23.3936 17.4887 23.4664 17.5129C23.4879 17.5183 23.5068 17.5264 23.5257 17.5318C23.5742 17.5479 23.6227 17.5641 23.6685 17.5803C23.6927 17.5884 23.717 17.5965 23.7413 17.6072C23.779 17.6207 23.814 17.6342 23.8491 17.6477C23.8733 17.6584 23.8976 17.6665 23.9218 17.6746C23.9542 17.6881 23.9865 17.6989 24.0161 17.7123C24.0404 17.7231 24.062 17.7312 24.0862 17.742C24.1186 17.7555 24.1482 17.7689 24.1805 17.7797C24.2156 17.7932 24.2479 17.8094 24.2829 17.8228C24.3126 17.8336 24.3395 17.8471 24.3692 17.8579C24.4123 17.8767 24.4554 17.8929 24.4985 17.9118L24.5201 17.9198C24.5686 17.9387 24.6198 17.9603 24.6737 17.9791C24.6872 17.9845 24.7034 17.9899 24.7195 17.9953C24.76 18.0088 24.7977 18.025 24.8408 18.0384C24.8624 18.0465 24.8812 18.0519 24.9028 18.06C24.9432 18.0735 24.9836 18.0869 25.0268 18.1004C25.051 18.1085 25.0726 18.1139 25.0968 18.122C25.1453 18.1354 25.1965 18.1489 25.2477 18.1651C25.2693 18.1705 25.2909 18.1759 25.3151 18.184C25.3906 18.2028 25.4687 18.2217 25.555 18.2432H25.5684C25.5846 18.2486 25.6035 18.254 25.6196 18.2567C25.6978 18.2729 25.7786 18.2918 25.8649 18.3079L26.0239 18.1354C25.9727 18.1193 25.9242 18.0977 25.873 18.0789C25.8487 18.0681 25.8272 18.06 25.8029 18.0492C25.7652 18.033 25.7247 18.0142 25.687 17.9953C25.6143 17.9576 25.5415 17.9172 25.4687 17.874C25.4526 17.8633 25.4364 17.8525 25.4202 17.8444C25.3609 17.8067 25.3043 17.7689 25.245 17.7285C25.2235 17.715 25.2019 17.6989 25.1831 17.6827C25.113 17.6315 25.0456 17.5803 24.9755 17.5237L24.9648 17.5156C24.892 17.4563 24.8192 17.3943 24.7465 17.3297C24.7249 17.3108 24.7034 17.2919 24.6818 17.2704C24.6252 17.2192 24.5686 17.168 24.5093 17.1141C24.4905 17.0979 24.4716 17.079 24.4527 17.0629C24.38 16.9955 24.3072 16.9254 24.2317 16.8526C24.2102 16.8311 24.1859 16.8095 24.1644 16.7853C24.1078 16.7287 24.0485 16.6721 23.9892 16.6128C23.9622 16.5858 23.938 16.5616 23.911 16.5346C23.8464 16.47 23.7817 16.4026 23.7143 16.3379C23.6362 16.2598 23.5553 16.1789 23.4745 16.0981C23.461 16.0846 23.4448 16.0684 23.4286 16.0522C23.3721 15.9957 23.3181 15.9418 23.2616 15.8852C23.2346 15.8582 23.2077 15.834 23.1807 15.807C23.1322 15.7585 23.0837 15.7127 23.0352 15.6642C23.0055 15.6345 22.9759 15.6076 22.9462 15.5779C22.9004 15.5321 22.8519 15.4863 22.8034 15.4405C22.7711 15.4108 22.7387 15.3785 22.7064 15.3489C22.6579 15.303 22.6094 15.2599 22.5609 15.2141C22.5285 15.1845 22.4935 15.1521 22.4585 15.1225C22.4073 15.0767 22.3561 15.0309 22.3022 14.985C22.2698 14.9554 22.2375 14.9284 22.2051 14.8988C22.1458 14.8476 22.0866 14.7964 22.0246 14.7452C21.9976 14.7209 21.968 14.6967 21.941 14.6751C21.8521 14.6024 21.7605 14.5269 21.6688 14.4541C21.6554 14.4434 21.6419 14.4326 21.6257 14.4218C21.5449 14.3598 21.464 14.2978 21.3832 14.2358C21.3508 14.2116 21.3158 14.1873 21.2808 14.1631C21.2161 14.1173 21.1514 14.0688 21.084 14.0229C21.0436 13.996 21.0032 13.969 20.9628 13.9421C20.9008 13.899 20.8361 13.8559 20.7714 13.8154C20.7283 13.7885 20.6852 13.7588 20.6394 13.7319C20.5747 13.6915 20.51 13.651 20.4426 13.6106C20.3968 13.5837 20.351 13.5567 20.3052 13.5298C20.2378 13.4893 20.1677 13.4516 20.1004 13.4139C20.0546 13.3869 20.006 13.3627 19.9575 13.3357C19.8848 13.2953 19.8093 13.2576 19.7339 13.2198C19.688 13.1956 19.6422 13.174 19.5964 13.1498C19.5075 13.1067 19.4159 13.0635 19.3215 13.0231C19.2865 13.0069 19.2542 12.9908 19.2191 12.9746C19.0898 12.918 18.9604 12.8641 18.8257 12.8129H18.8176C18.699 12.7617 18.5777 12.7186 18.4538 12.6755C18.4753 12.7186 18.4942 12.759 18.513 12.7967L18.5319 12.8372L18.5103 12.8533Z" fill="#044E65"/>
<path d="M23.5715 38.574C23.8787 39.0052 25.0833 41.1477 25.9969 41.8322C27.0749 42.6407 31.5216 43.1797 34.7556 44.1229C35.3808 44.3061 35.4293 44.7966 35.4293 44.7966C35.4293 44.7966 35.9171 41.8025 33.4081 41.0237C30.8991 40.2448 25.4391 39.8864 23.5715 38.574Z" fill="#044E65"/>
<path d="M44.576 44.7966C44.576 44.7966 44.6245 44.3061 45.2497 44.1229C48.4837 43.1797 52.9303 42.6407 54.0083 41.8322C54.9219 41.1477 56.1266 39.0052 56.4338 38.574C54.5662 39.8864 49.1062 40.2448 46.5972 41.0237C44.0882 41.8025 44.576 44.7966 44.576 44.7966Z" fill="#044E65"/>
<path d="M31.4192 57.9157C33.0685 57.3983 32.3651 54.7949 30.7023 55.3178H30.6997C26.8216 56.5386 23.5176 59.5192 21.6257 63.0846C20.4534 65.2918 19.7905 67.6661 19.2434 70.0888C20.0438 70.5874 20.8658 71.059 21.7039 71.4983C22.1135 69.6927 22.4773 67.879 23.1646 66.1407C24.6225 62.454 27.5519 59.1311 31.4165 57.9157H31.4192Z" fill="#044E65"/>
<path d="M27.4927 54.1428C29.142 53.6253 28.4386 51.022 26.7758 51.5448H26.7731C22.8951 52.7656 19.591 55.7463 17.6992 59.3117C16.4379 61.6886 15.7642 64.2569 15.1929 66.871C15.174 66.9627 15.1524 67.057 15.1336 67.1513C15.8963 67.7739 16.6832 68.3694 17.4944 68.9327C18.0441 66.7336 18.4026 64.4914 19.2434 62.3678C20.7014 58.6811 23.6308 55.3582 27.4953 54.1428H27.4927Z" fill="#044E65"/>
<path d="M49.753 55.3178C48.0956 54.7949 47.3841 57.3956 49.0362 57.9157H49.0335C52.898 59.1311 55.8248 62.4567 57.2854 66.1407C57.9457 67.8089 58.3095 69.5417 58.703 71.2746C59.5384 70.8219 60.355 70.3421 61.15 69.8328C60.611 67.5017 59.9588 65.219 58.8269 63.0846C56.9351 59.5192 53.6284 56.5386 49.753 55.3178Z" fill="#044E65"/>
<path d="M53.5044 51.5448C51.847 51.022 51.1355 53.6226 52.7875 54.1427H52.7848C56.6494 55.3582 59.5761 58.6838 61.0368 62.3678C61.8561 64.4375 62.2226 66.6123 62.7454 68.7548C63.5539 68.1808 64.3381 67.5771 65.1008 66.9438C64.5187 64.3081 63.8557 61.7129 62.5783 59.309C60.6864 55.7436 57.3797 52.7629 53.5044 51.5421V51.5448Z" fill="#044E65"/>
<path d="M53.3858 65.2352C51.6179 62.1279 48.4352 60.0555 44.9209 59.4788C42.1236 59.0179 39.1564 59.0637 36.351 59.3791C33.3272 59.7186 30.3196 61.1254 28.3523 63.4835C26.6356 65.537 25.5496 68.2778 24.7492 70.803C24.5497 71.4336 24.3934 72.075 24.2425 72.7164C25.0833 73.0829 25.9376 73.4225 26.8081 73.7324C27.3741 71.5845 27.975 69.5148 28.9991 67.4909C30.5083 64.5022 33.0146 62.6184 36.3132 62.0848C36.3698 62.0794 36.5935 62.0498 36.6717 62.0444C37.7389 61.9608 38.8061 61.8988 39.876 61.8854C41.2989 61.8692 42.7434 61.8961 44.1609 62.074C44.2391 62.0875 44.4116 62.1117 44.4763 62.1252C44.708 62.1764 44.9425 62.2222 45.1743 62.2788C45.8722 62.454 46.5568 62.6885 47.2036 63.0038C49.028 63.8877 50.3216 65.2298 51.281 67.0004C52.4075 69.0809 53.2645 71.2207 53.8439 73.4899C54.709 73.1638 55.5579 72.8107 56.3907 72.428C56.3583 72.2987 56.326 72.172 56.291 72.0453C55.6415 69.6846 54.5958 67.3615 53.3858 65.2352Z" fill="#044E65"/>
<path d="M36.9088 70.9701C35.2784 72.1424 34.3432 73.7297 33.7719 75.5084C34.6693 75.6512 35.5775 75.7617 36.4938 75.8426C36.6043 75.5704 36.7283 75.3036 36.8711 75.0422C38.4423 72.1801 41.3879 71.66 43.2932 74.4439C43.587 74.8724 43.8187 75.3278 44.0047 75.7967C44.9263 75.7024 45.8372 75.5758 46.7401 75.4194C46.4894 74.6622 46.1606 73.9264 45.7133 73.2258C43.7729 70.1778 40.0296 68.7252 36.9088 70.9674V70.9701Z" fill="#044E65"/>
<path d="M39.1322 75.9881C39.4178 75.9935 39.7035 75.9989 39.9918 75.9989C40.512 75.9989 41.0294 75.9854 41.5441 75.9666C41.4175 75.848 41.28 75.7402 41.1264 75.6566C40.2694 75.185 39.6253 75.4303 39.1349 75.9881H39.1322Z" fill="#044E65"/>
<path d="M48.0767 67.3939C46.6538 65.944 44.7619 64.9226 42.7542 64.5938C40.1347 64.1626 37.2295 64.3432 34.8526 65.6017C31.3357 67.4666 30.0529 70.9135 29.1204 74.4762C29.9855 74.7241 30.8641 74.9424 31.7534 75.1311C31.8181 74.8858 31.8854 74.6433 31.9528 74.3981C32.7128 71.6708 33.6183 69.213 36.3348 67.8547C37.9653 67.0408 39.5742 67.0004 41.4445 67.1432C42.9482 67.2591 44.6218 67.8278 45.9046 69.0351C47.5836 70.617 48.2331 72.8188 48.7774 75.0125C49.6479 74.8131 50.5049 74.5867 51.3511 74.3307C51.2271 73.8429 51.0978 73.3578 50.9577 72.8781C50.3513 70.803 49.6263 68.9677 48.0794 67.3912L48.0767 67.3939Z" fill="#044E65"/>
<path d="M62.2253 50.5396C61.1877 48.7151 61.0314 46.8529 61.689 44.926C62.3465 43.0018 63.2844 41.2313 63.3841 39.1561C63.4488 37.7898 63.1146 36.5016 62.6726 35.2215C61.3171 31.2949 61.5084 27.0558 62.8694 23.1265C64.3651 18.8065 67.6583 15.4432 70.329 11.8373V11.832C70.3613 11.7888 70.391 11.743 70.4152 11.6999C69.9355 11.1151 69.4397 10.5465 68.9276 9.9913C68.6177 10.0479 68.3213 10.2123 68.0922 10.5222C64.8421 14.9123 61.1176 18.8685 59.8187 24.3393C59.2312 26.824 58.9671 29.5001 59.25 32.0441C59.4198 33.591 59.8564 34.9089 60.3631 36.4531C60.8697 37.9973 60.9128 39.4095 60.4223 40.9833C59.7783 43.0611 58.6545 44.9557 58.6356 47.1898C58.6006 51.1622 61.7456 54.6333 64.1764 57.4657C65.7961 59.3521 67.4966 61.1793 69.2726 62.923C69.852 62.2789 70.4099 61.6159 70.9462 60.9341C69.0058 59.0153 67.1409 57.0048 65.3945 54.9136C64.2384 53.5337 63.1146 52.1 62.2226 50.5316L62.2253 50.5396Z" fill="#044E65"/>
<path d="M70.3694 50.6555C69.4289 49.5236 68.5234 48.3324 67.8254 47.0307C67.0061 45.5054 67.0088 44.0744 67.4885 42.4385C67.9413 40.8889 68.4641 39.3582 68.3886 37.717C68.3401 36.6686 68.0625 35.6796 67.8038 34.6717C67.0034 31.5509 67.537 27.91 68.871 25.1234C70.205 22.3369 72.3772 20.127 74.2043 17.6746H74.1962C74.2555 17.5964 74.3013 17.5183 74.3391 17.4401C74.0372 16.9038 73.7246 16.3756 73.4012 15.8555C72.9054 15.7369 72.3394 15.8555 71.9621 16.3648C69.6687 19.4425 67.0573 22.1374 65.7961 25.8538C64.7046 29.0716 64.5483 32.513 65.4188 35.7847C65.7368 36.9786 65.9281 38.0862 65.6802 39.3205C65.3379 41.021 64.5726 42.5948 64.524 44.3547C64.4378 47.6317 66.8579 50.5046 68.8629 52.8599C70.2077 54.4392 71.6387 55.9618 73.1452 57.3848C73.2099 57.4468 73.2773 57.4953 73.3446 57.5411C73.8136 56.7973 74.2555 56.0346 74.6732 55.2585C73.1587 53.8086 71.7142 52.2644 70.3748 50.6528L70.3694 50.6555Z" fill="#044E65"/>
<path d="M73.0186 41.4118C73.0266 39.8972 73.5171 38.4312 73.4498 36.9031C73.4013 35.7632 73.1344 34.6502 73.1371 33.5075C73.1371 31.9229 73.5198 30.2816 74.1963 28.8479C74.994 27.1582 76.2337 25.8349 77.4006 24.4255C77.1068 23.5254 76.7807 22.6387 76.425 21.7683C76.2283 21.8572 76.045 21.9973 75.8887 22.1994C74.3014 24.2988 72.5227 26.0155 71.5283 28.5272C70.9084 30.093 70.5527 31.8178 70.5473 33.5048C70.5473 34.7526 70.8572 35.9707 70.8707 37.2185C70.8895 39.0322 70.2347 40.7812 70.5177 42.6003C70.7575 44.1553 71.5848 45.5701 72.4957 46.8287C73.6707 48.4483 75.029 49.9656 76.5166 51.3104C76.867 50.4399 77.185 49.556 77.4733 48.6585C76.522 47.7288 75.63 46.7263 74.843 45.6725C73.9079 44.4194 73.0105 43.0315 73.0213 41.4145L73.0186 41.4118Z" fill="#044E65"/>
<path d="M79.1658 32.9631C79.0391 31.6129 78.8477 30.2816 78.589 28.9746C74.8242 33.1706 75.0155 39.9565 78.6187 44.1768C78.8639 42.9102 79.0499 41.6193 79.1685 40.3123C78.6753 39.2612 78.3869 38.1159 78.3627 36.9463C78.3357 35.6096 78.616 34.227 79.1658 32.9631Z" fill="#044E65"/>
<path d="M21.4371 47.1979C21.4155 44.9611 20.2944 43.0692 19.6503 40.9914C19.1599 39.4175 19.203 38.0054 19.7096 36.4612C20.2163 34.917 20.6529 33.5991 20.8226 32.0522C21.1056 29.5082 20.8415 26.8321 20.2513 24.3473C18.9523 18.8739 15.2279 14.9177 11.9778 10.5303C11.7299 10.1961 11.4011 10.029 11.0642 9.98591C10.5683 10.5249 10.0859 11.0747 9.6197 11.6379C9.65474 11.7053 9.69247 11.77 9.74367 11.8373V11.8427C12.4144 15.4486 15.7076 18.8119 17.2033 23.1319C18.5643 27.0612 18.7556 31.2976 17.4 35.2269C16.9608 36.5043 16.6266 37.7952 16.6913 39.1615C16.791 41.2366 17.7288 43.0072 18.3864 44.9314C19.044 46.8556 18.8904 48.7205 17.8501 50.545C16.9581 52.1135 15.8343 53.5445 14.6781 54.927C12.9156 57.0372 11.0373 59.0638 9.07802 60.9988C9.61431 61.6806 10.1749 62.3435 10.7543 62.9849C12.5464 61.2278 14.2658 59.3818 15.899 57.4791C18.3298 54.6467 21.4748 51.1756 21.4398 47.2033L21.4371 47.1979Z" fill="#044E65"/>
<path d="M15.5567 44.3574C15.5109 42.5976 14.7428 41.0238 14.4005 39.3232C14.1526 38.0862 14.3439 36.9813 14.662 35.7874C15.5324 32.5158 15.3734 29.0743 14.2847 25.8565C13.0234 22.1402 10.412 19.4452 8.11859 16.3676C7.71166 15.8232 7.09181 15.7235 6.57169 15.8879C6.27255 16.3676 5.98149 16.8554 5.70391 17.3512C5.74434 17.459 5.80363 17.5668 5.88447 17.6773H5.87639C7.70357 20.1297 9.87301 22.3423 11.2097 25.1262C12.5437 27.9128 13.0773 31.5537 12.2769 34.6744C12.0182 35.6823 11.7406 36.6687 11.6921 37.7197C11.614 39.361 12.1368 40.8917 12.5922 42.4413C13.0719 44.0771 13.0746 45.5055 12.2554 47.0335C11.5547 48.3352 10.6519 49.5263 9.71131 50.6582C8.35306 52.2914 6.88969 53.8544 5.35357 55.3232C5.77129 56.094 6.21326 56.8485 6.67949 57.5897C6.76842 57.5385 6.85735 57.4738 6.94359 57.3929C8.45277 55.97 9.8811 54.45 11.2259 52.8681C13.2282 50.5127 15.6483 47.6399 15.5621 44.3628L15.5567 44.3574Z" fill="#044E65"/>
<path d="M9.55772 42.5975C9.84069 40.7785 9.18851 39.0294 9.20468 37.2157C9.21815 35.9706 9.53077 34.7525 9.52807 33.5021C9.52268 31.815 9.16425 30.0902 8.54711 28.5245C7.55267 26.0128 5.774 24.2961 4.18667 22.1967C4.01419 21.9676 3.80129 21.8194 3.57491 21.7332C3.22457 22.5875 2.90387 23.458 2.61281 24.3419C3.7959 25.781 5.06792 27.1204 5.88179 28.8425C6.55823 30.2762 6.93822 31.9147 6.94091 33.5021C6.94091 34.6447 6.67681 35.7577 6.6283 36.8977C6.56092 38.4258 7.05141 39.8891 7.05949 41.4064C7.07027 43.0233 6.17285 44.4086 5.2377 45.6644C4.43191 46.7451 3.51562 47.7692 2.54005 48.7178C2.82841 49.6152 3.14911 50.4965 3.49676 51.3642C5.00863 50.006 6.39114 48.4672 7.58231 46.8232C8.49321 45.5647 9.32056 44.1498 9.56311 42.5949L9.55772 42.5975Z" fill="#044E65"/>
<path d="M1.41353 28.8937C1.15751 30.1738 0.963474 31.4755 0.834116 32.796C1.4324 34.1031 1.74232 35.5476 1.71267 36.9435C1.68572 38.1751 1.37041 39.3717 0.831421 40.4686C0.955389 41.7514 1.14134 43.0153 1.38389 44.2577C5.08137 40.0185 5.2808 33.1086 1.41353 28.891V28.8937Z" fill="#044E65"/>
</svg>
