<svg width="25" height="25" viewBox="0 0 25 25" fill="none" xmlns="http://www.w3.org/2000/svg">
<path d="M12.5898 0.631653C19.2174 0.631653 24.5898 6.00405 24.5898 12.6316C24.5898 15.5128 23.574 18.1576 21.8814 20.2258L20.1738 18.5176C21.4835 16.8354 22.1931 14.7636 22.1898 12.6316C22.1898 7.32945 17.892 3.03165 12.5898 3.03165C7.28764 3.03165 2.98984 7.32945 2.98984 12.6316C2.98984 17.9338 7.28764 22.2316 12.5898 22.2316C14.7218 22.2349 16.7936 21.5253 18.4758 20.2156L20.184 21.9232C18.0428 23.6785 15.3586 24.6358 12.5898 24.6316C5.96224 24.6316 0.589844 19.2592 0.589844 12.6316C0.589844 6.00405 5.96224 0.631653 12.5898 0.631653ZM16.8324 8.03745L18.5292 9.73485L10.893 17.371L6.65044 13.129L8.34724 11.4316L10.893 13.9774L16.833 8.03745H16.8324Z" fill="#2C4ACC"/>
</svg>
