<svg width="25" height="24" viewBox="0 0 25 24" fill="none" xmlns="http://www.w3.org/2000/svg">
<path d="M24.6914 2.81743C23.7917 3.29 22.8371 3.60058 21.8594 3.7388C22.8862 3.01146 23.6539 1.86779 24.0194 0.521078C23.0513 1.20056 21.9921 1.67994 20.8874 1.93858C20.2106 1.09258 19.3344 0.506117 18.3722 0.255147C17.4101 0.00417651 16.4063 0.100265 15.4908 0.530967C14.5754 0.961668 13.7906 1.70714 13.238 2.67081C12.6854 3.63449 12.3904 4.77198 12.3914 5.93593C12.3931 6.37984 12.4373 6.82209 12.5234 7.2542C10.5639 7.13663 8.64726 6.53315 6.89818 5.483C5.1491 4.43286 3.60674 2.95957 2.37141 1.15895C1.93199 2.0446 1.70005 3.05245 1.69941 4.079C1.67761 5.02666 1.85732 5.96564 2.22208 6.81007C2.58685 7.65449 3.12503 8.37741 3.78741 8.91268C2.97141 8.88433 1.44741 8.62918 1.44741 8.18975V8.26063C1.47773 9.60939 1.89593 10.9058 2.63314 11.9363C3.37036 12.9669 4.38266 13.6703 5.50341 13.9306C5.11275 14.06 4.70913 14.1268 4.30341 14.1291C4.0014 14.1304 3.69999 14.0972 3.40341 14.0299C3.72028 15.1858 4.33448 16.1962 5.16044 16.9203C5.98641 17.6445 6.983 18.0462 8.01141 18.0697C6.27028 19.7011 4.11378 20.5902 1.89141 20.5929C1.49034 20.5922 1.08966 20.5638 0.691406 20.5078C2.94344 22.2147 5.56367 23.1201 8.23941 23.116C10.086 23.1387 11.918 22.7267 13.6283 21.9041C15.3387 21.0815 16.8933 19.8647 18.2013 18.3249C19.5094 16.785 20.5447 14.9529 21.247 12.9353C21.9492 10.9177 22.3043 8.75518 22.2914 6.5738V5.82253C23.2345 4.99499 24.0469 3.97776 24.6914 2.81743Z" fill="#2C4ACC"/>
</svg>
