<svg width="25" height="24" viewBox="0 0 25 24" fill="none" xmlns="http://www.w3.org/2000/svg">
<path opacity="0.5" d="M24.5781 3.44008C23.6784 3.91265 22.7238 4.22323 21.7461 4.36145C22.7729 3.63411 23.5406 2.49044 23.9061 1.14373C22.938 1.82321 21.8788 2.30259 20.7741 2.56123C20.0974 1.71523 19.2211 1.12877 18.259 0.877797C17.2968 0.626827 16.293 0.722915 15.3776 1.15362C14.4621 1.58432 13.6773 2.32979 13.1247 3.29346C12.5721 4.25714 12.2772 5.39463 12.2781 6.55858C12.2798 7.00249 12.3241 7.44474 12.4101 7.87685C10.4506 7.75928 8.53398 7.1558 6.7849 6.10565C5.03582 5.05551 3.49346 3.58222 2.25813 1.7816C1.81871 2.66725 1.58677 3.6751 1.58613 4.70165C1.56433 5.64931 1.74404 6.58829 2.1088 7.43272C2.47357 8.27714 3.01175 9.00006 3.67412 9.53533C2.85812 9.50698 1.33413 9.25183 1.33413 8.8124V8.88328C1.36445 10.232 1.78265 11.5284 2.51986 12.559C3.25708 13.5896 4.26938 14.2929 5.39012 14.5533C4.99947 14.6827 4.59585 14.7494 4.19012 14.7517C3.88812 14.753 3.58671 14.7198 3.29012 14.6525C3.607 15.8084 4.2212 16.8188 5.04716 17.543C5.87312 18.2671 6.86972 18.6689 7.89813 18.6924C6.157 20.3238 4.0005 21.2129 1.77813 21.2155C1.37706 21.2148 0.976379 21.1864 0.578125 21.1305C2.83016 22.8373 5.45039 23.7427 8.12613 23.7387C9.97274 23.7613 11.8047 23.3493 13.5151 22.5267C15.2254 21.7041 16.78 20.4874 18.0881 18.9475C19.3961 17.4077 20.4315 15.5755 21.1337 13.5579C21.8359 11.5404 22.191 9.37783 22.1781 7.19645V6.44518C23.1212 5.61764 23.9336 4.60041 24.5781 3.44008Z" fill="white"/>
</svg>
