<svg width="24" height="25" viewBox="0 0 24 25" fill="none" xmlns="http://www.w3.org/2000/svg">
<path opacity="0.5" d="M16.9938 22.7407H15.4491V21.2411H9.26768V22.7407H7.72307C7.29718 22.7407 6.94926 23.0766 6.94926 23.4905C6.94926 23.9044 7.29418 24.2404 7.72307 24.2404H16.9908C17.4166 24.2404 17.7646 23.9044 17.7646 23.4905C17.7646 23.0766 17.4196 22.7407 16.9938 22.7407ZM20.8538 0.240356H3.08923C1.38265 0.240356 0 1.58402 0 3.23961V13.74H23.943V3.23961C23.943 1.58102 22.5604 0.240356 20.8538 0.240356ZM0 16.7392C0 18.3948 1.38265 19.7385 3.08923 19.7385H20.8538C22.5604 19.7385 23.943 18.3948 23.943 16.7392V15.2396H0V16.7392Z" fill="white"/>
</svg>
