<svg width="239" height="48" viewBox="0 0 239 48" fill="none" xmlns="http://www.w3.org/2000/svg">
<g id="Vector" style="mix-blend-mode:difference">
<path d="M75.2544 21.6V13.584H82.3097C82.9816 13.584 83.6216 13.648 84.2295 13.776C84.8694 13.872 85.4294 14.064 85.9093 14.352C86.3893 14.64 86.7732 15.04 87.0612 15.552C87.3492 16.064 87.4932 16.72 87.4932 17.52C87.4932 18.96 87.0612 20 86.1973 20.64C85.3334 21.28 84.2295 21.6 82.8856 21.6H75.2544ZM67.7192 7.728V42H84.3255C85.8613 42 87.3492 41.808 88.789 41.424C90.2609 41.04 91.5567 40.448 92.6766 39.648C93.8285 38.848 94.7404 37.824 95.4123 36.576C96.0843 35.296 96.4202 33.792 96.4202 32.064C96.4202 29.92 95.8923 28.096 94.8364 26.592C93.8125 25.056 92.2447 23.984 90.1329 23.376C91.6687 22.64 92.8206 21.696 93.5885 20.544C94.3885 19.392 94.7884 17.952 94.7884 16.224C94.7884 14.624 94.5164 13.28 93.9725 12.192C93.4605 11.104 92.7246 10.24 91.7647 9.6C90.8048 8.928 89.6529 8.448 88.3091 8.16C86.9652 7.872 85.4774 7.728 83.8455 7.728H67.7192ZM75.2544 36.144V26.736H83.4616C85.0934 26.736 86.4053 27.12 87.3972 27.888C88.3891 28.624 88.885 29.872 88.885 31.632C88.885 32.528 88.725 33.264 88.4051 33.84C88.1171 34.416 87.7171 34.88 87.2052 35.232C86.6932 35.552 86.1013 35.792 85.4294 35.952C84.7574 36.08 84.0535 36.144 83.3176 36.144H75.2544Z" fill="white"/>
<path d="M106.84 29.616C106.84 28.624 106.936 27.648 107.128 26.688C107.32 25.728 107.64 24.88 108.088 24.144C108.568 23.408 109.192 22.816 109.96 22.368C110.728 21.888 111.688 21.648 112.839 21.648C113.991 21.648 114.951 21.888 115.719 22.368C116.519 22.816 117.143 23.408 117.591 24.144C118.071 24.88 118.407 25.728 118.599 26.688C118.791 27.648 118.887 28.624 118.887 29.616C118.887 30.608 118.791 31.584 118.599 32.544C118.407 33.472 118.071 34.32 117.591 35.088C117.143 35.824 116.519 36.416 115.719 36.864C114.951 37.312 113.991 37.536 112.839 37.536C111.688 37.536 110.728 37.312 109.96 36.864C109.192 36.416 108.568 35.824 108.088 35.088C107.64 34.32 107.32 33.472 107.128 32.544C106.936 31.584 106.84 30.608 106.84 29.616ZM100.025 29.616C100.025 31.6 100.329 33.392 100.937 34.992C101.545 36.592 102.409 37.968 103.528 39.12C104.648 40.24 105.992 41.104 107.56 41.712C109.128 42.32 110.888 42.624 112.839 42.624C114.791 42.624 116.551 42.32 118.119 41.712C119.719 41.104 121.079 40.24 122.198 39.12C123.318 37.968 124.182 36.592 124.79 34.992C125.398 33.392 125.702 31.6 125.702 29.616C125.702 27.632 125.398 25.84 124.79 24.24C124.182 22.608 123.318 21.232 122.198 20.112C121.079 18.96 119.719 18.08 118.119 17.472C116.551 16.832 114.791 16.512 112.839 16.512C110.888 16.512 109.128 16.832 107.56 17.472C105.992 18.08 104.648 18.96 103.528 20.112C102.409 21.232 101.545 22.608 100.937 24.24C100.329 25.84 100.025 27.632 100.025 29.616Z" fill="white"/>
<path d="M153.411 42V17.184H146.596V30.192C146.596 32.72 146.18 34.544 145.348 35.664C144.516 36.752 143.172 37.296 141.316 37.296C139.684 37.296 138.549 36.8 137.909 35.808C137.269 34.784 136.949 33.248 136.949 31.2V17.184H130.133V32.448C130.133 33.984 130.261 35.392 130.517 36.672C130.805 37.92 131.285 38.992 131.957 39.888C132.629 40.752 133.541 41.424 134.693 41.904C135.877 42.384 137.381 42.624 139.205 42.624C140.644 42.624 142.052 42.304 143.428 41.664C144.804 41.024 145.924 39.984 146.788 38.544H146.932V42H153.411Z" fill="white"/>
<path d="M158.584 17.184V42H165.399V28.992C165.399 26.464 165.815 24.656 166.647 23.568C167.479 22.448 168.823 21.888 170.678 21.888C172.31 21.888 173.446 22.4 174.086 23.424C174.726 24.416 175.046 25.936 175.046 27.984V42H181.861V26.736C181.861 25.2 181.717 23.808 181.429 22.56C181.173 21.28 180.709 20.208 180.037 19.344C179.366 18.448 178.438 17.76 177.254 17.28C176.102 16.768 174.614 16.512 172.79 16.512C171.35 16.512 169.943 16.848 168.567 17.52C167.191 18.16 166.071 19.2 165.207 20.64H165.063V17.184H158.584Z" fill="white"/>
<path d="M203.928 25.92H210.6C210.504 24.32 210.12 22.944 209.448 21.792C208.776 20.608 207.896 19.632 206.808 18.864C205.752 18.064 204.536 17.472 203.16 17.088C201.816 16.704 200.409 16.512 198.937 16.512C196.921 16.512 195.129 16.848 193.561 17.52C191.993 18.192 190.666 19.136 189.578 20.352C188.49 21.536 187.658 22.96 187.082 24.624C186.538 26.256 186.266 28.032 186.266 29.952C186.266 31.808 186.57 33.52 187.178 35.088C187.786 36.624 188.634 37.952 189.722 39.072C190.81 40.192 192.121 41.072 193.657 41.712C195.225 42.32 196.937 42.624 198.793 42.624C202.088 42.624 204.792 41.76 206.904 40.032C209.016 38.304 210.296 35.792 210.743 32.496H204.168C203.944 34.032 203.384 35.264 202.488 36.192C201.624 37.088 200.377 37.536 198.745 37.536C197.689 37.536 196.793 37.296 196.057 36.816C195.321 36.336 194.729 35.728 194.281 34.992C193.865 34.224 193.561 33.376 193.369 32.448C193.177 31.52 193.081 30.608 193.081 29.712C193.081 28.784 193.177 27.856 193.369 26.928C193.561 25.968 193.881 25.104 194.329 24.336C194.809 23.536 195.417 22.896 196.153 22.416C196.889 21.904 197.801 21.648 198.889 21.648C201.8 21.648 203.48 23.072 203.928 25.92Z" fill="white"/>
<path d="M231.296 26.928H220.209C220.241 26.448 220.337 25.904 220.497 25.296C220.689 24.688 220.993 24.112 221.409 23.568C221.857 23.024 222.433 22.576 223.137 22.224C223.873 21.84 224.785 21.648 225.872 21.648C227.536 21.648 228.768 22.096 229.568 22.992C230.4 23.888 230.976 25.2 231.296 26.928ZM220.209 31.248H238.111C238.239 29.328 238.079 27.488 237.631 25.728C237.183 23.968 236.447 22.4 235.423 21.024C234.432 19.648 233.152 18.56 231.584 17.76C230.016 16.928 228.176 16.512 226.064 16.512C224.177 16.512 222.449 16.848 220.881 17.52C219.345 18.192 218.017 19.12 216.897 20.304C215.777 21.456 214.914 22.832 214.306 24.432C213.698 26.032 213.394 27.76 213.394 29.616C213.394 31.536 213.682 33.296 214.258 34.896C214.866 36.496 215.713 37.872 216.801 39.024C217.889 40.176 219.217 41.072 220.785 41.712C222.353 42.32 224.113 42.624 226.064 42.624C228.88 42.624 231.28 41.984 233.264 40.704C235.248 39.424 236.719 37.296 237.679 34.32H231.68C231.456 35.088 230.848 35.824 229.856 36.528C228.864 37.2 227.68 37.536 226.304 37.536C224.385 37.536 222.913 37.04 221.889 36.048C220.865 35.056 220.305 33.456 220.209 31.248Z" fill="white"/>
<path d="M3.00051 0C1.34382 0 0.000815344 1.34315 0.000815344 3C0.000815344 4.65685 1.34382 6 3.00051 6H12.9995C14.6562 6 15.9992 4.65685 15.9992 3C15.9992 1.34315 14.6562 0 12.9995 0H3.00051Z" fill="white"/>
<path d="M30.0349 9.81503C31.5894 9.24225 32.3853 7.51758 31.8126 5.96288C31.2399 4.40819 29.5154 3.61219 27.9609 4.18497L1.9635 13.7639C0.40896 14.3367 -0.386958 16.0614 0.185767 17.6161C0.758492 19.1708 2.48298 19.9668 4.03752 19.394L30.0349 9.81503Z" fill="white"/>
<path d="M30.0349 34.2361C31.5894 33.6633 32.3853 31.9386 31.8126 30.3839C31.2399 28.8292 29.5154 28.0332 27.9609 28.606L1.9635 38.185C0.40896 38.7578 -0.386958 40.4824 0.185767 42.0371C0.758492 43.5918 2.48298 44.3878 4.03752 43.815L30.0349 34.2361Z" fill="white"/>
<path d="M18.9989 42C17.3422 42 15.9992 43.3431 15.9992 45C15.9992 46.6569 17.3422 48 18.9989 48H28.9979C30.6546 48 31.9976 46.6569 31.9976 45C31.9976 43.3431 30.6546 42 28.9979 42H18.9989Z" fill="white"/>
<path d="M30.0747 21.8008C31.6209 21.2061 32.3923 19.4703 31.7976 17.9239C31.2029 16.3775 29.4673 15.606 27.921 16.2008L1.92368 26.2008C0.377419 26.7955 -0.393961 28.5313 0.200755 30.0777C0.79547 31.6242 2.53107 32.3956 4.07733 31.8008L30.0747 21.8008Z" fill="white"/>
</g>
</svg>
