<svg width="100" height="20" viewBox="0 0 100 20" fill="none" xmlns="http://www.w3.org/2000/svg">
<g id="Vector" style="mix-blend-mode:difference">
<path d="M31.356 9V5.66H34.2957C34.5757 5.66 34.8423 5.68667 35.0956 5.74C35.3623 5.78 35.5956 5.86 35.7955 5.98C35.9955 6.1 36.1555 6.26667 36.2755 6.48C36.3955 6.69333 36.4555 6.96667 36.4555 7.3C36.4555 7.9 36.2755 8.33333 35.9155 8.6C35.5556 8.86667 35.0956 9 34.5357 9H31.356ZM28.2163 3.22V17.5H35.1356C35.7755 17.5 36.3955 17.42 36.9954 17.26C37.6087 17.1 38.1486 16.8533 38.6153 16.52C39.0952 16.1867 39.4752 15.76 39.7551 15.24C40.0351 14.7067 40.1751 14.08 40.1751 13.36C40.1751 12.4667 39.9551 11.7067 39.5152 11.08C39.0885 10.44 38.4353 9.99333 37.5554 9.74C38.1953 9.43333 38.6753 9.04 38.9952 8.56C39.3285 8.08 39.4952 7.48 39.4952 6.76C39.4952 6.09333 39.3818 5.53333 39.1552 5.08C38.9419 4.62667 38.6353 4.26667 38.2353 4C37.8353 3.72 37.3554 3.52 36.7954 3.4C36.2355 3.28 35.6156 3.22 34.9356 3.22H28.2163ZM31.356 15.06V11.14H34.7756C35.4556 11.14 36.0022 11.3 36.4155 11.62C36.8288 11.9267 37.0354 12.4467 37.0354 13.18C37.0354 13.5533 36.9688 13.86 36.8354 14.1C36.7155 14.34 36.5488 14.5333 36.3355 14.68C36.1222 14.8133 35.8755 14.9133 35.5956 14.98C35.3156 15.0333 35.0223 15.06 34.7157 15.06H31.356Z" fill="white"/>
<path d="M44.5167 12.34C44.5167 11.9267 44.5567 11.52 44.6367 11.12C44.7167 10.72 44.85 10.3667 45.0366 10.06C45.2366 9.75333 45.4966 9.50667 45.8166 9.32C46.1365 9.12 46.5365 9.02 47.0164 9.02C47.4964 9.02 47.8963 9.12 48.2163 9.32C48.5496 9.50667 48.8096 9.75333 48.9962 10.06C49.1962 10.3667 49.3362 10.72 49.4162 11.12C49.4962 11.52 49.5362 11.9267 49.5362 12.34C49.5362 12.7533 49.4962 13.16 49.4162 13.56C49.3362 13.9467 49.1962 14.3 48.9962 14.62C48.8096 14.9267 48.5496 15.1733 48.2163 15.36C47.8963 15.5467 47.4964 15.64 47.0164 15.64C46.5365 15.64 46.1365 15.5467 45.8166 15.36C45.4966 15.1733 45.2366 14.9267 45.0366 14.62C44.85 14.3 44.7167 13.9467 44.6367 13.56C44.5567 13.16 44.5167 12.7533 44.5167 12.34ZM41.677 12.34C41.677 13.1667 41.8036 13.9133 42.0569 14.58C42.3102 15.2467 42.6702 15.82 43.1368 16.3C43.6034 16.7667 44.1634 17.1267 44.8167 17.38C45.4699 17.6333 46.2032 17.76 47.0164 17.76C47.8297 17.76 48.5629 17.6333 49.2162 17.38C49.8828 17.1267 50.4494 16.7667 50.916 16.3C51.3827 15.82 51.7426 15.2467 51.9959 14.58C52.2492 13.9133 52.3759 13.1667 52.3759 12.34C52.3759 11.5133 52.2492 10.7667 51.9959 10.1C51.7426 9.42 51.3827 8.84667 50.916 8.38C50.4494 7.9 49.8828 7.53333 49.2162 7.28C48.5629 7.01333 47.8297 6.88 47.0164 6.88C46.2032 6.88 45.4699 7.01333 44.8167 7.28C44.1634 7.53333 43.6034 7.9 43.1368 8.38C42.6702 8.84667 42.3102 9.42 42.0569 10.1C41.8036 10.7667 41.677 11.5133 41.677 12.34Z" fill="white"/>
<path d="M63.9213 17.5V7.16H61.0816V12.58C61.0816 13.6333 60.9082 14.3933 60.5616 14.86C60.215 15.3133 59.655 15.54 58.8818 15.54C58.2019 15.54 57.7286 15.3333 57.4619 14.92C57.1953 14.4933 57.062 13.8533 57.062 13V7.16H54.2223V13.52C54.2223 14.16 54.2756 14.7467 54.3822 15.28C54.5022 15.8 54.7022 16.2467 54.9822 16.62C55.2622 16.98 55.6421 17.26 56.1221 17.46C56.6153 17.66 57.242 17.76 58.0019 17.76C58.6018 17.76 59.1884 17.6267 59.7617 17.36C60.335 17.0933 60.8016 16.66 61.1616 16.06H61.2215V17.5H63.9213Z" fill="white"/>
<path d="M66.0765 7.16V17.5H68.9162V12.08C68.9162 11.0267 69.0895 10.2733 69.4362 9.82C69.7828 9.35333 70.3428 9.12 71.116 9.12C71.7959 9.12 72.2692 9.33333 72.5359 9.76C72.8025 10.1733 72.9358 10.8067 72.9358 11.66V17.5H75.7755V11.14C75.7755 10.5 75.7155 9.92 75.5956 9.4C75.4889 8.86667 75.2956 8.42 75.0156 8.06C74.7356 7.68667 74.349 7.4 73.8557 7.2C73.3758 6.98667 72.7558 6.88 71.9959 6.88C71.396 6.88 70.8094 7.02 70.2361 7.3C69.6628 7.56667 69.1962 8 68.8362 8.6H68.7762V7.16H66.0765Z" fill="white"/>
<path d="M84.9701 10.8H87.7498C87.7098 10.1333 87.5498 9.56 87.2698 9.08C86.9899 8.58667 86.6232 8.18 86.1699 7.86C85.73 7.52667 85.2234 7.28 84.6501 7.12C84.0902 6.96 83.5035 6.88 82.8903 6.88C82.0504 6.88 81.3038 7.02 80.6505 7.3C79.9972 7.58 79.444 7.97333 78.9907 8.48C78.5374 8.97333 78.1908 9.56666 77.9508 10.26C77.7241 10.94 77.6108 11.68 77.6108 12.48C77.6108 13.2533 77.7375 13.9667 77.9908 14.62C78.2441 15.26 78.5974 15.8133 79.0507 16.28C79.504 16.7467 80.0506 17.1133 80.6905 17.38C81.3438 17.6333 82.057 17.76 82.8303 17.76C84.2035 17.76 85.33 17.4 86.2099 16.68C87.0899 15.96 87.6231 14.9133 87.8098 13.54H85.0701C84.9767 14.18 84.7434 14.6933 84.3701 15.08C84.0102 15.4533 83.4902 15.64 82.8103 15.64C82.3703 15.64 81.997 15.54 81.6904 15.34C81.3838 15.14 81.1371 14.8867 80.9505 14.58C80.7772 14.26 80.6505 13.9067 80.5705 13.52C80.4905 13.1333 80.4505 12.7533 80.4505 12.38C80.4505 11.9933 80.4905 11.6067 80.5705 11.22C80.6505 10.82 80.7838 10.46 80.9705 10.14C81.1705 9.80667 81.4238 9.54 81.7304 9.34C82.037 9.12667 82.417 9.02 82.8703 9.02C84.0835 9.02 84.7834 9.61333 84.9701 10.8Z" fill="white"/>
<path d="M96.3733 11.22H91.7538C91.7671 11.02 91.8071 10.7933 91.8737 10.54C91.9537 10.2867 92.0804 10.0467 92.2537 9.82C92.4403 9.59333 92.6803 9.40667 92.9736 9.26C93.2803 9.1 93.6602 9.02 94.1135 9.02C94.8068 9.02 95.3201 9.20667 95.6534 9.58C96 9.95333 96.24 10.5 96.3733 11.22ZM91.7538 13.02H99.213C99.2663 12.22 99.1997 11.4533 99.013 10.72C98.8264 9.98666 98.5197 9.33333 98.0931 8.76C97.6798 8.18667 97.1465 7.73333 96.4933 7.4C95.84 7.05333 95.0734 6.88 94.1935 6.88C93.4069 6.88 92.687 7.02 92.0337 7.3C91.3938 7.58 90.8405 7.96667 90.3739 8.46C89.9073 8.94 89.5473 9.51333 89.294 10.18C89.0407 10.8467 88.914 11.5667 88.914 12.34C88.914 13.14 89.034 13.8733 89.274 14.54C89.5273 15.2067 89.8806 15.78 90.3339 16.26C90.7872 16.74 91.3405 17.1133 91.9937 17.38C92.647 17.6333 93.3802 17.76 94.1935 17.76C95.3667 17.76 96.3666 17.4933 97.1932 16.96C98.0198 16.4267 98.633 15.54 99.033 14.3H96.5333C96.4399 14.62 96.1866 14.9267 95.7733 15.22C95.3601 15.5 94.8668 15.64 94.2935 15.64C93.4936 15.64 92.8803 15.4333 92.4537 15.02C92.0271 14.6067 91.7937 13.94 91.7538 13.02Z" fill="white"/>
<path d="M1.25021 0C0.559927 0 0.000339727 0.559644 0.000339727 1.25C0.000339727 1.94036 0.559927 2.5 1.25021 2.5H5.41645C6.10674 2.5 6.66633 1.94036 6.66633 1.25C6.66633 0.559644 6.10674 0 5.41645 0H1.25021Z" fill="white"/>
<path d="M12.5145 4.0896C13.1623 3.85094 13.4939 3.13233 13.2553 2.48453C13.0166 1.83674 12.2981 1.50508 11.6504 1.74374L0.818125 5.73497C0.1704 5.97363 -0.161233 6.69223 0.077403 7.34003C0.316038 7.98782 1.03458 8.31948 1.6823 8.08082L12.5145 4.0896Z" fill="white"/>
<path d="M12.5145 14.265C13.1623 14.0264 13.4939 13.3078 13.2553 12.66C13.0166 12.0122 12.2981 11.6805 11.6504 11.9192L0.818125 15.9104C0.1704 16.1491 -0.161233 16.8677 0.077403 17.5155C0.316038 18.1633 1.03458 18.4949 1.6823 18.2563L12.5145 14.265Z" fill="white"/>
<path d="M7.9162 17.5C7.22591 17.5 6.66633 18.0596 6.66633 18.75C6.66633 19.4404 7.22591 20 7.9162 20H12.0824C12.7727 20 13.3323 19.4404 13.3323 18.75C13.3323 18.0596 12.7727 17.5 12.0824 17.5H7.9162Z" fill="white"/>
<path d="M12.5311 9.08369C13.1754 8.83586 13.4968 8.11262 13.249 7.46828C13.0012 6.82394 12.278 6.5025 11.6338 6.75032L0.801533 10.917C0.157258 11.1648 -0.16415 11.8881 0.0836478 12.5324C0.331446 13.1767 1.05461 13.4982 1.69889 13.2504L12.5311 9.08369Z" fill="white"/>
</g>
</svg>
