<svg width="16" height="24" viewBox="0 0 16 24" fill="none" xmlns="http://www.w3.org/2000/svg">
<g id="Vector">
<path d="M1.50041 0C0.67198 0 0.000407714 0.671573 0.000407714 1.5C0.000407714 2.32843 0.67198 3 1.50041 3H6.50041C7.32884 3 8.00041 2.32843 8.00041 1.5C8.00041 0.671573 7.32884 0 6.50041 0H1.50041Z" fill="#20201E"/>
<path d="M15.019 4.90752C15.7963 4.62112 16.1943 3.75879 15.9079 2.98144C15.6215 2.20409 14.7592 1.80609 13.9819 2.09249L0.98185 6.88196C0.204501 7.16835 -0.193499 8.03068 0.092893 8.80803C0.379285 9.58538 1.24162 9.98338 2.01897 9.69699L15.019 4.90752Z" fill="#20201E"/>
<path d="M15.019 17.118C15.7963 16.8316 16.1943 15.9693 15.9079 15.192C15.6215 14.4146 14.7592 14.0166 13.9819 14.303L0.98185 19.0925C0.204501 19.3789 -0.193499 20.2412 0.092893 21.0186C0.379285 21.7959 1.24162 22.1939 2.01897 21.9075L15.019 17.118Z" fill="#20201E"/>
<path d="M9.50041 21C8.67198 21 8.00041 21.6716 8.00041 22.5C8.00041 23.3284 8.67198 24 9.50041 24H14.5004C15.3288 24 16.0004 23.3284 16.0004 22.5C16.0004 21.6716 15.3288 21 14.5004 21H9.50041Z" fill="#20201E"/>
<path d="M15.0389 10.9004C15.8121 10.603 16.1978 9.73514 15.9004 8.96194C15.603 8.18873 14.7351 7.803 13.9619 8.10039L0.961937 13.1004C0.188729 13.3978 -0.197 14.2657 0.100388 15.0389C0.397776 15.8121 1.26567 16.1978 2.03887 15.9004L15.0389 10.9004Z" fill="#20201E"/>
</g>
</svg>
