<svg width="62" height="16" viewBox="0 0 62 16" fill="none" xmlns="http://www.w3.org/2000/svg">
<g id="Group 1000004829">
<g id="Vector">
<path d="M1.94558 0C1.3933 0 0.945584 0.447715 0.945584 1C0.945584 1.55228 1.3933 2 1.94558 2H5.27892C5.8312 2 6.27892 1.55228 6.27892 1C6.27892 0.447715 5.8312 0 5.27892 0H1.94558Z" fill="#20201E"/>
<path d="M10.958 3.27168C11.4762 3.08075 11.7415 2.50586 11.5506 1.98763C11.3597 1.4694 10.7848 1.20406 10.2665 1.39499L1.59988 4.58797C1.08165 4.7789 0.816313 5.35379 1.00724 5.87202C1.19817 6.39025 1.77306 6.65559 2.29129 6.46466L10.958 3.27168Z" fill="#20201E"/>
<path d="M10.958 11.412C11.4762 11.2211 11.7415 10.6462 11.5506 10.128C11.3597 9.60975 10.7848 9.34441 10.2665 9.53534L1.59988 12.7283C1.08165 12.9193 0.816313 13.4941 1.00724 14.0124C1.19817 14.5306 1.77306 14.7959 2.29129 14.605L10.958 11.412Z" fill="#20201E"/>
<path d="M7.27892 14C6.72663 14 6.27892 14.4477 6.27892 15C6.27892 15.5523 6.72663 16 7.27892 16H10.6123C11.1645 16 11.6123 15.5523 11.6123 15C11.6123 14.4477 11.1645 14 10.6123 14H7.27892Z" fill="#20201E"/>
<path d="M10.9712 7.26695C11.4867 7.06869 11.7439 6.4901 11.5456 5.97462C11.3473 5.45915 10.7687 5.202 10.2533 5.40026L1.5866 8.73359C1.07113 8.93185 0.813979 9.51044 1.01224 10.0259C1.2105 10.5414 1.78909 10.7985 2.30456 10.6003L10.9712 7.26695Z" fill="#20201E"/>
</g>
<g id="Bounce">
<path d="M22.0234 7.68761H24.4714C24.8314 7.68761 25.1314 7.58761 25.3714 7.38761C25.6114 7.17961 25.7314 6.88361 25.7314 6.49961C25.7314 6.06761 25.6234 5.76361 25.4074 5.58761C25.1914 5.41161 24.8794 5.32361 24.4714 5.32361H22.0234V7.68761ZM20.5234 4.09961H24.6874C25.4554 4.09961 26.0714 4.27561 26.5354 4.62761C26.9994 4.97961 27.2314 5.51161 27.2314 6.22361C27.2314 6.65561 27.1234 7.02761 26.9074 7.33961C26.6994 7.64361 26.3994 7.87961 26.0074 8.04761V8.07161C26.5354 8.18361 26.9354 8.43561 27.2074 8.82761C27.4794 9.21161 27.6154 9.69561 27.6154 10.2796C27.6154 10.6156 27.5554 10.9316 27.4354 11.2276C27.3154 11.5156 27.1274 11.7676 26.8714 11.9836C26.6154 12.1916 26.2874 12.3596 25.8874 12.4876C25.4874 12.6076 25.0114 12.6676 24.4594 12.6676H20.5234V4.09961ZM22.0234 11.4436H24.6754C25.1314 11.4436 25.4834 11.3276 25.7314 11.0956C25.9874 10.8556 26.1154 10.5196 26.1154 10.0876C26.1154 9.66361 25.9874 9.33961 25.7314 9.11561C25.4834 8.88361 25.1314 8.76761 24.6754 8.76761H22.0234V11.4436Z" fill="#20201E"/>
<path d="M31.6247 12.8356C31.1287 12.8356 30.6847 12.7556 30.2927 12.5956C29.9087 12.4276 29.5807 12.1996 29.3087 11.9116C29.0447 11.6236 28.8407 11.2796 28.6967 10.8796C28.5607 10.4796 28.4927 10.0396 28.4927 9.55961C28.4927 9.08761 28.5607 8.65161 28.6967 8.25161C28.8407 7.85161 29.0447 7.50761 29.3087 7.21961C29.5807 6.93161 29.9087 6.70761 30.2927 6.54761C30.6847 6.37961 31.1287 6.29561 31.6247 6.29561C32.1207 6.29561 32.5607 6.37961 32.9447 6.54761C33.3367 6.70761 33.6647 6.93161 33.9287 7.21961C34.2007 7.50761 34.4047 7.85161 34.5407 8.25161C34.6847 8.65161 34.7567 9.08761 34.7567 9.55961C34.7567 10.0396 34.6847 10.4796 34.5407 10.8796C34.4047 11.2796 34.2007 11.6236 33.9287 11.9116C33.6647 12.1996 33.3367 12.4276 32.9447 12.5956C32.5607 12.7556 32.1207 12.8356 31.6247 12.8356ZM31.6247 11.7556C31.9287 11.7556 32.1927 11.6916 32.4167 11.5636C32.6407 11.4356 32.8247 11.2676 32.9687 11.0596C33.1127 10.8516 33.2167 10.6196 33.2807 10.3636C33.3527 10.0996 33.3887 9.83161 33.3887 9.55961C33.3887 9.29561 33.3527 9.03161 33.2807 8.76761C33.2167 8.50361 33.1127 8.27161 32.9687 8.07161C32.8247 7.86361 32.6407 7.69561 32.4167 7.56761C32.1927 7.43961 31.9287 7.37561 31.6247 7.37561C31.3207 7.37561 31.0567 7.43961 30.8327 7.56761C30.6087 7.69561 30.4247 7.86361 30.2807 8.07161C30.1367 8.27161 30.0287 8.50361 29.9567 8.76761C29.8927 9.03161 29.8607 9.29561 29.8607 9.55961C29.8607 9.83161 29.8927 10.0996 29.9567 10.3636C30.0287 10.6196 30.1367 10.8516 30.2807 11.0596C30.4247 11.2676 30.6087 11.4356 30.8327 11.5636C31.0567 11.6916 31.3207 11.7556 31.6247 11.7556Z" fill="#20201E"/>
<path d="M41.3419 12.6676H39.9979V11.8036H39.9739C39.8059 12.1156 39.5539 12.3676 39.2179 12.5596C38.8899 12.7436 38.5539 12.8356 38.2099 12.8356C37.3939 12.8356 36.8019 12.6356 36.4339 12.2356C36.0739 11.8276 35.8939 11.2156 35.8939 10.3996V6.46361H37.2619V10.2676C37.2619 10.8116 37.3659 11.1956 37.5739 11.4196C37.7819 11.6436 38.0739 11.7556 38.4499 11.7556C38.7379 11.7556 38.9779 11.7116 39.1699 11.6236C39.3619 11.5356 39.5179 11.4196 39.6379 11.2756C39.7579 11.1236 39.8419 10.9436 39.8899 10.7356C39.9459 10.5276 39.9739 10.3036 39.9739 10.0636V6.46361H41.3419V12.6676Z" fill="#20201E"/>
<path d="M42.7846 6.46361H44.0806V7.37561L44.1046 7.39961C44.3126 7.05561 44.5846 6.78761 44.9206 6.59561C45.2566 6.39561 45.6286 6.29561 46.0366 6.29561C46.7166 6.29561 47.2526 6.47161 47.6446 6.82361C48.0366 7.17561 48.2326 7.70361 48.2326 8.40761V12.6676H46.8646V8.76761C46.8486 8.27961 46.7446 7.92761 46.5526 7.71161C46.3606 7.48761 46.0606 7.37561 45.6526 7.37561C45.4206 7.37561 45.2126 7.41961 45.0286 7.50761C44.8446 7.58761 44.6886 7.70361 44.5606 7.85561C44.4326 7.99961 44.3326 8.17161 44.2606 8.37161C44.1886 8.57161 44.1526 8.78361 44.1526 9.00761V12.6676H42.7846V6.46361Z" fill="#20201E"/>
<path d="M53.8632 8.53961C53.8072 8.15561 53.6512 7.86761 53.3952 7.67561C53.1472 7.47561 52.8312 7.37561 52.4472 7.37561C52.2712 7.37561 52.0832 7.40761 51.8832 7.47161C51.6832 7.52761 51.4992 7.63961 51.3312 7.80761C51.1632 7.96761 51.0232 8.19561 50.9112 8.49161C50.7992 8.77961 50.7432 9.15961 50.7432 9.63161C50.7432 9.88761 50.7712 10.1436 50.8272 10.3996C50.8912 10.6556 50.9872 10.8836 51.1152 11.0836C51.2512 11.2836 51.4232 11.4476 51.6312 11.5756C51.8392 11.6956 52.0912 11.7556 52.3872 11.7556C52.7872 11.7556 53.1152 11.6316 53.3712 11.3836C53.6352 11.1356 53.7992 10.7876 53.8632 10.3396H55.2312C55.1032 11.1476 54.7952 11.7676 54.3072 12.1996C53.8272 12.6236 53.1872 12.8356 52.3872 12.8356C51.8992 12.8356 51.4672 12.7556 51.0912 12.5956C50.7232 12.4276 50.4112 12.2036 50.1552 11.9236C49.8992 11.6356 49.7032 11.2956 49.5672 10.9036C49.4392 10.5116 49.3752 10.0876 49.3752 9.63161C49.3752 9.16761 49.4392 8.73161 49.5672 8.32361C49.6952 7.91561 49.8872 7.56361 50.1432 7.26761C50.3992 6.96361 50.7152 6.72761 51.0912 6.55961C51.4752 6.38361 51.9232 6.29561 52.4352 6.29561C52.7952 6.29561 53.1352 6.34361 53.4552 6.43961C53.7832 6.52761 54.0712 6.66361 54.3192 6.84761C54.5752 7.03161 54.7832 7.26361 54.9432 7.54361C55.1032 7.82361 55.1992 8.15561 55.2312 8.53961H53.8632Z" fill="#20201E"/>
<path d="M60.6032 9.01961C60.5872 8.80361 60.5392 8.59561 60.4592 8.39561C60.3872 8.19561 60.2832 8.02361 60.1472 7.87961C60.0192 7.72761 59.8592 7.60761 59.6672 7.51961C59.4832 7.42361 59.2752 7.37561 59.0432 7.37561C58.8032 7.37561 58.5832 7.41961 58.3832 7.50761C58.1912 7.58761 58.0232 7.70361 57.8792 7.85561C57.7432 7.99961 57.6312 8.17161 57.5432 8.37161C57.4632 8.57161 57.4192 8.78761 57.4112 9.01961H60.6032ZM57.4112 9.91961C57.4112 10.1596 57.4432 10.3916 57.5072 10.6156C57.5792 10.8396 57.6832 11.0356 57.8192 11.2036C57.9552 11.3716 58.1272 11.5076 58.3352 11.6116C58.5432 11.7076 58.7912 11.7556 59.0792 11.7556C59.4792 11.7556 59.7992 11.6716 60.0392 11.5036C60.2872 11.3276 60.4712 11.0676 60.5912 10.7236H61.8872C61.8152 11.0596 61.6912 11.3596 61.5152 11.6236C61.3392 11.8876 61.1272 12.1116 60.8792 12.2956C60.6312 12.4716 60.3512 12.6036 60.0392 12.6916C59.7352 12.7876 59.4152 12.8356 59.0792 12.8356C58.5912 12.8356 58.1592 12.7556 57.7832 12.5956C57.4072 12.4356 57.0872 12.2116 56.8232 11.9236C56.5672 11.6356 56.3712 11.2916 56.2352 10.8916C56.1072 10.4916 56.0432 10.0516 56.0432 9.57161C56.0432 9.13161 56.1112 8.71561 56.2472 8.32361C56.3912 7.92361 56.5912 7.57561 56.8472 7.27961C57.1112 6.97561 57.4272 6.73561 57.7952 6.55961C58.1632 6.38361 58.5792 6.29561 59.0432 6.29561C59.5312 6.29561 59.9672 6.39961 60.3512 6.60761C60.7432 6.80761 61.0672 7.07561 61.3232 7.41161C61.5792 7.74761 61.7632 8.13561 61.8752 8.57561C61.9952 9.00761 62.0272 9.45561 61.9712 9.91961H57.4112Z" fill="#20201E"/>
</g>
</g>
</svg>
