<svg width="112" height="54" viewBox="0 0 112 54" fill="none" xmlns="http://www.w3.org/2000/svg">
<path d="M63.2406 18.7233V22.1919H48.9314C49.1288 19.9091 49.8654 18.3028 52.4129 16.0443L63.2406 6.80705V14.9129H67.1383V0H44.975V7.43354H48.8727V3.89771H60.6474L49.8726 13.0934L49.8468 13.1178C45.3312 17.1156 44.9722 20.3425 44.9722 24.1444V26.0925H67.1398V18.7262H63.2421L63.2406 18.7233Z" fill="black"/>
<path d="M14.059 47.7536C14.0461 47.7536 14.0347 47.7651 14.0347 47.7794C14.1134 49.347 14.767 51.8787 18.1298 51.8787C20.7245 51.8787 21.2566 50.2596 21.4654 49.8019C21.4697 49.7933 21.4768 49.7876 21.4868 49.7876H23.9971C24.0128 49.7876 24.0229 49.8019 24.02 49.8162C23.867 50.6672 22.5539 53.9985 18.1298 53.9985C13.7057 53.9985 11.5359 50.6744 11.5359 47.0856C11.5359 42.6945 14.3008 40.1427 18.0426 40.1427C21.5312 40.1427 24.143 42.7803 24.143 46.0973C24.143 46.2904 24.1387 46.5235 24.1287 46.7938C24.1187 47.0599 24.0858 47.3731 24.03 47.7322C24.0286 47.7436 24.0186 47.7522 24.0071 47.7522H14.059V47.7536ZM17.9853 42.0894C14.8242 42.0894 14.0647 44.4452 14.0647 45.8112C14.0647 45.8241 14.0747 45.8369 14.089 45.8369H21.6799C21.6928 45.8369 21.7028 45.8255 21.7042 45.8126C21.7929 44.3022 20.7717 42.0894 17.9853 42.0894Z" fill="black"/>
<path d="M33.4562 53.6595C33.4562 53.6709 33.4476 53.6809 33.4362 53.6824C33.1873 53.7195 32.8598 53.7582 32.4536 53.7954C32.0373 53.834 31.6154 53.854 31.1906 53.854C29.0264 53.854 27.0368 53.0773 27.0368 49.2354V42.6357C27.0368 42.6229 27.0268 42.6114 27.0125 42.6114H24.6195C24.6066 42.6114 24.5952 42.6014 24.5952 42.5871V40.5145C24.5952 40.5017 24.6052 40.4902 24.6195 40.4902H27.0125C27.0254 40.4902 27.0368 40.4802 27.0368 40.4659V36.069C27.0368 36.0561 27.0468 36.0447 27.0611 36.0447H29.5414C29.5542 36.0447 29.5657 36.0547 29.5657 36.069V40.4659C29.5657 40.4788 29.5757 40.4902 29.59 40.4902H32.9699C32.9828 40.4902 32.9942 40.5002 32.9942 40.5145V42.5871C32.9942 42.6 32.9842 42.6114 32.9699 42.6114H29.59C29.5771 42.6114 29.5657 42.6214 29.5657 42.6357V48.6632C29.5657 51.4338 30.6985 51.5297 31.7441 51.5297H32.6595C32.9814 51.5297 33.2388 51.5039 33.429 51.451C33.4433 51.4467 33.4577 51.4582 33.4577 51.4739V53.6595H33.4562Z" fill="black"/>
<path d="M47.6395 40.5159V53.6566C47.6395 53.6695 47.6295 53.6809 47.6152 53.6809H45.165C45.1521 53.6809 45.1407 53.6709 45.1407 53.6566V51.4767C45.1407 51.4524 45.1078 51.4438 45.0978 51.4667C44.6544 52.3435 43.1697 53.9999 40.5221 53.9999C36.9963 53.9999 33.7537 51.2321 33.7537 47.087C33.7537 43.7214 36.1495 40.144 40.5221 40.144C42.998 40.144 44.5915 41.6688 45.0978 42.6772C45.1092 42.6987 45.1407 42.6915 45.1407 42.6672V40.5159C45.1407 40.5031 45.1507 40.4916 45.165 40.4916H47.6152C47.6281 40.4916 47.6395 40.5016 47.6395 40.5159ZM40.668 51.7342C43.7776 51.7342 45.1421 49.2225 45.1421 47.087C45.1421 44.6125 43.3957 42.4097 40.668 42.4097C37.5813 42.4097 36.2525 45.043 36.2525 47.087C36.2525 49.1309 37.5084 51.7342 40.668 51.7342Z" fill="black"/>
<path d="M59.9193 45.2847C59.9078 45.2847 59.8992 45.2761 59.8963 45.2647C59.6804 44.1762 59.2713 42.4097 56.239 42.4097C53.8102 42.4097 52.1424 44.2306 52.1424 47.087C52.1424 49.1824 53.1523 51.7342 56.3834 51.7342C58.7993 51.7342 59.5073 50.5756 59.9221 49.1667C59.925 49.1567 59.9335 49.1495 59.945 49.1495H62.4267C62.441 49.1495 62.4524 49.1624 62.451 49.1767C62.1291 51.4009 60.4585 53.9999 56.2089 53.9999C52.2268 53.9999 49.615 51.0276 49.615 47.087C49.615 43.5998 51.8191 40.144 56.1803 40.144C60.8304 40.144 62.2808 43.3194 62.4238 45.259C62.4238 45.2733 62.4138 45.2847 62.3995 45.2847H59.9193Z" fill="black"/>
<path d="M64.5492 33.7818H67.0294C67.0423 33.7818 67.0537 33.7918 67.0537 33.8061V42.7172C67.0537 42.7416 67.0866 42.7487 67.0981 42.7273C67.4857 41.9563 68.6872 40.144 71.7024 40.144C75.8747 40.144 76.7372 43.3037 76.67 45.8955V53.6566C76.67 53.6694 76.66 53.6809 76.6457 53.6809H74.1654C74.1526 53.6809 74.1411 53.6709 74.1411 53.6566V46.6793C74.1411 44.4122 73.3759 42.3797 70.7998 42.3797C68.8545 42.3797 67.0523 43.8272 67.0523 46.8824V53.6566C67.0523 53.6694 67.0423 53.6809 67.028 53.6809H64.5477C64.5349 53.6809 64.5234 53.6709 64.5234 53.6566V33.8047C64.5234 33.7918 64.5334 33.7804 64.5477 33.7804L64.5492 33.7818Z" fill="black"/>
<path d="M92.2853 40.5159V53.6566C92.2853 53.6695 92.2753 53.6809 92.2609 53.6809H89.8108C89.7979 53.6809 89.7864 53.6709 89.7864 53.6566V51.4767C89.7864 51.4524 89.755 51.4453 89.7435 51.4667C89.3187 52.242 87.9199 53.9999 85.1679 53.9999C81.2916 53.9999 78.3994 50.9461 78.3994 47.087C78.3994 43.8973 80.6851 40.144 85.1679 40.144C87.887 40.144 89.3173 41.9034 89.7435 42.6772C89.755 42.6987 89.7864 42.6915 89.7864 42.6672V40.5159C89.7864 40.5031 89.7965 40.4916 89.8108 40.4916H92.2609C92.2738 40.4916 92.2853 40.5016 92.2853 40.5159ZM85.3138 51.7342C88.2774 51.7342 89.7879 49.3212 89.7879 47.087C89.7879 44.601 88.0243 42.4097 85.3138 42.4097C82.1212 42.4097 80.8382 45.2189 80.8982 47.087C80.9984 50.2452 83.1682 51.7342 85.3138 51.7342Z" fill="black"/>
<path d="M93.9773 35.401C93.9773 34.919 94.126 34.497 94.425 34.1351C94.8155 33.6602 95.4234 33.3956 96.0356 33.4371C96.5104 33.47 96.9238 33.6617 97.2757 34.015C97.6275 34.3683 97.8206 34.7816 97.8535 35.2565C97.895 35.8701 97.6304 36.4752 97.1569 36.8671C96.7951 37.166 96.3717 37.3162 95.8897 37.3162C95.3533 37.3162 94.8999 37.1317 94.5308 36.7612C94.1604 36.3922 93.9758 35.9388 93.9758 35.4024L93.9773 35.401Z" fill="black"/>
<path d="M97.1569 40.4917H94.6781C94.6647 40.4917 94.6538 40.5026 94.6538 40.516V53.6552C94.6538 53.6687 94.6647 53.6796 94.6781 53.6796H97.1569C97.1704 53.6796 97.1813 53.6687 97.1813 53.6552V40.516C97.1813 40.5026 97.1704 40.4917 97.1569 40.4917Z" fill="black"/>
<path d="M111.711 53.6795H109.285C109.272 53.6795 109.261 53.6695 109.261 53.6552V45.3592C109.298 43.2179 108.768 42.9161 106.839 42.9419H102.017C102.004 42.9419 101.993 42.9519 101.993 42.9662V53.6552C101.993 53.6681 101.983 53.6795 101.969 53.6795H99.567C99.5542 53.6795 99.5427 53.6695 99.5427 53.6552V40.5146C99.5427 40.5017 99.5527 40.4902 99.567 40.4902H106.838C109.834 40.5217 111.706 43.0077 111.706 45.3592V53.6781H111.708L111.711 53.6795Z" fill="black"/>
<path d="M2.70781 46.994C0.475031 49.0123 0.297653 50.6386 0.297653 52.5538V53.6795H10.5333V51.4267H2.56621C2.6835 50.4369 3.05395 49.6988 4.16963 48.6876L10.5333 43.3252V40.4802H0.289062V42.733H7.78127L2.73641 46.9669L2.70781 46.9926V46.994Z" fill="black"/>
</svg>
