<svg width="101" height="101" viewBox="0 0 101 101" fill="none" xmlns="http://www.w3.org/2000/svg">
<g clip-path="url(#clip0_3362_128246)">
<path d="M101.375 50.4902C101.375 78.1373 79.0221 100.49 51.375 100.49C23.7279 100.49 1.375 78.1373 1.375 50.4902C1.375 22.8432 23.7279 0.490234 51.375 0.490234C79.0221 0.490234 101.375 22.8432 101.375 50.4902Z" fill="#E1F25C"/>
<path d="M62.0613 93.0397C34.4142 93.0397 12.0613 70.6867 12.0613 43.0397C12.0613 28.3338 18.4338 15.0005 28.6299 5.88281C12.4534 14.1181 1.375 30.9808 1.375 50.3926C1.375 78.0397 23.7279 100.393 51.375 100.393C64.2181 100.393 75.9828 95.4907 84.8064 87.5495C78.0417 91.0789 70.2966 93.0397 62.0613 93.0397Z" fill="#B5E629"/>
<path d="M57.1602 34.9998C57.1602 43.039 50.6896 49.5096 42.6504 49.5096C34.6112 49.5096 28.1406 43.039 28.1406 34.9998C28.1406 26.9606 34.6112 20.49 42.6504 20.49C50.6896 20.49 57.1602 26.9606 57.1602 34.9998ZM97.8465 34.9998C97.8465 43.039 91.3759 49.5096 83.3367 49.5096C75.2975 49.5096 68.8269 43.039 68.8269 34.9998C68.8269 26.9606 75.2975 20.49 83.3367 20.49C91.3759 20.49 97.8465 26.9606 97.8465 34.9998Z" fill="white"/>
<path d="M49.2228 35.0004C49.2228 37.2553 47.3601 39.02 45.2032 39.02C42.9483 39.02 41.1836 37.1572 41.1836 35.0004C41.1836 32.8435 43.0463 30.9808 45.2032 30.9808C47.3601 30.8827 49.2228 32.7455 49.2228 35.0004ZM90.4973 35.0004C90.4973 37.2553 88.6346 39.02 86.4777 39.02C84.2228 39.02 82.4581 37.1572 82.4581 35.0004C82.4581 32.8435 84.3209 30.9808 86.4777 30.9808C88.6346 30.8827 90.4973 32.7455 90.4973 35.0004ZM76.7718 77.1572C76.0856 77.1572 75.3993 76.7651 75.0071 76.0788C72.5562 71.569 67.8503 68.8239 62.7522 68.8239C57.7522 68.8239 53.0463 71.667 50.3012 76.0788C49.713 77.0592 48.4385 77.3533 47.5561 76.7651C46.5758 76.1768 46.2816 74.9023 46.8699 74.02C50.3012 68.3337 56.3797 64.7062 62.7522 64.7062C69.3209 64.7062 75.3993 68.2357 78.6346 74.02C79.2228 75.0004 78.8307 76.2749 77.8503 76.7651C77.4581 77.0592 77.0659 77.1572 76.7718 77.1572Z" fill="#224275"/>
<path d="M60.3037 8.52967C65.892 10.0983 69.6175 13.9218 68.7351 16.961C67.8527 20.0983 62.6567 21.2748 57.0684 19.7061C51.4802 18.1375 47.7547 14.314 48.6371 11.2748C49.5194 8.23556 54.7155 6.96105 60.3037 8.52967Z" fill="#E1F25C"/>
</g>
<defs>
<clipPath id="clip0_3362_128246">
<rect width="100" height="100" fill="white" transform="translate(0.03125 0.490234)"/>
</clipPath>
</defs>
</svg>
