<svg width="49" height="49" viewBox="0 0 49 49" fill="none" xmlns="http://www.w3.org/2000/svg">
<path d="M24.5005 48.4375C23.353 48.4375 22.4297 47.5658 22.4297 46.4989V44.299H22.3672V39.8992H22.4297V35.4994H22.3672V31.0997H22.4297V26.6999H22.3672V22.3001H22.4297V17.9003H22.3672V13.5006H22.4297V9.10078H22.3672V4.70101H22.4297V2.50112C22.4297 2.23076 22.4888 1.97341 22.5956 1.73964L22.5387 1.71368C22.7606 1.22782 23.1817 0.841005 23.7056 0.643549L23.7276 0.702033C23.9663 0.612072 24.2271 0.5625 24.5005 0.5625C24.7739 0.5625 25.0347 0.612072 25.2734 0.702033L25.2955 0.643549C25.8194 0.841005 26.2404 1.22782 26.4623 1.71368L26.4055 1.73964C26.5123 1.97341 26.5714 2.23076 26.5714 2.50112V4.70101H26.6339V9.10078H26.5714V13.5006H26.6339V17.9003H26.5714V22.3001H26.6339V26.6999H26.5714V31.0997H26.6339V35.4994H26.5714V39.8992H26.6339V44.299H26.5714V46.4989C26.5714 47.5658 25.648 48.4375 24.5005 48.4375Z" fill="#D7D6D9" stroke="#D7D6D9" stroke-width="0.125" stroke-dasharray="4 4"/>
<path d="M2.50112 26.5714C2.23076 26.5714 1.97341 26.5123 1.73964 26.4055L1.71368 26.4623C1.22782 26.2404 0.841005 25.8194 0.643548 25.2955L0.702032 25.2734C0.612072 25.0347 0.5625 24.7739 0.5625 24.5005C0.5625 24.2271 0.612072 23.9663 0.702033 23.7276L0.643549 23.7056C0.841005 23.1817 1.22782 22.7606 1.71368 22.5387L1.73964 22.5956C1.97341 22.4888 2.23076 22.4297 2.50112 22.4297H4.70101V22.3672H9.10078V22.4297H13.5006V22.3672H17.9003V22.4297H22.3001V22.3672H26.6999V22.4297H31.0997V22.3672H35.4994V22.4297H39.8992V22.3672H44.299V22.4297H46.4989C46.7692 22.4297 47.0266 22.4888 47.2604 22.5956L47.2863 22.5387C47.7722 22.7606 48.159 23.1817 48.3565 23.7056L48.298 23.7276C48.3879 23.9663 48.4375 24.2271 48.4375 24.5005C48.4375 24.7739 48.3879 25.0347 48.298 25.2734L48.3565 25.2955C48.159 25.8194 47.7722 26.2404 47.2863 26.4623L47.2604 26.4055C47.0266 26.5123 46.7692 26.5714 46.4989 26.5714H44.299V26.6339H39.8992V26.5714H35.4994V26.6339H31.0997V26.5714H26.6999V26.6339H22.3001V26.5714H17.9003V26.6339H13.5006V26.5714H9.10078V26.6339H4.70101V26.5714H2.50112Z" fill="#D7D6D9" stroke="#D7D6D9" stroke-width="0.125" stroke-dasharray="4 4"/>
</svg>
