<svg width="81" height="16" viewBox="0 0 81 16" fill="none" xmlns="http://www.w3.org/2000/svg">
<g id="Vector" style="mix-blend-mode:difference">
<path d="M25.5952 7.2V4.528H27.9949C28.2234 4.528 28.441 4.54933 28.6478 4.592C28.8655 4.624 29.0559 4.688 29.2192 4.784C29.3824 4.88 29.513 5.01333 29.6109 5.184C29.7089 5.35467 29.7578 5.57333 29.7578 5.84C29.7578 6.32 29.6109 6.66667 29.3171 6.88C29.0233 7.09333 28.6478 7.2 28.1907 7.2H25.5952ZM23.0324 2.576V14H28.6805C29.2028 14 29.7089 13.936 30.1986 13.808C30.6992 13.68 31.1399 13.4827 31.5208 13.216C31.9126 12.9493 32.2228 12.608 32.4513 12.192C32.6798 11.7653 32.7941 11.264 32.7941 10.688C32.7941 9.97333 32.6145 9.36533 32.2554 8.864C31.9072 8.352 31.3739 7.99467 30.6557 7.792C31.178 7.54667 31.5698 7.232 31.831 6.848C32.103 6.464 32.2391 5.984 32.2391 5.408C32.2391 4.87467 32.1466 4.42667 31.9616 4.064C31.7875 3.70133 31.5372 3.41333 31.2107 3.2C30.8842 2.976 30.4924 2.816 30.0354 2.72C29.5783 2.624 29.0722 2.576 28.5172 2.576H23.0324ZM25.5952 12.048V8.912H28.3866C28.9416 8.912 29.3878 9.04 29.7252 9.296C30.0626 9.54133 30.2312 9.95733 30.2312 10.544C30.2312 10.8427 30.1768 11.088 30.068 11.28C29.9701 11.472 29.834 11.6267 29.6599 11.744C29.4858 11.8507 29.2844 11.9307 29.0559 11.984C28.8274 12.0267 28.588 12.048 28.3377 12.048H25.5952Z" fill="white"/>
<path d="M36.338 9.872C36.338 9.54133 36.3707 9.216 36.436 8.896C36.5013 8.576 36.6101 8.29333 36.7625 8.048C36.9257 7.80267 37.1379 7.60533 37.3991 7.456C37.6603 7.296 37.9868 7.216 38.3785 7.216C38.7703 7.216 39.0968 7.296 39.358 7.456C39.63 7.60533 39.8422 7.80267 39.9946 8.048C40.1578 8.29333 40.2721 8.576 40.3374 8.896C40.4027 9.216 40.4353 9.54133 40.4353 9.872C40.4353 10.2027 40.4027 10.528 40.3374 10.848C40.2721 11.1573 40.1578 11.44 39.9946 11.696C39.8422 11.9413 39.63 12.1387 39.358 12.288C39.0968 12.4373 38.7703 12.512 38.3785 12.512C37.9868 12.512 37.6603 12.4373 37.3991 12.288C37.1379 12.1387 36.9257 11.9413 36.7625 11.696C36.6101 11.44 36.5013 11.1573 36.436 10.848C36.3707 10.528 36.338 10.2027 36.338 9.872ZM34.02 9.872C34.02 10.5333 34.1234 11.1307 34.3302 11.664C34.537 12.1973 34.8308 12.656 35.2117 13.04C35.5926 13.4133 36.0496 13.7013 36.5829 13.904C37.1161 14.1067 37.7147 14.208 38.3785 14.208C39.0424 14.208 39.6409 14.1067 40.1742 13.904C40.7183 13.7013 41.1808 13.4133 41.5617 13.04C41.9426 12.656 42.2364 12.1973 42.4432 11.664C42.65 11.1307 42.7533 10.5333 42.7533 9.872C42.7533 9.21067 42.65 8.61333 42.4432 8.08C42.2364 7.536 41.9426 7.07733 41.5617 6.704C41.1808 6.32 40.7183 6.02667 40.1742 5.824C39.6409 5.61067 39.0424 5.504 38.3785 5.504C37.7147 5.504 37.1161 5.61067 36.5829 5.824C36.0496 6.02667 35.5926 6.32 35.2117 6.704C34.8308 7.07733 34.537 7.536 34.3302 8.08C34.1234 8.61333 34.02 9.21067 34.02 9.872Z" fill="white"/>
<path d="M52.1776 14V5.728H49.8596V10.064C49.8596 10.9067 49.7181 11.5147 49.4352 11.888C49.1522 12.2507 48.6952 12.432 48.064 12.432C47.509 12.432 47.1226 12.2667 46.905 11.936C46.6873 11.5947 46.5785 11.0827 46.5785 10.4V5.728H44.2605V10.816C44.2605 11.328 44.304 11.7973 44.3911 12.224C44.489 12.64 44.6523 12.9973 44.8808 13.296C45.1093 13.584 45.4195 13.808 45.8113 13.968C46.2139 14.128 46.7254 14.208 47.3457 14.208C47.8354 14.208 48.3143 14.1013 48.7822 13.888C49.2502 13.6747 49.6311 13.328 49.9249 12.848H49.9739V14H52.1776Z" fill="white"/>
<path d="M53.9369 5.728V14H56.2549V9.664C56.2549 8.82133 56.3964 8.21867 56.6793 7.856C56.9622 7.48267 57.4193 7.296 58.0505 7.296C58.6055 7.296 58.9919 7.46667 59.2095 7.808C59.4272 8.13867 59.536 8.64533 59.536 9.328V14H61.854V8.912C61.854 8.4 61.805 7.936 61.7071 7.52C61.62 7.09333 61.4622 6.736 61.2337 6.448C61.0051 6.14933 60.6895 5.92 60.2869 5.76C59.8951 5.58933 59.3891 5.504 58.7688 5.504C58.279 5.504 57.8002 5.616 57.3323 5.84C56.8643 6.05333 56.4834 6.4 56.1896 6.88H56.1406V5.728H53.9369Z" fill="white"/>
<path d="M69.3593 8.64H71.6283C71.5957 8.10667 71.4651 7.648 71.2365 7.264C71.008 6.86933 70.7087 6.544 70.3387 6.288C69.9796 6.02133 69.5661 5.824 69.0981 5.696C68.641 5.568 68.1622 5.504 67.6616 5.504C66.976 5.504 66.3666 5.616 65.8333 5.84C65.3001 6.064 64.8484 6.37867 64.4784 6.784C64.1084 7.17867 63.8255 7.65333 63.6296 8.208C63.4446 8.752 63.3521 9.344 63.3521 9.984C63.3521 10.6027 63.4555 11.1733 63.6622 11.696C63.869 12.208 64.1574 12.6507 64.5274 13.024C64.8974 13.3973 65.3436 13.6907 65.866 13.904C66.3992 14.1067 66.9814 14.208 67.6126 14.208C68.7335 14.208 69.6531 13.92 70.3714 13.344C71.0896 12.768 71.5249 11.9307 71.6773 10.832H69.4409C69.3647 11.344 69.1743 11.7547 68.8696 12.064C68.5757 12.3627 68.1513 12.512 67.5963 12.512C67.2372 12.512 66.9325 12.432 66.6822 12.272C66.4319 12.112 66.2305 11.9093 66.0782 11.664C65.9367 11.408 65.8333 11.1253 65.768 10.816C65.7027 10.5067 65.6701 10.2027 65.6701 9.904C65.6701 9.59467 65.7027 9.28533 65.768 8.976C65.8333 8.656 65.9421 8.368 66.0945 8.112C66.2577 7.84533 66.4645 7.632 66.7148 7.472C66.9651 7.30133 67.2753 7.216 67.6453 7.216C68.6356 7.216 69.2069 7.69067 69.3593 8.64Z" fill="white"/>
<path d="M78.6675 8.976H74.8967C74.9076 8.816 74.9402 8.63467 74.9946 8.432C75.0599 8.22933 75.1633 8.03733 75.3048 7.856C75.4571 7.67467 75.653 7.52533 75.8924 7.408C76.1427 7.28 76.4529 7.216 76.8229 7.216C77.3888 7.216 77.8078 7.36533 78.0798 7.664C78.3628 7.96267 78.5587 8.4 78.6675 8.976ZM74.8967 10.416H80.9855C81.029 9.776 80.9746 9.16267 80.8223 8.576C80.6699 7.98933 80.4196 7.46667 80.0714 7.008C79.734 6.54933 79.2987 6.18667 78.7654 5.92C78.2322 5.64267 77.6064 5.504 76.8882 5.504C76.2461 5.504 75.6585 5.616 75.1252 5.84C74.6028 6.064 74.1512 6.37333 73.7703 6.768C73.3894 7.152 73.0956 7.61067 72.8888 8.144C72.6821 8.67733 72.5787 9.25333 72.5787 9.872C72.5787 10.512 72.6766 11.0987 72.8725 11.632C73.0793 12.1653 73.3677 12.624 73.7377 13.008C74.1077 13.392 74.5593 13.6907 75.0926 13.904C75.6258 14.1067 76.2243 14.208 76.8882 14.208C77.8459 14.208 78.6621 13.9947 79.3368 13.568C80.0115 13.1413 80.5121 12.432 80.8386 11.44H78.7981C78.7219 11.696 78.5151 11.9413 78.1778 12.176C77.8404 12.4 77.4378 12.512 76.9698 12.512C76.3168 12.512 75.8162 12.3467 75.468 12.016C75.1198 11.6853 74.9293 11.152 74.8967 10.416Z" fill="white"/>
<path d="M1.02052 0C0.457056 0 0.000277312 0.447715 0.000277312 1C0.000277312 1.55228 0.457056 2 1.02052 2H4.42134C4.9848 2 5.44158 1.55228 5.44158 1C5.44158 0.447715 4.9848 0 4.42134 0H1.02052Z" fill="white"/>
<path d="M10.2153 3.27168C10.7441 3.08075 11.0148 2.50586 10.82 1.98763C10.6252 1.4694 10.0387 1.20406 9.50994 1.39499L0.667818 4.58797C0.139094 4.7789 -0.131611 5.35379 0.0631824 5.87202C0.257976 6.39025 0.844502 6.65559 1.37323 6.46466L10.2153 3.27168Z" fill="white"/>
<path d="M10.2153 11.412C10.7441 11.2211 11.0148 10.6462 10.82 10.128C10.6252 9.60975 10.0387 9.34441 9.50994 9.53534L0.667818 12.7283C0.139094 12.9193 -0.131611 13.4941 0.0631824 14.0124C0.257976 14.5306 0.844502 14.7959 1.37323 14.605L10.2153 11.412Z" fill="white"/>
<path d="M6.46183 14C5.89836 14 5.44158 14.4477 5.44158 15C5.44158 15.5523 5.89836 16 6.46183 16H9.86265C10.4261 16 10.8829 15.5523 10.8829 15C10.8829 14.4477 10.4261 14 9.86265 14H6.46183Z" fill="white"/>
<path d="M10.2289 7.26695C10.7548 7.06869 11.0172 6.4901 10.8149 5.97462C10.6126 5.45915 10.0223 5.202 9.4964 5.40026L0.654274 8.73359C0.128366 8.93185 -0.133992 9.51044 0.0682799 10.0259C0.270552 10.5414 0.860859 10.7985 1.38677 10.6003L10.2289 7.26695Z" fill="white"/>
</g>
</svg>
