<svg width="64" height="65" viewBox="0 0 64 65" fill="none" xmlns="http://www.w3.org/2000/svg">
<path d="M45.332 48.5013H18.6654V16.5013H45.332V19.168H50.6654V8.5013C50.6654 5.56797 48.2654 3.16797 45.332 3.16797H18.6654C15.732 3.16797 13.332 5.56797 13.332 8.5013V56.5013C13.332 59.4346 15.732 61.8346 18.6654 61.8346H45.332C48.2654 61.8346 50.6654 59.4346 50.6654 56.5013V45.8346H45.332V48.5013Z" fill="white"/>
<g clip-path="url(#clip0_871_88936)">
<path d="M50.4453 32.5H52.3342V36.2778H50.4453V32.5Z" fill="white"/>
<path d="M55.3547 27.7778V25.8889C55.3547 24.8472 54.3804 24 53.1825 24H39.063C37.2666 24 35.8047 25.2712 35.8047 26.8333V38.1667C35.8047 40.2454 37.7532 41 39.063 41H55.3547C56.5527 41 57.5269 40.1528 57.5269 39.1111V29.6667C57.5269 28.6249 56.5527 27.7778 55.3547 27.7778ZM39.063 25.8889H53.1825V27.7778H39.063C38.7834 27.7669 38.5193 27.6626 38.3259 27.4867C38.1324 27.3108 38.0244 27.0768 38.0244 26.8333C38.0244 26.5899 38.1324 26.3559 38.3259 26.1799C38.5193 26.004 38.7834 25.8998 39.063 25.8889ZM55.3547 39.1111H39.0761C38.5743 39.0998 37.9769 38.9269 37.9769 38.1667V29.4919C38.3179 29.5987 38.6796 29.6667 39.063 29.6667H55.3547V39.1111Z" fill="white"/>
</g>
<defs>
<clipPath id="clip0_871_88936">
<rect width="22.6667" height="22.6667" fill="white" transform="translate(35.332 21.168)"/>
</clipPath>
</defs>
</svg>
