<svg width="64" height="64" viewBox="0 0 64 64" fill="none" xmlns="http://www.w3.org/2000/svg">
<g id="fluent:document-copy-48-filled">
<path id="Vector" d="M33.5333 17.8816V3H23.1833C21.455 3 19.7975 3.68343 18.5754 4.89995C17.3532 6.11647 16.6667 7.76642 16.6667 9.48684V46.8816C16.6667 48.602 17.3532 50.2519 18.5754 51.4685C19.7975 52.685 21.455 53.3684 23.1833 53.3684H48.4833C50.2117 53.3684 51.8692 52.685 53.0913 51.4685C54.3134 50.2519 55 48.602 55 46.8816V24.3684H40.05C38.3217 24.3684 36.6641 23.685 35.442 22.4685C34.2199 21.2519 33.5333 19.602 33.5333 17.8816ZM37.3667 17.8816V3.76316L54.2333 20.5526H40.05C39.3383 20.5526 38.6558 20.2712 38.1526 19.7703C37.6494 19.2694 37.3667 18.59 37.3667 17.8816ZM9 16.2789C8.99963 15.0624 9.36431 13.8734 10.0473 12.8645C10.7303 11.8556 11.7004 11.0727 12.8333 10.6163V46.8816C12.8333 49.614 13.9238 52.2345 15.8648 54.1666C17.8058 56.0988 20.4383 57.1842 23.1833 57.1842H47.3487C46.8902 58.3119 46.1037 59.2777 45.0902 59.9575C44.0766 60.6374 42.8822 61.0004 41.66 61H23.1833C19.4217 61 15.8141 59.5125 13.1542 56.8648C10.4943 54.2171 9 50.626 9 46.8816V16.2789Z" fill="white"/>
</g>
</svg>
