<svg width="24" height="24" viewBox="0 0 24 24" fill="none" xmlns="http://www.w3.org/2000/svg">
<g id="bx:wallet">
<path id="Vector" d="M16 12H18V16H16V12Z" fill="white"/>
<path id="Vector_2" d="M21.2 7V5C21.2 3.897 20.1684 3 18.9 3H3.95C2.0479 3 0.5 4.346 0.5 6V18C0.5 20.201 2.5631 21 3.95 21H21.2C22.4684 21 23.5 20.103 23.5 19V9C23.5 7.897 22.4684 7 21.2 7ZM3.95 5H18.9V7H3.95C3.6539 6.98848 3.37432 6.87809 3.16947 6.69182C2.96462 6.50554 2.85029 6.25774 2.85029 6C2.85029 5.74226 2.96462 5.49446 3.16947 5.30818C3.37432 5.12191 3.6539 5.01152 3.95 5ZM21.2 19H3.9638C3.4325 18.988 2.8 18.805 2.8 18V8.815C3.1611 8.928 3.54405 9 3.95 9H21.2V19Z" fill="white"/>
</g>
</svg>
