<svg xmlns="http://www.w3.org/2000/svg" width="112" height="87" viewBox="0 0 112 87" fill="none">
  <path d="M16.431 76.1694C18.322 77.4165 20.425 77.8867 21.8987 77.9227L86.7481 79.5069C94.5063 79.6964 97.6865 74.937 98.7124 70.7132C101.152 72.978 101.633 78.5155 99.6796 82.5445C97.6718 86.6861 77.5824 85.3349 61.223 84.2346C56.5656 83.9214 52.2105 83.6285 48.661 83.4884C13.0144 82.0819 14.0827 79.2266 14.7019 77.5716C14.744 77.4591 14.784 77.3521 14.8103 77.2515C14.3863 76.85 14.993 76.4941 16.431 76.1694Z" fill="black"/>
  <path d="M81.5696 43.0931C81.4988 45.9917 79.0916 48.2841 76.193 48.2133C73.2943 48.1425 71.0019 45.7353 71.0727 42.8367C71.1436 39.938 73.5508 37.6456 76.4494 37.7164C79.348 37.7872 81.6404 40.1945 81.5696 43.0931Z" fill="black"/>
  <path d="M41.0696 41.5931C40.9988 44.4917 38.5916 46.7841 35.693 46.7133C32.7943 46.6425 30.5019 44.2353 30.5727 41.3367C30.6436 38.438 33.0508 36.1456 35.9494 36.2164C38.848 36.2872 41.1404 38.6945 41.0696 41.5931Z" fill="black"/>
  <path d="M107.09 7.69677C107.029 10.1813 105.973 12.1708 104.73 12.1405C103.488 12.1101 102.53 10.0714 102.591 7.58687C102.652 5.10233 103.708 3.11282 104.95 3.14316C106.193 3.17351 107.15 5.21223 107.09 7.69677Z" fill="black"/>
  <path d="M11.0897 6.19677C11.029 8.68131 9.97276 10.6708 8.73049 10.6405C7.48822 10.6101 6.53037 8.57141 6.59106 6.08687C6.65176 3.60233 7.70802 1.61282 8.95029 1.64316C10.1926 1.67351 11.1504 3.71223 11.0897 6.19677Z" fill="black"/>
  <path d="M16.431 76.1694L17.2569 74.9172L16.7237 74.5656L16.1007 74.7062L16.431 76.1694ZM21.8987 77.9227L21.9354 76.4231L21.8987 77.9227ZM86.7481 79.5069L86.7847 78.0073L86.7481 79.5069ZM98.7124 70.7132L99.7329 69.6138L97.8584 67.8739L97.2548 70.3591L98.7124 70.7132ZM99.6796 82.5445L101.029 83.1989L99.6796 82.5445ZM61.223 84.2346L61.1224 85.7313L61.223 84.2346ZM48.661 83.4884L48.7202 81.9896L48.661 83.4884ZM14.7019 77.5716L16.1068 78.0973L14.7019 77.5716ZM14.8103 77.2515L16.2616 77.6305L16.4857 76.7724L15.8418 76.1625L14.8103 77.2515ZM12.8867 29.4996L14.3862 29.5362L14.3874 29.4894L14.3856 29.4426L12.8867 29.4996ZM23.4392 14.9261L23.3204 13.4308L23.4392 14.9261ZM88.2886 16.5103L88.0347 17.9887L88.2568 18.0268L88.4804 17.998L88.2886 16.5103ZM99.9697 31.6269L101.469 31.6636L99.9697 31.6269ZM99.1097 66.8301L97.6101 66.7935L97.6088 66.847L97.6113 66.9005L99.1097 66.8301ZM86.7496 79.5056L86.713 81.0051L86.7496 79.5056ZM21.9003 77.9213L21.9369 76.4218L21.9003 77.9213ZM11.9814 66.5556L10.4819 66.519L11.9814 66.5556ZM109.073 33.9292L107.817 34.7487L109.073 33.9292ZM109.076 59.6805L110.483 60.2027V60.2027L109.076 59.6805ZM3.69829 31.3539L4.91313 32.2338L3.69829 31.3539ZM2.43752 57.0744L1.00754 57.5273H1.00754L2.43752 57.0744ZM43.8904 58.2077C43.0705 58.089 42.3097 58.6575 42.191 59.4774C42.0724 60.2972 42.6408 61.0581 43.4607 61.1768L43.8904 58.2077ZM67.9041 61.7739C68.7288 61.6954 69.3338 60.9632 69.2553 60.1385C69.1768 59.3138 68.4446 58.7089 67.6199 58.7874L67.9041 61.7739ZM15.6052 77.4216C17.7613 78.8435 20.1461 79.3803 21.8621 79.4222L21.9354 76.4231C20.7039 76.393 18.8828 75.9895 17.2569 74.9172L15.6052 77.4216ZM21.8621 79.4222L86.7115 81.0064L86.7847 78.0073L21.9354 76.4231L21.8621 79.4222ZM86.7115 81.0064C90.9279 81.1094 94.0463 79.8596 96.2552 77.8828C98.4352 75.9318 99.6075 73.3834 100.17 71.0672L97.2548 70.3591C96.7915 72.2667 95.8607 74.21 94.2546 75.6473C92.6774 77.0587 90.3265 78.0938 86.7847 78.0073L86.7115 81.0064ZM97.692 71.8125C98.5316 72.5919 99.1842 74.1181 99.3487 76.0919C99.5099 78.0267 99.1761 80.1448 98.3299 81.8902L101.029 83.1989C102.136 80.9153 102.539 78.25 102.338 75.8427C102.141 73.4742 101.333 71.0992 99.7329 69.6138L97.692 71.8125ZM98.3299 81.8902C98.2977 81.9566 98.1286 82.1959 97.4927 82.4896C96.881 82.7722 96.0058 83.0265 94.8569 83.2346C92.5649 83.6497 89.4574 83.8343 85.8245 83.8553C78.5723 83.8973 69.5199 83.2893 61.3237 82.738L61.1224 85.7313C69.2854 86.2803 78.4574 86.898 85.8418 86.8553C89.5272 86.8339 92.8409 86.6485 95.3916 86.1866C96.6641 85.9561 97.8156 85.6451 98.7507 85.2131C99.6618 84.7923 100.56 84.1679 101.029 83.1989L98.3299 81.8902ZM61.3237 82.738C56.6732 82.4252 52.2949 82.1306 48.7202 81.9896L48.6019 84.9873C52.1261 85.1263 56.458 85.4175 61.1224 85.7313L61.3237 82.738ZM48.7202 81.9896C30.8839 81.2858 22.3972 80.2217 18.4683 79.1739C17.4986 78.9153 16.8641 78.672 16.4584 78.4646C16.0454 78.2535 15.9524 78.1215 15.9583 78.13C16.0921 78.3189 15.9305 78.5685 16.1068 78.0973L13.297 77.046C13.1637 77.4023 12.6364 78.6294 13.5096 79.8631C13.8853 80.394 14.4384 80.8012 15.0929 81.1358C15.7547 81.4741 16.6092 81.7829 17.6952 82.0726C21.989 83.2177 30.7915 84.2845 48.6019 84.9873L48.7202 81.9896ZM16.1068 78.0973C16.1422 78.0028 16.2122 77.82 16.2616 77.6305L13.359 76.8726C13.3594 76.8708 13.3565 76.8822 13.3452 76.9147C13.3334 76.9484 13.3193 76.9864 13.297 77.046L16.1068 78.0973ZM15.8418 76.1625C15.9213 76.2378 16.2816 76.6356 16.1511 77.2638C16.0961 77.5283 15.9722 77.7074 15.8898 77.8022C15.81 77.894 15.7442 77.9365 15.736 77.9418C15.7255 77.9486 15.7906 77.908 15.9916 77.8401C16.1791 77.7767 16.433 77.7067 16.7614 77.6326L16.1007 74.7062C15.381 74.8687 14.6329 75.0831 14.1088 75.4214C13.8683 75.5768 13.3586 75.9565 13.2138 76.6536C13.0438 77.4716 13.4873 78.0645 13.7788 78.3406L15.8418 76.1625ZM14.3856 29.4426C14.2982 27.1432 14.6988 23.9585 16.0928 21.3225C17.4476 18.7607 19.7187 16.7262 23.5579 16.4214L23.3204 13.4308C18.2915 13.8301 15.1922 16.6083 13.4408 19.92C11.7286 23.1576 11.2871 26.9076 11.3877 29.5565L14.3856 29.4426ZM23.5579 16.4214C30.6813 15.8557 43.9269 15.7513 56.8785 16.0409C69.8543 16.331 82.3553 17.0132 88.0347 17.9887L88.5425 15.0319C82.6097 14.013 69.8896 13.331 56.9456 13.0416C43.9773 12.7517 30.6043 12.8524 23.3204 13.4308L23.5579 16.4214ZM88.4804 17.998C90.1487 17.7829 92.6926 18.156 94.7678 19.9941C96.8033 21.797 98.6256 25.2245 98.4701 31.5903L101.469 31.6636C101.64 24.6892 99.6361 20.2986 96.757 17.7484C93.9175 15.2333 90.4579 14.7182 88.0967 15.0226L88.4804 17.998ZM98.4701 31.5903L97.6101 66.7935L100.609 66.8668L101.469 31.6636L98.4701 31.5903ZM97.6113 66.9005C97.702 68.8315 97.2472 71.7172 95.6586 74.0402C94.1347 76.2687 91.4797 78.1207 86.7863 78.006L86.713 81.0051C92.3953 81.1439 96.0219 78.8236 98.1349 75.7337C100.183 72.7383 100.721 69.1595 100.608 66.7598L97.6113 66.9005ZM86.7863 78.006L21.9369 76.4218L21.8636 79.4209L86.713 81.0051L86.7863 78.006ZM21.9369 76.4218C20.5064 76.3868 18.3159 75.8516 16.5406 74.3857C14.8316 72.9746 13.383 70.6029 13.481 66.5922L10.4819 66.519C10.3626 71.4017 12.175 74.6714 14.6305 76.699C17.0198 78.672 19.8973 79.3729 21.8636 79.4209L21.9369 76.4218ZM13.481 66.5922L14.3862 29.5362L11.3871 29.4629L10.4819 66.519L13.481 66.5922ZM101.064 34.066C102.002 33.953 103.69 33.9166 105.242 34.0876C106.017 34.1731 106.696 34.3038 107.204 34.4737C107.777 34.6656 107.862 34.8178 107.817 34.7487L110.329 33.1097C109.797 32.2929 108.878 31.8704 108.155 31.6286C107.367 31.365 106.456 31.2033 105.57 31.1057C103.8 30.9106 101.881 30.9458 100.705 31.0876L101.064 34.066ZM107.817 34.7487C107.743 34.6357 107.766 34.616 107.822 34.853C107.868 35.0464 107.916 35.3228 107.963 35.6881C108.056 36.4159 108.13 37.3925 108.185 38.5551C108.293 40.8741 108.319 43.8319 108.286 46.8054C108.253 49.7764 108.16 52.7414 108.035 55.0701C107.972 56.2359 107.902 57.2298 107.828 57.9799C107.791 58.3559 107.754 58.6568 107.719 58.8806C107.679 59.1377 107.655 59.1988 107.67 59.1583L110.483 60.2027C110.582 59.9344 110.642 59.6095 110.683 59.3423C110.73 59.0418 110.773 58.68 110.813 58.2747C110.894 57.4622 110.967 56.4191 111.031 55.2313C111.159 52.8527 111.252 49.8444 111.286 46.839C111.319 43.8362 111.294 40.8147 111.182 38.4149C111.126 37.2182 111.047 36.1504 110.939 35.307C110.885 34.8867 110.821 34.4957 110.741 34.1598C110.671 33.8674 110.556 33.4563 110.329 33.1097L107.817 34.7487ZM107.67 59.1583C107.652 59.2081 107.566 59.3729 107.215 59.5962C106.866 59.8183 106.345 60.0386 105.64 60.2251C104.231 60.5977 102.324 60.7741 100.197 60.7222L100.124 63.7213C102.421 63.7774 104.633 63.5946 106.407 63.1253C107.294 62.8909 108.13 62.5695 108.825 62.1273C109.518 61.6864 110.163 61.0643 110.483 60.2027L107.67 59.1583ZM12.1953 28.9244C11.0271 28.7252 9.11229 28.5964 7.33489 28.7048C6.44548 28.7591 5.52768 28.8761 4.72741 29.1009C3.99361 29.3071 3.05545 29.6843 2.48345 30.474L4.91313 32.2338C4.86474 32.3006 4.95658 32.1527 5.53885 31.9891C6.05465 31.8442 6.73899 31.7467 7.51749 31.6993C9.07589 31.6042 10.7599 31.723 11.6912 31.8817L12.1953 28.9244ZM2.48345 30.474C2.24069 30.8092 2.10485 31.2142 2.02122 31.5028C1.92513 31.8344 1.84173 32.2218 1.76743 32.639C1.61835 33.4762 1.48768 34.5388 1.37333 35.7314C1.14404 38.1228 0.970933 41.1394 0.857902 44.1403C0.744776 47.1437 0.691033 50.1531 0.702749 52.535C0.7086 53.7245 0.730818 54.77 0.771272 55.5854C0.79145 55.9922 0.816828 56.3557 0.84891 56.6581C0.877435 56.927 0.921109 57.2544 1.00754 57.5273L3.86751 56.6214C3.88054 56.6626 3.85962 56.6004 3.83217 56.3417C3.80828 56.1164 3.78631 55.8142 3.76759 55.4368C3.73024 54.684 3.70846 53.6878 3.70271 52.5203C3.69124 50.1883 3.74395 47.2223 3.85578 44.2532C3.9677 41.2817 4.13806 38.3287 4.35963 36.0177C4.47072 34.8591 4.59232 33.8873 4.72097 33.165C4.78554 32.8024 4.84737 32.5287 4.9027 32.3377C4.97049 32.1037 4.99227 32.1245 4.91313 32.2338L2.48345 30.474ZM1.00754 57.5273C1.28506 58.4035 1.8985 59.0563 2.56906 59.5305C3.24166 60.0062 4.06157 60.368 4.93534 60.6454C6.68438 61.2008 8.88503 61.4914 11.1824 61.5475L11.2556 58.5484C9.12856 58.4964 7.23204 58.2271 5.84324 57.7861C5.14808 57.5654 4.6389 57.3199 4.30124 57.0811C3.96155 56.8409 3.88357 56.6721 3.8675 56.6214L1.00754 57.5273ZM80.0701 43.0564C80.0195 45.1269 78.3 46.7643 76.2296 46.7137L76.1563 49.7129C79.8831 49.8039 82.9781 46.8565 83.0692 43.1297L80.0701 43.0564ZM76.2296 46.7137C74.1591 46.6632 72.5217 44.9437 72.5723 42.8733L69.5732 42.8C69.4821 46.5268 72.4295 49.6218 76.1563 49.7129L76.2296 46.7137ZM72.5723 42.8733C72.6229 40.8028 74.3423 39.1654 76.4128 39.216L76.486 36.2169C72.7592 36.1258 69.6642 39.0732 69.5732 42.8L72.5723 42.8733ZM76.4128 39.216C78.4832 39.2666 80.1206 40.986 80.0701 43.0564L83.0692 43.1297C83.1602 39.4029 80.2128 36.3079 76.486 36.2169L76.4128 39.216ZM39.5701 41.5564C39.5195 43.6269 37.8 45.2643 35.7296 45.2137L35.6563 48.2129C39.3831 48.3039 42.4781 45.3565 42.5692 41.6297L39.5701 41.5564ZM35.7296 45.2137C33.6591 45.1632 32.0217 43.4437 32.0723 41.3733L29.0732 41.3C28.9821 45.0268 31.9295 48.1218 35.6563 48.2129L35.7296 45.2137ZM32.0723 41.3733C32.1229 39.3028 33.8423 37.6654 35.9128 37.716L35.986 34.7169C32.2592 34.6258 29.1642 37.5732 29.0732 41.3L32.0723 41.3733ZM35.9128 37.716C37.9832 37.7666 39.6206 39.486 39.5701 41.5564L42.5692 41.6297C42.6602 37.9029 39.7128 34.8079 35.986 34.7169L35.9128 37.716ZM43.6756 59.6922C43.4607 61.1768 43.4609 61.1768 43.4611 61.1768C43.4612 61.1768 43.4615 61.1769 43.4616 61.1769C43.462 61.1769 43.4624 61.177 43.4629 61.1771C43.4639 61.1772 43.4651 61.1774 43.4665 61.1776C43.4693 61.178 43.4731 61.1785 43.4777 61.1792C43.487 61.1805 43.4999 61.1823 43.5165 61.1845C43.5497 61.1891 43.5975 61.1954 43.6601 61.2035C43.7854 61.2195 43.9703 61.2421 44.2164 61.2697C44.7087 61.3247 45.4463 61.3994 46.4441 61.4802C48.4396 61.6417 51.4759 61.8277 55.6713 61.9302L55.7446 58.9311C51.6023 58.8299 48.6224 58.6467 46.6862 58.4899C45.7181 58.4116 45.0109 58.3398 44.5499 58.2883C44.3194 58.2625 44.1504 58.2417 44.0411 58.2277C43.9865 58.2207 43.9467 58.2154 43.9217 58.212C43.9092 58.2103 43.9003 58.2091 43.8951 58.2084C43.8925 58.208 43.8908 58.2077 43.8901 58.2076C43.8897 58.2076 43.8895 58.2076 43.8896 58.2076C43.8896 58.2076 43.8897 58.2076 43.8898 58.2076C43.8899 58.2076 43.89 58.2076 43.8901 58.2076C43.8902 58.2077 43.8904 58.2077 43.6756 59.6922ZM55.6713 61.9302C59.8667 62.0327 62.9084 61.9952 64.9095 61.9313C65.91 61.8993 66.6504 61.8607 67.1448 61.8298C67.392 61.8143 67.5777 61.8007 67.7037 61.7908C67.7666 61.7859 67.8147 61.7818 67.848 61.7789C67.8647 61.7775 67.8777 61.7763 67.887 61.7755C67.8917 61.775 67.8955 61.7747 67.8983 61.7744C67.8997 61.7743 67.9009 61.7742 67.9019 61.7741C67.9024 61.7741 67.9028 61.774 67.9032 61.774C67.9034 61.774 67.9036 61.7739 67.9037 61.7739C67.9039 61.7739 67.9041 61.7739 67.762 60.2806C67.6199 58.7874 67.6201 58.7874 67.6202 58.7873C67.6203 58.7873 67.6204 58.7873 67.6205 58.7873C67.6207 58.7873 67.6207 58.7873 67.6208 58.7873C67.6208 58.7873 67.6207 58.7873 67.6203 58.7873C67.6195 58.7874 67.6178 58.7876 67.6152 58.7878C67.6099 58.7883 67.601 58.7891 67.5885 58.7902C67.5633 58.7924 67.5233 58.7957 67.4684 58.8C67.3586 58.8087 67.1888 58.8212 66.9573 58.8356C66.4943 58.8646 65.7845 58.9018 64.8137 58.9328C62.8721 58.9948 59.8868 59.0323 55.7446 58.9311L55.6713 61.9302ZM106.086 32.7031L106.607 11.3958L103.608 11.3226L103.087 32.6298L106.086 32.7031ZM9.74445 30.3505L10.265 9.04331L7.26586 8.97004L6.74534 30.2773L9.74445 30.3505ZM105.59 7.66014C105.564 8.72009 105.325 9.60023 105.028 10.1583C104.685 10.805 104.514 10.6348 104.767 10.6409L104.694 13.64C106.189 13.6766 107.168 12.5267 107.678 11.5651C108.236 10.5149 108.554 9.158 108.589 7.73341L105.59 7.66014ZM104.767 10.6409C105.02 10.6471 104.841 10.8088 104.53 10.1461C104.261 9.57425 104.065 8.68346 104.091 7.62351L101.092 7.55024C101.057 8.97483 101.309 10.3457 101.815 11.4219C102.278 12.4073 103.199 13.6035 104.694 13.64L104.767 10.6409ZM104.091 7.62351C104.117 6.56356 104.356 5.68341 104.652 5.12532C104.996 4.47863 105.167 4.64889 104.914 4.64272L104.987 1.64361C103.492 1.60709 102.513 2.75694 102.003 3.71855C101.445 4.76877 101.126 6.12565 101.092 7.55024L104.091 7.62351ZM104.914 4.64272C104.661 4.63654 104.84 4.47482 105.151 5.1375C105.42 5.7094 105.616 6.60019 105.59 7.66014L108.589 7.73341C108.624 6.30881 108.372 4.93798 107.866 3.86179C107.403 2.87639 106.482 1.68014 104.987 1.64361L104.914 4.64272ZM9.59017 6.16014C9.56427 7.22009 9.32464 8.10023 9.02834 8.65832C8.685 9.30501 8.51428 9.13475 8.76712 9.14093L8.69386 12.14C10.189 12.1766 11.1675 11.0267 11.6781 10.0651C12.2356 9.01488 12.5545 7.658 12.5893 6.23341L9.59017 6.16014ZM8.76712 9.14093C9.01997 9.14711 8.84114 9.30883 8.52979 8.64614C8.26109 8.07425 8.06472 7.18346 8.09061 6.12351L5.09151 6.05024C5.05671 7.47483 5.30891 8.84567 5.81454 9.92185C6.27751 10.9073 7.19874 12.1035 8.69386 12.14L8.76712 9.14093ZM8.09061 6.12351C8.11651 5.06356 8.35614 4.18341 8.65244 3.62532C8.99578 2.97863 9.1665 3.14889 8.91366 3.14272L8.98692 0.143612C7.4918 0.107088 6.51326 1.25694 6.00273 2.21855C5.44515 3.26876 5.12631 4.62565 5.09151 6.05024L8.09061 6.12351ZM8.91366 3.14272C8.66081 3.13654 8.83964 2.97482 9.15099 3.6375C9.41969 4.2094 9.61606 5.10019 9.59017 6.16014L12.5893 6.23341C12.6241 4.80881 12.3719 3.43798 11.8662 2.36179C11.4033 1.37639 10.482 0.180137 8.98692 0.143612L8.91366 3.14272Z" fill="black"/>
</svg>