<svg width="18" height="14" viewBox="0 0 18 14" fill="none" xmlns="http://www.w3.org/2000/svg">
<path d="M13.5405 0.644287C12.0493 0.644287 10.4434 0.950169 9.33462 1.79135C8.22579 0.950169 6.61991 0.644287 5.12873 0.644287C3.63756 0.644287 2.03168 0.950169 0.922852 1.79135V12.9943C0.922852 13.4913 1.48109 13.3384 1.49638 13.3384C2.52873 12.8413 4.01991 12.4972 5.12873 12.4972C6.61991 12.4972 8.22579 12.8031 9.33462 13.6443C10.367 12.9943 12.2405 12.4972 13.5405 12.4972C14.8023 12.4972 16.1023 12.7266 17.1729 13.3002C17.4864 13.4608 17.7464 13.1549 17.7464 12.9561V1.79135C16.607 0.934875 14.9705 0.644287 13.5405 0.644287ZM16.217 11.3502C15.3758 11.0825 14.4581 10.9678 13.5405 10.9678C12.2405 10.9678 10.367 11.4649 9.33462 12.1149V3.32076C10.367 2.67076 12.2405 2.1737 13.5405 2.1737C14.4581 2.1737 15.3758 2.2884 16.217 2.55605V11.3502Z" fill="#20201E"/>
</svg>
