<svg width="9" height="14" viewBox="0 0 9 14" fill="none" xmlns="http://www.w3.org/2000/svg">
<path d="M3.51763 9.53902C3.51763 8.61534 3.60042 7.95097 3.766 7.54592C3.93158 7.14087 4.28213 6.69909 4.81763 6.2206C5.28518 5.81008 5.64165 5.4536 5.88705 5.15118C6.13246 4.84876 6.25493 4.50392 6.25448 4.11666C6.25448 3.64911 6.09779 3.26139 5.78442 2.9535C5.47106 2.6456 5.03476 2.49166 4.47553 2.49166C3.89395 2.49166 3.45195 2.66841 3.14953 3.02192C2.84711 3.37543 2.63363 3.73464 2.50911 4.09955L0.746582 3.34692C0.986056 2.61709 1.42509 1.9842 2.06369 1.44823C2.70228 0.91227 3.50623 0.644287 4.47553 0.644287C5.6729 0.644287 6.59384 0.977954 7.23837 1.64529C7.8829 2.31262 8.20493 3.1136 8.20448 4.04823C8.20448 4.61841 8.082 5.10602 7.83705 5.51108C7.59211 5.91613 7.20713 6.37501 6.68211 6.88771C6.12334 7.42367 5.78419 7.83146 5.66469 8.11108C5.54518 8.39069 5.4852 8.86667 5.48474 9.53902H3.51763ZM4.47553 13.6443C4.09921 13.6443 3.77718 13.5102 3.50942 13.242C3.24167 12.9738 3.10756 12.6517 3.10711 12.2759C3.10711 11.8995 3.24121 11.5773 3.50942 11.3091C3.77763 11.0409 4.09967 10.907 4.47553 10.9074C4.85184 10.9074 5.17411 11.0415 5.44232 11.3098C5.71053 11.578 5.84441 11.9 5.84395 12.2759C5.84395 12.6522 5.70984 12.9744 5.44163 13.2427C5.17342 13.5109 4.85139 13.6447 4.47553 13.6443Z" fill="#20201E"/>
</svg>
