<svg width="16" height="15" viewBox="0 0 16 15" fill="none" xmlns="http://www.w3.org/2000/svg">
<path d="M13.8045 8.73468C13.6233 8.73468 13.4495 8.80665 13.3214 8.93477C13.1933 9.06289 13.1213 9.23666 13.1213 9.41785V12.1505C13.1213 12.3317 13.0493 12.5055 12.9212 12.6336C12.7931 12.7617 12.6193 12.8337 12.4381 12.8337H2.87373C2.69254 12.8337 2.51877 12.7617 2.39066 12.6336C2.26254 12.5055 2.19056 12.3317 2.19056 12.1505V5.59892L6.2076 9.6228C6.59189 10.0066 7.1128 10.2222 7.65592 10.2222C8.19904 10.2222 8.71996 10.0066 9.10424 9.6228L10.2246 8.5024C10.3533 8.37375 10.4256 8.19928 10.4256 8.01735C10.4256 7.83542 10.3533 7.66094 10.2246 7.5323C10.096 7.40365 9.92152 7.33138 9.73959 7.33138C9.55766 7.33138 9.38318 7.40365 9.25454 7.5323L8.13414 8.6527C8.00644 8.77787 7.83474 8.84798 7.65592 8.84798C7.4771 8.84798 7.30541 8.77787 7.1777 8.6527L3.15383 4.63565H7.65592C7.83711 4.63565 8.01088 4.56368 8.139 4.43556C8.26712 4.30744 8.33909 4.13367 8.33909 3.95248C8.33909 3.7713 8.26712 3.59753 8.139 3.46941C8.01088 3.34129 7.83711 3.26931 7.65592 3.26931H2.87373C2.33017 3.26931 1.80886 3.48524 1.42451 3.8696C1.04015 4.25396 0.824219 4.77526 0.824219 5.31882V12.1505C0.824219 12.6941 1.04015 13.2154 1.42451 13.5998C1.80886 13.9841 2.33017 14.2 2.87373 14.2H12.4381C12.9817 14.2 13.503 13.9841 13.8873 13.5998C14.2717 13.2154 14.4876 12.6941 14.4876 12.1505V9.41785C14.4876 9.23666 14.4156 9.06289 14.2875 8.93477C14.1594 8.80665 13.9856 8.73468 13.8045 8.73468ZM14.9727 2.78426L12.9232 0.734752C12.8582 0.672556 12.7816 0.623801 12.6977 0.591286C12.5314 0.522957 12.3448 0.522957 12.1785 0.591286C12.0946 0.623801 12.018 0.672556 11.9531 0.734752L9.90355 2.78426C9.77491 2.91291 9.70264 3.08738 9.70264 3.26931C9.70264 3.45124 9.77491 3.62572 9.90355 3.75436C10.0322 3.88301 10.2067 3.95528 10.3886 3.95528C10.5705 3.95528 10.745 3.88301 10.8737 3.75436L11.7549 2.86624V6.68517C11.7549 6.86635 11.8269 7.04012 11.955 7.16824C12.0832 7.29636 12.2569 7.36834 12.4381 7.36834C12.6193 7.36834 12.7931 7.29636 12.9212 7.16824C13.0493 7.04012 13.1213 6.86635 13.1213 6.68517V2.86624L14.0026 3.75436C14.0661 3.8184 14.1416 3.86922 14.2249 3.9039C14.3081 3.93859 14.3974 3.95645 14.4876 3.95645C14.5778 3.95645 14.6671 3.93859 14.7504 3.9039C14.8336 3.86922 14.9092 3.8184 14.9727 3.75436C15.0367 3.69086 15.0875 3.6153 15.1222 3.53205C15.1569 3.44879 15.1748 3.3595 15.1748 3.26931C15.1748 3.17913 15.1569 3.08983 15.1222 3.00658C15.0875 2.92333 15.0367 2.84777 14.9727 2.78426Z" fill="white"/>
</svg>
