<svg width="15" height="22" viewBox="0 0 15 22" fill="none" xmlns="http://www.w3.org/2000/svg">
<g style="mix-blend-mode:difference">
<path d="M1.40322 0C0.628453 0 0.000381287 0.615608 0.000381287 1.375C0.000381287 2.13439 0.628453 2.75 1.40322 2.75H6.07934C6.85411 2.75 7.48218 2.13439 7.48218 1.375C7.48218 0.615608 6.85411 0 6.07934 0H1.40322Z" fill="white"/>
<path d="M14.0461 4.49856C14.7731 4.23603 15.1453 3.44556 14.8775 2.73299C14.6096 2.02042 13.8032 1.65559 13.0762 1.91811L0.91825 6.30846C0.191254 6.57099 -0.180965 7.36146 0.0868758 8.07403C0.354716 8.7866 1.16119 9.15143 1.88819 8.88891L14.0461 4.49856Z" fill="white"/>
<path d="M14.0461 15.6915C14.7731 15.429 15.1453 14.6385 14.8775 13.926C14.6096 13.2134 13.8032 12.8486 13.0762 13.1111L0.91825 17.5014C0.191254 17.764 -0.180965 18.5544 0.0868758 19.267C0.354716 19.9796 1.16119 20.3444 1.88819 20.0819L14.0461 15.6915Z" fill="white"/>
<path d="M8.88501 19.25C8.11025 19.25 7.48218 19.8656 7.48218 20.625C7.48218 21.3844 8.11025 22 8.88501 22H13.5611C14.3359 22 14.964 21.3844 14.964 20.625C14.964 19.8656 14.3359 19.25 13.5611 19.25H8.88501Z" fill="white"/>
<path d="M14.0647 9.99205C14.7878 9.71945 15.1486 8.92388 14.8705 8.21511C14.5923 7.50633 13.7807 7.15275 13.0575 7.42535L0.899627 12.0087C0.176504 12.2813 -0.18424 13.0769 0.0938849 13.7856C0.372009 14.4944 1.18368 14.848 1.90681 14.5754L14.0647 9.99205Z" fill="white"/>
</g>
</svg>
