<svg width="544" height="552" viewBox="0 0 544 552" fill="none" xmlns="http://www.w3.org/2000/svg">
<g clip-path="url(#clip0_4073_99651)">
<path d="M0 24C0 10.7452 10.7452 0 24 0H544V552H24C10.7452 552 0 541.255 0 528V24Z" fill="#E1F25C"/>
<rect y="136" width="136" height="136" fill="#F6F7F3"/>
<rect y="136" width="68" height="136" fill="#20201E"/>
<rect y="136" width="68" height="136" fill="#20201E"/>
<rect x="544" width="136" height="136" transform="rotate(90 544 0)" fill="#F6F7F3"/>
<rect x="544" width="68" height="136" transform="rotate(90 544 0)" fill="#20201E"/>
<rect x="544" width="68" height="136" transform="rotate(90 544 0)" fill="#20201E"/>
<rect x="408" y="408" width="136" height="136" transform="rotate(-180 408 408)" fill="#F6F7F3"/>
<path d="M408 272L272 272L408 408L408 272Z" fill="#20201E"/>
<rect x="544" y="408" width="136" height="136" transform="rotate(-180 544 408)" fill="#F6F7F3"/>
<path d="M544 272L408 272L544 408L544 272Z" fill="#20201E"/>
<rect width="136" height="136" transform="matrix(1 4.37114e-08 4.37114e-08 -1 0 408)" fill="#E1F25C"/>
<path d="M-2.12035e-05 408C17.8598 408 35.5447 404.482 52.0449 397.648C68.5452 390.813 83.5377 380.795 96.1665 368.167C108.795 355.538 118.813 340.545 125.648 324.045C132.482 307.545 136 289.86 136 272L-1.52588e-05 272L-2.12035e-05 408Z" fill="#A4D220"/>
<rect x="544" y="136" width="136" height="136" transform="rotate(90 544 136)" fill="#E1F25C"/>
<path d="M544 136C544 153.86 540.482 171.545 533.648 188.045C526.813 204.545 516.795 219.538 504.167 232.167C491.538 244.795 476.545 254.813 460.045 261.648C443.545 268.482 425.86 272 408 272L408 136L544 136Z" fill="#F6F7F3"/>
<rect x="272" y="272" width="136" height="136" transform="rotate(-180 272 272)" fill="#E1F25C"/>
<path d="M272 272C254.14 272 236.455 268.482 219.955 261.648C203.455 254.813 188.462 244.795 175.833 232.167C163.205 219.538 153.187 204.545 146.352 188.045C139.518 171.545 136 153.86 136 136L272 136L272 272Z" fill="#A4D220"/>
<rect width="136" height="136" transform="matrix(-1 -4.37114e-08 -4.37114e-08 1 272 0)" fill="#E1F25C"/>
<path d="M272 -2.45728e-05C254.14 -2.53535e-05 236.455 3.5177 219.955 10.3524C203.455 17.187 188.462 27.2047 175.833 39.8335C163.205 52.4622 153.187 67.4548 146.352 83.955C139.518 100.455 136 118.14 136 136L272 136L272 -2.45728e-05Z" fill="#20201E"/>
<rect x="136" y="136" width="136" height="136" transform="rotate(-180 136 136)" fill="#A4D220"/>
<circle cx="34" cy="34" r="34" transform="matrix(-4.37114e-08 1 1 4.37114e-08 34 33.9951)" fill="#F6F7F3"/>
<rect x="272" y="544" width="136" height="136" transform="rotate(-180 272 544)" fill="#A4D220"/>
<circle cx="51" cy="51" r="51" transform="matrix(-4.37114e-08 1 1 4.37114e-08 153 425)" fill="#F6F7F3"/>
<rect width="136" height="136" transform="matrix(-1 -4.37114e-08 -4.37114e-08 1 272 272)" fill="#E1F25C"/>
<circle cx="261.12" cy="282.88" r="2.04" transform="rotate(90 261.12 282.88)" fill="#20201E"/>
<circle cx="261.12" cy="297.16" r="2.04" transform="rotate(90 261.12 297.16)" fill="#20201E"/>
<circle cx="261.12" cy="311.44" r="2.04" transform="rotate(90 261.12 311.44)" fill="#20201E"/>
<circle cx="261.12" cy="325.72" r="2.04" transform="rotate(90 261.12 325.72)" fill="#20201E"/>
<circle cx="261.12" cy="340" r="2.04" transform="rotate(90 261.12 340)" fill="#20201E"/>
<circle cx="261.12" cy="354.28" r="2.04" transform="rotate(90 261.12 354.28)" fill="#20201E"/>
<circle cx="261.12" cy="368.56" r="2.04" transform="rotate(90 261.12 368.56)" fill="#20201E"/>
<circle cx="261.12" cy="382.84" r="2.04" transform="rotate(90 261.12 382.84)" fill="#20201E"/>
<circle cx="261.12" cy="397.12" r="2.04" transform="rotate(90 261.12 397.12)" fill="#20201E"/>
<circle cx="246.84" cy="282.88" r="2.04" transform="rotate(90 246.84 282.88)" fill="#20201E"/>
<circle cx="246.84" cy="297.16" r="2.04" transform="rotate(90 246.84 297.16)" fill="#20201E"/>
<circle cx="246.84" cy="311.44" r="2.04" transform="rotate(90 246.84 311.44)" fill="#20201E"/>
<circle cx="246.84" cy="325.72" r="2.04" transform="rotate(90 246.84 325.72)" fill="#20201E"/>
<circle cx="246.84" cy="340" r="2.04" transform="rotate(90 246.84 340)" fill="#20201E"/>
<circle cx="246.84" cy="354.28" r="2.04" transform="rotate(90 246.84 354.28)" fill="#20201E"/>
<circle cx="246.84" cy="368.56" r="2.04" transform="rotate(90 246.84 368.56)" fill="#20201E"/>
<circle cx="246.84" cy="382.84" r="2.04" transform="rotate(90 246.84 382.84)" fill="#20201E"/>
<circle cx="246.84" cy="397.12" r="2.04" transform="rotate(90 246.84 397.12)" fill="#20201E"/>
<circle cx="232.56" cy="282.88" r="2.04" transform="rotate(90 232.56 282.88)" fill="#20201E"/>
<circle cx="232.56" cy="297.16" r="2.04" transform="rotate(90 232.56 297.16)" fill="#20201E"/>
<circle cx="232.56" cy="311.44" r="2.04" transform="rotate(90 232.56 311.44)" fill="#20201E"/>
<circle cx="232.56" cy="325.72" r="2.04" transform="rotate(90 232.56 325.72)" fill="#20201E"/>
<circle cx="232.56" cy="340" r="2.04" transform="rotate(90 232.56 340)" fill="#20201E"/>
<circle cx="232.56" cy="354.28" r="2.04" transform="rotate(90 232.56 354.28)" fill="#20201E"/>
<circle cx="232.56" cy="368.56" r="2.04" transform="rotate(90 232.56 368.56)" fill="#20201E"/>
<circle cx="232.56" cy="382.84" r="2.04" transform="rotate(90 232.56 382.84)" fill="#20201E"/>
<circle cx="232.56" cy="397.12" r="2.04" transform="rotate(90 232.56 397.12)" fill="#20201E"/>
<circle cx="218.28" cy="282.88" r="2.04" transform="rotate(90 218.28 282.88)" fill="#20201E"/>
<circle cx="218.28" cy="297.16" r="2.04" transform="rotate(90 218.28 297.16)" fill="#20201E"/>
<circle cx="218.28" cy="311.44" r="2.04" transform="rotate(90 218.28 311.44)" fill="#20201E"/>
<circle cx="218.28" cy="325.72" r="2.04" transform="rotate(90 218.28 325.72)" fill="#20201E"/>
<circle cx="218.28" cy="340" r="2.04" transform="rotate(90 218.28 340)" fill="#20201E"/>
<circle cx="218.28" cy="354.28" r="2.04" transform="rotate(90 218.28 354.28)" fill="#20201E"/>
<circle cx="218.28" cy="368.56" r="2.04" transform="rotate(90 218.28 368.56)" fill="#20201E"/>
<circle cx="218.28" cy="382.84" r="2.04" transform="rotate(90 218.28 382.84)" fill="#20201E"/>
<circle cx="218.28" cy="397.12" r="2.04" transform="rotate(90 218.28 397.12)" fill="#20201E"/>
<circle cx="204" cy="282.88" r="2.04" transform="rotate(90 204 282.88)" fill="#20201E"/>
<circle cx="204" cy="297.16" r="2.04" transform="rotate(90 204 297.16)" fill="#20201E"/>
<circle cx="204" cy="311.44" r="2.04" transform="rotate(90 204 311.44)" fill="#20201E"/>
<circle cx="204" cy="325.72" r="2.04" transform="rotate(90 204 325.72)" fill="#20201E"/>
<circle cx="204" cy="340" r="2.04" transform="rotate(90 204 340)" fill="#20201E"/>
<circle cx="204" cy="354.28" r="2.04" transform="rotate(90 204 354.28)" fill="#20201E"/>
<circle cx="204" cy="368.56" r="2.04" transform="rotate(90 204 368.56)" fill="#20201E"/>
<circle cx="204" cy="382.84" r="2.04" transform="rotate(90 204 382.84)" fill="#20201E"/>
<circle cx="204" cy="397.12" r="2.04" transform="rotate(90 204 397.12)" fill="#20201E"/>
<circle cx="189.72" cy="282.88" r="2.04" transform="rotate(90 189.72 282.88)" fill="#20201E"/>
<circle cx="189.72" cy="297.16" r="2.04" transform="rotate(90 189.72 297.16)" fill="#20201E"/>
<circle cx="189.72" cy="311.44" r="2.04" transform="rotate(90 189.72 311.44)" fill="#20201E"/>
<circle cx="189.72" cy="325.72" r="2.04" transform="rotate(90 189.72 325.72)" fill="#20201E"/>
<circle cx="189.72" cy="340" r="2.04" transform="rotate(90 189.72 340)" fill="#20201E"/>
<circle cx="189.72" cy="354.28" r="2.04" transform="rotate(90 189.72 354.28)" fill="#20201E"/>
<circle cx="189.72" cy="368.56" r="2.04" transform="rotate(90 189.72 368.56)" fill="#20201E"/>
<circle cx="189.72" cy="382.84" r="2.04" transform="rotate(90 189.72 382.84)" fill="#20201E"/>
<circle cx="189.72" cy="397.12" r="2.04" transform="rotate(90 189.72 397.12)" fill="#20201E"/>
<circle cx="175.44" cy="282.88" r="2.04" transform="rotate(90 175.44 282.88)" fill="#20201E"/>
<circle cx="175.44" cy="297.16" r="2.04" transform="rotate(90 175.44 297.16)" fill="#20201E"/>
<circle cx="175.44" cy="311.44" r="2.04" transform="rotate(90 175.44 311.44)" fill="#20201E"/>
<circle cx="175.44" cy="325.72" r="2.04" transform="rotate(90 175.44 325.72)" fill="#20201E"/>
<circle cx="175.44" cy="340" r="2.04" transform="rotate(90 175.44 340)" fill="#20201E"/>
<circle cx="175.44" cy="354.28" r="2.04" transform="rotate(90 175.44 354.28)" fill="#20201E"/>
<circle cx="175.44" cy="368.56" r="2.04" transform="rotate(90 175.44 368.56)" fill="#20201E"/>
<circle cx="175.44" cy="382.84" r="2.04" transform="rotate(90 175.44 382.84)" fill="#20201E"/>
<circle cx="175.44" cy="397.12" r="2.04" transform="rotate(90 175.44 397.12)" fill="#20201E"/>
<circle cx="161.16" cy="282.88" r="2.04" transform="rotate(90 161.16 282.88)" fill="#20201E"/>
<circle cx="161.16" cy="297.16" r="2.04" transform="rotate(90 161.16 297.16)" fill="#20201E"/>
<circle cx="161.16" cy="311.44" r="2.04" transform="rotate(90 161.16 311.44)" fill="#20201E"/>
<circle cx="161.16" cy="325.72" r="2.04" transform="rotate(90 161.16 325.72)" fill="#20201E"/>
<circle cx="161.16" cy="340" r="2.04" transform="rotate(90 161.16 340)" fill="#20201E"/>
<circle cx="161.16" cy="354.28" r="2.04" transform="rotate(90 161.16 354.28)" fill="#20201E"/>
<circle cx="161.16" cy="368.56" r="2.04" transform="rotate(90 161.16 368.56)" fill="#20201E"/>
<circle cx="161.16" cy="382.84" r="2.04" transform="rotate(90 161.16 382.84)" fill="#20201E"/>
<circle cx="161.16" cy="397.12" r="2.04" transform="rotate(90 161.16 397.12)" fill="#20201E"/>
<circle cx="146.88" cy="282.88" r="2.04" transform="rotate(90 146.88 282.88)" fill="#20201E"/>
<circle cx="146.88" cy="297.16" r="2.04" transform="rotate(90 146.88 297.16)" fill="#20201E"/>
<circle cx="146.88" cy="311.44" r="2.04" transform="rotate(90 146.88 311.44)" fill="#20201E"/>
<circle cx="146.88" cy="325.72" r="2.04" transform="rotate(90 146.88 325.72)" fill="#20201E"/>
<circle cx="146.88" cy="340" r="2.04" transform="rotate(90 146.88 340)" fill="#20201E"/>
<circle cx="146.88" cy="354.28" r="2.04" transform="rotate(90 146.88 354.28)" fill="#20201E"/>
<circle cx="146.88" cy="368.56" r="2.04" transform="rotate(90 146.88 368.56)" fill="#20201E"/>
<circle cx="146.88" cy="382.84" r="2.04" transform="rotate(90 146.88 382.84)" fill="#20201E"/>
<circle cx="146.88" cy="397.12" r="2.04" transform="rotate(90 146.88 397.12)" fill="#20201E"/>
<rect width="136" height="136" transform="matrix(1 4.37114e-08 4.37114e-08 -1 0 544)" fill="#F6F7F3"/>
<path d="M5.94475e-06 408L136 408L0 544L5.94475e-06 408Z" fill="#20201E"/>
<rect width="136" height="136" transform="matrix(-4.37114e-08 1 1 4.37114e-08 272 408)" fill="#A4D220"/>
<rect y="544" width="136" height="136" fill="#20201E"/>
<path fill-rule="evenodd" clip-rule="evenodd" d="M136 665.575L136 675.192L4.80817 544L14.4248 544L136 665.575ZM-1.58893e-05 558.425L-1.5469e-05 548.808L131.192 680L121.575 680L-1.58893e-05 558.425ZM-1.63097e-05 568.042L-1.673e-05 577.658L102.342 680L111.958 680L-1.63097e-05 568.042ZM-1.75708e-05 596.892L-1.71504e-05 587.275L92.725 680L83.1084 680L-1.75708e-05 596.892ZM-1.79911e-05 606.508L-1.84115e-05 616.125L63.8752 680L73.4918 680L-1.79911e-05 606.508ZM-1.92522e-05 635.358L-1.88318e-05 625.741L54.2585 680L44.642 680L-1.92522e-05 635.358ZM-1.96725e-05 644.975L-2.00929e-05 654.591L25.4087 680L35.0253 680L-1.96725e-05 644.975ZM-2.09336e-05 673.825L-2.05132e-05 664.208L15.7921 680L6.17547 680L-2.09336e-05 673.825ZM136 655.959L136 646.341L33.6587 544L24.0414 544L136 655.959ZM136 627.108L136 636.725L43.2753 544L52.8919 544L136 627.108ZM136 617.491L136 607.875L72.1252 544L62.5086 544L136 617.491ZM136 588.642L136 598.258L81.7418 544L91.3584 544L136 588.642ZM136 579.025L136 569.408L110.592 544L100.975 544L136 579.025ZM136 550.175L136 559.792L120.208 544L129.825 544L136 550.175Z" fill="#E1F25C"/>
<rect x="272" y="136" width="136" height="136" fill="#20201E"/>
<path fill-rule="evenodd" clip-rule="evenodd" d="M408 257.575L408 267.192L276.808 136L286.425 136L408 257.575ZM272 150.425L272 140.808L403.192 272L393.575 272L272 150.425ZM272 160.042L272 169.658L374.342 272L383.958 272L272 160.042ZM272 188.891L272 179.275L364.725 272L355.109 272L272 188.891ZM272 198.508L272 208.125L335.875 272L345.492 272L272 198.508ZM272 227.358L272 217.741L326.259 272L316.642 272L272 227.358ZM272 236.975L272 246.591L297.409 272L307.025 272L272 236.975ZM272 265.824L272 256.208L287.792 272L278.176 272L272 265.824ZM408 247.958L408 238.341L305.659 136L296.042 136L408 247.958ZM408 219.108L408 228.725L315.275 136L324.892 136L408 219.108ZM408 209.491L408 199.875L344.125 136L334.509 136L408 209.491ZM408 180.641L408 190.258L353.742 136L363.359 136L408 180.641ZM408 171.025L408 161.408L382.592 136L372.975 136L408 171.025ZM408 142.175L408 151.792L392.208 136L401.825 136L408 142.175Z" fill="#A4D220"/>
<rect width="136" height="136" transform="matrix(-1 -4.37114e-08 -4.37114e-08 1 544 408)" fill="#E1F25C"/>
<path d="M544 408C526.14 408 508.455 411.518 491.955 418.352C475.455 425.187 460.462 435.205 447.833 447.833C435.205 460.462 425.187 475.455 418.352 491.955C411.518 508.455 408 526.14 408 544L544 544L544 408Z" fill="#F6F7F3"/>
<rect width="136" height="136" transform="matrix(1 4.37114e-08 4.37114e-08 -1 136 680)" fill="#E1F25C"/>
<rect x="272" y="544" width="136" height="136" fill="#E1F25C"/>
<path d="M272 544C289.86 544 307.545 547.518 324.045 554.352C340.545 561.187 355.538 571.205 368.167 583.833C380.795 596.462 390.813 611.455 397.648 627.955C404.482 644.455 408 662.14 408 680L272 680L272 544Z" fill="#A4D220"/>
<rect x="272" width="136" height="136" fill="#E1F25C"/>
<path d="M272 -3.64623e-05C289.86 -3.56817e-05 307.545 3.5177 324.045 10.3523C340.545 17.187 355.538 27.2047 368.167 39.8334C380.795 52.4622 390.813 67.4547 397.648 83.955C404.482 100.455 408 118.14 408 136L272 136L272 -3.64623e-05Z" fill="#20201E"/>
<rect x="408" y="544" width="136" height="136" fill="#A4D220"/>
</g>
<defs>
<clipPath id="clip0_4073_99651">
<path d="M0 24C0 10.7452 10.7452 0 24 0H544V552H24C10.7452 552 0 541.255 0 528V24Z" fill="white"/>
</clipPath>
</defs>
</svg>
