<svg width="18" height="18" viewBox="0 0 18 18" fill="none" xmlns="http://www.w3.org/2000/svg">
<path d="M17.7959 12.4567C17.6329 12.6462 17.3941 12.7557 17.1426 12.7557H12.4194L13.337 16.9702C13.392 17.2213 13.329 17.4831 13.166 17.6832C13.0037 17.8837 12.7578 18 12.4991 18H9.64208C9.3272 18 9.03743 17.8284 8.88836 17.5539L6.27407 12.7557H5.66144C5.54306 13.0851 5.22938 13.3228 4.85671 13.3228H0.85695C0.383834 13.3228 0 12.9419 0 12.4725V0.85025C0 0.380833 0.383834 0 0.85695 0H4.85671C5.22938 0 5.54307 0.23768 5.66144 0.567102H15.4288C15.8489 0.567102 16.2076 0.86924 16.2746 1.28131L17.9889 11.7697C18.0291 12.0145 17.959 12.266 17.796 12.4566L17.7959 12.4567ZM1.71482 11.6215H4.00025V1.70005H1.71482V11.6215ZM14.6991 2.2672H5.71417V11.0549H6.78556C7.10044 11.0549 7.39021 11.2265 7.53928 11.501L10.1536 16.2992H11.437L10.5195 12.0847C10.4645 11.8336 10.5274 11.5718 10.6905 11.3717C10.8527 11.1712 11.0986 11.0549 11.3573 11.0549H16.1355L14.6991 2.2672Z" fill="black"/>
</svg>
