<svg width="18" height="18" viewBox="0 0 18 18" fill="none" xmlns="http://www.w3.org/2000/svg">
<path d="M17.7959 5.54326C17.6329 5.35383 17.3941 5.24429 17.1426 5.24429H12.4194L13.337 1.0298C13.392 0.778673 13.329 0.516878 13.166 0.316769C13.0037 0.116264 12.7578 0 12.4991 0H9.64208C9.3272 0 9.03743 0.171632 8.88836 0.446081L6.27407 5.24432H5.66144C5.54306 4.9149 5.22938 4.67722 4.85671 4.67722H0.85695C0.383834 4.67722 0 5.05805 0 5.52747V17.1497C0 17.6192 0.383834 18 0.85695 18H4.85671C5.22938 18 5.54307 17.7623 5.66144 17.4329H15.4288C15.8489 17.4329 16.2076 17.1308 16.2746 16.7187L17.9889 6.23028C18.0291 5.98549 17.959 5.73398 17.796 5.54335L17.7959 5.54326ZM1.71482 6.37849H4.00025V16.2999H1.71482V6.37849ZM14.6991 15.7328H5.71417V6.94512H6.78556C7.10044 6.94512 7.39021 6.77349 7.53928 6.49904L10.1536 1.7008H11.437L10.5195 5.9153C10.4645 6.16642 10.5274 6.42822 10.6905 6.62833C10.8527 6.82883 11.0986 6.94509 11.3573 6.94509H16.1355L14.6991 15.7328Z" fill="black"/>
</svg>
