<svg xmlns="http://www.w3.org/2000/svg" width="20" height="20" viewBox="0 0 20 20" fill="none">
  <rect width="20" height="20" rx="10" fill="white"/>
  <path d="M7.25971 6.82327L6.92188 8.03948L7.25971 8.64759L8.34079 9.79624L10.8408 9.72867L14.0165 6.41786L13.9489 5.74219H9.28674L9.08404 5.94489L7.25971 6.82327Z" fill="#FC5C01"/>
  <path d="M12.4654 10.1367H9.2897L5.84375 13.7178L5.97889 14.5286L12.1951 14.5962L14.087 12.7719V11.8259L12.4654 10.1367Z" fill="#83C501"/>
  <path fill-rule="evenodd" clip-rule="evenodd" d="M15.4691 5H9.10547V5.90909H15.4691V5ZM14.5575 5.91016H13.6484V6.81641H12.7422V7.7255H13.6513V6.81925H14.5575V5.91016ZM9.10547 8.63672H10.0146V9.54581H9.10547V8.63672ZM7.28409 12.2734H6.375V13.1825H7.28409V12.2734ZM5.46875 13.1836H6.37784V14.0898H12.7418V14.9989H5.46768H5.35547H4.55859V14.0898H5.35547H5.46768H5.46875V13.1836ZM10.0117 7.72656H10.9208V8.63565H10.0117V7.72656ZM8.19425 11.3633H7.28516V12.2724H8.19425V11.3633ZM10.9219 6.81641H11.831V7.7255H10.9219V6.81641ZM12.7408 10.456H10.9208V11.3622H10.0117V10.456H9.1044V11.3622H8.19531V10.456V10.4531V9.54688H12.7408V10.456ZM6.375 6.81641H7.28409V8.63459H6.375V6.81641ZM8.19425 8.63672H7.28516V9.54581H8.19425V8.63672ZM7.28516 5.91016H9.10334V6.81925H7.28516V5.91016ZM12.7411 7.72656H11.832V8.63565H12.7411V7.72656ZM9.10547 11.3633H10.0146V12.2724H9.10547V11.3633ZM11.831 8.63672H10.9219V9.54581H11.831V8.63672ZM8.19531 12.2734H9.1044V13.1825H8.19531V12.2734ZM13.6513 10.4531H12.7422V11.3622H13.6513V10.4531ZM12.7422 13.1836H13.6513V14.0927H12.7422V13.1836ZM14.5575 11.3633H13.6484V13.1815H14.5575V11.3633Z" fill="black"/>
</svg>