<svg xmlns="http://www.w3.org/2000/svg" width="20" height="20" viewBox="0 0 20 20" fill="none">
  <circle cx="10" cy="10" r="10" fill="#394959"/>
  <path fill-rule="evenodd" clip-rule="evenodd" d="M6.08614 4.89909C6.08614 4.49638 6.41259 4.16992 6.8153 4.16992H9.24585C9.64855 4.16992 9.97501 4.49638 9.97501 4.89909C9.97501 5.3018 9.64855 5.62826 9.24585 5.62826H6.8153C6.41259 5.62826 6.08614 5.3018 6.08614 4.89909ZM13.8189 5.61924C13.9581 5.99712 13.7647 6.41631 13.3868 6.55553L7.06738 8.88375C6.6895 9.02297 6.27031 8.82949 6.13109 8.45161C5.99188 8.07374 6.18535 7.65455 6.56322 7.51533L12.8826 5.1871C13.2605 5.04789 13.6797 5.24136 13.8189 5.61924ZM13.8189 11.5549C13.9581 11.9328 13.7647 12.352 13.3868 12.4912L7.06738 14.8194C6.6895 14.9587 6.27031 14.7652 6.13109 14.3873C5.99188 14.0094 6.18535 13.5902 6.56322 13.451L12.8826 11.1228C13.2605 10.9836 13.6797 11.177 13.8189 11.5549ZM9.97501 15.1074C9.97501 14.7047 10.3015 14.3783 10.7042 14.3783H13.1347C13.5374 14.3783 13.8639 14.7047 13.8639 15.1074C13.8639 15.5102 13.5374 15.8366 13.1347 15.8366H10.7042C10.3015 15.8366 9.97501 15.5102 9.97501 15.1074Z" fill="white"/>
  <path fill-rule="evenodd" clip-rule="evenodd" d="M13.8153 8.52816C13.9598 8.90403 13.7723 9.32593 13.3965 9.47049L7.07705 11.9011C6.70119 12.0456 6.2793 11.8581 6.13474 11.4823C5.99017 11.1064 6.17768 10.6845 6.55354 10.5399L12.873 8.10935C13.2488 7.96478 13.6707 8.15229 13.8153 8.52816Z" fill="white"/>
</svg>