<svg xmlns="http://www.w3.org/2000/svg" width="24" height="24" viewBox="0 0 24 24" fill="none">
  <path d="M12 0C5.3726 0 0 5.3726 0 12C0 18.6275 5.3726 24 12 24C18.6274 24 24 18.6275 24 12C24 5.3726 18.6274 0 12 0Z" fill="#E1F25C"/>
  <path fill-rule="evenodd" clip-rule="evenodd" d="M17.6292 18.4316H6.37109V17.6276H7.17505C7.84108 17.6276 8.38096 17.0877 8.38096 16.4216V15.2157C8.38096 14.3473 8.84013 13.586 9.52887 13.1614H9.52525C9.90816 12.9155 10.1631 12.4872 10.1631 11.999C10.1631 11.5108 9.90816 11.0825 9.52525 10.8366H9.52887C8.84013 10.4119 8.38096 9.65064 8.38096 8.78223V7.57627C8.38096 6.9103 7.84108 6.37036 7.17505 6.37036H6.37109V5.56641H16.8244H17.6283V6.37036H16.8244C16.1583 6.37036 15.6184 6.9103 15.6184 7.57627V8.78226C15.6184 9.65067 15.1593 10.4119 14.4706 10.8367H14.4724C14.0895 11.0825 13.8345 11.5108 13.8345 11.999C13.8345 12.4872 14.0895 12.9155 14.4732 13.1614H14.4714C15.1601 13.586 15.6194 14.3474 15.6194 15.2158V16.4217C15.6194 17.0877 16.1592 17.6277 16.8253 17.6277H17.6292V18.4316ZM14.8136 8.78299V7.577C14.8136 7.12514 14.9633 6.70686 15.2165 6.37109H8.78125C9.03442 6.70686 9.18408 7.12514 9.18408 7.577V8.78299C9.18408 9.07243 9.26305 9.34645 9.40189 9.58694H14.5959C14.7356 9.34645 14.8136 9.07243 14.8136 8.78299ZM13.9919 13.8094C14.0092 13.822 14.0283 13.8348 14.0464 13.8466C14.5255 14.1424 14.8113 14.6532 14.8122 15.2149V15.2167V16.0207H9.18359V15.2167C9.18359 14.6551 9.47035 14.1424 9.94947 13.8465C9.97306 13.832 9.99662 13.8157 10.0184 13.7994C10.6137 13.3901 10.9658 12.7232 10.9658 12H13.0292C13.0292 12.7296 13.3885 13.402 13.9919 13.8094Z" fill="#121212"/>
</svg>