<svg width="120" height="84" viewBox="0 0 120 84" fill="none" xmlns="http://www.w3.org/2000/svg">
<g id="Frame" clip-path="url(#clip0_3156_43049)">
<g id="Group">
<g id="Group_2">
<g id="Group_3">
<path id="Vector" d="M105.181 10.5405L61.1771 18.2116L17.2109 10.5311L61.6767 2.76636L105.181 10.5405Z" fill="white"/>
<path id="Vector_2" d="M61.1771 18.2114L17.2109 10.5309L61.2433 3.16333L61.1771 18.2114Z" fill="#E1F25C"/>
<g id="Group_4">
<path id="Vector_3" d="M61.1836 83.2276V18.1487L105.361 10.5132V75.4143L61.1836 83.2276Z" fill="#2B51DA"/>
</g>
<g id="Group_5">
<g id="Group_6">
<path id="Vector_4" d="M61.1844 83.2276V18.1486L17.3906 10.5037V75.4522L61.1844 83.2276Z" fill="white"/>
<path id="Vector_5" d="M61.1844 83.4884C61.1691 83.4884 61.1537 83.4872 61.1396 83.4848L17.3458 75.7094C17.2218 75.6869 17.1309 75.579 17.1309 75.4522V10.5037C17.1309 10.4266 17.1651 10.3531 17.2242 10.3033C17.2832 10.2535 17.36 10.2334 17.4367 10.2453L61.2305 17.8902C61.3557 17.9116 61.4466 18.0206 61.4466 18.1475V83.2264C61.4466 83.3034 61.4124 83.3769 61.3533 83.4267C61.3049 83.467 61.2459 83.4884 61.1844 83.4884ZM17.6505 75.2329L60.9234 82.9158V18.368L17.6505 10.8143V75.2329Z" fill="#121212" fill-opacity="0.6"/>
</g>
</g>
<g id="Group_7">
<g id="Group_8">
<path id="Vector_6" d="M119.739 8.24767L104.363 10.3684L60.6777 3.09452L77.0298 0.772217L119.739 8.24767Z" fill="white"/>
<path id="Vector_7" d="M104.363 10.6304C104.349 10.6304 104.335 10.6292 104.32 10.6269L60.6353 3.35174C60.5089 3.3304 60.4157 3.22015 60.418 3.09094C60.4192 2.96172 60.5149 2.85385 60.6412 2.83488L76.9933 0.513765C77.0205 0.510209 77.0476 0.510209 77.0748 0.514951L119.784 7.99041C119.911 8.01293 120.002 8.12436 119.999 8.25239C119.997 8.38161 119.901 8.48948 119.775 8.50608L104.398 10.6269C104.387 10.6292 104.375 10.6304 104.363 10.6304ZM62.3915 3.11465L104.366 10.1041L118.05 8.21683L77.0252 1.03655L62.3915 3.11465Z" fill="#121212" fill-opacity="0.6"/>
</g>
<g id="Group_9">
<path id="Vector_8" d="M61.889 2.94519L17.8897 10.5736L0.259766 9.36915L43.8528 1.66846L61.889 2.94519Z" fill="white"/>
<path id="Vector_9" d="M17.8901 10.8344C17.8842 10.8344 17.8783 10.8344 17.8724 10.8332L0.242487 9.62996C0.111396 9.62166 0.00746844 9.51497 0.000382451 9.38339C-0.00670353 9.2518 0.0854143 9.13563 0.215324 9.11192L43.8083 1.41123C43.8296 1.40767 43.8508 1.40649 43.8721 1.40767L61.9083 2.6844C62.0394 2.69389 62.1433 2.79939 62.1504 2.93216C62.1575 3.06375 62.0642 3.17992 61.9354 3.20244L17.935 10.8308C17.9197 10.8332 17.9055 10.8344 17.8901 10.8344ZM2.41198 9.25536L17.8771 10.3116L59.7317 3.05426L43.8674 1.93164L2.41198 9.25536Z" fill="#121212" fill-opacity="0.6"/>
</g>
<g id="Group_10">
<path id="Vector_10" d="M61.1748 18.2117L51.2686 28.9507L4.96289 20.7948L17.4047 10.5703L61.1748 18.2117Z" fill="white"/>
<path id="Vector_11" d="M51.269 29.2114C51.2536 29.2114 51.2395 29.2102 51.2241 29.2079L4.91837 21.052C4.81798 21.0342 4.73767 20.9595 4.71169 20.8611C4.68571 20.7627 4.71996 20.6572 4.79909 20.5932L17.2409 10.3687C17.2988 10.3201 17.3755 10.2999 17.4499 10.313L61.2201 17.9556C61.3145 17.9722 61.3913 18.0385 61.422 18.1298C61.4527 18.2211 61.4315 18.3207 61.3665 18.3906L51.4603 29.1284C51.4107 29.1818 51.341 29.2114 51.269 29.2114ZM5.56791 20.6359L51.1745 28.6685L60.6591 18.3871L17.4783 10.8476L5.56791 20.6359Z" fill="#121212" fill-opacity="0.6"/>
</g>
<g id="Group_11">
<path id="Vector_12" d="M105.216 10.551L117.313 21.3054L71.6381 29.4625L61.2441 18.3383L105.216 10.551Z" fill="white"/>
<path id="Vector_13" d="M71.6387 29.7233C71.5679 29.7233 71.4982 29.6937 71.4486 29.6403L61.0546 18.5161C60.9897 18.4461 60.9672 18.3454 60.9979 18.2553C61.0275 18.164 61.1054 18.0976 61.1999 18.081L105.173 10.2938C105.252 10.2807 105.331 10.3021 105.39 10.3554L117.487 21.1098C117.562 21.1762 117.593 21.2793 117.565 21.3765C117.538 21.4726 117.459 21.5449 117.361 21.5627L71.6848 29.7198C71.6683 29.7221 71.6529 29.7233 71.6387 29.7233ZM61.7632 18.5113L71.732 29.1804L116.74 21.143L105.14 10.8308L61.7632 18.5113Z" fill="#121212" fill-opacity="0.6"/>
</g>
</g>
</g>
</g>
</g>
<g id="Group 1000003265">
<path id="Union" fill-rule="evenodd" clip-rule="evenodd" d="M78.1966 39.8859C77.5079 40.0722 76.9496 40.8029 76.9496 41.518C76.9496 42.2331 77.5079 42.6617 78.1966 42.4754L82.3532 41.3508C83.0419 41.1645 83.6002 40.4338 83.6002 39.7187C83.6002 39.0036 83.0419 38.575 82.3532 38.7613L78.1966 39.8859ZM89.435 41.0813C90.0813 40.6593 90.4121 39.8255 90.1741 39.2189C89.936 38.6123 89.2191 38.4627 88.5728 38.8848L77.7655 45.9427C77.1192 46.3648 76.7884 47.1986 77.0264 47.8052C77.2645 48.4118 77.9814 48.5613 78.6277 48.1393L89.435 41.0813ZM89.435 51.621C90.0813 51.199 90.4121 50.3651 90.1741 49.7585C89.936 49.152 89.2191 49.0024 88.5728 49.4244L77.7655 56.4824C77.1192 56.9044 76.7884 57.7383 77.0264 58.3448C77.2645 58.9514 77.9814 59.101 78.6277 58.679L89.435 51.621ZM84.8473 56.2129C84.1586 56.3993 83.6002 57.13 83.6002 57.8451C83.6002 58.5601 84.1586 58.9887 84.8473 58.8024L89.0039 57.6779C89.6926 57.4915 90.2509 56.7608 90.2509 56.0457C90.2509 55.3307 89.6926 54.902 89.0039 55.0884L84.8473 56.2129ZM89.4516 46.2531C90.0944 45.8231 90.415 44.9883 90.1678 44.3885C89.9206 43.7888 89.1991 43.6512 88.5563 44.0813L77.7489 51.3115C77.1061 51.7415 76.7854 52.5763 77.0327 53.176C77.2799 53.7758 78.0014 53.9133 78.6442 53.4833L89.4516 46.2531Z" fill="white"/>
</g>
<path id="Vector 608" d="M23.4238 38.4795V35.2684C23.4238 35.0804 23.5948 34.9388 23.7795 34.9736L55.5658 40.975C55.7076 41.0018 55.8102 41.1256 55.8102 41.2698V44.4809C55.8102 44.6689 55.6393 44.8105 55.4545 44.7757L23.6682 38.7743C23.5265 38.7475 23.4238 38.6237 23.4238 38.4795Z" stroke="#121212" stroke-opacity="0.6" stroke-width="0.8"/>
<path id="Vector 611" d="M23.4238 45.3584V42.1473C23.4238 41.9593 23.5948 41.8177 23.7795 41.8525L55.5658 47.8539C55.7076 47.8807 55.8102 48.0045 55.8102 48.1487V51.3598C55.8102 51.5478 55.6393 51.6894 55.4545 51.6546L23.6682 45.6532C23.5265 45.6264 23.4238 45.5026 23.4238 45.3584Z" stroke="#121212" stroke-opacity="0.6" stroke-width="0.8"/>
<g id="Group_12">
<g id="Group_13">
<path id="Vector_14" d="M34.587 55.6456L43.4422 57.1482L59.6011 82.4055L18.7719 75.1749L34.587 55.6456Z" fill="white" stroke="white"/>
<g id="Vector_15">
<mask id="path-18-inside-1_3156_43049" fill="white">
<path d="M60.6376 83.4224C60.6185 83.4224 60.5994 83.421 60.5817 83.418L17.7945 75.8392C17.6814 75.8185 17.5873 75.7404 17.5477 75.6329C17.508 75.5253 17.5271 75.4045 17.5991 75.3146L34.1319 54.899C34.2053 54.8076 34.3229 54.7634 34.4375 54.784L43.8006 56.3741C43.8902 56.3888 43.9696 56.4419 44.0195 56.5185L60.9123 82.9229C60.9813 83.0319 60.9799 83.1705 60.9094 83.278C60.8476 83.3679 60.7448 83.4224 60.6376 83.4224ZM18.4497 75.2969L59.9676 82.6488L43.5494 56.9886L34.5139 55.4545L18.4497 75.2969Z"/>
</mask>
<path d="M60.6376 83.4224C60.6185 83.4224 60.5994 83.421 60.5817 83.418L17.7945 75.8392C17.6814 75.8185 17.5873 75.7404 17.5477 75.6329C17.508 75.5253 17.5271 75.4045 17.5991 75.3146L34.1319 54.899C34.2053 54.8076 34.3229 54.7634 34.4375 54.784L43.8006 56.3741C43.8902 56.3888 43.9696 56.4419 44.0195 56.5185L60.9123 82.9229C60.9813 83.0319 60.9799 83.1705 60.9094 83.278C60.8476 83.3679 60.7448 83.4224 60.6376 83.4224ZM18.4497 75.2969L59.9676 82.6488L43.5494 56.9886L34.5139 55.4545L18.4497 75.2969Z" fill="white"/>
<path d="M60.5817 83.418L60.4073 84.4027L60.4168 84.4043L60.5817 83.418ZM17.7945 75.8392L17.6151 76.823L17.6201 76.8239L17.7945 75.8392ZM17.5991 75.3146L16.8219 74.6852L16.8185 74.6895L17.5991 75.3146ZM34.1319 54.899L34.909 55.5283L34.9112 55.5256L34.1319 54.899ZM34.4375 54.784L34.2603 55.7683L34.2701 55.7699L34.4375 54.784ZM43.8006 56.3741L43.6332 57.36L43.6384 57.3608L43.8006 56.3741ZM44.0195 56.5185L44.8619 55.9796L44.8573 55.9724L44.0195 56.5185ZM60.9123 82.9229L61.7572 82.3879L61.7547 82.384L60.9123 82.9229ZM60.9094 83.278L61.7338 83.844L61.7398 83.8352L61.7457 83.8263L60.9094 83.278ZM18.4497 75.2969L17.6725 74.6677L16.6053 75.9858L18.2754 76.2816L18.4497 75.2969ZM59.9676 82.6488L59.7932 83.6335L62.0393 84.0312L60.8099 82.1098L59.9676 82.6488ZM43.5494 56.9886L44.3917 56.4496L44.1532 56.0768L43.7168 56.0027L43.5494 56.9886ZM34.5139 55.4545L34.6813 54.4687L34.1047 54.3708L33.7367 54.8253L34.5139 55.4545ZM60.6376 82.4224C60.6678 82.4224 60.7042 82.4246 60.7466 82.4317L60.4168 84.4043C60.4945 84.4173 60.5692 84.4224 60.6376 84.4224V82.4224ZM60.7561 82.4334L17.9689 74.8545L17.6201 76.8239L60.4073 84.4027L60.7561 82.4334ZM17.9739 74.8554C18.2033 74.8972 18.4013 75.0575 18.4859 75.2869L16.6094 75.9788C16.7733 76.4234 17.1594 76.7399 17.6151 76.823L17.9739 74.8554ZM18.4859 75.2869C18.5666 75.5057 18.5285 75.7538 18.3796 75.9397L16.8185 74.6895C16.5257 75.0551 16.4494 75.5449 16.6094 75.9788L18.4859 75.2869ZM18.3762 75.9439L34.909 55.5283L33.3547 54.2697L16.8219 74.6852L18.3762 75.9439ZM34.9112 55.5256C34.7573 55.7171 34.509 55.813 34.2603 55.7682L34.6147 53.7999C34.1367 53.7138 33.6534 53.8982 33.3525 54.2724L34.9112 55.5256ZM34.2701 55.7699L43.6332 57.36L43.9681 55.3882L34.6049 53.7982L34.2701 55.7699ZM43.6384 57.3608C43.4413 57.3284 43.2797 57.2148 43.1818 57.0646L44.8573 55.9724C44.6594 55.6689 44.3392 55.4492 43.9629 55.3873L43.6384 57.3608ZM43.1772 57.0574L60.0699 83.4618L61.7547 82.384L44.8619 55.9796L43.1772 57.0574ZM60.0674 83.4579C59.9257 83.2341 59.9293 82.949 60.073 82.7298L61.7457 83.8263C62.0304 83.3919 62.037 82.8298 61.7572 82.3879L60.0674 83.4579ZM60.0849 82.7121C60.2067 82.5347 60.4099 82.4224 60.6376 82.4224V84.4224C61.0797 84.4224 61.4886 84.2011 61.7338 83.844L60.0849 82.7121ZM18.2754 76.2816L59.7932 83.6335L60.142 81.6641L18.6241 74.3122L18.2754 76.2816ZM60.8099 82.1098L44.3917 56.4496L42.7071 57.5275L59.1253 83.1877L60.8099 82.1098ZM43.7168 56.0027L34.6813 54.4687L34.3465 56.4404L43.382 57.9745L43.7168 56.0027ZM33.7367 54.8253L17.6725 74.6677L19.227 75.9261L35.2911 56.0838L33.7367 54.8253Z" fill="#121212" fill-opacity="0.6" mask="url(#path-18-inside-1_3156_43049)"/>
</g>
</g>
</g>
</g>
<defs>
<clipPath id="clip0_3156_43049">
<rect width="120" height="82.9769" fill="white" transform="translate(0 0.511475)"/>
</clipPath>
</defs>
</svg>
