<svg width="30" height="30" viewBox="0 0 30 30" fill="none" xmlns="http://www.w3.org/2000/svg">
<g id="Frame 5608">
<path id="Vector" d="M22.5177 7.36748C21.0968 6.64076 19.5936 6.12439 18.0478 5.83203C17.8553 6.21254 17.6303 6.72433 17.4752 7.13148C15.8085 6.85754 14.1572 6.85754 12.5212 7.13148C12.3662 6.72442 12.1361 6.21254 11.9418 5.83203C10.3945 6.12453 8.88998 6.64221 7.46839 7.37127C4.63954 12.044 3.87266 16.6006 4.25606 21.0927C6.13234 22.6243 7.95064 23.5547 9.73831 24.1635C10.1826 23.4957 10.5753 22.7886 10.9125 22.0497C10.2706 21.7826 9.65184 21.4534 9.06352 21.0661C9.21834 20.9406 9.36951 20.8099 9.51682 20.6741C13.0818 22.4968 16.9554 22.4968 20.478 20.6741C20.6259 20.809 20.777 20.9397 20.9312 21.0661C20.3419 21.4544 19.722 21.7842 19.0788 22.0516C19.4179 22.7936 19.8099 23.5013 20.253 24.1654C22.0424 23.5566 23.8624 22.6262 25.7386 21.0927C26.1886 15.8853 24.9701 11.3705 22.5177 7.36748ZM11.3982 18.3302C10.328 18.3302 9.4503 17.238 9.4503 15.9082C9.4503 14.5783 10.3093 13.4843 11.3982 13.4843C12.4872 13.4843 13.3648 14.5763 13.3461 15.9082C13.3478 17.238 12.4872 18.3302 11.3982 18.3302ZM18.5965 18.3302C17.5263 18.3302 16.6487 17.238 16.6487 15.9082C16.6487 14.5783 17.5076 13.4843 18.5965 13.4843C19.6855 13.4843 20.5631 14.5763 20.5444 15.9082C20.5444 17.238 19.6855 18.3302 18.5965 18.3302Z" fill="black"/>
</g>
</svg>
