<svg width="24" height="24" viewBox="0 0 24 24" fill="none" xmlns="http://www.w3.org/2000/svg">
<path fill-rule="evenodd" clip-rule="evenodd" d="M12 0.75C5.78437 0.75 0.75 5.91171 0.75 12.2846C0.75 17.3886 3.97031 21.6996 8.44219 23.228C9.00469 23.3289 9.21562 22.9829 9.21562 22.6801C9.21562 22.4061 9.20156 21.4978 9.20156 20.5318C6.375 21.0652 5.64375 19.8253 5.41875 19.1765C5.29219 18.8448 4.74375 17.8211 4.26562 17.5472C3.87187 17.3309 3.30937 16.7975 4.25156 16.783C5.1375 16.7686 5.77031 17.6193 5.98125 17.9653C6.99375 19.7099 8.61094 19.2197 9.25781 18.9169C9.35625 18.1672 9.65156 17.6625 9.975 17.3742C7.47187 17.0858 4.85625 16.091 4.85625 11.679C4.85625 10.4246 5.29219 9.3865 6.00937 8.57908C5.89687 8.29072 5.50312 7.10842 6.12187 5.52242C6.12187 5.52242 7.06406 5.21964 9.21562 6.70471C10.1156 6.44519 11.0719 6.31542 12.0281 6.31542C12.9844 6.31542 13.9406 6.44519 14.8406 6.70471C16.9922 5.20522 17.9344 5.52242 17.9344 5.52242C18.5531 7.10842 18.1594 8.29072 18.0469 8.57908C18.7641 9.3865 19.2 10.4102 19.2 11.679C19.2 16.1054 16.5703 17.0858 14.0672 17.3742C14.475 17.7346 14.8266 18.4267 14.8266 19.5081C14.8266 21.0508 14.8125 22.2908 14.8125 22.6801C14.8125 22.9829 15.0234 23.3433 15.5859 23.228C20.0297 21.6996 23.25 17.3742 23.25 12.2846C23.25 5.91171 18.2156 0.75 12 0.75Z" fill="#20201E"/>
</svg>
