<svg width="25" height="25" viewBox="0 0 25 25" fill="none" xmlns="http://www.w3.org/2000/svg">
<g id="bi:medium" clip-path="url(#clip0_2622_20161)">
<path id="Vector" d="M13.7589 12.5017C13.7589 16.1525 10.7913 19.1129 7.12874 19.1129C6.2594 19.114 5.39834 18.9439 4.59473 18.6123C3.79112 18.2807 3.0607 17.7941 2.44516 17.1802C1.82963 16.5663 1.34103 15.8371 1.00728 15.0344C0.673532 14.2317 0.501157 13.3711 0.5 12.5017C0.5 8.84947 3.46765 5.89063 7.12874 5.89063C7.9982 5.88928 8.85942 6.05922 9.6632 6.39075C10.467 6.72227 11.1976 7.20889 11.8133 7.82281C12.429 8.43673 12.9177 9.16592 13.2515 9.96874C13.5854 10.7716 13.7578 11.6323 13.7589 12.5017V12.5017ZM21.0312 12.5017C21.0312 15.9395 19.5473 18.725 17.7168 18.725C15.8863 18.725 14.4024 15.938 14.4024 12.5017C14.4024 9.06397 15.8863 6.27848 17.7168 6.27848C19.5473 6.27848 21.0312 9.06543 21.0312 12.5017ZM24.0062 12.5017C24.0062 15.581 23.4846 18.0771 22.8397 18.0771C22.1962 18.0771 21.6746 15.5796 21.6746 12.5017C21.6746 9.42243 22.1962 6.92637 22.8411 6.92637C23.4846 6.92637 24.0062 9.42243 24.0062 12.5017Z" fill="#20201E"/>
</g>
<defs>
<clipPath id="clip0_2622_20161">
<rect width="23.5062" height="23.5062" fill="white" transform="translate(0.5 0.75)"/>
</clipPath>
</defs>
</svg>
