<svg width="30" height="30" viewBox="0 0 30 30" fill="none" xmlns="http://www.w3.org/2000/svg">
<g id="Frame 1493">
<path id="Vector" d="M5.37715 13.7837C11.0464 11.3143 14.8259 9.68614 16.7156 8.89955C22.1175 6.65343 23.2386 6.26333 23.9708 6.25012C24.1318 6.24753 24.4903 6.28733 24.7242 6.47646C24.9187 6.63596 24.9734 6.85167 25.0007 7.00313C25.025 7.15443 25.0584 7.49926 25.0311 7.76844C24.7394 10.8431 23.4725 18.3042 22.8284 21.748C22.558 23.2051 22.0203 23.6936 21.5007 23.7413C20.3705 23.8452 19.5138 22.9952 18.42 22.2784C16.7095 21.1564 15.7434 20.4583 14.0815 19.3636C12.1614 18.0985 13.407 17.4031 14.5008 16.2668C14.7864 15.9694 19.7629 11.444 19.8571 11.0336C19.8692 10.9822 19.8814 10.7908 19.7659 10.6899C19.6535 10.5888 19.4864 10.6234 19.3649 10.6508C19.1917 10.6896 16.4604 12.4967 11.1618 16.0718C10.3871 16.6047 9.68528 16.8644 9.05334 16.8508C8.36064 16.8359 7.02384 16.4582 6.03036 16.1356C4.81509 15.7397 3.84592 15.5304 3.93098 14.858C3.97352 14.508 4.45659 14.1498 5.37715 13.7837Z" fill="#20201E"/>
</g>
</svg>
