<svg width="30" height="30" viewBox="0 0 30 30" fill="none" xmlns="http://www.w3.org/2000/svg">
<g id="Frame 713">
<g id="Livello x0020 1">
<path id="Vector" fill-rule="evenodd" clip-rule="evenodd" d="M26.1925 8.40954C25.3655 8.77449 24.4783 9.02225 23.5475 9.13274C24.4983 8.56356 25.2282 7.65956 25.5697 6.58481C24.6791 7.11382 23.6948 7.4955 22.6468 7.70309C21.8064 6.80914 20.6112 6.25 19.2853 6.25C16.7441 6.25 14.6816 8.31245 14.6816 10.8537C14.6816 11.2153 14.7218 11.5668 14.8022 11.9016C10.9753 11.7108 7.5836 9.87602 5.31358 7.09038C4.9185 7.77005 4.69082 8.56021 4.69082 9.40394C4.69082 11.001 5.50442 12.4106 6.73988 13.2342C5.98655 13.2108 5.27675 13.0032 4.65399 12.6583C4.65399 12.6784 4.65399 12.6951 4.65399 12.7152C4.65399 14.9451 6.24101 16.8066 8.34698 17.2285C7.96194 17.3323 7.55347 17.3892 7.13496 17.3892C6.83697 17.3892 6.54903 17.3591 6.26779 17.3055C6.85371 19.1336 8.55456 20.4661 10.5668 20.503C8.98982 21.7384 7.00773 22.475 4.84819 22.475C4.47654 22.475 4.1116 22.4516 3.75 22.4114C5.78566 23.7172 8.20636 24.4805 10.8079 24.4805C19.2753 24.4805 23.9057 17.4662 23.9057 11.3827C23.9057 11.1818 23.9024 10.9843 23.8923 10.7867C24.793 10.1372 25.5731 9.32693 26.1891 8.40285L26.1925 8.40954Z" fill="#20201E"/>
</g>
</g>
</svg>
