<svg width="30" height="30" viewBox="0 0 30 30" fill="none" xmlns="http://www.w3.org/2000/svg">
<g opacity="0.4" clip-path="url(#clip0_3339_32614)">
<path d="M6.56574 23.4305H5.62853C4.88552 23.4471 4.14684 23.3131 3.45707 23.0364C2.7673 22.7597 2.14075 22.3461 1.61523 21.8205C1.08971 21.295 0.676119 20.6685 0.399417 19.9787C0.122715 19.2889 -0.0113593 18.5503 0.00528639 17.8072C-0.0113593 17.0642 0.122715 16.3255 0.399417 15.6358C0.676119 14.946 1.08971 14.3195 1.61523 13.7939C2.14075 13.2684 2.7673 12.8548 3.45707 12.5781C4.14684 12.3014 4.88552 12.1674 5.62853 12.184H6.56574V23.4305ZM4.69132 14.1615C3.87053 14.3449 3.13989 14.81 2.62627 15.476C2.11266 16.1419 1.84851 16.9668 1.8797 17.8072C1.84851 18.6477 2.11266 19.4725 2.62627 20.1385C3.13989 20.8045 3.87053 21.2696 4.69132 21.453V14.1615ZM24.3727 23.4305H23.4355V12.184H24.3727C25.1157 12.1674 25.8544 12.3014 26.5441 12.5781C27.2339 12.8548 27.8605 13.2684 28.386 13.7939C28.9115 14.3195 29.3251 14.946 29.6018 15.6358C29.8785 16.3255 30.0126 17.0642 29.9959 17.8072C30.0126 18.5503 29.8785 19.2889 29.6018 19.9787C29.3251 20.6685 28.9115 21.295 28.386 21.8205C27.8605 22.3461 27.2339 22.7597 26.5441 23.0364C25.8544 23.3131 25.1157 23.4471 24.3727 23.4305ZM25.3099 14.1615V21.453C26.1307 21.2696 26.8613 20.8045 27.3749 20.1385C27.8885 19.4725 28.1527 18.6477 28.1215 17.8072C28.1527 16.9668 27.8885 16.1419 27.3749 15.476C26.8613 14.81 26.1307 14.3449 25.3099 14.1615ZM25.3099 28.1165V26.2421C25.433 26.2421 25.5548 26.2179 25.6685 26.1708C25.7822 26.1237 25.8856 26.0546 25.9726 25.9676C26.0596 25.8806 26.1286 25.7773 26.1757 25.6635C26.2228 25.5498 26.2471 25.428 26.2471 25.3049H28.1215C28.1305 25.6766 28.0639 26.0462 27.9258 26.3914C27.7877 26.7366 27.5809 27.0501 27.318 27.313C27.0551 27.5759 26.7416 27.7827 26.3964 27.9208C26.0512 28.0589 25.6816 28.1255 25.3099 28.1165ZM21.5611 26.2421H25.3099V28.1165H21.5611V26.2421Z" fill="#121212"/>
<path d="M19.2462 29.9906C18.6901 29.9906 18.1465 29.8257 17.6842 29.5168C17.2218 29.2078 16.8614 28.7687 16.6486 28.255C16.4358 27.7412 16.3801 27.1759 16.4886 26.6305C16.5971 26.0851 16.8649 25.5841 17.2581 25.1909C17.6513 24.7977 18.1523 24.5299 18.6977 24.4214C19.2431 24.3129 19.8084 24.3686 20.3222 24.5814C20.836 24.7942 21.2751 25.1546 21.584 25.617C21.893 26.0793 22.0579 26.6229 22.0579 27.179C22.0579 27.5482 21.9851 27.9138 21.8438 28.255C21.7025 28.5961 21.4954 28.906 21.2343 29.1671C20.9733 29.4282 20.6633 29.6353 20.3222 29.7766C19.9811 29.9179 19.6155 29.9906 19.2462 29.9906ZM19.2462 26.2418C19.0609 26.2418 18.8797 26.2968 18.7255 26.3997C18.5714 26.5027 18.4513 26.6491 18.3804 26.8204C18.3094 26.9916 18.2909 27.18 18.327 27.3618C18.3632 27.5436 18.4525 27.7106 18.5835 27.8417C18.7146 27.9728 18.8816 28.062 19.0634 28.0982C19.2452 28.1344 19.4336 28.1158 19.6049 28.0449C19.7761 27.9739 19.9225 27.8538 20.0255 27.6997C20.1285 27.5456 20.1834 27.3644 20.1834 27.179C20.1834 27.0559 20.1592 26.9341 20.1121 26.8204C20.065 26.7066 19.996 26.6033 19.9089 26.5163C19.8219 26.4293 19.7186 26.3602 19.6049 26.3131C19.4912 26.266 19.3693 26.2418 19.2462 26.2418ZM25.31 10.3093H23.4355C23.4355 8.07221 22.5469 5.92677 20.965 4.34493C19.3832 2.76308 17.2378 1.87441 15.0007 1.87441C12.7636 1.87441 10.6182 2.76308 9.03634 4.34493C7.45449 5.92677 6.56582 8.07221 6.56582 10.3093H4.69141C4.69141 8.95544 4.95806 7.61487 5.47615 6.36409C5.99424 5.11331 6.75362 3.97682 7.71092 3.01952C8.66823 2.06221 9.80472 1.30284 11.0555 0.784747C12.3063 0.266657 13.6469 0 15.0007 0C16.3545 0 17.6951 0.266657 18.9459 0.784747C20.1967 1.30284 21.3331 2.06221 22.2904 3.01952C23.2478 3.97682 24.0071 5.11331 24.5252 6.36409C25.0433 7.61487 25.31 8.95544 25.31 10.3093Z" fill="#121212"/>
</g>
<defs>
<clipPath id="clip0_3339_32614">
<rect width="30" height="30" fill="white"/>
</clipPath>
</defs>
</svg>
