<svg width="30" height="30" viewBox="0 0 30 30" fill="none" xmlns="http://www.w3.org/2000/svg">
<path d="M24.8398 20.0947C24.5381 20.1357 24.2803 20.1973 24.0254 20.2881L22.3848 20.9883C22.3203 21.0147 22.25 21.0293 22.1797 21.0293C22.0684 21.0293 21.9629 20.9912 21.8691 20.9268C21.7197 20.8154 21.6465 20.6338 21.6699 20.4492C21.6787 20.376 21.6846 20.2969 21.6846 20.2178C21.6846 17.7305 16.0947 17.6484 16.0391 17.6484C15.6553 17.6484 15.1133 17.4785 14.334 17.2178C13.5928 16.9717 12.7637 16.6934 11.9814 16.626L11.668 16.5996C11.2842 16.5615 10.8301 16.5264 10.3613 16.4883C10.0918 16.4707 9.88965 16.2422 9.88965 15.9756V9.39551C9.88965 9.26074 9.94531 9.12598 10.0391 9.03516L16.1973 2.86523C16.2939 2.76855 16.4229 2.71289 16.5576 2.71289H24.7695C25.0508 2.71289 25.2822 2.94434 25.2822 3.22559V19.582C25.2793 19.8457 25.0947 20.0625 24.8398 20.0947ZM16.0449 4.46777L11.6357 8.88281H15.5293C15.8105 8.88281 16.042 8.65137 16.042 8.37012L16.0449 4.46777ZM8.85547 15.6445C8.62402 18.3164 6.85449 24.7822 6.78125 25.0137C6.71094 25.2275 6.51758 25.3711 6.29492 25.3711H3.21582C2.93457 25.3711 2.70312 25.1397 2.70312 24.8584V14.5752C2.70312 14.4316 2.76465 14.2969 2.86426 14.2002C2.96387 14.1035 3.10449 14.0625 3.24805 14.0625C4.30273 14.127 7.82422 14.3965 8.70312 15.2285C8.80859 15.334 8.87012 15.4863 8.85547 15.6445ZM21.1748 26.4023C16.8945 28.1572 15.5117 27.1699 13.4785 26.4023L8.03809 23.9385C8.52441 22.374 9.46777 19.1689 9.79297 16.96C10.584 17.0098 11.3721 17.0859 11.9375 17.1416C13.3672 17.2705 15.0459 18.1699 16.0449 18.1699C17.0439 18.1699 21.1777 18.5303 21.1777 20.2266C21.1777 21.9229 17.3604 21.4482 15.0195 21.2549C14.6123 21.2227 14.3896 21.2285 14.3018 21.2637C13.8857 21.4336 16.5488 22.292 17.0703 22.2832C17.5977 22.2744 19.6689 22.3389 20.665 22.292L24.2598 20.7539C25.9238 20.1738 27.3359 21.0586 27.3359 22.2949C27.3359 23.7861 21.1748 26.4023 21.1748 26.4023Z" fill="#121212"/>
</svg>
