<svg width="85" height="385" viewBox="0 0 85 385" fill="none" xmlns="http://www.w3.org/2000/svg">
<path d="M-9.18492 0C4.28436 0 18.3659 1.58186 33.0597 4.74558C47.7534 7.51382 59.2329 11.2707 67.4982 16.0163C70.2533 17.2027 71.9369 18.7846 72.5492 20.7619C73.4675 22.3437 74.2328 25.3097 74.8451 29.6598L80.3553 112.114C80.3553 113.3 79.5899 114.091 78.0593 114.487C76.5287 114.882 75.6104 114.289 75.3042 112.707C64.8962 81.4656 50.9677 57.3423 33.5188 40.3373C16.07 23.3324 -4.13396 14.8299 -27.093 14.8299C-57.3989 14.8299 -80.8171 29.2643 -97.3475 58.1332C-113.878 87.0021 -122.143 125.758 -122.143 174.4C-122.143 210.782 -117.705 244.001 -108.827 274.056C-99.6434 304.112 -86.9395 328.037 -70.7151 345.833C-54.1846 363.234 -35.5113 371.934 -14.6951 371.934C4.89659 371.934 22.3455 363.629 37.6515 347.02C53.2636 330.015 67.192 304.31 79.4369 269.904C79.743 268.322 80.6613 267.729 82.192 268.125C84.0287 268.52 84.9471 269.311 84.9471 270.497L78.0593 351.172C77.4471 355.918 76.6818 359.081 75.7634 360.663C75.1512 361.849 73.4675 363.234 70.7124 364.815C43.4677 377.866 15.4578 384.391 -13.3175 384.391C-50.6642 384.391 -81.8885 374.9 -106.99 355.918C-132.092 336.54 -150.612 312.219 -162.551 282.954C-174.184 253.295 -180 222.448 -180 190.416C-180 152.847 -172.194 119.628 -156.582 90.759C-140.664 61.8901 -119.694 39.5464 -93.6741 23.7279C-67.3478 7.90929 -39.1847 0 -9.18492 0Z" fill="#E3DCCE"/>
</svg>
