<svg width="1840" height="892" viewBox="0 0 1840 892" fill="none" xmlns="http://www.w3.org/2000/svg">
<path d="M1712.35 384.391C1678.67 384.391 1649.29 376.086 1624.19 359.477C1599.08 342.867 1579.95 320.326 1566.79 291.852C1553.62 262.984 1547.04 230.951 1547.04 195.755C1547.04 157.79 1554.54 123.978 1569.54 94.3181C1584.85 64.2629 1605.67 41.1282 1631.99 24.9142C1658.62 8.30474 1688.32 0 1721.07 0C1735.46 0 1750 1.58186 1764.69 4.74558C1779.39 7.51382 1791.17 11.2707 1800.05 16.0163C1802.81 17.2027 1804.49 18.7846 1805.1 20.7619C1806.02 22.3437 1806.63 25.3097 1806.94 29.6598L1812.91 112.114C1812.91 113.3 1812.14 114.091 1810.61 114.487C1809.08 114.882 1808.01 114.289 1807.4 112.707C1796.68 82.2565 1781.84 58.5287 1762.86 41.5237C1744.18 24.5188 1722.76 16.0163 1698.57 16.0163C1667.35 16.0163 1643.47 30.0553 1626.94 58.1332C1610.72 86.2111 1602.6 124.571 1602.6 173.213C1602.6 212.364 1607.81 247.363 1618.22 278.209C1628.62 308.66 1643.01 332.387 1661.38 349.392C1680.05 366.002 1700.87 374.307 1723.83 374.307C1736.38 374.307 1746.02 372.527 1752.76 368.968C1759.49 365.409 1764.39 358.488 1767.45 348.206C1770.51 337.924 1772.04 322.699 1772.04 302.53C1772.04 281.966 1771.12 267.729 1769.29 259.82C1767.45 251.515 1763.47 245.979 1757.35 243.21C1751.53 240.442 1741.28 239.058 1726.58 239.058C1724.75 239.058 1723.83 237.476 1723.83 234.312C1723.83 233.126 1723.98 232.137 1724.29 231.346C1724.9 230.16 1725.51 229.567 1726.12 229.567C1752.14 231.544 1773.11 232.533 1789.03 232.533C1804.64 232.533 1820.87 231.94 1837.7 230.753C1838.32 230.753 1838.78 231.346 1839.08 232.533C1839.69 233.324 1840 234.115 1840 234.906C1840 237.674 1839.23 239.058 1837.7 239.058C1832.19 238.662 1828.37 240.047 1826.22 243.21C1824.08 245.979 1822.7 251.911 1822.09 261.006C1821.48 269.706 1821.17 285.525 1821.17 308.462C1821.17 326.258 1821.63 338.913 1822.55 346.426C1823.78 353.94 1824.39 358.686 1824.39 360.663C1824.39 363.036 1823.93 364.618 1823.01 365.409C1822.4 366.2 1821.02 366.991 1818.88 367.781C1779.39 378.854 1743.88 384.391 1712.35 384.391Z" fill="#E3DCCE"/>
<path d="M1518.87 6.52542C1519.49 6.52542 1519.79 7.71182 1519.79 10.0846C1519.79 12.4574 1519.49 13.6438 1518.87 13.6438C1506.63 13.6438 1496.99 19.9712 1489.95 32.626C1482.91 44.8854 1479.38 61.4949 1479.38 82.4545V386.171C1479.38 387.357 1478.62 388.148 1477.09 388.544C1475.86 388.939 1474.95 388.741 1474.33 387.95L1258.98 71.1838V301.937C1258.98 322.897 1262.35 339.506 1269.08 351.765C1275.81 364.025 1285.15 370.154 1297.09 370.154C1297.7 370.154 1298.01 371.341 1298.01 373.714C1298.01 376.086 1297.7 377.273 1297.09 377.273C1288.52 377.273 1281.94 377.075 1277.35 376.68L1252.55 376.086L1224.08 376.68C1218.88 377.075 1211.38 377.273 1201.58 377.273C1200.66 377.273 1200.2 376.086 1200.2 373.714C1200.2 371.341 1200.66 370.154 1201.58 370.154C1215.05 370.154 1225.61 364.025 1233.26 351.765C1241.22 339.506 1245.2 322.897 1245.2 301.937V51.0151C1235.1 36.7784 1226.38 27.0895 1219.03 21.9485C1211.99 16.412 1204.64 13.6438 1196.99 13.6438C1196.38 13.6438 1196.07 12.4574 1196.07 10.0846C1196.07 7.71182 1196.38 6.52542 1196.99 6.52542L1216.27 7.11861C1220.25 7.51407 1226.07 7.7118 1233.72 7.7118L1268.62 7.11861C1272.91 6.72315 1278.11 6.52542 1284.23 6.52542C1286.68 6.52542 1288.52 7.31634 1289.74 8.89818C1290.97 10.48 1293.11 13.8415 1296.17 18.9825C1301.38 28.0782 1305.05 34.2079 1307.19 37.3716L1466.07 274.057V82.4545C1466.07 61.0994 1462.7 44.2922 1455.97 32.0328C1449.23 19.7735 1439.9 13.6438 1427.96 13.6438C1427.34 13.6438 1427.04 12.4574 1427.04 10.0846C1427.04 7.71182 1427.34 6.52542 1427.96 6.52542L1447.7 7.11861C1457.5 7.90953 1465.76 8.30499 1472.5 8.30499C1478.62 8.30499 1487.19 7.90953 1498.21 7.11861L1518.87 6.52542Z" fill="#E3DCCE"/>
<path d="M1134.17 329.224C1134.17 341.483 1134.94 350.381 1136.47 355.918C1138 361.454 1140.91 365.211 1145.19 367.189C1149.78 369.166 1156.98 370.154 1166.77 370.154C1167.69 370.154 1168.15 371.341 1168.15 373.714C1168.15 376.086 1167.69 377.273 1166.77 377.273C1156.67 377.273 1148.71 377.075 1142.9 376.68L1108 376.086L1074.02 376.68C1067.9 377.075 1059.63 377.273 1049.22 377.273C1048.61 377.273 1048.3 376.086 1048.3 373.714C1048.3 371.341 1048.61 370.154 1049.22 370.154C1059.02 370.154 1066.21 369.166 1070.8 367.189C1075.4 365.211 1078.46 361.454 1079.99 355.918C1081.82 349.986 1082.74 341.088 1082.74 329.224V54.5743C1082.74 42.7104 1081.82 34.0102 1079.99 28.4737C1078.46 22.9372 1075.4 19.1802 1070.8 17.2029C1066.21 14.8301 1059.02 13.6438 1049.22 13.6438C1048.61 13.6438 1048.3 12.4574 1048.3 10.0846C1048.3 7.71182 1048.61 6.52542 1049.22 6.52542L1074.02 7.11861C1088.1 7.90953 1099.43 8.30499 1108 8.30499C1117.49 8.30499 1129.27 7.90953 1143.35 7.11861L1166.77 6.52542C1167.69 6.52542 1168.15 7.71182 1168.15 10.0846C1168.15 12.4574 1167.69 13.6438 1166.77 13.6438C1157.28 13.6438 1150.24 14.8301 1145.65 17.2029C1141.06 19.5757 1138 23.7281 1136.47 29.6601C1134.94 35.1965 1134.17 43.8967 1134.17 55.7606V329.224Z" fill="#E3DCCE"/>
<path d="M1018.72 370.154C1019.34 370.154 1019.64 371.341 1019.64 373.714C1019.64 376.086 1019.34 377.273 1018.72 377.273C1008.31 377.273 1000.05 377.075 993.927 376.68L959.948 376.086L925.509 376.68C919.693 377.075 911.734 377.273 901.632 377.273C900.714 377.273 900.254 376.086 900.254 373.714C900.254 371.341 900.714 370.154 901.632 370.154C914.489 370.154 923.213 368.177 927.805 364.222C932.397 360.268 934.693 351.963 934.693 339.308L934.234 329.224L924.591 86.6069L830 373.12C829.388 374.702 828.163 375.493 826.326 375.493C824.49 375.493 823.265 374.702 822.653 373.12L706.48 87.7932L702.807 301.937C702.501 323.292 705.715 340.099 712.45 352.359C719.49 364.223 729.286 370.154 741.837 370.154C742.756 370.154 743.215 371.341 743.215 373.714C743.215 376.086 742.756 377.273 741.837 377.273C733.572 377.273 727.143 377.075 722.552 376.68L697.297 376.086L668.368 376.68C663.47 377.075 656.889 377.273 648.624 377.273C647.705 377.273 647.246 376.086 647.246 373.714C647.246 371.341 647.705 370.154 648.624 370.154C661.175 370.154 671.123 364.025 678.47 351.765C685.817 339.506 689.644 322.897 689.95 301.937L694.082 56.3539L693.623 55.7606C687.501 41.1285 681.072 30.451 674.338 23.7281C667.909 17.0052 660.409 13.6438 651.838 13.6438C650.92 13.6438 650.46 12.4574 650.46 10.0846C650.46 7.71182 650.92 6.52542 651.838 6.52542L673.419 7.11861C677.705 7.51407 683.215 7.7118 689.95 7.7118L714.286 7.11861C717.041 6.72315 720.562 6.52542 724.848 6.52542C728.827 6.52542 731.888 8.305 734.031 11.8642C736.174 15.4233 740.154 23.9258 745.97 37.3716L846.071 279.989L933.315 21.3553C935.152 15.8188 936.989 12.0619 938.826 10.0846C940.968 7.71182 943.723 6.52542 947.091 6.52542C949.846 6.52542 952.907 6.72315 956.274 7.11861C959.948 7.51407 964.08 7.7118 968.672 7.7118L995.764 7.11861C1000.05 6.72315 1006.17 6.52542 1014.13 6.52542C1015.05 6.52542 1015.51 7.71182 1015.51 10.0846C1015.51 12.4574 1015.05 13.6438 1014.13 13.6438C999.743 13.6438 989.335 17.4007 982.907 24.9145C976.478 32.4283 973.57 44.0945 974.183 59.913L985.203 329.224C985.815 341.483 986.886 350.381 988.417 355.918C990.254 361.454 993.315 365.211 997.601 367.189C1002.19 369.166 1009.23 370.154 1018.72 370.154Z" fill="#E3DCCE"/>
<path d="M452.724 384.391C424.255 384.391 398.847 375.888 376.5 358.884C354.46 341.483 337.317 318.151 325.072 288.886C313.133 259.227 307.164 226.996 307.164 192.195C307.164 151.463 315.123 116.662 331.041 87.793C346.96 58.5287 367.317 36.5804 392.112 21.9483C417.214 7.31609 442.775 0 468.796 0C497.877 0 523.438 8.89794 545.479 26.6938C567.519 44.0942 584.356 67.2289 595.988 96.0977C607.927 124.967 613.897 155.615 613.897 188.043C613.897 224.03 606.55 257.052 591.856 287.107C577.162 317.162 557.417 340.89 532.622 358.29C508.132 375.691 481.5 384.391 452.724 384.391ZM467.877 369.561C485.02 369.561 500.326 363.234 513.795 350.579C527.571 337.528 538.285 318.744 545.938 294.225C553.591 269.311 557.417 239.651 557.417 205.246C557.417 168.863 553.132 136.435 544.56 107.962C535.989 79.0928 523.591 56.5514 507.367 40.3373C491.142 24.1233 472.163 16.0163 450.428 16.0163C422.571 16.0163 401.143 29.6598 386.143 56.9468C371.143 83.8384 363.643 121.605 363.643 170.247C363.643 208.607 368.082 243.013 376.959 273.463C386.143 303.519 398.541 327.049 414.153 344.054C430.071 361.059 447.979 369.561 467.877 369.561Z" fill="#E3DCCE"/>
<path d="M170.815 0C184.284 0 198.366 1.58186 213.06 4.74558C227.753 7.51382 239.233 11.2707 247.498 16.0163C250.253 17.2027 251.937 18.7846 252.549 20.7619C253.468 22.3437 254.233 25.3097 254.845 29.6598L260.355 112.114C260.355 113.3 259.59 114.091 258.059 114.487C256.529 114.882 255.61 114.289 255.304 112.707C244.896 81.4656 230.968 57.3423 213.519 40.3373C196.07 23.3324 175.866 14.8299 152.907 14.8299C122.601 14.8299 99.1829 29.2643 82.6525 58.1332C66.122 87.0021 57.8567 125.758 57.8567 174.4C57.8567 210.782 62.2955 244.001 71.1729 274.056C80.3565 304.112 93.0605 328.037 109.285 345.833C125.815 363.234 144.489 371.934 165.305 371.934C184.897 371.934 202.345 363.629 217.651 347.02C233.264 330.015 247.192 304.31 259.437 269.904C259.743 268.322 260.661 267.729 262.192 268.125C264.029 268.52 264.947 269.311 264.947 270.497L258.059 351.172C257.447 355.918 256.682 359.081 255.763 360.663C255.151 361.849 253.468 363.234 250.712 364.815C223.468 377.866 195.458 384.391 166.682 384.391C129.336 384.391 98.1115 374.9 73.0097 355.918C47.9078 336.54 29.3875 312.219 17.4489 282.954C5.81628 253.295 0 222.448 0 190.416C0 152.847 7.80606 119.628 23.4182 90.759C39.3364 61.8901 60.3057 39.5464 86.3259 23.7279C112.652 7.90929 140.815 0 170.815 0Z" fill="#E3DCCE"/>
<path d="M1570.75 489.667C1571.39 489.667 1571.71 490.916 1571.71 493.414C1571.71 495.912 1571.39 497.16 1570.75 497.16C1557.86 497.16 1547.71 503.821 1540.3 517.142C1532.88 530.046 1529.18 547.53 1529.18 569.593V889.294C1529.18 890.543 1528.37 891.376 1526.76 891.792C1525.47 892.208 1524.51 892 1523.86 891.167L1297.17 557.729V800.627C1297.17 822.69 1300.72 840.173 1307.81 853.078C1314.89 865.983 1324.72 872.435 1337.29 872.435C1337.93 872.435 1338.26 873.684 1338.26 876.181C1338.26 878.679 1337.93 879.928 1337.29 879.928C1328.27 879.928 1321.34 879.72 1316.51 879.303L1290.4 878.679L1260.44 879.303C1254.96 879.72 1247.06 879.928 1236.75 879.928C1235.79 879.928 1235.3 878.679 1235.3 876.181C1235.3 873.684 1235.79 872.435 1236.75 872.435C1250.93 872.435 1262.05 865.983 1270.1 853.078C1278.48 840.173 1282.67 822.69 1282.67 800.627V536.499C1272.04 521.513 1262.85 511.314 1255.12 505.902C1247.71 500.074 1239.98 497.16 1231.92 497.16C1231.28 497.16 1230.95 495.912 1230.95 493.414C1230.95 490.916 1231.28 489.667 1231.92 489.667L1252.22 490.292C1256.41 490.708 1262.53 490.916 1270.59 490.916L1307.32 490.292C1311.83 489.876 1317.31 489.667 1323.76 489.667C1326.33 489.667 1328.27 490.5 1329.56 492.165C1330.84 493.83 1333.1 497.369 1336.32 502.78C1341.8 512.355 1345.67 518.807 1347.92 522.137L1515.16 771.279V569.593C1515.16 547.114 1511.62 529.422 1504.53 516.517C1497.44 503.613 1487.61 497.16 1475.04 497.16C1474.4 497.16 1474.08 495.912 1474.08 493.414C1474.08 490.916 1474.4 489.667 1475.04 489.667L1495.83 490.292C1506.14 491.124 1514.84 491.541 1521.93 491.541C1528.37 491.541 1537.4 491.124 1549 490.292L1570.75 489.667Z" fill="#E3DCCE"/>
<path d="M1028.13 887.421C998.16 887.421 971.415 878.471 947.892 860.571C924.691 842.255 906.646 817.695 893.757 786.89C881.19 755.669 874.906 721.743 874.906 685.11C874.906 642.234 883.284 605.601 900.04 575.213C916.796 544.408 938.225 521.305 964.326 505.903C990.749 490.5 1017.65 482.799 1045.04 482.799C1075.66 482.799 1102.56 492.165 1125.76 510.898C1148.96 529.214 1166.69 553.566 1178.93 583.955C1191.5 614.343 1197.78 646.604 1197.78 680.739C1197.78 718.621 1190.05 753.38 1174.58 785.017C1159.11 816.654 1138.33 841.631 1112.23 859.947C1086.45 878.263 1058.42 887.421 1028.13 887.421ZM1044.08 871.811C1062.12 871.811 1078.23 865.15 1092.41 851.829C1106.91 838.092 1118.19 818.319 1126.25 792.51C1134.3 766.284 1138.33 735.063 1138.33 698.847C1138.33 660.55 1133.82 626.415 1124.8 596.443C1115.77 566.055 1102.72 542.327 1085.65 525.26C1068.57 508.192 1048.59 499.658 1025.71 499.658C996.388 499.658 973.831 514.02 958.042 542.743C942.253 571.05 934.358 610.805 934.358 662.007C934.358 702.386 939.03 738.602 948.375 770.655C958.042 802.292 971.092 827.061 987.526 844.961C1004.28 862.861 1023.13 871.811 1044.08 871.811Z" fill="#E3DCCE"/>
<path d="M658.065 887.421C628.097 887.421 601.352 878.471 577.829 860.571C554.629 842.255 536.584 817.695 523.694 786.89C511.127 755.669 504.844 721.743 504.844 685.11C504.844 642.234 513.222 605.601 529.978 575.213C546.734 544.408 568.162 521.305 594.263 505.903C620.686 490.5 647.592 482.799 674.982 482.799C705.594 482.799 732.501 492.165 755.701 510.898C778.902 529.214 796.625 553.566 808.869 583.955C821.436 614.343 827.72 646.604 827.72 680.739C827.72 718.621 819.986 753.38 804.519 785.017C789.052 816.654 768.268 841.631 742.167 859.947C716.389 878.263 688.355 887.421 658.065 887.421ZM674.015 871.811C692.06 871.811 708.172 865.15 722.35 851.829C736.851 838.092 748.129 818.319 756.185 792.51C764.24 766.284 768.268 735.063 768.268 698.847C768.268 660.55 763.757 626.415 754.735 596.443C745.712 566.055 732.662 542.327 715.583 525.26C698.505 508.192 678.527 499.658 655.648 499.658C626.325 499.658 603.769 514.02 587.98 542.743C572.19 571.05 564.295 610.805 564.295 662.007C564.295 702.386 568.968 738.602 578.313 770.655C587.98 802.292 601.03 827.061 617.464 844.961C634.22 862.861 653.07 871.811 674.015 871.811Z" fill="#E3DCCE"/>
<path d="M316.507 552.734C316.507 567.72 319.407 581.041 325.207 592.697C331.329 604.352 338.741 614.551 347.441 623.293C356.141 632.035 367.903 642.65 382.725 655.138C398.837 668.459 411.726 680.115 421.393 690.106C431.06 700.096 439.277 712.376 446.044 726.946C452.811 741.1 456.194 757.543 456.194 776.275C456.194 797.921 451.683 817.278 442.66 834.346C433.638 850.997 421.071 864.11 404.959 873.684C389.17 882.842 371.447 887.421 351.791 887.421C337.291 887.421 322.146 884.924 306.356 879.928C290.567 874.517 279.933 868.689 274.455 862.445C272.844 860.779 271.555 859.322 270.589 858.074C269.944 856.409 269.622 853.911 269.622 850.581L268.172 751.298V750.674C268.172 749.009 268.977 748.176 270.589 748.176C272.2 747.76 273.166 748.384 273.489 750.05C283.156 775.443 291.534 796.048 298.623 811.867C306.034 827.685 315.218 841.631 326.174 853.703C337.452 865.775 350.18 871.811 364.358 871.811C377.247 871.811 387.881 867.44 396.259 858.698C404.637 849.54 408.826 834.138 408.826 812.491C408.826 794.175 405.604 778.148 399.159 764.411C393.037 750.674 385.464 739.018 376.442 729.444C367.419 719.869 355.013 708.422 339.224 695.101C323.757 682.196 311.673 671.165 302.973 662.007C294.595 652.849 287.345 641.817 281.222 628.913C275.1 616.008 272.039 600.814 272.039 583.33C272.039 561.268 276.872 542.743 286.539 527.757C296.528 512.355 309.256 501.115 324.724 494.039C340.191 486.546 356.463 482.799 373.542 482.799C384.82 482.799 396.259 484.256 407.859 487.17C419.46 489.668 428.804 492.79 435.894 496.536C438.794 498.202 440.727 500.075 441.694 502.156C442.66 503.821 443.144 506.111 443.144 509.025V600.814C443.144 602.063 442.338 603.103 440.727 603.936C439.116 604.352 438.149 603.936 437.827 602.687L433.96 590.823C425.904 564.598 416.398 542.327 405.443 524.011C394.809 505.695 379.825 496.536 360.491 496.536C347.602 496.536 336.968 501.324 328.59 510.898C320.535 520.472 316.507 534.418 316.507 552.734Z" fill="#E3DCCE"/>
</svg>
