<svg width="73" height="385" viewBox="0 0 73 385" fill="none" xmlns="http://www.w3.org/2000/svg">
<path d="M165.348 384.391C131.675 384.391 102.287 376.086 77.1852 359.477C52.0834 342.867 32.9508 320.326 19.7877 291.852C6.62451 262.984 0.0429688 230.951 0.0429688 195.755C0.0429688 157.79 7.54291 123.978 22.5428 94.3181C37.8488 64.2629 58.665 41.1282 84.9914 24.9142C111.624 8.30474 141.317 0 174.072 0C188.46 0 203.001 1.58186 217.694 4.74558C232.388 7.51382 244.174 11.2707 253.051 16.0163C255.806 17.2027 257.49 18.7846 258.102 20.7619C259.021 22.3437 259.633 25.3097 259.939 29.6598L265.908 112.114C265.908 113.3 265.143 114.091 263.612 114.487C262.082 114.882 261.011 114.289 260.398 112.707C249.684 82.2565 234.837 58.5287 215.858 41.5237C197.184 24.5188 175.756 16.0163 151.572 16.0163C120.348 16.0163 96.4708 30.0553 79.9403 58.1332C63.716 86.2111 55.6038 124.571 55.6038 173.213C55.6038 212.364 60.8078 247.363 71.2159 278.209C81.624 308.66 96.0116 332.387 114.379 349.392C133.052 366.002 153.868 374.307 176.827 374.307C189.378 374.307 199.021 372.527 205.756 368.968C212.49 365.409 217.388 358.488 220.45 348.206C223.511 337.924 225.041 322.699 225.041 302.53C225.041 281.966 224.123 267.729 222.286 259.82C220.45 251.515 216.47 245.979 210.348 243.21C204.531 240.442 194.276 239.058 179.582 239.058C177.746 239.058 176.827 237.476 176.827 234.312C176.827 233.126 176.98 232.137 177.287 231.346C177.899 230.16 178.511 229.567 179.123 229.567C205.143 231.544 226.113 232.533 242.031 232.533C257.643 232.533 273.868 231.94 290.704 230.753C291.316 230.753 291.776 231.346 292.082 232.533C292.694 233.324 293 234.115 293 234.906C293 237.674 292.235 239.058 290.704 239.058C285.194 238.662 281.367 240.047 279.225 243.21C277.082 245.979 275.704 251.911 275.092 261.006C274.48 269.706 274.174 285.525 274.174 308.462C274.174 326.258 274.633 338.913 275.551 346.426C276.776 353.94 277.388 358.686 277.388 360.663C277.388 363.036 276.929 364.618 276.01 365.409C275.398 366.2 274.02 366.991 271.878 367.781C232.388 378.854 196.878 384.391 165.348 384.391Z" fill="#E3DCCE"/>
</svg>
