<svg width="121" height="372" viewBox="0 0 121 372" fill="none" xmlns="http://www.w3.org/2000/svg">
<path d="M86.1714 323.224C86.1714 335.483 86.9367 344.381 88.4673 349.918C89.9979 355.454 92.906 359.211 97.1917 361.188C101.784 363.166 108.977 364.154 118.773 364.154C119.692 364.154 120.151 365.341 120.151 367.714C120.151 370.086 119.692 371.273 118.773 371.273C108.671 371.273 100.712 371.075 94.8958 370.68L59.9981 370.086L26.0187 370.68C19.8963 371.075 11.6311 371.273 1.22306 371.273C0.610819 371.273 0.304688 370.086 0.304688 367.714C0.304688 365.341 0.610819 364.154 1.22306 364.154C11.0189 364.154 18.2127 363.166 22.8045 361.188C27.3963 359.211 30.4575 355.454 31.9881 349.918C33.8248 343.986 34.7432 335.088 34.7432 323.224V48.5742C34.7432 36.7103 33.8248 28.0101 31.9881 22.4736C30.4575 16.9371 27.3963 13.1802 22.8045 11.2029C18.2127 8.83011 11.0189 7.64372 1.22306 7.64372C0.610819 7.64372 0.304688 6.45733 0.304688 4.08456C0.304688 1.71178 0.610819 0.525391 1.22306 0.525391L26.0187 1.11858C40.1003 1.90949 51.4267 2.30495 59.9981 2.30495C69.4878 2.30495 81.2734 1.90949 95.355 1.11858L118.773 0.525391C119.692 0.525391 120.151 1.71178 120.151 4.08456C120.151 6.45733 119.692 7.64372 118.773 7.64372C109.283 7.64372 102.243 8.83011 97.6509 11.2029C93.0591 13.5757 89.9979 17.7281 88.4673 23.66C86.9367 29.1965 86.1714 37.8967 86.1714 49.7606V323.224Z" fill="#E3DCCE"/>
</svg>
