<svg width="373" height="372" viewBox="0 0 373 372" fill="none" xmlns="http://www.w3.org/2000/svg">
<path d="M371.723 364.154C372.335 364.154 372.641 365.341 372.641 367.714C372.641 370.086 372.335 371.273 371.723 371.273C361.315 371.273 353.05 371.075 346.927 370.68L312.948 370.086L278.509 370.68C272.693 371.075 264.734 371.273 254.632 371.273C253.714 371.273 253.254 370.086 253.254 367.714C253.254 365.341 253.714 364.154 254.632 364.154C267.489 364.154 276.214 362.177 280.805 358.222C285.397 354.268 287.693 345.963 287.693 333.308L287.234 323.224L277.591 80.6068L183 367.12C182.388 368.702 181.163 369.493 179.326 369.493C177.49 369.493 176.265 368.702 175.653 367.12L59.4804 81.7932L55.8069 295.937C55.5008 317.292 58.7151 334.099 65.4497 346.359C72.4905 358.223 82.2863 364.154 94.8373 364.154C95.7556 364.154 96.2148 365.341 96.2148 367.714C96.2148 370.086 95.7556 371.273 94.8373 371.273C86.572 371.273 80.1435 371.075 75.5517 370.68L50.2967 370.086L21.3684 370.68C16.4704 371.075 9.8889 371.273 1.62365 371.273C0.705292 371.273 0.246094 370.086 0.246094 367.714C0.246094 365.341 0.705292 364.154 1.62365 364.154C14.1746 364.154 24.1235 358.025 31.4704 345.765C38.8173 333.506 42.6438 316.897 42.9499 295.937L47.0825 50.3538L46.6233 49.7606C40.5009 35.1284 34.0724 24.4509 27.3377 17.7281C20.9092 11.0052 13.4092 7.64372 4.83788 7.64372C3.91952 7.64372 3.4604 6.45733 3.4604 4.08456C3.4604 1.71178 3.91952 0.525391 4.83788 0.525391L26.4194 1.11858C30.7051 1.51404 36.2152 1.71177 42.9499 1.71177L67.2864 1.11858C70.0415 0.723117 73.5619 0.525391 77.8476 0.525391C81.8272 0.525391 84.8883 2.30497 87.0312 5.86412C89.174 9.4233 93.1536 17.9258 98.9699 31.3716L199.071 273.989L286.315 15.3553C288.152 9.81878 289.989 6.06188 291.826 4.08456C293.968 1.71178 296.723 0.525391 300.091 0.525391C302.846 0.525391 305.907 0.723117 309.274 1.11858C312.948 1.51404 317.08 1.71177 321.672 1.71177L348.764 1.11858C353.05 0.723117 359.172 0.525391 367.131 0.525391C368.049 0.525391 368.509 1.71178 368.509 4.08456C368.509 6.45733 368.049 7.64372 367.131 7.64372C352.743 7.64372 342.335 11.4006 335.907 18.9144C329.478 26.4282 326.57 38.0944 327.183 53.913L338.203 323.224C338.815 335.483 339.886 344.381 341.417 349.918C343.254 355.454 346.315 359.211 350.601 361.188C355.192 363.166 362.233 364.154 371.723 364.154Z" fill="#E3DCCE"/>
</svg>
