<svg width="342" height="403" viewBox="0 0 342 403" fill="none" xmlns="http://www.w3.org/2000/svg">
<path d="M340.747 0.66748C341.391 0.66748 341.713 1.91631 341.713 4.41397C341.713 6.91163 341.391 8.16046 340.747 8.16046C327.857 8.16046 317.707 14.8209 310.296 28.1418C302.884 41.0464 299.179 58.5301 299.179 80.5928V400.294C299.179 401.543 298.373 402.376 296.762 402.792C295.473 403.208 294.506 403 293.862 402.167L67.1717 68.7289V311.627C67.1717 333.69 70.7163 351.173 77.8054 364.078C84.8945 376.983 94.7226 383.435 107.29 383.435C107.934 383.435 108.256 384.684 108.256 387.181C108.256 389.679 107.934 390.928 107.29 390.928C98.2671 390.928 91.3391 390.72 86.5056 390.303L60.4049 389.679L30.4374 390.303C24.9594 390.72 17.0647 390.928 6.75328 390.928C5.78659 390.928 5.30322 389.679 5.30322 387.181C5.30322 384.684 5.78659 383.435 6.75328 383.435C20.9315 383.435 32.0485 376.983 40.1043 364.078C48.4823 351.173 52.6713 333.69 52.6713 311.627V47.4987C42.0377 32.5127 32.8541 22.3139 25.1205 16.9023C17.7092 11.0744 9.9756 8.16046 1.91981 8.16046C1.27534 8.16046 0.953125 6.91163 0.953125 4.41397C0.953125 1.91631 1.27534 0.66748 1.91981 0.66748L22.2204 1.29189C26.4094 1.70816 32.5318 1.91629 40.5876 1.91629L77.3221 1.29189C81.8333 0.875615 87.3112 0.66748 93.7559 0.66748C96.3337 0.66748 98.2671 1.50003 99.556 3.16511C100.845 4.83023 103.101 8.36859 106.323 13.7802C111.801 23.3546 115.668 29.8069 117.923 33.1371L285.162 282.279V80.5928C285.162 58.1138 281.617 40.422 274.528 27.5174C267.439 14.6128 257.611 8.16046 245.044 8.16046C244.399 8.16046 244.077 6.91163 244.077 4.41397C244.077 1.91631 244.399 0.66748 245.044 0.66748L265.828 1.29189C276.139 2.12443 284.839 2.54071 291.928 2.54071C298.373 2.54071 307.396 2.12443 318.996 1.29189L340.747 0.66748Z" fill="#E3DCCE"/>
</svg>
