<svg width="307" height="385" viewBox="0 0 307 385" fill="none" xmlns="http://www.w3.org/2000/svg">
<path d="M145.724 384.391C117.255 384.391 91.8471 375.888 69.5003 358.884C47.4596 341.483 30.3169 318.151 18.0721 288.886C6.13341 259.227 0.164062 226.996 0.164062 192.195C0.164062 151.463 8.1232 116.662 24.0414 87.793C39.9597 58.5287 60.3167 36.5804 85.1124 21.9483C110.214 7.31609 135.775 0 161.796 0C190.877 0 216.438 8.89794 238.479 26.6938C260.519 44.0942 277.356 67.2289 288.988 96.0977C300.927 124.967 306.897 155.615 306.897 188.043C306.897 224.03 299.55 257.052 284.856 287.107C270.162 317.162 250.417 340.89 225.622 358.29C201.132 375.691 174.5 384.391 145.724 384.391ZM160.877 369.561C178.02 369.561 193.326 363.234 206.795 350.579C220.571 337.528 231.285 318.744 238.938 294.225C246.591 269.311 250.417 239.651 250.417 205.246C250.417 168.863 246.132 136.435 237.56 107.962C228.989 79.0928 216.591 56.5514 200.367 40.3373C184.142 24.1233 165.163 16.0163 143.428 16.0163C115.571 16.0163 94.143 29.6598 79.1431 56.9468C64.1432 83.8384 56.6433 121.605 56.6433 170.247C56.6433 208.607 61.082 243.013 69.9595 273.463C79.1431 303.519 91.5409 327.049 107.153 344.054C123.071 361.059 140.979 369.561 160.877 369.561Z" fill="#E3DCCE"/>
</svg>
