<svg width="189" height="406" viewBox="0 0 189 406" fill="none" xmlns="http://www.w3.org/2000/svg">
<path d="M48.5066 70.734C48.5066 85.72 51.4067 99.0409 57.2069 110.697C63.3293 122.352 70.7406 132.551 79.4409 141.293C88.1412 150.035 99.9026 160.65 114.725 173.138C130.837 186.459 143.726 198.115 153.393 208.106C163.06 218.096 171.277 230.377 178.044 244.946C184.811 259.1 188.194 275.543 188.194 294.275C188.194 315.922 183.683 335.279 174.66 352.346C165.638 368.997 153.071 382.11 136.959 391.684C121.17 400.842 103.447 405.421 83.791 405.421C69.2906 405.421 54.1457 402.924 38.3563 397.928C22.567 392.517 11.9333 386.689 6.4554 380.445C4.84424 378.78 3.55531 377.323 2.58862 376.074C1.94415 374.409 1.62192 371.911 1.62192 368.581L0.171875 269.298V268.674C0.171875 267.009 0.977456 266.176 2.58862 266.176C4.19978 265.76 5.16647 266.385 5.4887 268.05C15.1557 293.443 23.5337 314.048 30.6228 329.867C38.0341 345.685 47.2177 359.631 58.1736 371.703C69.4517 383.775 82.1799 389.811 96.3581 389.811C109.247 389.811 119.881 385.44 128.259 376.698C136.637 367.54 140.826 352.138 140.826 330.491C140.826 312.175 137.604 296.148 131.159 282.411C125.037 268.674 117.464 257.018 108.442 247.444C99.4193 237.87 87.0134 226.422 71.224 213.101C55.7569 200.196 43.6732 189.165 34.9729 180.007C26.5949 170.849 19.3447 159.817 13.2223 146.913C7.09986 134.008 4.03865 118.814 4.03865 101.33C4.03865 79.2677 8.87214 60.7433 18.5391 45.7573C28.5283 30.3551 41.2564 19.1156 56.7236 12.0388C72.1907 4.54582 88.4634 0.799316 105.542 0.799316C116.82 0.799316 128.259 2.2563 139.859 5.17026C151.46 7.66791 160.804 10.79 167.894 14.5365C170.794 16.2016 172.727 18.0749 173.694 20.1562C174.66 21.8214 175.144 24.1109 175.144 27.0248V118.814C175.144 120.063 174.338 121.104 172.727 121.936C171.116 122.352 170.149 121.936 169.827 120.687L165.96 108.823C157.904 82.5979 148.398 60.327 137.443 42.0108C126.809 23.6946 111.825 14.5365 92.4913 14.5365C79.602 14.5365 68.9684 19.3237 60.5903 28.8981C52.5345 38.4725 48.5066 52.4178 48.5066 70.734Z" fill="#E3DCCE"/>
</svg>
