<svg xmlns="http://www.w3.org/2000/svg" width="241" height="176" viewBox="0 0 241 176" fill="none">
  <path d="M48.676 32.2448C29.2324 33.7888 25.127 53.348 25.5394 64.1974L23.5547 145.443C23.0783 164.942 37.8543 170.181 45.3019 170.363L187.485 173.836C210.234 174.392 215.03 155.54 214.585 146.045L216.47 68.8616C217.185 39.6131 199.694 34.5791 190.859 35.7182C165.399 31.3454 80.2642 29.7364 48.676 32.2448Z" stroke="#121212" stroke-width="3.46198"/>
  <path d="M218.478 70.9452C223.114 70.3863 234.293 70.6317 236.432 73.9103C239.105 78.0084 237.923 126.374 236.439 130.37C234.955 134.367 226.591 136.179 216.89 135.942" stroke="#121212" stroke-width="3.46198"/>
  <path d="M23.4721 66.1791C18.8692 65.3945 7.69107 65.0937 5.39502 68.2639C2.52496 72.2267 1.34343 120.592 2.63077 124.656C3.91811 128.721 12.1837 130.939 21.8843 131.176" stroke="#121212" stroke-width="3.46198"/>
  <circle cx="164.626" cy="93.7205" r="11.5107" transform="rotate(1.39941 164.626 93.7205)" fill="#121212" stroke="#121212" stroke-width="3.46198"/>
  <circle cx="75.8272" cy="90.4322" r="11.5107" transform="rotate(1.39941 75.8272 90.4322)" fill="#121212" stroke="#121212" stroke-width="3.46198"/>
  <path d="M93.0464 130.396C93.0464 130.396 101.147 131.568 119.428 132.015C137.708 132.461 145.856 131.686 145.856 131.686" stroke="#121212" stroke-width="3.46198" stroke-linecap="round"/>
  <path d="M226.596 71.1413L227.737 24.4248" stroke="#121212" stroke-width="3.46198"/>
  <path d="M15.3661 65.9833L16.5073 19.2668" stroke="#121212" stroke-width="3.46198"/>
  <ellipse cx="227.153" cy="16.2744" rx="4.93316" ry="9.86632" transform="rotate(1.39941 227.153 16.2744)" fill="#121212" stroke="#121212" stroke-width="3.46198"/>
  <ellipse cx="16.6717" cy="12.986" rx="4.93316" ry="9.86632" transform="rotate(1.39941 16.6717 12.986)" fill="#121212" stroke="#121212" stroke-width="3.46198"/>
</svg>