<svg width="406" height="50" viewBox="0 0 406 50" fill="none" xmlns="http://www.w3.org/2000/svg">
<rect x="0.5" y="4.5" width="19" height="19" rx="5.5" stroke="#8F9288"/>
<path d="M33.1705 5.90909V19H31.5852V5.90909H33.1705ZM45.1955 19.2045C44.275 19.2045 43.4824 18.9872 42.8176 18.5526C42.1529 18.1179 41.6415 17.5192 41.2836 16.7564C40.9256 15.9936 40.7466 15.1222 40.7466 14.142C40.7466 13.1449 40.9299 12.2649 41.2963 11.5021C41.6671 10.7351 42.1827 10.1364 42.8432 9.70597C43.508 9.27131 44.2836 9.05398 45.1699 9.05398C45.8603 9.05398 46.4824 9.18182 47.0364 9.4375C47.5904 9.69318 48.0442 10.0511 48.3979 10.5114C48.7516 10.9716 48.9711 11.5085 49.0563 12.1222H47.5478C47.4327 11.6747 47.177 11.2784 46.7807 10.9332C46.3887 10.5838 45.8603 10.4091 45.1955 10.4091C44.6074 10.4091 44.0918 10.5625 43.6486 10.8693C43.2097 11.1719 42.8667 11.6001 42.6195 12.1541C42.3766 12.7038 42.2551 13.3494 42.2551 14.0909C42.2551 14.8494 42.3745 15.5099 42.6131 16.0724C42.856 16.6349 43.1969 17.0717 43.6358 17.3828C44.079 17.6939 44.5989 17.8494 45.1955 17.8494C45.5875 17.8494 45.9434 17.7812 46.263 17.6449C46.5826 17.5085 46.8532 17.3125 47.0748 17.0568C47.2963 16.8011 47.454 16.4943 47.5478 16.1364H49.0563C48.9711 16.7159 48.7601 17.2379 48.4235 17.7024C48.0911 18.1626 47.65 18.5291 47.1003 18.8018C46.5549 19.0703 45.9199 19.2045 45.1955 19.2045ZM52.7701 13.0938V19H51.2615V5.90909H52.7701V10.7159H52.8979C53.128 10.2088 53.4732 9.80611 53.9334 9.50781C54.3979 9.20526 55.0158 9.05398 55.7871 9.05398C56.4561 9.05398 57.0421 9.18821 57.5449 9.45668C58.0478 9.72088 58.4377 10.1278 58.7147 10.6776C58.9959 11.223 59.1365 11.9176 59.1365 12.7614V19H57.628V12.8636C57.628 12.0838 57.4256 11.4808 57.0208 11.0547C56.6202 10.6243 56.0641 10.4091 55.3525 10.4091C54.8581 10.4091 54.415 10.5135 54.0229 10.7223C53.6351 10.9311 53.3283 11.2358 53.1025 11.6364C52.8809 12.0369 52.7701 12.5227 52.7701 13.0938ZM66.0128 19.2045C65.0668 19.2045 64.2507 18.9957 63.5646 18.5781C62.8828 18.1562 62.3565 17.5682 61.9858 16.8139C61.6193 16.0554 61.4361 15.1733 61.4361 14.1676C61.4361 13.1619 61.6193 12.2756 61.9858 11.5085C62.3565 10.7372 62.8722 10.1364 63.5327 9.70597C64.1974 9.27131 64.973 9.05398 65.8594 9.05398C66.3707 9.05398 66.8757 9.1392 67.3743 9.30966C67.8729 9.48011 68.3267 9.7571 68.7358 10.1406C69.1449 10.5199 69.4709 11.0227 69.7138 11.6491C69.9567 12.2756 70.0781 13.0469 70.0781 13.9631V14.6023H62.5099V13.2983H68.544C68.544 12.7443 68.4332 12.25 68.2116 11.8153C67.9943 11.3807 67.6832 11.0376 67.2784 10.7862C66.8778 10.5348 66.4048 10.4091 65.8594 10.4091C65.2585 10.4091 64.7386 10.5582 64.2997 10.8565C63.8651 11.1506 63.5305 11.5341 63.2962 12.0071C63.0618 12.4801 62.9446 12.9872 62.9446 13.5284V14.3977C62.9446 15.1392 63.0724 15.7678 63.3281 16.2834C63.5881 16.7947 63.9482 17.1847 64.4084 17.4531C64.8686 17.7173 65.4034 17.8494 66.0128 17.8494C66.4091 17.8494 66.767 17.794 67.0866 17.6832C67.4105 17.5682 67.6896 17.3977 67.924 17.1719C68.1584 16.9418 68.3395 16.6562 68.4673 16.3153L69.9247 16.7244C69.7713 17.2188 69.5135 17.6534 69.1513 18.0284C68.7891 18.3991 68.3416 18.6889 67.8089 18.8977C67.2763 19.1023 66.6776 19.2045 66.0128 19.2045ZM76.3615 19.2045C75.4411 19.2045 74.6484 18.9872 73.9837 18.5526C73.3189 18.1179 72.8075 17.5192 72.4496 16.7564C72.0916 15.9936 71.9126 15.1222 71.9126 14.142C71.9126 13.1449 72.0959 12.2649 72.4624 11.5021C72.8331 10.7351 73.3487 10.1364 74.0092 9.70597C74.674 9.27131 75.4496 9.05398 76.3359 9.05398C77.0263 9.05398 77.6484 9.18182 78.2024 9.4375C78.7564 9.69318 79.2102 10.0511 79.5639 10.5114C79.9176 10.9716 80.1371 11.5085 80.2223 12.1222H78.7138C78.5987 11.6747 78.343 11.2784 77.9467 10.9332C77.5547 10.5838 77.0263 10.4091 76.3615 10.4091C75.7734 10.4091 75.2578 10.5625 74.8146 10.8693C74.3757 11.1719 74.0327 11.6001 73.7855 12.1541C73.5426 12.7038 73.4212 13.3494 73.4212 14.0909C73.4212 14.8494 73.5405 15.5099 73.7791 16.0724C74.022 16.6349 74.3629 17.0717 74.8018 17.3828C75.245 17.6939 75.7649 17.8494 76.3615 17.8494C76.7536 17.8494 77.1094 17.7812 77.429 17.6449C77.7486 17.5085 78.0192 17.3125 78.2408 17.0568C78.4624 16.8011 78.62 16.4943 78.7138 16.1364H80.2223C80.1371 16.7159 79.9261 17.2379 79.5895 17.7024C79.2571 18.1626 78.8161 18.5291 78.2663 18.8018C77.7209 19.0703 77.0859 19.2045 76.3615 19.2045ZM83.8338 15.4205L83.8082 13.554H84.1151L88.4105 9.18182H90.277L85.7003 13.8097H85.5724L83.8338 15.4205ZM82.4276 19V5.90909H83.9361V19H82.4276ZM88.6662 19L84.831 14.142L85.9048 13.0938L90.5838 19H88.6662ZM95.9308 19.2045C94.9847 19.2045 94.1687 18.9957 93.4826 18.5781C92.8008 18.1562 92.2745 17.5682 91.9038 16.8139C91.5373 16.0554 91.354 15.1733 91.354 14.1676C91.354 13.1619 91.5373 12.2756 91.9038 11.5085C92.2745 10.7372 92.7901 10.1364 93.4506 9.70597C94.1154 9.27131 94.891 9.05398 95.7773 9.05398C96.2887 9.05398 96.7937 9.1392 97.2923 9.30966C97.7908 9.48011 98.2447 9.7571 98.6538 10.1406C99.0629 10.5199 99.3888 11.0227 99.6317 11.6491C99.8746 12.2756 99.9961 13.0469 99.9961 13.9631V14.6023H92.4279V13.2983H98.462C98.462 12.7443 98.3512 12.25 98.1296 11.8153C97.9123 11.3807 97.6012 11.0376 97.1964 10.7862C96.7958 10.5348 96.3228 10.4091 95.7773 10.4091C95.1765 10.4091 94.6566 10.5582 94.2177 10.8565C93.783 11.1506 93.4485 11.5341 93.2141 12.0071C92.9798 12.4801 92.8626 12.9872 92.8626 13.5284V14.3977C92.8626 15.1392 92.9904 15.7678 93.2461 16.2834C93.506 16.7947 93.8661 17.1847 94.3263 17.4531C94.7866 17.7173 95.3214 17.8494 95.9308 17.8494C96.3271 17.8494 96.685 17.794 97.0046 17.6832C97.3285 17.5682 97.6076 17.3977 97.842 17.1719C98.0763 16.9418 98.2575 16.6562 98.3853 16.3153L99.8427 16.7244C99.6893 17.2188 99.4315 17.6534 99.0692 18.0284C98.707 18.3991 98.2596 18.6889 97.7269 18.8977C97.1942 19.1023 96.5955 19.2045 95.9308 19.2045ZM105.998 19.2045C105.18 19.2045 104.458 18.9979 103.831 18.5845C103.205 18.1669 102.715 17.5788 102.361 16.8203C102.007 16.0575 101.831 15.1562 101.831 14.1165C101.831 13.0852 102.007 12.1903 102.361 11.4318C102.715 10.6733 103.207 10.0874 103.838 9.67401C104.468 9.26065 105.197 9.05398 106.024 9.05398C106.663 9.05398 107.168 9.16051 107.539 9.37358C107.914 9.58239 108.199 9.82102 108.395 10.0895C108.596 10.3537 108.751 10.571 108.862 10.7415H108.99V5.90909H110.498V19H109.041V17.4915H108.862C108.751 17.6705 108.593 17.8963 108.389 18.169C108.184 18.4375 107.892 18.6783 107.513 18.8913C107.134 19.1001 106.629 19.2045 105.998 19.2045ZM106.203 17.8494C106.808 17.8494 107.319 17.6918 107.737 17.3764C108.154 17.0568 108.472 16.6158 108.689 16.0533C108.907 15.4865 109.015 14.8324 109.015 14.0909C109.015 13.358 108.909 12.7166 108.696 12.1669C108.483 11.6129 108.167 11.1825 107.75 10.8757C107.332 10.5646 106.816 10.4091 106.203 10.4091C105.564 10.4091 105.031 10.5732 104.605 10.9013C104.183 11.2251 103.865 11.6662 103.652 12.2244C103.444 12.7784 103.339 13.4006 103.339 14.0909C103.339 14.7898 103.446 15.4247 103.659 15.9957C103.876 16.5625 104.196 17.0142 104.618 17.3509C105.044 17.6832 105.572 17.8494 106.203 17.8494ZM122.803 9.18182V10.4602H117.715V9.18182H122.803ZM119.198 6.82955H120.706V16.1875C120.706 16.6136 120.768 16.9332 120.892 17.1463C121.02 17.3551 121.181 17.4957 121.377 17.5682C121.578 17.6364 121.789 17.6705 122.01 17.6705C122.176 17.6705 122.313 17.6619 122.419 17.6449C122.526 17.6236 122.611 17.6065 122.675 17.5938L122.982 18.9489C122.88 18.9872 122.737 19.0256 122.554 19.0639C122.37 19.1065 122.138 19.1278 121.857 19.1278C121.431 19.1278 121.013 19.0362 120.604 18.853C120.199 18.6697 119.863 18.3906 119.594 18.0156C119.33 17.6406 119.198 17.1676 119.198 16.5966V6.82955ZM126.792 13.0938V19H125.283V5.90909H126.792V10.7159H126.919C127.15 10.2088 127.495 9.80611 127.955 9.50781C128.419 9.20526 129.037 9.05398 129.809 9.05398C130.478 9.05398 131.064 9.18821 131.566 9.45668C132.069 9.72088 132.459 10.1278 132.736 10.6776C133.017 11.223 133.158 11.9176 133.158 12.7614V19H131.65V12.8636C131.65 12.0838 131.447 11.4808 131.042 11.0547C130.642 10.6243 130.086 10.4091 129.374 10.4091C128.88 10.4091 128.436 10.5135 128.044 10.7223C127.657 10.9311 127.35 11.2358 127.124 11.6364C126.902 12.0369 126.792 12.5227 126.792 13.0938ZM140.034 19.2045C139.088 19.2045 138.272 18.9957 137.586 18.5781C136.904 18.1562 136.378 17.5682 136.007 16.8139C135.641 16.0554 135.458 15.1733 135.458 14.1676C135.458 13.1619 135.641 12.2756 136.007 11.5085C136.378 10.7372 136.894 10.1364 137.554 9.70597C138.219 9.27131 138.994 9.05398 139.881 9.05398C140.392 9.05398 140.897 9.1392 141.396 9.30966C141.894 9.48011 142.348 9.7571 142.757 10.1406C143.166 10.5199 143.492 11.0227 143.735 11.6491C143.978 12.2756 144.1 13.0469 144.1 13.9631V14.6023H136.531V13.2983H142.566C142.566 12.7443 142.455 12.25 142.233 11.8153C142.016 11.3807 141.705 11.0376 141.3 10.7862C140.899 10.5348 140.426 10.4091 139.881 10.4091C139.28 10.4091 138.76 10.5582 138.321 10.8565C137.887 11.1506 137.552 11.5341 137.318 12.0071C137.083 12.4801 136.966 12.9872 136.966 13.5284V14.3977C136.966 15.1392 137.094 15.7678 137.35 16.2834C137.61 16.7947 137.97 17.1847 138.43 17.4531C138.89 17.7173 139.425 17.8494 140.034 17.8494C140.431 17.8494 140.789 17.794 141.108 17.6832C141.432 17.5682 141.711 17.3977 141.945 17.1719C142.18 16.9418 142.361 16.6562 142.489 16.3153L143.946 16.7244C143.793 17.2188 143.535 17.6534 143.173 18.0284C142.811 18.3991 142.363 18.6889 141.83 18.8977C141.298 19.1023 140.699 19.2045 140.034 19.2045ZM155.727 9.18182V10.4602H150.639V9.18182H155.727ZM152.122 6.82955H153.63V16.1875C153.63 16.6136 153.692 16.9332 153.816 17.1463C153.943 17.3551 154.105 17.4957 154.301 17.5682C154.502 17.6364 154.713 17.6705 154.934 17.6705C155.1 17.6705 155.237 17.6619 155.343 17.6449C155.45 17.6236 155.535 17.6065 155.599 17.5938L155.906 18.9489C155.803 18.9872 155.661 19.0256 155.477 19.0639C155.294 19.1065 155.062 19.1278 154.781 19.1278C154.355 19.1278 153.937 19.0362 153.528 18.853C153.123 18.6697 152.786 18.3906 152.518 18.0156C152.254 17.6406 152.122 17.1676 152.122 16.5966V6.82955ZM161.879 19.2045C160.993 19.2045 160.215 18.9936 159.546 18.5717C158.881 18.1499 158.361 17.5597 157.986 16.8011C157.616 16.0426 157.43 15.1562 157.43 14.142C157.43 13.1193 157.616 12.2266 157.986 11.4638C158.361 10.701 158.881 10.1087 159.546 9.68679C160.215 9.26491 160.993 9.05398 161.879 9.05398C162.765 9.05398 163.541 9.26491 164.206 9.68679C164.875 10.1087 165.395 10.701 165.765 11.4638C166.14 12.2266 166.328 13.1193 166.328 14.142C166.328 15.1562 166.14 16.0426 165.765 16.8011C165.395 17.5597 164.875 18.1499 164.206 18.5717C163.541 18.9936 162.765 19.2045 161.879 19.2045ZM161.879 17.8494C162.552 17.8494 163.106 17.6768 163.541 17.3317C163.976 16.9865 164.297 16.5327 164.506 15.9702C164.715 15.4077 164.819 14.7983 164.819 14.142C164.819 13.4858 164.715 12.8743 164.506 12.3075C164.297 11.7408 163.976 11.2827 163.541 10.9332C163.106 10.5838 162.552 10.4091 161.879 10.4091C161.206 10.4091 160.652 10.5838 160.217 10.9332C159.782 11.2827 159.461 11.7408 159.252 12.3075C159.043 12.8743 158.939 13.4858 158.939 14.142C158.939 14.7983 159.043 15.4077 159.252 15.9702C159.461 16.5327 159.782 16.9865 160.217 17.3317C160.652 17.6768 161.206 17.8494 161.879 17.8494ZM170.037 15.4205L170.011 13.554H170.318L174.614 9.18182H176.48L171.903 13.8097H171.776L170.037 15.4205ZM168.631 19V5.90909H170.139V19H168.631ZM174.869 19L171.034 14.142L172.108 13.0938L176.787 19H174.869ZM182.134 19.2045C181.188 19.2045 180.372 18.9957 179.686 18.5781C179.004 18.1562 178.478 17.5682 178.107 16.8139C177.74 16.0554 177.557 15.1733 177.557 14.1676C177.557 13.1619 177.74 12.2756 178.107 11.5085C178.478 10.7372 178.993 10.1364 179.654 9.70597C180.319 9.27131 181.094 9.05398 181.98 9.05398C182.492 9.05398 182.997 9.1392 183.495 9.30966C183.994 9.48011 184.448 9.7571 184.857 10.1406C185.266 10.5199 185.592 11.0227 185.835 11.6491C186.078 12.2756 186.199 13.0469 186.199 13.9631V14.6023H178.631V13.2983H184.665C184.665 12.7443 184.554 12.25 184.333 11.8153C184.115 11.3807 183.804 11.0376 183.4 10.7862C182.999 10.5348 182.526 10.4091 181.98 10.4091C181.38 10.4091 180.86 10.5582 180.421 10.8565C179.986 11.1506 179.652 11.5341 179.417 12.0071C179.183 12.4801 179.066 12.9872 179.066 13.5284V14.3977C179.066 15.1392 179.194 15.7678 179.449 16.2834C179.709 16.7947 180.069 17.1847 180.529 17.4531C180.99 17.7173 181.525 17.8494 182.134 17.8494C182.53 17.8494 182.888 17.794 183.208 17.6832C183.532 17.5682 183.811 17.3977 184.045 17.1719C184.279 16.9418 184.461 16.6562 184.588 16.3153L186.046 16.7244C185.892 17.2188 185.635 17.6534 185.272 18.0284C184.91 18.3991 184.463 18.6889 183.93 18.8977C183.397 19.1023 182.799 19.2045 182.134 19.2045ZM190.002 13.0938V19H188.494V9.18182H189.951V10.7159H190.079C190.309 10.2173 190.659 9.81676 191.127 9.5142C191.596 9.20739 192.201 9.05398 192.943 9.05398C193.608 9.05398 194.189 9.19034 194.688 9.46307C195.186 9.73153 195.574 10.1406 195.851 10.6903C196.128 11.2358 196.267 11.9261 196.267 12.7614V19H194.758V12.8636C194.758 12.0923 194.558 11.4915 194.157 11.0611C193.757 10.6264 193.207 10.4091 192.508 10.4091C192.027 10.4091 191.596 10.5135 191.217 10.7223C190.842 10.9311 190.546 11.2358 190.328 11.6364C190.111 12.0369 190.002 12.5227 190.002 13.0938ZM206.975 19.2301C206.353 19.2301 205.788 19.1129 205.281 18.8786C204.774 18.6399 204.371 18.2969 204.073 17.8494C203.775 17.3977 203.626 16.8523 203.626 16.2131C203.626 15.6506 203.736 15.1946 203.958 14.8452C204.18 14.4915 204.476 14.2145 204.846 14.0142C205.217 13.8139 205.626 13.6648 206.074 13.5668C206.525 13.4645 206.979 13.3835 207.435 13.3239C208.032 13.2472 208.515 13.1896 208.886 13.1513C209.261 13.1087 209.534 13.0384 209.704 12.9403C209.879 12.8423 209.966 12.6719 209.966 12.429V12.3778C209.966 11.7472 209.794 11.2571 209.449 10.9077C209.108 10.5582 208.59 10.3835 207.895 10.3835C207.175 10.3835 206.611 10.5412 206.202 10.8565C205.792 11.1719 205.505 11.5085 205.339 11.8665L203.907 11.3551C204.162 10.7585 204.503 10.294 204.93 9.96165C205.36 9.625 205.829 9.39062 206.336 9.25852C206.847 9.12216 207.35 9.05398 207.844 9.05398C208.16 9.05398 208.522 9.09233 208.931 9.16903C209.344 9.24148 209.743 9.39276 210.126 9.62287C210.514 9.85298 210.836 10.2003 211.091 10.6648C211.347 11.1293 211.475 11.7514 211.475 12.5312V19H209.966V17.6705H209.89C209.787 17.8835 209.617 18.1115 209.378 18.3544C209.14 18.5973 208.822 18.804 208.426 18.9744C208.03 19.1449 207.546 19.2301 206.975 19.2301ZM207.205 17.875C207.802 17.875 208.305 17.7578 208.714 17.5234C209.127 17.2891 209.438 16.9865 209.647 16.6158C209.86 16.245 209.966 15.8551 209.966 15.446V14.0653C209.903 14.142 209.762 14.2124 209.545 14.2763C209.331 14.3359 209.084 14.3892 208.803 14.4361C208.526 14.4787 208.256 14.517 207.991 14.5511C207.731 14.581 207.52 14.6065 207.358 14.6278C206.966 14.679 206.6 14.7621 206.259 14.8771C205.922 14.9879 205.65 15.1562 205.441 15.3821C205.236 15.6037 205.134 15.9062 205.134 16.2898C205.134 16.8139 205.328 17.2102 205.716 17.4787C206.108 17.7429 206.604 17.875 207.205 17.875ZM215.737 13.0938V19H214.228V9.18182H215.686V10.7159H215.814C216.044 10.2173 216.393 9.81676 216.862 9.5142C217.331 9.20739 217.936 9.05398 218.677 9.05398C219.342 9.05398 219.924 9.19034 220.422 9.46307C220.921 9.73153 221.309 10.1406 221.586 10.6903C221.863 11.2358 222.001 11.9261 222.001 12.7614V19H220.493V12.8636C220.493 12.0923 220.292 11.4915 219.892 11.0611C219.491 10.6264 218.941 10.4091 218.243 10.4091C217.761 10.4091 217.331 10.5135 216.951 10.7223C216.576 10.9311 216.28 11.2358 216.063 11.6364C215.846 12.0369 215.737 12.5227 215.737 13.0938ZM228.465 19.2045C227.647 19.2045 226.925 18.9979 226.298 18.5845C225.672 18.1669 225.182 17.5788 224.828 16.8203C224.474 16.0575 224.297 15.1562 224.297 14.1165C224.297 13.0852 224.474 12.1903 224.828 11.4318C225.182 10.6733 225.674 10.0874 226.305 9.67401C226.935 9.26065 227.664 9.05398 228.491 9.05398C229.13 9.05398 229.635 9.16051 230.006 9.37358C230.381 9.58239 230.666 9.82102 230.862 10.0895C231.062 10.3537 231.218 10.571 231.329 10.7415H231.456V5.90909H232.965V19H231.508V17.4915H231.329C231.218 17.6705 231.06 17.8963 230.856 18.169C230.651 18.4375 230.359 18.6783 229.98 18.8913C229.601 19.1001 229.096 19.2045 228.465 19.2045ZM228.67 17.8494C229.275 17.8494 229.786 17.6918 230.204 17.3764C230.621 17.0568 230.939 16.6158 231.156 16.0533C231.373 15.4865 231.482 14.8324 231.482 14.0909C231.482 13.358 231.376 12.7166 231.162 12.1669C230.949 11.6129 230.634 11.1825 230.216 10.8757C229.799 10.5646 229.283 10.4091 228.67 10.4091C228.03 10.4091 227.498 10.5732 227.072 10.9013C226.65 11.2251 226.332 11.6662 226.119 12.2244C225.91 12.7784 225.806 13.4006 225.806 14.0909C225.806 14.7898 225.912 15.4247 226.126 15.9957C226.343 16.5625 226.662 17.0142 227.084 17.3509C227.51 17.6832 228.039 17.8494 228.67 17.8494ZM244.988 19.2045C244.068 19.2045 243.275 18.9872 242.611 18.5526C241.946 18.1179 241.434 17.5192 241.077 16.7564C240.719 15.9936 240.54 15.1222 240.54 14.142C240.54 13.1449 240.723 12.2649 241.089 11.5021C241.46 10.7351 241.976 10.1364 242.636 9.70597C243.301 9.27131 244.077 9.05398 244.963 9.05398C245.653 9.05398 246.275 9.18182 246.829 9.4375C247.383 9.69318 247.837 10.0511 248.191 10.5114C248.545 10.9716 248.764 11.5085 248.849 12.1222H247.341C247.226 11.6747 246.97 11.2784 246.574 10.9332C246.182 10.5838 245.653 10.4091 244.988 10.4091C244.4 10.4091 243.885 10.5625 243.442 10.8693C243.003 11.1719 242.66 11.6001 242.412 12.1541C242.17 12.7038 242.048 13.3494 242.048 14.0909C242.048 14.8494 242.167 15.5099 242.406 16.0724C242.649 16.6349 242.99 17.0717 243.429 17.3828C243.872 17.6939 244.392 17.8494 244.988 17.8494C245.381 17.8494 245.736 17.7812 246.056 17.6449C246.376 17.5085 246.646 17.3125 246.868 17.0568C247.089 16.8011 247.247 16.4943 247.341 16.1364H248.849C248.764 16.7159 248.553 17.2379 248.216 17.7024C247.884 18.1626 247.443 18.5291 246.893 18.8018C246.348 19.0703 245.713 19.2045 244.988 19.2045ZM255.043 19.2045C254.157 19.2045 253.379 18.9936 252.71 18.5717C252.045 18.1499 251.525 17.5597 251.15 16.8011C250.78 16.0426 250.594 15.1562 250.594 14.142C250.594 13.1193 250.78 12.2266 251.15 11.4638C251.525 10.701 252.045 10.1087 252.71 9.68679C253.379 9.26491 254.157 9.05398 255.043 9.05398C255.93 9.05398 256.705 9.26491 257.37 9.68679C258.039 10.1087 258.559 10.701 258.93 11.4638C259.305 12.2266 259.492 13.1193 259.492 14.142C259.492 15.1562 259.305 16.0426 258.93 16.8011C258.559 17.5597 258.039 18.1499 257.37 18.5717C256.705 18.9936 255.93 19.2045 255.043 19.2045ZM255.043 17.8494C255.716 17.8494 256.27 17.6768 256.705 17.3317C257.14 16.9865 257.461 16.5327 257.67 15.9702C257.879 15.4077 257.983 14.7983 257.983 14.142C257.983 13.4858 257.879 12.8743 257.67 12.3075C257.461 11.7408 257.14 11.2827 256.705 10.9332C256.27 10.5838 255.716 10.4091 255.043 10.4091C254.37 10.4091 253.816 10.5838 253.381 10.9332C252.947 11.2827 252.625 11.7408 252.416 12.3075C252.207 12.8743 252.103 13.4858 252.103 14.142C252.103 14.7983 252.207 15.4077 252.416 15.9702C252.625 16.5327 252.947 16.9865 253.381 17.3317C253.816 17.6768 254.37 17.8494 255.043 17.8494ZM263.303 13.0938V19H261.795V9.18182H263.252V10.7159H263.38C263.61 10.2173 263.96 9.81676 264.428 9.5142C264.897 9.20739 265.502 9.05398 266.244 9.05398C266.908 9.05398 267.49 9.19034 267.989 9.46307C268.487 9.73153 268.875 10.1406 269.152 10.6903C269.429 11.2358 269.567 11.9261 269.567 12.7614V19H268.059V12.8636C268.059 12.0923 267.859 11.4915 267.458 11.0611C267.058 10.6264 266.508 10.4091 265.809 10.4091C265.327 10.4091 264.897 10.5135 264.518 10.7223C264.143 10.9311 263.847 11.2358 263.629 11.6364C263.412 12.0369 263.303 12.5227 263.303 13.0938ZM276.594 9.18182V10.4602H271.506V9.18182H276.594ZM272.989 6.82955H274.497V16.1875C274.497 16.6136 274.559 16.9332 274.683 17.1463C274.811 17.3551 274.972 17.4957 275.169 17.5682C275.369 17.6364 275.58 17.6705 275.801 17.6705C275.968 17.6705 276.104 17.6619 276.21 17.6449C276.317 17.6236 276.402 17.6065 276.466 17.5938L276.773 18.9489C276.671 18.9872 276.528 19.0256 276.345 19.0639C276.161 19.1065 275.929 19.1278 275.648 19.1278C275.222 19.1278 274.804 19.0362 274.395 18.853C273.99 18.6697 273.654 18.3906 273.385 18.0156C273.121 17.6406 272.989 17.1676 272.989 16.5966V6.82955ZM278.863 19V9.18182H280.32V10.6648H280.423C280.602 10.179 280.926 9.7848 281.394 9.48224C281.863 9.17969 282.392 9.02841 282.98 9.02841C283.09 9.02841 283.229 9.03054 283.395 9.0348C283.561 9.03906 283.687 9.04545 283.772 9.05398V10.5881C283.721 10.5753 283.604 10.5561 283.421 10.5305C283.242 10.5007 283.052 10.4858 282.852 10.4858C282.374 10.4858 281.948 10.5859 281.573 10.7862C281.203 10.9822 280.909 11.255 280.691 11.6044C280.478 11.9496 280.372 12.3437 280.372 12.7869V19H278.863ZM288.45 19.2301C287.827 19.2301 287.263 19.1129 286.756 18.8786C286.249 18.6399 285.846 18.2969 285.548 17.8494C285.249 17.3977 285.1 16.8523 285.1 16.2131C285.1 15.6506 285.211 15.1946 285.433 14.8452C285.654 14.4915 285.95 14.2145 286.321 14.0142C286.692 13.8139 287.101 13.6648 287.548 13.5668C288 13.4645 288.454 13.3835 288.91 13.3239C289.506 13.2472 289.99 13.1896 290.361 13.1513C290.736 13.1087 291.009 13.0384 291.179 12.9403C291.354 12.8423 291.441 12.6719 291.441 12.429V12.3778C291.441 11.7472 291.268 11.2571 290.923 10.9077C290.582 10.5582 290.065 10.3835 289.37 10.3835C288.65 10.3835 288.085 10.5412 287.676 10.8565C287.267 11.1719 286.979 11.5085 286.813 11.8665L285.381 11.3551C285.637 10.7585 285.978 10.294 286.404 9.96165C286.835 9.625 287.303 9.39062 287.81 9.25852C288.322 9.12216 288.825 9.05398 289.319 9.05398C289.634 9.05398 289.996 9.09233 290.406 9.16903C290.819 9.24148 291.217 9.39276 291.601 9.62287C291.989 9.85298 292.31 10.2003 292.566 10.6648C292.822 11.1293 292.95 11.7514 292.95 12.5312V19H291.441V17.6705H291.364C291.262 17.8835 291.092 18.1115 290.853 18.3544C290.614 18.5973 290.297 18.804 289.901 18.9744C289.504 19.1449 289.021 19.2301 288.45 19.2301ZM288.68 17.875C289.276 17.875 289.779 17.7578 290.188 17.5234C290.602 17.2891 290.913 16.9865 291.121 16.6158C291.335 16.245 291.441 15.8551 291.441 15.446V14.0653C291.377 14.142 291.237 14.2124 291.019 14.2763C290.806 14.3359 290.559 14.3892 290.278 14.4361C290.001 14.4787 289.73 14.517 289.466 14.5511C289.206 14.581 288.995 14.6065 288.833 14.6278C288.441 14.679 288.075 14.7621 287.734 14.8771C287.397 14.9879 287.124 15.1562 286.915 15.3821C286.711 15.6037 286.609 15.9062 286.609 16.2898C286.609 16.8139 286.803 17.2102 287.19 17.4787C287.582 17.7429 288.079 17.875 288.68 17.875ZM299.692 19.2045C298.771 19.2045 297.979 18.9872 297.314 18.5526C296.649 18.1179 296.138 17.5192 295.78 16.7564C295.422 15.9936 295.243 15.1222 295.243 14.142C295.243 13.1449 295.426 12.2649 295.792 11.5021C296.163 10.7351 296.679 10.1364 297.339 9.70597C298.004 9.27131 298.78 9.05398 299.666 9.05398C300.356 9.05398 300.979 9.18182 301.532 9.4375C302.086 9.69318 302.54 10.0511 302.894 10.5114C303.248 10.9716 303.467 11.5085 303.552 12.1222H302.044C301.929 11.6747 301.673 11.2784 301.277 10.9332C300.885 10.5838 300.356 10.4091 299.692 10.4091C299.104 10.4091 298.588 10.5625 298.145 10.8693C297.706 11.1719 297.363 11.6001 297.116 12.1541C296.873 12.7038 296.751 13.3494 296.751 14.0909C296.751 14.8494 296.871 15.5099 297.109 16.0724C297.352 16.6349 297.693 17.0717 298.132 17.3828C298.575 17.6939 299.095 17.8494 299.692 17.8494C300.084 17.8494 300.439 17.7812 300.759 17.6449C301.079 17.5085 301.349 17.3125 301.571 17.0568C301.792 16.8011 301.95 16.4943 302.044 16.1364H303.552C303.467 16.7159 303.256 17.2379 302.92 17.7024C302.587 18.1626 302.146 18.5291 301.596 18.8018C301.051 19.0703 300.416 19.2045 299.692 19.2045ZM310.028 9.18182V10.4602H304.939V9.18182H310.028ZM306.422 6.82955H307.931V16.1875C307.931 16.6136 307.993 16.9332 308.116 17.1463C308.244 17.3551 308.406 17.4957 308.602 17.5682C308.802 17.6364 309.013 17.6705 309.235 17.6705C309.401 17.6705 309.537 17.6619 309.644 17.6449C309.751 17.6236 309.836 17.6065 309.9 17.5938L310.206 18.9489C310.104 18.9872 309.961 19.0256 309.778 19.0639C309.595 19.1065 309.363 19.1278 309.081 19.1278C308.655 19.1278 308.238 19.0362 307.829 18.853C307.424 18.6697 307.087 18.3906 306.819 18.0156C306.555 17.6406 306.422 17.1676 306.422 16.5966V6.82955ZM320.248 19.2301C319.626 19.2301 319.062 19.1129 318.555 18.8786C318.047 18.6399 317.645 18.2969 317.346 17.8494C317.048 17.3977 316.899 16.8523 316.899 16.2131C316.899 15.6506 317.01 15.1946 317.231 14.8452C317.453 14.4915 317.749 14.2145 318.12 14.0142C318.491 13.8139 318.9 13.6648 319.347 13.5668C319.799 13.4645 320.253 13.3835 320.709 13.3239C321.305 13.2472 321.789 13.1896 322.16 13.1513C322.535 13.1087 322.807 13.0384 322.978 12.9403C323.153 12.8423 323.24 12.6719 323.24 12.429V12.3778C323.24 11.7472 323.067 11.2571 322.722 10.9077C322.381 10.5582 321.863 10.3835 321.169 10.3835C320.449 10.3835 319.884 10.5412 319.475 10.8565C319.066 11.1719 318.778 11.5085 318.612 11.8665L317.18 11.3551C317.436 10.7585 317.777 10.294 318.203 9.96165C318.633 9.625 319.102 9.39062 319.609 9.25852C320.121 9.12216 320.623 9.05398 321.118 9.05398C321.433 9.05398 321.795 9.09233 322.204 9.16903C322.618 9.24148 323.016 9.39276 323.4 9.62287C323.787 9.85298 324.109 10.2003 324.365 10.6648C324.621 11.1293 324.748 11.7514 324.748 12.5312V19H323.24V17.6705H323.163C323.061 17.8835 322.89 18.1115 322.652 18.3544C322.413 18.5973 322.096 18.804 321.699 18.9744C321.303 19.1449 320.819 19.2301 320.248 19.2301ZM320.479 17.875C321.075 17.875 321.578 17.7578 321.987 17.5234C322.4 17.2891 322.711 16.9865 322.92 16.6158C323.133 16.245 323.24 15.8551 323.24 15.446V14.0653C323.176 14.142 323.035 14.2124 322.818 14.2763C322.605 14.3359 322.358 14.3892 322.077 14.4361C321.8 14.4787 321.529 14.517 321.265 14.5511C321.005 14.581 320.794 14.6065 320.632 14.6278C320.24 14.679 319.873 14.7621 319.532 14.8771C319.196 14.9879 318.923 15.1562 318.714 15.3821C318.51 15.6037 318.407 15.9062 318.407 16.2898C318.407 16.8139 318.601 17.2102 318.989 17.4787C319.381 17.7429 319.878 17.875 320.479 17.875ZM331.209 19.2045C330.391 19.2045 329.669 18.9979 329.042 18.5845C328.416 18.1669 327.926 17.5788 327.572 16.8203C327.218 16.0575 327.042 15.1562 327.042 14.1165C327.042 13.0852 327.218 12.1903 327.572 11.4318C327.926 10.6733 328.418 10.0874 329.049 9.67401C329.679 9.26065 330.408 9.05398 331.235 9.05398C331.874 9.05398 332.379 9.16051 332.75 9.37358C333.125 9.58239 333.41 9.82102 333.606 10.0895C333.806 10.3537 333.962 10.571 334.073 10.7415H334.201V5.90909H335.709V19H334.252V17.4915H334.073C333.962 17.6705 333.804 17.8963 333.6 18.169C333.395 18.4375 333.103 18.6783 332.724 18.8913C332.345 19.1001 331.84 19.2045 331.209 19.2045ZM331.414 17.8494C332.019 17.8494 332.53 17.6918 332.948 17.3764C333.365 17.0568 333.683 16.6158 333.9 16.0533C334.118 15.4865 334.226 14.8324 334.226 14.0909C334.226 13.358 334.12 12.7166 333.907 12.1669C333.694 11.6129 333.378 11.1825 332.961 10.8757C332.543 10.5646 332.027 10.4091 331.414 10.4091C330.775 10.4091 330.242 10.5732 329.816 10.9013C329.394 11.2251 329.076 11.6662 328.863 12.2244C328.654 12.7784 328.55 13.4006 328.55 14.0909C328.55 14.7898 328.657 15.4247 328.87 15.9957C329.087 16.5625 329.407 17.0142 329.828 17.3509C330.255 17.6832 330.783 17.8494 331.414 17.8494ZM342.389 19.2045C341.571 19.2045 340.848 18.9979 340.222 18.5845C339.596 18.1669 339.105 17.5788 338.752 16.8203C338.398 16.0575 338.221 15.1562 338.221 14.1165C338.221 13.0852 338.398 12.1903 338.752 11.4318C339.105 10.6733 339.598 10.0874 340.228 9.67401C340.859 9.26065 341.588 9.05398 342.414 9.05398C343.054 9.05398 343.559 9.16051 343.929 9.37358C344.304 9.58239 344.59 9.82102 344.786 10.0895C344.986 10.3537 345.142 10.571 345.252 10.7415H345.38V5.90909H346.889V19H345.431V17.4915H345.252C345.142 17.6705 344.984 17.8963 344.779 18.169C344.575 18.4375 344.283 18.6783 343.904 18.8913C343.525 19.1001 343.02 19.2045 342.389 19.2045ZM342.593 17.8494C343.199 17.8494 343.71 17.6918 344.127 17.3764C344.545 17.0568 344.863 16.6158 345.08 16.0533C345.297 15.4865 345.406 14.8324 345.406 14.0909C345.406 13.358 345.299 12.7166 345.086 12.1669C344.873 11.6129 344.558 11.1825 344.14 10.8757C343.723 10.5646 343.207 10.4091 342.593 10.4091C341.954 10.4091 341.422 10.5732 340.995 10.9013C340.574 11.2251 340.256 11.6662 340.043 12.2244C339.834 12.7784 339.73 13.4006 339.73 14.0909C339.73 14.7898 339.836 15.4247 340.049 15.9957C340.267 16.5625 340.586 17.0142 341.008 17.3509C341.434 17.6832 341.963 17.8494 342.593 17.8494ZM349.861 19V9.18182H351.319V10.6648H351.421C351.6 10.179 351.924 9.7848 352.392 9.48224C352.861 9.17969 353.39 9.02841 353.978 9.02841C354.088 9.02841 354.227 9.03054 354.393 9.0348C354.559 9.03906 354.685 9.04545 354.77 9.05398V10.5881C354.719 10.5753 354.602 10.5561 354.419 10.5305C354.24 10.5007 354.05 10.4858 353.85 10.4858C353.373 10.4858 352.946 10.5859 352.571 10.7862C352.201 10.9822 351.907 11.255 351.689 11.6044C351.476 11.9496 351.37 12.3437 351.37 12.7869V19H349.861ZM360.376 19.2045C359.43 19.2045 358.614 18.9957 357.928 18.5781C357.246 18.1562 356.72 17.5682 356.349 16.8139C355.983 16.0554 355.799 15.1733 355.799 14.1676C355.799 13.1619 355.983 12.2756 356.349 11.5085C356.72 10.7372 357.235 10.1364 357.896 9.70597C358.561 9.27131 359.336 9.05398 360.223 9.05398C360.734 9.05398 361.239 9.1392 361.738 9.30966C362.236 9.48011 362.69 9.7571 363.099 10.1406C363.508 10.5199 363.834 11.0227 364.077 11.6491C364.32 12.2756 364.441 13.0469 364.441 13.9631V14.6023H356.873V13.2983H362.907C362.907 12.7443 362.797 12.25 362.575 11.8153C362.358 11.3807 362.047 11.0376 361.642 10.7862C361.241 10.5348 360.768 10.4091 360.223 10.4091C359.622 10.4091 359.102 10.5582 358.663 10.8565C358.228 11.1506 357.894 11.5341 357.659 12.0071C357.425 12.4801 357.308 12.9872 357.308 13.5284V14.3977C357.308 15.1392 357.436 15.7678 357.691 16.2834C357.951 16.7947 358.311 17.1847 358.772 17.4531C359.232 17.7173 359.767 17.8494 360.376 17.8494C360.772 17.8494 361.13 17.794 361.45 17.6832C361.774 17.5682 362.053 17.3977 362.287 17.1719C362.522 16.9418 362.703 16.6562 362.831 16.3153L364.288 16.7244C364.135 17.2188 363.877 17.6534 363.515 18.0284C363.152 18.3991 362.705 18.6889 362.172 18.8977C361.64 19.1023 361.041 19.2045 360.376 19.2045ZM373.691 11.3807L372.336 11.7642C372.25 11.5384 372.125 11.3189 371.958 11.1058C371.797 10.8885 371.575 10.7095 371.294 10.5689C371.012 10.4283 370.652 10.358 370.213 10.358C369.613 10.358 369.112 10.4964 368.711 10.7734C368.315 11.0462 368.117 11.3935 368.117 11.8153C368.117 12.1903 368.253 12.4865 368.526 12.7038C368.799 12.9212 369.225 13.1023 369.804 13.2472L371.262 13.6051C372.14 13.8182 372.794 14.1442 373.224 14.5831C373.654 15.0178 373.87 15.5781 373.87 16.2642C373.87 16.8267 373.708 17.3295 373.384 17.7727C373.064 18.2159 372.617 18.5653 372.042 18.821C371.466 19.0767 370.797 19.2045 370.034 19.2045C369.033 19.2045 368.204 18.9872 367.548 18.5526C366.892 18.1179 366.476 17.483 366.301 16.6477L367.733 16.2898C367.87 16.8182 368.127 17.2145 368.507 17.4787C368.89 17.7429 369.391 17.875 370.009 17.875C370.712 17.875 371.27 17.7259 371.684 17.4276C372.101 17.125 372.31 16.7628 372.31 16.3409C372.31 16 372.191 15.7145 371.952 15.4844C371.713 15.25 371.347 15.0753 370.853 14.9602L369.216 14.5767C368.317 14.3636 367.657 14.0334 367.235 13.5859C366.817 13.1342 366.608 12.5696 366.608 11.892C366.608 11.3381 366.764 10.848 367.075 10.4219C367.39 9.99574 367.819 9.66122 368.36 9.41832C368.905 9.17543 369.523 9.05398 370.213 9.05398C371.185 9.05398 371.948 9.26705 372.502 9.69318C373.06 10.1193 373.456 10.6818 373.691 11.3807ZM383.095 11.3807L381.74 11.7642C381.655 11.5384 381.529 11.3189 381.363 11.1058C381.201 10.8885 380.979 10.7095 380.698 10.5689C380.417 10.4283 380.057 10.358 379.618 10.358C379.017 10.358 378.516 10.4964 378.116 10.7734C377.719 11.0462 377.521 11.3935 377.521 11.8153C377.521 12.1903 377.657 12.4865 377.93 12.7038C378.203 12.9212 378.629 13.1023 379.209 13.2472L380.666 13.6051C381.544 13.8182 382.198 14.1442 382.628 14.5831C383.059 15.0178 383.274 15.5781 383.274 16.2642C383.274 16.8267 383.112 17.3295 382.788 17.7727C382.469 18.2159 382.021 18.5653 381.446 18.821C380.871 19.0767 380.202 19.2045 379.439 19.2045C378.437 19.2045 377.608 18.9872 376.952 18.5526C376.296 18.1179 375.881 17.483 375.706 16.6477L377.138 16.2898C377.274 16.8182 377.532 17.2145 377.911 17.4787C378.295 17.7429 378.795 17.875 379.413 17.875C380.116 17.875 380.675 17.7259 381.088 17.4276C381.506 17.125 381.714 16.7628 381.714 16.3409C381.714 16 381.595 15.7145 381.356 15.4844C381.118 15.25 380.751 15.0753 380.257 14.9602L378.621 14.5767C377.721 14.3636 377.061 14.0334 376.639 13.5859C376.221 13.1342 376.013 12.5696 376.013 11.892C376.013 11.3381 376.168 10.848 376.479 10.4219C376.795 9.99574 377.223 9.66122 377.764 9.41832C378.309 9.17543 378.927 9.05398 379.618 9.05398C380.589 9.05398 381.352 9.26705 381.906 9.69318C382.464 10.1193 382.861 10.6818 383.095 11.3807ZM35.6506 34.1818V35.4602H30.5625V34.1818H35.6506ZM32.0455 31.8295H33.554V41.1875C33.554 41.6136 33.6158 41.9332 33.7393 42.1463C33.8672 42.3551 34.0291 42.4957 34.2251 42.5682C34.4254 42.6364 34.6364 42.6705 34.858 42.6705C35.0241 42.6705 35.1605 42.6619 35.267 42.6449C35.3736 42.6236 35.4588 42.6065 35.5227 42.5938L35.8295 43.9489C35.7273 43.9872 35.5845 44.0256 35.4013 44.0639C35.218 44.1065 34.9858 44.1278 34.7045 44.1278C34.2784 44.1278 33.8608 44.0362 33.4517 43.853C33.0469 43.6697 32.7102 43.3906 32.4418 43.0156C32.1776 42.6406 32.0455 42.1676 32.0455 41.5966V31.8295ZM41.8029 44.2045C40.9165 44.2045 40.1388 43.9936 39.4698 43.5717C38.805 43.1499 38.2852 42.5597 37.9102 41.8011C37.5394 41.0426 37.354 40.1562 37.354 39.142C37.354 38.1193 37.5394 37.2266 37.9102 36.4638C38.2852 35.701 38.805 35.1087 39.4698 34.6868C40.1388 34.2649 40.9165 34.054 41.8029 34.054C42.6893 34.054 43.4648 34.2649 44.1296 34.6868C44.7987 35.1087 45.3185 35.701 45.6893 36.4638C46.0643 37.2266 46.2518 38.1193 46.2518 39.142C46.2518 40.1562 46.0643 41.0426 45.6893 41.8011C45.3185 42.5597 44.7987 43.1499 44.1296 43.5717C43.4648 43.9936 42.6893 44.2045 41.8029 44.2045ZM41.8029 42.8494C42.4762 42.8494 43.0302 42.6768 43.4648 42.3317C43.8995 41.9865 44.2212 41.5327 44.43 40.9702C44.6388 40.4077 44.7433 39.7983 44.7433 39.142C44.7433 38.4858 44.6388 37.8743 44.43 37.3075C44.2212 36.7408 43.8995 36.2827 43.4648 35.9332C43.0302 35.5838 42.4762 35.4091 41.8029 35.4091C41.1296 35.4091 40.5756 35.5838 40.141 35.9332C39.7063 36.2827 39.3846 36.7408 39.1758 37.3075C38.967 37.8743 38.8626 38.4858 38.8626 39.142C38.8626 39.7983 38.967 40.4077 39.1758 40.9702C39.3846 41.5327 39.7063 41.9865 40.141 42.3317C40.5756 42.6768 41.1296 42.8494 41.8029 42.8494ZM53.617 44V34.1818H55.0744V35.7159H55.2022C55.4068 35.1918 55.737 34.7848 56.193 34.495C56.649 34.201 57.1966 34.054 57.8358 34.054C58.4835 34.054 59.0226 34.201 59.4529 34.495C59.8876 34.7848 60.2264 35.1918 60.4693 35.7159H60.5716C60.823 35.2088 61.2001 34.8061 61.7029 34.5078C62.2058 34.2053 62.8088 34.054 63.5119 34.054C64.3897 34.054 65.1078 34.3288 65.666 34.8786C66.2243 35.424 66.5034 36.2741 66.5034 37.429V44H64.9949V37.429C64.9949 36.7045 64.7967 36.1868 64.4004 35.8757C64.0041 35.5646 63.5375 35.4091 63.0005 35.4091C62.3102 35.4091 61.7754 35.6179 61.3961 36.0355C61.0169 36.4489 60.8272 36.973 60.8272 37.608V44H59.2931V37.2756C59.2931 36.7173 59.112 36.2678 58.7498 35.9268C58.3876 35.5817 57.921 35.4091 57.35 35.4091C56.9579 35.4091 56.5914 35.5135 56.2505 35.7223C55.9139 35.9311 55.6412 36.2209 55.4324 36.5916C55.2278 36.9581 55.1255 37.3821 55.1255 37.8636V44H53.617ZM72.1507 44.2301C71.5286 44.2301 70.964 44.1129 70.4569 43.8786C69.9498 43.6399 69.5471 43.2969 69.2488 42.8494C68.9505 42.3977 68.8013 41.8523 68.8013 41.2131C68.8013 40.6506 68.9121 40.1946 69.1337 39.8452C69.3553 39.4915 69.6515 39.2145 70.0222 39.0142C70.3929 38.8139 70.802 38.6648 71.2495 38.5668C71.7012 38.4645 72.155 38.3835 72.611 38.3239C73.2076 38.2472 73.6912 38.1896 74.062 38.1513C74.437 38.1087 74.7097 38.0384 74.8801 37.9403C75.0549 37.8423 75.1422 37.6719 75.1422 37.429V37.3778C75.1422 36.7472 74.9696 36.2571 74.6245 35.9077C74.2836 35.5582 73.7658 35.3835 73.0712 35.3835C72.351 35.3835 71.7864 35.5412 71.3773 35.8565C70.9682 36.1719 70.6806 36.5085 70.5144 36.8665L69.0826 36.3551C69.3382 35.7585 69.6792 35.294 70.1053 34.9616C70.5357 34.625 71.0044 34.3906 71.5115 34.2585C72.0229 34.1222 72.5257 34.054 73.0201 34.054C73.3354 34.054 73.6976 34.0923 74.1067 34.169C74.5201 34.2415 74.9185 34.3928 75.302 34.6229C75.6898 34.853 76.0115 35.2003 76.2672 35.6648C76.5229 36.1293 76.6507 36.7514 76.6507 37.5312V44H75.1422V42.6705H75.0655C74.9632 42.8835 74.7928 43.1115 74.5542 43.3544C74.3155 43.5973 73.998 43.804 73.6017 43.9744C73.2054 44.1449 72.7218 44.2301 72.1507 44.2301ZM72.3809 42.875C72.9775 42.875 73.4803 42.7578 73.8894 42.5234C74.3027 42.2891 74.6138 41.9865 74.8226 41.6158C75.0357 41.245 75.1422 40.8551 75.1422 40.446V39.0653C75.0783 39.142 74.9377 39.2124 74.7203 39.2763C74.5073 39.3359 74.2601 39.3892 73.9789 39.4361C73.7019 39.4787 73.4313 39.517 73.1671 39.5511C72.9071 39.581 72.6962 39.6065 72.5343 39.6278C72.1422 39.679 71.7757 39.7621 71.4348 39.8771C71.0982 39.9879 70.8255 40.1562 70.6167 40.3821C70.4121 40.6037 70.3098 40.9062 70.3098 41.2898C70.3098 41.8139 70.5037 42.2102 70.8915 42.4787C71.2836 42.7429 71.78 42.875 72.3809 42.875ZM80.8104 40.4205L80.7848 38.554H81.0916L85.3871 34.1818H87.2536L82.6768 38.8097H82.549L80.8104 40.4205ZM79.4041 44V30.9091H80.9126V44H79.4041ZM85.6428 44L81.8075 39.142L82.8814 38.0938L87.5604 44H85.6428ZM92.9073 44.2045C91.9613 44.2045 91.1452 43.9957 90.4592 43.5781C89.7773 43.1562 89.2511 42.5682 88.8803 41.8139C88.5138 41.0554 88.3306 40.1733 88.3306 39.1676C88.3306 38.1619 88.5138 37.2756 88.8803 36.5085C89.2511 35.7372 89.7667 35.1364 90.4272 34.706C91.092 34.2713 91.8675 34.054 92.7539 34.054C93.2653 34.054 93.7702 34.1392 94.2688 34.3097C94.7674 34.4801 95.2212 34.7571 95.6303 35.1406C96.0394 35.5199 96.3654 36.0227 96.6083 36.6491C96.8512 37.2756 96.9727 38.0469 96.9727 38.9631V39.6023H89.4045V38.2983H95.4386C95.4386 37.7443 95.3278 37.25 95.1062 36.8153C94.8888 36.3807 94.5778 36.0376 94.1729 35.7862C93.7724 35.5348 93.2994 35.4091 92.7539 35.4091C92.1531 35.4091 91.6332 35.5582 91.1942 35.8565C90.7596 36.1506 90.4251 36.5341 90.1907 37.0071C89.9563 37.4801 89.8391 37.9872 89.8391 38.5284V39.3977C89.8391 40.1392 89.967 40.7678 90.2227 41.2834C90.4826 41.7947 90.8427 42.1847 91.3029 42.4531C91.7631 42.7173 92.2979 42.8494 92.9073 42.8494C93.3036 42.8494 93.6616 42.794 93.9812 42.6832C94.305 42.5682 94.5842 42.3977 94.8185 42.1719C95.0529 41.9418 95.234 41.6562 95.3619 41.3153L96.8192 41.7244C96.6658 42.2188 96.408 42.6534 96.0458 43.0284C95.6836 43.3991 95.2362 43.6889 94.7035 43.8977C94.1708 44.1023 93.5721 44.2045 92.9073 44.2045ZM111.284 36.3807L109.929 36.7642C109.844 36.5384 109.718 36.3189 109.552 36.1058C109.39 35.8885 109.169 35.7095 108.887 35.5689C108.606 35.4283 108.246 35.358 107.807 35.358C107.206 35.358 106.706 35.4964 106.305 35.7734C105.909 36.0462 105.711 36.3935 105.711 36.8153C105.711 37.1903 105.847 37.4865 106.12 37.7038C106.392 37.9212 106.819 38.1023 107.398 38.2472L108.855 38.6051C109.733 38.8182 110.387 39.1442 110.818 39.5831C111.248 40.0178 111.463 40.5781 111.463 41.2642C111.463 41.8267 111.301 42.3295 110.978 42.7727C110.658 43.2159 110.211 43.5653 109.635 43.821C109.06 44.0767 108.391 44.2045 107.628 44.2045C106.627 44.2045 105.798 43.9872 105.142 43.5526C104.485 43.1179 104.07 42.483 103.895 41.6477L105.327 41.2898C105.463 41.8182 105.721 42.2145 106.1 42.4787C106.484 42.7429 106.985 42.875 107.603 42.875C108.306 42.875 108.864 42.7259 109.277 42.4276C109.695 42.125 109.904 41.7628 109.904 41.3409C109.904 41 109.784 40.7145 109.546 40.4844C109.307 40.25 108.941 40.0753 108.446 39.9602L106.81 39.5767C105.911 39.3636 105.25 39.0334 104.828 38.5859C104.411 38.1342 104.202 37.5696 104.202 36.892C104.202 36.3381 104.358 35.848 104.669 35.4219C104.984 34.9957 105.412 34.6612 105.953 34.4183C106.499 34.1754 107.117 34.054 107.807 34.054C108.779 34.054 109.542 34.267 110.096 34.6932C110.654 35.1193 111.05 35.6818 111.284 36.3807ZM119.922 39.9858V34.1818H121.43V44H119.922V42.3381H119.819C119.589 42.8366 119.231 43.2607 118.746 43.6101C118.26 43.9553 117.646 44.1278 116.905 44.1278C116.291 44.1278 115.746 43.9936 115.268 43.7251C114.791 43.4524 114.416 43.0433 114.143 42.4979C113.871 41.9482 113.734 41.2557 113.734 40.4205V34.1818H115.243V40.3182C115.243 41.0341 115.443 41.6051 115.844 42.0312C116.248 42.4574 116.764 42.6705 117.39 42.6705C117.765 42.6705 118.147 42.5746 118.535 42.3828C118.927 42.1911 119.255 41.897 119.519 41.5007C119.787 41.1044 119.922 40.5994 119.922 39.9858ZM124.193 44V34.1818H125.651V35.6648H125.753C125.932 35.179 126.256 34.7848 126.724 34.4822C127.193 34.1797 127.722 34.0284 128.31 34.0284C128.42 34.0284 128.559 34.0305 128.725 34.0348C128.891 34.0391 129.017 34.0455 129.102 34.054V35.5881C129.051 35.5753 128.934 35.5561 128.751 35.5305C128.572 35.5007 128.382 35.4858 128.182 35.4858C127.705 35.4858 127.278 35.5859 126.903 35.7862C126.533 35.9822 126.239 36.255 126.021 36.6044C125.808 36.9496 125.702 37.3437 125.702 37.7869V44H124.193ZM134.708 44.2045C133.762 44.2045 132.946 43.9957 132.26 43.5781C131.578 43.1562 131.052 42.5682 130.681 41.8139C130.315 41.0554 130.131 40.1733 130.131 39.1676C130.131 38.1619 130.315 37.2756 130.681 36.5085C131.052 35.7372 131.567 35.1364 132.228 34.706C132.893 34.2713 133.668 34.054 134.555 34.054C135.066 34.054 135.571 34.1392 136.07 34.3097C136.568 34.4801 137.022 34.7571 137.431 35.1406C137.84 35.5199 138.166 36.0227 138.409 36.6491C138.652 37.2756 138.773 38.0469 138.773 38.9631V39.6023H131.205V38.2983H137.239C137.239 37.7443 137.129 37.25 136.907 36.8153C136.69 36.3807 136.379 36.0376 135.974 35.7862C135.573 35.5348 135.1 35.4091 134.555 35.4091C133.954 35.4091 133.434 35.5582 132.995 35.8565C132.56 36.1506 132.226 36.5341 131.991 37.0071C131.757 37.4801 131.64 37.9872 131.64 38.5284V39.3977C131.64 40.1392 131.768 40.7678 132.023 41.2834C132.283 41.7947 132.643 42.1847 133.104 42.4531C133.564 42.7173 134.099 42.8494 134.708 42.8494C135.104 42.8494 135.462 42.794 135.782 42.6832C136.106 42.5682 136.385 42.3977 136.619 42.1719C136.854 41.9418 137.035 41.6562 137.163 41.3153L138.62 41.7244C138.467 42.2188 138.209 42.6534 137.847 43.0284C137.484 43.3991 137.037 43.6889 136.504 43.8977C135.972 44.1023 135.373 44.2045 134.708 44.2045ZM146.131 44V34.1818H147.639V44H146.131ZM146.898 32.5455C146.604 32.5455 146.35 32.4453 146.137 32.245C145.928 32.0447 145.824 31.804 145.824 31.5227C145.824 31.2415 145.928 31.0007 146.137 30.8004C146.35 30.6001 146.604 30.5 146.898 30.5C147.192 30.5 147.443 30.6001 147.652 30.8004C147.865 31.0007 147.972 31.2415 147.972 31.5227C147.972 31.804 147.865 32.0447 147.652 32.245C147.443 32.4453 147.192 32.5455 146.898 32.5455ZM154.672 34.1818V35.4602H149.584V34.1818H154.672ZM151.067 31.8295H152.575V41.1875C152.575 41.6136 152.637 41.9332 152.761 42.1463C152.889 42.3551 153.051 42.4957 153.247 42.5682C153.447 42.6364 153.658 42.6705 153.879 42.6705C154.046 42.6705 154.182 42.6619 154.289 42.6449C154.395 42.6236 154.48 42.6065 154.544 42.5938L154.851 43.9489C154.749 43.9872 154.606 44.0256 154.423 44.0639C154.24 44.1065 154.007 44.1278 153.726 44.1278C153.3 44.1278 152.882 44.0362 152.473 43.853C152.068 43.6697 151.732 43.3906 151.463 43.0156C151.199 42.6406 151.067 42.1676 151.067 41.5966V31.8295ZM162.004 44V34.1818H163.512V44H162.004ZM162.771 32.5455C162.477 32.5455 162.223 32.4453 162.01 32.245C161.801 32.0447 161.697 31.804 161.697 31.5227C161.697 31.2415 161.801 31.0007 162.01 30.8004C162.223 30.6001 162.477 30.5 162.771 30.5C163.065 30.5 163.316 30.6001 163.525 30.8004C163.738 31.0007 163.845 31.2415 163.845 31.5227C163.845 31.804 163.738 32.0447 163.525 32.245C163.316 32.4453 163.065 32.5455 162.771 32.5455ZM173.23 36.3807L171.875 36.7642C171.789 36.5384 171.664 36.3189 171.498 36.1058C171.336 35.8885 171.114 35.7095 170.833 35.5689C170.551 35.4283 170.191 35.358 169.752 35.358C169.152 35.358 168.651 35.4964 168.25 35.7734C167.854 36.0462 167.656 36.3935 167.656 36.8153C167.656 37.1903 167.792 37.4865 168.065 37.7038C168.338 37.9212 168.764 38.1023 169.343 38.2472L170.801 38.6051C171.679 38.8182 172.333 39.1442 172.763 39.5831C173.194 40.0178 173.409 40.5781 173.409 41.2642C173.409 41.8267 173.247 42.3295 172.923 42.7727C172.603 43.2159 172.156 43.5653 171.581 43.821C171.005 44.0767 170.336 44.2045 169.574 44.2045C168.572 44.2045 167.743 43.9872 167.087 43.5526C166.431 43.1179 166.015 42.483 165.841 41.6477L167.272 41.2898C167.409 41.8182 167.667 42.2145 168.046 42.4787C168.429 42.7429 168.93 42.875 169.548 42.875C170.251 42.875 170.809 42.7259 171.223 42.4276C171.64 42.125 171.849 41.7628 171.849 41.3409C171.849 41 171.73 40.7145 171.491 40.4844C171.252 40.25 170.886 40.0753 170.392 39.9602L168.755 39.5767C167.856 39.3636 167.196 39.0334 166.774 38.5859C166.356 38.1342 166.147 37.5696 166.147 36.892C166.147 36.3381 166.303 35.848 166.614 35.4219C166.929 34.9957 167.358 34.6612 167.899 34.4183C168.444 34.1754 169.062 34.054 169.752 34.054C170.724 34.054 171.487 34.267 172.041 34.6932C172.599 35.1193 172.995 35.6818 173.23 36.3807ZM182.251 38.0938V44H180.742V34.1818H182.199V35.7159H182.327C182.557 35.2173 182.907 34.8168 183.376 34.5142C183.844 34.2074 184.449 34.054 185.191 34.054C185.856 34.054 186.437 34.1903 186.936 34.4631C187.434 34.7315 187.822 35.1406 188.099 35.6903C188.376 36.2358 188.515 36.9261 188.515 37.7614V44H187.006V37.8636C187.006 37.0923 186.806 36.4915 186.405 36.0611C186.005 35.6264 185.455 35.4091 184.756 35.4091C184.275 35.4091 183.844 35.5135 183.465 35.7223C183.09 35.9311 182.794 36.2358 182.577 36.6364C182.359 37.0369 182.251 37.5227 182.251 38.0938ZM195.26 44.2045C194.374 44.2045 193.596 43.9936 192.927 43.5717C192.262 43.1499 191.742 42.5597 191.367 41.8011C190.996 41.0426 190.811 40.1562 190.811 39.142C190.811 38.1193 190.996 37.2266 191.367 36.4638C191.742 35.701 192.262 35.1087 192.927 34.6868C193.596 34.2649 194.374 34.054 195.26 34.054C196.146 34.054 196.922 34.2649 197.587 34.6868C198.256 35.1087 198.776 35.701 199.146 36.4638C199.521 37.2266 199.709 38.1193 199.709 39.142C199.709 40.1562 199.521 41.0426 199.146 41.8011C198.776 42.5597 198.256 43.1499 197.587 43.5717C196.922 43.9936 196.146 44.2045 195.26 44.2045ZM195.26 42.8494C195.933 42.8494 196.487 42.6768 196.922 42.3317C197.357 41.9865 197.678 41.5327 197.887 40.9702C198.096 40.4077 198.2 39.7983 198.2 39.142C198.2 38.4858 198.096 37.8743 197.887 37.3075C197.678 36.7408 197.357 36.2827 196.922 35.9332C196.487 35.5838 195.933 35.4091 195.26 35.4091C194.587 35.4091 194.033 35.5838 193.598 35.9332C193.163 36.2827 192.842 36.7408 192.633 37.3075C192.424 37.8743 192.32 38.4858 192.32 39.142C192.32 39.7983 192.424 40.4077 192.633 40.9702C192.842 41.5327 193.163 41.9865 193.598 42.3317C194.033 42.6768 194.587 42.8494 195.26 42.8494ZM206.281 34.1818V35.4602H201.193V34.1818H206.281ZM202.676 31.8295H204.185V41.1875C204.185 41.6136 204.247 41.9332 204.37 42.1463C204.498 42.3551 204.66 42.4957 204.856 42.5682C205.056 42.6364 205.267 42.6705 205.489 42.6705C205.655 42.6705 205.791 42.6619 205.898 42.6449C206.004 42.6236 206.09 42.6065 206.154 42.5938L206.46 43.9489C206.358 43.9872 206.215 44.0256 206.032 44.0639C205.849 44.1065 205.617 44.1278 205.335 44.1278C204.909 44.1278 204.492 44.0362 204.083 43.853C203.678 43.6697 203.341 43.3906 203.073 43.0156C202.808 42.6406 202.676 42.1676 202.676 41.5966V31.8295ZM217.985 34.1818V35.4602H212.693V34.1818H217.985ZM214.278 44V32.8267C214.278 32.2642 214.41 31.7955 214.674 31.4205C214.938 31.0455 215.281 30.7642 215.703 30.5767C216.125 30.3892 216.57 30.2955 217.039 30.2955C217.41 30.2955 217.713 30.3253 217.947 30.3849C218.181 30.4446 218.356 30.5 218.471 30.5511L218.036 31.8551C217.96 31.8295 217.853 31.7976 217.717 31.7592C217.585 31.7209 217.41 31.7017 217.193 31.7017C216.694 31.7017 216.334 31.8274 216.112 32.0788C215.895 32.3303 215.786 32.6989 215.786 33.1847V44H214.278ZM222.707 44.2301C222.085 44.2301 221.521 44.1129 221.013 43.8786C220.506 43.6399 220.104 43.2969 219.805 42.8494C219.507 42.3977 219.358 41.8523 219.358 41.2131C219.358 40.6506 219.469 40.1946 219.69 39.8452C219.912 39.4915 220.208 39.2145 220.579 39.0142C220.95 38.8139 221.359 38.6648 221.806 38.5668C222.258 38.4645 222.712 38.3835 223.168 38.3239C223.764 38.2472 224.248 38.1896 224.619 38.1513C224.994 38.1087 225.266 38.0384 225.437 37.9403C225.612 37.8423 225.699 37.6719 225.699 37.429V37.3778C225.699 36.7472 225.526 36.2571 225.181 35.9077C224.84 35.5582 224.322 35.3835 223.628 35.3835C222.908 35.3835 222.343 35.5412 221.934 35.8565C221.525 36.1719 221.237 36.5085 221.071 36.8665L219.639 36.3551C219.895 35.7585 220.236 35.294 220.662 34.9616C221.092 34.625 221.561 34.3906 222.068 34.2585C222.58 34.1222 223.082 34.054 223.577 34.054C223.892 34.054 224.254 34.0923 224.663 34.169C225.077 34.2415 225.475 34.3928 225.859 34.6229C226.246 34.853 226.568 35.2003 226.824 35.6648C227.08 36.1293 227.207 36.7514 227.207 37.5312V44H225.699V42.6705H225.622C225.52 42.8835 225.349 43.1115 225.111 43.3544C224.872 43.5973 224.555 43.804 224.158 43.9744C223.762 44.1449 223.278 44.2301 222.707 44.2301ZM222.938 42.875C223.534 42.875 224.037 42.7578 224.446 42.5234C224.859 42.2891 225.17 41.9865 225.379 41.6158C225.592 41.245 225.699 40.8551 225.699 40.446V39.0653C225.635 39.142 225.494 39.2124 225.277 39.2763C225.064 39.3359 224.817 39.3892 224.536 39.4361C224.259 39.4787 223.988 39.517 223.724 39.5511C223.464 39.581 223.253 39.6065 223.091 39.6278C222.699 39.679 222.332 39.7621 221.991 39.8771C221.655 39.9879 221.382 40.1562 221.173 40.3821C220.969 40.6037 220.866 40.9062 220.866 41.2898C220.866 41.8139 221.06 42.2102 221.448 42.4787C221.84 42.7429 222.337 42.875 222.938 42.875ZM231.367 40.4205L231.341 38.554H231.648L235.944 34.1818H237.81L233.233 38.8097H233.106L231.367 40.4205ZM229.961 44V30.9091H231.469V44H229.961ZM236.199 44L232.364 39.142L233.438 38.0938L238.117 44H236.199ZM243.464 44.2045C242.518 44.2045 241.702 43.9957 241.016 43.5781C240.334 43.1562 239.808 42.5682 239.437 41.8139C239.07 41.0554 238.887 40.1733 238.887 39.1676C238.887 38.1619 239.07 37.2756 239.437 36.5085C239.808 35.7372 240.323 35.1364 240.984 34.706C241.649 34.2713 242.424 34.054 243.311 34.054C243.822 34.054 244.327 34.1392 244.825 34.3097C245.324 34.4801 245.778 34.7571 246.187 35.1406C246.596 35.5199 246.922 36.0227 247.165 36.6491C247.408 37.2756 247.529 38.0469 247.529 38.9631V39.6023H239.961V38.2983H245.995C245.995 37.7443 245.884 37.25 245.663 36.8153C245.445 36.3807 245.134 36.0376 244.73 35.7862C244.329 35.5348 243.856 35.4091 243.311 35.4091C242.71 35.4091 242.19 35.5582 241.751 35.8565C241.316 36.1506 240.982 36.5341 240.747 37.0071C240.513 37.4801 240.396 37.9872 240.396 38.5284V39.3977C240.396 40.1392 240.524 40.7678 240.779 41.2834C241.039 41.7947 241.399 42.1847 241.86 42.4531C242.32 42.7173 242.855 42.8494 243.464 42.8494C243.86 42.8494 244.218 42.794 244.538 42.6832C244.862 42.5682 245.141 42.3977 245.375 42.1719C245.61 41.9418 245.791 41.6562 245.919 41.3153L247.376 41.7244C247.222 42.2188 246.965 42.6534 246.602 43.0284C246.24 43.3991 245.793 43.6889 245.26 43.8977C244.727 44.1023 244.129 44.2045 243.464 44.2045ZM259.156 34.1818V35.4602H254.068V34.1818H259.156ZM255.551 31.8295H257.06V41.1875C257.06 41.6136 257.122 41.9332 257.245 42.1463C257.373 42.3551 257.535 42.4957 257.731 42.5682C257.931 42.6364 258.142 42.6705 258.364 42.6705C258.53 42.6705 258.666 42.6619 258.773 42.6449C258.879 42.6236 258.965 42.6065 259.029 42.5938L259.335 43.9489C259.233 43.9872 259.09 44.0256 258.907 44.0639C258.724 44.1065 258.492 44.1278 258.21 44.1278C257.784 44.1278 257.367 44.0362 256.958 43.853C256.553 43.6697 256.216 43.3906 255.948 43.0156C255.683 42.6406 255.551 42.1676 255.551 41.5966V31.8295ZM265.309 44.2045C264.422 44.2045 263.645 43.9936 262.976 43.5717C262.311 43.1499 261.791 42.5597 261.416 41.8011C261.045 41.0426 260.86 40.1562 260.86 39.142C260.86 38.1193 261.045 37.2266 261.416 36.4638C261.791 35.701 262.311 35.1087 262.976 34.6868C263.645 34.2649 264.422 34.054 265.309 34.054C266.195 34.054 266.971 34.2649 267.635 34.6868C268.305 35.1087 268.824 35.701 269.195 36.4638C269.57 37.2266 269.758 38.1193 269.758 39.142C269.758 40.1562 269.57 41.0426 269.195 41.8011C268.824 42.5597 268.305 43.1499 267.635 43.5717C266.971 43.9936 266.195 44.2045 265.309 44.2045ZM265.309 42.8494C265.982 42.8494 266.536 42.6768 266.971 42.3317C267.405 41.9865 267.727 41.5327 267.936 40.9702C268.145 40.4077 268.249 39.7983 268.249 39.142C268.249 38.4858 268.145 37.8743 267.936 37.3075C267.727 36.7408 267.405 36.2827 266.971 35.9332C266.536 35.5838 265.982 35.4091 265.309 35.4091C264.635 35.4091 264.081 35.5838 263.647 35.9332C263.212 36.2827 262.89 36.7408 262.682 37.3075C262.473 37.8743 262.368 38.4858 262.368 39.142C262.368 39.7983 262.473 40.4077 262.682 40.9702C262.89 41.5327 263.212 41.9865 263.647 42.3317C264.081 42.6768 264.635 42.8494 265.309 42.8494ZM273.467 40.4205L273.441 38.554H273.748L278.043 34.1818H279.91L275.333 38.8097H275.205L273.467 40.4205ZM272.06 44V30.9091H273.569V44H272.06ZM278.299 44L274.464 39.142L275.538 38.0938L280.217 44H278.299ZM285.564 44.2045C284.618 44.2045 283.801 43.9957 283.115 43.5781C282.434 43.1562 281.907 42.5682 281.537 41.8139C281.17 41.0554 280.987 40.1733 280.987 39.1676C280.987 38.1619 281.17 37.2756 281.537 36.5085C281.907 35.7372 282.423 35.1364 283.083 34.706C283.748 34.2713 284.524 34.054 285.41 34.054C285.922 34.054 286.426 34.1392 286.925 34.3097C287.424 34.4801 287.877 34.7571 288.287 35.1406C288.696 35.5199 289.022 36.0227 289.265 36.6491C289.507 37.2756 289.629 38.0469 289.629 38.9631V39.6023H282.061V38.2983H288.095C288.095 37.7443 287.984 37.25 287.762 36.8153C287.545 36.3807 287.234 36.0376 286.829 35.7862C286.429 35.5348 285.956 35.4091 285.41 35.4091C284.809 35.4091 284.289 35.5582 283.85 35.8565C283.416 36.1506 283.081 36.5341 282.847 37.0071C282.613 37.4801 282.495 37.9872 282.495 38.5284V39.3977C282.495 40.1392 282.623 40.7678 282.879 41.2834C283.139 41.7947 283.499 42.1847 283.959 42.4531C284.419 42.7173 284.954 42.8494 285.564 42.8494C285.96 42.8494 286.318 42.794 286.637 42.6832C286.961 42.5682 287.24 42.3977 287.475 42.1719C287.709 41.9418 287.89 41.6562 288.018 41.3153L289.475 41.7244C289.322 42.2188 289.064 42.6534 288.702 43.0284C288.34 43.3991 287.892 43.6889 287.36 43.8977C286.827 44.1023 286.228 44.2045 285.564 44.2045ZM293.432 38.0938V44H291.924V34.1818H293.381V35.7159H293.509C293.739 35.2173 294.088 34.8168 294.557 34.5142C295.026 34.2074 295.631 34.054 296.373 34.054C297.037 34.054 297.619 34.1903 298.118 34.4631C298.616 34.7315 299.004 35.1406 299.281 35.6903C299.558 36.2358 299.696 36.9261 299.696 37.7614V44H298.188V37.8636C298.188 37.0923 297.988 36.4915 297.587 36.0611C297.186 35.6264 296.637 35.4091 295.938 35.4091C295.456 35.4091 295.026 35.5135 294.647 35.7223C294.272 35.9311 293.975 36.2358 293.758 36.6364C293.541 37.0369 293.432 37.5227 293.432 38.0938Z" fill="#20201E"/>
</svg>
