<svg width="574" height="25" viewBox="0 0 574 25" fill="none" xmlns="http://www.w3.org/2000/svg">
<rect x="0.5" y="3" width="19" height="19" rx="5.5" fill="#76BA1E"/>
<rect x="0.5" y="3" width="19" height="19" rx="5.5" stroke="#8F9288"/>
<path d="M5.84375 13.2181L8.77177 16L14.1563 9" stroke="white" stroke-width="2" stroke-linecap="round"/>
<path d="M33.1705 5.90909V19H31.5852V5.90909H33.1705ZM41.2069 19V9.18182H42.6642V10.6648H42.7665C42.9455 10.179 43.2694 9.7848 43.7381 9.48224C44.2069 9.17969 44.7353 9.02841 45.3233 9.02841C45.4341 9.02841 45.5726 9.03054 45.7388 9.0348C45.905 9.03906 46.0307 9.04545 46.1159 9.05398V10.5881C46.0648 10.5753 45.9476 10.5561 45.7644 10.5305C45.5854 10.5007 45.3958 10.4858 45.1955 10.4858C44.7182 10.4858 44.2921 10.5859 43.9171 10.7862C43.5463 10.9822 43.2523 11.255 43.035 11.6044C42.8219 11.9496 42.7154 12.3437 42.7154 12.7869V19H41.2069ZM51.7218 19.2045C50.7757 19.2045 49.9597 18.9957 49.2736 18.5781C48.5918 18.1562 48.0655 17.5682 47.6948 16.8139C47.3283 16.0554 47.1451 15.1733 47.1451 14.1676C47.1451 13.1619 47.3283 12.2756 47.6948 11.5085C48.0655 10.7372 48.5811 10.1364 49.2417 9.70597C49.9064 9.27131 50.682 9.05398 51.5684 9.05398C52.0797 9.05398 52.5847 9.1392 53.0833 9.30966C53.5819 9.48011 54.0357 9.7571 54.4448 10.1406C54.8539 10.5199 55.1799 11.0227 55.4228 11.6491C55.6657 12.2756 55.7871 13.0469 55.7871 13.9631V14.6023H48.2189V13.2983H54.253C54.253 12.7443 54.1422 12.25 53.9206 11.8153C53.7033 11.3807 53.3922 11.0376 52.9874 10.7862C52.5868 10.5348 52.1138 10.4091 51.5684 10.4091C50.9675 10.4091 50.4476 10.5582 50.0087 10.8565C49.574 11.1506 49.2395 11.5341 49.0051 12.0071C48.7708 12.4801 48.6536 12.9872 48.6536 13.5284V14.3977C48.6536 15.1392 48.7814 15.7678 49.0371 16.2834C49.2971 16.7947 49.6571 17.1847 50.1174 17.4531C50.5776 17.7173 51.1124 17.8494 51.7218 17.8494C52.1181 17.8494 52.476 17.794 52.7956 17.6832C53.1195 17.5682 53.3986 17.3977 53.633 17.1719C53.8674 16.9418 54.0485 16.6562 54.1763 16.3153L55.6337 16.7244C55.4803 17.2188 55.2225 17.6534 54.8603 18.0284C54.498 18.3991 54.0506 18.6889 53.5179 18.8977C52.9853 19.1023 52.3865 19.2045 51.7218 19.2045ZM65.0364 11.3807L63.6813 11.7642C63.5961 11.5384 63.4703 11.3189 63.3042 11.1058C63.1422 10.8885 62.9206 10.7095 62.6394 10.5689C62.3581 10.4283 61.998 10.358 61.5591 10.358C60.9583 10.358 60.4576 10.4964 60.057 10.7734C59.6607 11.0462 59.4625 11.3935 59.4625 11.8153C59.4625 12.1903 59.5989 12.4865 59.8716 12.7038C60.1444 12.9212 60.5705 13.1023 61.15 13.2472L62.6074 13.6051C63.4853 13.8182 64.1394 14.1442 64.5698 14.5831C65.0002 15.0178 65.2154 15.5781 65.2154 16.2642C65.2154 16.8267 65.0534 17.3295 64.7296 17.7727C64.41 18.2159 63.9625 18.5653 63.3873 18.821C62.812 19.0767 62.1429 19.2045 61.3801 19.2045C60.3787 19.2045 59.5499 18.9872 58.8936 18.5526C58.2374 18.1179 57.8219 17.483 57.6472 16.6477L59.079 16.2898C59.2154 16.8182 59.4732 17.2145 59.8525 17.4787C60.236 17.7429 60.7367 17.875 61.3546 17.875C62.0577 17.875 62.6159 17.7259 63.0293 17.4276C63.4469 17.125 63.6557 16.7628 63.6557 16.3409C63.6557 16 63.5364 15.7145 63.2978 15.4844C63.0591 15.25 62.6926 15.0753 62.1983 14.9602L60.562 14.5767C59.6628 14.3636 59.0023 14.0334 58.5804 13.5859C58.1628 13.1342 57.954 12.5696 57.954 11.892C57.954 11.3381 58.1096 10.848 58.4206 10.4219C58.736 9.99574 59.1642 9.66122 59.7054 9.41832C60.2509 9.17543 60.8688 9.05398 61.5591 9.05398C62.5307 9.05398 63.2935 9.26705 63.8475 9.69318C64.4057 10.1193 64.802 10.6818 65.0364 11.3807ZM71.6026 19.2045C70.6566 19.2045 69.8406 18.9957 69.1545 18.5781C68.4727 18.1562 67.9464 17.5682 67.5756 16.8139C67.2092 16.0554 67.0259 15.1733 67.0259 14.1676C67.0259 13.1619 67.2092 12.2756 67.5756 11.5085C67.9464 10.7372 68.462 10.1364 69.1225 9.70597C69.7873 9.27131 70.5629 9.05398 71.4492 9.05398C71.9606 9.05398 72.4656 9.1392 72.9641 9.30966C73.4627 9.48011 73.9165 9.7571 74.3256 10.1406C74.7347 10.5199 75.0607 11.0227 75.3036 11.6491C75.5465 12.2756 75.668 13.0469 75.668 13.9631V14.6023H68.0998V13.2983H74.1339C74.1339 12.7443 74.0231 12.25 73.8015 11.8153C73.5842 11.3807 73.2731 11.0376 72.8683 10.7862C72.4677 10.5348 71.9947 10.4091 71.4492 10.4091C70.8484 10.4091 70.3285 10.5582 69.8896 10.8565C69.4549 11.1506 69.1204 11.5341 68.886 12.0071C68.6516 12.4801 68.5344 12.9872 68.5344 13.5284V14.3977C68.5344 15.1392 68.6623 15.7678 68.918 16.2834C69.1779 16.7947 69.538 17.1847 69.9982 17.4531C70.4585 17.7173 70.9933 17.8494 71.6026 17.8494C71.9989 17.8494 72.3569 17.794 72.6765 17.6832C73.0004 17.5682 73.2795 17.3977 73.5138 17.1719C73.7482 16.9418 73.9293 16.6562 74.0572 16.3153L75.5146 16.7244C75.3612 17.2188 75.1033 17.6534 74.7411 18.0284C74.3789 18.3991 73.9315 18.6889 73.3988 18.8977C72.8661 19.1023 72.2674 19.2045 71.6026 19.2045ZM80.8519 19.2301C80.2298 19.2301 79.6651 19.1129 79.158 18.8786C78.6509 18.6399 78.2482 18.2969 77.9499 17.8494C77.6516 17.3977 77.5025 16.8523 77.5025 16.2131C77.5025 15.6506 77.6133 15.1946 77.8349 14.8452C78.0565 14.4915 78.3526 14.2145 78.7234 14.0142C79.0941 13.8139 79.5032 13.6648 79.9506 13.5668C80.4023 13.4645 80.8562 13.3835 81.3121 13.3239C81.9087 13.2472 82.3924 13.1896 82.7631 13.1513C83.1381 13.1087 83.4109 13.0384 83.5813 12.9403C83.756 12.8423 83.8434 12.6719 83.8434 12.429V12.3778C83.8434 11.7472 83.6708 11.2571 83.3256 10.9077C82.9847 10.5582 82.467 10.3835 81.7724 10.3835C81.0522 10.3835 80.4876 10.5412 80.0785 10.8565C79.6694 11.1719 79.3817 11.5085 79.2156 11.8665L77.7837 11.3551C78.0394 10.7585 78.3803 10.294 78.8065 9.96165C79.2369 9.625 79.7056 9.39062 80.2127 9.25852C80.7241 9.12216 81.2269 9.05398 81.7212 9.05398C82.0366 9.05398 82.3988 9.09233 82.8079 9.16903C83.2212 9.24148 83.6197 9.39276 84.0032 9.62287C84.391 9.85298 84.7127 10.2003 84.9684 10.6648C85.2241 11.1293 85.3519 11.7514 85.3519 12.5312V19H83.8434V17.6705H83.7667C83.6644 17.8835 83.494 18.1115 83.2553 18.3544C83.0167 18.5973 82.6992 18.804 82.3029 18.9744C81.9066 19.1449 81.4229 19.2301 80.8519 19.2301ZM81.082 17.875C81.6786 17.875 82.1815 17.7578 82.5906 17.5234C83.0039 17.2891 83.315 16.9865 83.5238 16.6158C83.7369 16.245 83.8434 15.8551 83.8434 15.446V14.0653C83.7795 14.142 83.6388 14.2124 83.4215 14.2763C83.2085 14.3359 82.9613 14.3892 82.68 14.4361C82.4031 14.4787 82.1325 14.517 81.8683 14.5511C81.6083 14.581 81.3974 14.6065 81.2354 14.6278C80.8434 14.679 80.4769 14.7621 80.136 14.8771C79.7994 14.9879 79.5266 15.1562 79.3178 15.3821C79.1133 15.6037 79.011 15.9062 79.011 16.2898C79.011 16.8139 79.2049 17.2102 79.5927 17.4787C79.9847 17.7429 80.4812 17.875 81.082 17.875ZM88.1053 19V9.18182H89.5627V10.6648H89.665C89.8439 10.179 90.1678 9.7848 90.6365 9.48224C91.1053 9.17969 91.6337 9.02841 92.2218 9.02841C92.3326 9.02841 92.4711 9.03054 92.6373 9.0348C92.8034 9.03906 92.9292 9.04545 93.0144 9.05398V10.5881C92.9632 10.5753 92.8461 10.5561 92.6628 10.5305C92.4838 10.5007 92.2942 10.4858 92.0939 10.4858C91.6167 10.4858 91.1905 10.5859 90.8155 10.7862C90.4448 10.9822 90.1507 11.255 89.9334 11.6044C89.7203 11.9496 89.6138 12.3437 89.6138 12.7869V19H88.1053ZM98.4924 19.2045C97.5719 19.2045 96.7793 18.9872 96.1145 18.5526C95.4498 18.1179 94.9384 17.5192 94.5804 16.7564C94.2225 15.9936 94.0435 15.1222 94.0435 14.142C94.0435 13.1449 94.2267 12.2649 94.5932 11.5021C94.964 10.7351 95.4796 10.1364 96.1401 9.70597C96.8049 9.27131 97.5804 9.05398 98.4668 9.05398C99.1571 9.05398 99.7793 9.18182 100.333 9.4375C100.887 9.69318 101.341 10.0511 101.695 10.5114C102.048 10.9716 102.268 11.5085 102.353 12.1222H100.845C100.73 11.6747 100.474 11.2784 100.078 10.9332C99.6855 10.5838 99.1571 10.4091 98.4924 10.4091C97.9043 10.4091 97.3887 10.5625 96.9455 10.8693C96.5066 11.1719 96.1635 11.6001 95.9164 12.1541C95.6735 12.7038 95.552 13.3494 95.552 14.0909C95.552 14.8494 95.6713 15.5099 95.91 16.0724C96.1529 16.6349 96.4938 17.0717 96.9327 17.3828C97.3759 17.6939 97.8958 17.8494 98.4924 17.8494C98.8844 17.8494 99.2402 17.7812 99.5598 17.6449C99.8794 17.5085 100.15 17.3125 100.372 17.0568C100.593 16.8011 100.751 16.4943 100.845 16.1364H102.353C102.268 16.7159 102.057 17.2379 101.72 17.7024C101.388 18.1626 100.947 18.5291 100.397 18.8018C99.8517 19.0703 99.2168 19.2045 98.4924 19.2045ZM106.067 13.0938V19H104.558V5.90909H106.067V10.7159H106.195C106.425 10.2088 106.77 9.80611 107.23 9.50781C107.695 9.20526 108.313 9.05398 109.084 9.05398C109.753 9.05398 110.339 9.18821 110.842 9.45668C111.345 9.72088 111.735 10.1278 112.012 10.6776C112.293 11.223 112.433 11.9176 112.433 12.7614V19H110.925V12.8636C110.925 12.0838 110.722 11.4808 110.318 11.0547C109.917 10.6243 109.361 10.4091 108.649 10.4091C108.155 10.4091 107.712 10.5135 107.32 10.7223C106.932 10.9311 106.625 11.2358 106.399 11.6364C106.178 12.0369 106.067 12.5227 106.067 13.0938ZM119.31 19.2045C118.364 19.2045 117.548 18.9957 116.862 18.5781C116.18 18.1562 115.653 17.5682 115.283 16.8139C114.916 16.0554 114.733 15.1733 114.733 14.1676C114.733 13.1619 114.916 12.2756 115.283 11.5085C115.653 10.7372 116.169 10.1364 116.83 9.70597C117.494 9.27131 118.27 9.05398 119.156 9.05398C119.668 9.05398 120.173 9.1392 120.671 9.30966C121.17 9.48011 121.624 9.7571 122.033 10.1406C122.442 10.5199 122.768 11.0227 123.011 11.6491C123.254 12.2756 123.375 13.0469 123.375 13.9631V14.6023H115.807V13.2983H121.841C121.841 12.7443 121.73 12.25 121.509 11.8153C121.291 11.3807 120.98 11.0376 120.575 10.7862C120.175 10.5348 119.702 10.4091 119.156 10.4091C118.555 10.4091 118.036 10.5582 117.597 10.8565C117.162 11.1506 116.827 11.5341 116.593 12.0071C116.359 12.4801 116.241 12.9872 116.241 13.5284V14.3977C116.241 15.1392 116.369 15.7678 116.625 16.2834C116.885 16.7947 117.245 17.1847 117.705 17.4531C118.165 17.7173 118.7 17.8494 119.31 17.8494C119.706 17.8494 120.064 17.794 120.384 17.6832C120.707 17.5682 120.987 17.3977 121.221 17.1719C121.455 16.9418 121.636 16.6562 121.764 16.3153L123.222 16.7244C123.068 17.2188 122.81 17.6534 122.448 18.0284C122.086 18.3991 121.638 18.6889 121.106 18.8977C120.573 19.1023 119.974 19.2045 119.31 19.2045ZM129.377 19.2045C128.559 19.2045 127.837 18.9979 127.21 18.5845C126.584 18.1669 126.094 17.5788 125.74 16.8203C125.386 16.0575 125.21 15.1562 125.21 14.1165C125.21 13.0852 125.386 12.1903 125.74 11.4318C126.094 10.6733 126.586 10.0874 127.217 9.67401C127.847 9.26065 128.576 9.05398 129.403 9.05398C130.042 9.05398 130.547 9.16051 130.918 9.37358C131.293 9.58239 131.578 9.82102 131.774 10.0895C131.974 10.3537 132.13 10.571 132.241 10.7415H132.369V5.90909H133.877V19H132.42V17.4915H132.241C132.13 17.6705 131.972 17.8963 131.768 18.169C131.563 18.4375 131.271 18.6783 130.892 18.8913C130.513 19.1001 130.008 19.2045 129.377 19.2045ZM129.582 17.8494C130.187 17.8494 130.698 17.6918 131.116 17.3764C131.533 17.0568 131.851 16.6158 132.068 16.0533C132.286 15.4865 132.394 14.8324 132.394 14.0909C132.394 13.358 132.288 12.7166 132.075 12.1669C131.862 11.6129 131.546 11.1825 131.129 10.8757C130.711 10.5646 130.195 10.4091 129.582 10.4091C128.942 10.4091 128.41 10.5732 127.984 10.9013C127.562 11.2251 127.244 11.6662 127.031 12.2244C126.822 12.7784 126.718 13.4006 126.718 14.0909C126.718 14.7898 126.825 15.4247 127.038 15.9957C127.255 16.5625 127.575 17.0142 127.996 17.3509C128.423 17.6832 128.951 17.8494 129.582 17.8494ZM146.182 9.18182V10.4602H141.094V9.18182H146.182ZM142.577 6.82955H144.085V16.1875C144.085 16.6136 144.147 16.9332 144.271 17.1463C144.398 17.3551 144.56 17.4957 144.756 17.5682C144.957 17.6364 145.168 17.6705 145.389 17.6705C145.555 17.6705 145.692 17.6619 145.798 17.6449C145.905 17.6236 145.99 17.6065 146.054 17.5938L146.361 18.9489C146.259 18.9872 146.116 19.0256 145.933 19.0639C145.749 19.1065 145.517 19.1278 145.236 19.1278C144.81 19.1278 144.392 19.0362 143.983 18.853C143.578 18.6697 143.241 18.3906 142.973 18.0156C142.709 17.6406 142.577 17.1676 142.577 16.5966V6.82955ZM150.17 13.0938V19H148.662V5.90909H150.17V10.7159H150.298C150.528 10.2088 150.874 9.80611 151.334 9.50781C151.798 9.20526 152.416 9.05398 153.188 9.05398C153.857 9.05398 154.442 9.18821 154.945 9.45668C155.448 9.72088 155.838 10.1278 156.115 10.6776C156.396 11.223 156.537 11.9176 156.537 12.7614V19H155.028V12.8636C155.028 12.0838 154.826 11.4808 154.421 11.0547C154.021 10.6243 153.464 10.4091 152.753 10.4091C152.259 10.4091 151.815 10.5135 151.423 10.7223C151.036 10.9311 150.729 11.2358 150.503 11.6364C150.281 12.0369 150.17 12.5227 150.17 13.0938ZM163.413 19.2045C162.467 19.2045 161.651 18.9957 160.965 18.5781C160.283 18.1562 159.757 17.5682 159.386 16.8139C159.02 16.0554 158.836 15.1733 158.836 14.1676C158.836 13.1619 159.02 12.2756 159.386 11.5085C159.757 10.7372 160.273 10.1364 160.933 9.70597C161.598 9.27131 162.373 9.05398 163.26 9.05398C163.771 9.05398 164.276 9.1392 164.775 9.30966C165.273 9.48011 165.727 9.7571 166.136 10.1406C166.545 10.5199 166.871 11.0227 167.114 11.6491C167.357 12.2756 167.479 13.0469 167.479 13.9631V14.6023H159.91V13.2983H165.944C165.944 12.7443 165.834 12.25 165.612 11.8153C165.395 11.3807 165.084 11.0376 164.679 10.7862C164.278 10.5348 163.805 10.4091 163.26 10.4091C162.659 10.4091 162.139 10.5582 161.7 10.8565C161.265 11.1506 160.931 11.5341 160.697 12.0071C160.462 12.4801 160.345 12.9872 160.345 13.5284V14.3977C160.345 15.1392 160.473 15.7678 160.729 16.2834C160.988 16.7947 161.349 17.1847 161.809 17.4531C162.269 17.7173 162.804 17.8494 163.413 17.8494C163.809 17.8494 164.167 17.794 164.487 17.6832C164.811 17.5682 165.09 17.3977 165.324 17.1719C165.559 16.9418 165.74 16.6562 165.868 16.3153L167.325 16.7244C167.172 17.2188 166.914 17.6534 166.552 18.0284C166.189 18.3991 165.742 18.6889 165.209 18.8977C164.677 19.1023 164.078 19.2045 163.413 19.2045ZM178.824 19.2045C177.904 19.2045 177.111 18.9872 176.447 18.5526C175.782 18.1179 175.27 17.5192 174.912 16.7564C174.555 15.9936 174.376 15.1222 174.376 14.142C174.376 13.1449 174.559 12.2649 174.925 11.5021C175.296 10.7351 175.812 10.1364 176.472 9.70597C177.137 9.27131 177.912 9.05398 178.799 9.05398C179.489 9.05398 180.111 9.18182 180.665 9.4375C181.219 9.69318 181.673 10.0511 182.027 10.5114C182.381 10.9716 182.6 11.5085 182.685 12.1222H181.177C181.062 11.6747 180.806 11.2784 180.41 10.9332C180.018 10.5838 179.489 10.4091 178.824 10.4091C178.236 10.4091 177.721 10.5625 177.278 10.8693C176.839 11.1719 176.496 11.6001 176.248 12.1541C176.006 12.7038 175.884 13.3494 175.884 14.0909C175.884 14.8494 176.003 15.5099 176.242 16.0724C176.485 16.6349 176.826 17.0717 177.265 17.3828C177.708 17.6939 178.228 17.8494 178.824 17.8494C179.216 17.8494 179.572 17.7812 179.892 17.6449C180.211 17.5085 180.482 17.3125 180.704 17.0568C180.925 16.8011 181.083 16.4943 181.177 16.1364H182.685C182.6 16.7159 182.389 17.2379 182.052 17.7024C181.72 18.1626 181.279 18.5291 180.729 18.8018C180.184 19.0703 179.549 19.2045 178.824 19.2045ZM184.89 19V9.18182H186.348V10.6648H186.45C186.629 10.179 186.953 9.7848 187.422 9.48224C187.89 9.17969 188.419 9.02841 189.007 9.02841C189.118 9.02841 189.256 9.03054 189.422 9.0348C189.589 9.03906 189.714 9.04545 189.8 9.05398V10.5881C189.748 10.5753 189.631 10.5561 189.448 10.5305C189.269 10.5007 189.079 10.4858 188.879 10.4858C188.402 10.4858 187.976 10.5859 187.601 10.7862C187.23 10.9822 186.936 11.255 186.719 11.6044C186.506 11.9496 186.399 12.3437 186.399 12.7869V19H184.89ZM195.405 19.2045C194.459 19.2045 193.643 18.9957 192.957 18.5781C192.275 18.1562 191.749 17.5682 191.378 16.8139C191.012 16.0554 190.829 15.1733 190.829 14.1676C190.829 13.1619 191.012 12.2756 191.378 11.5085C191.749 10.7372 192.265 10.1364 192.925 9.70597C193.59 9.27131 194.366 9.05398 195.252 9.05398C195.763 9.05398 196.268 9.1392 196.767 9.30966C197.265 9.48011 197.719 9.7571 198.128 10.1406C198.537 10.5199 198.863 11.0227 199.106 11.6491C199.349 12.2756 199.471 13.0469 199.471 13.9631V14.6023H191.903V13.2983H197.937C197.937 12.7443 197.826 12.25 197.604 11.8153C197.387 11.3807 197.076 11.0376 196.671 10.7862C196.27 10.5348 195.797 10.4091 195.252 10.4091C194.651 10.4091 194.131 10.5582 193.692 10.8565C193.258 11.1506 192.923 11.5341 192.689 12.0071C192.454 12.4801 192.337 12.9872 192.337 13.5284V14.3977C192.337 15.1392 192.465 15.7678 192.721 16.2834C192.981 16.7947 193.341 17.1847 193.801 17.4531C194.261 17.7173 194.796 17.8494 195.405 17.8494C195.802 17.8494 196.16 17.794 196.479 17.6832C196.803 17.5682 197.082 17.3977 197.317 17.1719C197.551 16.9418 197.732 16.6562 197.86 16.3153L199.317 16.7244C199.164 17.2188 198.906 17.6534 198.544 18.0284C198.182 18.3991 197.734 18.6889 197.202 18.8977C196.669 19.1023 196.07 19.2045 195.405 19.2045ZM204.655 19.2301C204.032 19.2301 203.468 19.1129 202.961 18.8786C202.454 18.6399 202.051 18.2969 201.753 17.8494C201.454 17.3977 201.305 16.8523 201.305 16.2131C201.305 15.6506 201.416 15.1946 201.638 14.8452C201.859 14.4915 202.155 14.2145 202.526 14.0142C202.897 13.8139 203.306 13.6648 203.753 13.5668C204.205 13.4645 204.659 13.3835 205.115 13.3239C205.711 13.2472 206.195 13.1896 206.566 13.1513C206.941 13.1087 207.214 13.0384 207.384 12.9403C207.559 12.8423 207.646 12.6719 207.646 12.429V12.3778C207.646 11.7472 207.474 11.2571 207.128 10.9077C206.787 10.5582 206.27 10.3835 205.575 10.3835C204.855 10.3835 204.29 10.5412 203.881 10.8565C203.472 11.1719 203.184 11.5085 203.018 11.8665L201.586 11.3551C201.842 10.7585 202.183 10.294 202.609 9.96165C203.04 9.625 203.508 9.39062 204.015 9.25852C204.527 9.12216 205.03 9.05398 205.524 9.05398C205.839 9.05398 206.202 9.09233 206.611 9.16903C207.024 9.24148 207.422 9.39276 207.806 9.62287C208.194 9.85298 208.515 10.2003 208.771 10.6648C209.027 11.1293 209.155 11.7514 209.155 12.5312V19H207.646V17.6705H207.569C207.467 17.8835 207.297 18.1115 207.058 18.3544C206.819 18.5973 206.502 18.804 206.106 18.9744C205.709 19.1449 205.226 19.2301 204.655 19.2301ZM204.885 17.875C205.481 17.875 205.984 17.7578 206.393 17.5234C206.807 17.2891 207.118 16.9865 207.327 16.6158C207.54 16.245 207.646 15.8551 207.646 15.446V14.0653C207.582 14.142 207.442 14.2124 207.224 14.2763C207.011 14.3359 206.764 14.3892 206.483 14.4361C206.206 14.4787 205.935 14.517 205.671 14.5511C205.411 14.581 205.2 14.6065 205.038 14.6278C204.646 14.679 204.28 14.7621 203.939 14.8771C203.602 14.9879 203.329 15.1562 203.121 15.3821C202.916 15.6037 202.814 15.9062 202.814 16.2898C202.814 16.8139 203.008 17.2102 203.395 17.4787C203.787 17.7429 204.284 17.875 204.885 17.875ZM216.178 9.18182V10.4602H211.09V9.18182H216.178ZM212.573 6.82955H214.081V16.1875C214.081 16.6136 214.143 16.9332 214.267 17.1463C214.395 17.3551 214.556 17.4957 214.752 17.5682C214.953 17.6364 215.164 17.6705 215.385 17.6705C215.551 17.6705 215.688 17.6619 215.794 17.6449C215.901 17.6236 215.986 17.6065 216.05 17.5938L216.357 18.9489C216.255 18.9872 216.112 19.0256 215.929 19.0639C215.745 19.1065 215.513 19.1278 215.232 19.1278C214.806 19.1278 214.388 19.0362 213.979 18.853C213.574 18.6697 213.238 18.3906 212.969 18.0156C212.705 17.6406 212.573 17.1676 212.573 16.5966V6.82955ZM222.33 19.2045C221.444 19.2045 220.666 18.9936 219.997 18.5717C219.332 18.1499 218.812 17.5597 218.438 16.8011C218.067 16.0426 217.881 15.1562 217.881 14.142C217.881 13.1193 218.067 12.2266 218.438 11.4638C218.812 10.701 219.332 10.1087 219.997 9.68679C220.666 9.26491 221.444 9.05398 222.33 9.05398C223.217 9.05398 223.992 9.26491 224.657 9.68679C225.326 10.1087 225.846 10.701 226.217 11.4638C226.592 12.2266 226.779 13.1193 226.779 14.142C226.779 15.1562 226.592 16.0426 226.217 16.8011C225.846 17.5597 225.326 18.1499 224.657 18.5717C223.992 18.9936 223.217 19.2045 222.33 19.2045ZM222.33 17.8494C223.004 17.8494 223.558 17.6768 223.992 17.3317C224.427 16.9865 224.749 16.5327 224.957 15.9702C225.166 15.4077 225.271 14.7983 225.271 14.142C225.271 13.4858 225.166 12.8743 224.957 12.3075C224.749 11.7408 224.427 11.2827 223.992 10.9332C223.558 10.5838 223.004 10.4091 222.33 10.4091C221.657 10.4091 221.103 10.5838 220.668 10.9332C220.234 11.2827 219.912 11.7408 219.703 12.3075C219.494 12.8743 219.39 13.4858 219.39 14.142C219.39 14.7983 219.494 15.4077 219.703 15.9702C219.912 16.5327 220.234 16.9865 220.668 17.3317C221.103 17.6768 221.657 17.8494 222.33 17.8494ZM229.082 19V9.18182H230.539V10.6648H230.642C230.82 10.179 231.144 9.7848 231.613 9.48224C232.082 9.17969 232.61 9.02841 233.198 9.02841C233.309 9.02841 233.448 9.03054 233.614 9.0348C233.78 9.03906 233.906 9.04545 233.991 9.05398V10.5881C233.94 10.5753 233.823 10.5561 233.639 10.5305C233.46 10.5007 233.271 10.4858 233.07 10.4858C232.593 10.4858 232.167 10.5859 231.792 10.7862C231.421 10.9822 231.127 11.255 230.91 11.6044C230.697 11.9496 230.59 12.3437 230.59 12.7869V19H229.082Z" fill="#20201E"/>
</svg>
