<svg width="20" height="21" viewBox="0 0 20 21" fill="none" xmlns="http://www.w3.org/2000/svg">
<g id="circle-exclamation-solid 1" clip-path="url(#clip0_3782_37264)">
<path id="Vector" d="M10 20.5C15.5234 20.5 20 16.0234 20 10.5C20 4.97656 15.5234 0.5 10 0.5C4.47656 0.5 0 4.97656 0 10.5C0 16.0234 4.47656 20.5 10 20.5ZM10 5.5C10.5195 5.5 10.9375 5.91797 10.9375 6.4375V10.8125C10.9375 11.332 10.5195 11.75 10 11.75C9.48047 11.75 9.0625 11.332 9.0625 10.8125V6.4375C9.0625 5.91797 9.48047 5.5 10 5.5ZM11.25 14.25C11.25 14.9414 10.6914 15.5 10 15.5C9.30859 15.5 8.75 14.9414 8.75 14.25C8.75 13.5586 9.30859 13 10 13C10.6914 13 11.25 13.5586 11.25 14.25Z" fill="#171717"/>
<g id="Group 1000003933">
<g id="Group 2595">
<circle id="Ellipse 828" cx="10" cy="10.5" r="10" fill="#2DAB50"/>
</g>
<path id="Vector 11" d="M5.19922 10.2318L9.36589 13.9818L15.1992 6.89844" stroke="white" stroke-width="2"/>
</g>
</g>
<defs>
<clipPath id="clip0_3782_37264">
<rect width="20" height="20" fill="white" transform="translate(0 0.5)"/>
</clipPath>
</defs>
</svg>
