<svg xmlns="http://www.w3.org/2000/svg" width="300" height="328" viewBox="0 0 300 328" fill="none">
  <path fill-rule="evenodd" clip-rule="evenodd" d="M0.420938 53.7605C0.830938 53.9605 1.04094 53.8105 1.06094 53.2905C1.24094 53.4505 1.28094 53.6405 1.19094 53.8705C2.29094 54.0105 3.23094 53.7805 4.19094 54.9205C4.32094 55.0805 4.22094 55.9305 4.41094 56.2605C4.71094 56.7905 5.44094 56.6605 5.67094 57.3305C4.84094 58.1105 4.32094 56.7005 3.52094 57.3805C4.20094 57.7105 5.17094 58.7805 5.64094 59.3605C6.57094 59.2805 6.82094 59.5905 6.40094 60.2905C6.40094 60.8005 6.67094 60.9405 7.22094 60.7305C6.98094 61.4605 6.49094 61.7805 5.75094 61.6905C5.77094 61.9305 5.88094 62.1105 6.07094 62.2505C6.28094 61.6505 7.19094 61.9104 7.17094 61.1305C7.21094 62.3305 8.61094 62.0805 9.10094 62.9005C8.57094 62.7605 7.16094 62.7205 6.63094 62.3805C6.10094 63.4405 8.50094 63.4705 9.00094 63.7005C7.99094 64.8905 10.1509 64.7705 10.4409 64.7305C9.55094 66.0005 11.7309 66.3205 12.6909 67.0605C12.4609 67.7905 10.4309 66.8705 9.83094 66.5905C9.93094 67.6605 10.9809 67.8905 11.3209 68.8105C11.8809 68.6305 11.2109 68.3605 11.4109 68.0105C12.9009 67.5405 11.4709 69.2005 11.8109 69.5605C12.0809 69.4505 12.3509 69.3605 12.6209 69.2705C12.6309 69.1205 12.6509 68.1305 12.3409 68.3105C12.3909 67.5705 13.1509 67.2805 13.5509 67.9805C12.9109 67.8905 13.5009 68.9205 12.8409 69.0505C12.8709 69.5205 13.8809 68.9105 13.9709 69.3205C13.7309 70.3305 12.6509 69.0505 12.1509 69.9205C11.4009 71.2305 12.5909 70.2905 12.5509 71.4705C12.0609 71.9405 11.3909 71.4305 11.1809 72.1105C11.0109 72.6905 11.9709 72.3705 11.7709 73.1405C12.1809 72.9605 11.7309 72.2605 11.9109 71.9305C12.2309 72.1705 12.4509 72.4705 12.5809 72.8505C12.6609 71.7405 13.4309 71.7605 14.0809 71.6905C14.2409 72.3005 13.4309 71.9305 13.5909 72.5405C14.7609 72.1805 16.2109 74.8205 15.1809 75.5405C15.6609 75.4105 15.9709 75.8205 16.3609 75.4105C16.2809 75.9405 16.1009 76.4205 15.8009 76.8605C15.2709 76.5105 14.8009 76.1005 14.3909 75.6305C14.1309 76.5105 15.1909 77.0005 15.4909 77.5605C16.0509 78.5805 15.2209 77.5605 15.3909 78.6905C16.2109 78.7305 16.8509 78.9205 16.8009 79.9205C17.3409 79.4605 17.7609 79.7205 18.0809 78.9805C17.9009 79.5905 18.9009 79.6105 18.9009 80.2805C19.4509 79.2005 19.9009 80.7305 20.4809 80.1105C20.7909 81.1305 19.4509 80.3505 19.5709 81.2005C21.0409 80.8205 20.7809 82.3605 19.4309 82.0805C18.4409 81.8805 18.1509 80.4205 16.9509 80.3005C16.6609 81.1404 18.3509 81.6305 18.8809 82.1805C19.8909 83.2305 20.5209 84.7005 21.3109 85.7005C22.3309 86.9905 22.8409 88.5205 23.6409 89.6305C24.2709 90.5105 24.7309 90.1805 25.2009 90.7205C26.0509 91.7105 25.4009 91.1705 25.4309 92.0705C25.9109 91.6305 27.0309 92.9905 27.4909 93.5605C28.5809 94.8905 28.5209 95.1605 30.1009 95.1305C29.7709 95.3405 29.4309 95.5105 29.0609 95.6405C29.2409 96.5905 31.2009 97.9805 31.5209 98.3505C31.7009 98.5605 32.7009 99.8905 32.5409 100.41C33.3109 100.05 38.8109 105.74 38.5309 106.52C38.3209 106.19 38.0309 105.95 37.6509 105.82C37.6409 105.85 39.6709 108.66 40.0609 109.18C40.5309 109.81 41.9209 110.43 42.9309 111.41C47.6609 116.01 51.5609 122.31 55.8909 127.42C65.1509 138.36 74.8409 148.91 84.7509 159.26C94.6309 169.58 104.711 179.69 114.791 189.82C117.361 192.4 119.921 194.97 122.481 197.55C124.891 199.98 128.251 202.49 130.151 205.31C129.271 203.99 132.501 208.19 130.331 207.05C129.631 206.68 128.421 204.52 127.671 203.86C126.011 202.4 124.621 200.77 122.951 199.95C123.131 199.83 123.331 199.82 123.541 199.92C123.491 199.19 122.271 199.77 122.591 198.79C122.211 198.99 121.841 199.2 121.491 199.43C121.761 197.24 119.961 196.84 118.701 195.72C117.621 194.76 116.251 193.06 115.391 192.27C114.691 191.63 113.451 190.13 112.481 189.27C112.011 188.85 111.581 188.46 111.081 188.08C109.421 186.85 111.221 188.16 110.451 187.05C110.251 187.2 110.141 187.4 110.141 187.65C109.141 185.26 105.651 183.09 104.201 181.48C103.011 180.15 99.6609 177.94 99.5809 176.14C99.2509 176.02 98.9709 176.83 98.7209 176.59C98.5209 176.4 98.5309 175.66 98.8609 175.8C97.8609 175.87 97.9609 174.9 97.1109 174.73C97.1309 174.44 97.2909 174.3 97.5709 174.31C96.4609 174.24 96.2409 173.23 95.3009 172.88C95.7209 172.42 95.6609 172.4 95.2809 171.9C94.7709 171.22 94.3409 173.43 94.6309 171.16C93.5909 171.48 93.1709 169.57 91.9809 169.59C92.1309 168.45 91.8109 168.33 90.5709 167.28C89.9909 166.78 89.3109 166.3 88.7609 165.79C88.4509 165.5 88.1109 165.12 87.7609 164.77C87.5309 164.33 87.1609 164.17 86.6509 164.29C86.7309 163.77 86.6209 163.3 86.3209 162.91C84.7609 161.23 82.6509 159.21 80.8609 157.41C79.6909 156.23 76.9009 152.4 75.5709 152.57C75.7509 151 72.3609 148.07 71.1909 146.91C70.4909 146.21 69.0709 145.02 68.7409 144.7C68.4409 144.41 66.7209 142.71 66.3409 141.94C65.8609 142.52 65.1509 143.38 64.2509 142.92C64.5909 141.88 65.9909 141.04 65.5809 141.81C66.4609 141.6 61.1509 136.42 61.2909 135.48C61.0009 135.48 60.8509 135.63 60.8409 135.92C60.2709 134.58 58.9709 133.76 58.4309 132.4C57.3009 132.8 57.2609 132.19 56.2509 131.06C55.3609 130.06 54.0609 129.19 54.0609 127.69C53.9009 127.78 53.8209 127.92 53.8109 128.11C52.2309 125.95 50.2509 123.91 48.5709 121.99C47.8709 121.19 46.9909 119.64 46.1509 119.06C45.9409 118.92 44.1109 118.24 44.1209 118.39C45.6509 117.52 43.6409 116.79 43.4809 115.89C43.1909 116.06 43.6309 117.93 42.5809 116.77C42.6209 116.81 42.3709 114.87 42.2809 114.65C42.0209 114.01 41.2809 113.76 41.1409 112.96C41.0109 112.94 39.8209 113.1 39.7609 113.1C39.9809 112.88 40.2509 112.78 40.5709 112.82C40.6709 111.41 39.6109 112.54 39.4609 112.56C38.6309 112.7 39.4909 113.07 39.3109 113.54C38.5709 113.69 38.8509 112.8 38.0109 113.08C38.3609 112.18 37.8809 112.37 37.6109 111.74C37.9909 111.24 38.2309 112.39 38.7109 112.22C38.9009 110.9 39.1109 112.2 39.7009 112.12C39.6809 110.95 38.7809 111.1 38.6109 110.06C38.4009 110.31 38.2309 110.59 38.1109 110.9C37.9609 110.82 37.9109 110.69 37.9709 110.52C37.3009 110.76 37.7909 111.5 36.5509 110.97C36.0409 110.75 34.4909 110.64 35.7409 109.77C35.4309 109.45 34.0709 109.87 34.0809 109.15C34.3609 108.88 34.6909 108.78 35.0909 108.85C35.1209 108.07 34.1309 109.1 33.8109 108.73C33.1309 107.95 34.1309 107.94 33.9609 107.19C32.8109 107.6 29.4109 103.49 29.9009 102.66C28.9009 103.15 28.0009 101.15 27.5509 100.61C26.3409 99.1405 25.9209 98.6505 25.8709 97.5505C23.7809 97.4105 23.9809 94.7705 22.2109 94.1805C22.1309 94.5705 21.9009 95.1105 21.8609 95.4105C21.4109 94.7205 21.5209 93.7705 20.9809 93.1305C20.8409 93.2005 20.8809 93.9905 20.6909 93.8705C19.8209 93.3205 20.6109 93.6605 20.0409 92.8405C18.4709 93.5905 18.9709 91.0005 17.5309 91.1305C17.5209 90.5405 18.4909 90.1405 18.3909 90.0205C18.3509 89.9705 17.9509 89.3605 17.9409 89.2905C17.1309 89.5605 17.9409 90.4605 16.5109 89.8405C16.6609 89.4705 16.9409 89.3005 17.3509 89.3505C16.5909 89.2005 16.1709 88.4405 15.7209 87.9105C15.0709 87.1505 16.1509 87.6405 15.9309 86.7305C14.1609 87.6905 11.4309 83.4105 12.8209 83.5005C12.4809 83.1205 12.1509 83.1605 11.8309 83.6105C11.3509 83.2805 12.4509 82.0705 11.4309 82.0705C11.4309 82.3605 11.5309 82.6205 11.7309 82.8305C10.4809 82.8005 10.3209 80.6105 8.49094 80.6205C9.02094 80.1205 9.04094 79.8305 9.25094 79.1405C8.07094 79.2605 9.18094 80.6605 7.83094 80.2605C7.28094 80.1005 7.95094 78.9605 6.91094 79.2105C6.78094 78.2305 7.93094 78.6905 8.03094 77.8905C7.98094 77.8905 6.25094 79.1005 6.24094 78.6705C6.23094 77.9705 6.41094 77.9405 7.07094 77.7905C6.71094 77.2505 6.33094 77.2305 5.91094 77.7205C6.07094 76.0005 5.05094 75.8805 4.54094 74.5005C2.59094 75.6705 4.08094 75.8605 3.89094 76.7605C4.18094 76.7605 4.32094 76.6005 4.33094 76.3105C4.85094 76.9205 6.72094 78.3905 5.35094 79.1705C5.28094 79.5405 6.21094 79.2305 6.31094 79.2605C6.13094 79.9305 5.71094 80.1805 5.06094 80.0005C5.11094 80.3905 6.06094 81.0905 6.19094 80.2705C6.91094 80.5505 6.62094 81.3605 7.65094 81.1005C7.32094 81.3105 6.98094 81.4805 6.62094 81.6105C6.58094 81.8405 7.95094 83.2405 7.17094 83.3505C7.41094 83.2805 7.57094 83.1205 7.63094 82.8805C8.05094 83.2205 8.25094 83.6605 8.25094 84.2005C8.79094 83.9905 10.4309 83.9805 8.97094 84.7105C10.0709 85.0005 11.0109 86.8905 11.3009 86.9905C11.1209 86.8105 10.9009 86.7805 10.6609 86.9005C10.6009 87.5505 11.3509 87.2705 11.1109 88.0405C10.4109 87.9005 10.1409 87.4705 10.2909 86.7405C9.20094 87.3605 9.12094 85.3705 8.12094 85.4005C8.89094 86.7205 10.2009 87.5705 11.0109 88.8405C11.5709 88.6605 10.9009 88.3905 11.1109 88.0405C12.2909 87.9805 10.7209 89.5905 11.9009 89.5405C11.4909 87.7605 11.9309 89.4005 12.7309 89.0505C12.6709 89.4105 12.4609 89.5605 12.0909 89.5205C12.5209 90.3305 12.9509 89.6205 13.5109 90.3505C14.0209 91.0005 14.4409 92.2105 14.6109 92.5405C14.6109 92.2005 14.4309 92.0405 14.1009 92.0705C15.4609 93.1105 16.6909 94.3405 17.5109 95.8605C17.2909 96.0805 17.0209 96.1805 16.7009 96.1505C16.5109 97.1305 17.6509 96.4805 17.8509 96.2205C18.2909 96.4905 17.3309 97.2305 17.4809 97.6505C18.2509 97.9005 17.6109 96.7705 18.1709 96.7805C18.9109 97.6405 20.2409 97.7105 20.2009 99.1305C21.8409 98.3105 21.5409 99.8405 21.5709 100.56C22.4909 100.64 22.9809 101.3 23.5409 101.93C23.2609 102.47 22.8309 101.75 22.6109 101.63C22.5109 102.55 23.7809 102.82 24.4009 102.82C24.5709 104.3 23.1309 103.38 22.7209 103.79C23.7109 104.89 24.9409 105.44 26.3609 105.77C26.4509 106.26 25.4609 106.45 25.5709 106.64C25.7709 106.99 26.5509 107.73 26.8609 108.24C27.6309 109.52 28.3609 110.05 28.7509 111.25C28.9909 111.01 29.2709 110.85 29.5909 110.76C29.5409 111.78 30.8809 112.31 31.4009 113C31.9509 113.75 32.3609 115.15 33.2809 116.14C34.0909 117.01 34.5409 117.42 35.2509 118.29C35.8209 119 35.9309 120.45 37.4809 120C37.5109 120.17 37.0809 120.94 37.1509 121.02C37.7909 121.82 38.6109 122.48 39.3109 123.23C40.6009 124.61 41.8509 126.01 42.6209 127.76C43.0709 127.71 43.2309 127.5 43.1009 127.12C44.0109 128.7 44.9909 130.21 46.3109 131.48C46.8209 131.97 47.4109 132.33 47.9309 132.8C48.3509 133.18 47.9709 133.95 48.4609 134.29C48.5909 134.12 48.7409 133.98 48.9109 133.85C49.2909 134.93 50.2009 135.5 50.7109 136.15C50.8309 136.31 50.4509 136.89 50.5809 137.04C51.0809 137.62 52.0209 138.01 52.6009 138.57C55.2909 141.18 56.6609 143.58 59.2109 146.36C61.4409 148.79 63.9209 151.02 66.0909 153.3C67.1709 154.44 69.3709 158.46 70.7909 158.21C70.2409 159.51 76.5309 164.74 77.4909 165.72C77.8209 166.06 78.6409 167.14 79.3109 167.75C80.1809 168.54 80.8609 169.54 81.6809 170.38C83.1509 171.9 84.6409 173.07 86.0609 174.55C88.5309 177.11 91.0009 179.73 93.7909 182.35C95.7909 184.23 97.5909 186.36 99.6009 188.25C100.521 189.12 103.911 193.51 105.191 193.15C105.311 193.37 105.221 193.5 104.921 193.56C105.891 194.27 110.971 197.88 110.441 199.13C110.901 199.49 111.421 198.48 111.541 199.46C111.361 199.58 111.161 199.59 110.951 199.49C111.021 199.82 114.341 202.5 114.911 203.09C116.451 204.69 118.021 206.27 119.601 207.83C123.201 211.37 126.861 214.85 130.561 218.3C134.351 221.84 138.211 225.31 142.001 228.85C145.761 232.36 149.221 236.52 153.201 239.75C155.481 241.61 157.621 243.86 159.951 245.97C161.341 247.23 162.481 248.1 163.921 249.39C166.411 251.61 168.691 254.36 171.071 256.84C172.491 258.32 173.171 259.91 174.321 261.5C174.411 261.63 174.991 261.38 175.111 261.5C175.681 262.09 175.361 263.56 176.841 263.26C176.701 263.52 176.571 263.78 176.451 264.04C177.161 263.73 181.271 267.76 179.941 268.15C180.121 268.74 181.091 267.58 180.961 268.75C181.131 268.67 181.231 268.54 181.261 268.36C181.861 268.51 181.441 269.13 182.281 268.96C182.231 269.24 182.071 269.37 181.791 269.35C182.551 269.44 183.181 269.78 183.691 270.35C183.311 271.06 183.041 270.3 182.511 270.34C182.801 270.47 188.181 273.34 186.201 273.86C187.141 273.61 186.811 272.76 188.191 273.72C188.331 273.82 189.721 275.26 188.551 275.12C188.561 275.19 189.591 276.36 189.711 275.98C189.661 275.75 189.591 275.54 189.481 275.33C190.531 275.48 190.791 276.65 191.881 276.74C191.701 276.91 191.491 276.98 191.241 276.93C191.241 277.44 191.881 277.01 191.431 277.72C191.871 277.13 197.201 281.07 197.091 282.51C198.341 281.98 198.871 283 199.801 283.54C199.031 284.12 198.881 282.88 198.181 282.92C198.181 283.18 198.181 283.44 198.171 283.7C197.341 283.39 196.351 283.49 195.561 283.06C196.781 282.16 194.551 281.68 194.001 281.47C194.321 283.26 196.401 284.54 198.101 284.67C197.851 284.86 197.571 284.92 197.261 284.85C197.731 285.19 199.931 286.56 200.181 285.94C200.001 286.16 199.851 286.4 199.751 286.66C202.481 287.46 203.681 288.83 205.741 290.46C207.521 291.87 209.721 292.51 211.561 293.66C213.731 295.01 218.771 297.55 218.881 300.64C220.211 298.43 225.241 301.85 226.301 302.66C227.241 303.39 227.941 304.24 228.411 305.34C228.521 305.66 228.621 305.99 228.731 306.31C228.561 307.35 228.921 307.67 229.811 307.27C230.291 306.66 230.621 306.7 230.811 307.37C230.761 307.66 230.711 307.95 230.661 308.24C231.621 308.74 232.171 308.99 233.361 308.58C233.271 308.34 233.131 308.13 232.941 307.97C235.081 308.7 236.431 311.09 236.381 313.28C238.111 312.47 237.271 313.78 238.381 313.98C239.691 314.21 240.861 314.02 242.191 314.39C243.451 314.74 246.061 315.2 244.951 316.91C245.591 316.19 246.401 317.35 247.011 317.42C246.011 318.62 249.561 319.71 250.601 320.29C252.321 321.25 253.821 322.54 255.681 323.41C259.141 325.04 263.311 327.21 267.381 327.35C266.371 325.9 268.621 326.67 268.811 326.67C268.641 325.65 267.821 325.16 267.231 324.31C266.791 323.67 266.131 322.67 265.171 321.43C266.181 321.56 267.041 321.82 268.081 321.85C266.601 320.33 265.181 318.74 263.511 317.42C262.461 316.59 259.151 315.48 259.351 314.06C257.631 315.03 258.471 313.56 257.581 313.11C256.741 312.69 255.501 312.92 254.611 312.97C255.021 312.48 255.541 312.31 256.171 312.48C254.371 311.65 257.841 311.6 257.851 311.6C258.041 311.15 255.861 311.01 255.891 310.69C256.541 310.22 257.221 310.38 257.791 310.41C256.851 310.75 258.321 311.32 258.501 311.44C258.351 311.69 258.211 311.94 258.071 312.2C259.101 312.78 260.431 311.92 261.391 312.61C260.721 312.81 260.031 312.83 259.341 312.68C259.831 313.42 260.651 313.14 261.101 313.37C262.091 313.87 263.131 314.55 264.291 315.01C264.261 314.06 262.611 314.13 262.021 313.85C264.171 313.08 263.651 314.77 264.561 315.43C265.601 316.18 266.671 316.74 267.651 317.47C269.841 319.1 272.411 321.46 274.921 322.59C275.331 320.89 273.681 319.67 274.051 318.14C273.821 318.15 273.601 318.2 273.391 318.29C273.831 317.46 271.931 316.06 273.991 316.34C274.001 316.25 273.091 313.9 273.271 314.25C273.251 314.21 273.811 314.12 273.471 313.57C273.021 312.84 272.001 312.91 271.361 312.35C272.371 310.83 273.211 313.35 273.831 311.54C273.661 311.61 273.551 311.73 273.521 311.92C272.911 311.74 273.231 311.13 272.451 311.44C272.671 310.5 272.731 310.23 271.621 309.51C271.541 308.73 271.201 308.54 270.601 308.92C270.371 309.61 269.931 309.71 269.281 309.2C271.011 306.39 276.431 308.93 277.341 312.02C278.081 311.02 278.481 312.17 278.751 312.73C278.391 313.17 278.271 312.19 277.881 312.26C277.701 313.21 279.301 313.04 279.771 313.41C279.721 313.84 279.051 313.74 279.331 314.17C280.301 313.66 283.141 317.04 284.001 317.54C284.921 316.99 283.681 316.74 283.561 316.31C285.851 317.07 286.731 319.05 288.301 320.46C289.181 321.25 289.721 321.82 290.801 322.25C291.301 322.45 293.581 322.01 293.651 323.33C293.261 323.36 292.891 323.47 292.531 323.63C294.741 324.7 297.651 325.54 299.011 323.45C300.061 321.82 298.431 319.75 299.921 318.28C299.141 318.35 298.551 317.47 297.781 317.89C297.891 318.1 298.071 318.18 298.321 318.14C297.611 319.26 296.741 316.22 298.401 316.55C298.271 316.13 296.581 314.45 295.931 313.88C294.601 312.7 292.821 311.45 291.111 310.93C291.641 309.58 294.161 311.12 295.161 311.07C295.611 310.13 291.261 307.39 290.111 306.84C290.481 306.16 292.311 307.46 293.241 307.3C293.161 306.95 293.061 306.61 292.941 306.27C292.471 306.74 292.221 306.65 292.201 306.01C290.801 307.71 290.201 304.16 288.761 305.92C287.971 305.98 289.861 304.57 289.711 304.8C289.471 304.24 288.191 304.76 288.001 305.06C287.771 304.97 288.541 303.98 288.551 303.9C288.521 303.89 286.791 304.23 286.881 303.99C286.991 303.76 287.171 303.63 287.421 303.61C287.361 303.03 286.541 303.7 286.361 303.73C285.991 302.27 287.131 302.8 287.851 302.85C287.871 301.55 286.551 302.8 286.261 302.72C285.211 302.44 285.221 301.43 283.711 301.71C283.661 300.11 285.531 301.42 285.951 301.69C286.181 300.92 286.701 300.56 287.491 300.61C287.411 300.16 287.161 300.07 286.751 300.35C287.241 299.93 286.591 299.68 287.101 299.17C286.121 299.1 285.631 298.52 285.061 297.8C285.341 297.36 286.051 297.96 285.681 298.45C285.801 298.49 286.091 298.21 286.331 298.3C286.501 297.58 285.671 297.43 285.231 297.21C285.701 296.78 286.171 296.35 286.631 295.92C286.221 296.01 285.831 295.98 285.441 295.82C285.551 295.4 285.741 295.01 285.991 294.66C285.691 294.62 285.411 294.66 285.141 294.79C285.301 293.3 285.131 293.63 284.071 292.12C284.381 291.54 284.831 292.09 285.331 292.01C285.471 291.38 284.431 291.74 284.811 290.97C284.541 291.02 284.301 291.14 284.101 291.32C283.481 289.43 281.171 288.86 280.421 287.06C280.061 287.08 279.601 288.32 278.911 287.35C280.601 285.5 276.931 285.83 276.641 284.59C278.311 283.7 278.851 284.98 280.331 285.25C280.411 284.48 279.131 284.64 279.921 283.82C279.531 283.87 279.111 283.68 278.721 283.73C278.801 282.71 281.601 283.76 281.171 282.87C280.941 282.39 279.241 283.02 279.821 282.01C278.781 282.05 277.751 282.11 276.711 282.19C276.781 281.18 278.331 281.82 277.681 280.71C277.171 279.84 276.841 280.76 275.951 280.53C275.951 281.04 276.591 280.65 276.131 281.34C274.921 281.06 275.461 279.89 273.611 280.17C273.881 279.86 274.751 278.52 274.761 278.24C273.641 278.88 272.411 278.27 271.691 277.7C270.881 277.06 271.341 276.55 270.471 276.07C270.221 275.93 268.031 275.82 267.731 275.76C267.741 275.01 268.621 275.65 268.891 275.23C267.971 274.22 265.661 274.72 264.511 274.95C264.951 276.21 266.741 275.14 267.581 275.54C267.211 277.05 268.071 276.12 268.071 275.97C267.781 277.25 273.271 278.14 270.871 279.21C269.261 279.93 268.491 277.39 267.591 276.94C267.131 276.71 266.081 277.07 265.451 276.84C264.621 276.53 263.891 275.48 263.311 274.87C264.291 274.67 265.181 274.37 266.031 273.84C264.641 274.05 264.381 272.14 263.521 271.41C262.521 270.57 261.241 270.16 259.901 270.29C260.001 269.65 260.671 269.7 260.951 270.15C260.641 270.48 258.481 268.08 258.201 267.72C257.741 267.65 257.281 267.53 256.841 267.38C256.421 267.01 256.431 266.6 256.871 266.15C256.741 265.55 257.001 263.87 256.641 263.54C256.011 263.56 256.401 264.98 257.021 265.16C256.501 265.5 256.481 265.83 256.961 266.16C256.461 267.38 255.991 265.02 256.231 265.12C255.161 265.95 254.631 264.22 255.111 264.12C255.791 263.99 255.281 264.78 255.281 264.87C255.771 264.71 256.131 264.4 256.341 263.93C253.971 264.03 252.501 262.72 250.371 262.03C250.371 261.75 250.481 261.56 250.731 261.45C250.041 261.73 248.581 260.97 248.151 260.53C248.971 259.69 250.301 260.98 250.151 260.97C250.571 260.99 247.571 258.61 247.181 258.09C247.731 257.16 248.651 258.63 249.431 257.99C247.851 256.24 245.071 255.4 243.101 253.7C243.221 253.09 244.341 254.03 244.251 253.15C243.541 253.41 242.901 253.31 242.311 252.86C242.541 253.82 242.761 253.49 242.541 254.27C241.581 253.99 241.981 252.71 240.721 252.79C240.861 252.54 241.001 252.28 241.121 252.01C240.231 251.99 240.281 251.24 239.561 250.96C239.571 250.9 239.711 249.57 239.711 249.57C239.421 249.54 239.251 249.66 239.211 249.95C238.001 248.21 236.471 246.81 234.901 245.42C235.101 245.07 235.401 244.94 235.801 245.05C235.031 243.47 234.601 244.98 233.851 244.78C234.001 243.91 233.261 243.61 232.551 243.54C232.741 243.23 232.891 242.9 232.991 242.55C232.681 242.74 232.361 242.93 232.041 243.12C232.281 242.13 231.431 242.56 230.891 242.09C231.081 241.78 231.231 241.45 231.341 241.11C230.781 241.28 230.351 242.13 230.151 240.74C230.051 240.06 229.861 239.21 230.531 238.69C229.531 238.22 230.181 240.03 229.191 240.05C229.141 239.65 229.171 239.25 229.281 238.86C228.881 238.72 228.511 238.52 228.171 238.26C228.031 238.04 225.961 238.28 227.181 236.8C226.851 236.8 226.521 236.78 226.181 236.77C225.801 237.69 226.811 236.45 226.431 237.38C225.361 237.82 224.441 235.76 223.481 235.5C223.921 235.11 224.421 234.99 224.971 235.14C225.071 234.23 224.051 234.86 223.761 234.62C223.521 234.7 223.281 234.68 223.051 234.57C222.591 234.55 222.481 234.27 222.731 233.73C222.441 233.51 221.601 233.47 221.431 233.25C220.671 232.29 221.561 232.22 220.261 231.43C220.631 230.92 220.981 231.76 221.421 231.65C221.811 230.73 219.831 230.38 219.501 230.42C220.281 227.76 219.541 225.8 216.751 225C216.231 225.51 216.271 225.9 216.871 226.2C215.901 226.9 216.931 223.92 217.271 223.62C216.331 224.35 216.281 223.3 215.321 223.39C214.851 224.14 215.801 223.75 215.491 224.39C214.781 223.77 214.321 223.59 215.321 223.39C215.221 223.15 215.271 222.95 215.461 222.8C215.531 222.13 214.541 223.38 214.951 222.39C214.711 222.93 214.301 223.25 213.721 223.37C213.421 223 214.121 222.75 214.151 222.38C213.731 222.4 213.411 222.59 213.211 222.96C213.131 222.71 212.971 222.58 212.701 222.55C212.821 221.59 213.981 222.02 214.221 221.18C212.801 221.73 212.801 220.75 212.071 220.95C212.071 219.36 212.291 220.12 211.421 218.55C211.561 218.8 210.401 217.48 210.471 217.55C209.991 217.02 209.941 216.84 209.141 216.33C207.581 215.35 208.981 216.46 207.741 216.3C207.281 215.94 208.331 215.32 208.261 214.9C207.461 215.16 207.211 214.9 207.511 214.15C207.421 213.99 207.341 213.82 207.251 213.66C206.761 213.25 206.061 212.91 205.511 212.62C205.261 212.45 205.141 212.2 205.151 211.86C204.781 212.04 204.421 212.06 204.061 211.94C203.701 211.87 203.351 211.77 203.011 211.64C203.061 211.29 203.011 210.96 202.831 210.64C203.331 210.04 203.651 210.95 204.181 210.85C204.071 209.94 203.091 209.88 202.401 209.84C202.121 208.88 203.211 208.91 202.571 208.16C201.971 207.45 201.601 208.92 201.961 207.26C201.241 208.28 200.581 206.6 200.821 206.07C200.081 206.35 199.251 205.25 199.221 205.31C199.301 205.49 199.311 205.67 199.261 205.86C197.981 205.94 199.021 204.68 199.561 204.47C198.411 203.05 200.011 202.85 198.891 201.08C199.291 202.13 198.541 203.05 199.051 204.07C197.341 204.02 198.971 202.46 198.121 201.88C197.581 202.39 197.781 203.48 197.091 203.87C197.011 203.21 197.021 202.54 197.121 201.88C196.451 202.13 195.801 202.39 195.151 202.68C195.281 202.6 196.701 200.06 196.701 200.08C196.251 200.13 195.871 200.33 195.571 200.68C195.301 200.41 195.461 199.73 195.011 200.48C194.841 200.03 194.801 199.56 194.911 199.09C195.431 198.61 195.591 200.08 196.311 199.09C195.581 198.95 192.501 197.45 194.221 196.7C193.861 196.09 191.081 194.78 190.211 194.91C190.601 194.39 190.071 193.79 190.711 193.51C190.831 194.18 187.171 191.53 187.141 191.53C187.601 191.02 187.101 190.34 186.511 190.73C186.871 189.99 186.241 190 186.401 189.33C186.201 189.74 185.981 190.14 185.751 190.54C185.741 190.53 184.861 188.06 184.871 187.97C184.701 188.21 184.481 188.34 184.191 188.37C184.711 188.76 184.941 189.29 184.871 189.95C184.161 189.07 183.201 188.3 183.391 187.39C183.951 187.54 183.921 188.55 184.671 187.97C184.631 187.42 183.181 186.18 182.871 186.01C182.801 185.97 182.221 186.49 181.461 185.93C180.671 185.35 181.321 185.51 181.341 184.64C180.911 184.56 180.831 185.25 180.501 184.85C180.501 184.41 181.181 184.45 180.861 184.05C180.591 184.12 180.371 184.25 180.181 184.46C180.271 182.76 179.121 182.17 178.211 181.03C177.931 180.68 177.441 180.4 177.261 179.96C176.701 178.6 177.411 179.67 177.891 178.92C177.611 177.99 176.121 178.54 176.641 177.15C175.571 177.53 176.171 177.39 175.171 177.58C175.261 177.23 175.481 177.09 175.851 177.17C175.721 176.8 175.521 176.47 175.241 176.18C175.031 176.32 174.931 176.52 174.921 176.78C174.631 176.75 174.391 176.62 174.201 176.39C174.461 176.27 174.631 176.06 174.721 175.78C172.641 175.82 174.881 175.61 174.321 174.79C173.661 173.83 172.361 173.23 171.631 172.25C171.591 172.45 171.551 172.65 171.511 172.85C171.301 172.56 169.831 171.97 171.301 171.85C171.111 171.05 169.901 170.59 169.181 170.5C169.581 169.93 169.441 169.6 168.771 169.51C168.741 170.32 168.401 169.98 167.891 169.93C168.801 170.55 168.671 171.69 169.621 172.29C170.431 172.05 170.351 172.38 170.111 173.88C169.691 172.45 167.361 171.74 167.451 170.14C167.191 170.44 167.001 170.46 166.891 170.18C167.181 170.06 167.331 169.85 167.361 169.55C165.911 169.81 166.621 169.12 165.851 168.59C165.441 168.31 164.601 168.08 164.361 167.45C165.041 167.32 165.561 166.98 165.951 166.41C166.241 166.82 166.621 166.94 167.081 166.78C166.721 166.49 166.721 166.15 167.061 165.79C164.991 166.78 164.771 163.93 163.131 163.32C163.851 162.63 163.221 162.37 162.511 162.34C163.431 160.63 161.901 161.88 161.311 160.19C161.111 160.44 160.871 160.64 160.601 160.81C160.601 160.81 159.661 159.93 160.621 159.61C160.421 159.51 160.241 159.55 160.081 159.74C159.741 159.81 159.931 158.7 160.401 158.62C159.701 158.46 159.501 157.01 158.621 157.48C158.791 157.16 158.921 156.82 159.001 156.47C158.811 156.64 157.381 155.82 156.881 155.46C156.551 155.22 155.931 154.76 155.561 154.32C154.871 153.51 155.591 154.02 155.621 153.19C154.751 153.53 154.661 152.47 153.731 152.66C153.271 152.75 153.381 153.74 153.951 153.65C154.031 154.07 152.491 153.16 152.741 153.78C152.921 153.94 153.091 154.1 153.251 154.27C152.861 155.24 152.041 153.43 151.601 153.53C151.651 153.09 152.251 152.5 152.101 152.26C151.891 151.94 151.491 151.57 151.631 151.12C151.341 151.49 151.001 151.57 150.601 151.36C151.621 150.8 152.921 150.96 153.981 151.23C153.831 150.78 153.711 150.31 153.631 149.84C153.371 149.89 152.771 150.28 152.871 149.67C152.861 149.67 151.871 150.47 151.911 149.88C152.071 149.57 152.171 149.25 152.211 148.9C151.261 149.92 149.771 148.2 150.511 147.18C150.071 147.58 149.891 146.86 149.351 147.03C149.211 147.69 150.081 147.53 149.941 148.2C149.771 148.35 148.241 146.12 147.761 147.17C147.911 146.95 148.121 146.85 148.381 146.88C148.221 146.18 146.581 148.43 148.411 147.87C147.391 149.92 147.731 147.5 146.711 147.35C146.971 146.98 148.571 146.79 148.111 146.09C147.631 146.72 147.671 146.25 147.111 146.13C147.691 145.51 147.671 146.04 147.481 145.12C147.131 145.5 146.721 145.59 146.251 145.38C146.901 144.53 145.371 144.79 145.721 143.81C146.871 144.85 148.431 145.23 148.981 146.85C149.241 146.01 150.321 146.99 150.831 146.17C151.301 145.42 149.241 145.67 150.021 144.21C149.791 144.69 147.701 145.8 147.981 144.5C148.231 143.83 148.611 145.52 148.651 144.07C149.341 143.79 148.691 144.72 149.381 144.44C149.501 144.17 149.611 143.9 149.711 143.63C148.561 143.77 148.931 143.05 149.311 142.45C148.341 143.32 147.811 141.49 147.151 141.15C146.751 141.3 146.641 141.57 146.821 141.96C145.731 142.03 145.261 140.33 144.261 140.68C144.041 138.72 146.561 142.5 147.251 140.54C146.831 140.65 146.861 139.42 146.451 140.58C146.691 139.35 144.681 138.64 143.751 138.91C145.001 138.14 143.891 136.98 143.781 136.31C143.301 136.56 143.891 137.29 143.811 137.31C143.041 137.54 142.451 137.69 141.551 137.82C141.801 136.78 142.501 137.68 143.041 137.15C143.071 135.83 141.541 137.07 141.211 137.44C140.711 137.35 141.261 136.64 140.511 136.87C140.401 137.76 141.711 137.3 141.241 138.43C142.051 138.34 142.741 138.57 143.301 139.13C143.151 139.62 142.221 138.21 142.331 139.07C142.461 139.38 142.651 139.41 142.901 139.15C140.901 141.24 139.661 136.59 138.081 135.99C138.041 136.33 138.271 137.32 138.251 137.38C137.851 137.88 136.981 137.15 137.191 136.63C136.861 137.26 135.371 137.26 135.661 136.31C135.681 136.16 136.661 136.41 136.561 136.86C137.351 135.78 138.491 136.38 138.121 134.58C138.951 135.01 141.311 137.06 140.911 134.44C139.241 136.12 139.541 134.3 137.921 133.39C137.871 134.64 136.661 133.63 138.021 135.18C137.631 135.37 137.231 135.39 136.821 135.24C136.841 134.95 137.001 134.81 137.281 134.82C137.121 134.05 136.471 135.23 136.151 134.48C136.551 134.22 136.921 133.94 137.281 133.62C135.851 133.76 135.471 131.67 134.021 131.79C134.171 131.38 135.111 130.74 134.141 130.54C132.861 130.27 133.711 130.08 132.721 131.27C132.211 130.9 131.661 130.6 131.081 130.37C131.331 129.76 132.681 129.45 132.451 130.49C132.771 130.14 133.091 129.79 133.411 129.44C132.411 129.77 131.861 129.01 130.941 128.79C130.651 129.48 131.561 128.99 131.411 129.56C130.931 129.98 130.611 129.13 130.081 129.24C130.201 128.97 130.311 128.7 130.401 128.42C129.081 129.3 129.431 127.29 128.391 127.34C129.051 126.18 129.481 127.62 130.221 127.03C130.191 127.27 130.351 125.92 130.371 126.02C130.261 126.02 128.691 125.65 128.741 125.74C128.161 124.76 129.171 124.51 129.151 124.9C129.801 124.16 127.491 124.21 128.431 123.15C127.481 122.94 127.201 123.28 126.911 124.04C126.511 123.77 126.491 123.44 126.871 123.04C125.561 123.3 125.371 121.08 124.981 120.44C124.671 119.93 123.301 118.28 122.681 118.1C122.151 118.58 122.911 118.63 122.931 119.08C122.211 119.52 121.461 118.41 121.121 118C121.311 117.68 121.951 118.08 121.931 118.01C121.951 118.08 122.241 116.8 122.301 116.72C121.561 116.8 120.821 116.92 120.081 117.06C119.831 116.77 119.851 116.47 120.151 116.18C120.091 116.1 119.531 115.32 119.421 115.13C119.151 114.64 118.451 114.5 117.901 113.65C116.631 111.67 118.391 113.17 118.291 111.77C116.531 111.32 117.841 113.31 116.981 111.51C116.561 110.62 117.151 109.88 117.121 108.86C116.271 109.56 117.011 108.85 116.411 109.71C115.961 109.67 115.731 109.42 115.731 108.96C116.161 108.88 114.711 110.58 114.931 110.41C114.541 110.04 114.931 109.69 114.191 110.06C114.331 109.15 114.611 109.85 115.071 109.4C115.101 109.92 113.061 108.29 112.881 108.16C113.981 106.92 113.881 107.76 114.111 105.95C114.151 105.64 114.011 103.66 113.591 103.12C113.591 104.19 113.291 104.8 112.541 103.6C112.301 103.83 112.021 103.99 111.691 104.06C111.911 104.24 112.151 105.61 112.711 105.18C112.541 105.57 112.251 105.79 111.831 105.84C111.291 105.44 112.461 104.95 111.121 105.29C110.971 104.67 111.781 105.08 111.631 104.46C111.061 105.14 110.571 104.61 110.521 103.94C110.011 104.17 109.971 104.44 110.411 104.75C109.401 104.9 109.431 103.46 110.011 103.38C109.811 102.88 108.001 102.42 107.991 102.33C108.221 102.11 108.491 102.03 108.811 102.07C108.511 101.62 106.841 99.6805 107.551 99.7605C106.231 98.6105 102.411 100.33 103.011 98.6605C103.661 96.8205 105.451 99.8605 105.671 97.7005C104.681 97.8005 105.171 97.4105 104.681 97.2105C104.861 97.4005 105.071 97.4405 105.331 97.3305C105.491 96.8705 103.461 95.8105 103.391 94.2705C102.931 94.3305 101.661 94.8105 102.231 95.5605C102.651 94.8805 102.841 95.4905 102.971 95.9105C102.771 96.1005 102.641 96.0405 102.601 95.7405C102.251 96.3705 103.561 97.1905 103.711 97.6605C101.271 96.8205 100.011 94.0605 97.8809 92.7305C98.0409 92.5305 98.2509 92.4505 98.5009 92.4805C98.4409 91.9405 98.1409 91.7705 97.5909 91.9605C97.4809 92.1305 98.0609 89.5005 98.2309 90.1105C97.6009 90.3405 97.6409 90.0805 97.2809 89.7705C96.7309 89.2905 96.5309 89.4805 96.0009 89.0605C95.4809 88.6505 95.5009 87.5405 94.2009 87.8505C94.9409 84.9105 91.9709 81.9305 91.0709 79.3105C90.7309 79.7005 89.7909 79.8605 90.3309 78.9705C89.8709 78.9205 89.5209 79.0805 89.2809 79.4605C88.3209 79.0105 89.9109 78.3705 90.2109 78.3805C90.2309 78.7305 86.3509 77.1405 89.0009 77.0805C88.4109 76.9605 85.6609 75.7705 85.3909 75.5605C83.7609 74.3005 85.2409 75.4305 85.3209 73.6005C84.1909 73.5305 84.4109 74.4505 83.1109 74.0005C83.4909 73.0305 85.3609 73.4105 85.3709 73.1905C85.4209 71.6705 84.9009 70.4105 83.1409 70.6005C83.1209 69.9405 84.1409 70.4505 84.0309 69.7205C83.2609 69.9705 82.9909 68.8305 82.7109 68.4305C82.1509 67.6605 82.2609 68.1805 81.4709 68.1505C81.7209 68.0105 81.8809 67.7905 81.9409 67.5105C81.6709 67.3705 81.4009 67.4005 81.1409 67.5805C81.2809 67.1704 81.4909 65.5305 80.4409 66.8505C80.5909 66.2805 80.0909 66.3905 80.9109 66.2105C78.5309 63.5605 78.4609 62.4104 74.9509 61.9705C74.9609 62.3204 75.0609 62.6405 75.2309 62.9405C74.5709 63.0605 74.9309 62.1905 74.3409 62.2305C74.5009 62.0305 74.7009 61.9505 74.9609 61.9705C74.4109 61.2805 73.3909 59.6605 74.4909 59.4105C73.9009 58.5205 73.1709 58.9205 72.4109 58.3205C71.6209 57.6905 71.6909 56.0805 70.3909 56.0005C71.2209 57.2505 72.1709 58.4405 72.8809 59.7705C72.3609 59.5605 72.0109 59.2005 71.8309 58.6705C71.1809 59.0505 72.1609 59.2505 72.1009 59.6405C70.0209 59.8405 71.2009 59.8905 71.2109 58.9305C70.3309 58.5105 69.1709 59.4305 68.7509 58.1605C68.5009 58.5405 71.1809 57.3005 71.0009 57.3405C70.6409 57.3205 69.3609 57.9705 69.0809 57.5505C68.7009 57.0005 68.5609 56.4505 69.5409 56.4805C69.5709 55.8305 68.1509 56.4605 67.8509 56.0505C67.3309 55.3205 68.4909 55.5505 68.3609 54.8105C68.2409 54.7905 67.2009 55.2205 67.1209 55.3305C66.9109 54.4605 65.4709 55.3705 65.6809 54.2805C66.0909 53.8205 67.0509 54.1305 67.3409 53.5105C65.8409 53.1205 66.1609 52.0205 64.7409 50.5805C64.7909 50.3305 65.5709 50.5805 65.7409 50.4805C65.5109 49.7805 62.8209 49.4605 62.7709 49.3105C63.3309 50.9505 61.1909 48.9605 61.1309 47.9505C61.3709 47.6805 63.0809 48.7905 63.3409 49.1205C62.7609 48.6505 63.1909 47.3205 61.9409 47.6605C61.9209 47.0005 62.7009 47.0405 62.6809 46.3905C61.1609 47.0005 60.1609 44.6905 59.9309 44.6505C60.1009 44.8005 60.2909 44.8605 60.5109 44.8105C60.1909 44.5005 60.7709 43.8705 60.6509 43.6005C60.5309 43.3205 59.4009 42.8904 59.1509 42.7205C57.8709 41.8305 58.3509 42.1305 56.3509 41.8405C57.0909 42.3905 58.6509 42.6505 58.7409 43.2005C58.5109 43.4305 58.3209 43.3805 58.1709 43.0605C57.3709 44.7105 64.0109 52.3805 62.6909 52.9905C63.1109 53.0305 63.4909 53.2005 63.8109 53.4805C63.9609 52.6405 63.0909 52.6705 64.4509 53.0105C63.8709 54.2905 64.3309 53.3305 64.0609 54.6505C64.2809 54.6005 64.4909 54.5105 64.6809 54.3905C64.5509 55.0005 64.9309 55.3105 65.2009 55.7905C65.5209 56.3605 64.4009 55.9305 64.6209 56.5905C66.1009 55.9605 67.0409 59.1105 66.8409 59.1805C67.4609 58.9505 67.2509 59.1205 67.8509 59.0505C67.7409 59.4605 67.6209 59.8705 67.5009 60.2905C68.1609 60.3205 68.6409 60.6305 68.9509 61.2305C69.6409 62.2905 69.6109 63.3005 71.0709 63.1505C71.1209 62.1805 70.3309 63.2205 70.1809 62.4305C70.9509 62.2505 70.4909 61.6305 71.3309 61.6505C72.1009 61.6705 72.1909 62.4805 71.8709 63.0705C71.2309 63.2305 71.9209 62.0705 71.1709 62.3405C71.6109 62.8405 70.9209 63.6005 70.4309 63.6105C71.6209 64.8505 71.2209 65.5005 71.4209 66.7105C70.9409 66.3905 70.8009 65.9405 71.0009 65.3505C69.9209 65.5205 70.7009 66.7905 71.1709 67.1305C71.6209 66.8405 71.8009 66.4305 71.7209 65.8805C73.5909 66.9305 72.6609 66.9705 74.4209 66.2205C75.1909 66.6505 73.7109 67.4305 73.4809 67.5105C73.3309 68.3005 74.1209 69.4005 74.5109 70.0105C74.5509 70.3405 74.5809 70.6705 74.6209 70.9905C75.0909 70.9705 75.4809 71.1205 75.7609 71.4605C77.2009 73.5305 76.6409 72.3805 75.2809 73.5205C75.3709 74.5105 76.6409 73.5205 75.7309 74.6805C77.4509 74.0205 75.8209 73.7505 77.6109 74.0705C76.8809 73.9405 79.9909 76.3705 79.3809 75.4205C80.2709 76.8005 79.4809 77.0805 79.5009 75.9305C79.6609 75.9305 78.7509 76.1905 78.6809 76.2105C78.7309 77.0505 79.7309 76.4105 79.3009 77.5505C78.9709 77.4905 78.7309 77.3105 78.5809 77.0205C78.5609 77.0405 78.2909 79.0805 78.3209 79.2805C78.5209 80.5205 79.4109 81.7005 79.5009 82.9305C79.6309 82.7805 80.6709 79.2405 80.8309 79.4005C79.8409 79.7905 80.2809 83.6905 80.3409 84.0505C80.8909 83.1105 80.8909 81.1705 81.8709 80.5105C82.3509 81.6005 83.1009 84.7405 83.1709 85.4805C83.2409 86.2705 82.3409 85.5005 82.6209 86.5905C82.7709 87.1905 82.8009 88.5605 83.7609 87.9505C84.1309 87.7105 83.2609 86.2805 83.0309 86.0105C83.9009 85.9705 83.6209 87.0905 84.4609 87.0905C83.2009 88.3105 84.8209 88.7805 84.8609 90.0505C84.5609 89.7905 84.3409 89.4805 84.2009 89.1105C83.9209 89.5005 83.9809 89.8305 84.4009 90.1005C84.8509 90.7105 85.3409 90.6005 85.8809 89.7605C86.4709 90.0705 85.5309 90.6705 85.5209 90.9905C85.8209 90.9405 85.9309 91.0605 85.8609 91.3605C86.7409 90.5205 86.8609 91.6505 86.7209 92.2805C87.1309 91.4105 87.3609 92.1205 88.1409 91.9605C88.0209 92.9805 86.9809 91.9605 87.0109 93.0605C87.8009 92.5205 88.0409 92.9905 88.8209 92.7005C88.7009 93.7905 87.8609 92.5605 87.5709 93.2005C87.9109 93.6805 88.3609 93.7805 88.9109 93.4905C88.8709 93.8805 87.6009 93.9105 88.1509 94.3705C88.8509 94.9605 89.2709 94.9105 90.2309 95.3705C90.1309 96.1905 89.9709 97.2705 91.3209 97.4705C90.9509 98.2805 90.4609 98.1705 89.8509 98.1905C89.9309 97.8205 90.1609 97.6105 90.5309 97.5305C89.8709 97.3605 89.3309 97.0105 88.9009 96.4705C88.9009 97.1105 89.1709 97.6205 89.6809 98.0005C89.6409 98.8905 88.2009 96.9705 88.0809 96.7405C87.9509 96.9105 87.8009 97.0505 87.6309 97.1805C87.1609 97.0805 87.9109 96.5205 87.7309 96.4005C87.8909 96.5105 86.1109 95.6705 86.6809 96.2005C86.3109 95.8605 86.0809 94.7905 85.3709 94.9905C85.3709 94.6305 86.0309 94.3005 85.7009 93.9605C83.9409 94.4105 84.7509 95.1805 84.6409 96.0505C84.8409 95.8904 84.9309 95.6905 84.9209 95.4305C85.4509 95.5105 85.7409 95.8205 85.7809 96.3505C85.0109 97.3405 84.2109 95.8005 83.5109 95.7505C83.5109 95.3905 84.1709 95.0605 83.8409 94.7205C81.6609 95.7405 80.9109 92.5505 79.7609 91.4905C80.1609 91.3205 80.5209 91.0905 80.8309 90.8005C81.1709 91.3005 83.7709 94.6805 83.7009 94.2605C83.6909 94.1705 81.9809 93.1605 83.4809 92.9705C80.9709 91.5205 83.3609 92.7705 83.1209 91.2105C81.5509 91.8005 83.1009 88.3105 80.1509 88.4805C80.2509 88.2305 80.4109 88.0105 80.6309 87.8405C81.1809 87.7905 79.9409 88.4705 80.9709 88.2105C80.8709 86.9705 79.7709 85.7005 78.4809 86.2305C78.7009 85.7805 78.8309 85.3005 78.8609 84.8005C77.7609 85.1705 78.4609 85.5505 78.0809 86.2705C77.3209 86.3305 78.2509 84.8305 77.2409 85.1505C77.2809 84.2605 78.4809 84.6105 78.4109 83.6505C78.2509 83.7405 78.1709 83.8805 78.1609 84.0705C77.1409 83.7705 76.7709 82.6605 76.2809 81.8605C75.7009 81.9405 75.3509 82.9305 75.9009 83.2905C75.7109 83.2405 74.0109 83.7705 74.1709 83.0505C74.2109 82.9605 74.9609 82.7505 74.9909 82.7705C74.9509 82.7505 74.6509 82.0905 74.6909 82.0005C74.3509 82.3605 73.9409 82.4605 73.4709 82.3105C73.4909 81.8805 73.7109 81.6605 74.1409 81.6505C74.1109 80.6805 72.8209 82.1005 72.8309 81.1705C73.0509 80.6505 73.9709 81.0305 73.9209 80.2705C73.6309 80.2305 72.4009 80.9305 72.3609 80.2205C73.2209 79.2805 73.3309 80.3105 73.4809 78.8505C73.6509 77.1005 72.2609 76.9505 71.1309 75.9605C72.2609 75.7105 70.0509 73.5605 69.9209 73.0805C70.4609 72.6105 70.8809 73.9405 71.6109 73.7205C71.4709 72.6005 69.6909 72.8705 69.9009 71.6905C69.4009 71.8105 69.7509 72.8505 68.9009 72.1005C68.4209 71.6805 68.6709 71.3005 68.2009 70.6005C67.4809 69.5205 66.5209 67.6805 64.9009 67.7805C65.0209 68.0605 64.9909 68.3305 64.8009 68.5905C63.0809 68.3005 64.3209 66.5005 64.9509 65.7805C64.4109 66.1205 63.9109 66.5005 63.4409 66.9305C63.0909 66.4705 62.8309 65.9605 62.6509 65.4205C62.7809 65.0805 63.6009 65.5605 63.8109 65.5005C63.8009 65.5305 62.7909 64.1004 62.7509 63.9005C62.6409 63.4104 62.9209 63.0905 62.9109 63.2005C63.1709 62.9305 62.3709 62.2905 62.1109 63.2805C61.5609 62.7705 61.7009 61.9605 61.3609 61.3705C61.0209 60.7805 60.2309 60.1705 59.9909 59.7005C59.8209 59.3705 59.9909 58.8305 59.8009 58.4705C59.6109 58.1005 59.1609 57.2605 58.8109 56.6105C58.4409 55.9205 58.0809 55.2205 57.7809 54.7205C57.3009 53.9205 56.4809 53.6905 56.4609 52.4305C56.4609 52.2205 57.7309 48.8705 58.0409 48.9105C57.3909 48.2805 55.7509 50.2105 55.8609 49.7505C55.0209 50.6505 53.7609 50.7305 53.0709 51.8405C52.8109 51.2005 52.5609 50.5705 52.3209 49.9205C51.4109 50.9305 53.4709 52.0305 52.3409 53.1105C51.9809 53.1805 52.2809 52.2105 52.2609 52.1205C51.6209 52.6605 51.2709 51.4905 50.5509 51.7005C51.1009 51.3705 51.3609 50.8805 51.3109 50.2205C50.8509 50.6604 50.3209 50.7905 49.7009 50.5905C49.7209 50.5205 50.0409 48.6705 49.2509 49.4405C49.2109 48.5105 49.3709 47.9805 50.2109 47.9405C49.9809 47.3705 49.5709 47.0105 48.9609 46.8705C49.0309 46.1705 50.0109 46.4705 50.0709 45.7505C49.1209 45.7905 48.6209 46.5305 48.2209 46.5505C47.7709 46.5805 46.0409 46.1105 46.5309 45.9305C45.7309 45.9505 46.3209 46.5705 46.2209 46.9605C46.0509 46.6605 45.8209 46.4104 45.5209 46.2405C45.6509 45.7105 46.4709 46.0405 46.4009 45.3505C45.8209 45.7305 45.6409 44.9105 46.0709 44.7905C44.4909 45.1705 44.2009 43.3005 44.2209 42.2005C43.0609 43.1505 43.2409 42.5205 43.0509 43.9205C43.4109 43.8605 43.5609 43.6405 43.5209 43.2705C44.5009 43.9005 44.5209 45.3405 44.9409 46.3105C43.9009 46.0704 44.2409 44.5605 43.2109 44.3005C43.4409 44.7905 43.5809 45.3105 43.6209 45.8505C42.7509 45.7105 43.3209 44.7805 42.1309 45.2205C42.4509 44.9205 42.6809 44.5605 42.8409 44.1505C42.5909 44.1005 42.3309 44.0605 42.0709 44.0305C42.1309 43.6705 42.3409 43.5205 42.7109 43.5605C42.7909 42.8305 41.3309 42.5305 40.8309 42.9705C40.8009 42.7505 41.3409 41.9805 41.3609 42.0205C41.2409 41.7505 40.9709 41.2305 40.8609 40.7805C40.7109 40.2005 40.5409 38.9305 39.7509 38.7005C39.9309 38.1205 40.1909 38.8305 40.5409 38.6105C40.5209 37.8005 39.4609 37.0205 39.0809 36.8605C39.2209 36.9205 36.6009 37.2405 36.5909 37.2505C36.4209 36.6105 37.5209 36.8605 36.8209 36.1305C36.2709 35.5505 35.8109 35.9805 35.4209 35.5905C35.5009 34.9105 36.5609 35.2605 36.8709 34.8305C37.3809 34.7105 36.5409 35.9905 37.3709 35.5705C37.8409 34.9005 36.8409 34.6905 36.6809 34.3905C36.3209 33.7405 36.7109 34.1705 36.6509 33.2505C34.7809 33.1105 33.9709 30.4305 32.6209 30.9005C33.4309 30.9205 32.5809 32.4605 33.6509 32.1805C33.3909 32.9105 32.8109 32.9705 33.0709 33.8405C31.7709 34.0905 32.6009 33.4205 32.3909 32.9105C31.5609 33.0905 32.3109 33.7105 31.8609 34.1705C32.4409 33.9805 32.6309 35.3505 33.3709 34.6005C33.3209 34.0305 32.8409 34.0605 33.4809 33.5905C33.9109 33.5905 33.4109 34.4805 33.9809 34.3305C33.7609 34.8205 33.2009 34.7505 33.4709 35.3805C34.4609 33.7205 33.3509 37.6605 33.3609 36.3905C33.9709 36.9505 34.4909 39.7105 34.0709 40.5005C34.6009 40.4405 35.1109 40.5205 35.6009 40.7305C35.5009 41.0505 34.2809 40.8905 34.7809 41.4105C34.7409 41.3605 35.3809 42.8005 35.3709 42.7505C35.4109 42.7305 36.7609 42.2305 36.8009 42.1905C36.3709 42.9705 36.9709 43.2305 35.8909 43.2905C35.9709 44.3205 36.9409 44.1705 36.6209 45.4005C37.7109 44.5605 36.9609 46.5205 38.1109 46.0405C37.3509 46.6405 38.2409 46.6605 37.7809 47.2705C37.1909 47.0405 36.9809 46.6005 37.1509 45.9505C35.8509 46.6505 35.8509 44.6005 35.8209 43.9005C35.4309 44.3005 34.9509 44.4805 34.3909 44.4605C35.8209 44.3005 35.5509 46.4505 36.3109 47.0605C37.5109 48.0205 39.0809 47.2205 39.4809 49.4805C39.7309 49.3905 41.3209 47.5305 41.2409 49.4805C40.5609 49.5805 40.6809 48.9305 39.9009 49.2305C39.8409 50.2105 42.2309 51.4905 40.2109 51.5905C40.6709 52.4705 41.6309 50.8705 41.9209 52.0005C42.1409 51.2405 42.5509 51.1305 43.1309 51.6705C41.8009 52.3105 42.9109 53.9104 42.9609 54.8805C41.2509 54.3105 40.8409 52.5105 39.4209 51.6805C38.7509 52.2605 39.8709 52.5005 39.8509 53.0305C39.1809 52.9105 39.2109 52.7205 38.4909 52.9805C38.9709 52.2105 38.3809 51.9105 38.9009 51.1405C38.1909 51.2105 37.7609 51.5905 37.6009 52.2805C37.1109 52.1505 37.7509 51.2805 37.7409 51.0705C37.3609 50.9605 36.9709 50.9405 36.5809 51.0005C36.6409 50.6405 36.7409 50.3005 36.8909 49.9705C36.3009 50.0704 35.9709 48.4705 34.7309 48.4105C34.4709 46.8405 36.6209 48.7405 37.1009 48.1505C36.4309 46.8905 36.0709 49.1005 36.2309 47.2505C35.5409 47.3305 35.2509 47.3005 35.3309 46.5505C34.8109 46.4905 33.8509 47.1105 33.3109 47.1705C33.2909 46.6405 34.4409 46.3805 34.2109 46.0205C34.1509 45.9305 33.9109 45.2005 33.9409 45.1005C33.6509 45.1005 33.5109 45.2605 33.5009 45.5505C32.8709 45.3405 31.2909 43.4505 30.9009 42.9705C30.0209 41.9005 29.9609 40.9405 28.8309 40.2805C27.5309 41.1705 27.8109 41.2705 27.3909 42.6305C28.8909 41.9005 28.7909 43.1905 30.0909 42.9305C29.9109 43.5705 28.8609 43.4005 28.4409 43.7105C28.2109 45.2805 30.4709 45.6405 30.2009 47.1005C29.6909 46.9105 29.2009 46.7005 28.7109 46.4705C29.1009 47.4505 29.1509 47.1205 29.4609 47.4305C29.6709 47.6405 30.5209 49.8905 31.2109 50.1805C31.1209 50.6305 30.8409 50.7905 30.3709 50.6705C30.2009 51.3105 30.8409 51.0805 30.8509 51.6105C31.2009 50.8005 31.2709 49.7005 32.0909 49.2805C33.5009 50.2605 31.8709 49.9405 32.1009 50.8705C32.3309 50.8905 33.1809 50.9505 33.2609 50.9405C32.8109 52.1505 31.9109 50.6105 31.5309 50.7305C33.1209 53.0805 35.0409 55.1805 36.6509 57.5205C37.1709 58.2705 38.5609 59.8705 38.7609 60.2305C38.9709 60.6105 40.1609 60.5305 39.4109 61.8205C39.9109 61.3605 40.4209 60.9105 40.9309 60.4605C41.6509 60.7505 40.7309 61.6105 41.5609 61.7905C41.4009 61.9905 41.2009 62.0805 40.9409 62.0505C41.2309 62.3805 41.5809 62.6205 41.9909 62.7805C42.5509 63.2105 42.4709 63.5305 41.7409 63.7505C41.9909 64.5405 42.6509 65.8105 42.5509 66.6705C43.0009 66.5805 43.1609 66.2905 43.0409 65.8205C43.5309 66.4005 43.3709 66.6705 43.6409 67.3505C43.7709 67.1205 43.9309 66.9005 44.1109 66.7005C44.3209 66.7905 45.8109 67.9305 46.1209 67.8805C45.9709 68.2505 45.6909 68.4205 45.2809 68.3705C45.6809 69.1605 47.2709 71.3705 46.4809 71.4305C47.2009 71.5305 49.8209 73.7005 48.9109 73.9605C49.4409 74.3005 50.0209 74.3705 50.6409 74.1805C50.7009 74.6905 50.4809 74.9105 49.9709 74.8505C51.3909 75.7405 51.1709 77.9905 53.3209 77.8805C53.1509 78.2305 52.9709 78.5805 52.8009 78.9305C52.6009 78.7205 52.3509 78.6105 52.0609 78.6105C53.2309 79.4005 54.7609 79.7805 55.2409 81.2805C55.9109 80.9005 54.8809 80.2205 55.9609 80.2105C55.9409 82.2005 56.6609 81.4605 56.8509 81.8205C56.5709 81.6805 56.3609 81.4605 56.2309 81.1805C56.7809 81.1805 57.2109 81.4105 57.5209 81.8505C57.1409 82.2205 56.7109 82.5305 56.2309 82.7705C57.9409 84.0105 59.4809 83.8505 58.9409 86.0905C59.3309 85.9305 59.7209 85.8905 60.1309 85.9705C59.3109 87.0305 60.5309 87.5705 61.2109 88.2505C60.9309 88.5705 60.7409 88.5305 60.6409 88.1105C60.2209 89.3405 62.2409 88.9205 62.7209 88.7005C62.8609 89.4305 62.1009 89.3505 61.6509 89.4005C61.6809 89.4305 64.8209 90.7105 63.8009 91.0105C63.4409 91.0905 63.3209 90.9605 63.4509 90.6205C63.1209 91.1905 63.1809 91.7205 63.6409 92.1905C63.6909 92.2205 62.4209 92.0605 62.2809 92.1305C62.1609 92.8205 62.8609 92.6805 62.9209 93.2605C63.0309 93.0105 63.9009 92.4505 63.9109 93.1605C64.0509 92.9805 64.0709 92.7805 63.9909 92.5605C64.6009 92.8705 65.2509 92.9405 65.9209 92.7705C66.0309 93.4805 65.1409 93.1605 65.1909 93.8305C67.1209 93.5505 66.3409 94.4605 67.6609 95.0805C67.8809 95.5005 68.2009 95.8305 68.6209 96.0805C68.8609 95.7005 69.2009 95.5405 69.6609 95.5805C69.3909 96.2705 68.5409 96.4205 69.0509 97.2305C68.6209 97.2705 68.3209 97.1005 68.1409 96.7205C67.1109 97.8705 69.8409 97.5705 69.7809 97.5605C70.0009 98.0205 70.0009 98.4805 69.7809 98.9605C70.1809 98.8505 70.5909 98.7505 70.9909 98.6505C71.5609 99.0005 70.3809 100.19 71.8109 99.7705C71.6609 100.1 71.5509 100.44 71.4809 100.8C71.0909 100.82 70.8509 100.64 70.7709 100.27C70.9409 102.86 74.0509 103.87 75.3009 105.83C74.9509 106.14 74.5309 106.31 74.0609 106.34C74.4109 107.33 75.1109 107.73 75.7609 106.78C76.8509 107.89 76.9509 110.08 79.1109 109.46C78.8409 110.25 78.4709 109.46 78.0709 109.95C78.4609 110.34 78.7909 110.77 79.0609 111.25C80.6709 110.69 80.1509 113.45 81.3909 112.83C81.1909 113.21 81.0709 113.62 81.0209 114.05C81.4309 114.2 82.1809 114 81.9009 114.77C83.3809 114.09 83.2109 116.6 84.5809 116.53C84.4609 116.84 84.2909 117.12 84.0709 117.37C85.1709 117.74 85.9509 119.1 85.9009 119.6C86.3109 119.36 86.7409 119.85 86.2409 119.97C86.9209 120.11 87.3109 120.54 87.4209 121.26C87.7309 120.79 88.0609 120.77 88.4109 121.18C88.2509 121.37 88.0409 121.45 87.7909 121.43C88.1709 121.93 88.5609 122.43 88.9409 122.93C88.2009 123.07 88.4909 122.41 87.7809 122.82C87.8309 123.25 88.0509 123.56 88.4309 123.76C88.0109 124.87 87.2509 122.77 86.8009 122.9C87.2709 123.14 86.7509 124.74 85.6309 124.19C85.8409 123.86 86.1409 123.64 86.5109 123.52C86.4809 122.69 84.3809 124.12 84.7409 122.28C85.2509 123.06 86.9009 122.4 87.0509 122.26C86.2509 123.05 87.6709 121.97 87.6809 122.24C87.7509 121.2 85.4009 119.45 84.6709 120.1C85.1109 120.57 85.6609 120.86 86.3009 120.96C85.6909 121.75 83.9809 121.76 83.4909 120.72C82.9809 119.62 84.3009 119.63 84.5109 118.52C83.8309 119.13 84.0209 117.76 83.2109 118.03C83.8209 118.31 83.8009 119.38 83.1809 119.62C83.3709 118.76 82.6509 119.12 82.3209 118.58C81.8809 117.84 82.9709 117.73 82.9609 117.05C81.0809 118.09 80.6409 116.8 78.6309 115.83C78.3409 116.65 79.0009 116.34 79.0609 116.98C78.2209 116.84 77.0909 116.14 77.7609 115.11C78.4109 116.57 79.0409 114.65 79.2009 114.59C78.5109 114.1 77.2309 114.44 77.8409 113.12C77.3409 113.3 76.8209 111.99 76.4809 113.04C76.1809 111.72 72.8909 109.67 74.0909 109.09C74.0109 108.59 73.3109 109.23 73.1009 109.18C73.2309 108.56 73.6009 108.19 74.2309 108.08C74.0109 107.38 73.3509 107.14 73.8809 106.32C73.2809 106.66 73.1609 107.43 72.3609 107.45C72.4509 107.87 73.2609 107.67 73.4309 107.46C73.1209 107.84 73.4509 108.96 72.1909 108.15C71.9109 107.97 71.3009 106.32 71.2709 106.04C71.1509 105.01 71.4209 105.75 72.2009 105.68C72.2409 105.04 70.9509 104.58 70.8409 105.6C70.3009 105.42 68.7809 104.6 69.1609 103.56C68.5609 104.03 67.8809 103.2 68.3109 102.65C66.8109 103.44 66.6209 101.57 65.5109 101.71C65.4509 101 64.6709 100.6 65.3609 99.9305C62.1809 100.23 64.8909 99.7105 64.9309 98.7805C63.3209 98.9005 64.0809 97.1905 62.0609 98.2605C62.2809 97.5205 63.3709 97.8305 63.4109 96.9405C61.9509 98.3705 61.7809 96.3105 61.2109 95.7605C60.8109 95.3705 59.9709 96.3305 59.6809 95.5105C60.4609 94.8105 60.1909 94.2005 61.6109 94.1305C61.5309 94.3705 61.4909 93.4705 61.4909 93.5505C61.0809 93.7205 60.6609 93.9005 60.2509 94.0705C59.8509 93.8105 59.8209 93.4805 60.1709 93.0805C60.0109 92.9105 60.1109 91.4405 59.2309 91.3905C59.0109 92.1505 59.3209 92.5605 60.0409 92.7005C59.7909 93.0705 59.6709 93.4805 59.6809 93.9305C59.3509 93.2905 58.9609 94.0005 59.0209 93.0005C58.4209 92.8205 58.7809 93.6605 58.1809 93.4805C58.3509 92.5405 57.3509 91.7205 56.9309 91.0205C56.4709 91.2305 57.2209 91.9405 57.4009 91.9705C56.7409 92.8405 55.9409 92.0405 55.7209 91.3405C55.9809 90.5905 56.3909 91.8205 56.5109 91.2605C56.6509 90.1805 55.7809 91.3505 55.6209 90.5505C56.6809 90.1905 54.3509 88.6205 54.6209 87.6705C53.7809 87.7205 52.9409 87.6705 52.1009 87.5205C53.0509 86.6605 50.9609 85.9605 50.3309 86.1105C50.2909 85.8405 50.3809 85.6305 50.6009 85.4805C50.5309 85.5105 49.2609 84.9805 49.2909 85.0105C49.3109 84.7905 49.3309 84.5605 49.3409 84.3405C48.8509 84.2005 48.3609 84.0705 47.8609 83.9605C48.4209 82.3105 48.4309 84.0405 47.3809 82.4205C46.9309 81.7305 45.8509 80.8405 45.1609 80.4705C45.4909 80.2605 45.5809 79.9805 45.4609 79.6405C44.4009 80.6705 44.6809 78.8905 44.8209 78.5205C44.4709 79.1405 43.3109 79.4305 43.0709 78.5005C43.5109 77.7205 43.6409 78.9705 43.9609 77.6105C43.7509 77.9405 43.4809 78.0305 43.1509 77.9005C43.3809 77.7705 43.5909 77.6105 43.7909 77.4305C43.5209 76.7005 43.1409 76.6005 42.6509 77.1505C42.0609 76.9105 43.3209 76.4305 42.7709 76.1405C41.9209 77.2105 40.9309 76.0605 41.1409 75.1205C40.1109 76.1605 40.6909 74.4305 40.8709 74.1505C40.7109 74.2605 37.2909 73.2305 37.2909 73.1405C37.4909 72.5205 38.2409 72.9705 38.6909 72.7905C38.2309 71.1205 37.3809 72.5305 36.7309 72.0505C36.4609 71.8605 35.5409 71.0105 35.2109 70.9705C35.6509 70.7404 36.1109 70.6905 36.5909 70.8205C36.5909 71.1105 36.4309 71.2605 36.1509 71.2605C36.2509 71.7905 36.9609 71.3405 37.2909 71.5405C36.7809 70.6805 36.6609 70.4605 36.9609 69.3905C36.5709 69.4905 36.2909 69.7205 36.1009 70.0805C36.5509 67.9305 31.3209 65.5005 30.5109 66.3005C30.6909 65.8805 30.9809 65.5905 31.4009 65.4105C31.5909 65.6405 31.6209 65.9105 31.5009 66.2005C32.0609 66.0705 32.0809 65.3205 32.7309 65.6705C31.7709 64.6205 31.1509 66.1505 31.2909 64.6305C30.7709 64.7005 31.0009 65.2305 30.6009 65.5005C29.9709 65.4205 30.3009 64.7505 29.4809 65.0305C30.1009 66.5205 31.4309 67.5705 32.0609 68.9605C32.9909 71.0005 32.0009 69.5205 32.3209 70.6905C32.6609 70.8605 32.9909 70.8205 33.3009 70.5905C33.0309 72.9705 31.0509 70.2705 30.8509 70.0805C30.2109 69.4604 29.5109 67.6205 28.8209 67.2905C28.7309 67.5605 28.0809 67.5704 27.4109 67.6505C27.5609 66.4305 27.2609 66.8904 26.6909 66.3005C26.0509 65.6305 26.7109 65.8405 26.5609 64.9605C26.0909 65.5305 25.7009 65.5105 25.4009 64.8905C25.3709 64.3505 26.3009 64.9604 26.0609 64.2205C24.8809 64.6004 24.1309 62.9105 24.0409 61.4605C22.9709 62.2505 23.7009 60.6305 22.7509 60.8105C22.9409 60.3105 23.3709 60.9205 23.7409 60.7005C21.9809 59.1905 22.5409 60.0005 20.5009 60.0605C21.9409 61.0704 21.2809 61.7105 21.1809 62.5705C21.7709 62.6005 22.1909 62.3605 22.4309 61.8305C22.7209 62.0105 23.0309 62.1005 23.3709 62.1205C22.7409 62.8005 23.5109 63.0605 24.0209 63.2405C23.8109 63.8205 23.0009 63.4705 22.5909 63.8005C22.8609 64.1505 23.1809 64.1805 23.5509 63.8905C23.3809 64.4405 23.4409 64.9605 23.7609 65.4605C24.1909 65.2005 24.6609 65.0805 25.1709 65.1005C24.6109 66.1605 24.4809 66.9105 24.7409 67.7105C24.6309 67.8605 24.5309 68.0205 24.4209 68.1705C24.9909 68.5405 25.4709 69.0105 25.8509 69.5705C26.4009 70.3305 27.1709 70.8805 27.6309 71.4105C28.3709 72.2705 31.2609 75.3305 30.8309 76.4205C31.9809 75.9605 31.8109 77.2005 31.8209 77.9005C31.0909 77.7905 31.3409 77.0605 30.4909 77.6505C31.7909 76.8705 29.0409 76.5905 28.8909 76.4305C29.2409 76.2305 29.4909 76.3305 29.6309 76.7505C30.0309 76.0705 28.4709 75.5105 28.2709 75.1105C28.0709 75.6905 28.7409 75.5005 28.5409 76.0805C27.9509 75.2005 26.9709 75.3105 26.1709 74.7405C26.1709 74.1605 27.2709 74.8605 27.0309 74.0505C25.8509 74.1805 25.2809 72.4405 23.7409 72.2205C25.6909 72.0304 22.1809 70.8405 23.0309 71.3205C23.3409 71.4905 21.5209 70.4805 21.6109 70.4805C21.7509 69.9805 22.0609 69.6205 22.5209 69.3805C22.6509 70.1405 18.3709 67.7305 19.8409 67.2905C18.7609 67.5305 17.7709 66.2105 17.5309 65.3605C19.1709 65.8605 18.9809 65.1705 18.8809 63.8205C18.6709 63.7505 18.1209 64.6805 18.0309 64.5805C18.2709 64.6704 18.5209 64.7505 18.7709 64.8205C17.8009 66.0505 16.6309 63.9605 16.1409 63.5705C15.6609 63.1905 14.2209 62.8305 13.7509 62.8005C13.8309 62.4305 14.0509 62.2105 14.4109 62.1305C14.0409 60.9005 12.3709 61.9305 14.1309 61.1705C13.5109 60.8705 12.9209 60.5205 12.3709 60.1205C11.8409 59.6905 11.6309 59.1405 11.7209 58.4605C10.3609 57.7905 10.8309 58.6305 9.95094 58.6605C10.1509 57.6905 8.48094 57.3105 8.48094 56.2405C8.93094 56.0205 9.24094 56.1205 9.42094 56.5305C9.79094 55.4905 7.94094 54.6705 7.93094 54.6405C8.21094 54.8505 8.29094 55.1305 8.18094 55.4805C7.89094 55.5105 7.12094 54.8705 6.87094 55.0305C6.71094 55.1305 5.83094 56.0405 6.22094 56.1205C5.49094 55.9705 5.66094 55.2105 5.43094 54.0005C6.26094 53.7505 5.70094 54.9205 6.52094 54.6705C6.50094 54.2805 6.48094 53.8805 6.46094 53.4905C6.19094 54.1604 4.99094 53.6005 4.73094 53.2905C4.79094 53.0605 5.68094 53.0405 5.36094 52.7705C5.32094 52.7405 5.08094 51.9105 5.09094 51.8605C4.88094 52.1205 4.72094 52.4005 4.60094 52.7105C3.60094 52.4805 3.56094 51.2905 2.66094 50.9405C2.52094 51.0905 2.94094 51.9305 2.89094 52.3105C2.75094 51.8905 0.930938 51.2305 1.17094 52.2005C1.46094 52.4605 1.78094 52.4605 2.12094 52.2005C2.30094 53.3305 0.310938 52.6205 0.210938 53.6105L0.420938 53.7605ZM28.0209 93.3905C28.8009 93.2605 28.6409 94.0605 28.8609 94.4905C28.1909 94.5205 28.0809 93.9905 28.0209 93.3905ZM50.0809 124.96C49.3809 125.16 49.1309 124.22 48.8709 125.28C48.1209 124.98 47.6809 124.43 47.5509 123.63C48.1509 123.45 48.3309 123.61 48.9509 123.3C48.8309 123.59 48.8609 123.85 49.0309 124.08C49.2009 123.96 49.3509 123.81 49.4809 123.64C49.6409 124.43 50.5309 123.82 50.0709 124.97L50.0809 124.96ZM268.641 308.41C269.271 308.49 269.731 308.02 269.511 308.87C269.141 309.15 268.421 308.98 268.641 308.41ZM281.951 297.81C282.681 298.23 283.241 298.21 284.081 298.18C283.851 298.76 284.061 298.97 284.701 298.83C284.511 299.4 284.221 299.91 283.841 300.37C284.661 300.54 284.981 299.8 285.381 299.29C285.701 300.39 284.261 301.16 283.401 301.14C283.811 299.85 282.191 300.32 281.801 299.66C281.121 298.49 282.141 299.34 282.451 298.86C281.801 298.71 281.631 298.36 281.951 297.82V297.81ZM228.861 239.52C228.141 239.49 228.421 238.68 227.911 238.49C228.671 238.49 228.881 238.91 228.861 239.52ZM201.871 210.12C202.151 209.6 201.501 209.03 202.171 208.73C201.841 209.46 202.861 209.8 201.871 210.12ZM182.871 186.69C182.981 187.04 183.631 186.94 183.271 187.68C182.731 187.78 182.271 186.99 182.871 186.69ZM64.7709 51.9105C64.3709 51.5305 63.9609 51.1705 63.9709 50.3905C64.2509 50.7705 65.2909 51.3205 64.7709 51.9105ZM65.0509 69.8605C64.5309 70.3305 63.1109 68.5905 64.0909 68.1505C63.9609 69.1704 65.2309 68.7905 65.0509 69.8605ZM35.9009 36.4105C36.1409 36.2305 36.4109 36.1405 36.7209 36.1205C36.7409 36.3805 36.7809 36.6505 36.8309 36.9105C36.2309 37.1705 35.9309 37.0005 35.9109 36.4105H35.9009ZM59.4609 95.7005C58.6309 94.9205 58.3109 94.5205 57.7709 93.6805C58.7509 93.9405 59.2509 94.6805 59.4609 95.7005ZM42.7209 78.3105C42.5209 77.9705 41.6509 77.3905 42.1009 76.9805C42.3809 77.2405 43.3009 77.7705 42.7209 78.3105ZM34.9209 68.5905C34.7709 68.7605 33.6809 69.2405 33.9609 68.5005C34.0909 68.0405 35.0609 68.1905 34.9209 68.5905ZM5.14094 55.0005C4.95094 54.8505 4.75094 54.8705 4.55094 55.0705C4.90094 54.2905 4.30094 54.7405 4.04094 54.3805C3.43094 53.5504 6.11094 53.9805 5.14094 55.0005ZM14.6409 70.4305C14.3709 70.2205 13.7809 70.3505 13.9509 69.7105C14.9009 69.5105 14.6409 70.3405 14.6409 70.4305ZM23.0409 86.3805C22.5809 86.7905 22.0309 86.2205 22.1809 85.4805C22.9209 85.3305 22.9409 85.8905 23.0409 86.3805ZM25.4309 89.1005C24.8609 89.0705 24.3109 88.1205 24.8409 87.5705C24.8909 88.2205 25.6809 88.1405 25.4309 89.1005ZM30.3509 47.3905C30.8609 48.0605 31.7909 48.3205 32.0909 49.1905C30.9709 49.2105 30.2009 48.0705 30.3509 47.3905ZM25.4509 104.55C24.9109 105.01 24.3209 104.38 24.3909 103.68C25.2909 103.42 25.4409 103.92 25.4509 104.55ZM28.8009 77.4105C28.5309 77.0905 27.8709 77.1605 27.9409 76.5105C28.5009 76.4305 29.4209 76.9005 28.8009 77.4105ZM32.3409 45.3705C32.5409 44.9005 31.5009 44.8305 32.2609 44.3805C32.3909 44.7304 33.2409 44.9705 32.3409 45.3705ZM33.2809 45.6705C33.0409 46.0805 33.9509 47.0605 33.0909 47.2805C32.8309 46.9205 31.6809 45.5005 33.2809 45.6705ZM33.5009 48.8305C33.1509 48.5905 32.4509 48.7005 32.6309 47.9305C33.4709 47.6805 33.6109 48.1305 33.5009 48.8305ZM33.5909 71.5205C33.8409 71.6305 34.0809 71.7305 34.3309 71.8405C34.0009 71.8205 32.7409 72.9605 32.5309 72.2305C32.7709 71.7905 33.5509 72.0505 33.5909 71.5205ZM36.5409 51.2905C36.2809 51.3205 36.0109 51.3505 35.7509 51.3805C35.8509 50.4905 36.2309 50.6705 36.5409 51.2905ZM37.9409 38.9805C38.5609 38.0505 37.5309 38.6705 37.4609 38.0405C38.1209 37.2505 39.1409 38.9305 37.9409 38.9805ZM35.7109 73.2905C35.8009 74.3605 37.5109 74.0405 36.8209 75.3605C37.4209 74.8405 38.1109 75.3105 38.1109 76.0205C37.2409 75.3805 36.1509 76.1705 35.2009 75.9305C35.8409 74.4905 33.2609 74.1805 33.7609 73.3005C33.9109 73.6205 34.1009 73.6605 34.3309 73.4405C33.8709 73.2105 33.6509 72.8405 33.6909 72.3105C34.2009 72.1805 34.5309 74.4405 35.7209 73.2905H35.7109ZM31.8909 96.5305C31.3209 97.0805 30.9709 96.4205 30.7809 96.0505C31.2509 95.6105 31.8609 96.0005 31.8909 96.5305ZM35.3509 69.7405C35.3009 70.1305 34.5309 71.1905 34.5109 70.2305C35.1109 70.4105 34.7509 69.5605 35.3509 69.7405ZM40.0009 43.1405C38.9309 43.4705 39.5509 41.3205 39.4409 41.2105C40.7809 41.0405 39.6109 42.5505 40.0009 43.1405ZM38.8509 54.8205C38.2509 54.8905 37.5409 55.0805 37.7309 54.3405C38.0309 54.5705 39.0009 54.1305 38.8509 54.8205ZM39.5609 46.9705C39.8609 46.0505 41.8409 46.0605 41.1809 47.1505C40.7609 47.8405 40.3709 46.6305 39.5609 46.9705ZM39.3009 80.6505C39.9809 79.9305 38.7409 80.2605 38.5609 80.3305C38.2309 79.8605 37.7509 78.0105 36.5109 77.9705C36.6009 77.6805 36.7409 77.4205 36.9209 77.1905C36.2809 77.3505 36.2009 77.1305 36.6609 76.5305C36.9509 76.0305 37.2209 76.0105 37.4709 76.4805C37.1809 76.4805 37.0409 76.6405 37.0309 76.9205C38.1409 75.9105 39.2009 77.0305 39.8609 77.6705C39.7409 77.5605 41.0109 79.4205 41.0309 79.2905C40.3009 79.7505 39.2909 79.2305 38.9809 78.5105C38.8809 78.7005 38.7509 78.7205 38.5909 78.5505C38.9309 79.0005 39.3209 79.6305 39.5009 79.8505C39.8909 80.3105 41.0509 79.2405 40.8609 80.7005C40.2009 79.9905 40.0009 80.6505 39.3109 80.6605L39.3009 80.6505ZM39.8009 55.1105C39.9909 54.8505 40.2109 54.6305 40.4609 54.4405C40.2009 54.9905 41.1609 55.7105 39.1309 55.7805C39.0009 55.2005 39.2209 54.9805 39.7909 55.1105H39.8009ZM33.2609 114.4C33.0509 114.88 32.0209 114.72 32.3309 114.1C32.6909 114.15 33.5509 113.7 33.2609 114.4ZM36.5309 102.77C35.5709 103.32 35.6409 101.36 35.8709 101.85C36.0109 102.23 36.7009 102.08 36.5309 102.77ZM42.9309 49.9805C42.6709 50.0105 42.4009 50.0405 42.1409 50.0705C42.2809 49.4705 43.1009 49.2205 42.9309 49.9805ZM43.8109 55.8705C42.6709 55.9105 42.6309 57.7505 42.1309 55.2505C42.6709 55.5105 43.2309 55.7105 43.8109 55.8705ZM43.3309 49.9405C43.7709 49.7405 44.1309 49.4305 44.4109 49.0305C44.3909 49.2405 44.4709 51.0905 44.1609 51.2505C44.1509 50.8805 42.5809 49.2605 43.3309 49.9505V49.9405ZM43.8309 59.0605C44.4809 58.1105 43.2909 58.4305 43.2009 57.7305C44.4209 56.9605 44.9209 58.4605 43.8309 59.0605ZM44.3009 60.0105C44.3409 60.2905 44.2609 60.5205 44.0509 60.7105C43.9109 60.9805 45.2209 60.0905 45.0609 60.1305C44.9809 60.8105 43.3409 62.0005 43.3909 61.1005C43.6809 61.1005 43.8309 60.9505 43.8309 60.6605C43.4809 60.7205 43.1409 60.8204 42.8209 60.9705C42.8209 60.1705 43.8509 60.3105 44.3009 60.0205V60.0105ZM43.8509 65.4405C43.0109 65.5105 42.6609 65.1004 42.8309 64.1505C43.5409 64.2005 43.7809 64.7305 43.8509 65.4405ZM44.7409 51.1805C45.5009 51.3705 45.1409 52.5005 45.9409 52.6505C44.5609 52.8204 44.7009 51.9505 44.7409 51.1805ZM42.6709 81.6805C42.4109 81.7105 42.1409 81.7305 41.8809 81.7605C42.3409 80.4005 41.1109 81.7205 41.2609 80.4405C41.9409 80.6205 42.4109 81.0305 42.6709 81.6805ZM45.7709 54.0605C45.7509 53.5405 45.2509 53.5105 45.3109 52.9105C45.9209 52.7305 46.3409 53.6505 45.7709 54.0605ZM40.1109 107.94C39.3509 107.77 39.3909 106.79 38.7409 106.5C39.6309 105.94 39.9309 107.24 40.1109 107.94ZM46.9409 48.9505C47.5709 47.9505 49.2909 48.7905 47.5909 50.0805C49.6109 49.4505 49.4609 51.7805 49.7909 53.0505C48.9209 53.3705 48.3109 51.6805 48.0509 51.2305C47.9209 52.6905 46.6009 51.0905 47.7009 50.8705C46.7509 50.3505 45.6309 49.4805 46.2509 48.2305C46.3609 48.9305 46.6609 48.4405 46.9509 48.9505H46.9409ZM46.3609 58.9905C45.6709 59.4104 45.2009 59.5705 45.0209 58.7305C45.5909 59.3605 45.8609 58.2905 46.3609 58.9905ZM46.8409 51.5505C46.8809 51.9205 47.2109 52.0105 47.1209 52.5205C46.4809 52.6605 46.0909 51.7705 46.8409 51.5505ZM43.8809 82.9405C44.0509 83.7505 44.9209 84.9305 46.1309 85.2805C45.9009 85.5205 45.6209 85.6805 45.2909 85.7605C45.5109 83.6305 43.4709 85.6005 42.9709 85.6105C42.7909 85.1705 42.7109 84.7205 42.7509 84.2405C43.1809 84.3905 43.6309 84.4705 44.0809 84.5005C44.3709 83.9305 43.4709 83.4605 43.8809 82.9305V82.9405ZM43.5809 83.7705C42.9509 83.8105 42.7709 83.4105 42.9409 82.6505C43.4909 82.6905 43.4109 83.3605 43.5809 83.7705ZM48.2209 54.8105C48.3409 55.2705 47.5409 55.5205 47.4609 55.5805C46.8509 55.9905 47.2209 53.6604 48.2209 54.8105ZM40.7609 114.8C40.2609 114.83 39.7509 114.86 39.8609 114.3C40.4909 114.14 40.6309 114.47 40.7609 114.8ZM48.0209 69.7805C47.9209 70.0605 47.8309 70.3305 47.7309 70.6105C47.1709 70.3005 46.5809 70.1405 46.7109 69.3205C47.4409 69.1305 47.2709 70.0005 48.0209 69.7805ZM49.6509 39.5005C49.6909 40.3805 50.7609 40.3105 50.8209 41.1805C50.6809 40.9605 48.2009 39.9705 49.6509 39.5005ZM49.3009 44.1305C49.5609 44.1005 49.8309 44.0705 50.0909 44.0505C50.0209 44.4505 49.8409 44.8005 49.5709 45.1005C49.7709 44.5205 49.1009 44.7105 49.2909 44.1305H49.3009ZM50.4309 37.8305C50.8609 37.6405 50.4309 36.6405 51.1409 36.7605C51.6309 37.2505 50.4409 37.9505 50.3009 38.0505C49.6409 38.5205 49.5009 37.2505 49.9209 37.0905C50.1309 37.3105 50.3009 37.5605 50.4209 37.8405L50.4309 37.8305ZM47.1009 70.4305C46.9809 69.7905 46.3109 70.5505 46.2109 69.7205C46.8809 69.4805 47.7909 69.9005 47.1009 70.4305ZM51.3209 46.9105C50.9309 46.6505 50.4109 46.5205 50.2509 46.0305C51.1009 45.8205 51.1009 46.4805 51.3209 46.9105ZM44.4409 102.81C44.0709 102.76 43.6009 102.82 43.7309 102.29C44.1509 101.86 44.7009 102.08 44.4409 102.81ZM51.7109 51.8505C51.5409 51.3705 51.0009 51.2605 51.0909 50.5205C51.7909 50.3705 52.1009 51.5005 51.7109 51.8505ZM48.9909 72.4205C49.4709 72.7605 49.6709 73.3805 49.9709 73.9105C49.1409 74.0005 47.9709 73.0605 48.9909 72.4205ZM56.6009 38.5805C55.8909 38.6205 56.5009 38.7805 56.3309 39.2105C55.6509 39.4605 56.1709 38.5705 55.6109 38.6905C55.6509 38.5705 55.5509 42.2005 54.9509 40.9605C55.8709 40.6005 54.3709 39.7305 54.4409 39.8705C54.0709 39.1105 54.1509 38.0805 53.6009 37.5105C53.4209 37.7105 53.2709 37.9305 53.1309 38.1605C52.9709 36.7805 54.1309 36.6105 55.1209 36.1605C55.1209 36.2805 54.2809 37.3305 54.9809 37.3705C55.1009 35.6405 55.6809 37.3105 56.2609 36.4405C57.1209 37.4005 56.0909 37.1005 55.9509 37.4705C56.1709 37.8505 56.3809 38.2205 56.6009 38.6005V38.5805ZM55.4409 45.0805C56.2409 44.2505 57.2309 47.3505 56.8609 47.9205C56.5509 47.6405 56.2909 47.3204 56.0809 46.9705C55.8809 46.4505 55.4909 46.4005 54.9009 46.8105C54.3609 46.7005 53.4409 48.0705 53.0709 46.9105C53.9709 47.0305 55.8909 46.3005 55.4409 45.0705V45.0805ZM47.9809 105.22C47.7709 105.59 47.0209 105.25 47.1109 105.9C47.6509 105.9 48.1309 105.71 48.5409 105.36C48.1809 106.78 47.4209 106.34 45.9909 107C46.1709 105.91 46.0609 105.45 45.7609 104.45C46.5109 104.44 47.5009 104.52 47.9809 105.22ZM51.0409 74.6005C50.4509 74.9105 50.0409 74.7305 49.9309 74.1105C50.4109 74.1605 50.6909 74.4105 51.0409 74.6005ZM55.8009 35.2705C55.4209 35.3305 55.5909 35.9505 55.1409 35.9405C54.5909 35.6505 55.5709 34.6605 55.8009 35.2705ZM51.5009 75.5505C51.6909 75.9405 51.5909 76.2105 51.2009 76.3805C51.0009 76.1605 50.9109 75.9105 50.9109 75.6105C51.1109 75.5905 51.3109 75.5704 51.5009 75.5505ZM58.7209 33.0105C58.6709 34.0205 57.5309 33.5105 57.5509 32.9305C58.1709 32.7205 58.0909 33.2205 58.7209 33.0105ZM60.5409 12.9005C60.7209 13.0705 60.6009 13.9205 60.0209 13.9505C60.0509 13.4505 60.1009 12.9705 60.5409 12.9005ZM56.8309 48.1305C56.2709 48.2405 57.1009 48.4705 57.1509 48.6905C56.5609 48.8005 56.2009 48.5705 56.0709 48.0005C56.3609 47.8905 56.6109 47.9305 56.8309 48.1205V48.1305ZM58.6909 45.7605C58.7909 45.0705 57.7209 45.5505 57.8309 44.8505C58.4509 44.7205 59.3109 45.2505 58.6909 45.7605ZM64.3209 0.110454C63.7409 0.400454 64.4809 0.670455 64.6909 0.270455C64.6309 1.51046 63.4709 0.960455 63.1309 0.230455C63.5109 -0.0295449 63.9109 -0.0695458 64.3209 0.110454ZM57.1709 84.7405C56.5409 84.8905 56.6909 84.2905 56.5009 84.0205C57.1309 83.8705 57.3509 84.1105 57.1709 84.7405ZM63.8609 38.8705C63.3309 38.9805 63.2509 38.6505 63.3709 38.1205C63.9009 38.0105 63.9809 38.3405 63.8609 38.8705ZM61.8009 56.5705C61.8509 57.3305 60.7509 57.4405 61.0109 56.6505C61.5509 56.6105 61.4509 56.2805 61.8009 56.5705ZM64.7709 40.9705C65.6009 40.9105 66.2409 41.9905 65.7309 42.6705C65.9809 41.6705 64.9309 42.0205 64.5009 41.6005C64.8509 41.4805 64.4409 41.2105 64.7709 40.9805V40.9705ZM60.9009 89.9005C60.3909 89.6505 59.8709 89.4105 59.9209 88.6105C60.5609 88.7005 61.4409 89.2105 60.9009 89.9005ZM70.2109 10.0905C70.2109 9.73046 69.6309 9.03045 70.1809 8.69045C70.5509 8.69045 70.7109 9.80046 70.2109 10.0905ZM71.4009 26.9605C71.1709 27.6805 71.6709 27.8705 71.6009 28.5405C70.9309 28.6105 69.6809 27.9405 70.0209 27.1005C70.4909 27.1605 70.9509 27.1205 71.4109 26.9605H71.4009ZM68.3809 55.5205C68.4509 56.2205 68.1509 56.5905 67.4509 56.6005C67.5509 56.1205 67.4809 55.6605 67.2409 55.2305C67.9309 54.9705 67.7609 55.6705 68.3809 55.5205ZM75.6009 17.5505C74.8909 17.6005 74.2509 17.5805 74.0909 17.0905C74.7909 17.0505 75.7009 16.7905 75.6009 17.5505ZM72.8909 38.5805C72.3609 38.6905 72.2709 38.3605 72.4009 37.8305C72.9309 37.7205 73.0109 38.0505 72.8909 38.5805ZM74.5409 31.6405C73.8809 31.6405 73.3509 31.5205 73.4709 30.7405C74.1209 30.7405 74.2609 31.2605 74.5409 31.6405ZM74.7809 36.0105C74.8009 36.9405 75.8609 36.7705 76.1709 37.4705C75.4909 37.7805 73.7309 36.5905 73.7709 36.3005C74.1109 36.2005 74.4509 36.1005 74.7809 36.0105ZM74.1409 51.7905C73.2409 51.7905 72.8609 51.2905 72.5209 50.7505C73.4609 50.7005 73.7909 51.2605 74.1409 51.7905ZM78.6009 18.6605C78.2109 18.6305 77.9109 18.4605 77.6809 18.1505C78.0909 17.8105 78.5109 17.5005 78.9709 17.2305C78.8809 17.7205 78.7609 18.1905 78.6009 18.6605ZM76.7609 17.6405C77.1209 17.0305 76.7209 16.8605 76.7309 16.2405C78.0609 17.2105 79.9609 16.6605 76.7609 17.6405ZM77.6809 19.7505C77.9109 19.2105 76.8009 19.0105 77.4309 18.5705C78.8209 19.9405 76.9709 21.2105 76.4909 19.8605C76.8909 19.7605 77.4109 20.3305 77.6809 19.7405V19.7505ZM77.3909 35.5605C77.3909 35.0905 76.7409 35.2505 76.9209 34.6105C77.4609 34.4405 77.8309 35.3405 77.3909 35.5605ZM76.3509 34.4605C76.8609 34.4605 76.6009 33.6605 77.2209 33.7805C77.4009 34.3805 76.5109 34.9805 76.3509 34.4605ZM76.2209 38.6605C77.4209 38.3605 77.3309 39.4005 77.6009 40.1205C77.1909 40.0305 76.8009 40.0705 76.4109 40.2305C76.8009 39.6205 76.6309 39.3705 75.9209 39.4805C76.0209 39.2105 76.1209 38.9305 76.2209 38.6605ZM73.5309 69.3405C73.0509 69.4905 72.5509 69.0604 72.1509 69.4705C72.1509 69.5105 72.1009 68.6805 72.0409 68.8805C72.7509 68.4705 73.2409 68.6205 73.5409 69.3405H73.5309ZM68.4409 96.6905C68.4909 97.0905 68.9709 97.0305 68.5109 97.4705C67.8209 97.6805 67.8609 96.7705 68.4409 96.6905ZM79.0209 20.0205C78.7109 19.7905 78.5609 19.4105 78.5709 18.8605C79.3809 18.4905 79.2809 19.9105 79.0209 20.0205ZM75.4809 63.6105C74.8609 63.5105 74.5209 63.1505 74.4609 62.5105C75.0809 62.6005 75.4209 62.9705 75.4809 63.6105ZM81.6209 24.3705C81.4309 24.2205 81.2309 24.2405 81.0209 24.4205C80.7309 23.9005 81.3509 23.2605 80.3709 23.2805C79.8909 23.6705 80.6309 24.0905 79.8509 24.3305C78.0609 22.5505 82.6509 22.6205 81.6109 24.3605L81.6209 24.3705ZM76.9709 56.9105C77.2309 57.6005 78.2209 57.1905 77.9709 58.2105C77.2609 58.3005 75.5609 57.2205 76.9709 56.9105ZM80.1709 39.8805C80.3109 40.1005 80.3609 40.3905 80.2409 40.8705C79.4909 41.1305 79.5809 39.9605 80.1709 39.8805ZM82.8109 25.8605C82.1009 26.3805 81.8709 26.1405 82.1109 25.1305C82.6109 25.1105 82.8509 25.3605 82.8109 25.8605ZM81.6709 41.9305C81.3709 41.6905 80.4009 42.1205 80.5509 41.4405C81.1609 41.3705 81.5409 41.5305 81.6709 41.9305ZM82.2609 46.4705C81.5209 46.6205 81.8009 45.9605 81.1009 46.3705C81.2109 45.0905 82.4509 45.4605 82.2609 46.4705ZM80.6009 44.2205C80.4709 45.0505 81.7309 44.5205 81.4009 45.5405C80.4609 45.8605 80.0409 44.7805 80.6009 44.2205ZM82.6909 28.4705C81.8809 28.8005 82.1609 28.0505 82.2209 27.5205C82.8309 27.3905 82.5509 28.1405 82.6909 28.4705ZM82.4409 43.6605C81.7609 43.8605 81.8509 43.3005 81.5309 43.1405C82.0509 42.6305 82.5909 43.0005 82.4409 43.6605ZM84.3709 43.8905C83.7009 43.7205 83.1009 43.8405 82.5609 44.2505C81.5509 43.2305 83.7909 43.4805 84.0209 43.5205C83.8609 43.2905 83.8909 43.0905 84.1009 42.9105C85.0309 43.2805 85.0509 45.0805 83.8409 44.9305C83.8809 44.5105 84.0609 44.1605 84.3709 43.8905ZM84.4209 46.4805C83.4009 46.3005 82.8909 45.6205 82.4809 44.8505C83.6109 43.8905 84.1909 45.4905 84.4209 46.4805ZM85.9009 24.7805C85.2609 24.5205 85.1009 23.7905 84.7109 23.2905C85.3909 23.5105 85.9509 23.8505 85.9009 24.7805ZM85.1509 30.8405C84.8209 31.1005 84.2209 31.6305 84.1609 30.9305C84.2909 30.8005 85.1609 30.3705 85.1509 30.8405ZM87.1209 27.6605C87.3509 28.4705 86.2509 27.7505 86.2509 28.3405C86.2509 28.8905 87.2009 28.3105 86.9409 29.0705C86.0609 29.0905 85.7509 28.4405 85.3309 27.8205C85.9109 27.4705 86.4609 28.0205 87.1209 27.6505V27.6605ZM83.7609 48.5405C85.0109 48.4605 84.5809 50.1205 83.6909 50.5405C83.8709 49.8205 84.1509 49.6605 83.7609 48.5405ZM85.3109 47.2105L84.3209 47.3005C84.5509 46.4305 85.4609 46.9205 85.3109 47.2105ZM87.1509 35.2405C87.0309 35.6905 86.7409 35.9105 86.2809 35.9205C86.2009 35.7305 86.1609 35.5405 86.1609 35.3305C86.4909 35.3005 86.8209 35.2705 87.1509 35.2405ZM88.2609 31.1505C88.0409 31.7605 87.6309 32.1505 86.9409 32.2705C86.9409 31.4405 87.8809 30.8705 88.2609 31.1505ZM86.1209 45.5305C86.8909 45.2905 86.7009 46.3705 86.3609 46.7105C85.4209 46.7705 86.1609 46.2805 86.1209 45.5305ZM89.8509 32.6005C89.8809 32.8605 89.9109 33.1305 89.9509 33.3905C89.1809 33.1905 89.5609 32.6905 88.6109 33.1105C89.1409 32.3305 88.3209 32.4905 88.3909 31.7305C89.1509 31.7105 89.0809 32.6405 89.8509 32.6005ZM91.1409 36.2905C91.3709 34.9405 89.3309 34.8805 89.8909 33.7905C90.3409 34.3805 92.4209 35.1605 91.1409 36.2905ZM90.6209 35.7305C90.3809 35.9705 90.1009 36.1305 89.7809 36.2105C89.6509 35.9605 89.6209 35.6905 89.6909 35.4205C90.0709 35.5905 90.4809 35.2205 90.6309 35.7405L90.6209 35.7305ZM93.9709 38.6405C93.7609 39.2205 94.4409 39.0405 94.2409 39.6205C93.8009 39.6605 93.5009 39.4905 93.3209 39.1005C93.5409 38.9605 93.7609 38.8105 93.9709 38.6505V38.6405ZM94.3809 57.1705C94.0309 56.9005 92.6409 56.4605 93.7709 55.8305C93.5509 56.5805 94.8809 56.7305 94.3809 57.1705ZM91.2709 77.9205C91.3509 78.6405 90.1809 78.8005 90.2509 78.2005C90.7109 78.2405 90.7309 77.8005 91.2709 77.9205ZM94.6909 56.3505C93.0809 56.6805 95.3209 54.5605 95.4209 55.3005C95.1209 55.6105 94.8709 55.9605 94.6909 56.3505ZM95.9609 55.6505C96.0809 56.4305 94.8909 56.8005 94.9109 56.1405C95.1809 55.8905 95.3509 55.5305 95.9609 55.6505ZM97.7409 46.7305C97.3609 47.6205 98.4609 47.0905 98.1809 47.8905C97.5009 47.7505 96.9509 47.4005 96.5509 46.8305C96.9309 46.8005 97.3709 46.7005 97.7409 46.7305ZM96.8609 54.7805C96.6009 54.8005 96.3309 54.8205 96.0709 54.8505C96.1009 54.6505 96.1209 54.4505 96.1509 54.2405C96.6209 54.1405 96.8609 54.3205 96.8609 54.7805ZM96.1509 58.6205C97.1609 58.5405 96.1509 59.3905 96.5609 59.9805C96.0809 59.8505 95.7409 59.0705 96.1509 58.6205ZM96.7009 60.3605C96.1109 61.7405 95.5809 60.6405 95.9009 60.4305C95.8709 60.9105 96.6009 60.4105 96.7009 60.3605ZM94.1909 80.6705C93.9809 80.3805 93.9009 80.0605 93.9409 79.7005C95.2809 80.8605 96.6009 82.1005 97.2509 83.8005C96.1109 84.2105 96.9709 82.6805 96.0109 82.9005C96.1909 83.2905 96.0809 83.5605 95.6909 83.7205C95.4009 83.4105 96.0109 81.1205 94.4609 81.4405C94.7509 81.7805 94.8309 82.1705 94.6809 82.6105C94.3709 82.5205 94.0509 82.4805 93.7209 82.4905C93.6409 82.2005 94.5209 81.6505 94.0709 81.4705C93.5309 81.4505 93.8109 82.2705 93.1909 82.1405C91.8909 81.5405 94.0709 80.8905 94.1909 80.6705ZM97.7409 57.0905C97.6809 57.3805 99.0909 60.4405 97.0409 59.3405C97.0909 58.8505 97.3309 58.5005 97.7709 58.2805C97.4609 57.9905 97.0909 57.8205 96.6609 57.7805C96.7809 57.2105 97.1409 56.9805 97.7409 57.0905ZM99.3909 49.1805C98.7309 49.2305 97.9709 49.3805 98.0809 48.6905C98.5509 48.8205 99.4709 48.5205 99.3909 49.1805ZM96.6609 64.9505C96.4009 64.9705 96.1309 64.9905 95.8709 65.0105C96.0109 64.3405 96.8809 64.0805 96.6609 64.9505ZM101.921 65.1305C102.021 65.3205 102.131 65.5105 102.231 65.7005C100.991 65.6005 102.141 63.9205 101.981 63.3205C100.071 63.4705 101.511 62.4705 100.181 61.4905C99.0509 60.6604 98.9209 61.7405 97.7309 61.4605C98.5209 60.6105 97.1109 61.3705 97.2709 60.5005C98.2809 60.5005 99.2709 60.6105 100.251 60.2605C99.8109 61.7805 101.891 61.8305 102.691 62.4705C102.301 62.3904 101.961 62.4705 101.671 62.7505C102.161 62.9405 102.661 63.1005 103.171 63.2305C103.011 63.0005 103.041 62.8005 103.251 62.6205C103.191 63.2205 104.631 63.5105 104.011 64.1605C103.861 63.1705 102.331 63.8305 102.201 64.5005C102.951 63.8605 103.871 65.2505 103.391 65.8005C103.111 65.4405 102.491 64.1505 101.921 65.1205V65.1305ZM103.401 64.4205C104.031 63.7705 104.921 64.9105 104.621 65.5205C103.991 65.4005 103.581 65.0305 103.401 64.4205ZM99.1709 49.4005C99.7509 49.7205 100.111 50.2505 100.351 50.9005C99.7209 50.6805 98.6709 50.1604 99.1709 49.4005ZM98.7409 57.0005C98.7009 56.6905 98.1409 56.8805 98.4509 56.2305C99.1709 55.8005 99.1909 56.8805 98.7409 57.0005ZM100.031 59.0805C99.5109 59.1605 98.7009 58.6305 99.3709 58.1405C99.4409 58.6005 99.9609 58.6205 100.031 59.0805ZM101.241 51.6105C100.901 51.9405 100.211 51.7105 100.321 51.0905C100.961 50.9405 101.101 51.2705 101.241 51.6105ZM97.8509 85.1305C97.2709 85.5505 97.2609 84.6605 96.6309 85.4205C96.5309 84.6505 97.9309 84.5205 97.8509 85.1305ZM98.8909 86.0405C98.4809 86.4305 97.7909 86.0105 97.3009 86.1605C97.4909 85.6805 98.9409 85.0105 98.8909 86.0405ZM102.221 61.7105C101.921 61.5705 100.871 61.2805 101.571 60.7605C101.701 61.1605 102.291 61.1205 102.221 61.7105ZM104.121 56.5605C103.591 56.6604 103.271 56.5605 103.411 56.0205C103.941 55.9205 104.251 56.0205 104.121 56.5605ZM104.461 66.7205C104.691 66.9705 104.911 67.2205 105.141 67.4605C104.641 67.7805 104.181 67.7405 103.781 67.3605C103.971 67.1105 104.201 66.8905 104.461 66.7105V66.7205ZM105.221 69.6505C105.101 70.2905 104.601 71.1105 103.661 70.9705C103.561 69.7605 103.671 69.7905 105.221 69.6505ZM106.251 66.5905C106.271 66.9105 106.171 67.1905 105.941 67.4105C105.711 66.6105 104.691 67.0005 104.981 65.8905C105.541 65.9905 105.651 66.7405 106.251 66.5905ZM103.031 89.8705C105.121 90.2005 102.081 92.3505 102.091 90.9305C102.861 90.9305 103.181 90.5805 103.031 89.8705ZM100.681 108.7C100.461 108.26 100.571 107.92 101.021 107.68C99.7909 107.53 99.1209 106.07 99.6409 105C99.8209 106.13 100.821 106.87 101.911 107.02C101.501 107.25 101.251 107.6 101.171 108.07C101.501 107.65 101.831 107.62 102.161 108C102.091 108.28 101.931 108.49 101.671 108.63C102.411 108.26 102.021 108.61 102.411 108.97C102.661 108.17 103.891 109.31 102.591 109.42C101.321 109.52 101.761 108.21 100.681 108.7ZM103.991 92.2805C103.971 93.2805 105.281 92.4605 105.701 92.7505C105.441 93.8905 104.041 93.1505 103.481 93.1205C103.441 92.7005 103.611 92.4205 103.991 92.2805ZM102.561 106.56C102.771 107.09 103.021 107.61 103.321 108.1C102.771 108.04 101.331 106.81 102.561 106.56ZM105.241 97.3805C104.951 97.6805 104.001 97.8205 104.081 97.2705C104.411 97.3605 105.281 96.9405 105.241 97.3805ZM107.001 94.6505C106.611 94.6105 106.221 94.5705 105.831 94.5405C106.021 94.9305 105.911 95.2105 105.521 95.3605C105.461 95.1205 104.381 94.0405 105.151 93.7905C105.771 93.5905 106.881 93.9505 107.001 94.6505ZM103.461 109.87C103.071 110.55 104.491 110.37 103.711 110.85C103.341 110.71 102.511 110.26 103.461 109.87ZM105.891 103.92C105.381 103.71 105.111 103.26 104.641 103.01C104.981 102.74 106.431 103.35 105.891 103.92ZM106.951 96.4605C106.741 96.5405 106.531 96.6305 106.321 96.7105C106.341 96.3205 105.591 95.6805 106.121 95.3305C106.101 96.0305 107.121 95.6405 106.951 96.4705V96.4605ZM107.251 113.58C106.291 113.3 105.511 112.37 104.761 111.78C104.731 112.24 104.491 112.53 104.051 112.63C104.861 111.66 103.921 112 103.891 111.05C104.711 110.96 105.021 111.09 105.571 110.33C104.931 111.99 106.931 112.26 107.261 113.59L107.251 113.58ZM96.1009 168.95C96.0109 168.47 95.0409 168.81 95.3009 168.02C95.7109 168.1 96.7009 168.5 96.1009 168.95ZM102.891 132.98C102.691 133.51 102.851 133.69 103.391 133.54C103.091 134.38 101.341 134.57 101.241 133.49C101.901 133.65 102.451 133.49 102.881 132.98H102.891ZM108.431 98.5505C107.671 98.2505 107.421 97.4005 106.891 96.8705C107.701 96.9105 108.281 97.6404 108.431 98.5505ZM104.921 118.71C104.621 118.3 103.621 117.65 104.191 116.98C104.251 117.62 105.661 117.89 104.921 118.71ZM106.361 115.63C106.321 116.5 107.201 116.73 107.251 117.56C106.521 117.53 105.541 116.46 105.761 115.68C105.951 115.9 106.151 115.88 106.361 115.64V115.63ZM109.341 99.0805C109.161 99.2805 109.001 99.4905 108.861 99.7105C108.861 99.1805 108.221 99.3905 108.411 98.7505C108.871 98.5505 109.181 98.6605 109.351 99.0805H109.341ZM110.621 101.18C109.881 101.3 109.641 100.95 109.541 100.46C109.941 100.66 110.601 100.61 110.621 101.18ZM107.931 114.32C109.681 114.37 107.661 115.98 107.461 116.14C107.591 115.25 108.381 115.39 107.931 114.32ZM111.361 98.7305C111.731 99.4605 112.641 99.4105 112.501 100.45C111.951 100.07 111.391 100.97 110.911 100.57C110.841 100.35 111.621 99.4005 111.481 99.3305C111.191 99.6305 110.841 99.7905 110.431 99.8105C110.591 99.3205 110.901 98.9605 111.371 98.7405L111.361 98.7305ZM111.811 102.49L110.781 102.77C111.071 102.08 110.381 102.21 110.551 101.59C110.781 101.57 111.611 102.14 111.801 102.5L111.811 102.49ZM110.551 117.73C110.171 117.27 107.991 117.07 109.211 116.22C109.171 117.18 110.651 116.71 110.551 117.73ZM111.231 122.27C110.781 122.23 110.411 122.12 110.331 121.73C110.671 121.41 111.361 121.64 111.231 122.27ZM112.581 121.18C112.321 120.37 110.171 119.76 111.391 118.67C111.331 119.82 113.001 120.26 112.581 121.18ZM112.641 127.15C112.001 127.29 111.871 126.95 111.741 126.61C112.101 126.27 112.641 126.65 112.641 127.15ZM113.781 124.89C113.331 126.19 114.551 125.99 114.631 127.02C113.601 127.39 113.211 125.69 112.761 125.15C113.091 125.02 113.431 124.93 113.781 124.88V124.89ZM114.411 124.65C114.291 125.77 115.821 124.45 115.841 125.55C115.731 125.53 112.591 125.3 114.411 124.65ZM117.031 128.06C116.311 128.21 116.031 127.95 115.931 127.53C116.361 127.15 117.361 127.22 117.031 128.06ZM120.031 113.72C119.131 113.98 119.211 113.33 118.961 112.99C119.361 113.19 120.021 113.15 120.031 113.72ZM120.321 113.1C119.791 113.23 119.301 112.46 119.881 112.13C119.821 112.65 120.701 112.29 120.321 113.1ZM120.321 115.7C120.101 115.95 119.921 116.22 119.801 116.53C119.351 116.69 119.131 116.59 119.151 116.23C119.101 116.26 120.031 114.99 120.321 115.7ZM122.651 113.36C121.231 114.19 121.881 113.7 121.611 115.02C121.111 114.9 119.761 115.01 119.771 114.14C120.411 114.25 122.441 112.26 122.651 113.36ZM118.161 133.35C117.501 133.65 117.121 132.85 117.691 132.59C117.711 132.97 118.441 132.7 118.161 133.35ZM122.191 116.38C121.661 116.47 121.341 116.36 121.481 115.82C122.011 115.73 122.321 115.84 122.191 116.38ZM119.701 129.88C120.381 130.34 121.031 133 122.111 132.11C121.481 134.15 120.971 131.6 119.691 132.46C119.711 132.08 119.881 131.8 120.221 131.63C119.891 131.65 119.561 131.67 119.221 131.69C119.381 130.98 120.151 130.63 119.701 129.87V129.88ZM122.021 133.9C121.751 135.33 119.441 133.71 121.151 133.16C121.761 133.69 120.791 134.33 122.021 133.9ZM123.751 134.19C123.731 135.25 121.621 135.26 121.921 134.5C122.661 134.24 123.031 134.57 123.751 134.19ZM123.151 139.01L118.811 191.17C119.181 191.18 120.071 191.68 119.401 192.12C119.191 191.66 118.881 191.61 118.451 191.97C118.571 191.7 118.681 191.44 118.801 191.17L123.151 139.01ZM124.651 140.31C125.291 140.6 126.541 141.27 125.841 142.21C125.641 141.33 124.791 142.46 124.421 142.47C124.621 141.88 124.981 141.41 125.481 141.05C125.041 141.22 124.681 141.15 124.391 140.81C124.481 140.64 124.561 140.47 124.651 140.3V140.31ZM127.221 143.12C127.111 142.78 126.561 142.83 126.591 142.37C127.281 141.66 128.091 142.96 127.221 143.12ZM142.971 81.4605C142.411 81.4005 142.131 81.0805 142.141 80.5005C142.951 80.3405 142.951 80.9105 142.971 81.4605ZM145.161 82.5505C145.371 82.5105 145.571 82.4605 145.781 82.4205C145.781 82.7205 145.801 83.0205 145.831 83.3205C146.191 82.5805 146.901 82.6405 147.561 82.4405C147.461 83.3805 146.061 82.7705 145.961 83.7105C146.211 83.5505 146.491 83.4705 146.791 83.4705C147.011 83.9205 146.941 84.3205 146.591 84.6805C146.511 83.7805 142.711 83.6605 144.761 82.5705C142.591 79.9805 145.641 81.6305 145.161 82.5505ZM146.821 82.0705C145.991 81.9705 145.631 81.4405 145.221 80.9505C145.981 81.1205 146.791 81.2405 146.821 82.0705ZM134.311 147.7C134.341 148.38 136.161 148.37 135.361 149.23C135.061 148.72 133.531 148.62 134.311 147.7ZM148.791 83.3705C148.801 83.7005 148.691 83.9705 148.461 84.1805C148.411 83.4105 148.051 83.2205 147.361 83.6305C147.721 82.8305 148.201 83.1905 148.791 83.3605V83.3705ZM149.081 86.3505C148.831 86.9705 149.731 86.5605 149.311 87.3305C148.821 87.2905 148.361 86.4905 149.081 86.3505ZM150.981 83.2705C151.011 83.6905 150.831 83.9605 150.451 84.0905C150.461 83.6505 149.971 83.4305 149.991 83.3105L150.991 83.2705H150.981ZM138.421 152.26C138.171 152.42 137.891 152.49 137.591 152.49C137.701 152.13 137.641 151.8 137.401 151.51C138.051 151.39 138.391 151.64 138.411 152.26H138.421ZM152.301 89.5805C152.201 89.8505 152.221 90.1205 152.361 90.3705C152.591 90.2405 152.811 90.1005 153.031 89.9405C153.621 90.3905 151.741 92.0705 151.131 89.4305C151.531 89.4305 151.911 89.4805 152.301 89.5705V89.5805ZM138.861 154.79L139.031 154C139.821 153.82 139.591 154.92 138.861 154.79ZM153.981 92.4905C154.511 92.5905 154.721 92.9205 154.601 93.4705C153.461 93.5805 153.991 92.8205 153.981 92.4905ZM144.181 157.35C144.181 158.15 143.711 159.31 143.941 158.24C144.081 157.6 142.051 159.19 142.711 157.79C143.381 157.94 143.511 157.2 144.171 157.35H144.181ZM157.601 94.3505C157.691 94.8105 158.941 95.5505 158.481 96.1205C158.271 95.7805 157.991 95.5205 157.631 95.3505C157.631 95.6205 157.651 95.8805 157.681 96.1505C157.211 95.9205 156.741 95.9405 156.291 96.2005C156.641 95.5205 157.081 94.9105 157.611 94.3505H157.601ZM145.731 159.25C145.341 159.34 145.141 159.69 144.661 159.67C144.811 159.16 145.711 158.48 145.731 159.25ZM158.731 96.9005C158.641 97.6905 158.131 98.2105 157.451 98.5405C157.551 98.0405 157.761 96.7805 158.731 96.9005ZM145.831 160.61C145.301 160.68 145.001 160.57 145.171 160.04C145.701 159.97 146.001 160.09 145.831 160.61ZM160.151 97.8505C159.481 97.5305 159.051 97.0105 158.841 96.2905C159.441 96.7305 160.381 97.2305 160.151 97.8505ZM160.331 99.0405C159.801 99.1505 158.611 100.31 158.441 98.4805C158.331 97.3204 160.131 97.7405 160.331 99.0405ZM148.611 162.28C148.031 162.16 147.541 162.3 147.141 162.71C147.021 162.35 146.831 162.03 146.561 161.75C147.811 161.62 146.691 161.1 147.521 160.94C147.421 161.78 148.441 161.6 148.611 162.28ZM162.201 98.5705C162.161 99.2105 161.421 99.4005 162.291 99.1705C162.261 99.7505 161.961 99.9605 161.381 99.8005C161.491 99.5704 161.461 99.3705 161.291 99.2005C161.131 99.4105 160.921 99.4905 160.661 99.4205C160.821 98.5005 161.431 98.9605 162.201 98.5705ZM161.701 101.38C162.271 101.44 162.221 102.05 162.521 102.35C161.661 102.54 161.031 102.02 161.701 101.38ZM164.441 102.69C164.881 102.78 165.171 103.03 165.291 103.46C164.471 103.71 164.881 103.14 164.401 102.89C164.381 103.08 164.291 103.22 164.131 103.3C164.231 103.1 164.341 102.89 164.441 102.69ZM165.491 105.64C165.471 105.1 164.751 105.17 164.911 104.46C165.451 104.45 166.111 105.19 165.491 105.64ZM165.091 105.65C165.101 105.79 165.901 106.49 164.911 106.65C164.911 106.28 164.351 105.84 165.091 105.65ZM166.851 107.98C165.831 107.97 165.461 107.4 165.311 106.64C166.271 106.69 166.181 107.67 166.851 107.98ZM168.401 107.14C167.411 107.67 167.011 106.97 166.741 106.39C167.621 106.35 168.361 106.44 168.401 107.14ZM168.901 110.9C168.491 111.88 167.071 111.86 167.371 110.55C167.821 111 168.331 111.12 168.901 110.9ZM175.431 115.14C175.091 115.18 175.461 115.71 175.271 115.94C174.031 116.3 175.401 114.35 175.431 115.14ZM209.721 154.59C209.901 154.97 209.941 155.37 209.851 155.79C208.841 155.85 208.161 155.51 208.331 154.58C208.781 154.92 209.251 154.93 209.731 154.59H209.721ZM211.651 158.41C211.911 157.49 210.431 157.75 211.571 157.01C211.471 157.49 212.371 157.97 211.651 158.41ZM205.591 225.68C204.471 225.5 205.541 226.84 204.091 226.82C204.261 226.37 204.171 225.64 204.491 225.52C204.751 225.42 205.631 224.99 205.591 225.68ZM203.371 225.82C203.501 225.6 203.481 225.41 203.331 225.23C203.141 225.26 202.211 226.13 202.041 225.6C202.401 225.13 204.211 224.25 204.821 224.88C204.521 225.47 204.041 225.79 203.371 225.83V225.82ZM220.421 167.3C220.871 167.39 221.151 167.66 221.241 168.11C220.771 168.19 220.311 168.19 219.841 168.09C219.961 167.77 220.161 167.51 220.431 167.3H220.421ZM206.791 227.09C206.431 228.1 204.681 228.29 205.111 227.43C205.671 227.34 206.241 227.22 206.791 227.09ZM221.671 169.71C221.531 169.03 220.811 169.81 220.811 169.1C221.021 168.78 222.591 169.19 221.671 169.71ZM206.881 227.49C207.321 227.47 207.461 227.67 207.311 228.09C207.031 228.27 206.771 228.26 206.521 228.07C206.761 227.96 206.881 227.77 206.881 227.49ZM247.561 196.67C247.691 195.99 246.611 196.22 246.631 195.63C247.521 195.44 248.231 196.21 247.561 196.67ZM250.131 198.39C249.861 198.38 249.601 198.37 249.331 198.35C249.561 197.47 249.911 197.72 250.131 198.39ZM252.841 245.89C252.281 247.75 249.991 245.52 249.191 245.28C249.721 244.01 252.001 245.46 252.841 245.89ZM254.871 248.58C254.311 250.05 252.741 248.45 252.321 247.64C253.171 247.95 254.021 248.27 254.871 248.58ZM265.141 214.94C264.581 215.23 263.521 214.84 263.511 214.24C264.481 214.16 264.701 214.63 265.141 214.94ZM258.271 250.76C257.111 250.41 256.071 249.82 254.811 250.15C255.051 248.9 257.981 249.5 258.271 250.76ZM274.251 219.33C274.501 219.41 274.741 219.5 274.991 219.58C274.781 220.5 273.561 220.22 273.491 221.28C273.101 220.96 272.271 220.98 272.571 220.22C273.211 221.2 274.141 219.84 274.241 219.33H274.251ZM263.181 258.62C262.931 259 262.591 259.24 262.151 259.34C261.941 259.03 261.911 258.7 262.051 258.34C262.401 258.51 262.781 258.61 263.181 258.62ZM270.751 247.02C270.801 247.41 272.091 246.94 272.201 246.92C272.201 246.92 271.641 248.09 271.651 248.08C271.111 247.61 270.871 247.24 270.271 247.98C270.201 247.56 270.361 247.24 270.751 247.02ZM280.011 234.13C280.221 233.62 279.281 233.92 279.631 233.31C280.321 233.1 280.611 233.94 280.011 234.13ZM282.021 237.06C281.251 236.83 280.511 236.57 280.561 235.76C280.971 236.24 282.091 236.23 282.021 237.06ZM283.181 239.35C282.741 239.25 282.291 239.15 282.621 238.5C283.121 238.56 283.301 238.85 283.181 239.35ZM285.611 237.33C285.341 237.85 285.431 237.99 285.891 237.75C285.791 238.55 284.661 237.91 284.951 237.48C285.171 237.43 285.391 237.38 285.611 237.33ZM293.611 259.42C293.141 259.75 292.461 259.42 292.281 259.11C292.631 258.87 293.781 258.86 293.611 259.42Z" fill="#B81F1F"/>
</svg>