<svg xmlns="http://www.w3.org/2000/svg" width="284" height="316" viewBox="0 0 284 316" fill="none">
  <path fill-rule="evenodd" clip-rule="evenodd" d="M14.4693 315.17C14.7793 314.87 14.6993 314.68 14.2493 314.6C14.6993 313.41 17.4493 311.28 19.1493 310.86C19.6493 311.69 18.1693 311.92 18.5693 312.7C19.3993 311.72 22.5093 310.45 22.5993 309.68C23.1893 309.97 23.3393 310.41 23.0293 310.98C23.7693 311.3 23.5593 309.75 22.9393 309.73C24.0093 309.74 24.2093 308.51 25.0393 308.12C24.7293 308.64 24.3593 309.77 23.8893 310.24C24.4493 310.59 26.9493 307.43 27.0293 307.03C28.1593 308.07 28.8693 305.21 30.0293 305.38C29.4093 306.06 29.0893 306.91 28.5093 307.61C29.2393 307.57 30.6693 306.19 30.7693 306.18C30.5993 306.3 30.4093 306.33 30.1993 306.29C30.1993 304.97 31.2393 306.29 31.6793 305.98C31.6593 305.74 31.6393 305.51 31.6393 305.27C31.5693 305.27 28.9193 305.25 30.7493 304.43C30.4893 305 31.5693 304.45 31.5093 305.07C31.7193 304.76 31.8993 304.43 32.0593 304.09C32.9593 304.34 31.4293 305.28 31.9593 305.49C32.9793 305.89 32.4193 305.31 33.5693 305.37C33.6193 305.78 33.5993 306.19 33.4993 306.6C34.2393 306.88 34.1293 305.87 34.8393 306.09C34.7993 305.76 34.0093 306.081 33.8093 305.94C34.0993 305.671 34.4293 305.49 34.8093 305.38C33.7893 305.28 34.0893 304.54 34.1793 304.05C34.7793 303.92 34.2093 304.62 34.7993 304.49C34.7993 303.58 37.4893 302.17 37.8993 303.17C38.1093 302.85 38.1793 302.51 38.0993 302.14C38.5293 302.21 38.9093 302.38 39.2393 302.65C38.7893 303.1 38.2993 303.51 37.7693 303.86C38.5493 304.12 39.2193 303.21 39.7793 302.93C40.8993 302.39 39.7193 303.171 40.7593 303.03C41.0093 302.31 41.3493 301.76 42.2293 301.81C41.9593 301.33 42.3293 300.98 41.7293 300.69C42.2293 300.85 42.5593 299.98 43.0993 299.99C42.2393 299.47 43.7693 299.14 43.3493 298.61C44.3493 298.35 43.3193 299.51 44.0893 299.41C44.0893 298.891 44.3193 298.57 44.7993 298.45C45.9293 299.54 43.0293 300.65 42.6093 301.69C43.1293 301.891 48.3993 297.94 49.3093 297.44C50.5193 296.78 51.8893 296.28 52.9693 295.63C54.2393 294.861 53.9993 294.28 55.2493 294.22C54.9693 293.78 56.6293 292.68 57.0793 292.38C58.3693 291.521 58.7793 291.39 59.1093 290.05C59.2193 290.34 59.2893 290.64 59.3193 290.95C60.5393 290.71 60.4693 289.79 61.3693 289.24C62.2793 288.69 62.4393 289.06 63.2993 288.47C64.0393 287.97 64.2793 287.19 65.1393 286.57C66.1393 285.86 70.2093 281.85 71.1992 282.17C70.8593 282.37 70.5892 282.64 70.3792 282.98C71.2592 283.44 76.5693 278.21 77.2393 277.67C82.3193 273.57 87.6992 269.82 92.7893 265.7C102.129 258.13 110.999 250.04 119.529 241.57C127.599 233.55 135.339 225.221 142.919 216.73C147.879 211.18 152.759 205.55 157.579 199.89C159.989 197.06 162.379 194.22 164.769 191.38C165.569 190.43 171.179 184.02 171.289 184.23C171.649 184.98 165.419 191.65 164.839 192.86C164.739 192.69 164.739 192.52 164.839 192.34C164.229 192.531 164.629 193.51 163.799 193.43C163.959 193.72 164.129 194.01 164.319 194.281C162.359 194.521 161.919 196.27 160.919 197.57C159.979 198.79 158.529 200.21 157.699 201.26C156.399 202.9 154.219 205.52 152.809 206.77C152.939 206.93 153.119 206.98 153.329 206.93C150.859 208.48 148.389 212.031 146.629 214.12C145.829 215.07 145.079 216.1 144.309 216.97C143.749 217.61 142.929 218.07 142.409 218.64C142.159 218.91 142.879 218.97 142.739 219.33C142.449 218.66 140.709 221.88 140.629 220.79C140.439 222.15 138.199 223.98 137.619 224.02C137.839 224.97 136.079 225.641 135.979 226.68C134.689 226.76 133.549 228.7 132.449 229.97C131.969 230.53 131.539 230.99 130.979 231.561C130.389 232.161 129.829 232.5 129.109 233.19C127.449 234.78 125.689 237.001 123.999 238.781C122.839 240.001 119.019 242.94 118.999 244.33C117.299 244.42 114.559 247.9 113.339 249.14C111.539 250.96 110.449 252.84 108.169 254.191C108.729 254.641 109.229 255.18 108.729 255.96C107.559 255.72 107.259 254.6 107.939 254.89C107.909 254.46 102.409 259.54 101.579 259.51C101.529 259.77 101.639 259.89 101.899 259.87C101.049 260.3 99.9493 261.15 99.2693 261.83C98.2793 262.81 98.8393 262.72 98.6193 262.94C97.4193 264.15 95.1393 266.62 93.3193 266.8C93.3792 266.94 93.4893 267 93.6493 266.99C90.7693 269.07 88.2493 271.47 85.4593 273.62C83.1193 275.43 83.4893 276.59 80.6693 277.22C80.8893 277.83 81.2293 276.96 81.5693 277.11C82.3092 277.47 79.3893 278.38 78.9893 278.63C77.9993 279.24 77.5393 279.77 77.3993 280.71C77.2393 280.49 77.2093 280.26 77.3193 280C76.0892 280 76.8693 280.83 76.8593 281.01C76.7893 281.75 77.3693 280.97 77.7093 281.09C77.6793 282.03 76.3593 282.44 75.7293 282.71C76.1293 283.05 75.9993 280.951 75.9093 281.53C76.1393 281.32 76.3393 281.09 76.5093 280.83C75.3893 280.92 75.4492 281.701 74.4293 281.91C74.6193 282.09 74.8293 282.22 75.0793 282.31C75.1293 282.05 74.2793 283.26 75.2093 282.67C75.1693 283.14 74.1393 285.74 73.5393 284.48C73.1493 284.8 73.2993 285.96 72.6093 285.99C72.4193 285.71 72.3992 285.42 72.5592 285.11C72.1693 285.11 72.3292 286 71.9492 286.3C71.2493 286.84 71.4993 286.02 70.8193 286.21C71.0093 287.83 67.4193 289.22 66.3293 290.07C65.1793 290.96 62.4793 293.56 60.5893 294.09C60.4193 293.99 60.4293 293.89 60.6193 293.78C60.3393 295.05 57.1693 295.75 56.3993 297.01C56.7193 297.07 57.2193 297.27 57.4093 297.3C56.6493 297.54 55.8893 297.82 55.1393 298.11C55.2893 298.3 55.4593 298.32 55.6593 298.17C56.2493 298.45 51.3393 302.1 51.8993 300.39C51.5393 300.45 51.2193 300.59 50.9393 300.81C51.1093 301.01 51.3293 301.1 51.5993 301.06C51.5793 301.48 51.3993 301.82 51.0693 302.06C50.7593 301.9 50.6893 301.66 50.8493 301.33C50.0593 302.95 48.9893 302.41 48.1393 302.6C48.5893 304.37 44.1193 306.16 44.4293 305.31C44.0193 305.53 43.9593 305.82 44.2693 306.18C43.7993 306.65 43.0693 305.59 42.7893 306.52C43.0693 306.52 43.3193 306.43 43.5493 306.26C43.1793 307.39 41.1693 307.52 40.6893 309.06C40.4393 308.64 40.0693 308.41 39.5793 308.38C39.6993 308.84 40.0093 309.06 40.5193 309.04C40.5493 311.24 38.1293 309.42 38.1293 309.42C37.9393 310.37 38.5893 310.34 38.1793 310.95C37.8593 311.43 37.7793 310.35 37.7893 310.26C37.2393 310.47 37.1093 310.81 37.4093 311.27C35.9093 311.1 35.4593 312.01 34.1493 312.4C34.6793 314.27 35.1693 312.82 35.9793 313.03C36.0493 312.78 35.9593 312.65 35.7093 312.64C36.1293 312.37 38.2093 310.53 38.5493 311.8C38.8193 311.59 38.9293 311.31 38.8993 310.96C39.4593 311.19 39.5693 311.56 39.2093 312.07C39.5593 312.03 40.8893 310.22 40.9093 309.82C41.0093 310.12 41.0693 310.42 41.0793 310.73C41.6393 310.85 42.2593 309.41 42.5693 310.4C42.4693 310.4 42.9093 309.32 43.8593 309.33C43.8293 308.91 44.2493 307.4 44.5093 308.7C45.0793 307.71 46.0493 307.02 47.0593 306.54C47.3193 306.6 46.8493 307.04 46.9293 307.23C47.2793 307 47.6593 306.88 48.0693 306.84C47.5493 307.9 45.2693 308.11 44.8993 309.46C45.8493 309 48.0793 306.8 48.6393 306.72C48.4693 306.84 48.2793 306.891 48.0693 306.85C48.3293 305.85 49.3693 307.16 49.6293 306.16C47.8593 306.53 49.5093 306.16 49.4093 305.43C49.7193 305.5 49.8093 305.69 49.6593 305.99C50.6993 305.53 51.5893 304.18 52.9593 303.55C53.3093 303.76 52.3893 303.86 52.4893 304.2C53.7693 302.99 55.1693 301.9 56.7693 301.14C56.9193 301.36 56.9293 301.6 56.8193 301.85C57.4993 301.98 57.5093 301.16 57.1793 300.83C57.5793 300.39 57.8493 301.31 58.3693 301.14C58.7893 300.46 57.6193 301.01 57.7593 300.54C60.3293 298.76 61.3393 297.38 63.7293 295.66C64.1393 295.891 63.3193 296.39 63.2293 296.49C64.0393 296.56 64.5693 295.47 64.7393 294.87C65.0092 295.01 65.2793 295.15 65.5592 295.3C65.2992 295.6 65.1793 295.94 65.2093 296.33C66.3993 295.46 67.2093 294.34 67.8593 293.03C68.3293 292.93 68.2793 293.8 68.4593 293.7C68.8893 293.47 69.6592 292.83 70.2093 292.49C71.3593 291.78 72.2193 291.07 73.3693 290.67C73.6393 288.68 79.2493 285.951 81.1992 284.47C81.9193 283.921 82.3393 283.54 83.0393 283.02C83.0993 282.8 83.1593 282.57 83.2193 282.35C83.5193 282.391 83.7993 282.46 84.0793 282.58C86.4793 280.73 88.5393 278.49 91.3092 277.14C91.3193 276.73 91.1593 276.6 90.8293 276.76C94.3193 274.73 96.9493 271.72 99.5793 269.93C103.109 267.54 106.849 263.94 110.259 260.94C116.949 255.05 122.649 249.001 128.719 243.12C135.239 236.8 141.559 229.76 147.589 222.68C151.089 218.58 154.899 214.33 158.029 210.25C158.559 209.56 160.459 207.671 161.409 206.421C161.959 205.691 162.759 204.781 163.289 204.281C163.529 204.051 163.549 203.37 163.989 203.21C164.089 203.37 164.089 203.551 163.989 203.73C164.749 203.4 166.739 200.13 167.459 199.3C168.989 197.52 170.499 195.72 171.989 193.91C175.119 190.11 178.149 186.23 181.149 182.32C187.289 174.311 193.239 166.161 199.409 158.171C202.749 153.831 206.049 148.79 208.899 144.9C210.939 142.12 213.189 139.271 215.339 136.421C216.669 134.65 218.219 133.41 219.699 131.83C219.989 131.52 221.369 129.86 221.189 129.11C221.419 129.16 221.649 129.201 221.889 129.24C221.469 128.48 225.149 124.26 225.409 124.99C225.949 124.64 224.879 124.14 225.899 123.91C225.899 123.8 226.129 123.05 226.039 122.68C226.289 122.64 226.409 122.75 226.389 123C226.459 122.26 226.729 121.6 227.199 121.03C227.809 121.15 227.199 121.74 227.229 122.07C227.309 121.84 229.749 116.48 230.179 117.78C230.049 117.51 229.829 117.43 229.529 117.55C229.519 116.58 231.259 114.56 231.199 115.34C232.129 114.89 233.049 113.26 233.709 112.49C235.329 110.59 236.939 108.69 238.569 106.8C240.209 104.89 241.849 102.98 243.549 101.12C244.119 100.49 245.499 98.4305 246.449 98.3005C246.449 98.5005 244.489 100.11 244.219 100.39C242.429 102.25 240.709 104.17 238.979 106.08C237.279 107.95 235.599 109.82 233.909 111.69C233.339 112.32 232.209 114.2 231.359 114.47C231.449 113.48 233.119 112.09 233.719 111.38C235.499 109.28 237.329 107.23 239.149 105.17C240.899 103.19 242.649 101.22 244.359 99.2005C244.969 98.4805 246.869 96.8605 246.899 95.8205C247.069 95.9405 247.129 96.1105 247.089 96.3305C247.219 96.0405 247.439 95.9105 247.769 95.9305C247.109 95.6705 249.329 92.5105 249.659 91.9405C250.049 91.2505 250.609 90.5505 250.979 89.8805C251.799 89.7705 251.999 89.3305 251.589 88.5505C251.839 87.9605 252.139 87.3905 252.489 86.8505C252.999 87.3205 251.969 87.9705 252.029 88.4605C252.249 88.3705 252.479 88.3005 252.709 88.2305C252.609 89.0605 252.459 89.8905 252.269 90.7005C251.389 89.8705 251.079 92.1005 250.949 92.5405C252.459 91.7405 253.529 89.6605 253.569 87.9805C253.759 88.1705 253.819 88.3905 253.769 88.6605C254.659 87.0305 254.109 86.4105 255.239 85.9305C255.499 84.6705 255.309 83.3205 255.599 82.0805C255.939 80.6105 256.429 80.1305 257.189 78.9005C258.459 76.8605 258.969 74.4205 259.919 72.3005C261.039 69.7805 262.659 64.8605 265.499 63.7105C263.329 63.2405 266.579 56.7005 267.149 55.8105C267.779 54.8405 268.889 54.2705 269.519 53.3805C269.859 53.1805 270.199 52.9805 270.539 52.7705C270.559 52.2705 270.369 51.8805 269.959 51.6005C270.649 50.3705 272.249 50.5805 271.199 48.5205C270.999 48.6805 270.829 48.8705 270.709 49.0905C270.999 47.7005 271.919 46.4205 272.989 45.5205C274.579 44.1805 274.529 44.5805 275.069 42.8105C275.469 41.5005 274.709 35.2805 277.269 35.7005C276.309 35.2805 278.799 32.4305 279.069 31.6905C279.849 29.5405 280.879 27.2705 281.469 25.0605C282.469 21.3405 284.009 16.8005 283.459 12.8205C283.149 13.0605 282.799 13.1005 282.439 12.9505C282.519 12.5905 282.599 12.2305 282.679 11.8705C281.819 12.4105 281.599 13.3205 280.939 14.0805C280.359 14.7505 279.579 15.7605 278.769 16.8605C278.739 15.9605 278.859 15.1605 278.739 14.2605C277.629 16.0905 276.439 17.9005 275.519 19.8405C274.939 21.0705 274.679 24.0805 273.279 24.4405C273.549 24.7405 272.589 27.3605 272.859 28.8205C272.369 28.6005 272.179 28.2205 272.269 27.6605C271.749 29.5005 271.369 26.6305 271.329 26.5405C270.789 26.5305 271.169 28.3905 270.759 28.5105C269.409 27.3905 270.969 26.3305 271.819 26.1405C272.179 25.1405 271.359 24.1505 271.799 23.1905C272.049 23.7305 272.149 24.3005 272.079 24.9005C272.629 24.2705 272.309 23.7005 272.469 23.1705C272.779 22.1105 273.199 21.0505 273.449 19.8805C272.699 20.2305 272.919 21.6205 272.759 22.2205C271.819 20.6305 273.349 20.4705 273.759 19.5005C274.239 18.3905 274.589 17.2505 275.069 16.1605C276.159 13.7105 277.789 10.8605 278.339 8.22049C276.799 8.51049 276.209 10.3005 274.779 10.5405C274.819 10.7205 274.889 10.8905 274.999 11.0405C274.029 10.9505 274.419 11.8205 273.699 12.0405C273.329 11.9105 273.189 11.6305 273.279 11.2205C273.079 11.2705 271.469 12.7205 271.629 12.5505C271.679 12.5005 271.349 12.2705 271.029 12.6205C270.489 13.2105 270.659 14.1205 270.289 14.8205C268.699 14.4605 271.189 12.8905 269.279 13.0305C269.279 12.9705 269.299 14.1005 269.379 14.2305C268.519 14.3805 268.099 14.7305 267.719 15.7305C267.299 16.8305 268.529 16.6605 267.929 17.6705C264.979 17.1005 267.319 11.3305 269.189 9.93049C268.189 9.63049 269.309 8.78049 269.589 8.51049C269.959 8.64049 269.239 9.17049 269.319 9.40049C270.109 9.23049 269.779 7.92049 270.009 7.43049C270.239 7.39049 270.399 7.48049 270.469 7.68049C270.159 7.45049 272.539 3.14049 272.739 2.50049C271.419 1.25049 261.009 16.8905 260.129 16.7105C261.649 17.0305 261.029 10.4605 261.789 10.0905C261.909 10.3705 262.069 10.6205 262.279 10.8405C262.549 9.06049 262.589 6.53049 260.719 6.05049C259.139 5.64049 258.049 7.68049 256.489 6.96049C256.739 7.51049 256.229 8.19049 256.739 8.64049C256.859 8.50049 256.879 8.35049 256.789 8.17049C257.779 8.37049 255.769 9.89049 255.599 8.56049C253.889 9.86049 252.679 13.8005 252.489 16.1805C252.379 16.1905 252.269 16.2005 252.149 16.2105C251.489 15.0605 252.219 14.0405 251.889 12.8705C251.629 12.9905 251.359 13.0805 251.079 13.1205C251.069 13.3605 256.109 8.50049 256.719 7.79049C257.369 7.04049 261.979 0.59049 263.029 0.94049C262.679 0.82049 257.079 8.37049 256.559 9.01049C254.929 11.0205 253.299 13.0305 251.659 15.0305C251.259 15.5105 249.689 18.1305 248.999 18.2105C249.349 17.5405 249.499 16.3705 249.209 15.6505C247.689 15.7105 249.089 17.4905 249.079 17.5105C249.419 15.1805 253.979 11.4405 255.459 9.73049C256.199 8.88049 261.209 2.08049 262.489 2.54049C262.569 2.85049 261.819 2.28049 261.829 2.78049C261.789 2.51049 261.659 2.30049 261.429 2.14049C261.089 2.45049 261.499 3.38049 261.899 3.46049C261.549 3.56049 261.209 3.54049 260.859 3.39049C260.909 3.81049 261.059 4.20049 261.309 4.54049C261.089 4.81049 260.919 4.77049 260.779 4.42049C260.299 4.67049 260.949 5.04049 261.029 5.25049C259.899 6.02049 260.149 4.92049 260.089 4.31049C259.809 4.42049 259.569 7.66049 259.739 8.12049C258.339 8.73049 259.449 6.12049 259.399 6.27049C258.729 6.33049 258.359 6.02049 258.289 5.35049C257.939 5.53049 257.899 5.76049 258.179 6.04049C257.139 5.38049 256.689 7.78049 256.329 8.27049C255.939 8.19049 256.329 7.40049 256.779 7.54049C256.789 7.42049 256.479 7.30049 256.569 7.05049C256.049 7.31049 255.809 7.73049 255.829 8.32049C255.409 8.07049 254.989 7.82049 254.569 7.58049C255.119 8.77049 254.379 8.45049 253.629 8.52049C253.629 8.77049 253.709 8.99049 253.859 9.18049C253.419 9.30049 251.429 10.5705 251.459 10.7505C251.539 10.4805 251.549 10.2005 251.509 9.91049C250.809 10.0205 249.639 12.1205 249.229 12.6405C247.579 14.7305 245.959 16.8505 244.319 18.9605C243.469 20.0505 238.499 28.0605 237.009 27.8905C237.559 28.3205 234.919 32.2205 234.269 32.7705C234.379 33.3205 236.269 32.0205 234.699 33.9405C232.979 33.1205 233.539 36.1505 232.659 36.7005C231.629 35.4805 232.729 34.6805 232.769 33.4205C232.219 33.5605 232.349 34.5805 231.629 34.2105C231.649 34.5505 231.679 34.8905 231.699 35.2405C231.459 35.2805 231.219 35.2405 231.009 35.1305C231.429 34.6805 231.489 33.8705 231.059 33.4005C229.909 33.2105 230.589 37.1105 230.659 37.4005C230.179 37.4705 229.939 37.2605 229.929 36.7705C228.449 36.6005 229.419 38.0405 229.359 38.5405C229.479 38.2505 229.699 38.1205 230.019 38.1405C229.929 39.2205 228.819 39.1905 229.309 40.6105C229.039 40.4905 227.699 40.1905 227.559 40.2405C228.679 41.4905 227.409 42.4405 226.999 43.3405C225.969 43.6105 225.749 44.1705 226.339 45.0305C226.339 45.6605 226.309 46.2905 226.229 46.9105C225.609 47.1305 226.039 46.1905 225.669 46.0905C224.959 47.1205 225.519 48.8205 225.889 49.8705C226.869 49.1405 225.809 47.9705 226.069 47.0905C227.079 46.9705 226.529 46.4905 226.379 46.5405C228.009 46.3105 226.759 42.9805 228.739 42.7205C229.409 44.6505 227.759 45.1905 227.249 46.6405C227.589 47.4005 227.589 48.1505 227.219 48.9005C226.849 49.6005 226.419 50.2705 225.939 50.9005C225.719 50.1405 225.339 49.4805 224.799 48.9205C225.199 50.3105 222.999 51.1605 222.639 52.2705C222.499 52.7105 222.279 55.5505 221.969 55.0705C221.899 54.7805 221.969 54.5305 222.179 54.3205C221.249 53.8205 220.659 62.2705 218.699 57.1805C218.299 57.7605 218.349 58.6205 218.049 59.2505C217.679 60.0305 217.329 59.2705 216.929 59.9105C216.989 60.4105 219.069 58.9505 219.119 58.8805C220.089 58.9405 218.229 60.0405 218.299 59.8105C219.179 60.5405 217.639 61.3205 217.549 61.0505C217.379 60.5105 218.019 60.7305 218.169 60.6905C217.989 60.3205 217.689 60.1105 217.279 60.0605C217.479 61.4205 217.229 62.8805 216.649 64.1205C216.539 64.3505 215.829 66.4905 215.649 65.5505C215.979 66.1205 215.369 67.5905 215.079 68.0205C214.219 67.5205 215.289 66.1705 215.289 66.1905C215.289 66.0105 213.469 69.1105 213.089 69.5605C212.239 69.3505 213.449 68.1705 212.829 67.6705C211.459 69.5405 210.939 72.1805 209.669 74.3005C209.179 74.3705 209.839 73.1505 209.119 73.4705C209.389 74.0705 209.349 74.6505 209.019 75.2105C209.709 74.8005 209.579 74.6505 210.199 74.6105C210.019 75.5805 208.589 76.8805 208.059 77.3505C207.869 77.5205 205.879 78.6505 206.739 78.6605C205.339 80.1605 204.239 81.8605 203.149 83.5905C202.819 83.5005 202.699 83.2805 202.779 82.9205C201.599 83.9105 202.789 84.0105 202.669 84.6605C201.949 84.8605 201.619 85.3505 201.699 86.1105C201.419 86.0305 201.129 85.9905 200.829 86.0005C201.009 86.2205 201.189 86.4405 201.369 86.6605C200.749 86.7105 200.829 87.1205 200.659 87.6005C200.429 88.2805 200.249 87.6005 199.679 87.8205C199.919 88.4305 200.399 88.2205 199.429 88.9405C199.029 89.2405 198.099 89.5705 197.649 89.1605C197.249 90.2805 198.809 88.9505 198.889 89.9405C198.419 90.4505 198.049 90.3905 197.529 91.0405C197.239 91.4105 197.689 93.2605 196.209 92.5405C196.219 92.8305 196.229 93.1205 196.239 93.4005C197.049 93.4805 195.929 92.9405 196.739 93.0205C197.229 93.9205 195.449 95.2005 195.289 96.0605C194.919 95.7405 194.789 95.3405 194.899 94.8705C194.109 95.0305 194.739 95.8305 194.549 96.1505C194.209 96.7305 194.039 96.9205 193.699 97.4605C193.139 98.3505 192.479 98.8505 191.969 99.9105C191.619 99.7705 192.499 98.2905 191.389 98.0405C191.499 99.1505 191.429 100.93 190.299 101.4C189.539 101.12 191.219 100.18 189.919 100.39C190.079 100.03 190.239 99.6805 190.399 99.3205C189.609 99.2105 188.679 101.39 188.519 101.6C187.859 102.44 186.959 103.02 186.609 104.58C187.129 104.87 187.469 104.74 187.639 104.17C188.459 105.01 186.629 105.4 186.649 105.4C187.159 105.14 185.409 104.48 185.409 104.48C186.079 105.11 185.189 105.48 185.289 106.22C185.939 106.43 185.579 105.72 186.139 105.82C186.069 106.32 185.789 106.62 185.299 106.73C185.189 106.57 185.189 106.4 185.279 106.21C184.539 106.16 184.809 106.83 184.429 106.78C184.899 106.86 185.199 107.13 185.319 107.59C184.989 107.96 184.849 107.38 184.449 107.47C184.429 107.87 185.359 108.25 184.709 108.51C183.889 108.83 184.209 107.7 183.419 107.71C184.099 109.12 183.499 108.89 182.739 109.61C181.959 110.36 181.429 111.57 180.449 112.56C179.999 112.66 180.579 111.74 179.919 112.07C180.109 112.95 179.339 113.25 178.939 113.86C178.729 114.18 179.499 114.23 179.479 114.52C179.159 115.05 178.709 114.21 178.269 114.42C177.749 115.15 177.019 116.08 176.479 117.24C176.399 117.41 175.789 118.95 175.899 118.78C175.589 119.23 175.039 119.77 174.809 120.17C174.319 119.9 175.029 119.3 174.949 118.95C174.289 119.36 174.019 119.96 174.139 120.73C173.829 120.85 173.529 120.85 173.239 120.72C172.809 121.08 172.609 121.68 171.919 121.72C172.529 121.98 170.079 124.47 170.299 124.54C170.439 124.44 170.599 124.38 170.779 124.37C170.869 125.4 169.839 125.01 169.579 124.44C168.359 125.79 168.189 124.41 166.679 125.8C167.529 125.25 168.439 125.6 169.249 124.97C169.249 126.51 167.899 125.36 167.379 126.28C167.969 126.35 168.549 126.5 169.109 126.71C168.559 126.93 167.989 127.08 167.399 127.15C167.619 127.67 167.859 128.17 168.119 128.67C168.069 128.61 165.719 127.96 165.859 127.92C165.899 128.28 166.079 128.56 166.399 128.76C166.219 128.99 165.599 129.08 166.239 129.29C165.879 129.54 165.479 129.671 165.039 129.701C164.629 129.37 165.879 128.88 165.009 128.49C164.919 129.04 163.659 132.15 162.999 130.85C162.569 131.23 161.139 136.191 160.329 134.62C159.969 134.781 160.549 135.57 160.359 135.83C159.939 136.39 159.279 137.21 158.849 137.671C158.379 138.171 157.779 139.281 156.809 139.29C157.159 139.38 157.509 139.471 157.849 139.59C157.779 139.691 155.839 140.87 155.629 140.9C155.839 141.001 155.959 141.171 155.979 141.4C156.289 140.88 156.739 140.57 157.339 140.47C156.679 141.17 155.939 142.26 155.129 142.3C155.229 141.9 156.109 141.57 155.629 141.07C153.009 141.91 155.259 144.11 152.759 144.66C152.679 145.13 153.329 144.93 152.939 145.34C152.479 145.451 152.639 144.79 152.249 145.201C152.299 145.411 152.419 145.581 152.599 145.701C150.319 146.141 150.079 148.69 148.179 149.54C148.009 149.34 147.899 149.12 147.829 148.86C147.089 149.27 147.479 150.48 146.299 150.311C146.609 151.141 146.499 150.61 146.659 151.5C146.349 151.49 146.229 151.32 146.309 151C145.979 151.19 145.699 151.441 145.459 151.73C145.599 151.891 145.769 151.94 145.979 151.88C145.949 152.15 145.829 152.391 145.649 152.59C145.539 152.38 145.369 152.28 145.129 152.27C145.129 152.7 142.849 154.911 142.069 155.671C142.239 155.671 142.409 155.66 142.589 155.65C142.539 156.01 142.369 156.311 142.079 156.531C141.769 156.521 141.649 156.351 141.729 156.031C141.439 156.171 139.699 158.6 139.689 158.701C140.399 158.561 140.089 158.97 140.039 159.38C140.569 158.5 141.579 158.311 142.089 157.4C141.989 157.281 141.869 157.29 141.749 157.41C141.449 156.64 143.109 156.68 143.469 156.65C142.949 156.921 140.179 160.12 140.259 160.19C140.149 159.96 139.969 159.86 139.719 159.91C139.809 160.45 138.249 162.68 137.849 162.921C137.759 162.37 137.469 161.98 136.979 161.74C137.319 161.46 137.439 161.11 137.319 160.69C137.109 161.04 136.829 161.111 136.459 160.9C137.459 162.88 133.479 164.111 133.399 165.51C132.019 165.061 132.859 166.201 131.519 166.96C131.729 167.09 131.899 167.25 132.039 167.46C132.049 167.54 131.249 168.391 131.009 167.671C131.259 167.51 130.339 169.37 130.149 168.05C130.029 168.55 128.759 169.17 129.119 169.8C128.839 169.71 128.549 169.66 128.259 169.66C128.499 169.89 127.279 171.45 127.079 171.75C126.389 172.77 126.349 173.02 125.349 173.19C125.479 173.53 124.309 175.23 125.169 175.13C125.479 175.06 125.649 174.87 125.689 174.561C125.909 174.471 125.319 175.87 125.769 175.6C125.909 175.421 126.059 175.24 126.209 175.07C126.809 175.19 125.579 176.6 125.529 176.64C125.689 176.51 123.399 177.04 123.469 177.05C123.789 177.29 123.849 177.57 123.639 177.91C123.159 177.06 123.399 175.85 123.639 174.98C121.949 176.171 123.099 176.51 121.579 176.94C122.489 177.64 120.889 179.19 120.039 178.71C120.349 179.01 119.759 179.37 119.869 179.75C120.209 179.51 120.559 179.271 120.899 179.031C120.639 178.771 120.049 180.911 120.039 180.951C119.779 181.141 119.659 181.03 119.699 180.61C119.109 180.86 120.979 181.941 120.559 180.421C122.229 180.941 120.189 181.21 120.049 181.99C119.759 181.84 119.589 180.501 119.019 180.98C119.539 181.29 119.119 181.421 119.019 181.85C118.469 181.43 118.979 181.37 118.159 181.701C118.669 182.29 117.749 183.59 116.959 183.451C117.899 182.29 118.299 180.85 119.709 180.1C118.949 180.01 120.019 178.91 119.189 178.61C118.449 178.34 118.749 180.1 117.469 179.65C117.989 179.8 118.749 181.4 117.639 181.37C117.539 181.191 117.579 181.03 117.759 180.89C117.759 181.55 117.539 179.88 117.639 180.16C117.409 180.1 117.189 180.05 116.949 180.01C117.019 180.91 116.519 180.84 115.919 180.561C116.649 181.271 114.969 182.141 114.709 182.65C114.849 182.98 115.079 183.04 115.399 182.811C115.409 183.751 113.909 184.36 114.189 185.24C112.719 185.68 115.719 182.93 114.189 182.671C114.249 182.941 113.329 183.21 114.189 183.36C113.129 183.36 112.419 185.11 112.629 185.97C111.959 184.91 110.899 186.18 110.389 186.35C110.679 186.94 110.889 186.04 111.249 186.16C111.649 186.72 111.759 187.35 111.579 188.04C110.699 187.99 111.479 187.22 111.069 186.85C109.999 187.02 110.789 188.07 111.239 188.4C110.939 188.54 110.769 188.77 110.719 189.1C112.149 189.02 111.949 186.951 112.789 186.311C113.079 186.35 112.049 187.36 112.689 187.16C112.959 187.03 112.989 186.861 112.789 186.65C114.499 188.061 110.339 190.14 109.839 191.35C110.089 191.33 110.979 190.97 111.049 190.99C111.519 191.29 110.699 192.12 110.349 192.04C110.969 192.26 110.679 193.52 109.999 193.43C110.509 193.391 110.509 190.831 108.639 191.561C108.989 190.87 110.829 188.421 108.649 189.15C110.099 190.41 108.369 190.521 107.609 191.921C108.799 191.751 107.609 193.12 109.149 191.55C109.289 191.89 109.289 192.24 109.149 192.59C108.899 192.611 108.789 192.5 108.809 192.25C108.149 192.51 109.099 192.91 108.459 193.29C108.259 192.98 108.029 192.7 107.779 192.44C107.829 193.79 106.019 194.22 106.039 195.57C105.679 195.49 105.239 194.811 105.009 195.54C104.619 196.76 104.539 196.1 105.519 196.79C105.169 197.281 104.879 197.79 104.639 198.34C104.019 198.18 104.079 197.09 104.829 197.14C104.549 196.91 104.269 196.68 103.979 196.46C104.199 197.3 103.489 197.94 103.259 198.69C103.829 198.84 103.469 198.12 103.959 198.171C104.709 198.971 103.149 199.171 102.909 199.201C103.639 200.29 101.869 200.18 101.849 201.09C100.899 200.68 102.139 200.08 101.699 199.55C101.069 199.58 100.059 200.45 99.7892 201.44C99.4092 201.19 99.4092 200.96 99.7892 200.76C99.1592 200.27 99.1192 202.311 98.2393 201.62C98.4492 202.43 97.9393 202.6 98.9093 202.82C98.6993 203.19 98.4193 203.24 98.0493 202.99C98.2293 204.41 94.1193 205.641 93.5393 207.29C93.8893 207.671 94.0893 207.001 94.3993 206.951C94.7393 207.551 93.6693 208.381 93.3392 208.671C93.1292 208.451 93.1693 208.26 93.4593 208.12C93.3792 207.6 93.0093 207.49 92.3293 207.811C92.1193 209.93 92.2093 209.43 90.7593 210.46C90.6293 210.55 89.7493 211.78 89.3693 211.94C87.5493 212.67 88.8993 211.59 87.7893 211.8C87.5393 212.52 88.4392 212.18 88.2692 212.83C88.1793 213.23 85.4893 213.05 85.1992 213.1C85.2592 213.171 85.2793 213.76 85.2893 213.76C85.4493 213.6 85.6393 213.56 85.8593 213.63C85.7893 214.02 85.5593 214.24 85.1593 214.3C85.1993 214.76 86.3392 213.66 86.0892 214.49C86.1192 214.4 85.9593 215.471 85.9793 215.51C85.1993 215.48 85.8392 215.18 85.4893 214.82C85.7592 214.77 84.3893 216.641 84.2393 216.84C83.2793 216.01 84.1093 216.201 82.7993 215.951C82.4193 215.88 80.4093 216.39 80.0093 216.71C80.3593 216.531 80.6992 216.54 81.0293 216.75C80.9393 217.15 80.6992 217.43 80.3092 217.57C80.4893 217.76 80.5993 217.99 80.6193 218.26C80.7593 218.09 81.9893 217.73 81.6793 217.281C81.9993 217.4 82.1593 217.63 82.1593 217.98C81.7793 218.451 81.4693 217.57 81.6193 218.64C81.0593 218.83 81.5093 218.09 80.9593 218.281C81.3392 218.861 81.1493 219.201 80.4093 219.281C80.6093 219.701 80.8392 219.71 81.0892 219.311C81.1192 220.35 80.0792 219.73 79.6992 220.1C79.5693 220.22 78.8893 221.58 78.7793 221.61C78.6093 221.41 78.5592 221.18 78.6393 220.921C78.2893 221.171 76.3993 222.811 76.5393 222.201C75.5592 223.301 75.7093 225.23 75.4693 226.41C73.3893 226.49 76.2193 224.01 74.5793 223.98C74.5593 224.68 74.2793 224.421 74.0493 224.87C74.2193 224.721 74.2793 224.531 74.2193 224.311C73.7893 224.191 72.5393 226.061 71.3893 226.21C71.3893 228.1 72.3692 226.59 72.7393 226.451C72.8692 226.63 72.8093 226.741 72.5493 226.781C73.0593 227.04 73.9492 225.82 74.3092 225.68C73.2992 227.9 70.8193 229.13 69.3893 231.04C69.2393 230.9 69.1893 230.73 69.2493 230.52C68.4993 230.69 68.5993 231.56 67.6393 231.61C67.1592 231.64 67.8893 230.66 67.1793 230.9C67.2692 231.311 66.1093 232.781 65.8593 233.09C65.0293 234.15 64.2593 234.12 62.9493 234.87C61.9393 235.441 60.0693 236.9 59.6593 237.561C59.6093 237.641 59.0193 239.2 59.0693 239.19C58.7493 238.91 58.6093 238.56 58.6393 238.13C58.3493 238.16 58.0493 239.68 57.6193 240.09C57.2793 239.891 57.1893 239.6 57.3493 239.22C57.1193 239.85 55.8393 242.031 55.5093 242.37C54.2293 243.691 55.3093 242.51 53.8193 242.501C53.5993 243.4 54.3693 243.321 53.8193 244.381C53.2093 244.151 53.1693 243.02 53.6393 242.65C53.3593 242.641 53.2993 242.581 53.4893 242.471C52.1593 242.471 51.0393 242.97 50.9193 244.45C50.3593 244.48 50.9493 243.6 50.3093 243.71C50.3993 244.36 48.7393 245.1 48.5493 245.92C48.4693 245.7 48.3093 245.57 48.0793 245.531C47.9193 245.741 47.8993 245.96 48.0093 246.21C47.1493 245.93 47.1993 246.22 46.9093 246.95C46.7593 246.8 46.7193 246.63 46.7893 246.43C44.3493 248.36 43.0993 248.65 42.1393 251.561C42.4493 251.54 42.7493 251.46 43.0193 251.311C42.7993 251.6 42.5393 251.86 42.2493 252.08C42.0993 251.93 42.0693 251.76 42.1393 251.561C41.4193 251.881 40.7093 252.2 39.9893 252.51C39.8393 252.36 39.8093 252.18 39.8793 251.98C39.0093 252.49 39.3493 253.11 38.6793 253.71C37.9493 254.36 36.5293 254.351 36.2193 255.471C37.4393 254.76 38.6193 253.971 39.8993 253.351C39.6293 253.791 39.2593 254.09 38.7693 254.24C38.9593 254.75 39.4093 253.97 39.6493 254.01C39.4293 255.79 39.7193 254.77 38.8693 254.77C38.3293 255.55 38.8993 256.51 37.7593 256.86C38.0593 257.09 37.4793 254.831 37.4793 254.941C37.3393 255.441 37.7393 256.13 37.3093 256.57C36.8793 257.02 36.2893 256.93 36.4793 256.18C36.2593 256.18 35.7493 257.62 35.5993 257.78C35.4893 257.9 35.0493 257.13 34.8193 257.17C34.6993 257.51 34.9493 259.67 33.8493 259.45C33.8193 258.96 33.7093 258.49 33.5193 258.04C32.9293 259.26 31.8493 259.15 30.4893 260.2C30.4393 259.91 30.4693 259.63 30.5993 259.36C29.8893 259.56 29.3593 261.75 29.0093 261.86C29.1893 261.72 29.3793 261.7 29.5893 261.8C29.2993 262.38 28.3893 263.19 27.5193 263.23C27.2293 262.89 28.8193 261.47 28.9693 261.37C28.4693 261.84 27.3993 261.451 27.4393 262.53C27.1293 262.31 26.8193 262.1 26.4993 261.88C26.7193 263.26 24.5893 263.82 24.4393 264.16C24.5993 264.04 24.6893 263.87 24.6993 263.67C24.3493 263.76 24.0093 263.71 23.6893 263.52C23.2393 264 22.8293 264.51 22.4393 265.05C21.7193 265.85 21.8093 265.78 21.2793 267.11C21.7693 266.62 22.5693 265.171 22.9393 265.13C23.0793 265.361 22.9993 265.52 22.6993 265.61C24.1793 266.48 26.6293 264.01 27.4593 263.57C29.3193 262.59 31.7893 262.37 32.7693 261.03C32.5393 261.07 32.3093 261.1 32.0693 261.11C32.5793 260.11 33.5993 261.73 33.7193 260.3C33.3593 260.21 36.1293 260.22 35.5993 260.37C35.2993 258.89 37.3293 258.94 38.0493 258.61C38.5193 258.4 37.7793 257.95 38.3393 257.62C38.6693 257.72 38.9993 257.81 39.3293 257.91C39.4893 257.331 39.8493 256.92 40.4093 256.67C41.3493 256.01 42.2993 256.161 42.4493 254.84C41.6693 254.811 42.3393 255.48 41.6793 255.61C41.7093 255.22 41.4993 255.02 41.0693 255.02C41.1493 254.26 41.8093 253.721 42.5293 254.161C42.5493 254.721 41.6793 254.11 41.7793 254.76C42.3793 254.53 42.6893 254.741 42.7293 255.381C43.9093 254.431 44.4993 254.68 45.5693 254.49C45.2493 254.89 44.8393 255.02 44.3293 254.87C44.5193 255.031 44.6693 255.21 44.7793 255.43C45.1193 255.141 45.4893 254.891 45.8893 254.691C45.6993 254.291 45.3693 254.14 44.9093 254.24C46.0293 252.77 46.0093 253.421 45.6793 251.93C46.1693 251.29 46.5893 252.48 46.6193 252.721C48.5093 253.061 50.7093 250.621 51.9093 249.661C52.4593 249.881 51.8493 250.66 52.1093 251.05C52.8893 250.96 52.3793 249.92 53.1793 250.64C53.0893 250.19 52.8393 249.88 52.4193 249.71C53.0093 248.75 53.6893 248.851 54.4593 248.191C54.7893 247.911 54.6793 247.21 55.4593 246.74C56.1793 246.91 55.0893 247.37 54.8893 247.37C54.8393 247.59 55.0893 247.801 54.9893 248.061C55.6593 248.001 55.3893 247.18 56.2493 247.49C56.1393 247.78 55.9493 247.99 55.6693 248.12C56.0793 248.941 57.7693 247.38 58.3193 247.32C57.9193 246.97 57.8393 246.571 58.0893 246.101C58.2093 246.681 58.8693 246.511 59.2193 246.881C59.1293 244.531 60.8393 243.93 63.2493 244.12C63.3593 242.84 62.1793 243.641 61.5293 244.15C61.6493 243.21 64.4193 242.451 65.2793 242.37C65.0192 242.641 64.7193 242.84 64.3693 242.99C65.3793 244.311 65.1493 241.351 65.1793 241.501C65.5093 241.001 65.8993 241.78 66.2793 241.48C66.7292 241.11 66.1193 240.41 67.4793 240.64C66.7993 240.34 67.4293 240.02 67.3993 239.44C68.3193 239.49 67.1793 240.44 68.1893 240.35C67.8193 239.66 68.2793 239.471 68.1393 238.811C69.0393 238.85 67.9193 239.66 68.3993 239.85C68.8393 239.58 68.9893 239.19 68.8392 238.68C69.6592 238.71 68.6693 239.13 69.1292 239.38C70.6093 239.32 69.8593 238.11 70.6493 237.41C71.0693 237.04 72.1793 237.78 72.6093 236.33C73.3193 236.62 73.0893 237.08 73.0393 237.55C72.7293 237.5 72.5693 237.32 72.5592 237.01C72.3193 237.611 71.9393 238.1 71.4293 238.49C72.0093 238.42 72.4893 238.16 72.8593 237.71C73.3893 237.69 71.1892 239.531 71.6693 239.71C71.3493 239.59 69.5693 240.96 69.6493 241.64C69.2593 241.68 69.1693 241.09 68.8092 241.411C68.9492 243.011 69.7893 242.16 70.4593 242.2C70.3392 242.03 70.1693 241.961 69.9593 242.001C70.0993 241.54 70.4092 241.271 70.8893 241.201C72.3293 242.361 69.0593 243.09 69.1893 242.971C69.7693 244.861 66.7692 245.73 65.7793 246.691C64.6893 245.931 68.7393 243.12 68.7593 243.11C68.6993 243.12 67.5592 244.641 67.6093 243.37C65.8092 245.861 67.5393 243.46 66.0293 243.781C66.2292 244.73 63.4693 244.46 63.2193 246.49C63.0193 246.41 62.8593 246.29 62.7393 246.11C62.7893 245.59 63.1793 246.7 63.1093 245.8C62.0093 245.94 60.8293 246.86 61.0093 248.04C60.6393 247.86 60.2493 247.77 59.8293 247.77C59.9793 248.71 60.4393 248.091 60.9693 248.381C60.8093 249.881 58.8693 248.19 58.7593 248.2C58.7093 248.88 58.1493 248.831 57.6993 249.661C56.8493 249.751 56.6393 250.05 57.0793 250.57C57.4393 250.7 57.7593 250.641 58.0393 250.381C57.9393 250.621 58.1593 252.001 57.5393 251.881C57.0893 251.681 57.8293 251.441 57.4393 251.191C56.9093 250.931 57.2493 251.73 56.7193 251.471C56.9693 251.801 56.9893 252.15 56.7793 252.51C56.3993 252.51 56.2493 252.32 56.3193 251.95C55.4893 252 56.4793 253.07 55.6793 253.09C55.2593 252.911 55.7593 252.11 55.0893 252.18C54.9693 252.52 55.4293 253.471 54.7793 253.531C54.1493 252.861 55.0693 252.641 53.9893 252.661C52.5493 252.691 52.6693 253.07 51.5693 253.86C50.8593 254.37 49.4793 255.42 48.1693 255.79C47.9193 255.42 49.0693 254.781 49.0193 254.34C48.0493 254.48 47.9693 256.01 46.9593 255.84C47.0693 256.01 47.2393 256.09 47.4493 256.061C47.6793 257.451 42.9993 258.08 42.6593 260.17C42.8993 260.06 43.1193 260.09 43.3393 260.25C42.7993 261.61 41.6293 260.87 40.9493 260.14C41.1393 260.59 41.3693 261.02 41.6493 261.43C41.1893 261.72 40.7093 261.95 40.1893 262.11C40.1693 261.75 40.2693 261.42 40.4893 261.11C41.1293 261.44 37.2493 262.38 38.0593 261.77C37.5693 262.14 37.7993 262.45 38.2393 262.57C37.1793 263.49 34.5193 264.41 33.4593 264.88C32.6693 265.22 31.8693 265.36 31.0193 265.82C29.8993 266.42 28.8293 267.25 27.2693 267.3C27.4193 266.81 27.5493 266.31 27.6593 265.81C27.0493 266.3 26.3093 267.97 25.3193 267.7C25.9493 268.48 25.6393 269.46 26.5093 270.11C25.9093 270.32 25.3093 270.52 24.6993 270.71C25.4193 271.58 26.6993 269.7 27.4393 270.76C27.4393 270.84 25.8093 271.32 25.8393 272.25C25.6593 271.75 25.2893 271.53 24.7393 271.57C25.8893 272.86 22.1893 274.06 22.5393 272.44C21.9993 272.611 21.5993 272.95 21.3393 273.46C20.7493 273.38 21.2393 272.56 20.6293 272.49C20.4793 273.16 20.9093 274.02 20.8993 274.08C20.8193 274.44 20.0093 275.79 19.9793 275.49C19.8093 276.16 20.5293 275.7 20.7893 275.79C20.4893 275.92 20.2293 276.11 20.0093 276.36C19.5693 276.23 20.0693 275.54 19.4493 275.58C19.7093 276.28 17.1993 277.37 16.2293 277.3C16.7993 278.35 16.2493 278.14 17.4293 278.36C17.4593 278.05 17.3093 277.91 16.9793 277.94C17.7193 277.19 18.9993 277.18 19.9193 276.86C19.4693 277.74 18.2593 277.391 17.7893 278.25C20.7893 277.29 18.2293 278.25 18.3193 279.2C18.1293 278.92 17.8793 278.701 17.5593 278.56C17.4593 278.77 17.3593 278.98 17.2693 279.2C16.9693 279.13 16.8893 278.94 17.0193 278.64C16.4793 278.55 15.7593 279.7 16.0593 280.21C15.8993 280.22 15.2693 279.76 15.3693 279.72C15.1693 279.8 14.5693 280.02 14.1893 280.09C13.5893 280.2 12.5193 280.28 12.1393 280.93C11.7193 280.76 12.3393 280.52 12.2593 280.26C11.5693 280.24 10.6393 281.051 10.3993 281.41C10.4493 281.331 10.0993 283.5 10.1093 283.52C9.57926 283.62 9.94925 282.78 9.28926 283.24C8.69925 283.64 8.78925 284.14 8.38925 284.42C7.28925 284.22 8.79925 282.46 8.85925 282.77C8.09925 282.05 3.63925 285.79 3.66925 286.49C3.89925 285.8 4.99926 286.63 5.03926 285.71C5.66926 286 5.48926 286.47 6.30926 286.29C6.19926 287.4 5.86925 286.66 5.34925 286.81C5.26925 287.73 7.65925 286.99 7.04925 286.08C6.61925 286.08 6.44925 286.49 6.20925 285.93C6.46925 285.12 7.40925 286.14 7.74925 286.03C6.43925 285 9.85925 286.27 8.58925 286.18C9.23925 285.68 10.4193 285.96 11.0293 285.79C11.4493 285.56 11.8793 285.56 12.3093 285.79C12.3993 285.32 12.5993 284.89 12.8893 284.51C13.1593 284.62 12.6693 285.64 13.2693 285.23C13.3093 285.2 14.5293 284.8 14.5693 284.8C14.5393 284.46 14.3793 284.38 14.0993 284.55C14.0593 284.15 14.6993 283.92 14.4493 283.57C15.0593 284 15.3893 283.43 15.1693 284.38C16.0393 284.35 16.1993 283.53 17.1693 283.84C16.6593 282.77 18.2293 283.69 18.0793 282.6C18.4193 283.29 18.6393 282.51 19.0593 282.93C18.2393 283.8 17.0693 284.47 15.6693 284.45C15.9193 284.83 15.9693 285.25 15.7993 285.69C16.0093 284.48 17.6793 284.79 18.4093 284.23C19.6493 283.27 19.3393 281.82 21.3793 281.57C21.3493 281.23 21.1893 281.15 20.8993 281.32C20.7293 280.5 21.0293 280.08 21.7993 280.07C21.5193 280.4 21.3493 280.78 21.2593 281.2C22.0093 281.28 23.7493 279.35 23.3693 281.01C24.2293 280.65 23.0793 279.78 24.1293 279.56C23.5193 279.28 23.5193 278.93 24.1293 278.52C24.3693 279.7 26.1893 278.77 26.8593 278.76C26.0093 280.15 24.2793 280.54 23.2593 281.68C23.5793 282.23 24.1893 281.331 24.5293 281.35C24.2293 281.68 24.0993 282.07 24.1593 282.51C23.4893 281.99 23.3293 282.68 22.6693 282.11C22.5493 282.7 22.7693 283.08 23.3393 283.25C22.9693 283.421 22.6293 283.36 22.3193 283.09C22.1393 283.39 22.0193 283.72 21.9693 284.07C21.0793 284.18 19.8393 283.87 19.2693 285.55C17.9793 285.69 19.9793 283.92 19.6293 283.52C18.5293 283.97 19.9593 284.4 18.6393 284.23C18.5993 284.46 17.8693 285.46 17.8193 285.5C18.1293 285.25 17.8493 286.76 17.8493 286.7C17.4693 286.58 17.2893 286.31 17.2993 285.91C16.9293 285.91 16.5793 285.96 16.2293 286.08C16.1693 286.32 16.2593 286.451 16.5093 286.47C15.3093 288.35 8.15925 289.81 12.4293 291.5C12.1593 290.04 13.2593 290.49 13.3793 289.23C13.8693 289.41 13.4893 290.34 13.6293 290.67C14.9993 290.96 15.7093 289.02 17.0193 289.34C16.7293 289.76 16.4093 290.17 16.0893 290.57C16.6993 290.39 20.2193 287.97 20.1593 289.33C20.5093 289.29 20.8193 289.17 21.0993 288.96C20.5793 288.68 19.4493 288.51 19.3893 287.81C19.3193 287.05 20.7393 287.86 20.7693 287.86C20.8493 287.66 21.0993 287 21.1193 286.87C22.0393 287.29 20.4993 288.08 20.5093 288.34C22.8493 287.13 25.0293 285.67 27.3193 284.39C28.4093 283.78 31.1993 281.31 32.0693 281.92C31.7893 281.48 31.5193 281.04 31.2493 280.59C31.6493 280 32.2093 280.75 32.5493 280.07C32.6893 280.22 32.7193 280.4 32.6393 280.6C33.0593 280.141 33.5293 279.74 34.0493 279.4C34.2093 280.65 36.2893 279.18 37.0193 279.28C37.0193 278.88 36.8193 278.741 36.3893 278.85C36.9693 278.46 37.2193 278.57 37.8593 278.35C37.6893 278.23 37.5393 278.1 37.3993 277.94C37.5993 277.65 38.8293 276.64 38.8793 276.23C39.1793 276.38 39.2593 276.62 39.1193 276.96C39.7793 276.67 42.1593 275.31 42.0493 275.93C42.9293 273.67 45.1493 274.33 45.3593 272.34C45.8193 272.29 45.9593 272.48 45.7993 272.91C46.8393 271.72 48.7993 271.81 49.1493 269.98C49.4193 270.13 49.6893 270.27 49.9593 270.42C49.7393 270.59 49.5993 270.8 49.5193 271.07C50.4493 270.05 51.0793 268.72 52.4993 268.27C52.2993 267.67 51.4893 268.63 51.7093 267.67C53.2193 267.65 52.9293 267.04 53.2893 266.86C53.1093 267.11 52.8893 267.29 52.6093 267.41C52.6493 265.99 53.6493 266.29 53.9993 267.37C55.0293 266.27 55.5393 265.4 56.5493 264.86C57.2993 264.46 56.9693 265.07 57.5493 263.9C58.3493 264.61 59.1993 263.37 59.7493 262.89C59.9693 263.16 59.8893 263.33 59.5193 263.39C60.4793 263.7 60.5193 261.98 60.4193 261.56C61.0993 261.41 60.8693 262.11 60.8293 262.46C60.8793 262.42 62.5593 259.71 62.6393 260.52C62.6493 260.83 62.5193 260.94 62.2293 260.84C62.7493 261.09 63.2193 261.02 63.6393 260.61C63.6093 260.65 63.2893 261.62 63.3293 261.8C64.7593 262 63.8893 260.38 64.5393 260.34C64.3893 260.22 64.2093 260.21 64.0193 260.3C64.3792 259.8 64.5592 259.24 64.5592 258.61C65.2093 258.49 64.7593 259.28 65.3593 259.2C65.4593 257.61 66.1693 258.1 66.8893 256.99C67.2993 256.77 67.6493 256.481 67.9293 256.101C67.6292 255.881 67.5393 255.59 67.6693 255.221C68.3493 255.461 68.1893 256.171 69.0093 255.661C68.9593 256.051 68.7593 256.32 68.4093 256.48C69.2593 257.35 69.4293 254.98 69.4293 255.001C69.8193 254.79 70.2293 254.76 70.6493 254.92C70.7993 254.48 70.2993 254.09 70.7893 253.83C71.2593 253.58 71.8092 254.09 71.6992 253.09C71.9692 253.21 72.2493 253.28 72.5393 253.32C72.4893 253.67 72.2992 253.891 71.9593 253.971C73.3493 253.781 74.2793 252.68 75.2293 251.77C75.7793 251.24 77.9193 248.271 77.8092 250.691C78.5192 250.401 79.3393 249.77 78.4693 249.17C79.5393 248.21 81.5493 247.91 81.3193 246.02C81.8593 246.23 82.3792 246.2 82.8893 245.92C82.6493 244.66 84.9993 244.821 84.6193 243.751C85.4593 243.781 88.1593 242.02 88.2993 240.6C88.5493 240.68 88.7693 240.8 88.9693 240.97C89.3893 240.06 90.6292 239.14 91.1693 239.14C90.8593 238.5 93.5393 236.56 94.4693 236.11C94.4993 236.67 93.9793 236.6 94.2293 237.14C94.6193 237.04 94.9193 236.81 95.1393 236.47C95.9293 236.68 94.1393 237.74 94.1793 238.01C94.4893 237.501 95.7793 237.861 95.1593 238.9C94.8893 238.74 94.7393 238.5 94.6793 238.19C93.8792 238.31 94.8893 240.01 93.3693 239.9C93.9393 239.49 93.4293 238.83 93.9693 238.52C93.8293 238.36 93.6593 238.32 93.4793 238.43C92.9193 238.18 94.4693 238.07 94.0093 237.57C94.1293 237.701 92.3193 237.53 93.6992 237.3C92.8992 237.34 90.9093 239.531 91.4393 240.18C91.8993 239.76 92.2293 239.251 92.4093 238.65C93.9193 239.781 89.1693 240.34 89.4293 241.67C89.6393 241.31 90.6393 240.83 90.8193 241.54C90.3792 241.49 89.8393 242.28 89.5393 242.54C89.3293 242.72 88.8092 241.95 88.5393 241.98C89.3693 243.48 87.8693 244.291 86.8693 245.911C87.2993 245.911 87.6592 245.74 87.9492 245.43C87.7493 246.061 86.9893 247.28 86.1093 246.74C86.3092 246.64 86.8893 245.51 86.3092 245.59C85.2493 245.73 86.9793 245.59 85.5093 246.24C85.3393 246.32 83.1592 247.82 84.0993 248.05C82.6192 248.51 80.6093 250.34 80.1893 251.33C79.6593 251.26 79.3993 250.96 79.3993 250.42C78.8593 250.62 78.4393 251.271 77.7993 250.851C78.2193 251.171 78.4693 251.581 78.5493 252.101C78.8493 252.011 78.8893 251.46 78.7093 251.26C78.4693 250.99 80.2992 250.93 79.4893 251.67C78.9293 252.19 77.2493 252.71 76.8693 253.39C76.2193 253.14 76.9293 252.731 76.9693 252.351C76.5293 252.351 75.6693 253.52 76.6893 253.55C76.4493 254.04 76.0793 254.24 75.7093 254.8C75.4693 255.22 75.1192 255.35 74.6292 255.17C74.6492 255.6 74.4893 255.98 74.1693 256.3C73.6292 256.79 71.5893 259.69 70.7893 258.73C70.4893 261.54 70.5492 259.15 69.6992 259.17C69.5192 260.6 68.1393 259.94 68.7393 261.71C68.1192 261.55 68.6093 260.59 67.8193 260.6C68.8392 261.831 66.7992 262.16 66.3792 262.57C65.9792 262.95 66.5993 263.65 65.8792 263.92C65.3792 263.22 64.8193 263.55 65.0293 262.29C64.9593 262.27 64.6892 262.5 64.4893 262.42C64.1693 263.96 64.6793 262.83 63.8293 263.59C63.5593 263.83 62.3793 263.71 62.1693 264.48C63.0393 264.71 63.4893 263.95 64.4793 263.98C63.9193 264.26 64.3393 264.6 63.5393 264.6C63.2593 265.141 64.0793 264.78 63.7993 265.32C62.9593 265.2 62.0493 266.15 61.3993 266.51C61.8093 266.63 62.1193 266.48 62.3193 266.07C63.0593 266.7 61.8993 267.41 61.4393 267.56C60.8693 267.37 61.9393 266.95 61.5293 266.87C60.6493 266.78 61.4293 267.51 60.7293 267.67C60.6093 266.68 59.5393 268.09 59.2693 268.24C57.9293 269.03 57.7393 268.96 57.3593 270.83C56.7293 269.93 55.2693 273.05 55.2693 272.19C55.3193 272.47 53.6493 274.201 53.3693 274.6C52.1193 274.171 52.3393 274.7 51.2093 275.64C50.6493 276.02 50.1493 276.47 49.7193 277C49.5693 276.71 49.3493 276.63 49.0593 276.75C49.7293 277.671 48.2193 277.43 47.9293 277.31C48.6093 277.75 48.1393 278.67 47.5293 278.83C47.0093 278.49 48.1393 278.35 47.6593 277.97C47.4193 278.01 47.1893 278.04 46.9493 278.06C47.1893 278.28 47.2093 278.52 47.0193 278.76C46.9493 278.56 46.8693 278.38 46.7493 278.21C46.0693 278.37 45.8993 278.69 46.2493 279.2C45.8893 279.73 45.7893 278.6 45.3893 279.1C46.0493 279.75 43.9193 281.28 43.4893 281.31C43.4593 281.1 43.3693 280.92 43.2293 280.76C43.2593 280.82 41.7393 283.861 41.5093 283.85C41.0193 283.68 41.5693 282.95 41.5293 282.64C40.7993 282.82 39.4193 284.91 39.1193 285.64C39.0293 285.22 39.0993 284.82 39.3193 284.44C39.5693 284.451 39.6693 284.58 39.6093 284.83C40.0993 284.74 39.8493 284.15 40.1193 283.85C39.3293 284.241 39.0693 284.4 38.1593 284.12C38.1593 284.45 38.2893 284.7 38.5593 284.87C36.9893 284.51 33.2893 288.78 33.8993 289.65C33.5793 289.49 33.3893 289.23 33.3393 288.87C33.5593 288.72 33.7993 288.7 34.0593 288.8C34.0893 288.22 33.4093 288.32 33.8893 287.73C32.9093 288.42 33.7693 289.08 32.6293 288.95C32.5593 289.42 33.0693 289.17 33.2193 289.56C32.8593 289.78 32.6293 290.1 32.5293 290.51C34.1793 289.94 35.4293 288.81 36.9793 288.11C38.2993 287.51 37.4393 288.33 38.1993 288.15C38.4193 287.9 38.4693 287.61 38.3393 287.3C40.5793 287.58 35.7893 290.35 35.7893 290.35C34.3493 291.361 34.5493 290.95 34.3093 292.34C33.4893 292.22 33.3593 292.66 32.7993 293.07C32.1893 293.51 32.4693 292.93 31.7393 293.03C32.0893 293.53 31.9693 293.86 31.3793 294.03C31.1993 293.9 31.1693 293.73 31.2693 293.52C31.4293 294.42 27.2493 294.99 27.1093 296.19C26.7493 296.02 27.3493 295.6 27.2693 295.34C25.7093 296.63 26.3393 296.39 25.8693 298.11C26.3893 297.61 27.3693 297.74 27.6593 296.98C28.2293 297.12 27.7393 297.521 28.2493 297.6C28.5693 296.69 27.5993 296.68 28.3193 295.92C28.6693 295.55 29.0593 295.95 29.5793 295.17C30.0293 295.36 29.5293 296.081 29.6993 296.41C30.0493 296.24 30.1593 295.96 30.0293 295.58C31.4693 295.98 31.3293 295.28 31.5093 294.23C35.4593 296.77 40.3293 288.67 44.4193 288.61C44.1893 289.14 43.5793 289.06 43.8793 289.77C43.6793 289.17 43.3293 289.74 42.9893 289.83C43.1393 290.22 43.3593 290.25 43.6693 289.91C43.4493 290.53 43.0293 290.951 42.4093 291.16C42.3293 290.82 42.4893 290.6 42.8693 290.52C42.3593 290.17 41.4193 291.56 41.0893 291.7C41.3993 291.62 41.6993 291.54 42.0093 291.47C41.1293 291.97 40.9293 292.85 40.2493 293.52C39.7693 293.52 40.6093 292.58 39.8593 292.77C39.4893 293.99 38.0193 294.23 37.4093 295.6C37.5993 294.63 36.3193 295.701 36.1493 295.78C36.1093 296.18 36.2593 296.32 36.5993 296.19C36.4493 297.34 35.0693 297.55 34.5893 296.61C34.7393 296.59 33.2693 298.71 33.1093 298.85C32.7793 299.16 32.2293 298.75 32.0493 298.87C30.9793 299.57 31.4093 300.43 29.7393 300.81C30.5793 299.48 30.2493 299.551 28.7393 299.6C28.6293 299.76 29.2893 300.28 29.1893 300.36C29.3293 300.15 29.4693 299.94 29.5993 299.73C30.1693 300.34 26.7993 303.08 26.4693 304C26.1693 303.921 26.0293 303.72 26.0593 303.41C25.4993 303.54 25.6893 304.6 24.9593 304.47C24.5293 304.26 25.1593 303.87 25.1293 303.62C24.4393 304.39 22.4393 305.14 22.0793 305.59C21.2593 306.6 21.9393 306.521 21.7693 307.13C20.8793 306.9 20.1993 308.33 19.2193 308.28C19.1793 307.86 19.3593 307.59 19.7393 307.49C18.8593 307.09 17.8593 308.61 17.6493 308.67C17.8793 308.45 18.1493 308.391 18.4593 308.5C18.0893 310.22 17.7293 309.21 18.6093 310.29C18.0893 310.82 17.2793 310.68 16.3793 310.79C16.3893 310.08 17.2693 310.6 17.2793 309.89C16.9293 309.89 16.5693 309.89 16.2193 309.89C16.7993 310.2 15.7193 311.26 15.5493 311.36C15.4193 311.2 15.3993 311.02 15.4893 310.82C15.1193 310.81 14.7493 310.86 14.3993 310.98C14.5693 311.18 14.7693 311.331 15.0093 311.44C14.5293 312.28 13.4493 312.25 12.8893 313C12.9593 313.1 13.9093 312.831 14.1593 312.88C13.8793 312.94 12.6493 314.49 13.5493 314.34C13.8393 314.15 13.9393 313.88 13.8293 313.53C14.4293 313.48 13.8293 314.4 14.4393 313.99C14.3493 314.38 13.7093 315.1 14.5093 315.24L14.4693 315.17ZM57.0393 291.94C57.1093 291.26 57.7893 291.38 58.2193 291.18C58.0793 291.77 57.5793 291.88 57.0393 291.94ZM90.0793 270.7C90.1693 271.79 89.7893 272.6 88.3993 273.08C88.3593 272.54 88.5393 272.421 88.3693 271.85C88.6393 271.93 88.8792 271.88 89.0892 271.71C89.1192 271.43 88.9393 270.31 90.0793 270.69V270.7ZM267.229 18.6005C267.219 18.0305 266.769 17.8105 267.499 17.7105C267.779 17.9305 267.739 18.5905 267.229 18.6005ZM256.679 10.9905C256.899 10.3005 257.219 8.81049 257.129 8.37049C257.609 8.34049 258.069 8.41049 258.519 8.58049C258.409 7.96049 258.039 7.66049 257.409 7.66049C259.389 6.20049 259.099 10.3105 257.859 10.8805C257.139 10.8805 257.979 10.3505 257.459 10.2305C257.459 10.8005 257.189 11.0505 256.669 10.9905H256.679ZM198.339 90.4805C198.359 91.1105 197.649 91.0805 197.509 91.5705C197.469 90.9205 197.819 90.6205 198.339 90.4805ZM174.279 121.22C173.829 121.1 173.349 121.79 173.069 121.29C173.699 121.4 173.969 120.44 174.279 121.22ZM154.389 143C154.689 142.83 154.599 142.29 155.249 142.44C155.339 142.88 154.659 143.45 154.389 143ZM31.4693 260.22C31.0693 260.55 30.6793 260.891 30.0093 260.88C30.3893 260.65 31.0693 259.78 31.4693 260.22ZM44.3693 260.09C44.6693 260.53 42.8993 261.76 42.7093 260.93C43.5593 261.03 43.4793 259.95 44.3693 260.09ZM9.10925 284.1C9.08925 283.56 8.99925 283.16 9.76925 283.35C9.82926 283.88 9.60925 284.13 9.10925 284.1ZM65.8293 264.24C64.9793 265 64.5793 265.3 63.7393 265.81C64.1593 264.94 64.8993 264.48 65.8293 264.24ZM47.1093 279.27C46.7693 279.44 46.0593 280.201 45.8093 279.81C46.0993 279.57 46.7693 278.77 47.1093 279.27ZM36.7893 286C36.8993 286.13 37.0693 287.08 36.4793 286.83C36.1093 286.71 36.4793 285.87 36.7893 286ZM16.9793 311.18C16.8293 311.18 16.3393 312.37 15.7293 312.02C15.7293 311.74 16.5493 310.56 16.9793 311.18ZM33.2493 303.56C32.9993 303.79 32.9493 304.31 32.4293 304.15C32.5093 303.32 33.1693 303.57 33.2493 303.56ZM49.5993 296.38C49.8493 296.78 49.2093 297.26 48.5893 297.14C48.6393 296.5 49.1493 296.47 49.5993 296.38ZM52.6193 294.27C52.4593 294.77 51.4593 295.26 51.1093 294.8C51.7093 294.75 51.8193 294.06 52.6193 294.27ZM17.1893 289.32C17.9093 288.92 18.3493 288.13 19.1893 287.91C18.9293 288.861 17.7493 289.48 17.1893 289.32ZM66.4693 293.92C66.7493 294.39 66.0493 294.93 65.4293 294.89C65.4093 294.09 65.8893 293.95 66.4693 293.92ZM43.0693 291.36C42.7193 291.59 42.6193 292.17 42.0693 292.11C42.1393 291.62 42.7693 290.82 43.0693 291.36ZM15.9493 287.54C15.5893 287.35 15.2693 288.22 15.0693 287.56C15.4093 287.47 15.8293 286.76 15.9493 287.54ZM16.4393 286.75C16.6793 286.93 17.7993 286.29 17.7893 286.97C17.4893 287.141 15.9093 288.08 16.4393 286.75ZM19.2293 286.69C18.9393 286.98 18.8593 287.58 18.2293 287.4C18.2293 286.68 18.6393 286.57 19.2293 286.69ZM39.0393 287.17C39.1893 286.96 39.3393 286.74 39.4893 286.53C39.3493 286.96 40.1493 287.91 39.4093 288.09C39.0493 287.86 39.4993 287.2 39.0393 287.17ZM22.1093 284.2C22.2293 284.85 22.0193 285.05 21.4793 284.79C21.4993 284.38 21.7093 284.19 22.1093 284.2ZM11.8293 282.5C11.1893 281.93 11.4593 282.831 10.8993 282.85C10.3893 282.26 12.0793 281.48 11.8293 282.5ZM41.0893 285.33C41.9693 285.26 42.1693 283.78 43.1693 284.38C42.7993 283.771 43.5393 283.26 44.0493 283.27C43.5493 283.76 43.8293 284.35 43.5493 284.83C43.0693 285.65 43.0793 285.31 42.6893 285.73C42.6793 285.74 40.8793 287.201 40.6293 287.03C40.9293 286.94 41.0193 286.78 40.8893 286.54C40.6093 286.93 40.2293 287.11 39.7493 287.09C39.7593 286.53 41.9293 286.54 41.0893 285.34V285.33ZM60.7893 288.44C61.1493 288.93 60.4793 289.26 60.1093 289.43C59.8193 289.03 60.3193 288.47 60.7893 288.44ZM37.8993 285.62C38.1293 285.65 38.3593 285.68 38.5793 285.71C38.6093 286.07 38.4593 286.28 38.1293 286.35C38.4293 285.831 37.5993 286.14 37.8993 285.62ZM15.9093 280.94C15.9293 281.921 14.3093 281.19 14.1093 281.33C14.2793 280.21 15.3193 281.24 15.9093 280.94ZM25.7293 282.33C25.6493 282.84 25.6393 283.46 25.0493 283.27C25.3193 283.02 25.1693 282.18 25.7293 282.33ZM19.1093 281.47C18.3693 281.171 18.8793 279.77 19.5693 279.81C20.2893 280.79 18.9893 280.6 19.1093 281.47ZM48.4093 282.21C47.9193 282.01 47.7693 282.22 47.9593 282.86C47.3193 283.24 45.6793 284.38 45.0293 284.48C44.8893 284.5 43.2693 284.02 44.3193 283.83C44.2593 284.08 44.3493 284.2 44.6093 284.21C43.9193 283.16 45.3393 282.21 45.9093 281.74L47.5893 280.72C47.8593 281.451 47.0293 282.28 46.4393 282.51C46.5893 282.63 46.5693 282.741 46.3893 282.85C46.8393 282.57 47.4393 282.25 47.7393 282.05C48.2593 281.69 47.5793 280.72 48.7993 280.86C48.0293 281.44 48.5793 281.52 48.4193 282.21H48.4093ZM26.2093 281.53C26.0293 281.36 25.8893 281.17 25.7893 280.95C26.2993 281.24 26.0093 280.42 26.5193 280.71C26.5993 281.17 26.6393 281.64 26.6293 282.11C26.4593 282.08 26.2893 282.06 26.1193 282.03C26.1493 281.86 26.1793 281.69 26.2093 281.52V281.53ZM77.1493 286.49C77.5293 286.66 77.1592 287.58 76.6693 287.34C76.7992 287.02 76.5793 286.27 77.1493 286.49ZM67.4293 284.13C67.7093 284.96 65.9693 284.97 66.4593 284.75C66.8392 284.61 66.8493 284.01 67.4293 284.13ZM22.5193 278.71C22.4793 278.94 22.4493 279.16 22.4093 279.39C22.1893 279.41 22.0393 279.32 21.9293 279.14C22.4293 279.13 21.5993 278.46 22.5193 278.71ZM27.8193 278.13C27.5893 279.12 29.5093 279.13 26.8893 279.55C27.2393 279.1 27.5393 278.63 27.8193 278.13ZM22.5793 278.38C22.5093 278 22.3293 277.69 22.0393 277.43C22.2593 277.27 22.4993 277.19 22.7693 277.2C22.4693 278.53 23.6993 276.94 23.8993 277.72C23.5793 277.72 21.8693 278.801 22.5793 278.38ZM30.5893 278.19C29.9093 277.611 29.9193 278.65 29.2993 278.7C28.9093 277.65 30.3193 277.24 30.5893 278.19ZM31.5193 277.8C31.7293 277.71 32.1293 278.16 32.1993 277.89C32.0593 277.64 31.9293 277.39 31.7993 277.14C32.4693 277.23 33.1393 278.65 32.2693 278.59C32.3293 278.35 32.2393 278.22 31.9893 278.2C31.9593 278.49 31.9693 278.78 32.0193 279.07C31.3393 279.05 31.6693 278.14 31.5293 277.79L31.5193 277.8ZM36.1293 278.25C35.9993 278.97 35.5593 279.27 34.7793 279.11C34.9893 278.5 35.4993 278.3 36.1293 278.25ZM23.9893 277.21C24.3293 276.59 25.2293 276.9 25.5293 276.23C25.3693 277.37 24.6793 277.27 23.9893 277.21ZM50.0993 279.26C49.9093 279.85 49.3193 280.57 48.6893 280.49C48.9993 279.9 49.4693 279.49 50.0993 279.26ZM26.7193 276.41C26.2693 276.41 26.1293 276.84 25.6193 276.77C25.5993 276.25 26.4893 275.921 26.7193 276.41ZM72.8493 280.7C72.5293 281.39 71.6593 281.39 71.2593 281.98C70.9493 281.22 72.1793 280.89 72.8493 280.7ZM22.5693 275.26C21.9493 274.77 22.8893 273.1 23.6893 274.74C23.5993 272.95 25.5893 273.2 26.7393 272.95C26.8293 273.73 25.2293 274.18 24.7893 274.39C26.2893 274.57 23.9193 275.07 24.1893 274.91C23.4393 275.35 22.8793 276.49 21.7893 275.83C22.1193 275.73 22.3793 275.54 22.5693 275.26ZM31.0993 276C31.3093 276.6 31.3393 277 30.5793 277.14C31.2493 276.67 30.3893 276.41 31.0993 276ZM24.7893 275.43C25.1193 275.4 25.2693 275.13 25.6893 275.22C25.6693 275.77 24.8093 276.07 24.7893 275.43ZM51.4693 278.19C52.3193 278.01 53.4693 277.201 54.0193 276.19C53.8793 277.24 53.6893 276.66 53.0893 277.84C52.9293 278.16 54.4393 279.44 52.3793 279.16C52.5993 278.79 52.7693 278.4 52.8993 277.99C52.4493 277.74 51.8793 278.56 51.4793 278.19H51.4693ZM52.1293 278.44C52.0293 278.99 51.6293 279.16 50.9993 279.02C51.1593 278.54 51.7193 278.6 52.1293 278.44ZM27.8993 274.34C28.3993 274.23 28.8593 275.46 27.7393 275.36C27.5593 274.99 27.6093 274.65 27.8993 274.34ZM79.1292 279.75C79.0492 280.19 78.9792 280.65 78.4893 280.59C78.4792 280.04 78.7992 279.891 79.1292 279.75ZM26.7393 274C26.9593 274.08 27.1793 274.17 27.3893 274.27C27.3193 274.71 27.0693 274.84 26.6393 274.68C26.6693 274.45 26.7093 274.23 26.7393 274ZM40.8293 274.69C41.0493 274.77 41.2693 274.861 41.4893 274.94C41.2293 275.52 40.7893 275.81 40.1493 275.82C40.1493 275.19 40.8593 275.34 40.8393 274.69H40.8293ZM29.0393 273.64C29.8193 273.62 29.9793 272.71 30.7393 272.67C30.5893 272.75 29.1193 274.84 29.0393 273.64ZM32.9593 274.02C32.9893 273.79 33.0293 273.57 33.0593 273.34C33.3793 273.4 33.6393 273.55 33.8593 273.8C33.5593 273.87 33.2593 273.95 32.9593 274.02ZM27.7693 272.95C27.6993 272.57 26.7393 272.92 26.9993 272.32C28.6893 271.01 27.2193 274.96 27.0093 273.36C27.2393 273.19 27.4893 273.05 27.7593 272.95H27.7693ZM55.4593 275.83C54.8693 275.95 55.3993 276.51 54.6493 276.62C54.5793 276.04 55.1393 275.24 55.4593 275.83ZM35.8093 272.33C35.4993 272.66 35.2793 273.11 34.8093 273.23C34.8093 272.5 35.3893 272.51 35.8093 272.33ZM83.7493 276.71C83.6393 277.04 83.5892 277.46 83.1393 277.38C82.8392 277.03 83.1393 276.53 83.7493 276.71ZM40.1793 272.02C39.7193 272.16 39.5093 272.63 38.8893 272.55C38.9093 271.95 39.9593 271.68 40.1793 272.02ZM57.6193 274.13C58.0193 273.701 58.6093 273.5 59.1293 273.23C59.0393 273.96 57.9693 275.01 57.6193 274.13ZM29.7493 267.71C29.6293 268.31 29.9093 267.8 30.2293 267.95C30.2993 268.53 29.6393 268.07 29.6193 268.55C30.2093 268.79 31.3293 267.99 31.6593 268.86C31.7593 269.11 28.5193 269.96 28.1593 270.23C28.2993 270.38 28.4493 270.52 28.6193 270.64C27.4193 270.75 27.5093 269.77 27.3293 268.91C27.5193 268.91 28.1393 269.69 28.3393 269.05C27.3693 268.96 27.8393 267.361 28.7093 267.72C28.5793 267.88 28.5593 268.05 28.6393 268.23C29.0093 268.05 29.3793 267.88 29.7493 267.7V267.71ZM35.1093 268.78C34.5493 268.09 37.4593 267.28 37.8693 267.58C37.5893 268.16 36.8293 268.4 36.5393 268.97C36.2393 269.56 37.2493 270.52 36.1993 270.82C36.4793 270.1 36.3093 268.39 35.1093 268.78ZM86.6193 273.34C86.9193 273.51 86.4492 274.2 87.0592 274.07C87.1693 273.62 87.0993 273.21 86.8593 272.83C87.0993 272.79 87.3393 272.75 87.5793 272.69C87.6893 273.451 87.7793 274.22 87.8293 274.99C86.8493 274.91 86.3792 275.07 85.4893 275.39C85.6393 274.63 85.9393 273.79 86.6193 273.34ZM59.9493 272.26C60.0993 272.77 59.8593 273.141 59.2993 273.25C59.4493 272.83 59.7193 272.57 59.9493 272.26ZM26.7293 268.32C26.6993 268.64 27.2693 268.52 27.1593 268.9C26.7893 269.36 26.1493 268.51 26.7293 268.32ZM37.8893 268.62L60.8793 271.82C61.2193 271.63 61.4493 271.71 61.5493 272.06C61.3393 272.23 61.0893 272.33 60.8193 272.34C60.8393 272.17 60.8593 271.99 60.8893 271.82L37.8893 268.62ZM25.1593 266.29C26.0293 266.32 25.3493 267.32 24.8493 267.3C24.7993 266.76 25.2093 266.83 25.1593 266.29ZM8.10925 264.71C8.29925 264.56 8.99926 264.671 8.89926 265.16C8.47926 265.13 8.07925 265.08 8.10925 264.71ZM38.0193 267.59C38.1993 267.94 38.3893 267.84 38.5793 267.29C38.5393 267.82 38.2693 268.14 37.7593 268.26C37.7293 267.99 37.8193 267.76 38.0193 267.59ZM36.3093 266.04C35.7293 265.97 35.9293 266.9 35.3393 266.82C35.3493 266.29 35.9793 265.52 36.3093 266.04ZM0.529255 261.21C0.649255 261.7 1.05925 261.1 0.749254 260.9C1.98925 261 0.849254 262.04 0.389254 262.22C0.259254 261.85 0.309255 261.52 0.529255 261.21ZM70.7093 265.02C70.7292 265.57 70.2093 265.5 69.9293 265.69C69.9093 265.141 70.1592 264.91 70.7093 265.02ZM31.2893 261.74C31.2893 262.2 30.9793 262.28 30.5393 262.19C30.5393 261.73 30.8493 261.65 31.2893 261.74ZM46.4393 262.9C47.1193 262.82 47.0093 263.78 46.3593 263.59C46.4293 263.12 46.1093 263.22 46.4393 262.9ZM33.2993 260.9C33.3793 260.31 34.3793 259.51 34.9693 260.02C34.3893 259.89 33.6893 261.68 33.2993 260.9ZM76.0192 261.17C75.6992 261.66 75.3993 262.15 74.6893 262.19C74.8793 261.6 75.4893 260.76 76.0192 261.17ZM10.2593 256.411C9.94925 256.411 9.22926 256.891 9.05926 256.411C9.13926 256.101 10.1193 255.981 10.2593 256.411ZM22.3893 255.471C22.8693 255.501 23.3293 255.441 23.7893 255.281C23.7293 255.84 22.9393 256.951 22.2493 256.661C22.3893 256.271 22.4393 255.881 22.3893 255.471ZM46.7293 257.19C47.3593 257.081 47.6193 257.34 47.5193 257.94C47.0793 257.88 46.6593 257.97 46.2793 258.2C46.3793 257.84 46.5293 257.5 46.7293 257.19ZM17.6793 251.851C17.5893 252.451 17.4593 253 17.0093 253.14C17.0993 252.54 17.0493 251.771 17.6793 251.851ZM32.7293 253.941C32.7293 254.401 32.4293 254.48 31.9893 254.39C31.9893 253.93 32.2893 253.851 32.7293 253.941ZM27.0193 252.691C26.9093 253.261 26.6993 253.71 26.0493 253.62C26.1793 253.061 26.6393 252.941 27.0193 252.691ZM30.8393 252.381C31.6393 252.341 31.6993 251.42 32.3493 251.14C32.4993 251.72 31.2293 253.281 30.9193 253.251C30.8893 252.961 30.8693 252.671 30.8393 252.381ZM44.4693 252.33C44.3193 253.12 43.8093 253.47 43.2793 253.8C43.3993 252.98 43.9493 252.67 44.4693 252.33ZM19.1693 249.27C19.0693 249.61 18.8693 249.87 18.5693 250.061C18.3493 249.71 18.1593 249.351 18.0093 248.971C18.3993 249.041 18.7893 249.14 19.1693 249.27ZM17.9693 250.851C17.5693 250.691 17.1693 250.701 16.7693 250.881C17.1593 250.471 17.0693 248.87 17.9693 249.311C17.7293 249.82 17.7293 250.341 17.9693 250.851ZM19.9393 250.04C19.5793 249.88 19.1293 250.75 18.8893 250.26C20.2093 249.14 21.1893 250.58 19.8293 251.05C20.0793 250.73 20.1193 250.391 19.9393 250.031V250.04ZM30.9093 250.14C30.4993 250.16 30.5293 250.71 29.9993 250.57C29.9493 250.11 30.7893 249.77 30.9093 250.14ZM29.7793 251.07C29.8793 250.63 29.1393 250.87 29.3393 250.34C29.8893 250.171 30.2493 250.92 29.7793 251.07ZM33.3893 251.07C33.3393 250.04 34.2393 250.09 34.8993 249.83C34.7593 250.16 34.7193 250.501 34.7893 250.851C33.8693 250.411 34.2593 252 33.3893 251.07ZM59.7893 251.74C59.6293 252.13 59.5893 252.54 59.6793 252.95C59.6993 252.95 58.9693 253.051 59.1393 253.101C58.9293 252.441 59.1493 251.99 59.7893 251.74ZM83.3792 253.601C83.7493 253.511 83.7692 253.081 84.0993 253.441C84.1793 254.041 83.3692 254.111 83.3792 253.601ZM20.4093 248.9C20.1593 249.171 19.7993 249.3 19.3393 249.3C19.1693 248.62 20.3593 248.68 20.4093 248.9ZM55.0493 250.441C54.8693 250.991 54.4893 251.32 53.9193 251.42C54.0993 250.87 54.4793 250.541 55.0493 250.441ZM24.5993 246.62C24.7693 246.6 23.4793 247.58 23.4493 247.7C23.6993 248.11 24.1893 247.451 24.2593 248.131C23.8693 248.441 23.4693 248.45 23.0493 248.17C23.0893 247.71 23.7493 246.09 24.5893 246.62H24.5993ZM49.4193 249.58C50.0093 249.33 49.8893 248.471 50.7193 248.62C50.6993 249.081 49.4693 250.79 49.4193 249.58ZM35.1293 247.62C35.3393 247.501 35.6093 247.441 35.9993 247.531C36.0993 248.171 35.0893 248.13 35.1293 247.62ZM26.0693 245.57C26.3893 246.19 26.1393 246.391 25.3193 246.18C25.3893 245.751 25.6293 245.55 26.0693 245.57ZM37.1493 246.251C36.8993 246.521 37.1093 247.34 36.5393 247.23C36.5793 246.71 36.7793 246.37 37.1493 246.251ZM41.1693 245.54C41.1693 246.1 40.6693 246 40.8993 246.55C39.6793 246.51 40.4393 245.44 41.1693 245.54ZM38.9593 247.09C39.6593 247.161 39.3993 246.09 40.2293 246.33C40.3593 247.13 39.3493 247.551 38.9593 247.09ZM28.2893 245.631C28.4393 246.321 27.8393 246.1 27.3893 246.061C27.3893 245.54 27.9793 245.761 28.2893 245.631ZM38.7593 245.531C38.8193 246.111 38.3493 246.061 38.1693 246.34C37.8093 245.921 38.2193 245.43 38.7593 245.531ZM39.2593 243.851C38.9993 244.381 39.0093 244.891 39.2793 245.4C38.2893 246.281 38.7993 244.37 38.8793 244.17C38.6893 244.32 38.5193 244.311 38.3693 244.131C38.7293 243.501 40.4293 243.09 40.0793 244.26C39.7393 244.26 39.4693 244.121 39.2593 243.851ZM41.5093 243.68C41.1893 244.57 40.5293 245.041 39.7893 245.441C39.1393 244.501 40.6193 243.93 41.5093 243.68ZM25.6393 242.971C25.3093 243.521 24.6593 243.68 24.1693 244.02C24.4693 243.44 24.8493 242.951 25.6393 242.971ZM30.7293 243.46C30.8993 243.73 31.2593 244.23 30.6393 244.311C30.5493 244.201 30.3193 243.47 30.7293 243.46ZM28.3193 241.86C29.0493 241.64 28.2793 242.6 28.7593 242.59C29.2193 242.57 28.9093 241.79 29.5093 241.98C29.2893 242.67 28.8493 243.14 28.1693 243.39C28.2693 242.89 28.3193 242.38 28.3193 241.87V241.86ZM43.1993 244.14C43.3193 243.06 44.6893 243.34 44.9193 244.09C44.3193 243.971 44.2293 243.74 43.1993 244.14ZM42.2793 242.87C42.2493 243.15 42.2293 243.441 42.1993 243.721C41.9893 243.751 41.8193 243.68 41.6993 243.51C42.1793 243.6 41.5993 242.531 42.2793 242.87ZM34.8393 241.59C35.2093 241.68 35.3593 241.93 35.2893 242.311C35.1193 242.391 34.9493 242.431 34.7593 242.441C34.7893 242.161 34.8093 241.87 34.8393 241.59ZM31.4993 240.79C31.9893 240.951 32.2593 241.301 32.2493 241.881C31.5393 241.911 31.1893 241.12 31.4993 240.79ZM40.9593 242.26C40.8793 241.61 41.7793 241.72 42.0093 241.99C41.9193 242.811 41.5993 242.19 40.9593 242.26ZM32.9893 239.38C33.2193 239.34 33.4493 239.31 33.6793 239.27C33.4193 239.86 33.0293 239.66 33.2293 240.43C32.6693 240.031 32.5793 240.701 32.0093 240.671C32.3493 240.251 32.6693 239.82 32.9793 239.39L32.9893 239.38ZM36.3493 238.13C35.2293 237.99 34.8593 239.74 34.0193 239.3C34.5993 238.89 35.5793 237.08 36.3493 238.13ZM35.7893 238.6C35.9593 238.8 36.0593 239.04 36.0693 239.3C35.8493 239.41 35.6193 239.45 35.3693 239.41C35.3493 239.05 35.4793 238.781 35.7793 238.59L35.7893 238.6ZM38.7793 235.59C39.0693 235.501 39.3593 235.411 39.6593 235.311C39.6193 235.701 39.4293 235.97 39.0793 236.13C38.9893 235.94 38.8893 235.77 38.7793 235.59ZM52.2293 234.41C51.9493 234.74 51.3793 235.971 50.9893 235.031C51.6093 235.171 51.9193 234 52.2293 234.41ZM69.9193 235.32C70.5592 235.171 70.5493 236.19 70.0393 236.19C70.1393 235.78 69.7493 235.811 69.9193 235.32ZM51.5493 234.201C51.4593 234.581 51.2193 234.73 50.8293 234.671C50.6693 234.331 50.6393 233.99 50.7293 233.63C50.9593 233.87 51.2293 234.06 51.5393 234.19L51.5493 234.201ZM51.1093 233.15C51.7993 232.99 51.9593 233.99 51.3893 234.02C51.2093 233.8 50.9193 233.68 51.1093 233.15ZM43.6493 232.19C44.3493 232.46 44.0593 231.55 44.6993 231.74C44.4793 232.35 44.1093 232.84 43.5693 233.21L43.6393 232.19H43.6493ZM50.4693 232.43C50.2393 232.85 50.6593 233.27 49.9093 233.08C49.8893 232.67 50.0793 232.46 50.4693 232.43ZM53.7093 232.781C53.7793 231.911 54.3893 232.72 54.9393 232.33C54.7693 232.76 54.0393 233.111 53.7093 232.781ZM55.2993 232.171C55.5293 232.18 55.7593 232.191 55.9793 232.201C56.0193 232.561 55.8893 232.84 55.5893 233.04C55.2193 233.171 55.3693 232.35 55.2993 232.171ZM72.6793 232.44C72.4193 232.65 72.1293 232.75 71.7993 232.77C72.9693 231.46 74.2093 230.19 75.7893 229.39C76.0393 230.4 74.7793 229.721 74.8693 230.59C75.1993 230.37 75.4293 230.441 75.5493 230.781C75.1393 231.18 73.2993 230.751 73.3893 232.12C73.6793 231.84 74.0392 231.73 74.4492 231.79C74.3292 232.07 74.2593 232.35 74.2293 232.65C73.8793 232.79 73.6193 231.98 73.3693 232.46C73.3093 232.83 74.8693 233.4 73.1393 233.49C73.0693 233.1 72.9193 232.75 72.6793 232.44ZM52.5993 231.52C53.4293 231.64 53.4793 230.85 54.1893 230.74C54.2693 231.27 54.8293 231.38 54.4493 231.96C54.0393 231.96 53.7693 231.781 53.6293 231.4C53.3393 231.68 53.1493 232.01 53.0393 232.4C52.5493 232.311 52.3993 232.02 52.5893 231.52H52.5993ZM45.9793 230.62C45.9393 231.18 45.9693 231.831 45.3893 231.781C45.5693 231.37 45.4293 230.6 45.9793 230.62ZM59.2693 231.83C59.0393 232.26 59.4793 232.68 58.7093 232.5C58.6393 232.04 58.8193 231.82 59.2693 231.83ZM60.0693 227.23C60.2493 227.12 60.4293 227.01 60.5993 226.91C60.3593 228.01 59.1393 227.111 58.5093 227.34C58.4593 228.18 56.7493 229.41 56.2793 230.19C56.0993 230.48 56.4993 231.76 55.5093 231.66C55.8493 229.36 56.2693 228.63 57.8593 226.79C57.7293 227.111 57.7693 227.4 57.9793 227.65C58.1993 227.21 58.3993 226.76 58.5793 226.3C58.3893 226.46 58.2193 226.451 58.0593 226.281C58.4693 226.281 59.0193 225.04 59.4793 225.48C58.8093 225.65 58.8293 226.941 59.5693 227.031C59.1193 226.46 60.4293 225.53 60.8293 225.88C60.6193 226.05 59.2693 226.801 60.0693 227.23ZM59.6193 226.01C59.1193 225.51 60.2093 224.64 60.7093 224.85C60.5293 225.41 60.1693 225.8 59.6193 226.01ZM46.1393 230.8C46.4893 230.28 46.9993 229.94 47.5793 229.69C47.3093 230.25 46.7193 231.19 46.1393 230.8ZM52.6593 230.671C52.3893 230.73 52.4793 231.2 51.9493 230.97C51.6693 230.38 52.6193 230.29 52.6593 230.671ZM54.6193 229.39C54.6193 229.84 54.0693 230.58 53.7293 230.04C54.1293 229.94 54.2193 229.49 54.6193 229.39ZM48.3193 228.89C48.5593 229.16 48.2793 229.77 47.7493 229.71C47.6993 229.171 48.0093 229.03 48.3193 228.89ZM77.0192 228.71C77.3193 229.171 76.5393 229.29 77.1393 229.76C76.4593 229.951 76.4993 228.72 77.0192 228.71ZM77.9293 227.68C78.4093 228.19 77.9792 229.051 77.3493 229.061C77.2292 228.451 77.4193 227.98 77.9293 227.68ZM57.1393 227.29C56.9793 227.561 56.5993 228.501 56.2393 227.93C56.5993 227.781 56.6293 227.27 57.1393 227.29ZM52.9293 226.061C52.9493 226.51 52.8293 226.79 52.3793 226.72C52.3593 226.27 52.4893 225.99 52.9293 226.061ZM61.7293 224.89C61.9693 224.67 62.2093 224.451 62.4493 224.23C62.6493 224.691 62.5693 225.09 62.2193 225.421C62.0193 225.281 61.8593 225.1 61.7393 224.89H61.7293ZM64.3493 223.951C64.5793 223.9 64.8092 223.85 65.0393 223.8C65.0193 224.25 65.4092 224.83 65.3092 225.18C65.0693 225.421 64.7793 225.53 64.4393 225.5C64.4793 224.98 64.4392 224.46 64.3493 223.951ZM61.8093 223.35C62.0693 223.3 62.2993 223.361 62.4793 223.54C61.8193 223.8 61.9593 224.66 61.0593 224.52C61.3893 224.18 61.6393 223.79 61.8093 223.34V223.35ZM113.509 223.311C114.709 223.111 113.579 224.29 113.479 224.36C113.249 224 113.259 223.65 113.509 223.311ZM81.7393 223.531C82.2393 221.65 83.8193 224.051 82.5793 224.23C82.6393 223.54 82.3593 223.301 81.7393 223.531ZM66.6693 222.29C66.4092 222.54 65.7793 222.46 65.5493 222.55C64.7293 222.88 64.7093 224.1 63.3393 223.561C64.3093 223.301 65.0893 222.34 65.3293 221.39C65.4993 221.73 65.7793 221.91 66.1693 221.93C65.8392 221.63 65.8593 221.34 66.2093 221.07C66.4393 221.1 66.6093 221.22 66.7093 221.43C66.5892 221.13 66.8792 220.021 67.4492 220.061C68.2992 220.93 66.4093 221.51 66.6793 222.281L66.6693 222.29ZM52.8793 220.93C53.7293 220.87 53.1693 219.82 53.4693 219.421C54.4393 219.551 53.6093 220.94 53.5493 221.3C53.1993 221.37 52.9793 221.251 52.8893 220.93H52.8793ZM65.0192 220.87C65.5592 220.671 66.1493 220.83 65.8693 221.07C65.9093 220.781 65.0892 221.68 65.0192 220.87ZM57.3793 219.41C57.5993 219.64 57.6293 220.44 57.1593 220.43C57.2693 220.13 56.9993 219.42 57.3793 219.41ZM55.2193 218.13C55.1493 218.47 55.0793 218.81 54.9993 219.14C55.3193 218.93 55.5493 219.001 55.6693 219.34C55.3193 219.471 54.7293 220.32 54.2893 219.8C54.4293 219.17 54.4293 218.34 55.2193 218.13ZM67.9593 219.73C68.5093 219.99 68.4893 218.77 68.8293 219.4C68.6693 219.73 68.1992 220.51 67.9593 219.73ZM63.0793 218.25C62.8393 218.71 62.4293 218.98 62.1693 219.421C61.9693 219.15 62.6493 217.85 63.0793 218.25ZM56.7593 218.031C56.7593 218.15 56.1893 219.671 55.6993 218.84C56.2893 218.801 56.0693 217.951 56.7593 218.031ZM71.5093 216.02C71.1693 216.92 70.3092 217.671 69.7193 218.4C70.1093 218.37 70.3392 218.55 70.3893 218.93C69.6693 218.37 69.7093 219.13 69.0093 219.25C69.2093 218.67 69.0493 218.21 68.5393 217.86C69.9593 218.24 70.3993 216.43 71.5093 216.02ZM119.189 217.38C118.759 217.55 118.979 218.361 118.299 218.281C118.409 217.9 118.829 216.92 119.189 217.38ZM87.9993 217.3C88.4492 217.4 88.6192 217.22 88.5293 216.77C89.4792 216.97 89.0092 218.501 88.3092 218.68C88.5293 218.13 88.4193 217.671 87.9993 217.29V217.3ZM58.6993 216.58C58.2593 217.17 57.7193 217.661 57.0993 218.061C57.2493 217.34 57.9093 216.8 58.6993 216.58ZM75.7593 217.46C75.3693 217.77 74.7093 218.73 74.1793 218.3C74.7393 218.17 75.1093 216.91 75.7593 217.46ZM73.2093 216.57C73.9893 216.5 74.2292 215.71 74.9593 215.561C74.8792 216.171 73.8993 217.19 73.1893 217.08C73.3893 216.93 73.3893 216.751 73.2093 216.561V216.57ZM59.2493 215.76C59.3993 215.9 59.5693 216.02 59.7493 216.12C59.4993 216.361 59.2093 216.52 58.8793 216.6C58.7693 216.201 58.8993 215.92 59.2593 215.77L59.2493 215.76ZM61.1693 214.451C61.2093 215.081 60.8793 215.32 60.4593 215.46C60.6593 215.09 60.6793 214.521 61.1693 214.451ZM72.2293 215.36C72.4293 213.86 73.5592 215.3 73.7692 215.55C72.9392 215.54 73.2393 214.82 72.2293 215.36ZM59.1493 214.05C59.7593 213.68 59.8493 212.88 60.7093 212.9C60.6793 213.361 60.6693 213.81 60.6693 214.27C60.4093 214.38 59.7693 213.721 59.6593 213.9C59.8993 214.141 59.9993 214.421 59.9693 214.76C59.5693 214.671 59.2893 214.44 59.1393 214.05H59.1493ZM62.3893 213.281C62.8393 213.941 62.1993 214.58 61.5093 214.46C61.5193 214.16 62.1393 213.451 62.3893 213.281ZM75.3993 212.66C74.9693 213.04 74.6193 214.97 73.9793 214.02C74.8093 213.94 74.5293 212.71 75.3993 212.66ZM79.3792 211.47C79.3092 211.87 79.1892 212.221 78.8493 212.34C78.5993 212.09 78.8493 211.45 79.3792 211.47ZM78.5393 210.44C77.8193 210.79 77.1192 212.76 76.2793 211.82C77.2692 211.74 77.7793 210.19 78.5393 210.44ZM83.7093 209.55C83.7793 210.09 83.4792 210.26 83.1693 210.421C82.8993 210.15 83.2692 209.62 83.7093 209.55ZM81.8293 208.87C83.0193 209.1 82.8092 208.05 83.7393 207.82C83.9792 208.66 82.3893 209.34 81.9793 209.73C81.8893 209.451 81.8393 209.16 81.8293 208.87ZM81.6693 208.35C82.6192 208.3 81.6292 207.14 82.5592 206.96C82.5393 207.031 82.0793 209.78 81.6693 208.35ZM84.8193 205.57C84.8993 206.18 84.6493 206.46 84.2793 206.61C83.9792 206.28 84.1093 205.4 84.8193 205.57ZM72.6593 204.921C72.8193 205.671 72.2692 205.691 71.9593 205.951C72.1592 205.57 72.1693 205.001 72.6593 204.921ZM72.1493 204.75C72.2293 205.19 71.5293 205.73 71.2893 205.26C71.7293 205.251 71.4793 204.52 72.1493 204.75ZM74.3792 204.41C74.3992 204.73 74.9792 205.49 74.5293 205.44C74.6592 205.01 73.7893 204.73 74.3792 204.41ZM72.5293 202.69C72.5592 203.1 72.7193 203.44 73.0293 203.72C73.1992 203.36 73.4893 203.251 73.8893 203.37C73.7292 203.87 73.7493 204.99 72.9993 205.09C73.1693 204.37 71.4792 203.04 72.5293 202.68V202.69ZM89.5093 203.811C89.7293 204.34 88.9993 204.79 88.8092 204.33C89.1393 204.26 88.9593 203.661 89.5093 203.811ZM75.0892 202.69C75.1292 203.14 75.0092 203.43 74.5592 203.38C74.5192 202.93 74.6393 202.64 75.0892 202.69ZM86.5892 202.98C86.9593 202.441 89.3893 201.35 88.6992 200.55C88.9293 200.55 89.1592 200.55 89.3893 200.55C89.5793 201.63 88.1792 201.63 88.8392 202.62C88.5192 202.671 88.2893 202.561 88.1593 202.281C88.1593 202.57 88.1493 202.85 88.1393 203.14C87.4092 203.1 87.2892 202.48 86.5892 202.98ZM90.2593 200.36C91.4893 200.38 89.9392 202.701 89.5592 201.23C90.0293 200.65 90.5593 201.36 90.2593 200.36ZM90.6193 198.79C91.5593 198.63 91.4692 200.51 90.7692 200.35C90.5892 199.72 90.9193 199.4 90.6193 198.79ZM94.7493 198.54C94.6493 198.96 94.5893 199.43 94.0493 199.421C94.0093 198.861 94.2593 198.58 94.7493 198.54ZM140.269 192.57C140.279 192.37 140.729 191.27 141.129 191.83C140.729 192.05 140.669 192.34 140.959 192.71C140.729 192.66 140.499 192.61 140.269 192.57ZM98.0793 192.421C99.0893 192.4 98.3993 194.39 97.7193 193.64C98.3193 193.48 97.6793 192.951 98.0793 192.421ZM141.479 190.951C141.699 190.451 142.349 189.01 143.209 189.48C142.369 189.87 143.389 190.2 143.389 190.69C142.889 190.64 142.489 190.43 142.179 190.05C142.239 190.31 142.139 191.551 141.489 190.951H141.479ZM144.069 188.04C143.759 188.21 143.789 188.69 143.379 188.77C142.779 188.31 143.959 187.3 144.069 188.04ZM90.8993 185.84C90.8193 186.34 90.5293 186.63 90.0293 186.72C89.9293 186.04 90.4193 185.951 90.8993 185.84ZM91.9393 183.75C91.4993 182.87 92.2692 183.36 92.6292 183.05C92.1393 182.73 91.9092 182.27 91.9492 181.69C92.7793 181.62 92.1493 182.941 92.9793 182.87C92.8193 182.13 93.7393 181.59 93.8493 182.16C93.2493 182.32 92.7393 185.59 91.9492 184.09C91.6992 184.34 91.1693 185.62 90.5693 185.15C90.4293 184.59 91.3493 183.53 91.9492 183.75H91.9393ZM91.5993 182.38C91.4792 183.12 90.9993 183.521 90.5592 183.951C90.7393 183.271 90.8792 182.54 91.5993 182.38ZM148.379 180.701C148.979 180.51 149.029 178.9 149.759 179.421C149.309 179.801 149.169 181.191 148.379 180.701ZM92.8092 180.47C93.0693 180.4 93.2993 180.451 93.4993 180.63C92.8493 180.75 92.6793 181.1 92.9793 181.671C92.2593 181.48 92.6693 180.9 92.8092 180.47ZM95.3893 179.72C95.9193 179.84 95.5993 179.12 96.2493 179.35C96.1992 179.79 95.4893 180.33 95.3893 179.72ZM92.8092 178.58C93.1592 178.48 93.3893 178.58 93.4993 178.91C93.1393 178.97 92.9593 179.43 92.8092 179.44C92.8092 179.15 92.8092 178.87 92.8092 178.58ZM152.519 175.98C152.679 176.671 152.619 176.85 151.829 177.061C151.749 176.49 151.979 176.13 152.519 175.98ZM98.2993 176.36C98.5493 176.39 98.7793 176.331 98.9893 176.171C98.8893 175.991 98.7693 175.82 98.6493 175.66C99.2193 174.85 99.9193 176.641 98.1393 177.4C98.1592 177.05 98.2193 176.7 98.3092 176.36H98.2993ZM154.759 175L154.069 175.04C153.929 174.37 154.889 174.33 154.759 175ZM100.879 174.39C100.969 173.92 101.249 173.68 101.739 173.671C101.799 174.611 101.199 174.31 100.879 174.39ZM157.139 169.66C157.659 169.52 158.059 168.96 158.359 169.74C158.489 170.07 157.729 169.41 157.659 169.98C158.619 170.311 157.969 170.96 157.499 170.86C157.639 170.26 156.999 170.26 157.139 169.66ZM102.599 170.9C102.919 170.77 103.669 169.52 104.149 169.82C103.849 170.061 103.619 170.35 103.459 170.701C103.689 170.65 103.919 170.581 104.149 170.51C103.939 170.921 103.939 171.32 104.149 171.72C103.579 171.54 103.069 171.27 102.599 170.91V170.9ZM158.859 167.83C158.939 168.16 159.229 168.251 159.209 168.68C158.759 168.66 158.179 168.02 158.859 167.83ZM104.839 169.451C105.509 169.4 105.969 169.67 106.219 170.27C105.849 170.27 104.709 170.331 104.839 169.451ZM160.069 167.421C160.119 167.87 160.019 168.17 159.559 168.14C159.509 167.69 159.619 167.391 160.069 167.421ZM105.699 168.04C105.409 168.671 104.949 169.15 104.319 169.46C104.669 168.93 105.119 167.93 105.699 168.04ZM106.729 167.66C106.869 168.42 107.389 168.93 105.869 169.58C105.949 168.61 105.249 168.19 106.729 167.66ZM161.599 164.55C161.459 165.04 161.579 165.44 161.959 165.75C161.629 165.95 161.349 166.19 161.099 166.49C160.999 165.311 160.529 166.55 160.399 165.83C161.129 165.72 161.019 164.85 161.599 164.55ZM106.379 166.12C106.929 166.04 107.069 166.62 106.899 165.93C108.229 165.49 106.889 166.93 106.899 166.79C107.089 166.91 107.149 167.08 107.069 167.3C106.219 167.33 106.739 166.8 106.379 166.12ZM108.789 166.04C108.859 165.54 109.369 165.46 109.639 165.14C109.789 165.85 109.329 166.51 108.789 166.04ZM109.969 163.4C110.059 162.99 110.279 162.701 110.649 162.51C110.679 162.921 110.509 163.22 110.139 163.39C110.299 163.36 110.409 163.42 110.489 163.55C110.319 163.5 110.149 163.451 109.969 163.4ZM112.539 161.921C112.069 162.04 112.119 162.66 111.509 162.65C111.509 162.18 112.159 161.46 112.539 161.921ZM112.539 162.27C112.599 162.25 113.279 161.39 113.399 162.24C113.269 162.27 112.679 162.86 112.539 162.27ZM114.589 160.29C114.559 161.18 114.059 161.61 113.399 161.89C113.469 161.04 114.299 160.93 114.589 160.29ZM113.889 159.11C114.329 159.86 113.719 160.35 113.219 160.69C113.199 159.93 113.289 159.27 113.889 159.11ZM117.149 157.951C117.359 158.081 117.589 158.13 117.839 158.1C117.889 158.84 117.549 159.26 116.819 159.35C117.209 158.93 117.319 158.471 117.149 157.951ZM120.869 151.41C120.899 151.68 121.369 151.28 121.559 151.38C121.869 152.42 120.149 151.6 120.869 151.41ZM154.399 112.88C154.699 112.64 155.039 112.5 155.419 112.47C155.499 113.34 155.239 114 154.429 114.09C154.709 113.68 154.699 113.27 154.389 112.88H154.399ZM157.609 110.27C156.809 110.27 157.079 111.49 156.409 110.68C156.819 110.65 157.209 109.75 157.609 110.27ZM230.509 80.8105C230.409 81.9205 231.509 80.3405 231.579 81.7705C231.169 81.6305 230.829 81.7105 230.549 82.0205C230.369 81.7305 229.879 81.0005 230.509 80.8005V80.8105ZM230.749 82.7105C230.529 82.6805 230.359 82.7505 230.239 82.9205C230.299 83.1905 231.109 83.6005 230.619 83.9405C230.079 83.7205 229.399 82.3605 229.849 81.7305C230.399 81.8205 230.699 82.1505 230.749 82.7005V82.7105ZM164.919 100.49C164.979 100.07 165.199 99.7705 165.579 99.5805C165.669 99.9805 165.689 100.38 165.619 100.79C165.349 100.77 165.119 100.67 164.919 100.49ZM230.969 78.2305C231.899 78.2305 233.319 80.8605 232.069 80.6905C231.779 79.8405 231.309 79.0605 230.969 78.2305ZM166.929 98.8005C166.349 99.1005 167.049 99.5205 166.439 99.7005C166.159 99.6105 166.439 98.1505 166.929 98.8005ZM231.309 78.0305C231.259 77.6605 231.429 77.4705 231.809 77.4705C232.279 78.5205 231.699 77.9805 231.309 78.0305ZM188.429 69.3005C187.849 69.3805 188.119 70.2405 187.609 70.3905C187.379 69.6805 187.989 68.8605 188.429 69.3005ZM189.569 67.6605C189.129 68.1005 188.939 68.7605 188.239 68.9605C188.289 68.1805 188.679 67.7005 189.569 67.6605ZM189.689 66.6105C189.489 67.2105 190.159 67.2705 189.209 67.3405C189.139 66.9405 189.299 66.6905 189.689 66.6105ZM245.799 28.6705C246.039 28.7605 246.269 28.8605 246.509 28.9505C246.179 29.7405 245.769 30.4705 245.259 31.1605C245.439 30.3305 245.619 29.5005 245.799 28.6705ZM200.459 50.6105C200.759 50.9905 200.539 52.0105 200.029 52.2005C199.869 51.4005 200.239 51.0805 200.459 50.6105ZM245.209 27.6805C245.049 28.6905 244.619 29.8105 245.059 30.8305C244.829 30.8505 244.599 30.8805 244.369 30.9005C244.779 29.8005 243.949 28.4905 245.209 27.6905V27.6805ZM203.199 41.5805C203.239 41.3505 203.289 41.1105 203.329 40.8805C204.199 40.7605 203.949 41.9105 204.919 41.6105C204.919 42.1705 204.649 42.5405 204.119 42.7105C204.789 41.9705 203.809 41.4705 203.189 41.5805H203.199ZM251.309 20.7805C251.659 20.8605 251.909 21.0605 252.049 21.3905C251.839 21.6605 251.559 21.8105 251.219 21.8305C251.319 21.4805 251.349 21.1305 251.309 20.7705V20.7805ZM240.619 18.4205C240.719 17.9905 240.639 17.5905 240.359 17.2305C240.309 17.2505 241.469 17.3005 241.389 17.3005C241.139 17.7805 240.739 18.2205 241.479 18.5005C241.169 18.7005 240.889 18.6705 240.609 18.4105L240.619 18.4205ZM228.639 14.8805C228.189 14.8805 228.549 15.5605 227.989 15.4605C227.729 14.9505 228.409 14.4405 228.639 14.8805ZM230.859 12.2705C230.759 12.9905 230.629 13.6805 229.939 13.9005C230.299 13.4005 230.149 12.4705 230.859 12.2705ZM232.609 10.5605C232.589 10.9605 232.569 11.3705 231.989 11.3105C231.969 10.8705 232.179 10.6205 232.609 10.5605ZM230.609 9.20049C231.069 9.26049 231.179 9.14049 230.919 8.83049C231.519 8.67049 231.289 9.81049 230.829 9.70049C230.759 9.53049 230.689 9.37049 230.609 9.20049ZM233.719 12.4405C234.069 12.7105 233.929 13.3605 233.699 13.6205C233.439 13.4205 233.229 12.5005 233.719 12.4405Z" fill="#B11E1E"/>
</svg>