<svg xmlns="http://www.w3.org/2000/svg" width="1440" height="1147" viewBox="0 0 1440 1147" fill="none">
  <path d="M1234.27 714.232C1234.26 714.224 1234.26 714.203 1234.28 714.204L1648.05 724.42C1651.72 724.511 1652.31 719.185 1648.7 718.477L1259.08 642.017C1255.98 641.4 1256.22 637.207 1259.37 636.952C1264.91 636.504 1270.79 636.062 1277.01 635.62L1818 598.001L1276.7 561.849C1206.48 557.168 1174.19 542.91 1168.87 538.217C1168.41 537.816 1168.4 537.278 1168.81 536.83C1171.48 533.916 1185.08 522.578 1240.93 509.793L1677.03 409.975C1680.64 409.148 1679.84 403.787 1676.14 404.059L1207.05 438.547C1197.66 439.23 1188.77 439.867 1180.53 440.414C1179.99 440.45 1179.81 439.694 1180.31 439.486L1618.53 246.562C1621.93 245.069 1620.13 239.958 1616.55 240.919L1110.56 376.749C1094.04 381.2 1079.33 384.982 1066.23 388.237C1063.1 389.016 1061.18 385.034 1063.76 383.083C1068.64 379.379 1073.92 375.432 1079.62 371.232L1397.64 138.757C1400.56 136.626 1397.92 132.11 1394.63 133.604L985.016 319.763C923.148 347.848 889.382 358.775 872.066 362.955C870.612 363.306 869.14 362.51 868.698 361.081C865.785 351.656 863.464 333.783 867.966 300.983L922.218 33.9665C922.866 30.7763 918.682 28.9826 916.819 31.6518L742.211 281.734C707.215 321.457 683.468 340.378 669.514 349.228C668.352 349.965 666.847 349.784 665.895 348.79C656.81 339.307 643.033 320.858 626.839 285.607L496.587 2.04262C495.23 -0.911048 490.801 0.100493 490.861 3.35031L496.259 295.29C496.73 321.011 495.679 338.732 494.016 350.962C493.746 352.944 491.626 354.057 489.827 353.182C474.309 345.643 452.765 334.377 422.946 317.474L129.768 151.152C126.783 149.459 123.754 153.293 126.092 155.805L316.804 360.727C327.7 372.417 335.589 381.887 341.27 389.528C342.875 391.687 340.966 394.58 338.337 394.009C321.501 390.356 299.201 384.826 269.921 376.455L-40.1148 287.876C-43.4794 286.915 -45.4865 291.512 -42.4943 293.326L190.839 434.791C205.383 443.625 216.985 451.104 226.245 457.419C228.757 459.132 227.366 462.952 224.338 462.673C211.883 461.525 197.114 459.941 179.511 457.738L-148.697 417.06C-152.238 416.621 -153.449 421.625 -150.099 422.853L128.748 525.111C140.658 529.477 150.915 533.444 159.753 537.026C162.751 538.242 161.908 542.537 158.673 542.545C150.585 542.566 141.648 542.51 131.789 542.365L-336.646 534.422C-340.359 534.359 -340.853 539.77 -337.19 540.381L110.813 615.138C156.57 622.733 184.143 629.078 200.665 633.693C203.298 634.428 203.543 637.943 201.037 639.035C190.026 643.83 173.367 650.242 148.256 658.332L-182.691 764.273C-186.145 765.379 -185.038 770.524 -181.434 770.111L194.51 726.996C264.209 718.991 298.714 719.361 314.448 720.571C316.331 720.716 317.54 722.568 316.777 724.296C312.583 733.796 299.685 752.889 260.796 787.386L-51.4361 1064.32C-54.1353 1066.71 -51.0876 1070.96 -47.9559 1069.17L364.526 833.221C421.823 800.429 452.434 790.655 465.314 787.781C466.305 787.56 467.32 787.866 467.994 788.625C475.177 796.712 488.554 819.456 491.54 877.823L479.276 1105.86C479.11 1108.96 483.186 1110.24 484.822 1107.6L618.344 892.202C651.199 851.948 673.562 838.192 683.222 833.701C683.987 833.345 684.851 833.351 685.612 833.716C695.969 838.685 720.839 854.572 757.524 903.352L939.255 1145.63C941.202 1148.23 945.309 1146.32 944.578 1143.16L884.643 884.22C877.443 853.159 877.174 834.64 878.735 823.822C878.986 822.081 880.738 821.031 882.417 821.556C899.914 827.032 929.642 838.537 976.94 862.682L1290.72 1022.92C1293.81 1024.5 1296.67 1020.44 1294.13 1018.06L1078.68 816.201C1062.4 800.954 1052.63 789.78 1046.73 781.817C1045.27 779.837 1046.81 777.155 1049.26 777.341C1068.86 778.827 1100.63 782.694 1150.42 791.963L1627.92 880.59C1631.55 881.265 1632.95 876.046 1629.47 874.812L1206.84 725.236C1200.9 723.124 1195.39 721.127 1190.26 719.23C1187.16 718.082 1187.97 713.63 1191.28 713.639C1203.74 713.674 1217.98 713.855 1234.26 714.259C1234.28 714.26 1234.28 714.239 1234.27 714.232Z" fill="#E5DED5"/>
</svg>