<svg xmlns="http://www.w3.org/2000/svg" width="99" height="68" viewBox="0 0 99 68" fill="none">
  <g clip-path="url(#clip0_3909_13111)">
    <path d="M33.5207 60.6466C36.2608 60.7298 38.8639 62.7206 41.7695 62.9587C43.6733 63.0993 44.5752 62.2961 45.8453 61.1687C45.0376 59.743 44.5838 58.759 42.9683 58.1681C40.5793 57.296 37.4624 57.4767 35.6671 55.6551C34.1686 54.1462 33.9688 51.1627 34.9421 49.5391C34.2771 50.6234 37.0115 52.4049 37.785 52.6631C37.8278 52.6803 37.8734 52.6975 37.9191 52.7147C39.6631 53.3515 41.6582 53.0016 43.4249 53.6183C44.9462 54.1519 46.1593 55.4399 46.7986 56.9603C47.3666 58.3287 47.4694 59.8577 47.2154 61.3351C47.0184 62.8153 46.4704 64.2869 45.3202 65.4287C44.0586 66.6966 41.9636 67.4769 39.8372 67.1614C37.3483 66.7913 35.3845 65.2221 33.2096 64.3501C33.1525 64.3271 33.0954 64.3042 33.0384 64.2812C32.0651 63.9743 28.1005 62.5829 27.6182 63.6587C28.3917 61.9461 31.2288 60.5978 33.5179 60.6495L33.5207 60.6466Z" fill="url(#paint0_linear_3909_13111)"/>
    <path d="M21.2723 53.3079C23.5785 54.0538 25.3167 56.4147 27.6772 57.3442C29.2299 57.9409 30.1604 57.4819 31.479 56.845C31.1508 55.4222 31.0081 54.4583 29.7979 53.5403C28.0026 52.1777 25.3281 51.5466 24.2007 49.5213C23.2588 47.8402 23.7212 45.1953 24.9029 44.0249C24.1037 44.8023 26.0702 47.0456 26.6668 47.4673C26.701 47.4931 26.7353 47.519 26.7695 47.5448C28.1167 48.5402 29.8892 48.7554 31.2393 49.7479C32.3981 50.6028 33.1088 52.0285 33.2743 53.4915C33.4199 54.8083 33.0688 56.1135 32.5693 57.3356C32.0727 58.5576 31.2478 59.6649 30.0319 60.3506C28.6933 61.1136 26.7838 61.2599 25.0941 60.4653C23.1132 59.533 21.8288 57.7085 20.1905 56.4262C20.1477 56.3918 20.1049 56.3602 20.0621 56.3258C19.3143 55.8238 16.2545 53.6665 15.6123 54.4841C16.6398 53.1817 19.3485 52.6998 21.278 53.3079L21.2723 53.3079Z" fill="url(#paint1_linear_3909_13111)"/>
    <path d="M12.7641 44.0281C14.5851 45.2387 15.5727 47.7115 17.3709 49.0914C18.5582 49.9893 19.4431 49.8229 20.7018 49.602C20.7389 48.2939 20.8274 47.4275 19.9939 46.3288C18.7552 44.6994 16.5974 43.486 16.0408 41.4406C15.5727 39.7395 16.4918 37.5248 17.7391 36.7876C16.8999 37.2753 18.1501 39.7395 18.5754 40.2558C18.5982 40.2874 18.6239 40.3189 18.6467 40.3505C19.6029 41.5611 21.0842 42.1979 22.0319 43.4085C22.8453 44.4498 23.1393 45.8612 22.9595 47.1665C22.7939 48.3398 22.206 49.3725 21.5124 50.2991C20.8188 51.2257 19.8769 51.9687 18.701 52.2584C17.4023 52.5854 15.7639 52.2469 14.5024 51.1511C13.0267 49.8716 12.3217 47.9812 11.1915 46.4751C11.1629 46.435 11.1315 46.3977 11.103 46.3575C10.5749 45.7436 8.40001 43.136 7.68359 43.6954C8.82243 42.8032 11.2371 43.0241 12.7613 44.0253L12.7641 44.0281Z" fill="url(#paint2_linear_3909_13111)"/>
    <path d="M6.87932 33.8989C8.20939 35.3906 8.58615 37.7917 9.85343 39.4183C10.6926 40.4797 11.4803 40.5456 12.5992 40.6518C12.8875 39.5187 13.133 38.7843 12.6278 37.6196C11.8799 35.8926 10.2559 34.3149 10.1588 32.3699C10.0732 30.752 11.2577 28.9849 12.4594 28.6177C11.6516 28.8586 12.2795 31.3601 12.5507 31.9195C12.565 31.954 12.5792 31.9884 12.5964 32.0199C13.1957 33.3252 14.3489 34.246 14.9368 35.5427C15.4392 36.6586 15.4221 37.9696 15.011 39.0654C14.64 40.0494 13.9321 40.8096 13.1558 41.4493C12.3794 42.089 11.429 42.5136 10.3672 42.4877C9.1941 42.4648 7.86688 41.7935 7.00776 40.5485C6.00021 39.0912 5.76045 37.2782 5.07829 35.6947C5.06117 35.6545 5.04404 35.6115 5.02406 35.5714C4.69011 34.9116 3.32293 32.1146 2.60938 32.4502C3.74251 31.9167 5.76331 32.6625 6.87932 33.896L6.87932 33.8989Z" fill="url(#paint3_linear_3909_13111)"/>
    <path d="M3.88453 23.087C4.7408 24.7222 4.62378 26.9483 5.39728 28.6752C5.9139 29.8055 6.56752 30.0436 7.498 30.3993C7.95182 29.467 8.29433 28.8731 8.08026 27.7228C7.75773 26.0102 6.67027 24.2287 6.93571 22.4559C7.15264 20.9814 8.46559 19.6389 9.54734 19.5786C8.82522 19.6188 8.91085 22.0342 9.03929 22.5993C9.045 22.6338 9.05356 22.6682 9.05927 22.6997C9.33327 24.0165 10.1496 25.1152 10.415 26.4147C10.6434 27.5306 10.3893 28.6953 9.83847 29.5674C9.34184 30.3505 8.60259 30.8525 7.82338 31.2341C7.04703 31.6156 6.15936 31.7676 5.26598 31.5008C4.27842 31.2111 3.27943 30.319 2.7828 29.028C2.20053 27.5163 2.32897 25.8553 2.04355 24.2919C2.03499 24.2517 2.02928 24.2115 2.02071 24.1685C1.85802 23.5087 1.21296 20.7003 0.550781 20.8437C1.604 20.6113 3.16812 21.7273 3.88739 23.0841L3.88453 23.087Z" fill="url(#paint4_linear_3909_13111)"/>
    <path d="M3.37585 12.9975C3.80969 14.6642 3.33018 16.6522 3.68411 18.3677C3.92101 19.4922 4.43192 19.8451 5.15119 20.3643C5.69349 19.6271 6.08167 19.1652 6.09879 18.0808C6.12163 16.4629 5.51082 14.6155 6.03885 13.0463C6.4727 11.7411 7.80277 10.7657 8.71898 10.9264C8.10532 10.8173 7.76567 13.0693 7.77994 13.6114C7.77994 13.643 7.77994 13.6774 7.77994 13.709C7.78565 14.9741 8.28514 16.1531 8.28799 17.3924C8.28799 18.4566 7.87984 19.4549 7.26618 20.1205C6.71531 20.7172 6.0046 21.004 5.28248 21.179C4.56321 21.354 3.79257 21.2966 3.08757 20.8692C2.30551 20.4016 1.62335 19.3947 1.42926 18.1353C1.20377 16.6608 1.59766 15.1921 1.6262 13.7176C1.6262 13.6803 1.6262 13.6401 1.6262 13.6028C1.60337 12.9746 1.54914 10.2895 0.969727 10.2866C1.88879 10.2809 3.0048 11.6148 3.37585 12.9975Z" fill="url(#paint5_linear_3909_13111)"/>
    <path d="M4.6298 3.69168C4.71258 5.30675 3.98189 7.03943 3.99045 8.66597C4.00187 9.73599 4.36721 10.1519 4.88098 10.763C5.45468 10.1978 5.85427 9.85647 6.04836 8.86391C6.33378 7.38654 6.13399 5.57353 6.83613 4.21665C7.41554 3.08639 8.68567 2.40938 9.41921 2.72206C8.92828 2.51552 8.2661 4.55515 8.18618 5.06004C8.18047 5.08873 8.17477 5.12028 8.16906 5.15184C7.96355 6.328 8.18333 7.51276 7.98068 8.65736C7.80657 9.64132 7.29851 10.4732 6.67915 10.958C6.11971 11.3941 5.48037 11.5576 4.85243 11.5289C4.2245 11.5289 3.59086 11.3424 3.07424 10.8175C2.50339 10.2409 2.10095 9.20241 2.14947 8.02339C2.20655 6.64355 2.78026 5.37846 3.05141 4.03305C3.05997 3.99863 3.06568 3.9642 3.07139 3.92691C3.15701 3.34744 3.56232 0.868897 3.07995 0.765625C3.84489 0.920534 4.54988 2.34914 4.62695 3.69168L4.6298 3.69168Z" fill="url(#paint6_linear_3909_13111)"/>
    <path d="M39.8186 67.2648C38.1888 67.021 36.776 66.2694 35.4117 65.5407C34.6838 65.1534 33.9303 64.7518 33.1682 64.4449C33.1111 64.4219 33.0569 64.399 33.0055 64.3818C32.9285 64.356 32.8314 64.3244 32.7201 64.29C31.5841 63.9199 28.1276 62.8011 27.7195 63.6962C27.7195 63.6962 27.7195 63.6962 27.7195 63.699C27.6967 63.7535 27.631 63.7765 27.5796 63.7535C27.5254 63.7306 27.5026 63.6646 27.5254 63.613C27.5254 63.613 27.5254 63.6101 27.5254 63.6072C28.2932 61.9176 31.0989 60.4775 33.525 60.5406C34.9464 60.5836 36.2936 61.1172 37.7179 61.6852C39.0251 62.2044 40.3752 62.7409 41.7795 62.8556C43.6062 62.9905 44.4567 62.2647 45.7098 61.1488L45.5842 60.9279C44.8678 59.6513 44.394 58.8079 42.9326 58.2744C42.1163 57.976 41.1915 57.7982 40.2981 57.626C38.5742 57.2933 36.7903 56.9519 35.5915 55.7356C34.0245 54.1578 33.9018 51.0998 34.838 49.5077C34.8408 49.5019 34.8465 49.4933 34.8494 49.4876C34.8808 49.436 34.9464 49.4216 34.9949 49.4532C35.0463 49.4847 35.0606 49.5507 35.032 49.5995C35.0292 49.6052 35.0263 49.6109 35.0206 49.6167C34.9236 49.7859 34.9179 49.981 35.0007 50.2076C35.3517 51.1772 37.1727 52.3505 37.8206 52.5657C37.8635 52.5829 37.9063 52.6001 37.9519 52.6144C38.8196 52.93 39.7729 53.0017 40.6977 53.0706C41.6168 53.1394 42.5701 53.2083 43.4578 53.5181C44.9334 54.0344 46.2178 55.3053 46.8943 56.9175C47.4423 58.2371 47.5878 59.7718 47.3167 61.3496C47.0884 63.065 46.4404 64.465 45.3929 65.5063C44.2398 66.6652 42.5016 67.3365 40.7691 67.3365C40.4523 67.3365 40.1326 67.3136 39.8186 67.2677L39.8186 67.2648ZM35.7399 55.5778C36.8902 56.7482 38.6427 57.0839 40.3352 57.4109C41.2372 57.5859 42.1705 57.7637 43.0039 58.0678C44.5395 58.6301 45.0561 59.5481 45.7697 60.8189L45.9381 61.1172C45.9638 61.1602 45.9467 61.2234 45.9096 61.2578C44.6337 62.3909 43.7061 63.2114 41.7623 63.0679C40.3267 62.9503 38.9623 62.4081 37.6408 61.8832C36.2337 61.3238 34.9036 60.7959 33.5193 60.7558C31.3843 60.7099 28.9725 61.8258 27.9849 63.24C28.9268 62.9302 30.9819 63.504 32.7886 64.0892C32.8999 64.1265 32.997 64.1552 33.0798 64.1838C33.1368 64.2068 33.1939 64.2297 33.251 64.2527C34.0216 64.5625 34.7809 64.967 35.5144 65.3571C36.8645 66.0772 38.2602 66.8202 39.8529 67.0583C41.8109 67.3509 43.9259 66.6825 45.2445 65.3571C46.2578 64.3502 46.8857 62.9933 47.1083 61.3209C47.3738 59.7775 47.2311 58.2858 46.6973 57.0035C46.0437 55.4458 44.805 54.218 43.3864 53.7218C42.5244 53.4205 41.5882 53.3517 40.6806 53.2857C39.7415 53.2169 38.774 53.1452 37.8777 52.8181C37.8321 52.8009 37.7864 52.7837 37.7464 52.7694C37.167 52.5772 35.1976 51.3867 34.798 50.2822C34.7837 50.242 34.7723 50.2019 34.7609 50.1646C34.1615 51.7682 34.4013 54.2381 35.7399 55.5864L35.7399 55.5778Z" fill="url(#paint7_linear_3909_13111)"/>
    <path d="M25.045 60.5664C23.7606 59.964 22.7616 58.9829 21.7941 58.0362C21.2603 57.5141 20.7066 56.972 20.1215 56.513C20.0787 56.4785 20.0358 56.447 19.9987 56.4183L19.8332 56.3064C17.4471 54.6885 16.0542 54.0975 15.6946 54.5537C15.6574 54.5996 15.5918 54.6082 15.5433 54.5709C15.4976 54.5336 15.489 54.4676 15.5262 54.4188C16.5508 53.1251 19.2509 52.5599 21.306 53.2082C22.519 53.6013 23.5922 54.4446 24.6312 55.2622C25.5959 56.0196 26.592 56.8056 27.7137 57.2474C29.1922 57.8182 30.0628 57.4137 31.3529 56.7884L31.3044 56.5818C31.0161 55.3053 30.8249 54.4619 29.7288 53.6299C29.1066 53.1566 28.3588 52.7665 27.6338 52.3849C26.2638 51.6649 24.8481 50.9219 24.1003 49.5794C23.107 47.8065 23.6636 45.11 24.8081 43.9625C24.811 43.9596 24.8167 43.9539 24.8196 43.951C24.8624 43.9109 24.928 43.9109 24.9708 43.951C25.0108 43.994 25.0108 44.06 24.9708 44.1031C24.968 44.1059 24.9651 44.1088 24.9623 44.1117C24.8481 44.2264 24.8024 44.3842 24.8167 44.5936C24.8909 45.5173 26.2067 47.0205 26.7233 47.3848C26.7576 47.4106 26.789 47.4365 26.8232 47.4623C27.4854 47.9528 28.276 48.2569 29.0381 48.5524C29.8116 48.8507 30.6079 49.1605 31.293 49.6654C32.4175 50.4945 33.1939 51.9231 33.3708 53.4836C33.4993 54.6426 33.2738 55.879 32.6601 57.3822C32.1036 58.7477 31.2102 59.8091 30.0771 60.4488C29.3036 60.8906 28.4016 61.1143 27.4826 61.1143C26.6548 61.1143 25.8128 60.9336 25.0393 60.5693L25.045 60.5664ZM24.2944 49.4732C25.0108 50.7613 26.3979 51.4899 27.7394 52.1956C28.4701 52.58 29.2265 52.9759 29.863 53.4578C31.0218 54.3385 31.2302 55.2594 31.5184 56.5359L31.5841 56.8257C31.5955 56.8744 31.5727 56.9232 31.527 56.9461L31.5042 56.9576C30.1827 57.5973 29.2265 58.0621 27.6424 57.451C26.4921 56.9978 25.4817 56.2032 24.5056 55.4343C23.4352 54.591 22.422 53.7963 21.246 53.4148C19.5021 52.864 17.1987 53.2427 16.0485 54.1979C16.057 54.1979 16.0656 54.1979 16.0742 54.1979C16.9704 54.1979 18.5688 55.1876 19.9559 56.1286L20.1272 56.2433C20.17 56.2777 20.2157 56.3093 20.2585 56.3437C20.8522 56.8084 21.4087 57.3535 21.9482 57.8813C22.9044 58.8165 23.8891 59.7833 25.1421 60.3713C26.6891 61.0971 28.59 61.0541 29.9829 60.2595C31.076 59.6427 31.938 58.6186 32.4746 57.2961C33.074 55.8302 33.2966 54.6254 33.1711 53.5037C32.9998 52.0005 32.2577 50.6293 31.1817 49.8347C30.5195 49.347 29.7346 49.0429 28.9753 48.7503C28.199 48.4491 27.3969 48.1393 26.7119 47.6315C26.6777 47.6057 26.6406 47.5799 26.612 47.5541C26.1468 47.2271 24.7025 45.6636 24.6169 44.6079C24.6169 44.5879 24.6169 44.5707 24.614 44.5534C23.7778 45.7956 23.4609 47.9758 24.3001 49.4704L24.2944 49.4732Z" fill="url(#paint8_linear_3909_13111)"/>
    <path d="M14.4342 51.2343C13.4866 50.411 12.8473 49.3324 12.2279 48.2882C11.8797 47.6972 11.5172 47.0862 11.1062 46.5411C11.0777 46.501 11.0491 46.4637 11.0206 46.4293L10.9264 46.3202C8.79427 43.8331 8.02077 43.5663 7.74676 43.7815C7.70109 43.8188 7.63259 43.8102 7.59549 43.7614C7.55838 43.7155 7.56694 43.6466 7.61261 43.6093C8.75431 42.7143 11.1861 42.8664 12.8159 43.9335C13.7806 44.5761 14.5256 45.5801 15.2477 46.5497C15.9042 47.4333 16.5835 48.3484 17.4283 48.9996C18.5501 49.8487 19.3692 49.7196 20.5908 49.5074L20.5965 49.3381C20.6336 48.1619 20.6565 47.3845 19.903 46.3891C19.4691 45.8182 18.9097 45.2875 18.3645 44.7712C17.3484 43.8102 16.2981 42.8147 15.9327 41.4636C15.4361 39.6563 16.4579 37.4216 17.6709 36.6958C17.6738 36.6958 17.6767 36.693 17.6795 36.6901C17.7309 36.6614 17.7965 36.6786 17.8251 36.7303C17.8536 36.7819 17.8365 36.8479 17.788 36.8766C17.788 36.8766 17.7823 36.8794 17.7823 36.8823C17.6709 36.9483 17.6053 37.063 17.5739 37.2294C17.4283 38.0527 18.3132 39.7739 18.6557 40.1899C18.6785 40.2214 18.7042 40.253 18.727 40.2817C19.1951 40.8755 19.8059 41.3402 20.3996 41.7877C21.0047 42.2467 21.6298 42.7229 22.1121 43.3397C22.8999 44.3495 23.2567 45.7838 23.0598 47.178C22.9142 48.2078 22.4461 49.2176 21.5927 50.3593C20.8163 51.3949 19.823 52.0892 18.7213 52.3588C18.3874 52.442 18.042 52.4822 17.6938 52.4822C16.5464 52.4822 15.359 52.0375 14.4257 51.2286L14.4342 51.2343ZM16.1468 41.4119C16.4979 42.7057 17.5254 43.6782 18.5187 44.622C19.0667 45.1412 19.6347 45.6805 20.0799 46.2657C20.882 47.3214 20.8534 48.1734 20.8192 49.3524L20.8106 49.6078C20.8106 49.6594 20.7735 49.7024 20.7221 49.711L20.6879 49.7168C19.4292 49.9377 18.5215 50.0983 17.3085 49.1775C16.4379 48.5091 15.75 47.5825 15.085 46.6846C14.3429 45.6834 13.6408 44.7396 12.7074 44.1171C11.3431 43.2221 9.3223 42.9983 8.14921 43.5434C8.92842 43.7585 10.0958 45.0179 11.0948 46.1797L11.1918 46.2916C11.2232 46.3317 11.2518 46.3719 11.2832 46.4092C11.6999 46.9628 12.0652 47.5796 12.4163 48.1734C13.0242 49.2004 13.655 50.2647 14.577 51.065C15.7415 52.0777 17.3142 52.4908 18.6813 52.1494C19.7374 51.8884 20.6879 51.2257 21.4328 50.2274C22.2663 49.1172 22.7201 48.1361 22.86 47.1436C23.0455 45.8068 22.7087 44.4298 21.9552 43.4688C21.4899 42.875 20.8763 42.4074 20.2826 41.957C19.6803 41.5009 19.0581 41.0275 18.5729 40.4136C18.5472 40.3821 18.5244 40.3505 18.5015 40.3218C18.159 39.9059 17.2171 38.1445 17.3741 37.2007C16.4265 38.09 15.7386 39.903 16.1496 41.4062L16.1468 41.4119Z" fill="url(#paint9_linear_3909_13111)"/>
    <path d="M10.3669 42.5969C9.07393 42.5739 7.75241 41.8109 6.91898 40.6117C6.27392 39.6766 5.93426 38.5922 5.60888 37.5394C5.4205 36.937 5.22927 36.3173 4.98095 35.7407L4.87249 35.5084C3.45108 32.6971 2.87452 32.4475 2.65474 32.5508C2.60337 32.5766 2.53772 32.5508 2.51203 32.4991C2.48634 32.4446 2.51203 32.3815 2.56341 32.3557C3.70796 31.8164 5.76015 32.5049 6.95608 33.8273C7.66393 34.6219 8.11205 35.6805 8.54589 36.7075C8.93692 37.6341 9.34222 38.5893 9.93591 39.3524C10.7237 40.3507 11.4429 40.4339 12.5161 40.5372L12.5475 40.4109C12.8101 39.3926 12.9842 38.7184 12.5276 37.6656C12.265 37.0603 11.8825 36.455 11.5143 35.8727C10.8264 34.7855 10.1157 33.6609 10.0501 32.3786C9.96445 30.7951 11.1176 28.9219 12.4219 28.5203C12.4219 28.5203 12.4248 28.5203 12.4277 28.5203C12.4847 28.5059 12.5447 28.5346 12.559 28.592C12.5761 28.6493 12.5447 28.7096 12.4876 28.7268C12.4876 28.7268 12.4847 28.7268 12.4819 28.7268C12.3877 28.7555 12.3163 28.8301 12.2621 28.9506C11.9624 29.6333 12.4162 31.4119 12.6417 31.8795C12.656 31.9139 12.6703 31.9455 12.6874 31.9799C12.9814 32.6167 13.4181 33.1761 13.8434 33.7183C14.2772 34.272 14.7282 34.8428 15.025 35.5055C15.5131 36.587 15.5416 37.9353 15.1021 39.1114C14.7767 39.9749 14.1773 40.7466 13.2154 41.5383C12.3706 42.2354 11.4144 42.6026 10.4468 42.6026C10.4183 42.6026 10.3869 42.6026 10.3583 42.6026L10.3669 42.5969ZM10.2699 32.3643C10.3326 33.5892 11.0262 34.6908 11.6998 35.7551C12.0737 36.346 12.4591 36.957 12.7302 37.5767C13.2154 38.6983 13.0242 39.4385 12.7616 40.4626L12.7074 40.6777C12.6931 40.7294 12.6503 40.7609 12.5932 40.758L12.5532 40.758C11.4372 40.6462 10.6295 40.5687 9.77321 39.4844C9.15955 38.6983 8.7514 37.7287 8.35466 36.7907C7.92938 35.7809 7.48697 34.7396 6.80195 33.9707C5.81153 32.8749 4.15322 32.2209 3.05719 32.4245C3.68227 32.8089 4.43579 34.1687 5.06372 35.4108L5.17789 35.6575C5.42906 36.2456 5.62601 36.871 5.81439 37.4791C6.13691 38.5147 6.46801 39.5848 7.09594 40.4913C7.88942 41.6359 9.14528 42.3616 10.3726 42.3846C11.3202 42.4104 12.2593 42.0547 13.0898 41.3691C14.0203 40.6003 14.5997 39.8573 14.9137 39.0311C15.3333 37.9094 15.3076 36.6214 14.8423 35.5916C14.5541 34.9518 14.1117 34.3924 13.6864 33.8503C13.2554 33.2995 12.8073 32.7315 12.5047 32.0717C12.4876 32.0373 12.4733 32.0028 12.4591 31.9713C12.2364 31.5123 11.7598 29.7452 12.0509 28.9276C11.0919 29.5042 10.1928 30.9443 10.2699 32.37L10.2699 32.3643Z" fill="url(#paint10_linear_3909_13111)"/>
    <path d="M5.23203 31.6013C4.13886 31.28 3.15985 30.3104 2.67749 29.0625C2.30358 28.0929 2.21795 27.0573 2.13518 26.0533C2.08666 25.4767 2.03814 24.8771 1.93253 24.3062L1.88115 24.0653C1.19614 21.254 0.765146 20.9068 0.568204 20.947C0.508265 20.9585 0.454034 20.9241 0.442617 20.8638C0.4312 20.8064 0.465451 20.7491 0.522536 20.7376C1.59002 20.5024 3.20267 21.5752 3.97617 23.0325C4.43284 23.9046 4.61837 24.9517 4.79819 25.9615C4.96088 26.8737 5.12928 27.8146 5.49177 28.6236C5.97128 29.6793 6.55925 29.9202 7.44121 30.2587L7.48117 30.1756C7.89218 29.335 8.16619 28.7814 7.96924 27.7372C7.85507 27.1376 7.65242 26.5409 7.4355 25.9098C7.04733 24.7767 6.64773 23.6063 6.82184 22.4359C7.03591 20.9786 8.35171 19.5356 9.53051 19.4668C9.53051 19.4668 9.53051 19.4668 9.53337 19.4668C9.59616 19.461 9.64183 19.5098 9.64468 19.5672C9.64754 19.6274 9.60187 19.6762 9.54478 19.6791C9.47343 19.6848 9.41063 19.725 9.3507 19.8024C8.96537 20.3188 9.02817 22.0945 9.13948 22.5707L9.15946 22.6711C9.29361 23.3165 9.56762 23.9218 9.83306 24.5099C10.1014 25.1066 10.3811 25.7234 10.5152 26.386C10.735 27.4733 10.5152 28.681 9.9244 29.6162C9.4877 30.3046 8.83408 30.8468 7.86649 31.323C7.30992 31.5955 6.74192 31.7361 6.18249 31.7361C5.85996 31.7361 5.54314 31.6902 5.23488 31.5984L5.23203 31.6013ZM7.03591 22.4703C6.86751 23.5891 7.26139 24.7337 7.63815 25.8438C7.84651 26.4549 8.06343 27.0888 8.18046 27.7027C8.38882 28.8187 8.08912 29.4297 7.6724 30.276L7.58963 30.4452C7.5668 30.494 7.50686 30.5169 7.45548 30.4968L7.41552 30.4825C6.49075 30.1297 5.82286 29.8743 5.29482 28.7183C4.92092 27.8835 4.74966 26.9282 4.58697 26.0045C4.41001 25.0091 4.22734 23.9792 3.78779 23.1358C3.157 21.9453 1.90113 20.9986 0.950672 20.9241C1.30745 21.3171 1.67279 22.3182 2.08666 24.0165L2.11806 24.1456C2.12376 24.18 2.13233 24.2144 2.13803 24.246L2.14374 24.2689C2.24935 24.8513 2.30073 25.4537 2.34925 26.036C2.43202 27.0229 2.51765 28.047 2.87728 28.985C3.33396 30.1698 4.25873 31.0935 5.29197 31.3947C6.0883 31.63 6.94457 31.541 7.7723 31.1337C8.70564 30.6747 9.33072 30.1583 9.74458 29.5043C10.3069 28.6121 10.5152 27.4646 10.3069 26.4319C10.1756 25.7922 9.90442 25.1869 9.63898 24.6017C9.37068 24.005 9.09096 23.3883 8.9511 22.7199L8.93112 22.6194C8.82552 22.1605 8.73989 20.4536 9.1195 19.7737C8.22042 20.0893 7.22714 21.1794 7.03591 22.4703Z" fill="url(#paint11_linear_3909_13111)"/>
    <path d="M3.0307 20.9616C2.16587 20.4424 1.50939 19.3638 1.32387 18.1503C1.1783 17.2065 1.28391 16.257 1.38666 15.339C1.4466 14.8055 1.50939 14.2547 1.51795 13.7154L1.51795 13.6064L1.51795 13.4801C1.42662 10.6946 1.10694 10.3934 0.972794 10.3934C0.912855 10.3934 0.867188 10.3447 0.867188 10.2873C0.867188 10.2299 0.921418 10.184 0.978503 10.1812C1.91469 10.1812 3.08493 11.4835 3.48452 12.9724C3.71572 13.8588 3.69288 14.8456 3.67005 15.798C3.65007 16.6558 3.62724 17.5422 3.79278 18.3454C4.01256 19.3867 4.45782 19.7281 5.13142 20.2129L5.16567 20.167C5.6566 19.5015 5.98198 19.0626 5.99625 18.0758C6.00482 17.5106 5.93346 16.9283 5.86211 16.3115C5.73081 15.1985 5.59381 14.0481 5.94202 13.0125C6.37587 11.7073 7.73734 10.643 8.73918 10.8209C8.79626 10.8323 8.83622 10.8868 8.8248 10.9442C8.81339 11.0016 8.75916 11.0418 8.70207 11.0303C8.68495 11.0274 8.63072 11.0188 8.55365 11.0848C8.12837 11.452 7.8772 13.133 7.88862 13.6121C7.88862 13.6436 7.88862 13.6752 7.88862 13.7068C7.89147 14.3293 8.01991 14.946 8.14264 15.5427C8.26823 16.1423 8.39382 16.7619 8.39667 17.393C8.39667 18.4315 8.00564 19.4785 7.34631 20.1928C6.86109 20.7178 6.21318 21.0649 5.31124 21.2829C5.04865 21.3461 4.78891 21.3776 4.53488 21.3776C4.00114 21.3776 3.49023 21.237 3.03355 20.9616L3.0307 20.9616ZM6.14182 13.0814C5.80787 14.0711 5.94202 15.1985 6.07332 16.2886C6.14467 16.8853 6.21603 17.502 6.21032 18.0815C6.19605 19.1372 5.83356 19.6248 5.33693 20.299L5.24274 20.4281C5.20848 20.474 5.14284 20.4854 5.09432 20.451L5.05721 20.4252C4.34365 19.9117 3.82703 19.5388 3.58442 18.3913C3.41317 17.5623 3.436 16.6644 3.45598 15.7952C3.47882 14.8571 3.50165 13.8846 3.27902 13.0269C2.95934 11.8306 2.09451 10.7319 1.32672 10.4594C1.5522 10.8955 1.68065 11.8622 1.73202 13.4744L1.73773 13.6035L1.73773 13.7211C1.72346 14.2719 1.66352 14.8255 1.60358 15.3649C1.50368 16.2685 1.39808 17.2065 1.53793 18.1188C1.7149 19.272 2.33141 20.2904 3.14487 20.7781C3.76995 21.1567 4.50063 21.26 5.25986 21.0764C6.11899 20.8699 6.73265 20.5428 7.18933 20.0494C7.81155 19.3724 8.1826 18.3798 8.1826 17.3959C8.1826 16.7877 8.05416 16.1796 7.93428 15.5886C7.8087 14.9833 7.68026 14.358 7.6774 13.7125C7.6774 13.6781 7.6774 13.6436 7.6774 13.615C7.66598 13.1646 7.88291 11.6011 8.3139 11.036C7.52613 11.1651 6.51573 11.9683 6.14467 13.0814L6.14182 13.0814Z" fill="url(#paint12_linear_3909_13111)"/>
    <path d="M4.85244 11.6383L4.84673 11.6383C4.10748 11.6383 3.48526 11.3887 3.00004 10.8953C2.36354 10.2556 1.9982 9.15401 2.04387 8.02088C2.08097 7.1402 2.32644 6.29681 2.56334 5.4821C2.7032 5.00303 2.84591 4.50962 2.94581 4.01334L2.98291 3.80105C3.38251 1.15326 3.14275 0.889345 3.05998 0.872132C3.00289 0.860658 2.96579 0.803284 2.97721 0.745911C2.98862 0.688537 3.04571 0.651244 3.10279 0.662719C3.97333 0.840577 4.66121 2.39827 4.73542 3.68918C4.78108 4.54978 4.59556 5.45055 4.4186 6.32263C4.25876 7.10291 4.09321 7.90614 4.09892 8.66921C4.10748 9.65029 4.4186 10.049 4.88954 10.6113L4.90382 10.597C5.42329 10.0863 5.76865 9.7507 5.94276 8.84993C6.04266 8.33357 6.08262 7.78565 6.12258 7.20618C6.19679 6.15624 6.2767 5.06901 6.73909 4.17398C7.32421 3.03512 8.64572 2.28352 9.45918 2.63063C9.51341 2.65358 9.5391 2.71669 9.51627 2.7712C9.49343 2.8257 9.43064 2.85152 9.37641 2.82857C9.35928 2.81997 9.33074 2.81423 9.27936 2.84292C8.87121 3.07241 8.3603 4.63584 8.28894 5.10057L8.27467 5.17802C8.17192 5.75749 8.17763 6.35418 8.18048 6.93079C8.18334 7.50739 8.18905 8.10408 8.08629 8.68355C7.91504 9.64169 7.41555 10.5281 6.7448 11.0502C6.24245 11.4432 5.63736 11.6469 4.9923 11.6469C4.94663 11.6469 4.89811 11.6469 4.85244 11.644L4.85244 11.6383ZM9.02534 2.75686C8.35744 2.75686 7.41555 3.32199 6.93033 4.26865C6.48792 5.12639 6.41085 6.19067 6.33664 7.21765C6.29668 7.77991 6.25387 8.35939 6.15397 8.88723C5.96559 9.85397 5.58312 10.2269 5.05224 10.7461L4.95519 10.8408C4.93521 10.8609 4.90382 10.8752 4.87527 10.8724C4.84673 10.8724 4.81819 10.858 4.79821 10.8351L4.76967 10.8006C4.26161 10.1953 3.89342 9.75644 3.882 8.66634C3.87914 7.88319 4.04469 7.06561 4.20738 6.27386C4.38149 5.41612 4.56416 4.5297 4.52135 3.69491C4.4557 2.55605 3.94194 1.41144 3.36538 1.00696C3.47384 1.45734 3.4139 2.35237 3.19127 3.82974L3.15131 4.0535C3.04856 4.55839 2.903 5.05754 2.76314 5.53948C2.52909 6.34271 2.28648 7.17462 2.25223 8.02662C2.20941 9.10238 2.54907 10.1408 3.14561 10.7404C3.59087 11.1908 4.16171 11.4203 4.84673 11.4203L4.85244 11.4203C5.50606 11.4518 6.11116 11.2596 6.6078 10.8724C7.23573 10.3789 7.70953 9.54415 7.86937 8.63765C7.96927 8.07826 7.96641 7.516 7.96071 6.92218C7.95785 6.33697 7.95214 5.73168 8.05775 5.13212L8.07487 5.04319C8.12911 4.70182 8.5601 3.23306 9.0339 2.75686C9.02819 2.75686 9.02248 2.75686 9.01963 2.75686L9.02534 2.75686Z" fill="url(#paint13_linear_3909_13111)"/>
    <path d="M50.1604 63.0879C50.2375 62.7723 50.0434 62.4539 49.7294 62.3765C48.3251 62.0351 46.9237 61.6823 45.5308 61.2979C45.3139 61.2376 45.097 61.1802 44.8829 61.1171L44.2378 60.9249L42.9477 60.5405C42.9477 60.5405 41.6776 60.1274 41.669 60.1246C36.1832 58.3374 30.7287 56.008 25.8451 52.8496C24.3409 51.8771 22.8881 50.8272 21.4924 49.7026C18.7067 47.4507 16.1721 44.8775 13.9943 42.0203C11.8165 39.1631 10.0012 36.0276 8.57983 32.7172C7.15271 29.4067 6.12804 25.9184 5.50296 22.3555C5.34312 21.4662 5.21468 20.5683 5.10908 19.6704C5.00347 18.7725 4.92355 17.8689 4.86932 16.9653C4.81509 16.0616 4.78655 15.1551 4.7894 14.2486C4.79511 13.345 4.8208 12.4356 4.91213 11.5377L4.78369 11.5205C4.66952 12.427 4.61815 13.3364 4.58961 14.2458C4.56392 15.1551 4.56677 16.0674 4.59817 16.9767C4.62956 17.8861 4.69236 18.7955 4.77513 19.7049C4.86076 20.6114 4.96922 21.5179 5.10908 22.4186C5.65709 26.0246 6.61326 29.5731 7.98615 32.9639C9.3676 36.3489 11.1572 39.5733 13.3264 42.5223C15.4928 45.4742 18.0331 48.1478 20.8388 50.5001C26.0478 54.8777 32.3442 57.821 38.595 60.1733C41.7318 61.3524 44.7002 62.2044 48.2823 63.2113C48.6676 63.3203 49.0529 63.4235 49.4354 63.5268C49.7522 63.61 50.0748 63.4178 50.1518 63.0994C50.1518 63.0965 50.1518 63.0908 50.1518 63.0879L50.1604 63.0879Z" fill="url(#paint14_linear_3909_13111)"/>
    <path d="M49.4156 63.633C49.0303 63.5297 48.645 63.4265 48.2597 63.3175C44.5121 62.2618 41.6207 61.427 38.5638 60.2767C33.6974 58.4436 26.556 55.4458 20.7762 50.5863C17.9077 48.1823 15.376 45.4943 13.2467 42.5912C11.0946 39.6652 9.29361 36.4408 7.89503 33.0099C6.54212 29.6621 5.57168 26.1078 5.01225 22.4388C4.8781 21.5638 4.76393 20.6487 4.67545 19.7193C4.58696 18.7898 4.52703 17.869 4.49563 16.9854C4.46423 16.0674 4.46138 15.1466 4.48707 14.2458C4.5099 13.5 4.55557 12.5131 4.68401 11.5091C4.68686 11.4804 4.70113 11.4546 4.72397 11.4374C4.7468 11.4202 4.77534 11.4116 4.80389 11.4173L4.93233 11.4345C4.98941 11.4431 5.02937 11.4948 5.02366 11.5521C4.9466 12.3267 4.90949 13.1586 4.90093 14.2544C4.90093 15.1437 4.92662 16.056 4.98085 16.9625C5.03508 17.8546 5.115 18.7611 5.22061 19.6619C5.32621 20.577 5.45751 21.4778 5.61164 22.3412C6.24242 25.9414 7.27566 29.4183 8.6828 32.6771C10.1128 36.0134 11.9309 39.1345 14.0859 41.9573C16.2123 44.7514 18.7297 47.3303 21.564 49.6224C22.9312 50.7239 24.3925 51.7796 25.9081 52.7607C30.3436 55.6323 35.5126 58.0075 41.7063 60.0242C41.7235 60.0299 42.9822 60.4402 42.9822 60.4402L44.9174 61.0139C45.0458 61.0512 45.1771 61.0885 45.3084 61.1229C45.394 61.1459 45.4796 61.1688 45.5653 61.1946C47.058 61.6077 48.5223 61.972 49.761 62.2733C49.9408 62.3163 50.0921 62.4282 50.1891 62.5888C50.2862 62.7466 50.3147 62.9331 50.2691 63.1138L50.2691 63.1253C50.2205 63.3088 50.1092 63.4609 49.9465 63.5584C49.8381 63.6215 49.7182 63.656 49.5955 63.656C49.5355 63.656 49.4756 63.6474 49.4185 63.633L49.4156 63.633ZM50.1635 63.088L50.0578 63.065C50.0892 62.9417 50.0693 62.8126 50.0008 62.7007C49.9351 62.5917 49.8295 62.5142 49.7039 62.4827C48.4652 62.1815 46.9981 61.8171 45.5025 61.4012C45.4169 61.3782 45.3341 61.3553 45.2485 61.3323C45.1172 61.2979 44.9859 61.2606 44.8546 61.2205L42.9165 60.6438C42.9165 60.6438 41.6436 60.2308 41.6378 60.2279C35.427 58.2055 30.2409 55.8216 25.7911 52.9386C24.2698 51.9546 22.8027 50.8932 21.4298 49.7859C18.5813 47.4823 16.0524 44.8919 13.9146 42.0835C11.7511 39.2464 9.92439 36.108 8.48586 32.7574C7.07301 29.4814 6.03692 25.9873 5.40042 22.3728C5.24629 21.5064 5.115 20.5999 5.00654 19.682C4.90093 18.7783 4.82101 17.8661 4.76678 16.9711C4.72111 16.2281 4.69543 15.4851 4.68972 14.7536C4.6783 15.488 4.68401 16.2309 4.7097 16.9739C4.74109 17.8546 4.80103 18.7697 4.88666 19.6963C4.97229 20.6229 5.08646 21.5351 5.22061 22.4043C5.77718 26.0562 6.74191 29.5961 8.08912 32.9267C9.48198 36.3404 11.2744 39.5504 13.4151 42.4622C15.533 45.3509 18.0561 48.0274 20.9104 50.4199C23.6676 52.7378 28.5055 56.2605 38.638 60.0758C41.6892 61.2233 44.5749 62.0581 48.3168 63.1109C48.7021 63.2199 49.0846 63.3232 49.4699 63.4265C49.5955 63.458 49.7239 63.4408 49.8352 63.3748C49.9465 63.3088 50.0236 63.2027 50.0578 63.0707L50.1635 63.0908L50.1635 63.088Z" fill="url(#paint15_linear_3909_13111)"/>
    <path d="M65.6392 60.7501C62.8992 60.8333 60.2961 62.8242 57.3905 63.0623C55.4867 63.2028 54.5848 62.3996 53.3146 61.2722C54.1224 59.8465 54.5762 58.8625 56.1917 58.2716C58.5807 57.3995 61.6975 57.5802 63.4928 55.7586C64.9913 54.2497 65.1911 51.2663 64.2178 49.6426C64.8829 50.7269 62.1485 52.5084 61.375 52.7666C61.3322 52.7838 61.2865 52.801 61.2408 52.8182C59.4969 53.4551 57.5018 53.1051 55.735 53.7218C54.2137 54.2554 53.0007 55.5435 52.3613 57.0639C51.7933 58.4322 51.6906 59.9612 51.9446 61.4386C52.1415 62.9188 52.6895 64.3905 53.8398 65.5322C55.1014 66.8002 57.1964 67.5804 59.3228 67.2649C61.8117 66.8948 63.7754 65.3285 65.9503 64.4536C66.0074 64.4306 66.0645 64.4077 66.1216 64.3847C67.0949 64.0778 71.0594 62.6865 71.5418 63.7622C70.7683 62.0496 67.9312 60.7013 65.6421 60.753L65.6392 60.7501Z" fill="url(#paint16_linear_3909_13111)"/>
    <path d="M77.8868 53.4149C75.5806 54.1607 73.8424 56.5217 71.4819 57.4511C69.9292 58.0478 68.9987 57.5888 67.6801 56.952C68.0083 55.5291 68.151 54.5652 69.3612 53.6473C71.1565 52.2846 73.831 51.6535 74.9584 49.6282C75.9003 47.9472 75.4379 45.3023 74.2562 44.1318C75.0554 44.9092 73.0889 47.1526 72.4923 47.5743C72.4581 47.6001 72.4238 47.6259 72.3896 47.6517C71.0424 48.6471 69.2699 48.8623 67.9198 49.8549C66.761 50.7097 66.0503 52.1355 65.8848 53.5985C65.7392 54.9152 66.0903 56.2205 66.5897 57.4425C67.0864 58.6646 67.9113 59.7719 69.1272 60.4575C70.4658 61.2206 72.3753 61.3669 74.065 60.5722C76.0458 59.6399 77.3303 57.8154 78.9686 56.5331C79.0114 56.4987 79.0542 56.4672 79.097 56.4327C79.8448 55.9307 82.9046 53.7735 83.5468 54.591C82.5193 53.2887 79.8106 52.8067 77.8811 53.4149L77.8868 53.4149Z" fill="url(#paint17_linear_3909_13111)"/>
    <path d="M86.3947 44.1321C84.5737 45.3427 83.5861 47.8155 81.7879 49.1954C80.6006 50.0933 79.7157 49.9269 78.457 49.706C78.4199 48.3979 78.3314 47.5315 79.1649 46.4328C80.4036 44.8034 82.5614 43.59 83.118 41.5446C83.5861 39.8435 82.667 37.6289 81.4197 36.8916C82.2589 37.3793 81.0087 39.8435 80.5834 40.3598C80.5606 40.3914 80.5349 40.4229 80.5121 40.4545C79.5559 41.6651 78.0745 42.3019 77.1269 43.5125C76.3135 44.5538 76.0195 45.9652 76.1993 47.2705C76.3649 48.4438 76.9528 49.4765 77.6464 50.4031C78.34 51.3297 79.2819 52.0727 80.4578 52.3624C81.7565 52.6894 83.3949 52.3509 84.6564 51.2551C86.1321 49.9756 86.8371 48.0852 87.9673 46.5791C87.9959 46.539 88.0273 46.5017 88.0558 46.4615C88.5839 45.8476 90.7588 43.24 91.4752 43.7994C90.3364 42.9072 87.9217 43.1281 86.3975 44.1293L86.3947 44.1321Z" fill="url(#paint18_linear_3909_13111)"/>
    <path d="M92.2802 34.0054C90.9501 35.4971 90.5733 37.8982 89.3032 39.5247C88.464 40.5861 87.6763 40.6521 86.5574 40.7582C86.2691 39.6251 86.0237 38.8907 86.5289 37.726C87.2767 35.9991 88.9007 34.4213 88.9978 32.4764C89.0834 30.8584 87.8989 29.0913 86.6973 28.7241C87.505 28.9651 86.8771 31.4666 86.6059 32.026C86.5917 32.0604 86.5774 32.0948 86.5603 32.1264C85.9609 33.4316 84.8078 34.3525 84.2198 35.6491C83.7174 36.765 83.7346 38.076 84.1456 39.1719C84.5166 40.1558 85.2245 40.916 86.0008 41.5557C86.7772 42.1954 87.7277 42.62 88.7894 42.5942C89.9625 42.5712 91.2897 41.9 92.1489 40.655C93.1564 39.1977 93.3962 37.3847 94.0783 35.8012C94.0955 35.761 94.1126 35.718 94.1326 35.6778C94.4665 35.018 95.8337 32.221 96.5473 32.5567C95.4141 32.0231 93.3933 32.769 92.2773 34.0025L92.2802 34.0054Z" fill="url(#paint19_linear_3909_13111)"/>
    <path d="M95.2744 23.1905C94.4181 24.8257 94.5351 27.0518 93.7616 28.7787C93.245 29.909 92.5914 30.1471 91.6609 30.5028C91.2071 29.5705 90.8646 28.9767 91.0786 27.8263C91.4012 26.1137 92.4886 24.3323 92.2232 22.5594C92.0063 21.0849 90.6933 19.7424 89.6116 19.6821C90.3337 19.7223 90.2481 22.1377 90.1196 22.7028C90.1139 22.7373 90.1053 22.7717 90.0996 22.8061C89.8256 24.1228 89.0093 25.2216 88.7439 26.5211C88.5155 27.637 88.7696 28.8017 89.3204 29.6737C89.8171 30.4569 90.5592 30.9589 91.3355 31.3404C92.1119 31.722 92.9995 31.874 93.8929 31.6072C94.8805 31.3175 95.8795 30.4253 96.3761 29.1344C96.9584 27.6226 96.8299 25.9617 97.1153 24.3982C97.1239 24.3581 97.1296 24.3179 97.1382 24.2749C97.3009 23.6151 97.9459 20.8067 98.6081 20.9501C97.5549 20.7177 95.9908 21.8336 95.2715 23.1905L95.2744 23.1905Z" fill="url(#paint20_linear_3909_13111)"/>
    <path d="M95.7826 13.104C95.3487 14.7707 95.8283 16.7587 95.4743 18.4742C95.2374 19.5987 94.7265 19.9515 94.0073 20.4708C93.4649 19.7335 93.0768 19.2716 93.0596 18.1873C93.0368 16.5694 93.6476 14.7219 93.1196 13.1528C92.6857 11.8475 91.3557 10.8722 90.4395 11.0328C91.0531 10.9238 91.3928 13.1757 91.3785 13.7179C91.3785 13.7494 91.3785 13.7839 91.3785 13.8154C91.3728 15.0805 90.8733 16.2595 90.8704 17.4988C90.8704 18.5631 91.2786 19.5614 91.8923 20.2269C92.4431 20.8236 93.1538 21.1105 93.876 21.2855C94.5952 21.4605 95.3659 21.4031 96.0709 20.9756C96.8529 20.5081 97.5351 19.5011 97.7292 18.2418C97.9547 16.7673 97.5608 15.2985 97.5322 13.824C97.5322 13.7867 97.5322 13.7466 97.5322 13.7093C97.5551 13.081 97.6093 10.396 98.1887 10.3931C97.2696 10.3873 96.1536 11.7213 95.7826 13.104Z" fill="url(#paint21_linear_3909_13111)"/>
    <path d="M94.5326 3.79812C94.4498 5.41319 95.1805 7.14587 95.1719 8.77242C95.1605 9.84243 94.7952 10.2584 94.2814 10.8694C93.7077 10.3043 93.3081 9.96292 93.114 8.97035C92.8286 7.49298 93.0284 5.67998 92.3262 4.32309C91.7468 3.19283 90.4767 2.51582 89.7432 2.82851C90.2341 2.62197 90.8963 4.6616 90.9762 5.16648C90.9819 5.19517 90.9876 5.22673 90.9933 5.25828C91.1988 6.43444 90.9791 7.61921 91.1817 8.76381C91.3558 9.74777 91.8639 10.5797 92.4832 11.0645C93.0427 11.5005 93.682 11.664 94.3099 11.6354C94.9379 11.6354 95.5715 11.4489 96.0881 10.9239C96.659 10.3473 97.0614 9.30886 97.0129 8.12983C96.9558 6.75 96.3821 5.48491 96.111 4.1395C96.1024 4.10507 96.0967 4.07065 96.091 4.03336C96.0054 3.45388 95.6001 0.975343 96.0824 0.87207C95.3146 1.02698 94.6125 2.45558 94.5354 3.79812L94.5326 3.79812Z" fill="url(#paint22_linear_3909_13111)"/>
    <path d="M58.3894 67.4398C56.6569 67.4398 54.9158 66.7657 53.7656 65.6096C52.7181 64.5683 52.0701 63.1684 51.8418 61.4529C51.5707 59.8751 51.7162 58.3404 52.2642 57.0208C52.9407 55.4086 54.2251 54.1378 55.7007 53.6214C56.5884 53.3116 57.5417 53.2399 58.4608 53.1739C59.3856 53.105 60.3389 53.0333 61.2066 52.7178C61.2494 52.7006 61.295 52.6862 61.3379 52.669C61.9886 52.451 63.8068 51.2806 64.1578 50.3109C64.2406 50.0814 64.2349 49.8892 64.1379 49.72C64.135 49.7143 64.1322 49.7085 64.1265 49.7028C64.0951 49.6511 64.1122 49.5852 64.1636 49.5565C64.2121 49.5249 64.2777 49.5421 64.3091 49.5909C64.312 49.5966 64.3177 49.6052 64.3205 49.611C65.2567 51.2031 65.134 54.2611 63.567 55.8389C62.3682 57.0552 60.5872 57.3995 58.8604 57.7294C57.967 57.9015 57.0422 58.0793 56.2259 58.3777C54.7645 58.9141 54.2907 59.7546 53.5743 61.0312L53.4487 61.2521C54.7046 62.3651 55.5523 63.0938 57.379 62.959C58.7805 62.8442 60.1334 62.3078 61.4406 61.7885C62.8649 61.2234 64.2121 60.6898 65.6335 60.6439C68.0567 60.5808 70.8653 62.0209 71.6331 63.7105C71.6331 63.7105 71.6331 63.7134 71.6331 63.7163C71.6559 63.7708 71.6331 63.8339 71.5789 63.8569C71.5246 63.8798 71.4618 63.8569 71.439 63.8023C71.439 63.8023 71.439 63.8023 71.439 63.7995C71.0309 62.9045 67.5744 64.0232 66.4384 64.3933C66.3271 64.4306 66.23 64.4621 66.1501 64.4851C66.0987 64.5052 66.0445 64.5281 65.9874 64.5511C65.2253 64.858 64.4747 65.2596 63.744 65.6469C62.3768 66.3756 60.9668 67.1271 59.337 67.371C59.0231 67.4169 58.7063 67.4398 58.3866 67.4398L58.3894 67.4398ZM64.3948 50.2622C64.3862 50.3023 64.3719 50.3396 64.3576 50.3798C63.9581 51.4842 61.9886 52.6719 61.4092 52.8669C61.3693 52.8842 61.3236 52.9014 61.2779 52.9157C60.3845 53.2427 59.4141 53.3144 58.4751 53.3833C57.5674 53.4493 56.6312 53.521 55.7692 53.8193C54.3507 54.3156 53.1119 55.5434 52.4583 57.1011C51.9274 58.3834 51.7847 59.8751 52.0473 61.4185C52.2699 63.0909 52.8979 64.4478 53.9111 65.4547C55.2298 66.78 57.3448 67.4484 59.3028 67.1558C60.8955 66.9177 62.2912 66.1747 63.6412 65.4547C64.3748 65.0646 65.134 64.6601 65.9046 64.3503C65.9617 64.3273 66.0188 64.3044 66.0759 64.2814C66.1587 64.2556 66.2557 64.224 66.367 64.1867C68.1709 63.6015 70.226 63.0278 71.1707 63.3376C70.1831 61.9234 67.7713 60.8103 65.6363 60.8533C64.252 60.8964 62.922 61.4242 61.5148 61.9807C60.1933 62.5057 58.8261 63.0479 57.3933 63.1655C55.4496 63.3089 54.5248 62.4885 53.2461 61.3554C53.209 61.3209 53.1919 61.2607 53.2176 61.2148L53.3859 60.9165C54.0995 59.6456 54.6133 58.7277 56.1517 58.1654C56.9851 57.8613 57.9185 57.6835 58.8204 57.5085C60.513 57.1814 62.2626 56.8458 63.4157 55.6754C64.7544 54.3271 64.9913 51.8572 64.3948 50.2536L64.3948 50.2622Z" fill="url(#paint23_linear_3909_13111)"/>
    <path d="M71.6701 61.2146C70.7511 61.2146 69.852 60.9937 69.0756 60.5491C67.9396 59.9094 67.0463 58.848 66.4925 57.4825C65.8789 55.9822 65.6534 54.7429 65.7818 53.5839C65.9588 52.0234 66.7351 50.5948 67.8597 49.7657C68.5447 49.2608 69.3439 48.951 70.1146 48.6527C70.8766 48.3572 71.6644 48.0531 72.3295 47.5626C72.3637 47.5368 72.398 47.5109 72.4294 47.4851C72.946 47.1208 74.2646 45.6176 74.336 44.6939C74.3531 44.4874 74.3046 44.3296 74.1904 44.212C74.1876 44.2091 74.1847 44.2062 74.1819 44.2034C74.139 44.1632 74.139 44.0943 74.1819 44.0513C74.2218 44.0083 74.2903 44.0083 74.3331 44.0513C74.336 44.0542 74.3417 44.0599 74.3445 44.0628C75.4891 45.2103 76.0485 47.9068 75.0524 49.6797C74.3046 51.0222 72.8889 51.7652 71.5188 52.4852C70.7967 52.8639 70.0489 53.2569 69.4238 53.7302C68.3278 54.5622 68.1366 55.4056 67.8483 56.6821L67.7998 56.8887C69.0899 57.514 69.9604 57.9185 71.4389 57.3476C72.5606 56.9059 73.5568 56.1199 74.5215 55.3625C75.5604 54.5449 76.6337 53.7016 77.8467 53.3085C79.9018 52.6602 82.6019 53.2254 83.6265 54.5191C83.6636 54.565 83.6551 54.6339 83.6094 54.6712C83.5637 54.7085 83.4952 54.6999 83.4581 54.654C83.0956 54.2007 81.7056 54.7888 79.3195 56.4067L79.1539 56.5186C79.1168 56.5473 79.074 56.5817 79.0312 56.6133C78.4461 57.0723 77.8924 57.6144 77.3586 58.1365C76.391 59.0832 75.3892 60.0614 74.1076 60.6667C73.3341 61.031 72.4921 61.2118 71.6644 61.2118L71.6701 61.2146ZM74.5529 44.6595C74.5529 44.6767 74.5529 44.6968 74.55 44.714C74.4644 45.7697 73.0202 47.3331 72.5549 47.6601C72.5235 47.6831 72.4893 47.7118 72.455 47.7376C71.77 48.2453 70.968 48.5551 70.1916 48.8564C69.4324 49.1518 68.6475 49.4559 67.9853 49.9407C66.9093 50.7353 66.1643 52.1066 65.9959 53.6098C65.8703 54.7314 66.0929 55.9363 66.6923 57.4022C67.2289 58.7246 68.0909 59.7487 69.1841 60.3655C70.577 61.1601 72.4779 61.2032 74.0249 60.4774C75.275 59.8893 76.2626 58.9226 77.2188 57.9874C77.7582 57.4595 78.3148 56.9145 78.9085 56.4498C78.9513 56.4153 78.9941 56.3809 79.0398 56.3493L79.211 56.2346C80.5982 55.2937 82.1937 54.304 83.0928 54.304C83.1013 54.304 83.1099 54.304 83.1185 54.304C81.9682 53.3487 79.6648 52.97 77.9209 53.5208C76.745 53.9024 75.7317 54.697 74.6614 55.5404C73.6852 56.3092 72.6748 57.1038 71.5246 57.5571C69.9376 58.1681 68.9843 57.7062 67.6628 57.0636L67.6399 57.0522C67.5943 57.0292 67.5714 56.9805 67.5829 56.9317L67.6485 56.642C67.9368 55.3654 68.1451 54.4445 69.304 53.5639C69.9405 53.0819 70.6968 52.6832 71.4275 52.3016C72.769 51.5959 74.1562 50.8673 74.8726 49.5793C75.7117 48.0847 75.3949 45.9045 74.5586 44.6623L74.5529 44.6595Z" fill="url(#paint24_linear_3909_13111)"/>
    <path d="M81.4572 52.5915C81.109 52.5915 80.7637 52.5514 80.4297 52.4682C79.328 52.1957 78.3347 51.5043 77.5584 50.4687C76.7021 49.327 76.2368 48.3172 76.0913 47.2874C75.8972 45.8932 76.2511 44.4588 77.0389 43.4491C77.5212 42.8323 78.1463 42.3561 78.7514 41.8971C79.3422 41.4467 79.9531 40.9849 80.424 40.3911C80.4468 40.3595 80.4725 40.3308 80.4954 40.2993C80.8379 39.8833 81.7227 38.1621 81.5771 37.3388C81.5486 37.1724 81.4801 37.0576 81.3688 36.9917C81.3688 36.9917 81.363 36.9888 81.363 36.9859C81.3117 36.9572 81.2946 36.8913 81.326 36.8396C81.3545 36.788 81.4201 36.7708 81.4715 36.7995C81.4744 36.7995 81.4772 36.8023 81.4801 36.8052C82.6931 37.531 83.7149 39.7657 83.2183 41.5729C82.853 42.9241 81.8026 43.9195 80.7865 44.8805C80.2442 45.394 79.6819 45.9276 79.2481 46.4985C78.4917 47.4939 78.5174 48.2713 78.5545 49.4475L78.5602 49.6167C79.7818 49.8319 80.601 49.9581 81.7227 49.109C82.5704 48.4578 83.2497 47.5427 83.9033 46.6591C84.6226 45.6895 85.3675 44.6826 86.3351 44.0429C87.9649 42.9757 90.3967 42.8237 91.5384 43.7187C91.5841 43.756 91.5926 43.822 91.5584 43.8708C91.5213 43.9167 91.4556 43.9253 91.4071 43.8908C91.136 43.6757 90.3596 43.9425 88.2275 46.4296L88.1333 46.5386C88.1076 46.5731 88.0791 46.6103 88.0477 46.6505C87.6395 47.1956 87.277 47.8066 86.926 48.3975C86.3095 49.4417 85.6701 50.5175 84.7196 51.3437C83.7863 52.1526 82.5989 52.5973 81.4515 52.5973L81.4572 52.5915ZM81.7912 37.3101C81.9482 38.251 81.0063 40.0153 80.6638 40.4312C80.6409 40.4599 80.6181 40.4915 80.5924 40.523C80.1072 41.1369 79.485 41.6102 78.8827 42.0664C78.289 42.5167 77.6754 42.9843 77.2101 43.5782C76.4566 44.542 76.117 45.9161 76.3053 47.2529C76.4452 48.2455 76.899 49.2237 77.7325 50.3368C78.4774 51.3351 79.4307 51.9977 80.4839 52.2588C81.8483 52.603 83.421 52.1871 84.5883 51.1744C85.5103 50.3741 86.1411 49.3098 86.749 48.2828C87.1029 47.689 87.4654 47.0722 87.8821 46.5185C87.9107 46.4784 87.9421 46.4382 87.9735 46.4009L88.0705 46.2891C89.0695 45.1244 90.2369 43.8679 91.0161 43.6527C89.843 43.1077 87.8222 43.3314 86.4579 44.2265C85.5217 44.849 84.8224 45.7928 84.0803 46.7939C83.4153 47.689 82.7274 48.6156 81.8568 49.2868C80.6438 50.2048 79.7333 50.047 78.4774 49.8261L78.4432 49.8204C78.3918 49.8118 78.3575 49.7688 78.3547 49.7171L78.3461 49.4618C78.309 48.2828 78.2833 47.4337 79.0854 46.3751C79.5306 45.7899 80.0958 45.2535 80.6466 44.7314C81.6399 43.7904 82.6703 42.8151 83.0185 41.5213C83.4324 40.0153 82.7445 38.2051 81.794 37.3158L81.7912 37.3101Z" fill="url(#paint25_linear_3909_13111)"/>
    <path d="M88.704 42.7028C87.7336 42.7028 86.7774 42.3356 85.9354 41.6385C84.9735 40.8467 84.3741 40.0751 84.0487 39.2116C83.6092 38.0383 83.6377 36.69 84.1258 35.6056C84.4255 34.943 84.8736 34.3721 85.3075 33.8185C85.7327 33.2791 86.1723 32.7198 86.4634 32.08C86.4777 32.0456 86.4948 32.0141 86.5091 31.9796C86.7346 31.512 87.1884 29.7335 86.8887 29.0507C86.8345 28.9302 86.7631 28.8556 86.6689 28.827C86.6689 28.827 86.6661 28.827 86.6632 28.827C86.6061 28.8097 86.5747 28.7495 86.5919 28.6921C86.609 28.6348 86.6661 28.6032 86.7232 28.6204C86.7232 28.6204 86.726 28.6204 86.7289 28.6204C88.0333 29.022 89.1835 30.8953 89.1007 32.4788C89.0379 33.7611 88.3244 34.8856 87.6365 35.9728C87.2683 36.5552 86.8859 37.1605 86.6233 37.7658C86.1666 38.8186 86.3407 39.4927 86.6033 40.5111L86.6347 40.6373C87.7079 40.534 88.4271 40.4508 89.2149 39.4525C89.8086 38.6895 90.2139 37.7313 90.6049 36.8076C91.0388 35.7835 91.4869 34.7221 92.1947 33.9275C93.3907 32.605 95.4457 31.9165 96.5874 32.4558C96.6416 32.4817 96.6645 32.5448 96.6388 32.5993C96.6131 32.6538 96.5503 32.6767 96.4961 32.6509C96.2792 32.5476 95.6997 32.7972 94.2783 35.6085L94.1699 35.8409C93.9216 36.4175 93.7303 37.04 93.5419 37.6424C93.2166 38.6923 92.8769 39.7796 92.2318 40.7148C91.4013 41.9167 90.0797 42.6769 88.7839 42.6999C88.7554 42.6999 88.724 42.6999 88.6954 42.6999L88.704 42.7028ZM87.1085 29.0278C87.4025 29.8453 86.923 31.6124 86.7032 32.0714C86.6889 32.103 86.6746 32.1374 86.6575 32.1718C86.355 32.8316 85.9068 33.4025 85.4759 33.9504C85.0506 34.4926 84.6082 35.0549 84.3199 35.6917C83.8546 36.7244 83.829 38.0096 84.2485 39.1313C84.5596 39.9574 85.1391 40.7004 86.0724 41.4692C86.903 42.1548 87.842 42.5077 88.7896 42.4847C90.017 42.4618 91.2728 41.736 92.0663 40.5914C92.6942 39.6849 93.0253 38.6149 93.3478 37.5793C93.5362 36.974 93.7303 36.3458 93.9843 35.7577L94.0985 35.511C94.7264 34.2688 95.48 32.9091 96.105 32.5247C95.009 32.321 93.3507 32.9779 92.3603 34.0709C91.6753 34.8397 91.2357 35.881 90.8076 36.8908C90.4108 37.8289 90.0027 38.7985 89.389 39.5845C88.5299 40.6717 87.725 40.7492 86.609 40.8553L86.569 40.8553C86.5119 40.8611 86.4691 40.8295 86.4549 40.7779L86.4006 40.5627C86.138 39.5386 85.9468 38.7985 86.432 37.6768C86.7003 37.0543 87.0885 36.4433 87.4624 35.8552C88.136 34.7909 88.8324 33.6922 88.8924 32.4644C88.9694 31.0416 88.0675 29.6015 87.1113 29.0249L87.1085 29.0278Z" fill="url(#paint26_linear_3909_13111)"/>
    <path d="M92.9768 31.845C92.4174 31.845 91.8494 31.7073 91.2928 31.4319C90.3224 30.9557 89.6687 30.4136 89.2349 29.7251C88.6441 28.787 88.4243 27.5793 88.6441 26.4949C88.7782 25.8323 89.0579 25.2155 89.3262 24.6188C89.5917 24.0336 89.8657 23.4254 89.9998 22.78L90.0198 22.6796C90.1283 22.2034 90.1939 20.4277 89.8086 19.9113C89.7487 19.8339 89.6859 19.7908 89.6145 19.788C89.5546 19.7851 89.5118 19.7335 89.5146 19.6761C89.5175 19.6158 89.5631 19.5699 89.6259 19.5757C89.6259 19.5757 89.6259 19.5757 89.6288 19.5757C90.8076 19.6445 92.1234 21.0875 92.3375 22.5448C92.5116 23.7152 92.112 24.8856 91.7238 26.0187C91.5069 26.6498 91.3042 27.2465 91.1901 27.8461C90.996 28.8903 91.2671 29.4439 91.6781 30.2845L91.7181 30.3677C92.6 30.0291 93.188 29.7882 93.6675 28.7354C94.03 27.9264 94.1984 26.9826 94.3611 26.0732C94.5409 25.0606 94.7264 24.0135 95.1831 23.1443C95.9566 21.6842 97.5721 20.6141 98.6368 20.8494C98.6938 20.8608 98.7309 20.9182 98.7167 20.9756C98.7053 21.033 98.6482 21.0703 98.5911 21.0588C98.3941 21.0215 97.966 21.3657 97.2781 24.177L97.2268 24.418C97.1212 24.9889 97.0726 25.5856 97.0241 26.165C96.9413 27.1691 96.8529 28.2047 96.4818 29.1743C96.0023 30.4193 95.0233 31.3918 93.9273 31.7131C93.619 31.8049 93.2993 31.8508 92.9797 31.8508L92.9768 31.845ZM90.0398 19.8798C90.4194 20.5596 90.3338 22.2694 90.2282 22.7255L90.2082 22.8259C90.0683 23.4943 89.7886 24.1111 89.5203 24.7077C89.2549 25.293 88.9837 25.8983 88.8524 26.538C88.6412 27.5707 88.8524 28.721 89.4147 29.6103C89.8286 30.2644 90.4537 30.7807 91.387 31.2397C92.2119 31.6471 93.071 31.736 93.8673 31.5008C94.9006 31.1996 95.8253 30.2759 96.282 29.0911C96.6445 28.153 96.7301 27.1289 96.81 26.1421C96.8586 25.5597 96.9099 24.9573 97.0155 24.375L97.0213 24.352C97.027 24.3176 97.0327 24.2832 97.0412 24.2516L97.0726 24.1225C97.4865 22.4243 97.8518 21.426 98.2086 21.0301C97.2582 21.1047 96.0023 22.0514 95.3715 23.2419C94.932 24.0852 94.7493 25.1122 94.5723 26.1105C94.4068 27.0342 94.2384 27.9895 93.8645 28.8243C93.3364 29.9804 92.6685 30.2357 91.7438 30.5885L91.7038 30.6029C91.6524 30.623 91.5953 30.6 91.5697 30.5512L91.4869 30.382C91.073 29.5357 90.7705 28.9218 90.9788 27.8088C91.0959 27.1949 91.3099 26.5609 91.5211 25.9499C91.9007 24.8426 92.2918 23.6951 92.1234 22.5763C91.935 21.2854 90.9389 20.1953 90.0398 19.8798Z" fill="url(#paint27_linear_3909_13111)"/>
    <path d="M94.6298 21.4836C94.3757 21.4836 94.116 21.452 93.8534 21.3889C92.9515 21.1709 92.3036 20.8238 91.8183 20.2988C91.159 19.5845 90.768 18.5374 90.768 17.499C90.768 16.8707 90.8993 16.2482 91.022 15.6487C91.1447 15.052 91.2732 14.4381 91.276 13.8127C91.276 13.7812 91.276 13.7496 91.276 13.7181C91.2875 13.239 91.0334 11.5579 90.611 11.1907C90.5339 11.1248 90.4797 11.1334 90.4626 11.1362C90.4055 11.1477 90.3484 11.1076 90.3398 11.0502C90.3284 10.9928 90.3684 10.9354 90.4255 10.9268C91.4302 10.749 92.7888 11.8132 93.2226 13.1185C93.5708 14.1541 93.4338 15.3073 93.3025 16.4175C93.2283 17.0342 93.1598 17.6195 93.1684 18.1817C93.1827 19.1685 93.5081 19.6075 93.999 20.273L94.0332 20.3189C94.7068 19.8341 95.1521 19.4898 95.3719 18.4514C95.5374 17.6481 95.5146 16.7617 95.4946 15.904C95.4718 14.9516 95.4489 13.9648 95.6801 13.0783C96.0797 11.5895 97.2471 10.2871 98.1861 10.2871C98.2432 10.29 98.2975 10.333 98.2975 10.3933C98.2975 10.4535 98.2489 10.4994 98.1919 10.4994C98.0577 10.4994 97.7409 10.8006 97.6467 13.5861L97.6467 13.7123L97.6467 13.8213C97.6581 14.3606 97.7209 14.9114 97.778 15.445C97.8807 16.363 97.9863 17.3125 97.8408 18.2563C97.6524 19.4698 96.9988 20.5484 96.1339 21.0676C95.6773 21.343 95.1692 21.4836 94.6326 21.4836L94.6298 21.4836ZM90.8508 11.1391C91.2817 11.7042 91.4987 13.2677 91.4872 13.7181C91.4872 13.7467 91.4872 13.7812 91.4872 13.8156C91.4844 14.461 91.3531 15.0864 91.2304 15.6917C91.1076 16.2827 90.982 16.8908 90.982 17.499C90.982 18.4858 91.3531 19.4755 91.9753 20.1525C92.432 20.6459 93.0457 20.9729 93.9048 21.1795C94.664 21.3631 95.3947 21.2598 96.0198 20.8811C96.8332 20.3935 97.4498 19.3751 97.6267 18.2219C97.7666 17.3068 97.6638 16.3716 97.5611 15.4679C97.5011 14.9315 97.4383 14.375 97.4269 13.8242L97.4269 13.7066L97.4269 13.5775C97.4811 11.9653 97.6067 10.9985 97.8322 10.5625C97.0644 10.835 96.1996 11.9337 95.8799 13.13C95.6573 13.9877 95.6801 14.9573 95.703 15.8982C95.7229 16.7675 95.7458 17.6654 95.5745 18.4944C95.3319 19.6419 94.8153 20.0148 94.1017 20.5283L94.0646 20.5541C94.019 20.5885 93.9505 20.5771 93.9162 20.5312L93.822 20.4021C93.3254 19.7279 92.9657 19.2403 92.9486 18.1846C92.9401 17.6051 93.0143 16.9883 93.0856 16.3917C93.2141 15.3016 93.3482 14.177 93.0171 13.1845C92.6461 12.0714 91.6357 11.2682 90.8479 11.1391L90.8508 11.1391Z" fill="url(#paint28_linear_3909_13111)"/>
    <path d="M94.1675 11.747C93.5224 11.747 92.9173 11.5433 92.415 11.1503C91.7471 10.6253 91.2447 9.74179 91.0735 8.78365C90.9707 8.20417 90.9736 7.60749 90.9793 7.03088C90.9822 6.45428 90.9879 5.86046 90.8851 5.27812L90.8708 5.20066C90.7966 4.73881 90.2886 3.17251 89.8804 2.94301C89.829 2.91433 89.8005 2.92006 89.7834 2.92867C89.7291 2.95162 89.6663 2.92867 89.6435 2.8713C89.6207 2.81679 89.6435 2.75368 89.7006 2.73073C90.5141 2.38362 91.8356 3.13522 92.4207 4.27408C92.8831 5.17198 92.9601 6.25634 93.0372 7.30628C93.08 7.88575 93.1171 8.43367 93.217 8.95003C93.394 9.85079 93.7365 10.1864 94.256 10.6971L94.2702 10.7114C94.7412 10.1491 95.0523 9.75039 95.0609 8.7693C95.0637 8.00623 94.901 7.203 94.7412 6.42272C94.5642 5.55064 94.3787 4.64988 94.4244 3.78927C94.4986 2.50124 95.1864 0.940675 96.057 0.762816C96.1141 0.751342 96.1712 0.788634 96.1826 0.846008C96.194 0.903382 96.1569 0.960755 96.0998 0.97223C96.017 0.989442 95.7744 1.25336 96.1769 3.90115L96.214 4.11343C96.3139 4.60972 96.4594 5.10313 96.5964 5.5822C96.8333 6.3969 97.0788 7.2403 97.1159 8.12098C97.1616 9.25411 96.7962 10.3557 96.1597 10.9954C95.6745 11.4888 95.0523 11.7384 94.3131 11.7384L94.3073 11.7384C94.2617 11.7384 94.2132 11.7413 94.1675 11.7413L94.1675 11.747ZM90.1202 2.86269C90.594 3.33889 91.025 4.81052 91.0792 5.14903L91.0963 5.23796C91.2019 5.83751 91.1962 6.4428 91.1934 7.02801C91.1905 7.62183 91.1877 8.18409 91.2847 8.74348C91.4474 9.64999 91.9183 10.4876 92.5463 10.9782C93.0458 11.3655 93.6509 11.5577 94.3016 11.5261L94.3073 11.5261C94.9952 11.5261 95.5632 11.2966 96.0085 10.8462C96.605 10.2467 96.9475 9.20534 96.9018 8.13246C96.8676 7.27759 96.625 6.44854 96.3909 5.64531C96.2511 5.16337 96.1055 4.66422 96.0028 4.15933L95.9628 3.93558C95.7402 2.45821 95.6802 1.56318 95.7887 1.1128C95.2121 1.51441 94.6984 2.65901 94.6327 3.80075C94.5899 4.63267 94.7726 5.52196 94.9467 6.37969C95.1094 7.16858 95.2749 7.98615 95.2721 8.77217C95.2607 9.86227 94.8925 10.2983 94.3844 10.9065L94.3559 10.9409C94.3359 10.9638 94.3102 10.9782 94.2788 10.9782C94.2503 10.9839 94.2217 10.9696 94.1989 10.9466L94.1018 10.852C93.5738 10.3327 93.1913 9.9598 93.0001 8.99306C92.8973 8.46522 92.8574 7.88575 92.8174 7.32349C92.7432 6.2965 92.669 5.23222 92.2237 4.37448C91.7385 3.42782 90.7938 2.86269 90.1287 2.86269C90.123 2.86269 90.1202 2.86269 90.1145 2.86269L90.1202 2.86269Z" fill="url(#paint29_linear_3909_13111)"/>
    <path d="M48.9993 63.1939C48.9222 62.8783 49.1163 62.5599 49.4303 62.4824C50.8346 62.1411 52.236 61.7882 53.6289 61.4038C53.8458 61.3436 54.0627 61.2862 54.2768 61.2231L54.9219 61.0309L56.212 60.6465C56.212 60.6465 57.4821 60.2334 57.4907 60.2305C62.9765 58.4433 68.431 56.114 73.3146 52.9555C74.8188 51.9831 76.2716 50.9331 77.6673 49.8086C80.453 47.5567 82.9876 44.9835 85.1654 42.1263C87.3432 39.2691 89.1613 36.1336 90.5799 32.8231C92.007 29.5127 93.0317 26.0244 93.6567 22.4615C93.8137 21.5722 93.945 20.6743 94.0506 19.7764C94.1562 18.8785 94.2361 17.9749 94.2904 17.0712C94.3446 16.1676 94.3731 15.2611 94.3703 14.3546C94.3646 13.4481 94.3389 12.5416 94.2476 11.6437L94.376 11.6265C94.4902 12.533 94.5415 13.4423 94.5701 14.3517C94.5958 15.2611 94.5929 16.1733 94.5615 17.0827C94.5301 17.9921 94.4673 18.9014 94.3817 19.8108C94.2961 20.7173 94.1876 21.6238 94.0478 22.5246C93.4997 26.1305 92.5436 29.6791 91.1707 33.0698C89.7892 36.4549 87.9996 39.6793 85.8304 42.6283C83.664 45.5802 81.1238 48.2538 78.3181 50.6061C73.1091 54.9837 66.8126 57.927 60.5618 60.2793C57.425 61.4583 54.4566 62.3103 50.8745 63.3172C50.4892 63.4262 50.1039 63.5295 49.7214 63.6328C49.4046 63.716 49.0821 63.5238 49.005 63.2053C49.005 63.2025 49.005 63.1967 49.005 63.1939L48.9993 63.1939Z" fill="url(#paint30_linear_3909_13111)"/>
    <path d="M49.5671 63.7623C49.4443 63.7623 49.3245 63.7278 49.216 63.6647C49.0562 63.5672 48.942 63.4151 48.8963 63.2315L48.8963 63.2201C48.8507 63.0393 48.8792 62.8529 48.9734 62.6951C49.0704 62.5373 49.2217 62.4254 49.4015 62.3796C50.6374 62.0783 52.1045 61.714 53.5973 61.3009C53.6829 61.278 53.7685 61.255 53.8541 61.2292C53.9854 61.1948 54.1139 61.1575 54.2452 61.1202L56.1803 60.5436C56.1803 60.5436 57.4391 60.1334 57.4562 60.1276C63.6499 58.111 68.8189 55.7328 73.2544 52.8641C74.77 51.8831 76.2314 50.8274 77.5986 49.7258C80.4357 47.4337 82.9503 44.8548 85.0767 42.0607C87.2316 39.2379 89.0469 36.1139 90.4797 32.7805C91.8869 29.5217 92.9173 26.042 93.5509 22.4447C93.705 21.5812 93.8363 20.6804 93.9419 19.7653C94.0475 18.8674 94.1275 17.958 94.1817 17.0659C94.2359 16.1565 94.2645 15.2471 94.2616 14.3578C94.2559 13.262 94.2188 12.4301 94.1389 11.6556C94.1332 11.5982 94.1731 11.5465 94.2302 11.5379L94.3587 11.5207C94.3872 11.5179 94.4157 11.5236 94.4386 11.5408C94.4614 11.558 94.4757 11.5838 94.4785 11.6125C94.607 12.6166 94.6498 13.6005 94.6755 14.3492C94.7012 15.25 94.6983 16.1709 94.6669 17.0888C94.6355 17.9724 94.5756 18.8932 94.4871 19.8227C94.3986 20.755 94.2873 21.6701 94.1503 22.5422C93.5909 26.2084 92.6204 29.7655 91.2675 33.1133C89.8661 36.5442 88.0651 39.7686 85.9158 42.6947C83.7866 45.5978 81.252 48.2857 78.3863 50.6897C72.6036 55.5492 65.4652 58.5499 60.5987 60.3801C57.539 61.5304 54.6505 62.3681 50.9029 63.4209C50.5175 63.5299 50.1322 63.6332 49.7469 63.7364C49.687 63.7508 49.627 63.7594 49.5699 63.7594L49.5671 63.7623ZM49.1018 63.1742C49.1332 63.3061 49.2132 63.4123 49.3245 63.4783C49.4358 63.5442 49.5642 63.5615 49.6898 63.5299C50.0751 63.4266 50.4576 63.3233 50.8429 63.2143C54.5848 62.1615 57.4705 61.3267 60.5216 60.1793C70.6542 56.3639 75.4921 52.8412 78.2493 50.5233C81.1036 48.1308 83.6267 45.4543 85.7446 42.5656C87.8852 39.6539 89.6777 36.4438 91.0706 33.0301C92.4178 29.6995 93.3825 26.1596 93.9391 22.5078C94.0732 21.6386 94.1845 20.7263 94.273 19.7997C94.3587 18.8732 94.4214 17.958 94.45 17.0774C94.4757 16.3344 94.4814 15.5914 94.47 14.857C94.4643 15.5885 94.4357 16.3344 94.3929 17.0745C94.3387 17.9695 94.2588 18.8818 94.1531 19.7854C94.0475 20.7034 93.9134 21.6099 93.7593 22.4762C93.1256 26.0908 92.0867 29.5848 90.6738 32.8608C89.2353 36.2115 87.4086 39.3498 85.2451 42.1869C83.1072 44.9925 80.5812 47.5858 77.7299 49.8893C76.357 50.9966 74.8899 52.058 73.3686 53.042C68.916 55.9222 63.7327 58.306 57.5218 60.3313C57.5133 60.3313 56.2431 60.7473 56.2431 60.7473L54.3051 61.3239C54.1738 61.364 54.0425 61.3985 53.9112 61.4358C53.8256 61.4587 53.74 61.4817 53.6572 61.5046C52.1616 61.9206 50.6945 62.2849 49.4558 62.5861C49.3302 62.6177 49.2274 62.6922 49.1589 62.8041C49.0933 62.9131 49.0733 63.0422 49.1018 63.1684L48.9962 63.1914L49.1018 63.1713L49.1018 63.1742Z" fill="url(#paint31_linear_3909_13111)"/>
    <path d="M52.1783 65.4948C51.5247 65.4719 50.951 65.1822 50.4971 64.7346C50.9538 64.3703 51.1993 63.7708 51.0823 63.154C50.9139 62.2762 50.0661 61.6996 49.1927 61.8717C48.3194 62.041 47.7456 62.893 47.9169 63.7708C47.994 64.1666 48.208 64.5023 48.502 64.7346C48.0482 65.1822 47.4774 65.4719 46.8209 65.4948C46.4812 65.5063 46.113 65.4948 45.8447 65.2854C45.8619 65.5952 45.8818 65.9108 45.9874 66.2005C46.3414 67.1759 47.2148 67.0353 47.9169 66.519C48.4649 66.1231 48.8559 65.601 49.2213 65.0559C49.4011 65.0875 49.5866 65.0904 49.775 65.0559C50.1375 65.601 50.5314 66.1202 51.0794 66.519C51.7844 67.0353 52.6578 67.1759 53.0089 66.2005C53.1145 65.9079 53.1345 65.5952 53.1516 65.2854C52.8833 65.4948 52.5151 65.5063 52.1754 65.4948L52.1783 65.4948Z" fill="url(#paint32_linear_3909_13111)"/>
    <path d="M46.8839 67.0297C46.7783 67.0297 46.6784 67.0153 46.587 66.9866C46.2674 66.8891 46.0333 66.6366 45.8906 66.2408C45.7793 65.9338 45.7593 65.6068 45.7422 65.2941C45.7422 65.2511 45.7622 65.2138 45.7993 65.1937C45.8364 65.1736 45.882 65.1794 45.9134 65.2052C46.1561 65.3974 46.5071 65.4002 46.8211 65.3916C47.3748 65.3744 47.9 65.1507 48.3453 64.7433C48.0712 64.4937 47.8857 64.161 47.8144 63.7967C47.7259 63.3434 47.8201 62.8844 48.077 62.5C48.3338 62.1185 48.7249 61.8574 49.1758 61.7714C49.6268 61.6824 50.0835 61.7771 50.466 62.0353C50.8456 62.2935 51.1053 62.6865 51.1909 63.1397C51.3051 63.7364 51.1024 64.3388 50.66 64.7433C51.1053 65.1507 51.6276 65.3716 52.1842 65.3916C52.4953 65.4031 52.8492 65.3974 53.0919 65.2052C53.1261 65.1794 53.1689 65.1736 53.206 65.1937C53.2431 65.2138 53.266 65.2539 53.2631 65.2941C53.246 65.6068 53.226 65.9338 53.1147 66.2408C52.9691 66.6395 52.7351 66.8891 52.4183 66.9866C52.0244 67.1071 51.5163 66.9694 51.0225 66.608C50.4688 66.2063 50.0749 65.6842 49.7324 65.1765C49.5811 65.1966 49.4299 65.1966 49.2786 65.1765C48.9361 65.6871 48.5393 66.2092 47.9856 66.608C47.6089 66.8834 47.2235 67.0297 46.8867 67.0297L46.8839 67.0297ZM45.9648 65.4834C45.9819 65.7158 46.0105 65.951 46.0875 66.1662C46.2074 66.499 46.3958 66.7055 46.647 66.783C46.9752 66.8834 47.4176 66.7571 47.8543 66.4358C48.3995 66.04 48.7905 65.5121 49.133 65.0015C49.1559 64.9671 49.1987 64.947 49.2386 64.9556C49.4099 64.9872 49.584 64.9843 49.7552 64.9556C49.7952 64.947 49.838 64.9671 49.8609 65.0015C50.2005 65.5121 50.5915 66.04 51.1396 66.4358C51.5791 66.7571 52.0187 66.8834 52.3469 66.783C52.5981 66.7055 52.7865 66.499 52.9063 66.1691C52.9834 65.9539 53.0119 65.7187 53.0291 65.4863C52.7608 65.6097 52.4496 65.6125 52.1699 65.6039C51.5249 65.581 50.9198 65.3085 50.4174 64.8122C50.3946 64.7892 50.3832 64.7605 50.386 64.729C50.386 64.6974 50.4032 64.6687 50.426 64.6515C50.8713 64.2987 51.0796 63.7335 50.9712 63.177C50.8142 62.3566 50.0235 61.8201 49.2072 61.9779C48.8133 62.0554 48.4708 62.282 48.2454 62.6176C48.0199 62.9533 47.9371 63.3549 48.0142 63.7536C48.0827 64.1093 48.2768 64.4278 48.5593 64.6515C48.5822 64.6716 48.5993 64.7003 48.5993 64.729C48.5993 64.7605 48.5907 64.7892 48.5679 64.8122C48.0684 65.3085 47.4604 65.581 46.8154 65.6039C46.5328 65.6125 46.2217 65.6097 45.9563 65.4863L45.9648 65.4834Z" fill="url(#paint33_linear_3909_13111)"/>
  </g>
  <defs>
    <linearGradient id="paint0_linear_3909_13111" x1="47.341" y1="58.3832" x2="27.6182" y2="58.3832" gradientUnits="userSpaceOnUse">
      <stop stop-color="#A57D24"/>
      <stop offset="0.21" stop-color="#D8BD62"/>
      <stop offset="0.33" stop-color="#F1DD80"/>
      <stop offset="0.52" stop-color="#FBF2A8"/>
      <stop offset="0.73" stop-color="#F1DD80"/>
      <stop offset="1" stop-color="#A57D24"/>
    </linearGradient>
    <linearGradient id="paint1_linear_3909_13111" x1="33.3029" y1="52.5133" x2="15.6066" y2="52.5133" gradientUnits="userSpaceOnUse">
      <stop stop-color="#A57D24"/>
      <stop offset="0.21" stop-color="#D8BD62"/>
      <stop offset="0.33" stop-color="#F1DD80"/>
      <stop offset="0.52" stop-color="#FBF2A8"/>
      <stop offset="0.73" stop-color="#F1DD80"/>
      <stop offset="1" stop-color="#A57D24"/>
    </linearGradient>
    <linearGradient id="paint2_linear_3909_13111" x1="23.0109" y1="44.5818" x2="7.68359" y2="44.5818" gradientUnits="userSpaceOnUse">
      <stop stop-color="#A57D24"/>
      <stop offset="0.21" stop-color="#D8BD62"/>
      <stop offset="0.33" stop-color="#F1DD80"/>
      <stop offset="0.52" stop-color="#FBF2A8"/>
      <stop offset="0.73" stop-color="#F1DD80"/>
      <stop offset="1" stop-color="#A57D24"/>
    </linearGradient>
    <linearGradient id="paint3_linear_3909_13111" x1="15.3164" y1="35.5541" x2="2.60938" y2="35.5541" gradientUnits="userSpaceOnUse">
      <stop stop-color="#A57D24"/>
      <stop offset="0.21" stop-color="#D8BD62"/>
      <stop offset="0.33" stop-color="#F1DD80"/>
      <stop offset="0.52" stop-color="#FBF2A8"/>
      <stop offset="0.73" stop-color="#F1DD80"/>
      <stop offset="1" stop-color="#A57D24"/>
    </linearGradient>
    <linearGradient id="paint4_linear_3909_13111" x1="10.4921" y1="25.6057" x2="0.545073" y2="25.6057" gradientUnits="userSpaceOnUse">
      <stop stop-color="#A57D24"/>
      <stop offset="0.21" stop-color="#D8BD62"/>
      <stop offset="0.33" stop-color="#F1DD80"/>
      <stop offset="0.52" stop-color="#FBF2A8"/>
      <stop offset="0.73" stop-color="#F1DD80"/>
      <stop offset="1" stop-color="#A57D24"/>
    </linearGradient>
    <linearGradient id="paint5_linear_3909_13111" x1="8.71613" y1="15.7773" x2="0.969727" y2="15.7773" gradientUnits="userSpaceOnUse">
      <stop stop-color="#A57D24"/>
      <stop offset="0.21" stop-color="#D8BD62"/>
      <stop offset="0.33" stop-color="#F1DD80"/>
      <stop offset="0.52" stop-color="#FBF2A8"/>
      <stop offset="0.73" stop-color="#F1DD80"/>
      <stop offset="1" stop-color="#A57D24"/>
    </linearGradient>
    <linearGradient id="paint6_linear_3909_13111" x1="9.41636" y1="6.15014" x2="2.14376" y2="6.15014" gradientUnits="userSpaceOnUse">
      <stop stop-color="#A57D24"/>
      <stop offset="0.21" stop-color="#D8BD62"/>
      <stop offset="0.33" stop-color="#F1DD80"/>
      <stop offset="0.52" stop-color="#FBF2A8"/>
      <stop offset="0.73" stop-color="#F1DD80"/>
      <stop offset="1" stop-color="#A57D24"/>
    </linearGradient>
    <linearGradient id="paint7_linear_3909_13111" x1="44.1314" y1="53.455" x2="30.6573" y2="66.864" gradientUnits="userSpaceOnUse">
      <stop stop-color="#A57D24"/>
      <stop offset="0.21" stop-color="#D8BD62"/>
      <stop offset="0.33" stop-color="#F1DD80"/>
      <stop offset="0.52" stop-color="#FBF2A8"/>
      <stop offset="0.73" stop-color="#F1DD80"/>
      <stop offset="1" stop-color="#A57D24"/>
    </linearGradient>
    <linearGradient id="paint8_linear_3909_13111" x1="30.7421" y1="49.0315" x2="20.3346" y2="59.3894" gradientUnits="userSpaceOnUse">
      <stop stop-color="#A57D24"/>
      <stop offset="0.21" stop-color="#D8BD62"/>
      <stop offset="0.33" stop-color="#F1DD80"/>
      <stop offset="0.52" stop-color="#FBF2A8"/>
      <stop offset="0.73" stop-color="#F1DD80"/>
      <stop offset="1" stop-color="#A57D24"/>
    </linearGradient>
    <linearGradient id="paint9_linear_3909_13111" x1="21.3472" y1="40.2616" x2="12.3741" y2="49.1867" gradientUnits="userSpaceOnUse">
      <stop stop-color="#A57D24"/>
      <stop offset="0.21" stop-color="#D8BD62"/>
      <stop offset="0.33" stop-color="#F1DD80"/>
      <stop offset="0.52" stop-color="#FBF2A8"/>
      <stop offset="0.73" stop-color="#F1DD80"/>
      <stop offset="1" stop-color="#A57D24"/>
    </linearGradient>
    <linearGradient id="paint10_linear_3909_13111" x1="14.4085" y1="30.4251" x2="5.49849" y2="39.2902" gradientUnits="userSpaceOnUse">
      <stop stop-color="#A57D24"/>
      <stop offset="0.21" stop-color="#D8BD62"/>
      <stop offset="0.33" stop-color="#F1DD80"/>
      <stop offset="0.52" stop-color="#FBF2A8"/>
      <stop offset="0.73" stop-color="#F1DD80"/>
      <stop offset="1" stop-color="#A57D24"/>
    </linearGradient>
    <linearGradient id="paint11_linear_3909_13111" x1="10.2726" y1="20.1581" x2="1.72119" y2="28.6665" gradientUnits="userSpaceOnUse">
      <stop stop-color="#A57D24"/>
      <stop offset="0.21" stop-color="#D8BD62"/>
      <stop offset="0.33" stop-color="#F1DD80"/>
      <stop offset="0.52" stop-color="#FBF2A8"/>
      <stop offset="0.73" stop-color="#F1DD80"/>
      <stop offset="1" stop-color="#A57D24"/>
    </linearGradient>
    <linearGradient id="paint12_linear_3909_13111" x1="8.62215" y1="10.6774" x2="0.607164" y2="18.6521" gradientUnits="userSpaceOnUse">
      <stop stop-color="#A57D24"/>
      <stop offset="0.21" stop-color="#D8BD62"/>
      <stop offset="0.33" stop-color="#F1DD80"/>
      <stop offset="0.52" stop-color="#FBF2A8"/>
      <stop offset="0.73" stop-color="#F1DD80"/>
      <stop offset="1" stop-color="#A57D24"/>
    </linearGradient>
    <linearGradient id="paint13_linear_3909_13111" x1="8.79129" y1="1.94502" x2="1.40453" y2="9.29459" gradientUnits="userSpaceOnUse">
      <stop stop-color="#A57D24"/>
      <stop offset="0.21" stop-color="#D8BD62"/>
      <stop offset="0.33" stop-color="#F1DD80"/>
      <stop offset="0.52" stop-color="#FBF2A8"/>
      <stop offset="0.73" stop-color="#F1DD80"/>
      <stop offset="1" stop-color="#A57D24"/>
    </linearGradient>
    <linearGradient id="paint14_linear_3909_13111" x1="50.1775" y1="37.5366" x2="4.57248" y2="37.5366" gradientUnits="userSpaceOnUse">
      <stop stop-color="#A57D24"/>
      <stop offset="0.21" stop-color="#D8BD62"/>
      <stop offset="0.33" stop-color="#F1DD80"/>
      <stop offset="0.52" stop-color="#FBF2A8"/>
      <stop offset="0.73" stop-color="#F1DD80"/>
      <stop offset="1" stop-color="#A57D24"/>
    </linearGradient>
    <linearGradient id="paint15_linear_3909_13111" x1="-1.01305" y1="17.1977" x2="47.7883" y2="65.7534" gradientUnits="userSpaceOnUse">
      <stop stop-color="#A57D24"/>
      <stop offset="0.21" stop-color="#D8BD62"/>
      <stop offset="0.33" stop-color="#F1DD80"/>
      <stop offset="0.52" stop-color="#FBF2A8"/>
      <stop offset="0.73" stop-color="#F1DD80"/>
      <stop offset="1" stop-color="#A57D24"/>
    </linearGradient>
    <linearGradient id="paint16_linear_3909_13111" x1="51.8162" y1="58.4896" x2="71.5418" y2="58.4896" gradientUnits="userSpaceOnUse">
      <stop stop-color="#A57D24"/>
      <stop offset="0.21" stop-color="#D8BD62"/>
      <stop offset="0.33" stop-color="#F1DD80"/>
      <stop offset="0.52" stop-color="#FBF2A8"/>
      <stop offset="0.73" stop-color="#F1DD80"/>
      <stop offset="1" stop-color="#A57D24"/>
    </linearGradient>
    <linearGradient id="paint17_linear_3909_13111" x1="65.8562" y1="52.6174" x2="83.5525" y2="52.6174" gradientUnits="userSpaceOnUse">
      <stop stop-color="#A57D24"/>
      <stop offset="0.21" stop-color="#D8BD62"/>
      <stop offset="0.33" stop-color="#F1DD80"/>
      <stop offset="0.52" stop-color="#FBF2A8"/>
      <stop offset="0.73" stop-color="#F1DD80"/>
      <stop offset="1" stop-color="#A57D24"/>
    </linearGradient>
    <linearGradient id="paint18_linear_3909_13111" x1="76.1451" y1="44.6887" x2="91.4724" y2="44.6887" gradientUnits="userSpaceOnUse">
      <stop stop-color="#A57D24"/>
      <stop offset="0.21" stop-color="#D8BD62"/>
      <stop offset="0.33" stop-color="#F1DD80"/>
      <stop offset="0.52" stop-color="#FBF2A8"/>
      <stop offset="0.73" stop-color="#F1DD80"/>
      <stop offset="1" stop-color="#A57D24"/>
    </linearGradient>
    <linearGradient id="paint19_linear_3909_13111" x1="83.843" y1="35.6606" x2="96.5501" y2="35.6606" gradientUnits="userSpaceOnUse">
      <stop stop-color="#A57D24"/>
      <stop offset="0.21" stop-color="#D8BD62"/>
      <stop offset="0.33" stop-color="#F1DD80"/>
      <stop offset="0.52" stop-color="#FBF2A8"/>
      <stop offset="0.73" stop-color="#F1DD80"/>
      <stop offset="1" stop-color="#A57D24"/>
    </linearGradient>
    <linearGradient id="paint20_linear_3909_13111" x1="88.6668" y1="25.7092" x2="98.6138" y2="25.7092" gradientUnits="userSpaceOnUse">
      <stop stop-color="#A57D24"/>
      <stop offset="0.21" stop-color="#D8BD62"/>
      <stop offset="0.33" stop-color="#F1DD80"/>
      <stop offset="0.52" stop-color="#FBF2A8"/>
      <stop offset="0.73" stop-color="#F1DD80"/>
      <stop offset="1" stop-color="#A57D24"/>
    </linearGradient>
    <linearGradient id="paint21_linear_3909_13111" x1="90.4423" y1="15.8837" x2="98.1887" y2="15.8837" gradientUnits="userSpaceOnUse">
      <stop stop-color="#A57D24"/>
      <stop offset="0.21" stop-color="#D8BD62"/>
      <stop offset="0.33" stop-color="#F1DD80"/>
      <stop offset="0.52" stop-color="#FBF2A8"/>
      <stop offset="0.73" stop-color="#F1DD80"/>
      <stop offset="1" stop-color="#A57D24"/>
    </linearGradient>
    <linearGradient id="paint22_linear_3909_13111" x1="89.7432" y1="6.25658" x2="97.0158" y2="6.25658" gradientUnits="userSpaceOnUse">
      <stop stop-color="#A57D24"/>
      <stop offset="0.21" stop-color="#D8BD62"/>
      <stop offset="0.33" stop-color="#F1DD80"/>
      <stop offset="0.52" stop-color="#FBF2A8"/>
      <stop offset="0.73" stop-color="#F1DD80"/>
      <stop offset="1" stop-color="#A57D24"/>
    </linearGradient>
    <linearGradient id="paint23_linear_3909_13111" x1="55.0243" y1="53.5612" x2="68.5012" y2="66.9673" gradientUnits="userSpaceOnUse">
      <stop stop-color="#A57D24"/>
      <stop offset="0.21" stop-color="#D8BD62"/>
      <stop offset="0.33" stop-color="#F1DD80"/>
      <stop offset="0.52" stop-color="#FBF2A8"/>
      <stop offset="0.73" stop-color="#F1DD80"/>
      <stop offset="1" stop-color="#A57D24"/>
    </linearGradient>
    <linearGradient id="paint24_linear_3909_13111" x1="68.4163" y1="49.1375" x2="78.8237" y2="59.4954" gradientUnits="userSpaceOnUse">
      <stop stop-color="#A57D24"/>
      <stop offset="0.21" stop-color="#D8BD62"/>
      <stop offset="0.33" stop-color="#F1DD80"/>
      <stop offset="0.52" stop-color="#FBF2A8"/>
      <stop offset="0.73" stop-color="#F1DD80"/>
      <stop offset="1" stop-color="#A57D24"/>
    </linearGradient>
    <linearGradient id="paint25_linear_3909_13111" x1="77.8124" y1="40.3652" x2="86.7855" y2="49.2932" gradientUnits="userSpaceOnUse">
      <stop stop-color="#A57D24"/>
      <stop offset="0.21" stop-color="#D8BD62"/>
      <stop offset="0.33" stop-color="#F1DD80"/>
      <stop offset="0.52" stop-color="#FBF2A8"/>
      <stop offset="0.73" stop-color="#F1DD80"/>
      <stop offset="1" stop-color="#A57D24"/>
    </linearGradient>
    <linearGradient id="paint26_linear_3909_13111" x1="84.7509" y1="30.5281" x2="93.6609" y2="39.3961" gradientUnits="userSpaceOnUse">
      <stop stop-color="#A57D24"/>
      <stop offset="0.21" stop-color="#D8BD62"/>
      <stop offset="0.33" stop-color="#F1DD80"/>
      <stop offset="0.52" stop-color="#FBF2A8"/>
      <stop offset="0.73" stop-color="#F1DD80"/>
      <stop offset="1" stop-color="#A57D24"/>
    </linearGradient>
    <linearGradient id="paint27_linear_3909_13111" x1="88.8867" y1="20.2613" x2="97.4381" y2="28.7697" gradientUnits="userSpaceOnUse">
      <stop stop-color="#A57D24"/>
      <stop offset="0.21" stop-color="#D8BD62"/>
      <stop offset="0.33" stop-color="#F1DD80"/>
      <stop offset="0.52" stop-color="#FBF2A8"/>
      <stop offset="0.73" stop-color="#F1DD80"/>
      <stop offset="1" stop-color="#A57D24"/>
    </linearGradient>
    <linearGradient id="paint28_linear_3909_13111" x1="90.5368" y1="10.7834" x2="98.5489" y2="18.7552" gradientUnits="userSpaceOnUse">
      <stop stop-color="#A57D24"/>
      <stop offset="0.21" stop-color="#D8BD62"/>
      <stop offset="0.33" stop-color="#F1DD80"/>
      <stop offset="0.52" stop-color="#FBF2A8"/>
      <stop offset="0.73" stop-color="#F1DD80"/>
      <stop offset="1" stop-color="#A57D24"/>
    </linearGradient>
    <linearGradient id="paint29_linear_3909_13111" x1="90.3656" y1="2.05085" x2="97.7552" y2="9.40041" gradientUnits="userSpaceOnUse">
      <stop stop-color="#A57D24"/>
      <stop offset="0.21" stop-color="#D8BD62"/>
      <stop offset="0.33" stop-color="#F1DD80"/>
      <stop offset="0.52" stop-color="#FBF2A8"/>
      <stop offset="0.73" stop-color="#F1DD80"/>
      <stop offset="1" stop-color="#A57D24"/>
    </linearGradient>
    <linearGradient id="paint30_linear_3909_13111" x1="48.9822" y1="37.6397" x2="94.5844" y2="37.6397" gradientUnits="userSpaceOnUse">
      <stop stop-color="#A57D24"/>
      <stop offset="0.21" stop-color="#D8BD62"/>
      <stop offset="0.33" stop-color="#F1DD80"/>
      <stop offset="0.52" stop-color="#FBF2A8"/>
      <stop offset="0.73" stop-color="#F1DD80"/>
      <stop offset="1" stop-color="#A57D24"/>
    </linearGradient>
    <linearGradient id="paint31_linear_3909_13111" x1="51.6164" y1="66.106" x2="100.415" y2="17.5503" gradientUnits="userSpaceOnUse">
      <stop stop-color="#A57D24"/>
      <stop offset="0.21" stop-color="#D8BD62"/>
      <stop offset="0.33" stop-color="#F1DD80"/>
      <stop offset="0.52" stop-color="#FBF2A8"/>
      <stop offset="0.73" stop-color="#F1DD80"/>
      <stop offset="1" stop-color="#A57D24"/>
    </linearGradient>
    <linearGradient id="paint32_linear_3909_13111" x1="45.8447" y1="64.3847" x2="53.1544" y2="64.3847" gradientUnits="userSpaceOnUse">
      <stop stop-color="#A57D24"/>
      <stop offset="0.21" stop-color="#D8BD62"/>
      <stop offset="0.33" stop-color="#F1DD80"/>
      <stop offset="0.52" stop-color="#FBF2A8"/>
      <stop offset="0.73" stop-color="#F1DD80"/>
      <stop offset="1" stop-color="#A57D24"/>
    </linearGradient>
    <linearGradient id="paint33_linear_3909_13111" x1="47.2464" y1="67.8099" x2="51.7731" y2="63.306" gradientUnits="userSpaceOnUse">
      <stop stop-color="#A57D24"/>
      <stop offset="0.21" stop-color="#D8BD62"/>
      <stop offset="0.33" stop-color="#F1DD80"/>
      <stop offset="0.52" stop-color="#FBF2A8"/>
      <stop offset="0.73" stop-color="#F1DD80"/>
      <stop offset="1" stop-color="#A57D24"/>
    </linearGradient>
    <clipPath id="clip0_3909_13111">
      <rect width="98.28" height="66.78" fill="white" transform="translate(0.439453 0.659668)"/>
    </clipPath>
  </defs>
</svg>