<svg xmlns="http://www.w3.org/2000/svg" width="360" height="549" viewBox="0 0 360 549" fill="none">
  <path d="M431.651 342.923C431.644 342.919 431.647 342.909 431.655 342.909L615.773 347.448C619.448 347.539 620.031 342.212 616.424 341.505L443.777 307.681C442.266 307.381 442.383 305.334 443.917 305.21C446.63 304.991 449.501 304.775 452.544 304.559L717 286.201L452.39 268.558C419.448 266.366 403.583 259.868 400.058 257.324C399.566 256.968 399.547 256.424 399.99 256.009C401.937 254.182 409.433 248.976 434.907 243.154L628.343 198.953C631.958 198.127 631.153 192.765 627.455 193.037L418.346 208.385C413.753 208.719 409.406 209.029 405.38 209.296C405.117 209.314 405.029 208.945 405.272 208.843L601.059 122.796C604.452 121.304 602.655 116.192 599.075 117.152L371.177 178.227C365.876 179.652 360.958 180.937 356.393 182.101C353.266 182.898 351.39 178.981 353.984 177.061C354.66 176.56 355.35 176.051 356.052 175.535L499.424 70.9055C502.34 68.7771 499.704 64.2584 496.416 65.7502L309.806 150.417C281.038 163.454 264.699 168.915 255.888 171.173C254.44 171.543 252.953 170.747 252.585 169.298C251.35 164.424 250.576 155.88 252.587 141.252L277.634 18.1831C278.283 14.9939 274.102 13.1984 272.236 15.8655L191.113 131.858C174.82 150.321 163.514 159.576 156.582 164.146C155.434 164.902 153.919 164.727 152.993 163.712C148.563 158.858 142.162 149.931 134.715 133.748L74.1042 2.01895C72.746 -0.932932 68.3192 0.0796928 68.3793 3.32849L70.8826 138.474C71.0879 149.67 70.701 157.76 70.0382 163.613C69.8132 165.6 67.6964 166.713 65.9029 165.828C58.4797 162.169 48.4805 156.903 35.0441 149.3L-99.588 73.0508C-102.574 71.3595 -105.601 75.1966 -103.261 77.7069L-16.8421 170.408C-12.8551 174.678 -9.69193 178.341 -7.18851 181.477C-5.50995 183.58 -7.3735 186.429 -9.99686 185.831C-17.7202 184.07 -27.4854 181.587 -39.7603 178.083L-180.3 137.998C-183.665 137.038 -185.67 141.638 -182.676 143.45L-78.4187 206.552C-73.5404 209.51 -69.3391 212.157 -65.7202 214.522C-63.1741 216.187 -64.5278 219.932 -67.5539 219.623C-72.377 219.132 -77.8136 218.518 -83.9559 217.75L-231.076 199.547C-234.617 199.109 -235.827 204.115 -232.476 205.342L-108.771 250.629C-105.734 251.741 -102.918 252.799 -100.304 253.805C-97.2848 254.968 -98.0964 259.142 -101.332 259.117C-103.235 259.102 -105.218 259.08 -107.284 259.05L-315.579 255.524C-319.292 255.461 -319.786 260.872 -316.122 261.483L-117.538 294.564C-98.3741 297.74 -85.7349 300.468 -77.4281 302.6C-74.7784 303.28 -74.5379 306.724 -77.0728 307.752C-82.3002 309.873 -89.4568 312.498 -99.2347 315.643L-246.081 362.572C-249.536 363.676 -248.43 368.822 -244.826 368.41L-76.6242 349.152C-45.0744 345.535 -28.2765 345.422 -19.8556 345.894C-17.9695 345.999 -16.7841 347.848 -17.6822 349.51C-20.4207 354.578 -27.2699 363.612 -44.2209 378.623L-185.723 503.917C-188.425 506.309 -185.38 510.558 -182.247 508.768L6.48615 400.991C33.3624 385.636 48.2272 380.623 54.9488 379.003C55.9338 378.766 56.966 379.076 57.6041 379.863C61.2073 384.307 67.1874 395.674 68.5754 422.758L62.9025 528.067C62.7355 531.167 66.8094 532.448 68.4468 529.811L130.562 429.775C145.968 410.932 156.655 403.986 161.668 401.517C162.424 401.145 163.298 401.149 164.049 401.531C169.435 404.266 181.343 412.31 198.599 435.216L283.077 547.651C285.025 550.244 289.13 548.33 288.398 545.171L260.739 425.88C257.564 412.205 257.146 403.512 257.655 398.065C257.819 396.315 259.568 395.26 261.238 395.807C269.96 398.659 284.109 404.285 305.858 415.369L449.559 488.631C452.655 490.21 455.509 486.141 452.971 483.768L355.591 392.686C349.156 386.669 344.802 381.953 341.848 378.313C340.295 376.4 341.797 373.753 344.251 373.974C353.97 374.848 368.742 376.784 390.66 380.857L604.813 420.538C608.45 421.212 609.847 415.992 606.359 414.76L418.244 348.293C418.063 348.229 417.882 348.165 417.703 348.101C414.585 346.993 415.37 342.655 418.678 342.695C422.677 342.743 426.991 342.821 431.647 342.937C431.655 342.937 431.658 342.927 431.651 342.923Z" fill="#E5DED5"/>
</svg>