<svg width="25" height="24" viewBox="0 0 25 24" fill="none" xmlns="http://www.w3.org/2000/svg">
<g id="check-double">
<path id="Union" fill-rule="evenodd" clip-rule="evenodd" d="M15.5 6H17.5V8H15.5V6ZM13.5 10V8H15.5V10H13.5ZM11.5 12V10H13.5V12H11.5ZM9.5 14V12H11.5V14H9.5ZM7.5 16V14H9.5V16H7.5ZM5.5 16H7.5V18H5.5V16ZM3.5 14H5.5V16H3.5V14ZM3.5 14H1.5V12H3.5V14ZM11.5 16H13.5V18H11.5V16ZM15.5 14V16H13.5V14H15.5ZM17.5 12V14H15.5V12H17.5ZM19.5 10V12H17.5V10H19.5ZM21.5 8H19.5V10H21.5V8ZM21.5 8H23.5V6H21.5V8Z" fill="#121212"/>
</g>
</svg>
