<svg width="64" height="64" viewBox="0 0 64 64" fill="none" xmlns="http://www.w3.org/2000/svg">
<g id="twemoji:heart-on-fire">
<path id="Vector" d="M59.7865 29.4489L59.623 32.3076L59.5501 33.7547C59.5145 34.2258 59.3865 34.6951 59.2976 35.1662L58.791 38.0071C58.519 38.9298 58.2114 39.8347 57.9038 40.7573C56.583 44.3573 54.7198 47.92 52.1332 50.8871C49.5533 53.902 46.5566 56.5335 43.2336 58.7022C39.8505 60.8729 36.359 62.5547 32.343 63.7849L31.6585 64L30.8994 63.7476C28.1865 62.8604 25.9252 61.7938 23.6087 60.4907C21.3474 59.2071 19.159 57.76 17.1874 56.0036L15.703 54.7022L14.3092 53.2907C13.3687 52.368 12.5545 51.3191 11.7225 50.288C10.1161 48.1763 8.74507 45.8955 7.63362 43.4862C6.5474 41.0809 5.66207 38.5653 5.13762 35.9964C5.0114 35.3458 4.81229 34.7129 4.7394 34.0604L4.50474 32.1244C4.37851 30.8213 4.16162 29.5733 4.23274 28.0729C4.34118 25.1964 5.22829 22.4284 6.56696 20.0587C7.91123 17.7373 9.62154 15.6481 11.6318 13.872L17.783 8.44444L14.8158 15.8649C13.8025 18.416 13.3136 21.4364 14.4727 23.3351C15.0327 24.2756 16.0461 24.7822 17.2941 24.8C18.5972 24.8 19.9163 24.4391 20.6221 23.5698C21.3456 22.72 21.4007 21.3813 20.9474 20.096C20.3678 18.7573 19.8256 16.9493 19.8985 15.3031C19.8985 13.6213 20.3874 11.9378 21.2372 10.4729C22.1047 9.008 23.3527 7.81333 24.7643 6.928L26.5918 5.78844L26.0852 7.904C25.5607 10.0747 25.9412 12.3538 27.3883 13.7476C28.8176 15.1413 31.079 15.6284 32.9047 15.1591C34.7323 14.6702 35.9625 13.1876 36.0336 11.5591C36.1776 9.87733 35.2923 7.97689 34.1527 6.22222L30.103 0L37.0132 2.89422C38.9492 3.69067 40.8656 4.59378 42.6754 5.86133C44.4656 7.12711 46.2381 8.72 47.4505 10.8178C48.7163 12.88 49.2407 15.4116 49.1874 17.6373C49.1874 18.1973 49.1518 18.7413 49.1145 19.2836C49.0416 19.8258 49.0238 20.2613 48.8976 20.9476C48.6807 22.16 48.3554 23.0631 48.0834 23.9858C47.5234 25.7582 47.1607 27.5858 47.559 28.544C47.7936 29.4489 49.8558 30.1547 51.3758 29.9556C53.0043 29.792 54.5225 28.6524 55.591 27.152C56.6576 25.632 57.2194 23.7333 57.5092 21.8524L57.7438 20.3698L58.2683 21.7262C59.2443 24.1849 59.8043 26.8089 59.7865 29.4489Z" fill="#F4900C"/>
<path id="Vector_2" d="M58.9262 29.3365C58.9244 26.7357 59.0471 25.3863 58.0249 23.0788C57.3262 29.877 52.2862 32.2237 47.728 30.5988C43.4578 29.0752 46.336 23.1357 46.5475 20.3001C46.9067 15.4948 46.5298 9.9961 36.0249 5.42188C40.3893 12.3605 36.5298 16.6699 32.4818 16.933C27.9911 17.2245 23.8773 13.7259 25.3955 8.04943C20.48 11.0592 20.336 16.1259 21.8524 19.4023C23.4347 22.8174 21.7884 25.6565 17.9307 25.9712C13.6178 26.325 11.2231 22.1348 13.4311 15.4592C9.6071 19.1997 6.89599 24.0583 7.29954 29.3348C9.14132 53.3934 31.7173 60.3179 31.7173 60.3179C31.7173 60.3179 58.9511 53.6388 58.9262 29.3365Z" fill="#FFCC4D"/>
<path id="Vector_3" d="M54.9977 34.6456C54.9977 31.2351 53.6431 27.9643 51.2316 25.5525C48.8202 23.1408 45.5496 21.7856 42.1391 21.7852C40.0946 21.7851 38.0797 22.2734 36.262 23.2094C34.4444 24.1454 32.8766 25.5021 31.6893 27.1665C30.5021 25.5023 28.9347 24.1458 27.1174 23.2098C25.3001 22.2738 23.2855 21.7853 21.2413 21.7852C17.8305 21.7852 14.5594 23.1401 12.1476 25.5519C9.7358 27.9637 8.38086 31.2348 8.38086 34.6456C8.38086 35.6518 8.50886 36.626 8.72753 37.5665C10.5124 48.6598 22.8484 60.3647 31.6875 63.5789C40.5266 60.3647 52.8626 48.6616 54.6457 37.5683C54.8771 36.6112 54.9952 35.6302 54.9977 34.6456Z" fill="#DD2E44"/>
<path id="Vector_4" d="M43.2202 56.0948C43.2202 56.0948 45.7553 51.1721 45.5651 46.0592C45.4976 44.2388 44.9838 42.4699 44.2567 40.8005C42.5536 36.8965 39.2682 27.101 46.2958 21.8477C46.2958 21.8477 44.9536 24.1037 46.1447 28.2139C46.6158 29.8405 47.4976 31.309 48.5447 32.6405C50.9624 35.7197 56.0451 44.1979 47.6842 52.1037L43.2202 56.0948ZM29.6042 62.7223C29.6042 62.7223 26.7936 60.029 25.3002 56.2299C24.7687 54.877 24.5784 53.421 24.5784 51.9668C24.5767 48.5694 23.8513 40.3597 17.0371 38.7632C17.0371 38.7632 18.7384 39.9845 19.1793 43.3694C19.3536 44.7081 19.1776 46.0645 18.838 47.3712C18.054 50.3952 17.11 57.8761 25.7464 60.9872L29.6042 62.7223Z" fill="#FFCC4D"/>
</g>
</svg>
