<svg width="16" height="16" class="diamond" viewBox="0 0 16 16" fill="none" xmlns="http://www.w3.org/2000/svg">
<g clip-path="url(#clip0_1_3918)">
<path d="M15.9184 4.61595L13.7329 0.437172C13.6054 0.193422 13.2756 -0.00582813 13.0009 -0.00582813H7.97064C7.96515 -0.0060625 7.95965 -0.00754688 7.95417 -0.0078125C7.94967 -0.0078125 7.94542 -0.00604688 7.9409 -0.0058125H3.0009C2.7259 -0.0058125 2.3954 0.192937 2.26615 0.435687L0.0864032 4.53394C-0.0431124 4.77669 -0.0170968 5.15795 0.143138 5.3817L7.64339 15.8372C7.7239 15.9495 7.83089 16.0062 7.93764 16.0062C8.04365 16.0062 8.14989 15.9509 8.23089 15.8407L15.8544 5.4617C16.0166 5.23994 16.0459 4.85945 15.9184 4.61595ZM14.7254 4.49341H12.0464L13.1191 1.42141L14.7254 4.49341ZM8.99062 0.994156H12.2089L11.2106 3.85241L8.99062 0.994156ZM10.4421 4.49341H5.79137L7.98937 1.33566L10.4421 4.49341ZM4.90537 4.01616L3.90261 0.994156H7.00911L4.90537 4.01616ZM10.6376 5.49341L7.94961 13.1894L5.39561 5.49341H10.6376ZM6.82786 12.9849L1.45386 5.49341H4.34186L6.82786 12.9849ZM11.6969 5.49341H14.5901L9.07486 13.0022L11.6969 5.49341ZM2.94586 1.28691L4.00986 4.49341H1.24036L2.94586 1.28691Z" fill="white"/>
</g>
<defs>
<clipPath id="clip0_1_3918">
<rect width="16" height="16" fill="white"/>
</clipPath>
</defs>
</svg>
