<svg width="20" height="20" viewBox="0 0 20 20" fill="none" xmlns="http://www.w3.org/2000/svg">
<path d="M15.9648 2.74461C16.0707 2.45403 15.9296 2.16345 15.6472 2.05448C15.3648 1.94552 15.0825 2.09081 14.9766 2.38138L13.8119 5.57775L10.353 2.16345C10.1412 1.94552 9.82353 1.94552 9.61176 2.16345L6.18815 5.57775L5.02341 2.38138C4.91753 2.09081 4.59987 1.94552 4.35281 2.05448C4.07045 2.16345 3.92927 2.49035 4.03516 2.74461L5.48225 6.70375C5.48225 6.74007 5.48225 6.74007 5.51754 6.77639L9.50587 17.6368C9.54117 17.6731 9.54117 17.7094 9.57646 17.7821L9.61176 17.8184C9.64705 17.8547 9.68235 17.891 9.71764 17.891C9.75294 17.9274 9.78823 17.9274 9.82353 17.9637C9.89412 18 9.92941 18 10 18C10.0706 18 10.1059 18 10.1765 17.9637C10.2118 17.9637 10.2471 17.9274 10.2824 17.891C10.3177 17.8547 10.353 17.8184 10.3882 17.8184L10.4235 17.7821C10.4588 17.7457 10.4588 17.7094 10.4941 17.6368L14.4825 6.77639C14.4825 6.74007 14.5178 6.74007 14.5178 6.70375L15.9648 2.74461ZM10 3.32577L13.3883 6.70375L10 15.9296L6.61169 6.70375L10 3.32577Z" fill="#959595"/>
<path d="M18.9641 6.61818V6.54545V6.47273V6.4C18.9641 6.36364 18.9641 6.36364 18.9281 6.32727V6.29091L18.8922 6.25455C18.8922 6.25455 18.8922 6.21818 18.8563 6.21818L15.982 2.21818C15.8743 2.07273 15.7305 2 15.5509 2H4.41317C4.23353 2 4.08982 2.07273 3.98204 2.21818L1.10778 6.21818C1.10778 6.21818 1.10778 6.25455 1.07186 6.25455L1.03593 6.29091V6.32727C1.03593 6.36364 1.03593 6.36364 1 6.4V6.61818C1 6.65455 1 6.65455 1.03593 6.69091C1.03593 6.72727 1.03593 6.72727 1.07186 6.76364V6.8L1.10778 6.83636C1.10778 6.83636 1.10778 6.87273 1.14371 6.87273L9.58683 17.7818C9.69461 17.9273 9.83832 18 10.018 18C10.1976 18 10.3413 17.9273 10.4491 17.7818L18.8922 6.87273C18.8922 6.87273 18.8922 6.83636 18.9281 6.83636L18.9641 6.8V6.76364C18.9641 6.72727 18.9641 6.72727 19 6.69091C18.9281 6.69091 18.9641 6.65455 18.9641 6.61818ZM4.7006 3.09091H15.2994L17.3832 6H2.58084L4.7006 3.09091ZM9.98204 16.5818L2.65269 7.09091H17.3114L9.98204 16.5818Z" fill="#959595"/>
</svg>
