<svg width="20" height="20" viewBox="0 0 20 20" fill="none" xmlns="http://www.w3.org/2000/svg">
<path d="M7.7666 12.5314C5.80293 12.5314 4.20508 10.9338 4.20508 8.96973C4.20508 7.00566 5.80293 5.4082 7.7666 5.4082C9.73027 5.4082 11.3289 7.00586 11.3289 8.96973C11.3289 10.9336 9.73047 12.5314 7.7666 12.5314ZM7.7666 6.71777C7.32121 6.71777 6.88582 6.84985 6.51548 7.0973C6.14515 7.34474 5.85651 7.69645 5.68607 8.10794C5.51562 8.51943 5.47103 8.97222 5.55792 9.40906C5.64481 9.8459 5.85929 10.2472 6.17423 10.5621C6.48917 10.877 6.89043 11.0915 7.32727 11.1784C7.7641 11.2653 8.2169 11.2207 8.62839 11.0503C9.03988 10.8798 9.39158 10.5912 9.63903 10.2208C9.88648 9.85051 10.0186 9.41512 10.0186 8.96973C10.0177 8.3728 9.78018 7.80057 9.35801 7.37855C8.93585 6.95653 8.36353 6.71917 7.7666 6.71855V6.71777Z" fill="#959595"/>
<path d="M4.61836 18.4924C2.65547 18.4924 1.05664 16.8945 1.05664 14.9309C1.05664 12.9672 2.65547 11.3691 4.61836 11.3691C6.58125 11.3691 8.17988 12.967 8.17988 14.9309C8.17988 16.8947 6.58125 18.4924 4.61836 18.4924ZM4.61836 12.6789C4.17297 12.6789 3.73757 12.811 3.36724 13.0584C2.99691 13.3059 2.70827 13.6576 2.53783 14.0691C2.36738 14.4806 2.32278 14.9334 2.40968 15.3702C2.49657 15.807 2.71105 16.2083 3.02599 16.5232C3.34093 16.8382 3.74219 17.0527 4.17903 17.1395C4.61586 17.2264 5.06865 17.1818 5.48014 17.0114C5.89164 16.8409 6.24334 16.5523 6.49079 16.182C6.73824 15.8116 6.87031 15.3763 6.87031 14.9309C6.86969 14.3338 6.63223 13.7614 6.21004 13.3392C5.78786 12.917 5.21542 12.6795 4.61836 12.6789Z" fill="#959595"/>
<path d="M11.3408 18.5275C9.37715 18.5275 7.7793 16.9299 7.7793 14.9658C7.7793 13.0018 9.37715 11.4043 11.3408 11.4043C13.3045 11.4043 14.9025 13.002 14.9025 14.9658C14.9025 16.9297 13.3047 18.5275 11.3408 18.5275ZM11.3408 12.7141C10.8954 12.7141 10.46 12.8461 10.0897 13.0936C9.71935 13.3411 9.43071 13.6928 9.26027 14.1043C9.08983 14.5158 9.04524 14.9686 9.13215 15.4054C9.21906 15.8423 9.43356 16.2435 9.74852 16.5585C10.0635 16.8734 10.4648 17.0879 10.9016 17.1747C11.3385 17.2616 11.7913 17.217 12.2027 17.0465C12.6142 16.876 12.9659 16.5873 13.2133 16.217C13.4608 15.8466 13.5928 15.4112 13.5928 14.9658C13.5921 14.3688 13.3546 13.7964 12.9324 13.3743C12.5103 12.9521 11.9379 12.7147 11.3408 12.7141Z" fill="#959595"/>
<path d="M9.91116 11.6221C9.78167 11.622 9.6551 11.5836 9.54744 11.5117C9.43978 11.4397 9.35587 11.3375 9.30631 11.2178C9.25675 11.0982 9.24376 10.9666 9.269 10.8396C9.29423 10.7126 9.35655 10.5959 9.44807 10.5043L13.9553 5.99725C14.3505 5.60207 14.5725 5.06608 14.5725 4.50721C14.5725 3.94834 14.3505 3.41235 13.9553 3.01717C13.7596 2.8215 13.5273 2.66628 13.2717 2.56038C13.016 2.45448 12.742 2.39998 12.4653 2.39998C11.9064 2.39998 11.3704 2.62199 10.9752 3.01717L7.55725 6.43514C7.49673 6.49719 7.42449 6.5466 7.34472 6.58051C7.26495 6.61443 7.17925 6.63217 7.09257 6.63271C7.00589 6.63326 6.91997 6.61659 6.83979 6.58367C6.7596 6.55075 6.68675 6.50225 6.62545 6.44096C6.56416 6.37968 6.51564 6.30684 6.4827 6.22666C6.44977 6.14648 6.43308 6.06056 6.43361 5.97389C6.43413 5.88721 6.45185 5.8015 6.48575 5.72173C6.51965 5.64195 6.56905 5.5697 6.63108 5.50916L10.049 2.0912C10.6909 1.45238 11.5596 1.09375 12.4652 1.09375C13.3707 1.09375 14.2394 1.45238 14.8813 2.0912C16.2131 3.42342 16.2131 5.591 14.8813 6.92323L10.3742 11.4303C10.3135 11.4912 10.2413 11.5395 10.1618 11.5724C10.0824 11.6053 9.99718 11.6222 9.91116 11.6221Z" fill="#959595"/>
<path d="M13.6093 17.4024C13.4849 17.4022 13.3631 17.3666 13.2583 17.2997C13.1534 17.2329 13.0697 17.1375 13.0171 17.0248C12.9644 16.9121 12.9449 16.7867 12.9609 16.6634C12.9769 16.54 13.0277 16.4238 13.1073 16.3282L16.4886 12.2868C17.298 11.4079 17.245 10.0731 16.3909 9.28505C15.9794 8.90785 15.4354 8.70862 14.8776 8.7308C14.3198 8.75297 13.7933 8.99474 13.413 9.40341L10.1341 12.954C10.076 13.0181 10.0058 13.0701 9.92752 13.1069C9.84923 13.1438 9.76441 13.1647 9.67797 13.1686C9.59154 13.1724 9.5052 13.1591 9.42394 13.1294C9.34268 13.0997 9.26812 13.0541 9.20457 12.9954C9.14102 12.9367 9.08973 12.866 9.05368 12.7873C9.01763 12.7087 8.99753 12.6237 8.99453 12.5372C8.99154 12.4507 9.00572 12.3645 9.03624 12.2836C9.06677 12.2026 9.11304 12.1285 9.17238 12.0655L12.4517 8.51572C12.7556 8.18547 13.1219 7.91875 13.5295 7.73101C13.9372 7.54327 14.378 7.43823 14.8265 7.42197C15.7489 7.3913 16.6118 7.70595 17.28 8.32314C18.6644 9.60107 18.7503 11.7669 17.4718 13.1511L14.1118 17.1681C14.0504 17.2416 13.9735 17.3007 13.8867 17.3412C13.7998 17.3817 13.7051 17.4026 13.6093 17.4024Z" fill="#959595"/>
<path d="M6.4043 8.88809C6.4043 9.0555 6.43727 9.22127 6.50134 9.37593C6.5654 9.5306 6.6593 9.67113 6.77768 9.78951C6.89606 9.90789 7.03659 10.0018 7.19126 10.0659C7.34592 10.1299 7.51169 10.1629 7.6791 10.1629C7.84651 10.1629 8.01228 10.1299 8.16695 10.0659C8.32161 10.0018 8.46215 9.90789 8.58052 9.78951C8.6989 9.67113 8.7928 9.5306 8.85687 9.37593C8.92093 9.22127 8.95391 9.0555 8.95391 8.88809C8.95391 8.72068 8.92093 8.55491 8.85687 8.40024C8.7928 8.24557 8.6989 8.10504 8.58052 7.98666C8.46215 7.86829 8.32161 7.77438 8.16695 7.71032C8.01228 7.64626 7.84651 7.61328 7.6791 7.61328C7.51169 7.61328 7.34592 7.64626 7.19126 7.71032C7.03659 7.77438 6.89606 7.86829 6.77768 7.98666C6.6593 8.10504 6.5654 8.24557 6.50134 8.40024C6.43727 8.55491 6.4043 8.72068 6.4043 8.88809Z" fill="#959595"/>
<path d="M3.39453 14.8549C3.39453 15.193 3.52884 15.5172 3.76791 15.7563C4.00699 15.9954 4.33124 16.1297 4.66934 16.1297C5.00744 16.1297 5.33169 15.9954 5.57076 15.7563C5.80983 15.5172 5.94414 15.193 5.94414 14.8549C5.94414 14.5168 5.80983 14.1925 5.57076 13.9535C5.33169 13.7144 5.00744 13.5801 4.66934 13.5801C4.33124 13.5801 4.00699 13.7144 3.76791 13.9535C3.52884 14.1925 3.39453 14.5168 3.39453 14.8549Z" fill="#959595"/>
<path d="M9.98438 14.9916C9.98438 15.3297 10.1187 15.654 10.3578 15.893C10.5968 16.1321 10.9211 16.2664 11.2592 16.2664C11.5973 16.2664 11.9215 16.1321 12.1606 15.893C12.3997 15.654 12.534 15.3297 12.534 14.9916C12.534 14.6535 12.3997 14.3293 12.1606 14.0902C11.9215 13.8511 11.5973 13.7168 11.2592 13.7168C10.9211 13.7168 10.5968 13.8511 10.3578 14.0902C10.1187 14.3293 9.98438 14.6535 9.98438 14.9916Z" fill="#959595"/>
</svg>
