<svg width="20" height="20" viewBox="0 0 20 20" fill="none" xmlns="http://www.w3.org/2000/svg">
<path d="M9.9992 18.9583C9.4992 18.9583 9.04087 18.75 8.7492 18.375L1.41587 10.1667C0.915871 9.625 0.832538 8.79167 1.2492 8.16667L3.7492 3.95833C4.04087 3.45833 4.6242 3.125 5.20754 3.125H14.7909C15.3742 3.125 15.9159 3.45833 16.2075 3.95833L18.7492 8.16667C19.1242 8.79167 19.0409 9.625 18.5409 10.1667L11.2492 18.4167C10.9159 18.75 10.4575 18.9583 9.9992 18.9583ZM14.7492 4.375H5.16587C4.9992 4.375 4.8742 4.45833 4.79087 4.58333L2.29087 8.79167C2.20754 8.95833 2.20754 9.16667 2.33254 9.33333L9.6242 17.5833C9.70754 17.6667 9.83254 17.75 9.95754 17.75C10.0825 17.75 10.2075 17.7083 10.2909 17.5833L17.6242 9.375C17.7492 9.20833 17.7909 9 17.6659 8.83333L15.1242 4.625C15.0409 4.45833 14.9159 4.375 14.7492 4.375Z" fill="#959595"/>
<path d="M9.70799 9.66632C9.58299 9.66632 9.49966 9.62466 9.37466 9.58299L6.29132 7.66632C5.99966 7.49966 5.91632 7.08299 6.08299 6.79132C6.24966 6.49966 6.66632 6.41632 6.95799 6.58299L10.0413 8.49966C10.333 8.66632 10.4163 9.08299 10.2497 9.37466C10.1247 9.54132 9.91633 9.66632 9.70799 9.66632Z" fill="#959595"/>
<path d="M9.99966 9.66632C9.79133 9.66632 9.58299 9.54132 9.45799 9.37466C9.29132 9.08299 9.37466 8.70799 9.66632 8.49966L12.7497 6.58299C13.0413 6.41632 13.4163 6.49966 13.6247 6.79132C13.7913 7.08299 13.708 7.45799 13.4163 7.66632L10.333 9.58299C10.208 9.62466 10.1247 9.66632 9.99966 9.66632Z" fill="#959595"/>
<path d="M14.0417 10.832H5.875C5.54167 10.832 5.25 10.5404 5.25 10.207C5.25 9.8737 5.54167 9.58203 5.875 9.58203H14.0833C14.4167 9.58203 14.7083 9.8737 14.7083 10.207C14.7083 10.5404 14.375 10.832 14.0417 10.832Z" fill="#959595"/>
</svg>
