<svg width="20" height="20" viewBox="0 0 20 20" fill="none" xmlns="http://www.w3.org/2000/svg">
<path d="M9.79297 2.82227C10.9414 2.82227 12.0195 3.26953 12.832 4.08008C13.6445 4.89258 14.0898 5.9707 14.0898 7.11914C14.0898 7.36523 14.0156 7.95898 13.5156 9.17578C13.1562 10.0488 12.6406 11.0898 11.9805 12.2695C11.2383 13.5957 10.4336 14.8867 9.79297 15.875C9.15234 14.8867 8.34766 13.5957 7.60547 12.2695C6.94727 11.0918 6.42969 10.0508 6.07031 9.17578C5.57031 7.95898 5.49609 7.36523 5.49609 7.11914C5.49609 5.9707 5.94336 4.89258 6.75391 4.08008C7.56445 3.26758 8.64648 2.82227 9.79297 2.82227ZM9.79297 1.25977C6.55664 1.25977 3.93359 3.88281 3.93359 7.11914C3.93359 9.89453 8.24219 16.4141 9.4707 18.2129C9.54883 18.3262 9.66992 18.3828 9.79297 18.3828C9.91602 18.3828 10.0391 18.3262 10.1152 18.2129C11.3418 16.4121 15.6523 9.89258 15.6523 7.11914C15.6523 3.88281 13.0293 1.25977 9.79297 1.25977Z" fill="#959595"/>
<path d="M7.83984 6.52344C7.83984 7.04144 8.04562 7.53822 8.4119 7.90451C8.77818 8.27079 9.27497 8.47656 9.79297 8.47656C10.311 8.47656 10.8078 8.27079 11.174 7.90451C11.5403 7.53822 11.7461 7.04144 11.7461 6.52344C11.7461 6.00544 11.5403 5.50865 11.174 5.14237C10.8078 4.77609 10.311 4.57031 9.79297 4.57031C9.27497 4.57031 8.77818 4.77609 8.4119 5.14237C8.04562 5.50865 7.83984 6.00544 7.83984 6.52344Z" fill="#959595"/>
</svg>
