<svg width="20" height="20" viewBox="0 0 20 20" fill="none" xmlns="http://www.w3.org/2000/svg">
<path d="M11.3346 4.41797L10.2513 5.5013L12.168 7.41797L11.5846 8.0013L9.66797 6.08464L8.58464 7.16797L10.5013 9.08464L9.91797 9.66797L8.0013 7.7513L6.91797 8.83464L8.83464 10.7513L8.2513 11.3346L6.33464 9.41797L5.2513 10.5013L7.16797 12.418L6.58464 13.0013L4.66797 11.0846L2.83464 12.918L6.33464 16.418L16.3346 6.41797L12.8346 2.91797L11.8346 3.91797L13.7513 5.83463L13.168 6.41797L11.3346 4.41797ZM12.8346 1.66797L17.5846 6.41797L6.41797 17.5846L1.66797 12.8346L12.8346 1.66797Z" fill="#959595"/>
</svg>
